<?xml version="1.0" encoding="UTF-8"?><svg id="Layer_1" xmlns="http://www.w3.org/2000/svg" viewBox="0 0 841.9 403.5"><defs><style>.cls-1{fill:#e5232b;}.cls-1,.cls-2,.cls-3{stroke-width:0px;}.cls-2{fill:#fff;}.cls-3{fill:#11110e;}</style></defs><path class="cls-1" d="M325.8,403.5H75.2c-42.1,0-76.2-34.1-76.2-76.2V76.8C-.9,34.7,33.2.6,75.2.6h250.6c42.1,0,76.2,34.1,76.2,76.2v250.6c0,42.1-34.1,76.2-76.2,76.2"/><path class="cls-2" d="M375.6,113.8c0,22-17.8,39.8-39.8,39.8s-39.8-17.8-39.8-39.8,17.8-39.8,39.8-39.8,39.8,17.8,39.8,39.8"/><path class="cls-2" d="M43.8,319.1c-.1,1.6,1,3.1,2.5,3.4,8.8,2,19.1,3.6,28,5,11,1.7,22.2,2.8,33.3,4.2,17.1,2,34,2.2,51.2,2.2,20.2-.7,40-3.5,58.3-12.4,5-2.4,10-5.4,14.7-9.1,2.4-1.8,4.6-3.8,6.9-6,.7-.7,1.4-1.4,2.1-2.2,16.9-18.7,23.2-47.7,13.8-71.4-10.1-25.5-30.7-43.1-54.2-55.7-18.4-9.9-38.9-15.6-59.5-18.4-1.5-.2-15.4-2.1-29.7-2.7,5.9-2.8,18.7-5.2,21-5.7,6.8-1.4,13.7-2,20.6-2.4,55.5-2.5,106.1,26.5,136,72.6,19.1,29.5,33.9,73.4,40.3,110.7.2,1.2,1.1,2.3,2.3,2.6,1.9.5,3.6-.8,3.8-2.6,0-.2.2-1.5.2-1.7,1.3-27.6-2.9-87.3-14.8-124-12.3-38-33.4-66.7-62.4-89.9-18.7-15-40.2-27-63.2-34.1-22.5-7-46.6-9.1-70-6-2.8.4-5.6.8-8.3,1.4-19.3,4.1-38.1,14.4-51.6,28.8-16.4,17.5-25.3,42.6-19.8,66.3,5.8,25.2,28,42.3,50.7,51.8.9.4,1.9.8,2.9,1.2,2.1.8,4.3,1.6,6.5,2.3,15,5,30.7,7.5,46.4,9.4,1.2.1,2.3.3,3.5.4,14.8,1.7,34,1.8,46.2,11.6,9.9,8,12.7,22.3,5.2,33.1-1.4,2-3,3.8-4.8,5.4-5.5,4.9-12.6,7.7-19.5,10.1-6.9,2.4-13.9,4.3-21,6.1-21.2,5.6-42.3,8.2-64,10.6-15.8,1.7-33.7,2.4-50.2,1.9-1.8,0-3.4,1.3-3.5,3.1"/><path class="cls-3" d="M447.4,196h-2.5v55.3h-18.5v-75.5c-.7-14,7.5-19.6,21.3-19.6s6.1.1,8.9.6v15.3h-4.9c-4.3,0-6.7,1.8-7.1,5.4v4.9h11.9v4.3c0,5-4.2,9.3-9.2,9.3"/><path class="cls-3" d="M447,89h-18.5c2.2-13.6,11.8-20.3,28.8-20.3s30.6,6.7,31,20.3v25c0,20.3-12.2,29.3-32.1,30.7-17.7,1.4-29.9-6.8-29.9-23.1.4-17.6,13.2-22.4,31.8-24.2,7.9-1,12-3.3,12-7.4-.4-4.2-4.3-6.3-12-6.3s-10.1,1.7-11.1,5.1M470.4,113.1v-6.8c-4.3,1.8-9.3,3.3-14.7,4.4-7.4,1.4-11.1,4.9-11.1,10.3.4,5.8,3.5,8.6,9.3,8.6,10.3,0,16.5-6.1,16.5-16.5"/><path class="cls-3" d="M528,144.8c-22.2,0-33.6-12.8-34.2-38.1,0-25.2,11.3-37.8,33.9-38.2,17.8,0,28.3,7.9,31.5,23.9h-20.1c-2.2-5-6.1-7.6-12-7.6-9.7,0-14.6,7.4-14.6,22s5.1,22,15.4,21.8c4.3,0,8.1-1.8,11.1-5.3,1.8-1.8,3.9-2.6,6.3-2.6h13.9c-3.3,15-14.2,24.6-31.3,24.2"/><path class="cls-3" d="M586.7,84.9h-1.9v40.7c0,3.1,1.8,4.7,5.4,4.7h5.7v14c-6,.6-12.5.6-19.5-.1-6.9-.7-10.3-5-10.1-13.2V50.8h9.6c4.9,0,8.9,4.4,8.9,9.3v11.7h11.1v4c0,5.3-4,9.2-9.2,9.2"/><path class="cls-3" d="M613.2,50.3c6.1,0,9,3.1,8.9,9v5.4h-18.5v-14.5h9.6ZM613.2,71.3c6,0,8.9,2.9,8.9,8.9v64.6h-18.5v-73.5h9.6Z"/><path class="cls-3" d="M699.8,71.3l-26,73.5h-19.6l-25.8-73.5h20.4l14.9,51.6,12.8-45c1.4-4.3,4.5-6.5,9-6.5h14.3Z"/><path class="cls-3" d="M734,144.8c-22.2-.7-33.4-13.6-33.4-38.6s11.3-37.5,33.6-37.7c23.3,0,34.3,14.3,32.9,43.1h-47.5c.7,11.3,5.6,17,14.6,17s8.3-1.8,12-5.3c1.7-1.8,3.8-2.6,6.3-2.6h13.6c-4,15.6-14,24.2-32.1,24.2M719.9,98.4h27.7c-1.1-9.7-5.7-14.7-13.6-14.7s-12.6,5-14,14.7"/><path class="cls-3" d="M472.5,156.8c6.1,0,9,3.1,8.9,9v5.4h-18.5v-14.5h9.6ZM472.5,177.8c6,0,8.9,2.9,8.9,8.9v64.6h-18.5v-73.5h9.6Z"/><path class="cls-3" d="M509.5,191.4h-1.9v40.7c0,3.1,1.8,4.7,5.4,4.7h5.7v14c-6,.6-12.5.6-19.5-.1-6.9-.7-10.3-5-10.1-13.2v-80.3h9.6c4.9,0,8.9,4.4,8.9,9.3v11.7h11.1v4c0,5.3-4,9.2-9.2,9.2"/><path class="cls-3" d="M576.9,251.3c-6.1-.4-9.2-3.3-9.2-9.2v-37.8c-.4-7.6-4.6-11.4-12.8-11.4s-12.4,3.8-12.5,11.4v47h-18.8v-43.2c0-21,10.6-31.4,31.5-31.4s31.3,10.4,31.1,31.4v43.2h-9.4Z"/><path class="cls-3" d="M624.7,251.3c-22.2-.7-33.4-13.6-33.4-38.6s11.3-37.5,33.6-37.7c23.3,0,34.3,14.3,32.9,43.1h-47.5c.7,11.3,5.6,17,14.6,17s8.3-1.8,12-5.3c1.7-1.8,3.8-2.6,6.3-2.6h13.6c-4,15.6-14,24.2-32.1,24.2M610.6,204.9h27.7c-1.1-9.7-5.7-14.7-13.6-14.7s-12.6,5-14,14.7"/><path class="cls-3" d="M695.8,236.5c7.8,0,11.7-2.2,11.7-6.9s-6.4-6.8-19-9c-16.3-2.9-24.6-10.1-24.7-21.7,0-15.8,12.5-23.3,29.3-23.6,9.4,0,17,2.1,22.5,6.3,5.4,4.3,8.3,10.3,8.8,17.9h-11.7c-4.3-.1-7.1-1.7-8.2-4.6-1.3-3.2-5-5-11.1-5s-10.8,1.9-10.8,5.7,4.7,6.7,14.3,8.5c12.5,2.5,20.7,5.7,24.7,9.4,3.5,3.6,5.1,8.1,5.1,13.1,0,18.1-14.2,24.7-33.6,24.7s-18.1-2.2-23.1-6.5c-5.6-4.2-8.3-10.6-8.3-19h18.9c.4,8.1,6.3,10.8,15.3,10.8"/><path class="cls-3" d="M764,236.5c7.8,0,11.7-2.2,11.7-6.9s-6.4-6.8-19-9c-16.3-2.9-24.6-10.1-24.7-21.7,0-15.8,12.5-23.3,29.3-23.6,9.4,0,17,2.1,22.5,6.3,5.4,4.3,8.3,10.3,8.8,17.9h-11.7c-4.3-.1-7.1-1.7-8.2-4.6-1.3-3.2-5-5-11.1-5s-10.8,1.9-10.8,5.7,4.7,6.7,14.3,8.5c12.5,2.5,20.7,5.7,24.7,9.4,3.5,3.6,5.1,8.1,5.1,13.1,0,18.1-14.2,24.7-33.6,24.7s-18.1-2.2-23.1-6.5c-5.6-4.2-8.3-10.6-8.3-19h18.9c.4,8.1,6.3,10.8,15.3,10.8"/><path class="cls-3" d="M460.5,342c7.8,0,11.7-2.2,11.7-6.9s-6.4-6.8-19-9c-16.3-2.9-24.6-10.1-24.7-21.7,0-15.8,12.5-23.3,29.3-23.6,9.4,0,17,2.1,22.5,6.3,5.4,4.3,8.3,10.3,8.8,17.9h-11.7c-4.3-.1-7.1-1.7-8.2-4.6-1.3-3.2-5-5-11.1-5s-10.8,1.9-10.8,5.7,4.7,6.7,14.3,8.5c12.5,2.5,20.7,5.7,24.7,9.4,3.5,3.6,5.1,8.1,5.1,13.1,0,18.1-14.2,24.7-33.6,24.7s-18.1-2.2-23.1-6.5c-5.6-4.2-8.3-10.6-8.3-19h18.9c.4,8.1,6.3,10.8,15.3,10.8"/><path class="cls-3" d="M517,296.8h-1.9v40.7c0,3.1,1.8,4.7,5.4,4.7h5.7v14c-6,.6-12.5.6-19.5-.1-6.9-.7-10.3-5-10.1-13.2v-80.3h9.6c4.9,0,8.9,4.4,8.9,9.3v11.7h11.1v4c0,5.3-4,9.2-9.2,9.2"/><path class="cls-3" d="M597.5,318.6c0,25.3-11.3,38.1-33.5,38.1s-33.4-12.8-33.4-38.1,11.1-38.2,33.4-38.2,33.5,12.6,33.5,38.2M549.4,318.6c.1,14.3,5,21.5,14.5,21.5s14.2-7.5,14.3-22.1c0-14.3-4.7-21.4-14.2-21.4s-14.6,7.4-14.6,22"/><path class="cls-3" d="M603.6,318.8c.6-23.8,13.2-35.6,37.8-35.6h2.6v19.2h-6.3c-10.3,0-15.4,5.4-15.4,16.1v38.2h-18.8v-37.9Z"/><path class="cls-3" d="M682.7,356.7c-22.2-.7-33.4-13.6-33.4-38.6s11.3-37.5,33.6-37.7c23.3,0,34.3,14.3,32.9,43.1h-47.5c.7,11.3,5.6,17,14.6,17s8.3-1.8,12-5.3c1.7-1.8,3.8-2.6,6.3-2.6h13.6c-4,15.6-14,24.2-32.1,24.2M668.7,310.3h27.7c-1.1-9.7-5.7-14.7-13.6-14.7s-12.6,5-14,14.7"/></svg>