<?xml version="1.0" encoding="utf-8"?>
<!-- Generator: Adobe Illustrator 18.1.1, SVG Export Plug-In . SVG Version: 6.00 Build 0)  -->
<svg version="1.1" id="Layer_1" xmlns="http://www.w3.org/2000/svg" xmlns:xlink="http://www.w3.org/1999/xlink" x="0px" y="0px"
	 viewBox="-133 153 344 488" enable-background="new -133 153 344 488" xml:space="preserve">
<desc>Created with Sketch.</desc>
<g id="active_x2B_stacked">
	<g id="Layer_2">
		<g>
			<g id="Layer_1-2">
				
					<linearGradient id="Combined-Shape_1_" gradientUnits="userSpaceOnUse" x1="-264.2892" y1="792.2796" x2="-264.0988" y2="792.2047" gradientTransform="matrix(96.4433 0 0 -117.794 25526.4238 93702.3125)">
					<stop  offset="0" style="stop-color:#97C572"/>
					<stop  offset="1" style="stop-color:#6DB43F"/>
				</linearGradient>
				<path id="Combined-Shape" fill="url(#Combined-Shape_1_)" d="M56.5,365.1c4.3,0,7.8-3.5,7.8-7.8c0-4.3-3.5-7.8-7.8-7.8
					c-4.3,0-7.8,3.5-7.8,7.8c0,2.1,0.8,4.1,2.3,5.5S54.4,365.1,56.5,365.1z M13.2,401.7c28-14.9,32.7-10.4,43.3,20.7
					c-3.9-50.2-0.5-44.2,25.8-58.9c-31,4-28.5,12.1-49.7-25.5C42.9,373.8,41.7,373.9,13.2,401.7z"/>
				
					<linearGradient id="Shape_9_" gradientUnits="userSpaceOnUse" x1="-264.5622" y1="792.7065" x2="-264.1649" y2="792.3752" gradientTransform="matrix(136.9607 0 0 -167.2943 36216.8906 132953.5781)">
					<stop  offset="0" style="stop-color:#97C572"/>
					<stop  offset="1" style="stop-color:#6DB43F"/>
				</linearGradient>
				<path id="Shape" fill="url(#Shape_9_)" d="M-49.2,337c37.4,20.8,42.2,12.3,36.6,83.6c15-44.1,21.7-50.5,61.4-29.4
					c-40.5-39.6-42.3-39.7-27.5-90.4C-8.7,354.3-5.2,342.8-49.2,337 M-23.7,328.2c0,4.5,2.7,8.5,6.8,10.3c4.1,1.7,8.9,0.8,12.1-2.4
					c3.2-3.2,4.1-7.9,2.4-12.1c-1.7-4.1-5.8-6.8-10.2-6.8C-18.8,317.1-23.7,322.1-23.7,328.2"/>
				<path id="Shape_1_" fill="#005287" d="M-59.6,433.6c5.8-0.1,11.5,1.3,16.5,4.1c-2.8,8.4-5.6,20-5.6,28.8
					c0.1,3.2,0.7,6.3,1.8,9.3c-2.2,0.8-4.5,1.2-6.9,1.2c-5.4,0-7.3-2-7.3-7.2c-2.7,4.5-7.1,7.7-12.5,7.7c-8.8,0-12.5-7.9-12.5-15.6
					C-86,446.4-75.9,433.6-59.6,433.6 M-68.7,469.7c6.2,0,8.2-9.7,9.3-14.3c1.1-4.6,1.9-9.2,2.4-13.9c-1.1-0.3-2.2-0.5-3.4-0.5
					c-9.8,0-12.9,14-12.9,21.7C-73.3,465.9-72.5,469.7-68.7,469.7"/>
				<path id="Shape_2_" fill="#005287" d="M-8.5,445.1c-2.2-2-3.8-3.3-6.9-3.3c-7.8,0-11,13.5-11,19.6c0,4.1,1.6,8.1,6.3,8.1
					c3.4,0,4.9-1.1,7.1-3.5c0.4,1,0.6,2.1,0.7,3.2c0,6.3-8.3,8.6-13.4,8.6c-9.4,0-13.7-6-13.7-15c0-13.2,8.7-29.3,23.6-29.3
					c4,0,8.7,1.3,8.7,6.1C-7.2,441.6-7.6,443.5-8.5,445.1"/>
				<path id="Shape_3_" fill="#005287" d="M20.9,440.6c-2.1-0.4-4.3-0.6-6.4-0.6c-0.6,0-1.3,0-1.9,0.1c-1.2,4.9-4,19.8-4,24.6
					c-0.1,1.3,0.3,2.6,1.2,3.5c0.9,0.9,2.2,1.4,3.5,1.3c1.2,0,2.3-0.3,3.5-0.7c0,6.2-4.2,8.5-10,8.5c-6.1,0-10.5-3.3-10.5-9.7
					c0-3.3,1-6.7,1.5-9.9c1-5.8,2.4-11.6,3.1-17.4c-3-0.4-5.6,0.3-5.6-3.7c0-0.8,0.1-1.7,0.3-2.5c0.9,0.5,1.9,0.7,2.9,0.6h3.3
					c0.3-2,0.5-4,0.5-6c0-1.8-0.2-3.6-0.4-5.4c1.7-0.3,3.5-0.5,5.3-0.6c3.8,0,7.8,1.3,7.8,5.8c-0.2,2-0.5,4.1-1.1,6
					c1.4-0.3,2.8-0.4,4.2-0.5c0.9-0.1,1.9,0.2,2.5,0.9c0.7,0.7,1,1.6,0.9,2.6C21.4,438.7,21.2,439.6,20.9,440.6"/>
				<path id="Shape_4_" fill="#005287" d="M39,450.7c-1.5,7.1-3.4,14.8-3.4,22c0,1.3,0.1,2.5,0.3,3.7c-1.5,0.5-3,0.7-4.6,0.8
					c-4.2,0-8.3-1.1-8.3-6.1c0-3.5,1.2-7.7,2.2-11c1.7-5.9,2.6-12,2.7-18.1c0-2.4-0.2-4.7-0.6-7.1c1.8-0.4,3.6-0.6,5.4-0.7
					c4.2,0,7.9,1.7,7.9,6.4C40.4,444,39.9,447.4,39,450.7 M37.8,413.3c1.5-0.1,2.9,0.4,4,1.5s1.6,2.5,1.6,4c0,1.4-0.3,3-0.3,4.4
					c-0.1,1.6,0.2,3.2,0.7,4.7c-0.7,0.1-1.4,0.2-2.1,0.2c-4.7,0-10.1-3.4-10.1-8.5c-0.1-1.7,0.6-3.3,1.8-4.5
					C34.4,413.8,36.1,413.2,37.8,413.3"/>
				<path id="Shape_5_" fill="#005287" d="M78.6,449c-5.6,8.7-11.6,18-15.4,27.6c-1.5,0.5-3.2,0.8-4.8,0.8c-4.8,0-6.9-1.2-7.4-6.1
					c-0.8-8.7-1.7-27.1-5.8-35.4c2.6-0.9,5.2-1.4,8-1.5c1.6-0.1,3.3,0.1,4.8,0.8c3.1,1.8,3.2,9.3,3.4,12.4
					c0.4,5.1,0.8,10.2,1.1,15.2c3-5.9,10.8-17,10.8-23.9c0-1.3-0.4-2.6-1.2-3.7c1.6-0.9,3.4-1.4,5.3-1.4c3.3,0,6,1.7,6,5.2
					S80.4,446.2,78.6,449"/>
				<path id="Shape_6_" fill="#005287" d="M97.9,457.2h-1.6c-0.3,1.8-0.5,3.6-0.5,5.4c0,4.3,2.2,7.9,6.9,7.9c3.7,0,7.2-2,10-4.4
					c0.4,0.9,0.7,1.8,0.8,2.8c0,6.8-9.3,8.9-14.6,8.9c-10.2,0-15.5-6.7-15.5-16.5c0-12.8,9-27.7,23.2-27.7c6.2,0,11.8,3.2,11.8,10
					C118.4,453.2,105.8,457.2,97.9,457.2 M106.4,439.9c-5.2,0-8.1,8.1-9.2,12.2c4.6-0.4,12.5-2.7,12.5-8.4c0.1-0.9-0.2-1.9-0.8-2.6
					C108.2,440.4,107.3,440,106.4,439.9"/>
				<path id="Shape_7_" fill="#6CB33F" d="M140.8,408.8c-10.3,0-18.6,8.3-18.6,18.6c0,10.3,8.3,18.6,18.6,18.6
					c10.3,0,18.6-8.3,18.6-18.6C159.4,417.2,151.1,408.8,140.8,408.8"/>
				<path id="Shape_8_" fill="#FFFFFF" d="M151.8,424.5h-8V419c0.1-0.7-0.1-1.5-0.5-2c-0.4-0.3-1-0.5-1.5-0.4l-4.1,0.3l0.1,0.9
					c0.1,0.7,0.1,2.4,0.1,3.6v3.2h-5.7c-2.3,0-2.3,2.7-2.3,4.8l0,0.9h8v9l2.8-0.1c0.9,0,3.2-0.1,3.2-2.1v-6.8h5.7
					c0.6,0,1.1-0.2,1.5-0.6c0.8-0.8,0.9-2.2,0.9-4.2L151.8,424.5z"/>
			</g>
		</g>
	</g>
</g>
</svg>
