<svg xmlns="http://www.w3.org/2000/svg" viewBox="0 0 654.7 125.7" xmlns:v="https://vecta.io/nano"><path d="M11.7 98H0V2h11.7v41.7h49.9V2h11.9v96H61.6V54H11.7v44m117.2-77.6c0-6.4-3.9-10.4-10.8-10.4-6.8 0-10.9 4.1-10.9 10.4 0 4.7 2.3 9.3 8.8 17.2 9.1-5.9 12.9-10.1 12.9-17.2zm-15.6 30.1C100.4 58.7 97.2 64.3 97.2 72c0 11.1 8.1 18 20.8 18 8.7 0 15.7-2.9 21.2-8.5l-25.9-31zM96.1 20.4C96.1 8.7 105.2 0 118 0c12.9 0 22 8.9 22 20.4 0 8.9-5.6 16.8-17.9 24.5l23.1 27.5c3.1-6.5 4.7-14.1 5.1-22.7h11.1c-.4 11.7-3.3 22.1-8.9 31.2L166.8 98h-13.6c-2.5-2.8-4.9-5.9-7.5-8.8-7.6 7.3-16.9 10.8-27.7 10.8-19.7 0-32.1-11.2-32.1-28 0-10.9 6.4-20 21.3-28.8-8.4-9.5-11.1-16.3-11.1-22.8M228.5 98h-11.2l-28.1-74.8h-.3V98h-11.1V2h14.5l30.8 82.1L254 2h14v96h-11.2V23.2h-.1L228.5 98m149.9-37.9h-28.3V50h40.5v48h-8.4l-2.7-12.4C372 96 361.3 100 350.1 100c-29.2 0-45.1-21.1-45.1-50 0-27.6 15.7-50 45.1-50 19.5 0 35.3 10.5 38.9 29.7h-12.3c-3.1-12.5-13.6-19.2-26.7-19.2-22.9 0-32.9 19.3-32.9 39.5 0 22 9.9 39.6 32.9 39.6 13.5 0 27.3-11.3 28.4-29.5m27.1-29.2h10.9v9.3c3.5-7.5 10.4-11.3 20-11.3 2.3 0 4.3.1 6.1.4v9.9c-2.1-.3-4.1-.4-6.1-.4-13.2 0-20 6.8-20 20V98h-10.9V30.9m93.2 33.6c0-17.1-9.5-25.6-21.9-25.6-12.7 0-21.9 8.5-21.9 25.6 0 16.9 9.2 25.5 21.9 25.5 12.5 0 21.9-8.5 21.9-25.5zm11.3 0c0 22.4-14.9 35.5-33.2 35.5-18.4 0-33.1-13.2-33.1-35.5 0-22.1 14.7-35.6 33.1-35.6 18.1 0 33.2 13.1 33.2 35.6M565.2 98v-7.9c-4.9 6.5-12 9.9-21.5 9.9-15.7 0-23.6-9.1-23.6-27.1v-42H531v41.5c0 12.3 4.5 17.9 14.9 17.9 11.1 0 19.2-7.2 19.2-19.5V30.9H576V98h-10.8m57.5-7.7c12.8 0 20.7-9.2 20.7-25.9 0-16.5-8-25.7-20.7-25.7-13.7 0-21.2 8.4-21.2 25.9 0 16.9 7.4 25.7 21.2 25.7zm-21.2-51.1c5.1-6.8 12.3-10.3 22-10.3 18.5 0 31.2 14.4 31.2 35.6 0 21.1-12.4 35.5-31.2 35.5-9.7 0-17.1-3.3-22-10.3v36h-10.9V30.9h10.9v8.3"/></svg>