<?xml version="1.0" encoding="utf-8"?>
<!-- Generator: Adobe Illustrator 27.2.0, SVG Export Plug-In . SVG Version: 6.00 Build 0)  -->
<svg version="1.1" id="Layer_1" xmlns="http://www.w3.org/2000/svg" xmlns:xlink="http://www.w3.org/1999/xlink" x="0px" y="0px"
	 viewBox="0 0 1000 1000" style="enable-background:new 0 0 1000 1000;" xml:space="preserve">
<style type="text/css">
	.st0{fill:#FFDD00;}
	.st1{fill:#192E7B;}
	.st2{fill:#E01B22;}
</style>
<g id="XMLID_2_">
	<path id="XMLID_159_" class="st0" d="M857.6,401.3l-19.9,74.6l-3.6,13.5l-16.9,63.6c-6.5,24.2-28.4,41.1-53.4,41.1H171.9
		c-20,0-34.6-19-29.4-38.3l17.7-66.3l22.8-85.3c6.5-24.2,28.4-41.1,53.4-41.1h591.8C848.1,363,862.7,382,857.6,401.3z"/>
	<g id="XMLID_142_">
		<g id="XMLID_57_">
			<path id="XMLID_109_" class="st1" d="M197.7,620.9h4.1v17.7c0,3.1-0.3,5.5-1,7.3c-0.7,1.8-2,3.3-3.8,4.4s-4.2,1.7-7.2,1.7
				c-2.9,0-5.2-0.5-7-1.5c-1.8-1-3.1-2.4-3.9-4.3c-0.8-1.9-1.2-4.4-1.2-7.7v-17.7h4.1v17.7c0,2.7,0.2,4.6,0.7,5.9
				c0.5,1.3,1.3,2.2,2.5,2.9s2.7,1,4.4,1c3,0,5.1-0.7,6.4-2c1.3-1.4,1.9-3.9,1.9-7.8V620.9z"/>
			<path id="XMLID_111_" class="st1" d="M208,651.5v-22.2h3.4v3.2c1.6-2.4,4-3.7,7.1-3.7c1.3,0,2.6,0.2,3.7,0.7
				c1.1,0.5,2,1.1,2.5,1.9c0.6,0.8,0.9,1.7,1.2,2.8c0.1,0.7,0.2,1.9,0.2,3.7v13.6h-3.8V638c0-1.5-0.1-2.7-0.4-3.4s-0.8-1.4-1.6-1.8
				c-0.7-0.5-1.6-0.7-2.6-0.7c-1.6,0-3,0.5-4.1,1.5c-1.2,1-1.7,2.9-1.7,5.8v12.1H208z"/>
			<path id="XMLID_113_" class="st1" d="M231.7,651.5v-30.6h3.8v30.6H231.7z"/>
			<path id="XMLID_115_" class="st1" d="M241.3,625.2v-4.3h3.8v4.3H241.3z M241.3,651.5v-22.2h3.8v22.2H241.3z"/>
			<path id="XMLID_118_" class="st1" d="M250.8,651.5v-22.2h3.4v3.1c0.7-1.1,1.6-2,2.8-2.6c1.2-0.7,2.5-1,3.9-1c1.6,0,3,0.3,4,1
				c1.1,0.7,1.8,1.6,2.2,2.9c1.8-2.6,4-3.9,6.9-3.9c2.2,0,3.9,0.6,5.1,1.8c1.2,1.2,1.8,3.1,1.8,5.6v15.2h-3.7v-14
				c0-1.5-0.1-2.6-0.4-3.2c-0.2-0.7-0.7-1.2-1.3-1.6c-0.6-0.4-1.4-0.6-2.3-0.6c-1.6,0-2.9,0.5-3.9,1.6c-1,1-1.5,2.7-1.5,5v12.9H264
				v-14.4c0-1.7-0.3-2.9-0.9-3.8c-0.6-0.8-1.6-1.3-3-1.3c-1.1,0-2,0.3-2.9,0.8c-0.9,0.6-1.5,1.4-2,2.4c-0.4,1.1-0.6,2.6-0.6,4.6
				v11.5H250.8z"/>
			<path id="XMLID_120_" class="st1" d="M286.4,625.2v-4.3h3.8v4.3H286.4z M286.4,651.5v-22.2h3.8v22.2H286.4z"/>
			<path id="XMLID_123_" class="st1" d="M304.1,648.1l0.5,3.3c-1.1,0.2-2,0.3-2.8,0.3c-1.4,0-2.4-0.2-3.2-0.6
				c-0.8-0.4-1.3-1-1.6-1.7c-0.3-0.7-0.5-2.2-0.5-4.4v-12.8h-2.8v-2.9h2.8v-5.5l3.7-2.3v7.7h3.8v2.9h-3.8v13c0,1.1,0.1,1.8,0.2,2.1
				c0.1,0.3,0.3,0.6,0.6,0.7c0.3,0.2,0.7,0.3,1.3,0.3C302.9,648.3,303.4,648.2,304.1,648.1z"/>
			<path id="XMLID_125_" class="st1" d="M323,644.3l3.9,0.5c-0.6,2.3-1.7,4-3.4,5.3c-1.7,1.3-3.8,1.9-6.3,1.9c-3.2,0-5.8-1-7.7-3
				c-1.9-2-2.9-4.8-2.9-8.4c0-3.7,1-6.6,2.9-8.7c1.9-2.1,4.4-3.1,7.5-3.1c3,0,5.4,1,7.3,3c1.9,2,2.8,4.9,2.8,8.5c0,0.2,0,0.6,0,1
				h-16.5c0.1,2.4,0.8,4.3,2.1,5.6c1.2,1.3,2.8,1.9,4.6,1.9c1.4,0,2.6-0.4,3.5-1.1C321.6,647.1,322.4,645.9,323,644.3z M310.6,638.3
				H323c-0.2-1.9-0.6-3.3-1.4-4.2c-1.2-1.4-2.8-2.2-4.7-2.2c-1.7,0-3.2,0.6-4.4,1.7C311.4,634.8,310.8,636.3,310.6,638.3z"/>
			<path id="XMLID_128_" class="st1" d="M346,651.5v-2.8c-1.4,2.2-3.5,3.3-6.2,3.3c-1.8,0-3.4-0.5-4.9-1.5c-1.5-1-2.6-2.3-3.4-4.1
				c-0.8-1.7-1.2-3.8-1.2-6c0-2.2,0.4-4.2,1.1-6c0.7-1.8,1.8-3.2,3.3-4.1c1.5-1,3.1-1.4,4.9-1.4c1.3,0,2.5,0.3,3.6,0.8
				c1,0.6,1.9,1.3,2.5,2.2v-11h3.7v30.6H346z M334.1,640.4c0,2.8,0.6,5,1.8,6.4c1.2,1.4,2.6,2.1,4.2,2.1c1.6,0,3-0.7,4.2-2
				s1.7-3.4,1.7-6.2c0-3-0.6-5.3-1.8-6.7c-1.2-1.4-2.6-2.1-4.3-2.1c-1.7,0-3.1,0.7-4.2,2C334.7,635.3,334.1,637.5,334.1,640.4z"/>
			<path id="XMLID_131_" class="st1" d="M389.6,640.7l4.1,1c-0.8,3.3-2.4,5.9-4.6,7.6s-4.9,2.6-8.1,2.6c-3.3,0-6-0.7-8.1-2
				s-3.6-3.3-4.7-5.8c-1.1-2.5-1.6-5.3-1.6-8.2c0-3.2,0.6-6,1.8-8.3c1.2-2.4,3-4.2,5.2-5.4c2.2-1.2,4.7-1.8,7.4-1.8
				c3.1,0,5.6,0.8,7.7,2.3c2.1,1.6,3.5,3.8,4.4,6.6l-4,0.9c-0.7-2.2-1.7-3.9-3.1-4.9c-1.3-1-3-1.5-5.1-1.5c-2.4,0-4.3,0.6-5.9,1.7
				s-2.7,2.6-3.3,4.5c-0.6,1.9-1,3.9-1,5.9c0,2.6,0.4,4.9,1.1,6.8s1.9,3.4,3.5,4.4c1.6,1,3.3,1.4,5.2,1.4c2.3,0,4.2-0.7,5.8-2
				C388,645.3,389,643.3,389.6,640.7z"/>
			<path id="XMLID_133_" class="st1" d="M412.6,648.7c-1.4,1.2-2.7,2-4,2.5c-1.3,0.5-2.7,0.7-4.1,0.7c-2.4,0-4.3-0.6-5.6-1.8
				c-1.3-1.2-2-2.7-2-4.6c0-1.1,0.2-2.1,0.7-3c0.5-0.9,1.1-1.6,1.9-2.2c0.8-0.5,1.7-1,2.7-1.2c0.7-0.2,1.9-0.4,3.3-0.6
				c3-0.4,5.3-0.8,6.7-1.3c0-0.5,0-0.8,0-1c0-1.5-0.4-2.6-1.1-3.2c-1-0.8-2.4-1.3-4.3-1.3c-1.8,0-3.1,0.3-3.9,0.9
				c-0.8,0.6-1.5,1.7-1.9,3.3l-3.7-0.5c0.3-1.6,0.9-2.8,1.7-3.8c0.8-1,1.9-1.7,3.3-2.2s3.1-0.8,5-0.8c1.9,0,3.4,0.2,4.6,0.7
				c1.2,0.4,2.1,1,2.6,1.7c0.6,0.7,0.9,1.5,1.2,2.6c0.1,0.6,0.2,1.8,0.2,3.5v5c0,3.5,0.1,5.7,0.2,6.6c0.2,0.9,0.5,1.8,1,2.7h-3.9
				C413,650.7,412.7,649.8,412.6,648.7z M412.3,640.3c-1.4,0.6-3.4,1-6.1,1.4c-1.5,0.2-2.6,0.5-3.3,0.8c-0.6,0.3-1.1,0.7-1.5,1.2
				c-0.3,0.5-0.5,1.1-0.5,1.8c0,1,0.4,1.8,1.1,2.5c0.8,0.7,1.9,1,3.3,1c1.4,0,2.7-0.3,3.9-1c1.1-0.6,2-1.5,2.5-2.6
				c0.4-0.8,0.6-2.1,0.6-3.8V640.3z"/>
			<path id="XMLID_136_" class="st1" d="M421.9,651.5v-22.2h3.4v3.4c0.9-1.6,1.7-2.6,2.4-3.1c0.7-0.5,1.5-0.8,2.4-0.8
				c1.3,0,2.6,0.4,3.9,1.2l-1.3,3.5c-0.9-0.5-1.8-0.8-2.8-0.8c-0.8,0-1.6,0.2-2.2,0.7c-0.7,0.5-1.1,1.2-1.4,2.1
				c-0.4,1.3-0.6,2.8-0.6,4.4v11.6H421.9z"/>
			<path id="XMLID_138_" class="st1" d="M451.4,644.3l3.9,0.5c-0.6,2.3-1.7,4-3.4,5.3c-1.7,1.3-3.8,1.9-6.3,1.9c-3.2,0-5.8-1-7.7-3
				c-1.9-2-2.9-4.8-2.9-8.4c0-3.7,1-6.6,2.9-8.7c1.9-2.1,4.4-3.1,7.5-3.1c3,0,5.4,1,7.3,3c1.9,2,2.8,4.9,2.8,8.5c0,0.2,0,0.6,0,1
				h-16.5c0.1,2.4,0.8,4.3,2.1,5.6c1.2,1.3,2.8,1.9,4.6,1.9c1.4,0,2.6-0.4,3.5-1.1C450,647.1,450.8,645.9,451.4,644.3z M439,638.3
				h12.4c-0.2-1.9-0.6-3.3-1.4-4.2c-1.2-1.4-2.8-2.2-4.7-2.2c-1.7,0-3.2,0.6-4.4,1.7C439.8,634.8,439.1,636.3,439,638.3z"/>
		</g>
		<g id="XMLID_49_">
			<path id="XMLID_59_" class="st1" d="M503.7,649.8h-19v-3h15.8c0-3.8-0.7-6.9-2.1-9.2c-1.7-2.8-4.4-4.2-7.9-4.4h-1.2v-2.8
				c6,0,10.2,2.4,12.4,7.2C503,640.4,503.7,644.5,503.7,649.8z"/>
			<path id="XMLID_61_" class="st1" d="M524.4,639.8v6.4c0,7-2.7,10.3-9,10.6V654c3.9,0,5.9-2.4,6-7.2c-0.9,1.6-2.6,2.4-5,2.4
				c-4.7,0-8.2-3.9-8.2-9.5c0-5.5,3.3-9.4,8.2-9.4C521,630.3,524.4,634.3,524.4,639.8z M521.5,639.8c0-3.8-2.1-6.9-5.3-6.9
				c-3.1,0-5,3-5,6.7c0,3.9,2.1,6.8,5.3,6.8C519.5,646.5,521.5,643.5,521.5,639.8z"/>
			<path id="XMLID_74_" class="st1" d="M553.3,649.8h-25.7v-3h15.8c0-3.8-0.7-6.9-2.1-9.2c-1.7-2.8-4.4-4.2-7.9-4.4h-1.2v-2.8
				c9,0,13.8,5.5,14.2,16.5h6.8V649.8z"/>
			<path id="XMLID_76_" class="st1" d="M561.5,649.8h-9v-3h9V649.8z"/>
			<path id="XMLID_78_" class="st1" d="M590.2,645.5v4.3h-29.6v-3h26c0-0.6,0.1-1.1,0.1-1.5c0-7.2-3.8-11.4-10.5-11.4
				c-3.6,0-6.3,1.4-8,4.2c-0.4-0.5-1.3-1.3-2.6-2.7c2.4-3,5.9-4.5,10.6-4.5C584.6,631,590.2,636.6,590.2,645.5z"/>
			<path id="XMLID_80_" class="st1" d="M627.7,649.8h-25.1v-3h7l-5.5-21.4h3.2l5.4,21.4h1.2c3.1,0,4.3-1.3,4.3-5.9v-18.8h3v20.1
				c0,1.8-0.3,3.4-0.9,4.5h7.4V649.8z"/>
			<path id="XMLID_82_" class="st1" d="M636.8,630.4v11.9c0,5-2.1,7.5-6.3,7.5h-3.8v-3h2.8c1.8,0,3-0.6,3.6-1.8
				c0.4-0.8,0.6-2.1,0.6-4.1v-10.6H636.8z M636.8,656.3h-3v-3.6h3V656.3z"/>
			<path id="XMLID_86_" class="st1" d="M670.3,649.8h-2c-4.2,0-6.9-2.1-8.2-6.2c-1.3,2.2-3.5,3.3-6.5,3.3c-4.4,0-7.6-4.5-7.6-10.2
				c0-6.1,3.2-10.4,8.1-10.4h9.1v13.7c0,4.3,2,6.8,5.5,6.8h1.6V649.8z M660.1,636.1v-7.6h-5.4c-3.4,0-5.7,3.5-5.7,8
				c0,4.4,2.3,8,5.6,8C658.2,644.5,660,641.7,660.1,636.1z M655.6,623.2h-3v-3.6h3V623.2z M661.2,623.2h-3v-3.6h3V623.2z"/>
			<path id="XMLID_91_" class="st1" d="M679.8,630.4v11.9c0,5-2.1,7.5-6.3,7.5h-3.8v-3h2.8c1.8,0,3-0.6,3.6-1.8
				c0.4-0.8,0.6-2.1,0.6-4.1v-10.6H679.8z M674.1,656.4h-3v-3.6h3V656.4z M679.7,656.4h-3v-3.6h3V656.4z"/>
			<path id="XMLID_95_" class="st1" d="M696,649.8h-3.4c-1.5,0-2.8-0.6-3.9-1.6c-1.2-1.2-1.8-2.9-1.8-5.2v-20.9h3.1v19.1
				c0,2,0.3,3.4,0.9,4.2c0.5,0.7,1.3,1.2,2.4,1.3c0.3,0,0.6,0,2.7,0V649.8z"/>
			<path id="XMLID_97_" class="st1" d="M704.4,649.8h-9v-3h9V649.8z"/>
			<path id="XMLID_99_" class="st1" d="M712.9,649.8h-9v-3h9V649.8z"/>
			<path id="XMLID_101_" class="st1" d="M721.4,649.8h-9v-3h9V649.8z"/>
			<path id="XMLID_103_" class="st1" d="M729.9,649.8h-9v-3h9V649.8z"/>
			<path id="XMLID_105_" class="st1" d="M751.7,649.8h-23.5v-3h6.5c-1-1.7-1.5-3.7-1.5-6c0-3,0.8-5.5,2.4-7.4c1.7-2.1,4-3.1,7.1-3.1
				c2.2,0,4.1,0.6,5.7,1.6c1.8,1.2,2.9,2.8,3.3,4.9l-3.6,0.4c-0.5-3-2.3-4.5-5.3-4.5c-2.1,0-3.6,0.9-4.7,2.6
				c-0.8,1.4-1.2,3.3-1.2,5.5c0,2.6,0.6,4.6,2,6h12.9V649.8z"/>
			<path id="XMLID_107_" class="st1" d="M763.9,630.4v15.8c0,7-2.7,10.3-9,10.6V654c4,0,6-2.2,6-7.2v-16.3H763.9z"/>
		</g>
		<g id="XMLID_55_">
			<rect id="XMLID_56_" x="469.5" y="614.6" class="st1" width="2.2" height="48.9"/>
		</g>
	</g>
	<path id="XMLID_151_" class="st1" d="M304.5,373.3c0,0-0.5,9.8-2.2,20.7c-4.7,4.6-11.1,10-17.3,15.3
		c-12.2,10.4-25.2,21.5-33.8,32.6c-0.6-1.2-1.3-2.3-2.1-3.3c-0.3-0.4-0.6-0.7-0.9-1.1l-14.5-16.8c-0.3-0.4-0.7-0.8-1-1.2
		c-2.8-3.8-6.4-8-7.6-12.6c-3.7-14.4-4.8-33.6-4.8-33.6c-0.3-6.3,3.9-9.8,8.2-9.8l6.9-0.5h61.9C301.6,363,304.8,367,304.5,373.3z"/>
	<path id="XMLID_153_" class="st1" d="M272.2,478.5l14.8,13.8h-47.9l14.8-13.8l0.9-13.9c0-0.1,0-0.1,0-0.2c0.1-0.8,0.3-2,0.6-3.2
		c0.1-0.3,0.5-1.7,1-2.6c0.6-1.2,1.2-2.1,1.4-2.5c5.7-10.1,18.9-22,30.9-32.3l-10.9,13.8c-0.3,0.3-0.6,0.7-0.9,1.1
		c-3.3,4.7-5.3,11.8-5.4,17.5c0,0.2,0,0.5,0,0.7L272.2,478.5z"/>
	<path id="XMLID_155_" class="st1" d="M857.6,401.3l-19.9,74.6H334.2l21.6-75.2c6.4-22.3,26.8-37.7,50-37.7h422.3
		C848.1,363,862.7,382,857.6,401.3z"/>
	<path id="XMLID_154_" class="st1" d="M834.1,489.3l-16.9,63.6c-6.5,24.2-28.4,41.1-53.4,41.1H171.9c-20,0-34.6-19-29.4-38.3
		l17.7-66.3H834.1z"/>
	<g id="XMLID_141_">
		<path id="XMLID_26_" class="st0" d="M661.6,455.5c0,2.6-2.1,4.7-4.7,4.7c-2.6,0-4.7-2.1-4.7-4.7s2.1-4.7,4.7-4.7
			C659.5,450.9,661.6,453,661.6,455.5z M668,450.9c-2.6,0-4.7,2.1-4.7,4.7s2.1,4.7,4.7,4.7s4.7-2.1,4.7-4.7S670.6,450.9,668,450.9z"
			/>
		<path id="XMLID_29_" class="st0" d="M750.8,455.5c0,2.6-2.1,4.7-4.7,4.7s-4.7-2.1-4.7-4.7s2.1-4.7,4.7-4.7S750.8,453,750.8,455.5z
			 M757.2,450.9c-2.6,0-4.7,2.1-4.7,4.7s2.1,4.7,4.7,4.7s4.7-2.1,4.7-4.7S759.8,450.9,757.2,450.9z"/>
		<path id="XMLID_13_" class="st0" d="M514.9,446.5h2.1C515.7,446.6,514.9,446.5,514.9,446.5z"/>
		<path id="XMLID_50_" class="st0" d="M692.2,392.2v54.3h-18c-1.7,0-6-0.5-8.2-3.4c-0.3-0.4-0.6-0.9-0.8-1.5
			c-1.7,3.8-5.4,4.7-7.4,4.9c-0.2,0-0.5,0-0.7,0h-22.5v-54.3h8.3v48.5h9.8c4.2,0,5-3.8,5.1-5.7c0-0.6,0-1,0-1v-18.1h8.3v18
			c0.3,2.5,1.7,6.5,7.4,6.8c0.5,0,1,0,1.5,0h9.1v-48.5H692.2z"/>
		<path id="XMLID_17_" class="st0" d="M624.5,415.9v30.6h-40.4c-0.3,0-12.3,0.1-14.8-7.9c-2.3-7.3,1.4-14.2,3-16.1
			c1.6-1.9,2.5-0.9,2.8-0.2c0.4,0.6-0.2,2.5-0.2,2.5c-6,16.2,10.6,16,10.6,16h30.7v-24.8H624.5z"/>
		<path id="XMLID_67_" class="st0" d="M810.2,418.4c-6.6-7.8-23.4-8.9-32,13.5v-11.8h-7.3v20.6h-5.2c-0.5,0-1,0-1.5,0
			c-6.1-0.3-7.3-4.8-7.5-7.2c-0.1-0.9,0-4.3,0-4.3v-13.3h-8.3v18.1c0,0,0,0.4,0,1c-0.1,1.9-0.8,5.7-5.1,5.7h-5.7c-0.5,0-1.1,0-1.5,0
			c-5.4-0.3-7-3.8-7.4-6.3c0-0.1,0-0.2-0.1-0.4c0,0,0,0,0,0c0-0.1,0-0.2,0-0.3c0,0,0,0,0,0c-0.1-1-0.1-1.7,0-1.8c0,0,0,0,0,0
			c0-0.3,0-0.6,0-0.9c0-4,0.1-6.8-1.4-10.8c-0.6-1.6-2.8-4.6-5.7-5.8c-4.3-1.8-10.5-1.6-10.5-1.6h-6.7v6.7c0,0,8.6-0.3,12.2,0.8
			c3.3,1,3.4,4.7,3.4,4.7s0.8,9.2-0.2,13c-0.5,1.9-2.3,2.8-3.9,2.8h-15.8v5.8h20.2c1.8-0.1,6-0.7,7.9-4.7c1.7,3.9,6.2,4.6,8.4,4.7
			h11.8c0.1,0,0.2,0,0.3,0c2.1-0.2,5.7-1.1,7.4-5c0.2,0.6,0.5,1,0.8,1.5c2.2,3,6.2,3.5,8.1,3.5h50.2
			C814.9,446.5,817.3,426.7,810.2,418.4z M805.9,440.7h-27.6c0.9-2.9,4-11.6,9.7-16.9c2.3-2.2,4.8-3.1,7.1-3.2
			c0,0,9.4-1.6,10.7,10.6c0,0,0,0.1,0,0.1C806.2,433.8,806.3,436.9,805.9,440.7z"/>
		<path id="XMLID_23_" class="st0" d="M597.3,410.2c0,2.6-2.1,4.7-4.7,4.7s-4.7-2.1-4.7-4.7s2.1-4.7,4.7-4.7
			S597.3,407.6,597.3,410.2z M603.6,405.5c-2.6,0-4.7,2.1-4.7,4.7s2.1,4.7,4.7,4.7s4.7-2.1,4.7-4.7S606.2,405.5,603.6,405.5z"/>
		<rect id="XMLID_32_" x="543.7" y="390.9" class="st0" width="10.2" height="55.7"/>
		<rect id="XMLID_12_" x="416.4" y="390.9" class="st0" width="10.2" height="55.7"/>
		<path id="XMLID_47_" class="st0" d="M533.5,390.9v39.4c-0.2,3-0.6,5.6-1.9,8.1c-0.5,1.1-1.1,2-2.1,3c-0.7,0.8-1.5,1.4-2.2,2
			c-1.3,0.9-2.7,1.6-4.1,2c-2.4,0.8-4.7,1.1-6.2,1.2h-4c0,0-0.3,0-0.8,0c-2.3,0-9-0.5-9.2-5.7l-0.2,1.1c0,0-0.9,2.8-3.9,3.9
			c-1.9,0.7-3.9,0.7-4.5,0.7c-0.1,0-0.2,0-0.2,0h-20.2v-10.1c0,0,10.5,0,16.4,0c5.9,0,5.9-4.1,5.9-4.1s0.2-4-0.6-10.5
			c-0.8-6.5-8.3-6.3-8.3-6.3h-9.7v-9.6h8.9c0,0,7.8-0.6,13.1,2.7c1.6,1,4.4,3.5,5.7,7.7c1.2,3.9,1,9.2,1,10.6
			c0.1,4.1,1.2,9.2,5.5,9.5c0.3,0,0.6,0,0.9,0h1.9c2.6-0.1,4.7-0.9,6.1-2.5c2.1-2.4,2.2-4.9,2.2-8.9v-1.4c0-1,0-1.8,0-1.8v-31H533.5
			z"/>
		<path id="XMLID_38_" class="st0" d="M467.5,439.3v-29.6c0,0-4.8,0-6.3,0c-3.6-0.1-9.7-0.1-15.3,2c-5.9,2.2-11,7-12.2,15.1
			c-0.6,3.8-0.6,7.1-0.3,9.8c0.8,7,3.7,10.1,3.7,10.1h19.2c0,12-15.4,7.2-15.4,7.2c-1.5-0.1-2.1,1.6-1.8,3c0.4,1.9,2.5,2.9,3.3,3.2
			c4.8,1.4,13.5,2.3,18.6-0.8c2.2-1.3,3.9-3,4.9-5.1c0.8-1.6,1.2-3.4,1.4-5c0.1-0.7,0.2-1.5,0.2-2.5
			C467.6,443.3,467.5,439.3,467.5,439.3z M445.3,436.4c-4.9-18,11-17.4,11-17.4v17.4H445.3z"/>
		<path id="XMLID_11_" class="st0" d="M409.2,436.4v10.1h-31.3l-4.9-10.1h8.6c-6.1-8.5-6.1-18.9,3.3-25.4c9.5-6.6,21.3,0,21.3,0v8.7
			c-9.2-5.8-18.5-2.1-18,5.1c0.4,5.8,4.8,10.1,6.5,11.6H409.2z"/>
	</g>
	<path id="XMLID_157_" class="st2" d="M319.7,389.9c-3.6,7.6-14.7,17-27.5,27.9c-14.1,12-31.9,27.2-37.6,39.6
		c-0.1,0.3-0.3,0.5-0.4,0.8c-0.6,1.7-1.1,4.3-1.1,4.6c-0.1,0.9-0.2,1.8-0.3,2.8c0,0.5-0.1,1-0.1,1.5c-0.4,5.2-0.4,10.3-0.4,10.3
		l-2.2,2.2c-3.5-3.3-5.1-8.2-5.6-10c-5.2-18.4,19.8-39.6,42-58.6c11.5-9.8,22.4-19.1,25.2-25c3.5-7.3,3.2-15.4-0.7-22.7
		c-4.3-8.1-12.6-13.7-22.1-15.1c-18.7-2.7-27.9,11.5-28,11.6l-10.2-0.1c0.2-0.4,2.9-6.9,9.5-12.4c8.1-6.8,17.8-9.7,30-7.9
		c12.3,1.8,23,9.1,28.7,19.7C324,368.9,324.3,380.1,319.7,389.9z"/>
	<path id="XMLID_145_" class="st2" d="M278.4,481.2l6.4,6.1c0,0,4.9,4.5,3.7,8.7c-1.1,3.8-3.4,9-12.1,15.3l8.6,4.7
		C285.1,516,314.8,492.9,278.4,481.2z"/>
	<g id="XMLID_51_">
		<path id="XMLID_7_" class="st0" d="M192.3,524.7c10.2,0.6,12.9,9.1,13.6,13.5c0.2,1.6,0.2,7.1,0.2,7.1v15c0,1-0.6,1.9-1.5,2.2
			c-3.6,1.3-13,4.1-22.1,1.5c-11.5-3.3-10.9-14.5-5.6-19.3c5.5-5,17.1-5.6,17.1-5.6c-0.6-9.9-16-1.6-16-1.6l-2.5-8.4
			C175.5,529.2,179.6,524,192.3,524.7z M185,550.9c-0.6,2.9,1.3,6.7,5.1,7.2c1.8,0.2,2.9-1.2,3.4-2.2c0.2-0.4,0.3-0.9,0.3-1.4v-9.2
			C190,545.3,185.6,548,185,550.9z"/>
		<path id="XMLID_9_" class="st0" d="M310.1,524.7c10.2,0.6,12.9,9.1,13.6,13.5c0.2,1.6,0.2,7.1,0.2,7.1v15c0,1-0.6,1.9-1.5,2.2
			c-3.6,1.3-13,4.1-22.1,1.5c-11.5-3.3-10.9-14.5-5.6-19.3c5.5-5,17.1-5.6,17.1-5.6c-0.6-9.9-16-1.6-16-1.6l-2.5-8.4
			C293.3,529.2,297.4,524,310.1,524.7z M302.8,550.9c-0.6,2.9,1.3,6.7,5.1,7.2c1.8,0.2,2.9-1.2,3.4-2.2c0.2-0.4,0.3-0.9,0.3-1.4
			v-9.2C307.8,545.3,303.4,548,302.8,550.9z"/>
		<path id="XMLID_15_" class="st0" d="M403.2,524.7c10.2,0.6,12.9,9.1,13.6,13.5c0.2,1.6,0.2,7.1,0.2,7.1v15c0,1-0.6,1.9-1.5,2.2
			c-3.6,1.3-13,4.1-22.1,1.5c-11.5-3.3-10.9-14.5-5.6-19.3c5.5-5,17.1-5.6,17.1-5.6c-0.6-9.9-16-1.6-16-1.6l-2.5-8.4
			C386.4,529.2,390.5,524,403.2,524.7z M395.9,550.9c-0.6,2.9,1.3,6.7,5.1,7.2c1.8,0.2,2.9-1.2,3.4-2.2c0.2-0.4,0.3-0.9,0.3-1.4
			v-9.2C400.9,545.3,396.5,548,395.9,550.9z"/>
		<path id="XMLID_21_" class="st0" d="M441.8,524.7c10.2,0.6,12.9,9.1,13.6,13.5c0.2,1.6,0.2,7.1,0.2,7.1v15c0,1-0.6,1.9-1.5,2.2
			c-3.6,1.3-13,4.1-22.1,1.5c-11.5-3.3-10.9-14.5-5.6-19.3c5.5-5,17.1-5.6,17.1-5.6c-0.6-9.9-16-1.6-16-1.6l-2.5-8.4
			C425.1,529.2,429.2,524,441.8,524.7z M434.6,550.9c-0.6,2.9,1.3,6.7,5.1,7.2c1.8,0.2,2.9-1.2,3.4-2.2c0.2-0.4,0.3-0.9,0.3-1.4
			v-9.2C439.5,545.3,435.2,548,434.6,550.9z"/>
		<path id="XMLID_44_" class="st0" d="M559.4,565.1c-2.6,0-5.1-0.3-7.4-1c-5.3-1.5-7-5-7.6-7.4c-0.8-3.2,0.5-7.3,2.8-9.7
			c4.6-4.8,11.5-5.2,14.5-5.2c0.9,0,3.4,0,3.4,0l-0.1-2c-0.2-4.2-2.9-6-7.2-6c-3.3,0-7.2,1.4-9.5,2.5l-1.5-5c1.4-1.1,5-3.2,12.1-3.2
			c0.7,0,1.5,0,2.3,0.1c8.7,0.5,10.9,6.6,11.3,11.8c0.1,1,0.2,4.7,0.2,6.8l0,12.5c0,0.5-0.1,1.9-1,3c-0.6,0.7-2,1.2-2.2,1.3
			C566.9,564.3,563.5,565.1,559.4,565.1z M562.7,545.3c-4.9,0-9.8,2.9-10.6,6.7c-0.4,2.1,0.1,4.5,1.5,6.4c1.3,1.8,3.2,2.9,5.3,3.2
			c0.2,0,0.4,0,0.6,0h0c1.9,0,3.7-1.2,4.7-3.3c0.4-0.7,0.5-1.5,0.5-2.3v-10.7L562.7,545.3z"/>
		<path id="XMLID_36_" class="st0" d="M671.9,565.1c-2.6,0-5.1-0.3-7.4-1c-5.3-1.5-7-5-7.6-7.4c-0.8-3.2,0.5-7.3,2.8-9.7
			c4.6-4.8,11.5-5.2,14.5-5.2c0.9,0,3.4,0,3.4,0l-0.1-2c-0.2-4.2-2.9-6-7.2-6c-3.3,0-7.2,1.4-9.5,2.5l-1.5-5c1.4-1.1,5-3.2,12.1-3.2
			c0.7,0,1.5,0,2.3,0.1c8.7,0.5,10.9,6.6,11.3,11.8c0.1,1,0.2,4.7,0.2,6.8l0,12.5c0,0.5-0.1,1.9-1,3c-0.6,0.7-2,1.2-2.2,1.3
			C679.3,564.3,675.9,565.1,671.9,565.1z M675.2,545.3c-4.9,0-9.8,2.9-10.6,6.7c-0.4,2.1,0.1,4.5,1.5,6.4c1.3,1.8,3.2,2.9,5.3,3.2
			c0.2,0,0.4,0,0.6,0h0c1.9,0,3.7-1.2,4.7-3.3c0.4-0.7,0.5-1.5,0.5-2.3v-10.7L675.2,545.3z"/>
		<rect id="XMLID_8_" x="214" y="510.2" class="st0" width="12.8" height="54.9"/>
		<path id="XMLID_43_" class="st0" d="M272.6,510.2V527c-1.6-0.6-3.2-0.8-4.9-0.8c-9.4,0-17,8.7-17,19.5c0,9.8,6.4,17.9,14.6,19.2
			c0.3,0,0.6,0.1,0.9,0.1c0,0,0,0,0,0c0,0,1.8,0.2,3.3,0.2c3.2,0,7.4-0.2,11.1-1.3c2.6-0.8,3.8-1.9,4.2-3.1c0.4-1.2,0.6-4,0.6-4
			v-46.6H272.6z M272.6,557c-1.6-0.1-3.6-0.5-4.9-1.8c-3-2.8-3.8-5.9-3.8-10.1c0-3.9,0.7-7.2,3.7-9.9c1.5-1.4,3.4-1.8,5-1.9V557z"/>
		<polygon id="XMLID_58_" class="st0" points="383.3,527.4 373,565.2 361.1,565.2 355.6,540.7 350.1,565.2 338.2,565.2 328,527.4 
			341.1,527.4 344.9,550.4 350.6,527.4 360.6,527.4 366.3,550.4 370.2,527.4 		"/>
		<path id="XMLID_53_" class="st0" d="M493.6,529.6c-1.1-0.4-5.1-1.6-10-1c-1.8,0.2-3.5,0.5-4.8,0.7c-1.5,0.3-3.1,0.9-3.3,1.1
			c-0.7,0.7-1.1,1.6-1.1,2.7v46.6h7v-15.1c4.5,1,9.5,0.4,9.5,0.4c7.3-0.8,12.8-8.1,12.7-18.2C503.4,538,499.5,531.8,493.6,529.6z
			 M494,554.7c-2.6,6.1-10.1,5.9-12.6,5.6v-26c2.7-1.5,6-1.4,8.4-0.5c1.5,0.6,3.2,2.3,4.3,4.4C496.2,542.5,496.4,549.2,494,554.7z"
			/>
		<path id="XMLID_65_" class="st0" d="M712.8,559.3l1.5,4.6c0,0-5.6,3.1-14.2,0.2c-5.8-2-9.5-8.9-9.4-17.3
			c0.1-8.9,4.1-15.1,10.1-17.3c1.1-0.4,3.8-1.9,9.7-1c1.4,0.2,2.6,0.5,3.8,1.2l-1.4,4.5c-2.7-1.3-5.9-1.2-8.3-0.3
			c-1.5,0.6-3.3,2.3-4.4,4.4c-2.1,4.1-2.3,10.9,0.1,16.4C702.8,560.5,709.4,560.7,712.8,559.3z"/>
		<path id="XMLID_68_" class="st0" d="M537.7,537.2v27.9h-7v-24c0-5.4-1.3-7.2-5.4-7.8c-4.1-0.7-8,1.5-8,1.5v30.3h-7v-53h7v18.8
			c1.9-0.9,6.1-2.5,12.5-1.8c0.3,0,0.6,0.1,0.8,0.1C535.9,530,537.7,533.2,537.7,537.2z"/>
		<path id="XMLID_34_" class="st0" d="M587.1,535.7v29.4h-7v-31.2v-0.6c0,0,0.1-1.2,0.1-1.4c0.4-1.6,1.1-2.2,2.5-2.7
			c0,0,1.9-1.3,14.4-0.5l-1.4,5.2c0,0-3.8-0.5-6.5-0.3C588.1,533.6,587.1,534.6,587.1,535.7z"/>
		<rect id="XMLID_63_" x="720.7" y="528.4" class="st0" width="7" height="36.7"/>
		<path id="XMLID_83_" class="st0" d="M649.9,539.9v25.2h-7.1v-21.3c0,0,0.1-3.9-0.1-5.2c-0.4-2.2-1.7-5.1-6.2-5.4
			c-4.5,0.3-5.8,3.2-6.2,5.4c-0.2,1.3-0.1,5.2-0.1,5.2v21.3h-8.1v-21.3c0,0,0.1-3.9-0.1-5.2c-0.5-2.7-2.5-6.6-10.1-5.1
			c-1.2,0.2-2.1,1.1-2.1,2.3v29.4h-7v-31.8c0,0,0.1-1.2,0.1-1.4c0.4-1.6,1.1-2.2,2.5-2.7c0,0,11.4-4.4,20.8,2.4
			c2.5-1.8,5.1-2.8,7.6-3.3c3.6-0.7,6.2,0.1,7.4,0.5c6.1,1.8,8,6,8.4,8C649.7,537.6,649.8,538.7,649.9,539.9z"/>
		<circle id="XMLID_42_" class="st0" cx="724.2" cy="518.1" r="4.4"/>
		<path id="XMLID_70_" class="st0" d="M756.2,528.9c-9.9-2.5-21,3.3-21.5,15.5c-0.5,12.2,6.5,26.4,28.9,18.9l-1.9-5.1
			c0,0-14.9,7.2-19.3-7.2c0-0.2-0.1-0.3-0.1-0.5l22.4-3.6C764.6,546.8,766.1,531.4,756.2,528.9z M756.9,543.6l-15.3,2.3
			c0.2-10.6,11.3-17.9,14.6-7.8C756.7,539.4,756.9,541.1,756.9,543.6z"/>
		<path id="XMLID_54_" class="st0" d="M791,530l-2.1,5.6c0,0-9-4.4-11.4,1.6s8.5,6.4,12.6,10.9c4.1,4.5,3.4,24.2-21.1,15.8l2.1-5.7
			c0,0,10.6,4.8,12.4-2.3c1.8-7.1-8.8-6.5-12.3-11.8C767.8,538.7,771.3,523,791,530z"/>
	</g>
</g>
</svg>
