<?xml version="1.0" encoding="utf-8"?>
<!-- Generator: Adobe Illustrator 24.0.1, SVG Export Plug-In . SVG Version: 6.00 Build 0)  -->
<svg version="1.1" id="Layer_1" xmlns="http://www.w3.org/2000/svg" xmlns:xlink="http://www.w3.org/1999/xlink" x="0px" y="0px"
	 viewBox="0 0 278.25 96.28" style="enable-background:new 0 0 278.25 96.28;" xml:space="preserve">
<style type="text/css">
	.st0{fill:#801710;}
	.st1{fill:#2B4B9B;}
	.st2{clip-path:url(#SVGID_1_);fill:url(#SVGID_2_);}
	.st3{fill:#676767;}
	.st4{fill:#A81916;}
	.st5{fill:#4E1011;}
	.st6{fill:#28285B;}
	.st7{fill:#1F2046;}
	.st8{fill:#343434;}
	.st9{fill:#F6C522;}
	.st10{fill:#292A5F;}
	.st11{fill:#6F6F71;}
</style>
<g>
	<path class="st0" d="M43.14,88.97l-12.18-45.6l-7.7,0.25l-3.35,0.11l-7.84,32.89l7.58,3.01l1.19-6.15l3.43,1.1l5.25,1.68l0.92,4.98
		l0.53,2.9L43.14,88.97z M22.18,66.03l2.31-12l0.27-2.09l0.2,0.01l0.61,4.38l1.13,5.73l0.72,3.66l0.31,1.57L22.18,66.03z"/>
	<polygon class="st1" points="47.75,42.84 47.61,90.75 57.15,86.54 57.17,83.29 57.21,76.5 57.27,66.25 57.03,53.53 57.3,53.51 
		58.33,60.76 62.84,84.04 70.27,80.77 70.7,78.07 73.88,58.03 74.69,52.15 74.87,52.14 74.81,53.76 74.63,59.77 74.41,78.94 
		80.29,76.36 80.72,44 71.49,43.67 68.15,64.33 67.46,70.23 67.36,70.26 67.35,70.21 67.12,67.29 66.81,64.74 65.25,55.53 
		63.2,43.38 	"/>
	<g>
		<defs>
			<path id="SVGID_4_" d="M36.91,13.66v0.32l0,1.38l-1.05,0.33l-0.51,0.16l0-1.67L36.91,13.66z M36.91,18.74l-1.05,0.29l-0.51,0.14
				l0-1.67l1.57-0.45v0.28L36.91,18.74z M36.91,22.11l-1.05,0.25l-0.51,0.12l0-1.66l1.56-0.4v0.25L36.91,22.11z M36.92,25.48
				l-1.05,0.22l-0.51,0.1l0-1.66l1.56-0.35v0.22L36.92,25.48z M36.92,27.35l0,1.5l-1.05,0.18l-0.51,0.09l0-1.66l1.56-0.3V27.35z
				 M36.92,30.52v0.15l0,1.53l-1.05,0.15l-0.51,0.07l0-1.66L36.92,30.52z M24.84,35.37l0,0.11l0.01,1.37l-0.71,0.08l-0.5,0.05
				l-0.01-1.46L24.84,35.37z M27.07,36.61l-0.77,0.08l-0.5,0.05l-0.01-1.49l1.27-0.16l0,0.11L27.07,36.61z M27.08,39.62l-0.77,0.06
				l-0.5,0.04l-0.01-1.49l1.27-0.11l0,0.08L27.08,39.62z M24.86,39.78l-0.71,0.05l-0.5,0.04l-0.01-1.45l1.21-0.11v0.08L24.86,39.78z
				 M27.09,41.12l0,0.05l0.01,1.46l-0.77,0.03l-0.5,0.02l-0.01-1.49L27.09,41.12z M24.88,42.72l-0.71,0.03l-0.5,0.02l-0.01-1.45
				l1.21-0.07l0,0.05L24.88,42.72z M29.42,42.53l-0.83,0.03l-0.5,0.02l-0.01-1.52l1.33-0.08v0.05L29.42,42.53z M29.41,37.9v0.08
				l0,1.47l-0.83,0.06l-0.5,0.04l-0.01-1.53L29.41,37.9z M31.88,42.43l-0.9,0.04l-0.51,0.02l0-1.56l1.41-0.08v0.05L31.88,42.43z
				 M37.19,35.52l-1.06,0.11l-0.51,0.05l0-1.66l1.57-0.19v0.12L37.19,35.52z M44.51,41.91l0-1.79L46.37,40v0.06l0,1.77l-1.34,0.05
				L44.51,41.91z M46.41,23.52l-1.35,0.28l-0.51,0.11l0-1.82l1.87-0.42l0,0.24L46.41,23.52z M46.38,34.53l-1.35,0.14l-0.51,0.06
				l0-1.8l1.86-0.23l0,0.13L46.38,34.53z M46.4,27.2l-1.35,0.24l-0.51,0.09l0-1.81l1.87-0.36v0.2L46.4,27.2z M44.53,31.13l0-1.81
				l1.86-0.29l0,0.17l0,1.67l-1.35,0.19L44.53,31.13z M46.37,38.19l-1.35,0.1l-0.51,0.04l0-1.8l1.86-0.17v0.1L46.37,38.19z
				 M43.13,38.43l-1.24,0.09l-0.51,0.04l0-1.75l1.75-0.16v0.09L43.13,38.43z M41.38,42.04l0-1.74l1.75-0.1l0,0.06l0,1.71l-1.24,0.05
				L41.38,42.04z M34.45,34.18v0.12l0,1.52l-0.97,0.1l-0.51,0.06l0-1.61L34.45,34.18z M36.13,38.95l-0.51,0.04l0-1.65l1.56-0.14
				v0.09l0,1.59L36.13,38.95z M29.4,34.8l0,0.11l0,1.44l-0.83,0.09l-0.5,0.05l-0.01-1.53L29.4,34.8z M31.87,37.76l0,1.51l-0.9,0.07
				l-0.51,0.04l0-1.57l1.41-0.13V37.76z M34.46,40.75l0,1.57l-0.97,0.04l-0.51,0.02l0-1.6l1.48-0.09V40.75z M31.86,34.5v0.11l0,1.48
				l-0.9,0.1l-0.51,0.05l0-1.57L31.86,34.5z M34.46,39.07l-0.97,0.07l-0.51,0.04l0-1.61l1.48-0.13v0.09L34.46,39.07z M37.19,42.21
				l-1.05,0.04l-0.51,0.02l0-1.65l1.56-0.09l0,0.06L37.19,42.21z M39.9,14.44l-1.15,0.35l-0.51,0.16l0-1.72l1.66-0.54v0.33
				L39.9,14.44z M39.9,17.92l-1.14,0.31l-0.51,0.14v-1.72l1.66-0.48l0,0.29V17.92z M39.89,21.4l-1.14,0.28l-0.51,0.12l0-1.71
				l1.66-0.43v0.26L39.89,21.4z M39.89,24.87l-1.14,0.24l-0.51,0.11l0-1.71l1.66-0.37l0,0.22V24.87z M39.89,28.33l-1.14,0.2
				l-0.51,0.09l0-1.71l1.65-0.32v0.19L39.89,28.33z M39.89,31.78l-1.14,0.16l-0.51,0.07l0-1.7l1.65-0.26v0.16V31.78z M40.08,35.21
				l-1.14,0.12l-0.51,0.05v-1.7l1.66-0.21v0.12L40.08,35.21z M43.07,13.46l-1.25,0.38L41.3,14l0-1.77l1.76-0.57l0,0.34L43.07,13.46z
				 M43.06,17.05l-1.25,0.34l-0.51,0.14l0-1.77l1.76-0.51v0.3L43.06,17.05z M43.06,20.64l-1.24,0.3l-0.51,0.12l0-1.77l1.76-0.45
				l0,0.27L43.06,20.64z M41.81,24.47l-0.51,0.11l0-1.76l1.76-0.39v0.23l0,1.56L41.81,24.47z M40.08,38.65l-1.14,0.09l-0.51,0.04
				v-1.7l1.65-0.15v0.09L40.08,38.65z M46.43,12.43l-1.36,0.42L44.56,13l0-1.83l1.88-0.61l0,0.35L46.43,12.43z M46.43,16.13
				l-1.36,0.37l-0.51,0.14l0-1.83l1.87-0.54l0,0.31L46.43,16.13z M44.55,20.28l0-1.82l1.87-0.48l0,0.27l0,1.58l-1.36,0.33
				L44.55,20.28z M43.05,27.78L41.81,28l-0.51,0.09l0-1.76l1.76-0.33v0.2L43.05,27.78z M43.04,31.34l-1.24,0.17l-0.51,0.07l0-1.75
				l1.75-0.28l0,0.16L43.04,31.34z M41.38,35.07l0-1.75l1.75-0.22v0.13l0,1.65l-1.24,0.13L41.38,35.07z M40.07,42.09l-1.14,0.05
				l-0.51,0.02l0-1.69l1.65-0.1v0.06L40.07,42.09z M30.43,81.23l-0.92-4.98l-5.25-1.68l-0.83,4.08L30.43,81.23z M26.02,65.43
				l1.4,0.3l-0.72-3.66L26.02,65.43z M43.16,73.23l0.04-30.24l3.99-0.13l0.09-34.43l-13.24,4.52l0.03,20.62l-10.86,1.42l0.04,8.63
				l7.7-0.25l3.97,0.1L43.16,73.23z"/>
		</defs>
		<clipPath id="SVGID_1_">
			<use xlink:href="#SVGID_4_"  style="overflow:visible;"/>
		</clipPath>
		<linearGradient id="SVGID_2_" gradientUnits="userSpaceOnUse" x1="35.2496" y1="17.8696" x2="35.2496" y2="81.4877">
			<stop  offset="0" style="stop-color:#CDCCCC"/>
			<stop  offset="0.97" style="stop-color:#343434"/>
			<stop  offset="1" style="stop-color:#808181"/>
		</linearGradient>
		<rect x="23.22" y="8.43" class="st2" width="24.07" height="72.8"/>
	</g>
	<path class="st3" d="M65.61,38.23l0-0.11l1.02,0.1l-0.01,1.49l-0.69-0.06l-0.33-0.03L65.61,38.23z M63.73,41.08l0-0.07l1.06,0.07
		l-0.01,1.52l-0.69-0.03l-0.37-0.02L63.73,41.08z M61.81,37.85l0-0.12l1.11,0.11l-0.01,1.56l-0.7-0.06l-0.42-0.03L61.81,37.85z
		 M65.59,41.2l0-0.07l1.02,0.07l-0.01,1.49l-0.68-0.03l-0.33-0.01L65.59,41.2z M63.75,37.93l1.06,0.11l-0.01,1.52l-0.69-0.06
		l-0.37-0.03l0.01-1.43L63.75,37.93z M65.63,36.62l0.01-1.36l0-0.15l1.02,0.14l-0.01,1.49l-0.69-0.08L65.63,36.62z M61.83,34.74
		l0-0.16l1.11,0.15l-0.01,1.56l-0.7-0.08l-0.42-0.05L61.83,34.74z M63.78,35.01v-0.16L64.84,35l-0.01,1.53l-0.69-0.08l-0.37-0.05
		L63.78,35.01z M55.37,40.56l0-0.08l1.28,0.08l-0.01,1.67l-0.71-0.03l-0.57-0.03L55.37,40.56z M57.63,37.44l0-0.12l1.22,0.12
		l-0.01,1.63l-0.71-0.06l-0.52-0.04L57.63,37.44z M59.75,40.83l0-0.07l1.16,0.07l-0.01,1.59l-0.7-0.03l-0.46-0.02L59.75,40.83z
		 M57.65,34.02l1.22,0.17l-0.01,1.63l-0.71-0.08l-0.52-0.06l0.01-1.49L57.65,34.02z M57.61,40.7v-0.08l1.22,0.08l-0.01,1.63
		l-0.71-0.03l-0.51-0.02L57.61,40.7z M55.39,37.22V37.1l1.28,0.13l-0.01,1.67l-0.71-0.06l-0.57-0.05L55.39,37.22z M55.64,30.35
		l1.28,0.22l-0.01,1.68l-0.71-0.11l-0.57-0.09l0.01-1.48L55.64,30.35z M61.78,40.96v-0.07l1.11,0.07l-0.01,1.55l-0.7-0.03
		l-0.42-0.02L61.78,40.96z M59.77,37.53l1.17,0.12l-0.01,1.59l-0.7-0.06l-0.46-0.04l0.01-1.5L59.77,37.53z M59.78,35.92l0.01-1.45
		l0-0.16l1.17,0.16l-0.01,1.6l-0.7-0.08L59.78,35.92z M53.03,36.99v-0.13l1.35,0.13l-0.01,1.71l-0.71-0.06l-0.63-0.05L53.03,36.99z
		 M53.02,40.41l0-0.08l1.35,0.09l-0.01,1.71l-0.71-0.03l-0.63-0.03L53.02,40.41z M53.22,30.16l0-0.22l1.35,0.23l-0.01,1.72
		l-0.72-0.11l-0.63-0.1L53.22,30.16z M53.05,33.56l0-0.18l1.35,0.18l-0.01,1.72l-0.71-0.08l-0.63-0.08L53.05,33.56z M55.41,33.88
		l0-0.17l1.28,0.18l-0.01,1.68l-0.71-0.09l-0.57-0.07L55.41,33.88z M55.66,27.22l0-0.26l1.28,0.27l-0.01,1.68l-0.71-0.14l-0.57-0.11
		L55.66,27.22z M55.73,13.76l0-0.45l1.28,0.46l-0.01,1.69l-0.71-0.24l-0.57-0.19L55.73,13.76z M53.23,26.72l0-0.27l1.35,0.28
		l-0.01,1.72l-0.72-0.14l-0.63-0.12L53.23,26.72z M55.68,23.87l0-0.31l1.28,0.31l-0.01,1.68l-0.71-0.16l-0.57-0.13L55.68,23.87z
		 M53.26,19.83l0-0.37l1.35,0.38l-0.01,1.73l-0.72-0.19l-0.63-0.17L53.26,19.83z M55.69,20.51l0-0.36l1.28,0.36l-0.01,1.69
		l-0.71-0.19l-0.57-0.15L55.69,20.51z M53.25,23.28l0-0.32l1.35,0.33l-0.01,1.73l-0.72-0.16l-0.63-0.14L53.25,23.28z M53.28,16.37
		l0-0.41l1.35,0.43l-0.01,1.73l-0.72-0.22l-0.63-0.19L53.28,16.37z M55.71,17.14l0-0.4L57,17.15l-0.01,1.69l-0.71-0.21l-0.57-0.17
		L55.71,17.14z M49.52,11.09l-0.01,1.83l-0.73-0.25l-0.78-0.26l0-1.37l0-0.49L49.52,11.09z M53.29,14.21l0.01-1.3l0-0.46l1.35,0.48
		l-0.01,1.74l-0.72-0.24L53.29,14.21z M49.51,14.75l-0.01,1.83l-0.73-0.22L48,16.13l0-1.42l0-0.44L49.51,14.75z M48,17.97l1.5,0.43
		l-0.01,1.82l-0.72-0.19l-0.78-0.21l0-1.46L48,17.97z M52.15,12.03l-0.01,1.78l-0.72-0.24l-0.7-0.24L50.73,12l0-0.48L52.15,12.03z
		 M47.98,25.35l1.5,0.31l-0.01,1.82l-0.72-0.14l-0.78-0.15l0-1.56L47.98,25.35z M47.99,21.66l1.5,0.37l-0.01,1.82l-0.72-0.17
		l-0.78-0.18l0-1.51L47.99,21.66z M50.54,40.17l1.42,0.09l-0.01,1.75l-0.72-0.03l-0.7-0.03l0.01-1.69V40.17z M50.56,36.61l1.42,0.14
		l-0.01,1.76l-0.72-0.06l-0.7-0.06l0.01-1.65L50.56,36.61z M50.57,33.05l1.42,0.19l-0.01,1.76l-0.72-0.09l-0.7-0.08l0.01-1.61
		L50.57,33.05z M50.66,29.49l1.42,0.25l-0.01,1.76l-0.72-0.11l-0.7-0.11l0.01-1.56L50.66,29.49z M50.68,25.91l1.42,0.3l-0.01,1.77
		l-0.72-0.14l-0.7-0.13l0.01-1.52L50.68,25.91z M47.93,40l1.49,0.1l-0.01,1.8l-0.72-0.03l-0.77-0.04l0-1.74V40z M47.28,8.43
		l-0.09,34.43l0.55-0.02l15.45,0.54l2.05,12.15l1.99-11.77l0.1-10.46l-9.48-1.53l0.12-19.33L47.28,8.43z M47.94,36.35l1.49,0.15
		l-0.01,1.8l-0.72-0.06l-0.77-0.06l0-1.69V36.35z M47.95,32.69l1.5,0.2l-0.01,1.81l-0.72-0.08l-0.77-0.09l0-1.65L47.95,32.69z
		 M49.46,29.28l-0.01,1.81l-0.72-0.11l-0.78-0.12l0-1.6l0-0.24L49.46,29.28z M50.69,22.33l1.42,0.35l-0.01,1.77l-0.72-0.16
		l-0.7-0.16l0.01-1.47L50.69,22.33z M50.7,18.74l1.42,0.4l-0.01,1.78l-0.72-0.19l-0.7-0.18l0.01-1.43L50.7,18.74z M58.5,82.75
		l-1.28-6.25l-0.04,6.79L58.5,82.75z M52.14,15.59l-0.01,1.78l-0.72-0.22l-0.7-0.21l0.01-1.38l0-0.43L52.14,15.59z"/>
	<polygon class="st4" points="26.02,65.43 22.18,66.03 27.73,67.3 27.42,65.73 	"/>
	<path class="st5" d="M22.18,66.03l3.85-0.6l0.68-3.36l-1.13-5.73l-0.61-4.38l-0.2-0.01l-0.27,2.09L22.18,66.03z M24.26,74.57
		l-3.43-1.1l-1.19,6.15l3.79-0.98L24.26,74.57z"/>
	<polygon class="st5" points="30.95,43.37 43.14,88.97 43.16,73.23 34.92,43.47 	"/>
	<polygon class="st6" points="43.2,42.98 43.16,73.23 43.14,88.97 47.61,90.75 47.75,42.84 47.19,42.85 	"/>
	<polygon class="st7" points="57.27,66.25 57.21,76.5 58.5,82.75 62.84,84.04 58.33,60.76 57.3,53.51 57.03,53.53 	"/>
	<polygon class="st7" points="73.88,58.03 70.7,78.07 74.41,78.94 74.63,59.77 74.81,53.76 74.87,52.14 74.69,52.15 	"/>
	<polygon class="st7" points="68.15,64.33 71.49,43.67 67.24,43.76 65.25,55.53 66.81,64.74 67.12,67.29 67.35,70.21 67.46,70.23 	
		"/>
	<path class="st3" d="M38.75,21.67l1.14-0.28l0-1.48l-1.14,0.29V21.67z M36.91,22.11l0-1.44l-1.05,0.27l0,1.43L36.91,22.11z
		 M36.92,24.01l-1.05,0.23l0,1.46l1.05-0.22L36.92,24.01z M36.92,27.35l-1.05,0.2l0,1.48l1.05-0.18L36.92,27.35z M36.92,30.67
		l-1.05,0.16l0,1.51l1.05-0.15L36.92,30.67z M37.19,33.96l-1.06,0.13l0,1.55l1.06-0.11L37.19,33.96z M38.93,33.74v1.59l1.14-0.12
		l0-1.61L38.93,33.74z M38.75,31.94l1.14-0.16v-1.57l-1.14,0.18V31.94z M38.75,28.53l1.14-0.2l0-1.54L38.75,27V28.53z M41.81,26.42
		l0,1.57l1.24-0.22l0-1.59L41.81,26.42z M45.05,25.81l0,1.62l1.35-0.24l0-1.64L45.05,25.81z M41.81,24.47l1.24-0.26l0-1.56
		l-1.24,0.28L41.81,24.47z M43.04,29.72l-1.24,0.19l0,1.6l1.24-0.17L43.04,29.72z M45.04,29.41l0,1.65l1.35-0.19l0-1.67L45.04,29.41
		z M24.86,39.78l-0.01-1.4l-0.71,0.06l0.01,1.38L24.86,39.78z M24.14,36.92l0.71-0.08l-0.01-1.37l-0.71,0.09L24.14,36.92z
		 M24.87,41.3l-0.71,0.04l0.01,1.41l0.71-0.03L24.87,41.3z M26.32,41.21l0.01,1.45l0.77-0.03l-0.01-1.46L26.32,41.21z M26.31,39.68
		l0.77-0.06l0-1.43l-0.77,0.07L26.31,39.68z M26.3,36.69l0.77-0.08l0-1.4l-0.77,0.1L26.3,36.69z M28.57,35.02l0.01,1.43l0.83-0.09
		l0-1.44L28.57,35.02z M29.41,37.98l-0.83,0.07l0,1.45l0.83-0.06L29.41,37.98z M29.42,41.04l-0.83,0.05l0.01,1.48l0.83-0.03
		L29.42,41.04z M30.98,40.95l0,1.52l0.9-0.04l0-1.53L30.98,40.95z M30.97,39.33l0.9-0.07l0-1.51l-0.9,0.08L30.97,39.33z
		 M30.96,36.19l0.9-0.1l0-1.48l-0.9,0.11L30.96,36.19z M33.48,34.41l0,1.5l0.97-0.1l0-1.52L33.48,34.41z M34.46,37.52l-0.97,0.09
		l0,1.53l0.97-0.07L34.46,37.52z M34.46,40.75l-0.97,0.06l0,1.56l0.97-0.04L34.46,40.75z M36.14,40.65l0,1.6l1.05-0.04l0-1.62
		L36.14,40.65z M36.13,38.95l1.05-0.08l0-1.59l-1.05,0.1L36.13,38.95z M38.93,37.12v1.62l1.14-0.09l0-1.64L38.93,37.12z
		 M40.08,40.42l-1.14,0.07v1.65l1.14-0.05L40.08,40.42z M41.89,40.32l0,1.69l1.24-0.05l0-1.71L41.89,40.32z M41.89,38.52l1.24-0.09
		l0-1.68l-1.24,0.11L41.89,38.52z M41.9,35.01l1.24-0.13l0-1.65l-1.24,0.15L41.9,35.01z M45.04,32.99l0,1.68l1.35-0.14l0-1.7
		L45.04,32.99z M46.38,36.45l-1.35,0.12l0,1.71l1.35-0.1L46.38,36.45z M46.37,40.07l-1.35,0.08l0,1.74l1.34-0.05L46.37,40.07z
		 M46.41,23.52l0-1.61l-1.35,0.3l0,1.59L46.41,23.52z M43.07,13.46l0-1.47l-1.25,0.4l0,1.45L43.07,13.46z M39.9,14.44l0-1.42
		l-1.15,0.37v1.41L39.9,14.44z M39.9,16.47l-1.14,0.33v1.44l1.14-0.31V16.47z M35.86,15.68l1.05-0.33l0-1.38l-1.05,0.34L35.86,15.68
		z M36.91,17.33l-1.05,0.3l0,1.4l1.05-0.29L36.91,17.33z M41.82,15.91l0,1.48l1.25-0.34l0-1.5L41.82,15.91z M43.06,19.11l-1.24,0.32
		l0,1.51l1.24-0.3L43.06,19.11z M45.06,18.6l0,1.56l1.36-0.33l0-1.58L45.06,18.6z M45.07,16.5l1.36-0.37l0-1.55l-1.36,0.39
		L45.07,16.5z M45.08,12.84l1.36-0.42l0-1.52l-1.36,0.44L45.08,12.84z M38.75,25.11l1.14-0.24v-1.51l-1.14,0.25V25.11z"/>
	<path class="st8" d="M47.94,38.18l0.77,0.06l0-1.68l-0.77-0.08L47.94,38.18z M47.95,34.53l0.77,0.09l0.01-1.64l-0.78-0.1
		L47.95,34.53z M47.96,30.86l0.78,0.12l0.01-1.59l-0.78-0.13L47.96,30.86z M51.24,40.3l-0.7-0.04l-0.01,1.69l0.7,0.03L51.24,40.3z
		 M50.55,38.4l0.7,0.06l0.01-1.64l-0.7-0.07L50.55,38.4z M50.56,34.84l0.7,0.08l0.01-1.6l-0.7-0.09L50.56,34.84z M50.65,31.28
		l0.7,0.11l0.01-1.55l-0.7-0.12L50.65,31.28z M50.67,27.71l0.7,0.13l0.01-1.51l-0.7-0.14L50.67,27.71z M48.75,27.34l0.01-1.55
		l-0.78-0.16l0,1.56L48.75,27.34z M53.23,26.72l-0.01,1.48l0.63,0.12l0.01-1.47L53.23,26.72z M53.85,30.26l-0.63-0.11l-0.01,1.52
		l0.63,0.1L53.85,30.26z M53.68,33.65l-0.63-0.09l-0.01,1.57l0.63,0.08L53.68,33.65z M53.67,37.05l-0.63-0.06l-0.01,1.61l0.63,0.05
		L53.67,37.05z M53.65,40.45l-0.63-0.04l-0.01,1.65l0.63,0.03L53.65,40.45z M55.37,40.56l-0.01,1.61l0.57,0.03l0.01-1.6L55.37,40.56
		z M55.38,38.79l0.57,0.05l0.01-1.56l-0.57-0.06L55.38,38.79z M55.4,35.41l0.57,0.07l0.01-1.52l-0.57-0.08L55.4,35.41z M55.63,32.05
		l0.57,0.09l0.01-1.47l-0.57-0.1L55.63,32.05z M55.65,28.66l0.57,0.11l0.01-1.43l-0.57-0.12L55.65,28.66z M53.87,24.86l0.01-1.42
		l-0.63-0.15l-0.01,1.43L53.87,24.86z M51.38,24.29l0.01-1.46l-0.7-0.17l-0.01,1.47L51.38,24.29z M48.76,23.69l0-1.5L47.99,22
		l0,1.51L48.76,23.69z M55.69,20.51l-0.01,1.35l0.57,0.15l0.01-1.34L55.69,20.51z M56.25,24.01l-0.57-0.14l-0.01,1.4l0.57,0.13
		L56.25,24.01z M57.65,34.18l-0.01,1.49l0.52,0.06l0.01-1.48L57.65,34.18z M59.79,34.47l-0.01,1.45l0.46,0.06l0.01-1.45L59.79,34.47
		z M61.83,34.74l-0.01,1.42l0.42,0.05l0.01-1.41L61.83,34.74z M63.78,35.01l-0.01,1.39l0.37,0.05l0.01-1.38L63.78,35.01z
		 M65.64,35.26l-0.01,1.36l0.33,0.04l0.01-1.35L65.64,35.26z M65.95,38.26l-0.33-0.03l-0.01,1.4l0.33,0.03L65.95,38.26z M64.11,39.5
		l0.01-1.42l-0.37-0.04l-0.01,1.43L64.11,39.5z M62.21,39.35l0.01-1.45l-0.42-0.04l-0.01,1.46L62.21,39.35z M60.22,39.19l0.01-1.49
		l-0.46-0.05l-0.01,1.5L60.22,39.19z M58.14,39.02l0.01-1.52l-0.52-0.05l-0.01,1.53L58.14,39.02z M58.13,40.73l-0.52-0.03
		l-0.01,1.57l0.51,0.02L58.13,40.73z M59.75,40.83l-0.01,1.54l0.46,0.02l0.01-1.53L59.75,40.83z M61.78,40.96l-0.01,1.5l0.42,0.02
		l0.01-1.49L61.78,40.96z M63.73,41.08l-0.01,1.47l0.37,0.02l0.01-1.46L63.73,41.08z M65.59,41.2l-0.01,1.43l0.33,0.01l0.01-1.43
		L65.59,41.2z M56.29,15.22l0.01-1.26l-0.57-0.2l-0.01,1.27L56.29,15.22z M56.28,17.32l-0.57-0.18l-0.01,1.31l0.57,0.17L56.28,17.32
		z M53.9,20.01l-0.63-0.18l-0.01,1.39l0.63,0.17L53.9,20.01z M53.27,17.72l0.63,0.19l0.01-1.33l-0.63-0.2L53.27,17.72z M53.29,14.21
		l0.63,0.21l0.01-1.29L53.3,12.9L53.29,14.21z M51.43,13.57l0.01-1.33L50.73,12l-0.01,1.33L51.43,13.57z M51.42,15.78l-0.7-0.22
		l-0.01,1.38l0.7,0.21L51.42,15.78z M51.4,19.31l-0.7-0.2l-0.01,1.43l0.7,0.18L51.4,19.31z M48.77,20.03l0-1.45L48,18.36l0,1.46
		L48.77,20.03z M48,16.13l0.78,0.23l0-1.41l-0.78-0.25L48,16.13z M48.01,12.42l0.78,0.26l0-1.36l-0.78-0.27L48.01,12.42z
		 M47.93,40.09l0,1.74l0.77,0.04l0-1.73L47.93,40.09z"/>
	<path class="st9" d="M34.06,18.62h-16.9c-2.2,2.43-4.11,5.13-5.66,8.05h22.57L34.06,18.62z M57.94,18.62l-0.05,8.05h23.4
		c-1.55-2.92-3.46-5.62-5.66-8.05H57.94z M82.02,28.11H57.88l-0.02,3.66l9.48,1.53l-0.02,2.46h17.44
		C84.1,33.1,83.18,30.54,82.02,28.11z M34.08,33.56l-0.01-5.45h-23.3c-1.16,2.42-2.08,4.99-2.73,7.65h15.19l-0.01-0.78L34.08,33.56z
		 M23.23,37.61H7.63c-0.41,2.13-0.65,4.32-0.71,6.56H19.8l0.11-0.45l3.35-0.11L23.23,37.61z M67.3,37.61l-0.05,6.15l4.25-0.09
		L80.72,44l0,0.17h5.15c-0.05-2.24-0.3-4.43-0.71-6.56H67.3z M17.71,52.92l1.38-5.8H6.96c0.1,1.98,0.34,3.91,0.72,5.8H17.71z
		 M16.83,56.61H8.6c1.24,4.09,3.13,7.91,5.54,11.32L16.83,56.61z M80.55,56.61l-0.11,8.56c1.57-2.67,2.84-5.54,3.75-8.56H80.55z
		 M80.6,52.92h4.51c0.38-1.89,0.62-3.83,0.72-5.8h-5.15L80.6,52.92z M18.15,17.56h15.9l-0.01-4.62l13.24-4.52l10.69,4.02l-0.03,5.12
		h16.69C67.46,10.23,57.46,5.67,46.39,5.67C35.33,5.67,25.32,10.23,18.15,17.56z"/>
	<path class="st10" d="M255.07,52.03c0.29-1.03,0.61-2.11,0.93-3.32c0.29-1.18,0.64-2.54,0.96-4.07l1-4.36
		c-0.68,0.86-1.46,1.46-2.32,1.89c-0.89,0.39-1.86,0.61-3,0.61c-1.96,0-3.53-0.61-4.61-1.82c-1.11-1.21-1.68-2.93-1.68-5.07
		c0-3.14,0.86-5.82,2.57-8.03c1.71-2.21,3.78-3.32,6.25-3.32c1.21,0,2.25,0.21,3.14,0.64c0.89,0.43,1.71,1.14,2.46,2.14
		c0.11-0.39,0.22-0.79,0.29-1.18c0.07-0.43,0.11-0.86,0.14-1.28c0.64,0.07,1.18,0.11,1.64,0.14c0.46,0.04,0.82,0.07,1.11,0.07
		c0.39,0,0.82-0.04,1.28-0.07c0.46-0.04,1-0.07,1.57-0.14c-1.54,6-2.82,11.46-3.86,16.42c-1.04,4.96-1.64,8.57-1.86,10.75
		c-0.82-0.07-1.46-0.11-1.93-0.14c-0.43-0.04-0.82-0.04-1.11-0.04c-0.29,0-0.68,0-1.14,0.04C256.46,51.92,255.82,51.96,255.07,52.03
		 M257,26.75c-0.61,0-1.18,0.21-1.71,0.61c-0.54,0.43-1.04,1.03-1.46,1.82c-0.46,0.89-0.86,2.07-1.21,3.5
		c-0.32,1.46-0.5,2.82-0.5,4.03c0,1,0.25,1.79,0.71,2.36c0.5,0.61,1.14,0.89,1.96,0.89c0.79,0,1.5-0.25,2.11-0.75
		c0.61-0.5,1.14-1.18,1.5-2.11c0.39-0.93,0.71-2.07,0.96-3.43c0.29-1.39,0.39-2.61,0.39-3.64c0-1-0.25-1.82-0.75-2.39
		C258.5,27.04,257.85,26.75,257,26.75z M227.65,26.61h-1.14c-0.04,0-0.21,0-0.5,0.04c-0.29,0-0.57,0.04-0.82,0.04
		c0.11-0.36,0.18-0.71,0.25-1.04c0.04-0.32,0.11-0.64,0.14-0.93c0.29,0,0.61,0.04,0.93,0.04c0.32,0,0.82,0,1.46,0
		c0.64-2.86,1.75-5.14,3.36-6.78c1.61-1.68,3.46-2.5,5.53-2.5c0.57,0,1.07,0.04,1.46,0.18c0.43,0.11,0.82,0.29,1.21,0.53
		c-0.29,0.64-0.54,1.36-0.79,2.07c-0.29,0.75-0.54,1.57-0.79,2.46l-0.43-0.07c-0.32-0.64-0.68-1.14-1.11-1.46
		c-0.43-0.32-0.93-0.5-1.43-0.5c-0.64,0-1.11,0.25-1.43,0.79c-0.29,0.5-0.43,1.36-0.43,2.53c0,0.39,0,0.79,0.04,1.25
		c0,0.46,0.04,0.96,0.07,1.5c0.29,0,0.82,0,1.57-0.04c0.79,0,1.39,0,1.86,0c-0.11,0.29-0.21,0.61-0.29,0.93
		c-0.04,0.32-0.11,0.64-0.11,1.04c-0.71-0.04-1.32-0.04-1.82-0.07c-0.5,0-1,0-1.5,0c-0.71,2.68-1.32,5.32-1.86,7.89
		c-0.5,2.61-0.89,5.21-1.18,7.78c-0.75-0.07-1.32-0.11-1.78-0.14c-0.46-0.04-0.89-0.04-1.25-0.04c-0.32,0-0.75,0-1.21,0.04
		c-0.5,0.03-1.11,0.07-1.82,0.14c0.82-2.96,1.5-5.71,2.14-8.32C226.62,31.4,227.19,28.93,227.65,26.61z M235.36,42.28
		c0.79-3.07,1.5-6.07,2.11-8.93c0.61-2.89,1.11-5.75,1.57-8.5c0.54,0.03,1.11,0.07,1.61,0.11c0.54,0.04,1,0.04,1.46,0.04
		c0.36,0,0.75,0,1.21-0.04c0.46-0.04,0.96-0.07,1.5-0.11c-0.78,2.82-1.46,5.71-2.07,8.6c-0.61,2.89-1.11,5.86-1.54,8.82
		c-0.82-0.07-1.43-0.11-1.82-0.14c-0.36-0.04-0.68-0.04-0.89-0.04c-0.36,0-0.75,0-1.25,0.04C236.75,42.18,236.11,42.21,235.36,42.28
		z M240.11,18.47c0-0.79,0.29-1.46,0.82-2c0.54-0.54,1.21-0.79,2-0.79c0.82,0,1.46,0.25,2,0.82c0.57,0.54,0.82,1.18,0.82,1.96
		c0,0.75-0.29,1.43-0.82,2c-0.57,0.54-1.21,0.82-2,0.82c-0.79,0-1.43-0.29-2-0.82C240.4,19.9,240.11,19.26,240.11,18.47z M214.51,40
		c-0.5,0.93-1.11,1.61-1.89,2.03c-0.79,0.46-1.75,0.68-2.86,0.68c-1.46,0-2.64-0.39-3.5-1.21c-0.86-0.79-1.29-1.86-1.29-3.21
		c0-1.86,0.54-3.28,1.64-4.25c1.11-1,2.82-1.61,5.18-1.86c0.36-0.03,0.79-0.07,1.36-0.14c2.03-0.18,3.07-1.07,3.07-2.68
		c0-0.78-0.25-1.39-0.79-1.82c-0.54-0.39-1.29-0.61-2.29-0.61c-1,0-1.86,0.18-2.57,0.54c-0.71,0.32-1.32,0.86-1.78,1.61l-0.39,0.04
		c0.11-0.46,0.21-0.93,0.29-1.39c0.07-0.46,0.14-0.96,0.18-1.46c1.18-0.61,2.29-1.07,3.36-1.36c1.07-0.28,2.18-0.43,3.36-0.43
		c1.82,0,3.21,0.39,4.21,1.18c1,0.75,1.5,1.86,1.5,3.28c0,0.82-0.28,2.39-0.82,4.78c-0.07,0.39-0.14,0.68-0.18,0.86
		c-0.39,1.68-0.64,2.86-0.79,3.57c-0.14,0.71-0.21,1.18-0.21,1.43c0,0.43,0.11,0.75,0.32,0.96c0.21,0.21,0.57,0.32,1,0.32
		c0.11,0,0.25,0,0.36-0.04c0.14-0.03,0.32-0.07,0.57-0.14l-0.07,1.21c-0.46,0.25-0.96,0.43-1.5,0.54c-0.54,0.11-1.11,0.18-1.75,0.18
		c-1.07,0-1.89-0.21-2.5-0.64C215.12,41.53,214.73,40.89,214.51,40z M215.3,33.68h-0.43c-1.54,0-2.68,0.36-3.46,1.11
		c-0.82,0.71-1.21,1.75-1.21,3.14c0,0.64,0.14,1.14,0.46,1.5c0.32,0.36,0.75,0.53,1.32,0.53c0.86,0,1.54-0.39,2-1.14
		C214.44,38.04,214.87,36.32,215.3,33.68z M189.67,42.28c0.68-2.75,1.32-5.57,1.93-8.46c0.61-2.89,1.14-5.89,1.68-8.96
		c0.54,0.03,1.04,0.07,1.5,0.11C195.24,25,195.7,25,196.13,25c0.21,0,0.57-0.04,1-0.04c0.43-0.04,0.89-0.07,1.43-0.11
		c-0.21,0.64-0.39,1.28-0.57,1.93c-0.21,0.64-0.36,1.28-0.5,1.93h0.39c0.89-1.5,1.75-2.57,2.61-3.21c0.89-0.64,1.86-0.96,2.89-0.96
		c0.18,0,0.39,0,0.64,0.04c0.25,0.04,0.57,0.07,0.96,0.14c-0.32,0.79-0.54,1.57-0.68,2.39c-0.18,0.79-0.25,1.64-0.25,2.54v0.32
		c-0.43-0.14-0.82-0.25-1.25-0.32c-0.39-0.07-0.82-0.11-1.25-0.11c-1.78,0-3.11,0.75-3.93,2.28c-0.82,1.53-1.5,5.03-2.07,10.46
		c-0.78-0.07-1.43-0.11-1.89-0.14c-0.47-0.04-0.89-0.04-1.25-0.04c-0.21,0-0.54,0-0.89,0.04C191.17,42.18,190.56,42.21,189.67,42.28
		z M180.6,40c-0.5,0.93-1.11,1.61-1.89,2.03c-0.79,0.46-1.75,0.68-2.86,0.68c-1.46,0-2.64-0.39-3.5-1.21
		c-0.86-0.79-1.28-1.86-1.28-3.21c0-1.86,0.53-3.28,1.64-4.25c1.11-1,2.82-1.61,5.18-1.86c0.36-0.03,0.78-0.07,1.36-0.14
		c2.04-0.18,3.07-1.07,3.07-2.68c0-0.78-0.25-1.39-0.79-1.82c-0.54-0.39-1.28-0.61-2.28-0.61c-1,0-1.86,0.18-2.57,0.54
		c-0.71,0.32-1.32,0.86-1.79,1.61l-0.39,0.04c0.11-0.46,0.22-0.93,0.29-1.39c0.07-0.46,0.14-0.96,0.18-1.46
		c1.18-0.61,2.28-1.07,3.36-1.36c1.07-0.28,2.18-0.43,3.36-0.43c1.82,0,3.21,0.39,4.21,1.18c1,0.75,1.5,1.86,1.5,3.28
		c0,0.82-0.29,2.39-0.82,4.78c-0.07,0.39-0.14,0.68-0.18,0.86c-0.39,1.68-0.64,2.86-0.79,3.57c-0.14,0.71-0.21,1.18-0.21,1.43
		c0,0.43,0.11,0.75,0.32,0.96c0.21,0.21,0.57,0.32,1,0.32c0.11,0,0.25,0,0.36-0.04c0.14-0.03,0.32-0.07,0.57-0.14l-0.07,1.21
		c-0.46,0.25-0.96,0.43-1.5,0.54c-0.53,0.11-1.11,0.18-1.75,0.18c-1.07,0-1.89-0.21-2.5-0.64C181.21,41.53,180.81,40.89,180.6,40z
		 M181.38,33.68h-0.43c-1.54,0-2.68,0.36-3.46,1.11c-0.82,0.71-1.21,1.75-1.21,3.14c0,0.64,0.14,1.14,0.46,1.5
		c0.32,0.36,0.75,0.53,1.32,0.53c0.86,0,1.54-0.39,2-1.14C180.53,38.04,180.96,36.32,181.38,33.68z M138.9,42.28
		c1.14-3.86,2.21-7.78,3.21-11.85c1.04-4.07,2-8.25,2.93-12.53c0.5,0.07,0.93,0.11,1.28,0.14c0.39,0.04,0.75,0.07,1.04,0.07
		c0.21,0,0.5-0.04,0.82-0.04c0.32-0.04,0.79-0.11,1.32-0.18c0.68,2.82,1.43,5.57,2.25,8.25c0.79,2.71,1.68,5.36,2.61,8
		c1.86-2.43,3.78-5,5.75-7.71c2-2.71,4.03-5.57,6.1-8.53c0.5,0.07,0.93,0.11,1.32,0.14c0.39,0.04,0.71,0.07,1,0.07
		c0.29,0,0.64-0.04,1.04-0.07c0.43-0.04,0.89-0.07,1.43-0.14c-1.14,5-2.11,9.5-2.86,13.6c-0.75,4.07-1.25,7.68-1.57,10.78
		c-0.82-0.11-1.5-0.18-2-0.21c-0.5-0.04-0.93-0.04-1.32-0.04c-0.29,0-0.61,0-1,0.04c-0.43,0.04-1.03,0.11-1.89,0.21
		c0.39-1.46,0.79-3.32,1.21-5.6c0.43-2.25,0.96-5.53,1.64-9.82c-1.68,2.04-3.32,4.25-5.03,6.68c-1.68,2.39-3.64,5.39-5.93,9.03
		h-2.18c-0.61-2.93-1.25-5.68-1.93-8.28c-0.68-2.64-1.39-5.18-2.18-7.6c-0.61,2.46-1.18,5.03-1.71,7.64c-0.54,2.61-1,5.25-1.39,7.96
		c-0.43-0.07-0.82-0.14-1.18-0.18c-0.32-0.04-0.64-0.04-0.89-0.04c-0.18,0-0.43,0-0.75,0.04C139.72,42.14,139.33,42.21,138.9,42.28z
		 M118.94,42.28c0.89-3.28,1.78-7.21,2.71-11.85c0.93-4.61,1.79-9.57,2.61-14.92c0.75,0.07,1.36,0.11,1.82,0.14
		c0.5,0,0.89,0.04,1.25,0.04c0.25,0,0.54,0,0.93-0.04c0.39-0.04,1.04-0.07,1.93-0.14c-1.29,5.46-2.39,10.57-3.36,15.24
		c-0.93,4.71-1.64,8.53-2.07,11.53c-0.68-0.07-1.25-0.11-1.71-0.14c-0.46-0.04-0.86-0.04-1.18-0.04c-0.36,0-0.78,0-1.25,0.04
		C120.16,42.18,119.59,42.21,118.94,42.28z M103.59,32.68c0.57,0.04,1.11,0.07,1.61,0.07c0.46,0.04,0.89,0.04,1.28,0.04
		c0.43,0,0.89,0,1.39-0.04c0.5,0,1.07-0.04,1.68-0.07c-0.11-1.25-0.25-2.54-0.43-3.85c-0.14-1.32-0.32-2.68-0.57-4.11
		c-0.82,1.21-1.64,2.46-2.43,3.78C105.31,29.79,104.49,31.18,103.59,32.68z M110.45,42.28c0-0.11,0-0.21,0-0.32
		c0-0.14,0-0.32,0-0.54c0-0.68-0.07-1.68-0.21-3.04c-0.07-0.36-0.07-0.64-0.11-0.78l-0.21-2.28c-0.89-0.07-1.68-0.14-2.39-0.18
		c-0.68-0.04-1.28-0.04-1.82-0.04c-0.32,0-0.78,0-1.39,0.04c-0.57,0.04-1.29,0.11-2.14,0.18l-1.32,2.32l-0.18,0.32
		c-0.96,1.68-1.71,3.11-2.25,4.32c-0.43-0.04-0.79-0.07-1.14-0.11c-0.32-0.03-0.61-0.03-0.82-0.03c-0.29,0-0.61,0-0.93,0.03
		c-0.36,0.04-0.75,0.07-1.14,0.11c2.61-3.93,5.18-7.93,7.71-12c2.54-4.07,5.07-8.25,7.57-12.53c0.36,0.04,0.68,0.07,0.96,0.11
		c0.32,0.04,0.57,0.04,0.79,0.04c0.21,0,0.43,0,0.68-0.04c0.29-0.04,0.57-0.07,0.89-0.11l1.25,8.32c0.57,3.68,1.11,6.89,1.64,9.64
		c0.54,2.71,1.04,4.93,1.5,6.57c-0.71-0.11-1.39-0.18-2-0.25c-0.61-0.04-1.18-0.07-1.64-0.07c-0.36,0-0.82,0.04-1.39,0.07
		C111.8,42.1,111.16,42.18,110.45,42.28z"/>
	<path class="st11" d="M262.8,56.42c0,0.36-0.32,0.68-0.7,0.68c-0.37,0-0.7-0.32-0.7-0.68c0-0.38,0.32-0.7,0.7-0.7
		C262.48,55.72,262.8,56.04,262.8,56.42 M263.69,57.97c0,0.38-0.32,0.7-0.7,0.7c-0.38,0-0.68-0.32-0.68-0.7
		c0-0.39,0.31-0.71,0.68-0.71C263.36,57.26,263.69,57.59,263.69,57.97z M261.89,57.97c0,0.38-0.32,0.7-0.7,0.7
		c-0.39,0-0.68-0.32-0.68-0.7c0-0.39,0.29-0.71,0.68-0.71C261.57,57.26,261.89,57.59,261.89,57.97z M266.76,63.61
		c0,1.38-0.98,2.31-2.52,2.31h-7.9v-1.13h1.29v-3.39l1.27-0.36v3.78h2.63v-4l1.27-0.38v4.35h1.37c0.87,0,1.31-0.44,1.31-1.31v-3.25
		l1.27-0.39V63.61z M256.34,65.91h-1.9c-0.17,1.56-1.27,2.57-3,2.57c-0.58,0-1.05-0.12-1.43-0.36l-0.6-1.26
		c0.6,0.34,1.27,0.51,2.04,0.51c1.09,0,1.74-0.7,1.74-1.82v-5.31l1.27-0.38v4.92h1.89V65.91z M249.23,65.91h-7.6v-1.1h6.3
		c0.01-0.68-0.01-1.18-0.05-1.46c-0.09-0.55-0.31-0.99-0.64-1.3c-0.46-0.43-1.06-0.64-1.8-0.64c-0.97,0-1.74,0.35-2.35,1.05
		l-0.87-0.82l4.17-4.34h1.66l-2.9,3.04c0.2-0.03,0.39-0.04,0.59-0.04c0.93,0,1.7,0.28,2.33,0.85c0.63,0.55,1.01,1.29,1.11,2.21
		C249.21,63.54,249.23,64.4,249.23,65.91z M238.55,60.9h-1.37c-0.52,0-0.9,0.17-1.1,0.52c-0.17,0.28-0.27,0.76-0.27,1.42
		c0,0.66,0.09,1.14,0.27,1.44c0.2,0.36,0.58,0.54,1.1,0.54c0.52,0,0.9-0.17,1.1-0.54c0.17-0.29,0.27-0.78,0.27-1.44V60.9z
		 M241.95,65.91h-0.87c-1.05,0-1.72-0.31-2-0.94c-0.31,0.63-0.97,0.94-1.97,0.94c-1.7,0-2.56-1.02-2.56-3.07
		c0-1.98,0.86-2.98,2.56-2.98h2.72v3.58c0,0.91,0.44,1.37,1.31,1.37h0.8V65.91z M237.39,57.97c0,0.38-0.32,0.7-0.71,0.7
		c-0.38,0-0.7-0.32-0.7-0.7c0-0.38,0.32-0.68,0.7-0.68C237.06,57.29,237.39,57.6,237.39,57.97z M239.18,57.97
		c0,0.38-0.32,0.7-0.7,0.7c-0.38,0-0.68-0.32-0.68-0.7c0-0.38,0.31-0.68,0.68-0.68C238.86,57.29,239.18,57.6,239.18,57.97z
		 M231.22,65.91h-1.27v-8.25l1.27-0.4V65.91z M228.79,63.54c0,0.68-0.23,1.25-0.68,1.7c-0.46,0.44-1.07,0.67-1.84,0.67h-0.86v-1.1
		l0.79,0c0.87,0,1.31-0.46,1.31-1.37v-5.78l1.27-0.37V63.54z M222.49,64c0-1.19-0.47-1.78-1.41-1.78c-0.95,0-1.42,0.59-1.42,1.78
		c0,1.19,0.47,1.78,1.42,1.78C222.02,65.78,222.49,65.19,222.49,64z M225.69,65.91h-0.17c-0.79,0-1.41-0.28-1.84-0.85
		c-0.32,1.13-1.31,1.78-2.6,1.78c-1.22,0-2.2-0.59-2.56-1.61c-0.39,0.44-0.94,0.67-1.66,0.67h-0.04v-1.13h-0.04
		c0.95,0,1.49-0.43,1.6-1.29c0.23-1.57,1.13-2.35,2.71-2.35c0.87,0,1.52,0.2,1.94,0.6c0.39,0.36,0.63,0.95,0.75,1.74
		c0.15,0.87,0.7,1.31,1.65,1.31l0.27,0V65.91z M216.81,65.91h-1.9c-0.17,1.56-1.27,2.57-3,2.57c-0.58,0-1.05-0.12-1.44-0.36
		l-0.6-1.26c0.6,0.34,1.27,0.51,2.04,0.51c1.09,0,1.74-0.7,1.74-1.82v-5.31l1.27-0.38v4.92h1.89V65.91z M209.71,65.91h-1.27v-8.25
		l1.27-0.4V65.91z M206.02,61.8c0-0.71-0.47-1.06-1.42-1.06c-0.9,0-1.34,0.35-1.34,1.06c0,0.47,0.07,0.75,0.2,0.87
		c0.13,0.11,0.47,0.16,1.01,0.16h1.56V61.8z M207.29,63.81c0,0.79-0.24,1.35-0.71,1.69c-0.38,0.28-0.97,0.42-1.77,0.42h-3.5v-1.13
		h3.34c0.47,0,0.79-0.03,0.94-0.08c0.28-0.12,0.43-0.39,0.43-0.8h-1.81c-0.86,0-1.45-0.19-1.78-0.58C202.14,63,202,62.48,202,61.76
		c0-1.3,0.99-2.15,2.6-2.15c0.9,0,1.6,0.23,2.06,0.68c0.42,0.39,0.63,0.87,0.63,1.46V63.81z M205.29,57.97c0,0.38-0.32,0.7-0.7,0.7
		c-0.38,0-0.7-0.32-0.7-0.7c0-0.38,0.32-0.68,0.7-0.68C204.97,57.29,205.29,57.6,205.29,57.97z M198.82,64.79v-1.72
		c0-1.39-0.46-2.09-1.37-2.09c-0.91,0-1.37,0.7-1.37,2.09c0,0.66,0.15,1.11,0.43,1.38c0.24,0.23,0.66,0.34,1.23,0.34H198.82z
		 M201.31,65.91h-1.25c-0.12,1.72-1.31,2.57-3.57,2.57c-1.41,0-2.4-0.38-2.99-1.11c-0.47-0.59-0.76-1.61-0.87-3.06l1.14-0.42
		c0,1.26,0.21,2.15,0.63,2.64c0.42,0.5,1.13,0.75,2.11,0.75c1.53,0.01,2.29-0.44,2.31-1.38h-1.1c-1.93,0-2.9-0.95-2.9-2.84
		c0-0.87,0.17-1.58,0.54-2.16c0.47-0.7,1.17-1.05,2.09-1.05c0.94,0,1.64,0.35,2.08,1.05c0.36,0.56,0.55,1.29,0.55,2.16v1.72h1.23
		V65.91z M197.33,57.97c0,0.38-0.32,0.7-0.71,0.7c-0.38,0-0.7-0.32-0.7-0.7c0-0.38,0.32-0.68,0.7-0.68
		C197.01,57.29,197.33,57.6,197.33,57.97z M199.13,57.97c0,0.38-0.32,0.7-0.7,0.7c-0.38,0-0.7-0.32-0.7-0.7
		c0-0.38,0.32-0.68,0.7-0.68C198.8,57.29,199.13,57.6,199.13,57.97z M189.31,63.54c0,0.68-0.23,1.25-0.68,1.7
		c-0.46,0.44-1.07,0.67-1.84,0.67h-0.86v-1.13h0.79c0.87,0,1.31-0.46,1.31-1.37v-5.75l1.27-0.37V63.54z M185.93,65.91h-0.55
		c-0.78,0-1.4-0.24-1.86-0.72c-0.44,0.48-1.07,0.72-1.89,0.72h-0.76v-1.1h0.68c0.88,0,1.33-0.46,1.33-1.37v-5.78l1.27-0.4v6.22
		c0,0.87,0.44,1.3,1.31,1.3h0.47V65.91z M180.86,65.91h-0.8c-0.79,0-1.41-0.24-1.86-0.71c-0.46,0.47-1.09,0.71-1.9,0.71h-0.97v-1.1
		h0.88c0.9,0,1.34-0.46,1.34-1.37v-3.2l1.26-0.38v3.62c0,0.89,0.44,1.33,1.33,1.33h0.72V65.91z M177.92,57.97
		c0,0.38-0.32,0.7-0.7,0.7c-0.39,0-0.68-0.32-0.68-0.7c0-0.38,0.29-0.68,0.68-0.68C177.6,57.29,177.92,57.6,177.92,57.97z
		 M179.72,57.97c0,0.38-0.32,0.7-0.7,0.7c-0.36,0-0.68-0.32-0.68-0.7c0-0.38,0.32-0.68,0.68-0.68
		C179.4,57.29,179.72,57.6,179.72,57.97z M170.2,56.42c0,0.36-0.32,0.68-0.7,0.68c-0.38,0-0.7-0.32-0.7-0.68
		c0-0.38,0.32-0.7,0.7-0.7C169.88,55.72,170.2,56.04,170.2,56.42z M169.29,57.97c0,0.38-0.32,0.7-0.7,0.7
		c-0.38,0-0.68-0.32-0.68-0.7c0-0.39,0.31-0.71,0.68-0.71C168.97,57.26,169.29,57.59,169.29,57.97z M171.1,57.97
		c0,0.38-0.32,0.7-0.7,0.7c-0.39,0-0.7-0.32-0.7-0.7c0-0.39,0.31-0.71,0.7-0.71C170.78,57.26,171.1,57.59,171.1,57.97z
		 M175.32,65.91h-11.61v-1.13H165v-3.39l1.27-0.36v3.76h2.66v-3.96l1.27-0.38v4.33h2.68v-4.55l1.27-0.38v4.95h1.17V65.91z
		 M163.71,65.91h-7.11v-1.1h1.21v-2.32c0-0.75,0.24-1.38,0.71-1.88c0.48-0.5,1.15-0.75,2-0.75c0.72,0,1.35,0.27,1.89,0.79
		l-0.94,0.86c-0.32-0.39-0.68-0.58-1.1-0.58c-0.76,0-1.29,0.58-1.29,1.34v2.51h4.63V65.91z M161.11,57.97c0,0.38-0.32,0.7-0.7,0.7
		c-0.36,0-0.68-0.32-0.68-0.7c0-0.39,0.32-0.71,0.68-0.71C160.78,57.26,161.11,57.59,161.11,57.97z M153.73,67.79
		c0,0.38-0.32,0.7-0.7,0.7c-0.39,0-0.68-0.32-0.68-0.7c0-0.37,0.3-0.68,0.68-0.68C153.41,67.11,153.73,67.42,153.73,67.79z
		 M155.53,67.79c0,0.38-0.32,0.7-0.7,0.7c-0.38,0-0.68-0.32-0.68-0.7c0-0.37,0.31-0.68,0.68-0.68
		C155.21,67.11,155.53,67.42,155.53,67.79z M156.6,65.91h-0.8c-0.79,0-1.41-0.24-1.86-0.71c-0.46,0.47-1.09,0.71-1.9,0.71h-0.64
		v-1.1h0.56c0.9,0,1.34-0.46,1.34-1.37v-3.2l1.26-0.38v3.62c0,0.89,0.44,1.33,1.33,1.33h0.72V65.91z M151.38,65.91h-1.9
		c-0.15,1.72-1.33,2.57-3.57,2.57c-1.35,0-2.32-0.38-2.92-1.11c-0.5-0.63-0.82-1.65-0.94-3.06l1.27-0.42c0,1.26,0.19,2.15,0.58,2.64
		c0.39,0.5,1.07,0.75,2.03,0.75c0.76,0,1.31-0.11,1.66-0.32c0.42-0.28,0.63-0.74,0.63-1.39v-7.9l1.27-0.39v7.52h1.89V65.91z
		 M137.46,63.1c0-1.27-0.44-1.9-1.34-1.9c-0.9,0-1.35,0.63-1.35,1.9c0,1.26,0.46,1.89,1.35,1.89
		C137.02,64.99,137.46,64.36,137.46,63.1z M138.67,65.39c-0.01,0.93-0.24,1.65-0.71,2.19c-0.5,0.6-1.22,0.91-2.17,0.91
		c-0.67,0-1.19-0.12-1.57-0.35l-0.56-1.23c0.76,0.36,1.47,0.51,2.13,0.47c0.97-0.05,1.5-0.59,1.61-1.6
		c-0.39,0.21-0.8,0.32-1.27,0.32c-0.93,0-1.62-0.32-2.07-0.97c-0.36-0.52-0.55-1.19-0.55-2.04c0-0.85,0.19-1.53,0.55-2.05
		c0.44-0.63,1.14-0.95,2.07-0.95c1.02,0,1.74,0.36,2.16,1.1c0.29,0.55,0.44,1.34,0.44,2.37c0,0.26,0,0.59-0.01,0.98
		C138.68,64.97,138.67,65.26,138.67,65.39z M132.35,65.91h-1.27v-8.25l1.27-0.4V65.91z M129.93,63.54c0,0.68-0.23,1.25-0.68,1.7
		c-0.46,0.44-1.07,0.67-1.84,0.67h-0.58v-1.13h0.51c0.87,0,1.31-0.46,1.31-1.37v-5.75l1.27-0.37V63.54z M124.4,64.79
		c0.03-0.21,0.04-0.43,0.04-0.66c0-0.83-0.16-1.52-0.5-2.07c-0.42-0.64-1.01-0.97-1.78-0.97c-0.95,0-1.81,0.46-2.6,1.37
		c-0.71,0.79-1.09,1.55-1.14,2.32H124.4z M126.83,65.91h-11.61v-1.1h1.29v-3.42l1.27-0.36v2.76c0.17-0.67,0.47-1.3,0.86-1.88
		c0.84-1.29,2.01-1.94,3.5-1.98c1.3-0.04,2.29,0.48,2.95,1.54c0.46,0.76,0.66,1.86,0.6,3.31h1.14V65.91z M112.35,67.79
		c0,0.38-0.32,0.7-0.7,0.7c-0.39,0-0.68-0.32-0.68-0.7c0-0.37,0.29-0.68,0.68-0.68C112.02,67.11,112.35,67.42,112.35,67.79z
		 M114.14,67.79c0,0.38-0.32,0.7-0.7,0.7c-0.38,0-0.68-0.32-0.68-0.7c0-0.37,0.31-0.68,0.68-0.68
		C113.82,67.11,114.14,67.42,114.14,67.79z M115.22,65.91h-0.81c-0.79,0-1.41-0.24-1.86-0.71c-0.46,0.47-1.09,0.71-1.9,0.71h-0.63
		v-1.1h0.55c0.9,0,1.34-0.46,1.34-1.37v-3.2l1.26-0.38v3.62c0,0.89,0.44,1.33,1.33,1.33h0.72V65.91z M110.01,65.91h-1.42
		c-1.14,0-1.77-0.7-1.77-1.73v-6.52l1.27-0.4v6.91c0,0.43,0.21,0.64,0.66,0.64h1.26V65.91z M105.67,63.54c0,0.68-0.23,1.26-0.68,1.7
		c-0.46,0.44-1.07,0.67-1.84,0.67h-0.71v-1.1h0.64c0.88,0,1.33-0.46,1.33-1.37v-3.2l1.26-0.38V63.54z M104.86,57.97
		c0,0.38-0.32,0.7-0.7,0.7c-0.36,0-0.68-0.32-0.68-0.7c0-0.39,0.32-0.71,0.68-0.71C104.54,57.26,104.86,57.59,104.86,57.97z
		 M99.04,60.9h-1.37c-0.52,0-0.9,0.17-1.1,0.52c-0.17,0.28-0.27,0.76-0.27,1.42c0,0.66,0.09,1.14,0.27,1.44
		c0.2,0.36,0.58,0.54,1.1,0.54c0.52,0,0.9-0.17,1.1-0.54c0.17-0.29,0.27-0.78,0.27-1.44V60.9z M102.44,65.91h-0.87
		c-1.05,0-1.72-0.31-2-0.94c-0.31,0.63-0.97,0.94-1.97,0.94c-1.7,0-2.56-1.02-2.56-3.07c0-1.98,0.86-2.98,2.56-2.98h2.72v3.58
		c0,0.91,0.44,1.37,1.31,1.37h0.8V65.91z M97.88,57.97c0,0.38-0.32,0.7-0.71,0.7c-0.38,0-0.7-0.32-0.7-0.7
		c0-0.38,0.32-0.68,0.7-0.68C97.55,57.29,97.88,57.6,97.88,57.97z M99.67,57.97c0,0.38-0.32,0.7-0.7,0.7c-0.38,0-0.68-0.32-0.68-0.7
		c0-0.38,0.31-0.68,0.68-0.68C99.35,57.29,99.67,57.6,99.67,57.97z"/>
	<path class="st11" d="M267.99,78.76c0.66,0,1.09-0.47,1.09-1.09c-0.01-0.64-0.43-1.09-1.09-1.09c-0.65,0-1.09,0.45-1.09,1.09
		c0,0.63,0.43,1.09,1.08,1.09H267.99z M263.12,77.45c-0.82,0-1.32-0.71-1.32-1.68c0-0.86,0.38-1.69,1.33-1.69
		c0.91,0,1.29,0.82,1.29,1.68c0,1.08-0.53,1.69-1.29,1.69H263.12z M263.08,78.76c1.75,0,3.27-1.07,3.27-3.05
		c0-1.7-1.28-2.92-3.16-2.92c-2.07,0-3.33,1.27-3.33,3.04c0,1.83,1.44,2.93,3.2,2.93H263.08z M258.97,76.94
		c-0.41,0.18-1.09,0.3-1.74,0.3c-1.79,0-2.79-1.07-2.79-2.55c0-1.68,1.2-2.56,2.78-2.56c0.73,0,1.34,0.16,1.75,0.34l0.4-1.44
		c-0.36-0.19-1.16-0.4-2.22-0.4c-2.64,0-4.66,1.59-4.66,4.18c0,2.24,1.55,3.95,4.51,3.95c1.08,0,1.93-0.21,2.28-0.38L258.97,76.94z
		 M245.1,75.09c0.06-0.44,0.4-1.11,1.23-1.11c0.92,0,1.11,0.78,1.11,1.11H245.1z M249.11,76.35c0.04-0.12,0.07-0.4,0.07-0.66
		c0-1.3-0.69-2.9-2.75-2.9c-2.2,0-3.07,1.76-3.07,3.04c0,1.77,1.2,2.93,3.25,2.93c0.84,0,1.58-0.13,2.24-0.4l-0.24-1.23
		c-0.55,0.19-1.08,0.26-1.74,0.26c-0.87,0-1.68-0.35-1.73-1.04H249.11z M242.55,77.11c-0.3,0.13-0.68,0.21-1.16,0.21
		c-0.91,0-1.7-0.52-1.7-1.58c-0.01-0.91,0.65-1.56,1.65-1.56c0.54,0,0.88,0.09,1.13,0.21l0.3-1.36c-0.44-0.16-1.02-0.24-1.53-0.24
		c-2.29,0-3.47,1.41-3.47,3.04c0,1.77,1.25,2.93,3.23,2.93c0.75,0,1.42-0.13,1.79-0.3L242.55,77.11z M230.84,78.62h1.85v-3.23
		c0-0.14,0.01-0.3,0.06-0.41c0.13-0.33,0.44-0.72,1.01-0.72c0.7,0,1.01,0.51,1.01,1.34v3.02h1.85v-3.28c0-1.8-1.02-2.55-2.21-2.55
		c-1.07,0-1.68,0.63-1.89,0.97h-0.05l-0.08-0.83h-1.61c0.02,0.5,0.05,1.12,0.05,1.85V78.62z M227.53,76.45
		c0,0.1-0.01,0.22-0.04,0.31c-0.12,0.37-0.52,0.71-1.01,0.71c-0.47,0-0.76-0.23-0.76-0.65c0-0.64,0.72-0.88,1.81-0.87V76.45z
		 M229.33,75.26c0-1.4-0.71-2.48-2.67-2.48c-1.12,0-1.93,0.29-2.35,0.54l0.34,1.16c0.4-0.23,1.08-0.45,1.7-0.45
		c1,0,1.13,0.47,1.13,0.71v0.06c-2.26,0-3.59,0.73-3.59,2.21c0,0.87,0.7,1.75,1.94,1.75c0.73,0,1.36-0.24,1.76-0.71h0.05l0.1,0.57
		h1.68c-0.06-0.3-0.09-0.84-0.09-1.41V75.26z M216.96,78.62h1.85v-3.23c0-0.14,0.01-0.3,0.06-0.41c0.13-0.33,0.44-0.72,1.01-0.72
		c0.7,0,1.01,0.51,1.01,1.34v3.02h1.85v-3.28c0-1.8-1.02-2.55-2.21-2.55c-1.07,0-1.68,0.63-1.89,0.97h-0.05l-0.08-0.83h-1.61
		c0.02,0.5,0.05,1.12,0.05,1.85V78.62z M211.77,75.09c0.06-0.44,0.4-1.11,1.24-1.11c0.92,0,1.11,0.78,1.11,1.11H211.77z
		 M215.77,76.35c0.04-0.12,0.07-0.4,0.07-0.66c0-1.3-0.69-2.9-2.75-2.9c-2.2,0-3.07,1.76-3.07,3.04c0,1.77,1.2,2.93,3.25,2.93
		c0.84,0,1.58-0.13,2.24-0.4l-0.24-1.23c-0.55,0.19-1.08,0.26-1.73,0.26c-0.87,0-1.68-0.35-1.74-1.04H215.77z M206.19,71.84v1.08
		h-0.78v1.39h0.78v2.2c0,0.78,0.16,1.35,0.49,1.71c0.29,0.3,0.8,0.54,1.42,0.54c0.52,0,0.98-0.08,1.22-0.17l-0.02-1.4
		c-0.18,0.05-0.28,0.06-0.57,0.06c-0.59,0-0.73-0.36-0.73-1.06v-1.87h1.33v-1.39h-1.33v-1.56L206.19,71.84z M198.73,78.62h1.85
		v-3.23c0-0.14,0.01-0.3,0.06-0.41c0.13-0.33,0.44-0.72,1.01-0.72c0.7,0,1.01,0.51,1.01,1.34v3.02h1.85v-3.28
		c0-1.8-1.02-2.55-2.21-2.55c-1.07,0-1.68,0.63-1.89,0.97h-0.05l-0.08-0.83h-1.61c0.02,0.5,0.05,1.12,0.05,1.85V78.62z
		 M196.27,72.21c0.62,0,0.99-0.41,0.99-0.9c-0.01-0.51-0.37-0.91-0.99-0.91c-0.62,0-0.99,0.4-0.99,0.91c0,0.49,0.37,0.9,0.98,0.9
		H196.27z M197.19,78.62v-5.69h-1.85v5.69H197.19z M192.03,76.45c0,0.1-0.01,0.22-0.03,0.31c-0.12,0.37-0.52,0.71-1.01,0.71
		c-0.47,0-0.76-0.23-0.76-0.65c0-0.64,0.72-0.88,1.8-0.87V76.45z M193.82,75.26c0-1.4-0.71-2.48-2.67-2.48
		c-1.12,0-1.93,0.29-2.35,0.54l0.34,1.16c0.4-0.23,1.08-0.45,1.7-0.45c1,0,1.13,0.47,1.13,0.71v0.06c-2.26,0-3.59,0.73-3.59,2.21
		c0,0.87,0.7,1.75,1.94,1.75c0.73,0,1.36-0.24,1.76-0.71h0.05l0.1,0.57h1.68c-0.06-0.3-0.09-0.84-0.09-1.41V75.26z M185.51,78.62
		h1.84l-0.41-7.85h-2.55l-0.91,2.53c-0.29,0.84-0.58,1.93-0.83,2.85h-0.05c-0.19-0.93-0.44-1.96-0.7-2.83l-0.81-2.55h-2.62
		L178,78.62h1.76l0.15-3.06c0.05-1.05,0.08-2.33,0.13-3.47h0.02c0.22,1.09,0.5,2.26,0.78,3.28l0.92,3.12h1.47l1.06-3.14
		c0.35-1.04,0.71-2.2,1-3.26h0.03c0,1.26,0.03,2.43,0.07,3.45L185.51,78.62z M172.2,75.91c0,0.14,0,0.28-0.03,0.41
		c-0.11,0.54-0.58,0.97-1.19,0.97c-0.84,0-1.37-0.62-1.37-1.54c0-0.89,0.48-1.58,1.39-1.58c0.62,0,1.07,0.42,1.19,0.93
		c0.02,0.09,0.02,0.22,0.02,0.31V75.91z M172.2,70.28v3.17h-0.02c-0.29-0.41-0.91-0.66-1.68-0.66c-1.49,0-2.81,1.16-2.79,3.05
		c0,1.83,1.27,2.92,2.65,2.92c0.8,0,1.57-0.33,1.98-1.04h0.02l0.08,0.9h1.65c-0.02-0.34-0.05-1.02-0.05-1.71v-6.62H172.2z
		 M160.77,78.62h1.85v-3.23c0-0.14,0.01-0.3,0.06-0.41c0.13-0.33,0.44-0.72,1.01-0.72c0.7,0,1.01,0.51,1.01,1.34v3.02h1.85v-3.28
		c0-1.8-1.02-2.55-2.21-2.55c-1.07,0-1.68,0.63-1.89,0.97h-0.05l-0.08-0.83h-1.61c0.02,0.5,0.05,1.12,0.05,1.85V78.62z
		 M157.46,76.45c0,0.1-0.01,0.22-0.03,0.31c-0.12,0.37-0.52,0.71-1.01,0.71c-0.47,0-0.76-0.23-0.76-0.65c0-0.64,0.72-0.88,1.8-0.87
		V76.45z M159.25,75.26c0-1.4-0.71-2.48-2.67-2.48c-1.12,0-1.93,0.29-2.35,0.54l0.34,1.16c0.4-0.23,1.08-0.45,1.7-0.45
		c1,0,1.13,0.47,1.13,0.71v0.06c-2.26,0-3.59,0.73-3.59,2.21c0,0.87,0.7,1.75,1.94,1.75c0.73,0,1.36-0.24,1.76-0.71h0.05l0.1,0.57
		h1.68c-0.06-0.3-0.09-0.84-0.09-1.41V75.26z M144.37,78.62h1.85v-3.23c0-0.14,0.01-0.3,0.06-0.41c0.13-0.33,0.44-0.72,1.01-0.72
		c0.7,0,1.01,0.51,1.01,1.34v3.02h1.85v-3.28c0-1.8-1.02-2.55-2.21-2.55c-1.07,0-1.68,0.63-1.89,0.97h-0.05l-0.08-0.83h-1.61
		c0.02,0.5,0.05,1.12,0.05,1.85V78.62z M139.97,77.45c-0.81,0-1.32-0.71-1.32-1.68c0-0.86,0.38-1.69,1.33-1.69
		c0.91,0,1.29,0.82,1.29,1.68c0,1.08-0.54,1.69-1.29,1.69H139.97z M139.93,78.76c1.75,0,3.27-1.07,3.27-3.05
		c0-1.7-1.28-2.92-3.16-2.92c-2.07,0-3.33,1.27-3.33,3.04c0,1.83,1.44,2.93,3.2,2.93H139.93z M134.64,72.21
		c0.62,0,0.99-0.41,0.99-0.9c-0.01-0.51-0.37-0.91-0.99-0.91c-0.62,0-0.99,0.4-0.99,0.91c0,0.49,0.37,0.9,0.98,0.9H134.64z
		 M135.56,78.62v-5.69h-1.85v5.69H135.56z M129.44,71.84v1.08h-0.78v1.39h0.78v2.2c0,0.78,0.16,1.35,0.49,1.71
		c0.29,0.3,0.8,0.54,1.42,0.54c0.52,0,0.98-0.08,1.22-0.17l-0.02-1.4c-0.17,0.05-0.28,0.06-0.57,0.06c-0.59,0-0.73-0.36-0.73-1.06
		v-1.87h1.33v-1.39h-1.33v-1.56L129.44,71.84z M125.98,76.45c0,0.1-0.01,0.22-0.04,0.31c-0.12,0.37-0.52,0.71-1.01,0.71
		c-0.47,0-0.76-0.23-0.76-0.65c0-0.64,0.72-0.88,1.8-0.87V76.45z M127.78,75.26c0-1.4-0.71-2.48-2.67-2.48
		c-1.12,0-1.93,0.29-2.35,0.54l0.34,1.16c0.4-0.23,1.08-0.45,1.7-0.45c1,0,1.13,0.47,1.13,0.71v0.06c-2.26,0-3.59,0.73-3.59,2.21
		c0,0.87,0.7,1.75,1.94,1.75c0.73,0,1.36-0.24,1.76-0.71h0.05l0.1,0.57h1.68c-0.06-0.3-0.09-0.84-0.09-1.41V75.26z M118.14,78.62
		h1.85v-2.88c0-0.12,0-0.23,0.02-0.34c0.1-0.55,0.55-0.93,1.3-0.93c0.22,0,0.38,0.02,0.54,0.06v-1.71c-0.15-0.03-0.23-0.03-0.4-0.03
		c-0.59,0-1.37,0.36-1.68,1.27h-0.05l-0.06-1.13h-1.58c0.03,0.48,0.05,1,0.05,1.93V78.62z M112.94,75.09
		c0.06-0.44,0.4-1.11,1.23-1.11c0.92,0,1.11,0.78,1.11,1.11H112.94z M116.95,76.35c0.04-0.12,0.07-0.4,0.07-0.66
		c0-1.3-0.69-2.9-2.75-2.9c-2.2,0-3.07,1.76-3.07,3.04c0,1.77,1.2,2.93,3.25,2.93c0.84,0,1.58-0.13,2.24-0.4l-0.25-1.23
		c-0.55,0.19-1.08,0.26-1.73,0.26c-0.87,0-1.68-0.35-1.74-1.04H116.95z M105.83,75.52c0-0.09,0.01-0.19,0.03-0.29
		c0.12-0.59,0.65-1.02,1.23-1.02c0.91,0,1.36,0.72,1.36,1.57c0,0.99-0.55,1.58-1.39,1.58c-0.63,0-1.11-0.45-1.22-0.97
		c-0.02-0.12-0.02-0.22-0.02-0.34V75.52z M103.98,80.94h1.85v-2.88h0.02c0.28,0.42,0.91,0.69,1.67,0.69c1.37,0,2.84-1,2.84-3.09
		c0-1.9-1.33-2.89-2.57-2.89c-0.93,0-1.65,0.34-2.14,0.98h-0.02l-0.08-0.84h-1.61c0.02,0.54,0.05,1.18,0.05,1.94V80.94z
		 M98.56,77.31c-1.35,0-2.21-1.14-2.21-2.6c0-1.47,0.83-2.64,2.22-2.64c1.4,0,2.22,1.2,2.22,2.62c0,1.5-0.84,2.62-2.22,2.62H98.56z
		 M98.49,78.76c2.55,0,4.27-1.68,4.27-4.12c0-2.29-1.57-4.01-4.16-4.01c-2.5,0-4.23,1.74-4.23,4.15c0,2.26,1.58,3.98,4.1,3.98H98.49
		z"/>
</g>
</svg>
