<?xml version="1.0" encoding="UTF-8"?>
<svg xmlns="http://www.w3.org/2000/svg" xmlns:xlink="http://www.w3.org/1999/xlink" id="Layer_1" version="1.1" viewBox="0 0 140 50">
  <defs>
    <style> .st0 { fill: #f4c440; } .st1 { fill: none; } .st2 { clip-path: url(#clippath-1); } .st3 { fill: #005138; } .st4 { clip-path: url(#clippath-3); } .st5 { clip-path: url(#clippath-2); } .st6 { clip-path: url(#clippath); } </style>
    <clipPath id="clippath">
      <rect class="st1" x="22.92" y=".87" width="94.15" height="48.28"></rect>
    </clipPath>
    <clipPath id="clippath-1">
      <rect class="st1" x="22.92" y=".87" width="94.15" height="48.28"></rect>
    </clipPath>
    <clipPath id="clippath-2">
      <rect class="st1" x="22.92" y=".87" width="94.15" height="48.28"></rect>
    </clipPath>
    <clipPath id="clippath-3">
      <rect class="st1" x="22.92" y=".87" width="94.15" height="48.28"></rect>
    </clipPath>
  </defs>
  <path class="st0" d="M25.44,16.47v3.15c.97-1.79,2.47-3.29,4.31-3.29,2.04,0,3.26,1.2,3.69,3.22.97-1.77,2.47-3.22,4.28-3.22,2.56,0,3.83,1.92,3.83,4.96v7.29h-2.49v-8.04c0-1.94-.7-2.98-2.11-2.98-1.16,0-2.62,1.04-3.42,2.67.05.34.07.7.07,1.06v7.29h-2.49v-8.04c0-1.94-.73-2.98-2.13-2.98-1.22,0-2.78,1.22-3.53,3.01v8.01h-2.52v-12.11h2.52Z"></path>
  <path class="st0" d="M52.09,22.23h-3.73c-3.19,0-3.69,4.6-.29,4.6,1.67,0,3.03-1.24,4.02-2.74v-1.86ZM46.5,20.12c-.84,0-1.45-.56-1.45-1.45,0-1.18,1.45-2.45,4.5-2.45,3.6,0,4.96,1.24,4.96,5.09v7.27h-2.42v-3.71c-1.09,2.25-2.59,3.94-4.55,3.94-2.28,0-4.16-1.26-4.16-3.83,0-2.06,1.63-3.29,4.91-3.29h3.8v-2.49c0-1.7-1.09-2.52-2.22-2.52-1.33,0-2.74,1.11-2.54,3.26-.29.12-.58.16-.82.16"></path>
  <path class="st0" d="M56.34,16.47h2.52v4.23c.58-2.01,2.18-4.31,3.8-4.31,2.18,0,2.52,2.4,1.02,3.29-.48-.73-1.11-1.04-1.77-1.04-1.5,0-3.05,1.65-3.05,4.07v5.86h-2.52s0-12.11,0-12.11Z"></path>
  <path class="st0" d="M73.46,22.23h-3.73c-3.19,0-3.69,4.6-.29,4.6,1.67,0,3.03-1.24,4.02-2.74v-1.86ZM67.87,20.12c-.84,0-1.45-.56-1.45-1.45,0-1.18,1.45-2.45,4.5-2.45,3.6,0,4.96,1.24,4.96,5.09v7.27h-2.42v-3.71c-1.09,2.25-2.59,3.94-4.55,3.94-2.28,0-4.16-1.26-4.16-3.83,0-2.06,1.63-3.29,4.91-3.29h3.8v-2.49c0-1.7-1.09-2.52-2.22-2.52-1.33,0-2.74,1.11-2.54,3.26-.29.12-.58.16-.82.16"></path>
  <path class="st0" d="M80.2,23.26c0,1.26,1.67,3.94,3.78,3.94,5.01,0,4.73-10.21-2.25-10.21h-1.52v6.27h-.01ZM80.2,11.6v4.87h3.15c8.89,0,8.38,12.34,1.65,12.34-2.28,0-3.99-2.11-4.8-3.97v3.73h-2.49V11.6s2.49,0,2.49,0Z"></path>
  <path class="st0" d="M101.54,22.03c.22-2.83-1.67-5.14-4.26-5.14-2.3,0-3.42,2.54-3.15,5.14h7.41ZM104.11,24.55c-1.09,2.62-2.59,4.26-5.55,4.26-3.56,0-6.7-2.25-6.7-6.27s3.15-6.27,6.7-6.27c3.24,0,5.52,2.64,5.52,5.39v.9h-9.87c.43,2.52,2.18,4.91,5.37,4.91,1.43,0,3.51-1.26,4.09-3.08l.43.14h0Z"></path>
  <path class="st0" d="M114.65,22.23h-3.73c-3.19,0-3.69,4.6-.29,4.6,1.67,0,3.03-1.24,4.02-2.74v-1.86ZM109.06,20.12c-.84,0-1.45-.56-1.45-1.45,0-1.18,1.45-2.45,4.5-2.45,3.6,0,4.96,1.24,4.96,5.09v7.27h-2.42v-3.71c-1.09,2.25-2.59,3.94-4.55,3.94-2.28,0-4.16-1.26-4.16-3.83,0-2.06,1.63-3.29,4.91-3.29h3.8v-2.49c0-1.7-1.09-2.52-2.22-2.52-1.33,0-2.74,1.11-2.54,3.26-.29.12-.58.16-.82.16"></path>
  <path class="st3" d="M46.29,31.26v2.56c.78-1.45,2.01-2.68,3.5-2.68,1.65,0,2.66.98,2.98,2.62.78-1.44,2.01-2.62,3.49-2.62,2.08,0,3.11,1.56,3.11,4.04v5.92h-2.02v-6.53c0-1.57-.57-2.42-1.71-2.42-.95,0-2.13.84-2.77,2.16.04.28.06.57.06.87v5.92h-2.02v-6.53c0-1.57-.58-2.42-1.73-2.42-.98,0-2.26.98-2.87,2.43v6.5h-2.05v-9.84h2.05-.01Z"></path>
  <path class="st3" d="M67.93,35.94h-3.03c-2.6,0-2.98,3.73-.23,3.73,1.36,0,2.46-1.01,3.26-2.22,0,0,0-1.51,0-1.51ZM63.39,34.22c-.69,0-1.18-.46-1.18-1.18,0-.96,1.18-1.99,3.66-1.99,2.94,0,4.04,1.01,4.04,4.13v5.9h-1.97v-3.01c-.89,1.83-2.11,3.21-3.7,3.21-1.85,0-3.38-1.02-3.38-3.11,0-1.67,1.32-2.68,3.99-2.68h3.09v-2.02c0-1.38-.89-2.05-1.81-2.05-1.08,0-2.22.9-2.07,2.66-.23.09-.47.14-.67.14"></path>
  <path class="st3" d="M73.43,31.26v2.68c.83-1.51,2.16-2.8,3.7-2.8,2.08,0,3.11,1.56,3.11,4.04v5.92h-2.02v-6.53c0-1.57-.57-2.42-1.71-2.42-1.02,0-2.43,1.02-3.07,2.54v6.41h-2.05v-9.84h2.05-.01Z"></path>
  <path class="st3" d="M88.46,31.7c-5.66,0-5.9,8.29-1.83,8.29,1.71,0,3.07-2.19,3.07-3.21v-5.09s-1.24,0-1.24,0ZM91.72,41.09h-2.02v-3.03c-.64,1.51-2.02,3.23-3.9,3.23-5.46,0-5.88-10.03,1.33-10.03h2.56v-2.45h2.02v12.28h0Z"></path>
  <path class="st3" d="M95.23,41.09h-2.02v-8.66h2.02v8.66ZM93.23,31.85l-.02-.2c1.04-.49,1.51-1.99.61-2.83,2.49-.15,2.87,2.34-.58,3.03"></path>
  <path class="st3" d="M41.5,11.49c-.08.08-.43.49-1.04,1.25l1.46,1.33h.05v-.05c.27-.3.58-.7.96-1.2-.54-.57-1.02-1.03-1.42-1.33"></path>
  <path class="st3" d="M39.27,10.86h.08c1.49,0,4.15-.14,8.05-.37.09,0,.74-.6,1.92-1.79v-.13l-.05-.08c-5.19.22-8.31.33-9.3.34-1.45,0-2.75-.13-3.92-.37-.41-.12-.71-.28-.88-.46,0-.12.08-.25.25-.37,1.45-.56,2.41-1.11,2.88-1.63.35-.53.61-.8.8-.8.28,0,.57.58.91,1.79h.25c.34-.75.5-1.36.5-1.79v-.42c-.11-1.09-.43-1.63-.96-1.63h-.05c-.22,0-.48.13-.75.37-.34.5-.63.88-.88,1.12-.39.28-1.19.7-2.42,1.3-1.36,1.1-2.05,2.16-2.05,3.21v.13c0,.13.04.27.13.42.46.78,1.84,1.16,4.18,1.17h.37"></path>
  <path class="st3" d="M39,11.49s-.34.44-1.01,1.25v.08c.22.13.7.54,1.46,1.25.47-.53.8-.95,1.01-1.25-.64-.68-1.13-1.13-1.46-1.33"></path>
  <path class="st3" d="M59.74,6.46v-.05c-.6-.61-1.08-1.01-1.46-1.2l-.91,1.29v.08c.2.09.69.46,1.46,1.09.47-.42.78-.82.91-1.2"></path>
  <path class="st3" d="M63.28,8.15s.05-.11.11-.2c.06-.11.15-.2.28-.3.13-.09.28-.15.47-.15.23,0,.44.07.66.2.21.14.37.32.5.55.14.27.23.56.29.88-.61-.18-1.38-.5-2.29-.98M57.1,8.79l-.22-.02c-.13,0-.26-.04-.37-.07-.41-.12-.74-.46-.97-.98-.11-.51-.2-.99-.29-1.43-.09-.44-.18-.84-.26-1.2-.15-.71-.28-1.25-.37-1.61-.05-.5-.16-.76-.33-.75-.19.21-.53.68-1.01,1.42.61,1.97.91,3.15.91,3.59,0,.12-.08.26-.25.46-.67.39-1.28.6-1.8.63h-1.08c-.75.39-1.13,1.15-1.15,2.27.34-.14,1.1-.2,2.27-.14.62-.08,1.18-.29,1.68-.6.04-.02.07-.05.11-.07.44-.43.67-.82.67-1.12h.05c0,.11.05.27.16.5.32.68.83,1.09,1.53,1.23.19.04.39.06.6.06h.08s.51,0,.6-.01l1.4-.02c.08,0,.18.01.27.01h1.17c.49,0,.88-.04,1.18-.12.09-.02.18-.05.25-.08.33-.13.57-.42.74-.87.42.27.84.47,1.28.61.43.13.95.23,1.57.29l.61-1.12c.07-.27.12-.61.12-.99,0-.23-.01-.48-.05-.71-.08-.53-.25-.92-.47-1.2-.28-.37-.64-.57-1.09-.57-.51,0-.96.26-1.36.76-.18.2-.36.51-.55.95l-.25-.15c-.08.19-.18.34-.25.47-.08.13-.16.26-.26.37-.19.22-.46.33-.8.33h-.37c-.11-.01-.23-.02-.36-.02h-1.64"></path>
  <path class="st3" d="M92.34,13.39v.05c.32-.09.85-.62,1.65-1.54.47-.84.7-1.64.71-2.35v-2.8c0-1.79-.08-3.73-.22-5.79-.06,0-.14-.05-.23-.11l-1.24,1.5c.23,3.16.35,5.6.35,7.34,0,1.54-.35,2.7-1.06,3.5,0,.08,0,.13.05.2"></path>
  <path class="st3" d="M86.78,11.6l-.91,1.3v.08c.19.09.69.46,1.46,1.09.47-.42.78-.82.91-1.2v-.05c-.6-.61-1.08-1.01-1.46-1.2"></path>
  <path class="st3" d="M103.4,8.18s.05-.11.11-.2c.06-.11.15-.2.27-.29.12-.09.27-.15.46-.14.22,0,.43.07.64.2.2.13.37.32.5.54.14.27.23.55.29.87-.6-.18-1.36-.49-2.27-.96M106.28,7.94c-.08-.51-.25-.91-.47-1.19-.28-.37-.64-.56-1.08-.56-.5,0-.95.25-1.33.76-.18.19-.35.5-.55.94l-.25-.14c-.08.19-.16.34-.25.47-.07.13-.16.25-.26.37-.19.21-.44.32-.78.32h-2.43c-.39,0-.77-.13-1.13-.39-.2-.15-.36-.3-.47-.46-.12-.15-.19-.25-.2-.27-.37.39-.74.9-1.09,1.54.26.25.44.43.57.55.13.13.26.33.42.61.16.28.25.58.25.91,0,.37-.13.7-.39.99s-.67.6-1.22.95c-.55.37-1.13.73-1.75,1.06-.44.23-.75.4-.9.48h3.8c.3-.23.58-.61.85-1.11.28-.54.46-1.04.54-1.52s.12-.98.12-1.52c.04,0,.12.04.27.09.15.05.33.07.55.07h1.57c.62,0,1.09-.07,1.42-.19.32-.13.56-.41.73-.85.42.27.83.47,1.26.6.42.13.94.22,1.54.29l.6-1.11c.07-.27.11-.6.12-.98,0-.23-.01-.47-.05-.7"></path>
  <path class="st3" d="M68.47,14.87c-.13-.09-.23-.19-.34-.29-.43-.47-.66-1.03-.66-1.7,0-.75.23-1.42.7-2,.47-.62,1.09-1.08,1.86-1.36.23.39.44.66.61.8.2.2.41.34.66.42s.54.13.89.13h8.43c.5,0,.9-.14,1.23-.42.18-.14.32-.32.42-.54.05.18.16.35.37.54.35.28.8.42,1.36.42h5.52c.84,0,1.49-.34,1.91-1.01.37-.58.55-1.2.55-1.86,0-.94-.35-1.79-1.06-2.56-.2.21-.37.42-.51.66-.15.23-.3.51-.47.84l1.09,1.16c-.12.18-.3.34-.55.5-.25.15-.53.23-.84.23h-5.87c-.5,0-.87-.13-1.08-.37-.16-.2-.25-.49-.25-.9,0-.12,0-.21.01-.28,0-.07.01-.12.01-.15l-.67.28c-.04.32-.15.63-.34.95-.2.32-.55.47-1.04.47h-8.47c-.15,0-.32-.05-.49-.13.22-.19.42-.4.61-.63.19-.23.28-.47.28-.71,0-.36-.18-.66-.54-.88-.36-.23-.88-.34-1.53-.34-.54,0-1.12.16-1.73.49-.14.35-.26.82-.33,1.42.39.09.75.3,1.11.62-.39.19-.74.4-1.03.66-.55.41-.98.91-1.32,1.5-.53.84-.78,1.77-.78,2.81,0,.43.06.84.19,1.24h2.09Z"></path>
  <path class="st3" d="M75.62,11.49c-.08.08-.43.49-1.04,1.25l1.46,1.33h.05v-.05c.27-.3.58-.7.96-1.2-.54-.57-1.02-1.03-1.42-1.33"></path>
  <path class="st3" d="M73.11,11.49s-.34.44-1.01,1.25v.08c.22.13.7.54,1.46,1.25.47-.53.8-.95,1.01-1.25-.64-.68-1.13-1.13-1.46-1.33"></path>
  <rect class="st1" x="22.92" y=".87" width="94.15" height="48.28"></rect>
  <path class="st0" d="M32.94,46.99l.41,1.15h-.82s.41-1.15.41-1.15ZM32.7,46.34l-1.01,2.77h.48l.21-.6h1.1l.21.6h.48l-1.01-2.77h-.48.01Z"></path>
  <g class="st6">
    <path class="st0" d="M37.3,48.08c0,.22-.06.39-.16.49-.11.11-.26.15-.44.15s-.34-.06-.46-.15c-.11-.11-.16-.27-.16-.49v-1.75h-.46v1.74c0,.23.05.43.14.58.09.16.22.28.39.36.16.08.34.12.54.12s.37-.04.54-.12.29-.2.39-.36c.09-.16.14-.36.14-.6v-1.74h-.46v1.75h.01Z"></path>
  </g>
  <polygon class="st0" points="39.23 46.33 39.23 46.72 39.96 46.72 39.96 49.12 40.41 49.12 40.41 46.72 41.15 46.72 41.15 46.33 39.23 46.33"></polygon>
  <polygon class="st0" points="44.34 46.33 44.34 47.5 43.09 47.5 43.09 46.33 42.64 46.33 42.64 49.12 43.09 49.12 43.09 47.9 44.34 47.9 44.34 49.12 44.8 49.12 44.8 46.33 44.34 46.33"></polygon>
  <polygon class="st0" points="46.45 46.32 46.45 49.12 48.01 49.12 48.01 48.72 46.91 48.72 46.91 47.9 47.89 47.9 47.89 47.51 46.91 47.51 46.91 46.72 48.01 46.72 48.01 46.32 46.45 46.32"></polygon>
  <polygon class="st0" points="51.34 46.32 51.34 48.33 50.02 46.32 49.59 46.32 49.59 49.12 50.04 49.12 50.04 47.11 51.36 49.12 51.8 49.12 51.8 46.32 51.34 46.32"></polygon>
  <polygon class="st0" points="53.28 46.33 53.28 46.72 54.02 46.72 54.02 49.12 54.48 49.12 54.48 46.72 55.2 46.72 55.2 46.33 53.28 46.33"></polygon>
  <rect class="st0" x="56.69" y="46.33" width=".46" height="2.78"></rect>
  <g class="st2">
    <path class="st0" d="M60.83,48.26c-.07.15-.18.27-.3.35-.13.08-.29.12-.48.12s-.34-.05-.48-.13-.25-.2-.33-.35-.12-.33-.12-.54.04-.39.12-.54c.08-.15.19-.27.33-.35s.3-.13.48-.13.34.05.48.13c.13.08.23.2.3.35v.04h.55l-.02-.07c-.11-.27-.27-.48-.5-.63-.22-.14-.49-.22-.8-.22-.26,0-.49.06-.7.19-.21.12-.39.29-.5.51-.12.21-.19.47-.19.74s.06.51.19.73c.12.21.29.39.5.5s.44.19.7.19c.3,0,.57-.07.8-.22.22-.14.4-.35.5-.62l.02-.07h-.53v.04h-.02Z"></path>
  </g>
  <polygon class="st0" points="66.61 46.33 65.98 47.62 65.36 46.33 64.84 46.33 65.75 48.06 65.75 49.12 66.21 49.12 66.21 48.06 67.12 46.33 66.61 46.33"></polygon>
  <polygon class="st0" points="68.5 46.32 68.5 49.12 70.06 49.12 70.06 48.72 68.96 48.72 68.96 47.9 69.94 47.9 69.94 47.51 68.96 47.51 68.96 46.72 70.06 46.72 70.06 46.32 68.5 46.32"></polygon>
  <polygon class="st0" points="74 46.34 73.05 48.47 72.11 46.34 71.64 46.34 71.64 49.12 72.09 49.12 72.09 47.33 72.89 49.12 73.21 49.12 74.01 47.33 74.01 49.12 74.47 49.12 74.47 46.34 74 46.34"></polygon>
  <polygon class="st0" points="76.11 46.32 76.11 49.12 77.66 49.12 77.66 48.72 76.56 48.72 76.56 47.9 77.55 47.9 77.55 47.51 76.56 47.51 76.56 46.72 77.66 46.72 77.66 46.32 76.11 46.32"></polygon>
  <polygon class="st0" points="81 46.32 81 48.33 79.67 46.32 79.24 46.32 79.24 49.12 79.7 49.12 79.7 47.11 81.02 49.12 81.45 49.12 81.45 46.32 81 46.32"></polygon>
  <rect class="st0" x="83.1" y="46.33" width=".46" height="2.78"></rect>
  <g class="st5">
    <g>
      <path class="st0" d="M89.43,48.26c-.07.15-.18.27-.3.35s-.29.12-.48.12-.34-.05-.48-.13-.25-.2-.33-.35-.12-.33-.12-.54.04-.39.12-.54c.08-.15.19-.27.33-.35.14-.08.3-.13.48-.13s.34.05.48.13c.13.08.23.2.3.35v.04h.55l-.02-.07c-.11-.27-.27-.48-.5-.63-.22-.14-.49-.22-.8-.22-.26,0-.49.06-.7.19-.21.12-.39.29-.5.51s-.19.47-.19.74.06.51.19.73c.12.21.29.39.5.5s.44.19.7.19c.3,0,.57-.07.8-.22.22-.14.4-.35.5-.62l.02-.07h-.53v.04h-.02Z"></path>
      <path class="st0" d="M93.18,48.08c0,.22-.06.39-.16.49-.11.11-.26.15-.44.15s-.34-.06-.44-.15c-.11-.11-.16-.27-.16-.49v-1.75h-.46v1.74c0,.23.05.43.14.58.09.16.22.28.39.36s.34.12.54.12.37-.04.54-.12.29-.2.39-.36c.09-.16.14-.36.14-.6v-1.74h-.46v1.75h0Z"></path>
    </g>
  </g>
  <rect class="st0" x="95.27" y="46.33" width=".46" height="2.78"></rect>
  <g class="st4">
    <path class="st0" d="M98.8,47.67c-.11-.05-.26-.09-.43-.15-.14-.04-.26-.08-.34-.11-.07-.02-.14-.07-.19-.13-.05-.05-.07-.12-.07-.2,0-.12.04-.21.12-.28s.19-.11.33-.11.26.04.34.11.13.15.14.23v.05h.49v-.06c-.02-.22-.13-.4-.29-.54-.16-.13-.39-.2-.66-.2-.19,0-.34.04-.49.09-.14.07-.26.16-.34.28-.08.12-.12.26-.12.42,0,.18.05.33.13.43s.18.19.29.23c.11.05.26.09.43.14.14.04.26.07.34.11s.14.07.19.13.07.13.07.21c0,.12-.05.21-.13.28s-.21.12-.36.12-.28-.04-.36-.12-.13-.18-.14-.28v-.05h-.48v.06c0,.15.05.29.13.42.08.12.2.21.35.28.14.07.32.09.5.09s.36-.04.5-.12c.14-.07.26-.18.33-.3.07-.13.12-.26.12-.4,0-.18-.05-.33-.13-.43s-.19-.19-.29-.23"></path>
  </g>
  <rect class="st0" x="100.79" y="46.33" width=".46" height="2.78"></rect>
  <polygon class="st0" points="104.65 46.32 104.65 48.33 103.33 46.32 102.9 46.32 102.9 49.12 103.35 49.12 103.35 47.11 104.68 49.12 105.11 49.12 105.11 46.32 104.65 46.32"></polygon>
  <polygon class="st0" points="106.76 46.32 106.76 49.12 108.3 49.12 108.3 48.72 107.21 48.72 107.21 47.9 108.19 47.9 108.19 47.51 107.21 47.51 107.21 46.72 108.3 46.72 108.3 46.32 106.76 46.32"></polygon>
</svg>
