<?xml version="1.0" encoding="UTF-8"?> <svg xmlns="http://www.w3.org/2000/svg" xmlns:xlink="http://www.w3.org/1999/xlink" version="1.1" id="Calque_1" x="0px" y="0px" viewBox="0 0 532.07 190.24" style="enable-background:new 0 0 532.07 190.24;" xml:space="preserve"> <style type="text/css"> .st0{fill:#C9AB81;} .st1{fill-rule:evenodd;clip-rule:evenodd;fill:#C9AB81;} .st2{fill-rule:evenodd;clip-rule:evenodd;fill:none;stroke:#C9AB81;stroke-width:0.75;stroke-miterlimit:10;} </style> <g> <path class="st0" d="M44.31,97.44h26.45l22.66,71.36H71.75l-3.8-13.27H44.31l-3.79,13.27H21.45L44.31,97.44z M48.3,141.46h15.67 l-7.79-27.45L48.3,141.46z"></path> <path class="st0" d="M100.51,93.65h17.77v75.15h-17.77V93.65z"></path> <path class="st0" d="M150.61,97.44h26.64l13.67,38.03l13.67-38.03h26.15v71.36h-20.36v-44.41l-17.47,44.41h-6.79l-17.27-44.41 v44.41h-18.26V97.44z"></path> <path class="st0" d="M239.55,154.33c0-12.28,10.38-17.07,27.74-17.07h4.99v-1.2c0-4.99-1.2-8.28-6.89-8.28 c-4.89,0-6.69,2.89-7.09,6.19h-16.77c0.8-12.58,10.68-18.76,24.95-18.76c14.37,0,23.56,5.89,23.56,19.76v33.83h-17.37v-6.09 c-2.5,3.79-7.09,7.29-15.47,7.29C247.84,170,239.55,165.41,239.55,154.33z M272.29,150.54v-3.2h-4.69c-7.19,0-10.38,1.4-10.38,5.69 c0,2.99,2,4.89,6.19,4.89C268.49,157.92,272.29,155.03,272.29,150.54z"></path> <path class="st0" d="M300.24,116.6h17.86v8.38c2.79-5.39,8.48-9.78,17.17-9.78c10.08,0,17.07,6.29,17.07,19.66v33.93h-17.86v-30.34 c0-5.89-2.3-8.78-7.49-8.78c-5.29,0-8.88,3.19-8.88,9.88v29.24h-17.86V116.6z"></path> <path class="st0" d="M359.53,154.33c0-12.28,10.38-17.07,27.75-17.07h4.99v-1.2c0-4.99-1.2-8.28-6.89-8.28 c-4.89,0-6.69,2.89-7.09,6.19h-16.77c0.8-12.58,10.68-18.76,24.95-18.76c14.37,0,23.55,5.89,23.55,19.76v33.83h-17.36v-6.09 c-2.5,3.79-7.09,7.29-15.47,7.29C367.82,170,359.53,165.41,359.53,154.33z M392.27,150.54v-3.2h-4.69c-7.19,0-10.38,1.4-10.38,5.69 c0,2.99,2,4.89,6.19,4.89C388.47,157.92,392.27,155.03,392.27,150.54z"></path> <path class="st0" d="M420.22,116.6h17.86v10.38c3.29-7.79,8.78-11.18,16.87-11.08v16.67c-10.88-0.3-16.87,3.09-16.87,11.48v24.75 h-17.86V116.6z"></path> <path class="st0" d="M458.95,154.33c0-12.28,10.38-17.07,27.75-17.07h4.99v-1.2c0-4.99-1.2-8.28-6.88-8.28 c-4.89,0-6.69,2.89-7.09,6.19h-16.77c0.8-12.58,10.68-18.76,24.95-18.76c14.37,0,23.55,5.89,23.55,19.76v33.83h-17.36v-6.09 c-2.5,3.79-7.09,7.29-15.47,7.29C467.23,170,458.95,165.41,458.95,154.33z M491.68,150.54v-3.2H487c-7.19,0-10.38,1.4-10.38,5.69 c0,2.99,2,4.89,6.19,4.89C487.89,157.92,491.68,155.03,491.68,150.54z"></path> </g> <g> <g> <path class="st1" d="M285.56,84.77c-1.41,0.27-2.71,0.31-3.97-0.26c-1.04-0.47-2.04-1.04-3.1-1.45c-1.26-0.49-2.57-0.85-3.86-1.27 c-0.05,0.05-0.1,0.1-0.14,0.16c0.36,0.89,0.72,1.77,1.09,2.66c-0.02,0.04-0.04,0.07-0.06,0.11c-0.72-0.28-1.46-0.53-2.17-0.86 c-1.1-0.51-2-1.3-2.9-2.09c-1.08-0.95-2.26-1.73-3.7-2c-1.68-0.31-3.29,0-4.85,0.65c-0.41,0.17-0.83,0.33-1.21,0.56 c-1.9,1.16-4.04,1.73-6.08,2.55c-1.42,0.56-2.87,1.08-4.3,1.61c-0.19,0.07-0.39,0.14-0.58,0.21c-0.03-0.03-0.06-0.05-0.1-0.08 c0.29-0.44,0.55-0.91,0.88-1.32c0.91-1.16,2.14-1.94,3.41-2.64c1.25-0.69,2.54-1.34,3.74-2.11c1.82-1.16,3.05-2.81,3.56-4.92 c0.25-1.02-0.11-1.93-0.87-2.65c-0.9-0.85-1.89-1.24-3.16-0.81c-2.25,0.76-4.52,1.5-6.81,2.12c-1.36,0.37-2.78,0.52-4.19,0.68 c-1,0.12-2.02,0.13-3.04,0.16c-0.62,0.02-1.25-0.01-1.88-0.05c-0.1,0-0.25-0.17-0.26-0.27c-0.04-0.55-0.05-1.11-0.08-1.67 c-0.01-0.24,0.06-0.33,0.32-0.37c1.92-0.31,3.82-0.73,5.65-1.41c2.17-0.81,4.15-1.95,6.04-3.29c0.06-0.04,0.09-0.12,0.1-0.3 c-0.55,0.04-1.11,0.08-1.66,0.14c-1.44,0.15-2.64,0.9-3.9,1.53c-1.27,0.64-2.54,1.28-3.99,1.39c-1.24,0.1-2.47,0.05-3.7-0.15 c-0.67-0.11-1.34-0.24-2.01-0.35c-0.23-0.04-0.5-0.06-0.52-0.37c-0.03-0.33-0.16-0.71,0.22-0.96c0.63-0.41,1.26-0.82,1.91-1.2 c1.74-1.03,3.47-2.07,5.23-3.04c1.82-0.99,3.68-1.91,5.52-2.88c0.23-0.12,0.55-0.33,0.56-0.51c0.02-0.48,0.22-1.03-0.28-1.44 c-0.22-0.18-0.39-0.14-0.6-0.05c-1.03,0.42-2.05,0.88-3.1,1.24c-0.61,0.21-1.27,0.33-1.91,0.37c-1.06,0.08-1.78-0.51-2.2-1.42 c-0.53-1.14-0.48-0.87,0.45-1.43c1.44-0.88,2.87-1.77,4.34-2.59c1.14-0.64,2.34-1.16,3.49-1.79c0.91-0.5,1.76-1.07,2.22-2.07 c0.4-0.89,0.34-1.79,0.1-2.69c-0.02-0.1-0.28-0.21-0.42-0.2c-0.8,0.08-1.6,0.19-2.4,0.29c-1.02,0.12-2.03,0.24-3.05,0.36 c-0.03,0-0.05-0.03-0.12-0.06c0.28-0.67,0.7-1.25,1.17-1.8c0.76-0.9,1.77-1.43,2.81-1.93c1.71-0.81,3.16-2.02,4.74-3.04 c0.68-0.44,1.39-0.82,2.07-1.25c0.6-0.39,1.19-0.81,1.76-1.26c0.14-0.11,0.16-0.38,0.23-0.57c-0.21-0.04-0.43-0.17-0.61-0.11 c-0.54,0.17-1.08,0.36-1.59,0.62c-0.41,0.21-0.5-0.13-0.72-0.29c-0.23-0.16-0.16-0.33-0.05-0.54c0.77-1.48,1.99-2.44,3.46-3.15 c0.4-0.19,0.78-0.4,1.26-0.65c-0.3-0.2-0.52-0.34-0.72-0.49c-0.56-0.41-0.63-0.84-0.08-1.3c1.07-0.91,2.17-1.79,3.3-2.61 c1.3-0.94,2.64-1.82,3.46-3.26c0.27-0.48,0.53-0.98,0.86-1.57c0.84,0.54,1.72,1.01,2.49,1.63c0.75,0.6,1.39,1.32,2.05,2.02 c1.15,1.24,2.6,1.98,4.18,2.5c1.56,0.52,3.13,1,4.66,1.58c1.96,0.75,3.61,1.92,4.65,3.81c0.09,0.16,0.16,0.32,0.27,0.54 c-1.17,0.24-2.3,0.48-3.42,0.71c-0.01,0.05-0.03,0.1-0.04,0.14c2.41,0.61,4.54,1.61,5.86,3.96c-0.83-0.25-1.57-0.48-2.32-0.71 c-1.38-0.41-2.76-0.86-4.16-1.22c-0.52-0.13-1.09-0.09-1.64-0.03c-0.18,0.02-0.43,0.29-0.48,0.48c-0.04,0.16,0.14,0.45,0.3,0.56 c1.75,1.2,3.52,2.4,5.3,3.56c1.63,1.06,3.29,2.1,4.96,3.09c1.09,0.65,2.24,1.18,3.35,1.79c0.71,0.39,1.38,0.85,1.84,1.55 c0.08,0.12,0.14,0.25,0.25,0.45c-0.23,0.02-0.38,0.05-0.52,0.04c-1.63-0.05-3.26-0.05-4.88-0.2c-0.84-0.08-1.67-0.37-2.49-0.63 c-0.52-0.17-1.3,0.22-1.32,0.78c0,0.11,0.22,0.3,0.37,0.34c1.12,0.34,2.24,0.68,3.37,0.98c2.12,0.58,4.24,1.14,6.37,1.7 c0.26,0.07,0.33,0.18,0.34,0.43c0.01,0.76,0.02,0.77-0.57,0.84c-0.54,0.07-1.07,0.12-1.61,0.19c-1.36,0.16-2.73,0.32-4.09,0.48 c-1.05,0.12-2.09,0.23-3.14,0.35c-0.24,0.03-0.49,0.08-0.74,0.21c0.19,0.03,0.37,0.09,0.56,0.09c3.24,0.02,6.06,1.17,8.52,3.23 c1.34,1.11,2.67,2.23,4.01,3.34c0.39,0.32,0.22,0.76,0.19,1.13c-0.01,0.12-0.37,0.26-0.58,0.3c-1.35,0.31-2.7,0.4-4.04-0.01 c-0.5-0.15-1-0.35-1.48-0.56c-1.19-0.5-2.29-0.23-3.35,0.36c-0.32,0.17-0.62,0.36-0.93,0.55c0.01,0.05,0.03,0.1,0.04,0.16 c0.19,0.06,0.38,0.13,0.57,0.19c3.49,1.1,6.75,2.63,9.56,4.99c0.99,0.83,1.89,1.78,2.51,2.93c0.04,0.07,0.07,0.15,0.14,0.33 c-0.67,0.11-1.3,0.25-1.94,0.32c-1.7,0.2-3.21-0.43-4.73-1.1c-2.14-0.94-4.31-1.83-6.6-2.33c-0.86-0.19-1.76-0.32-2.64-0.3 c-2.17,0.03-4.25-0.36-6.29-1.07c-0.25-0.09-0.51-0.15-0.76-0.22c-1.52-0.47-3.01,0.55-3.22,2.14c-0.22,1.63,0.19,3.13,0.81,4.58 c0.42,1,0.89,2.01,1.53,2.86c0.6,0.8,1.41,1.46,2.22,2.07c1.19,0.91,2.3,1.88,3.33,2.97C285.26,84.39,285.38,84.54,285.56,84.77z M257.22,56.08c-1.77,0.11-3.48,0.57-5.18,1.01c-0.32,0.08-0.43,0.38-0.27,0.66c0.19,0.33,0.45,0.63,0.65,0.96 c0.2,0.32,0.47,0.46,0.84,0.42c1.49-0.14,2.94-0.46,4.26-1.2c0.29-0.16,0.57-0.38,0.75-0.64c0.15-0.21,0.25-0.57,0.18-0.79 c-0.07-0.19-0.4-0.32-0.65-0.42C257.63,56.03,257.41,56.08,257.22,56.08z M288.41,61.27c-1.25,0-1.85,0.22-2.31,0.66 c-0.24,0.23-0.31,0.46-0.19,0.78c0.49,1.43,2.37,2.46,3.82,2.08c0.59-0.16,1.04-0.49,1.2-1.1c0.16-0.6-0.06-1.09-0.51-1.5 C289.74,61.57,288.93,61.28,288.41,61.27z M282.93,62.69c0.73-0.1,1.42-0.12,2.07-0.3c0.69-0.19,0.88-0.81,0.55-1.43 c-0.23-0.44-0.61-0.68-1.05-0.84c-0.73-0.28-1.49-0.29-2.26-0.17c-0.9,0.14-1.77,0.37-2.55,0.85c-0.28,0.17-0.53,0.42-0.39,0.74 c0.09,0.22,0.35,0.46,0.58,0.51C280.89,62.29,281.93,62.48,282.93,62.69z M254.95,46.97c-0.57,0.17-0.76,0.51-0.54,1.06 c0.26,0.65,0.59,1.28,0.97,1.87c0.34,0.53,0.75,0.66,1.29,0.34c0.77-0.44,1.48-0.98,2.18-1.52c0.14-0.11,0.27-0.43,0.21-0.58 c-0.2-0.51-0.45-1.02-0.76-1.47c-0.13-0.19-0.45-0.26-0.69-0.39 M262.75,64.62c-0.07-0.7-0.27-1.32-0.79-1.74 c-0.52-0.43-1.1-0.79-1.69-1.13c-0.37-0.21-0.8-0.31-1.17,0.01c-0.37,0.33-0.25,0.76-0.17,1.17c0.02,0.07,0.03,0.14,0.07,0.2 c0.46,0.84,0.9,1.69,1.4,2.5c0.24,0.39,0.6,0.73,0.96,1.03c0.34,0.29,0.76,0.18,0.89-0.2C262.45,65.85,262.59,65.23,262.75,64.62z M261.75,44.06c0.21-0.09,0.56-0.17,0.84-0.36c0.89-0.62,1.75-1.29,2.63-1.91c0.39-0.27,0.57-0.64,0.6-1.09 c0.03-0.39-0.05-0.76-0.41-0.99c-0.3-0.19-0.63-0.3-0.94-0.05c-0.9,0.71-1.83,1.41-2.67,2.19c-0.37,0.34-0.61,0.86-0.81,1.34 C260.83,43.63,261.17,44.05,261.75,44.06z M278.87,47.94c0.2-0.03,0.51-0.04,0.8-0.11c0.6-0.15,0.77-0.43,0.65-1.04 c-0.1-0.52-0.39-0.94-0.8-1.28c-1.07-0.9-2.83-0.41-3.62,0.38c-0.4,0.38-0.33,0.97,0.14,1.3 C276.85,47.78,277.8,47.88,278.87,47.94z M272.67,55.1c-0.09-0.44-0.15-0.91-0.31-1.33c-0.12-0.31-0.33-0.63-0.58-0.84 c-0.55-0.46-1.26-0.37-1.99,0.18c-0.68,0.52-0.77,1.32-0.21,1.97c0.45,0.53,1.02,0.85,1.67,1.05 C272.28,56.44,272.63,56.18,272.67,55.1z M268.7,62.69c-0.83,0-1.07,0.18-1.13,0.78c-0.04,0.38-0.02,0.79,0.07,1.15 c0.31,1.21,1.28,1.69,2.44,1.24c0.75-0.29,1.05-0.96,0.69-1.68C270.3,63.25,269.51,62.77,268.7,62.69z M267.96,46.35 c0,0.01,0,0.02,0,0.02c0.36-0.04,0.72-0.05,1.07-0.13c0.72-0.16,1.45-0.32,2-0.85c0.55-0.53,0.33-1.34-0.41-1.52 c-0.21-0.05-0.46-0.09-0.65-0.02c-0.74,0.25-1.48,0.54-2.21,0.84c-0.25,0.1-0.52,0.24-0.7,0.43c-0.17,0.19-0.33,0.5-0.28,0.71 c0.05,0.2,0.36,0.37,0.59,0.48C267.54,46.38,267.76,46.34,267.96,46.35z M261.32,44.97c0-0.02-0.01-0.03-0.02-0.05 c-0.46,0.12-0.94,0.22-1.39,0.38c-0.38,0.14-0.65,0.42-0.71,0.86c-0.13,0.96,0.93,1.93,1.87,1.71c0.74-0.17,1.18-0.7,1.53-1.32 c0.45-0.82,0.16-1.38-0.77-1.5C261.65,45.01,261.49,44.99,261.32,44.97z M269.69,39.85c0.21-0.17,0.41-0.38,0.56-0.6 c0.31-0.52,0.11-1.13-0.37-1.23c-1.14-0.24-2.89,0.58-3.44,1.61c-0.19,0.35-0.14,0.59,0.22,0.75 M285.93,51.05 c0.01-0.04,0.02-0.08,0.03-0.13c0.14,0,0.28,0.02,0.42,0c0.5-0.05,0.73-0.51,0.44-0.91c-0.48-0.67-2.04-1.52-3.21-1.03 c-0.46,0.19-0.61,0.54-0.35,0.97c0.13,0.2,0.33,0.42,0.54,0.49C284.49,50.68,285.21,50.85,285.93,51.05z M275.25,45.02 c-0.08-0.67-0.71-1.2-1.33-1.12c-0.93,0.12-1.88,1.11-1.98,2.06c-0.03,0.3,0.12,0.52,0.43,0.48c0.84-0.09,1.69-0.24,2.39-0.76 C274.97,45.52,275.09,45.24,275.25,45.02z M264.14,64.34c0.05,0.69,0.21,1.3,0.78,1.72c0.5,0.37,1.21,0.13,1.32-0.47 c0.16-0.9-0.12-1.72-0.7-2.41c-0.33-0.39-0.84-0.32-1.07,0.14C264.3,63.64,264.24,64,264.14,64.34z M267.74,51.34 c-0.31,0.1-0.64,0.16-0.93,0.3c-0.48,0.24-0.63,0.69-0.46,1.16c0.22,0.58,0.98,1.1,1.61,1.06c0.17-0.01,0.36-0.07,0.5-0.16 c0.44-0.29,0.63-0.98,0.46-1.54C268.79,51.69,268.34,51.4,267.74,51.34z M273.08,39.71c0.28-0.09,0.68-0.16,1-0.34 c0.57-0.33,0.56-1.16-0.02-1.43c-0.64-0.3-1.32-0.3-1.95,0.06c-0.33,0.19-0.46,0.52-0.42,0.89c0.04,0.36,0.27,0.57,0.6,0.67 C272.5,39.63,272.74,39.65,273.08,39.71z M264.71,54.59c0.4-0.07,0.63-0.41,0.43-0.72c-0.42-0.64-0.93-1.19-1.71-1.39 c-0.59-0.15-0.95,0.01-1.13,0.48c-0.18,0.46-0.02,0.88,0.54,1.09C263.44,54.28,264.08,54.41,264.71,54.59z M277.03,40.15 c0.23-0.14,0.54-0.22,0.67-0.43c0.19-0.29,0.03-0.63-0.23-0.85c-0.18-0.15-0.38-0.3-0.6-0.34c-0.62-0.14-1.21,0.04-1.76,0.32 c-0.12,0.06-0.24,0.27-0.23,0.4c0.01,0.13,0.16,0.32,0.28,0.36C275.75,39.8,276.35,39.96,277.03,40.15z M261.25,38.75 c0.88-0.21,1.55-0.53,1.95-1.26c0.06-0.1,0.07-0.24,0.07-0.36c-0.01-0.46-0.34-0.66-0.73-0.4c-0.51,0.33-1.02,0.68-1.49,1.07 c-0.16,0.13-0.32,0.42-0.27,0.56C260.84,38.54,261.11,38.65,261.25,38.75z"></path> </g> </g> <path class="st2" d="M313.74,62.07c0,23.97-19.44,43.41-43.41,43.41c-23.97,0-43.41-19.43-43.41-43.41 c0-23.97,19.43-43.41,43.41-43.41C294.3,18.66,313.74,38.1,313.74,62.07z"></path> <g> <path class="st0" d="M250.78,87.93h1.39c1.89,0,2.66,1.04,2.67,2.44c0,1.82-1.15,3.28-3.29,3.28h-1.67L250.78,87.93z M251.52,93.08 c1.65,0,2.61-1.02,2.61-2.7c0-1.09-0.55-1.89-1.99-1.89h-0.75l-0.73,4.59H251.52z"></path> <path class="st0" d="M257.21,93.17c0.58,0,0.99-0.25,1.15-0.73h0.66c-0.26,0.86-0.99,1.28-1.84,1.28c-1.14,0-1.81-0.74-1.81-1.79 c0-1.48,0.95-2.53,2.18-2.53c1.14,0,1.85,0.7,1.62,2.14l-0.02,0.15h-3.09c-0.01,0.09-0.01,0.18-0.01,0.27 C256.06,92.72,256.41,93.17,257.21,93.17z M256.15,91.15h2.42c0.06-0.84-0.29-1.21-1.05-1.21 C256.93,89.95,256.35,90.3,256.15,91.15z"></path> <path class="st0" d="M264.18,91.23c0,1.34-0.78,2.49-2.09,2.49c-0.85,0-1.29-0.45-1.47-0.86l-0.36,2.24h-0.66l0.7-4.39 c0.09-0.57,0.1-0.9,0.11-1.25h0.62c0,0.23-0.02,0.55-0.05,0.82c0.3-0.54,0.9-0.89,1.52-0.89 C263.48,89.39,264.18,90.11,264.18,91.23z M263.48,91.27c0-0.86-0.42-1.33-1.1-1.33c-0.9,0-1.61,0.74-1.61,1.93 c0,0.81,0.5,1.3,1.29,1.3C262.97,93.18,263.48,92.36,263.48,91.27z"></path> <path class="st0" d="M268.37,92.4c-0.09,0.57-0.1,0.9-0.09,1.25h-0.63c-0.02-0.24,0-0.55,0.04-0.83c-0.3,0.5-0.78,0.9-1.46,0.9 c-0.87,0-1.39-0.54-1.2-1.75l0.4-2.5h0.66l-0.42,2.65c-0.1,0.66,0.13,1.03,0.7,1.03c0.7,0,1.28-0.46,1.41-1.25l0.38-2.43h0.66 L268.37,92.4z"></path> <path class="st0" d="M270.19,89.47h0.66l-0.66,4.18h-0.66L270.19,89.47z M270.27,88.16c0-0.24,0.21-0.45,0.45-0.45 c0.24,0,0.43,0.19,0.43,0.43s-0.2,0.45-0.44,0.45C270.47,88.59,270.27,88.4,270.27,88.16z"></path> <path class="st0" d="M271.42,92.36h0.65c0.03,0.45,0.26,0.81,1.01,0.81c0.58,0,0.86-0.26,0.86-0.69c0-0.36-0.22-0.52-0.85-0.68 c-0.94-0.23-1.27-0.56-1.27-1.19c0-0.8,0.7-1.22,1.46-1.22c0.82,0,1.43,0.36,1.48,1.21h-0.62c-0.02-0.4-0.35-0.66-0.87-0.66 s-0.82,0.23-0.82,0.62c0,0.32,0.19,0.48,0.85,0.64c0.83,0.21,1.29,0.47,1.29,1.24s-0.59,1.27-1.53,1.27 C271.94,93.72,271.43,93.08,271.42,92.36z"></path> <path class="st0" d="M279.18,88.63l-1.42,0.92l0.1-0.66l1.48-0.96h0.65l-0.9,5.72h-0.7L279.18,88.63z"></path> <path class="st0" d="M280.63,92.24h0.68c0.1,0.68,0.47,0.9,1.12,0.9c0.86,0,1.48-0.71,1.72-2.18c-0.32,0.42-0.86,0.67-1.47,0.67 c-0.91,0-1.69-0.6-1.69-1.66c0-1.22,0.89-2.13,2.14-2.13c1.19,0,1.81,0.73,1.82,1.94c0,0.25-0.02,0.51-0.06,0.8l-0.06,0.35 c-0.3,1.87-1.15,2.77-2.45,2.77C281.44,93.71,280.71,93.27,280.63,92.24z M282.77,91.09c0.84,0,1.51-0.49,1.51-1.47 c0-0.63-0.33-1.22-1.17-1.22c-0.83,0-1.41,0.65-1.41,1.55C281.7,90.62,282.07,91.09,282.77,91.09z"></path> <path class="st0" d="M285.57,92.16c0-0.84,0.54-1.42,1.32-1.66c-0.44-0.2-0.7-0.62-0.7-1.07c0-0.94,0.84-1.58,1.85-1.58 c0.82,0,1.65,0.53,1.65,1.42c0,0.71-0.43,1.09-1.06,1.29c0.55,0.22,0.9,0.73,0.9,1.32c0,1.18-0.94,1.82-2.06,1.82 C286.52,93.72,285.57,93.19,285.57,92.16z M287.5,93.15c0.78,0,1.31-0.45,1.31-1.25c0-0.65-0.5-1.06-1.16-1.06 c-0.78,0-1.38,0.42-1.38,1.22C286.28,92.74,286.81,93.15,287.5,93.15z M287.92,90.3c0.55,0,1.07-0.28,1.07-0.98 c0-0.51-0.41-0.91-1.01-0.91c-0.58,0-1.1,0.33-1.1,1.01C286.88,89.91,287.3,90.3,287.92,90.3z"></path> <path class="st0" d="M291.95,88.63l-1.42,0.92l0.1-0.66l1.48-0.96h0.65l-0.9,5.72h-0.7L291.95,88.63z"></path> </g> </svg> 