<?xml version="1.0" encoding="UTF-8"?>
<svg xmlns="http://www.w3.org/2000/svg" version="1.2" viewBox="0 0 678 586" width="678" height="586">
  <title>logo</title>
  <style>
		.s0 { fill: #b9a685 } 
		.s1 { fill: #d5d4d6 } 
		.s2 { fill: #aa9767 } 
		.s3 { fill: #9f855a } 
		.s4 { fill: #182343 } 
		.s5 { fill: #fefefe } 
		.s6 { fill: #050506 } 
	</style>
  <g id="logo">
    <g id="&lt;Group&gt;">
      <g id="&lt;Group&gt;">
        <path id="&lt;Path&gt;" class="s0" d="m322.8 187.1c-3.8 0-7.4-1-10.9-2.9-19-10.3-30.8-30.5-30.8-52.6 0-28.9 20-53.5 47.4-58.6l6.2-1.1-4.2 4.6c-18.3 20.2-9 35 1.8 52.2 5.8 9.2 11.8 18.8 13.4 29.7 1.1 7.5-1 15-5.7 20.6-4.5 5.1-10.7 8.1-17.2 8.1q0 0 0 0z"></path>
        <path id="&lt;Compound Path&gt;" fill-rule="evenodd" class="s1" d="m332 77.9c-17.2 19-8.7 32.5 2.1 49.7 5.9 9.4 12 19.1 13.7 30.4 1.2 8.2-1.1 16.3-6.2 22.3-4.9 5.7-11.7 8.9-18.8 8.9-4.1 0-8.1-1.1-11.9-3.1-19.7-10.7-31.9-31.6-31.9-54.5 0-29.9 20.7-55.4 49.2-60.6l12.2-2.3zm-48.8 53.7c0 22 12 41.1 29.6 50.8 3.3 1.7 6.7 2.6 9.9 2.6 12.4 0 23.1-11.9 20.9-26.3-4.6-30.1-44.4-50.9-14.7-83.6-26 4.8-45.7 28.2-45.7 56.5z"></path>
      </g>
      <g id="&lt;Group&gt;">
        <path id="&lt;Path&gt;" class="s0" d="m362.5 187.6c15.5-21.8 5.5-35.7-6.1-51.8-6.2-8.7-12.7-17.6-15.2-28.3-1.9-8.1-0.1-16.4 4.8-22.6 4.2-5.2 10.2-8.3 16.4-8.3 2.9 0 5.9 0.7 8.7 2 18.8 8.5 31.6 27.5 33.5 49.5 2.5 28.8-14.2 55.2-39.7 62.8l-6 1.8z"></path>
        <path id="&lt;Compound Path&gt;" fill-rule="evenodd" class="s1" d="m372 76.6c19.5 8.9 32.8 28.5 34.7 51.3 2.6 29.8-14.7 57.1-41.2 65.1l-11.9 3.6 7.2-10.2c14.6-20.6 5.4-33.3-6.1-49.3-6.4-8.9-13-18-15.6-29.1-2-8.8-0.1-17.7 5.2-24.4 4.6-5.8 11.2-9.1 18.1-9.1 3.3 0 6.5 0.7 9.6 2.1zm-28.7 30.4c6.9 29.5 46.1 46.5 21 81.9 24-7.3 40.6-32.5 38.2-60.6-1.9-21.9-14.9-39.9-32.3-47.8-2.6-1.2-5.3-1.7-7.8-1.7-12.5 0-22.5 13.3-19.1 28.2z"></path>
      </g>
      <g id="&lt;Group&gt;">
        <path id="&lt;Compound Path&gt;" fill-rule="evenodd" class="s2" d="m69 585.2v-25.5h8.4q3.6 0 5.8 1.8 2.3 1.9 2.3 5.3 0 3.7-2.3 5.7-2.3 1.9-6.2 1.9h-4.5v10.8zm3.4-22.6v8.9h4.4q5.2 0 5.2-4.6 0-2.2-1.4-3.3-1.4-1-3.7-1z"></path>
        <path id="&lt;Compound Path&gt;" fill-rule="evenodd" class="s2" d="m102.3 573.8h-4.1v11.4h-3.4v-25.5h8.9q3.5 0 5.5 1.7 2 1.7 2 4.9 0 4.6-4 6 1.9 0.6 2.8 2.2 0.8 1.5 0.8 4.1v0.6q0 4.1 0.4 6h-3.4q-0.4-1.3-0.4-6v-0.6q0-2.7-1.1-3.7-1.1-1.1-4-1.1zm-4.1-11.2v8.3h4.4q2.5 0 3.8-1 1.4-1 1.4-3.4 0-1.9-1.2-2.9-1.2-1-3.3-1z"></path>
        <path id="&lt;Compound Path&gt;" class="s2" d="m135.7 570.3v3h-10.9v8.9h12l-0.4 3h-14.9v-25.5h14.8v3h-11.5v7.6z"></path>
        <path id="&lt;Compound Path&gt;" class="s2" d="m165.9 585.2v-10.6q0-8.7 0.2-12.3h-0.1q-1.6 6.3-7.2 22.9h-3.1q-5.3-17.8-6.6-23h-0.1q0.2 4 0.2 13v10h-3.2v-25.5h5.2q4.9 14.8 6.3 20.9 0.6-2.8 6.8-20.9h4.9v25.5z"></path>
        <path id="&lt;Compound Path&gt;" class="s2" d="m180.6 559.7h3.4v25.5h-3.4z"></path>
        <path id="&lt;Compound Path&gt;" class="s2" d="m194.9 559.7h3.5v16.2q0 6.7 5.5 6.7 3 0 4.2-1.7 1.2-1.8 1.2-5v-16.2h3.5v16.3q0 9.6-9 9.6-8.9 0-8.9-9.4z"></path>
        <path id="&lt;Compound Path&gt;" class="s2" d="m243.6 585.2v-10.6q0-8.7 0.1-12.3h-0.1q-1.5 6.3-7.1 22.9h-3.1q-5.4-17.8-6.6-23h-0.2q0.3 4 0.3 13v10h-3.2v-25.5h5.1q5 14.8 6.3 20.9h0.1q0.5-2.8 6.7-20.9h5v25.5z"></path>
        <path id="&lt;Compound Path&gt;" fill-rule="evenodd" class="s2" d="m284 577.7h-8.9l-2.2 7.5h-3.4q0.7-2.2 3.9-12.6 3.1-10.3 4-12.9h4.3l8.3 25.5h-3.7zm-8.1-3h7.3q-3.3-10.7-3.7-12.2h-0.1q-0.6 2.8-3.5 12.2z"></path>
        <path id="&lt;Compound Path&gt;" fill-rule="evenodd" class="s2" d="m306.1 573.8h-4.2v11.4h-3.3v-25.5h8.9q3.4 0 5.4 1.7 2.1 1.7 2.1 4.9 0 4.6-4 6 1.8 0.6 2.7 2.2 0.9 1.5 0.9 4.1v0.6q0 4.1 0.3 6h-3.3q-0.5-1.3-0.5-6v-0.6q0-2.7-1.1-3.7-1.1-1.1-3.9-1.1zm-4.2-11.2v8.3h4.4q2.5 0 3.9-1 1.3-1 1.3-3.4 0-1.9-1.2-2.9-1.2-1-3.3-1z"></path>
        <path id="&lt;Compound Path&gt;" fill-rule="evenodd" class="s2" d="m337.6 577.7h-8.9l-2.2 7.5h-3.4q0.7-2.2 3.8-12.6 3.2-10.3 4-12.9h4.4l8.2 25.5h-3.6zm-8.1-3h7.3q-3.4-10.7-3.7-12.2h-0.1q-0.6 2.8-3.5 12.2z"></path>
        <path id="&lt;Compound Path&gt;" fill-rule="evenodd" class="s2" d="m352.1 585.2v-25.5h8.8q3.4 0 5.3 1.7 2 1.7 2 4.6 0 2.3-1 3.5-1.1 1.3-2.4 1.8 1.6 0.6 2.9 2.1 1.2 1.5 1.2 4.2 0 3.6-2.2 5.6-2.3 2-6.1 2zm3.4-15.1h4.6q2.4 0 3.5-1 1.1-0.9 1.1-2.8 0-1.8-1.1-2.8-1.1-1.1-3.3-1.1h-4.8zm0 2.9v9.5h4.8q2.3 0 3.7-1.2 1.4-1.2 1.4-3.6 0-2.3-1.3-3.5-1.4-1.2-4.1-1.2z"></path>
        <path id="&lt;Compound Path&gt;" class="s2" d="m378.7 559.7h3.4v25.5h-3.4z"></path>
        <path id="&lt;Compound Path&gt;" class="s2" d="m408 577.6h3.4q-0.6 3.5-2.9 5.7-2.2 2.3-6.3 2.3-5.2 0-7.6-3.6-2.4-3.6-2.4-9.7 0-2.7 0.6-5 0.6-2.3 1.8-4.1 1.2-1.8 3.2-2.8 2-1.1 4.6-1.1 4.1 0 6.3 2.2 2.2 2.3 2.5 5.8h-3.4q-0.5-2.4-1.7-3.7-1.3-1.3-3.8-1.3-3.3 0-5 2.8-1.6 2.9-1.6 7.2 0 2.1 0.3 3.8 0.4 1.8 1.1 3.3 0.7 1.5 2 2.4 1.3 0.8 3.2 0.8 2.4 0 3.8-1.3 1.3-1.4 1.9-3.7z"></path>
        <path id="&lt;Compound Path&gt;" fill-rule="evenodd" class="s2" d="m433.2 577.7h-8.8l-2.3 7.5h-3.4q0.7-2.2 3.9-12.6 3.2-10.3 4-12.9h4.3l8.3 25.5h-3.6zm-8.1-3h7.3q-3.4-10.7-3.8-12.2-0.6 2.8-3.5 12.2z"></path>
        <path id="&lt;Compound Path&gt;" class="s2" d="m476.3 577.6h3.4q-0.6 3.5-2.8 5.7-2.3 2.3-6.4 2.3-5.1 0-7.6-3.6-2.4-3.6-2.4-9.7 0-2.7 0.6-5 0.7-2.3 1.9-4.1 1.2-1.8 3.2-2.8 2-1.1 4.5-1.1 4.1 0 6.4 2.2 2.2 2.3 2.5 5.8h-3.4q-0.5-2.4-1.8-3.7-1.3-1.3-3.8-1.3-3.3 0-4.9 2.8-1.6 2.9-1.6 7.2 0 2.1 0.3 3.8 0.3 1.8 1 3.3 0.8 1.5 2.1 2.4 1.3 0.8 3.2 0.8 2.4 0 3.7-1.3 1.3-1.4 1.9-3.7z"></path>
        <path id="&lt;Compound Path&gt;" fill-rule="evenodd" class="s2" d="m498.8 559.3q5 0 7.7 3.6 2.6 3.7 2.6 9.4 0 5.8-2.7 9.5-2.7 3.8-7.8 3.8-5.1 0-7.7-3.7-2.7-3.7-2.7-9.6 0-2.6 0.7-4.9 0.7-2.2 1.9-4.1 1.3-1.8 3.3-2.9 2.1-1.1 4.7-1.1zm-0.1 3q-3.4 0-5.2 2.7-1.7 2.8-1.7 7.2 0 4.6 1.8 7.5 1.8 2.9 5.1 2.9 3.5 0 5.2-2.8 1.7-2.8 1.7-7.5 0-4.5-1.7-7.3-1.7-2.7-5.2-2.7z"></path>
        <path id="&lt;Compound Path&gt;" class="s2" d="m519.2 585.2v-25.5h14.6v3h-11.2v8h10.5v3h-10.5v11.5z"></path>
        <path id="&lt;Compound Path&gt;" class="s2" d="m542.9 585.2v-25.5h14.6v3h-11.3v8h10.6v3h-10.6v11.5z"></path>
        <path id="&lt;Compound Path&gt;" class="s2" d="m580.8 570.3v3h-10.9v8.9h12l-0.4 3h-15v-25.5h14.9v3h-11.5v7.6z"></path>
        <path id="&lt;Compound Path&gt;" class="s2" d="m605.4 570.3v3h-10.9v8.9h12l-0.4 3h-15v-25.5h14.9v3h-11.5v7.6z"></path>
      </g>
      <path id="&lt;Path&gt;" class="s3" d="m505.9 162.8c0 89.4-72.5 162-162 162-89.5 0-162-72.6-162-162 0-89.5 72.5-162 162-162 89.5 0 162 72.5 162 162z"></path>
      <path id="&lt;Path&gt;" class="s4" d="m482.8 162.7c0 77.1-62.5 139.7-139.7 139.7-77.2 0-139.7-62.6-139.7-139.7 0-77.2 62.5-139.7 139.7-139.7 77.2 0 139.7 62.5 139.7 139.7z"></path>
      <g id="&lt;Group&gt;">
        <g id="&lt;Group&gt;">
          <g id="&lt;Group&gt;">
            <path id="&lt;Path&gt;" class="s5" d="m352.3 45.7c0 5.8-4.7 10.5-10.6 10.5-5.8 0-10.5-4.7-10.5-10.5 0-5.8 4.7-10.5 10.5-10.5 5.9 0 10.6 4.7 10.6 10.5z"></path>
            <path id="&lt;Path&gt;" class="s5" d="m295.7 67.4c0 3.3-2.7 6-6 6-3.3 0-6-2.7-6-6 0-3.3 2.7-6 6-6 3.3 0 6 2.7 6 6z"></path>
            <path id="&lt;Path&gt;" class="s5" d="m265.1 108.2c0 3.3-2.7 6-6 6-3.3 0-6-2.7-6-6 0-3.3 2.7-6 6-6 3.3 0 6 2.7 6 6z"></path>
            <path id="&lt;Path&gt;" class="s5" d="m400.8 67.4c0 3.3-2.7 6-6 6-3.3 0-6-2.7-6-6 0-3.3 2.7-6 6-6 3.3 0 6 2.7 6 6z"></path>
            <path id="&lt;Path&gt;" class="s5" d="m430.7 108.2c0 3.3-2.7 6-6 6-3.3 0-6-2.7-6-6 0-3.3 2.7-6 6-6 3.3 0 6 2.7 6 6z"></path>
          </g>
        </g>
      </g>
      <g id="&lt;Group&gt;">
        <g id="&lt;Group&gt;">
          <g id="&lt;Group&gt;">
            <path id="&lt;Path&gt;" class="s6" d="m343 302.7c-62 0-96.2-30.7-113.9-56.5-19.2-27.9-23.8-56.2-23.8-56.5l-0.2-1 1-0.3c0.4-0.1 42-12.5 90.8-19.2-5.9-9.2-8.6-20.5-8.6-35.4 0-39.6 21.8-65.1 55.6-65.1 32.6 0 52 24.3 52 65.1 0 13.8-2.8 25.1-8.5 34.5 40.3 5.1 71.6 11.9 93 20.2l0.9 0.3-0.2 0.9c0 0.3-4.7 28.6-24 56.5-17.8 25.8-52 56.5-114.1 56.5z"></path>
            <path id="&lt;Compound Path&gt;" fill-rule="evenodd" class="s3" d="m397.1 133.8c0 13.3-2.6 24.3-7.8 33.5 39.5 5.2 70.3 11.9 91.5 20.1l1.7 0.7-0.3 1.8c-0.1 1.2-4.7 28.9-24.1 57-18 26-52.5 57-115.1 57-62.5 0-97-31-114.9-57-19.3-28.2-23.8-55.8-23.9-57l-0.3-2 1.9-0.6c0.4-0.1 41.1-12.2 89.2-19-5.4-9.1-7.9-20.1-7.9-34.5 0-18.7 5-34.8 14.4-46.7 10.1-12.8 24.8-19.6 42.4-19.6 33.3 0 53.2 24.8 53.2 66.3zm-107.7 0c0 13.5 2.2 25.9 9.4 36.3-50 6.7-92.4 19.4-92.4 19.4 0 0 17.4 112.1 136.6 112.1 119.2 0 137-112.1 137-112.1-28.3-10.9-67.7-17-94.6-20.3 6.8-10.2 9.4-22.3 9.4-35.4 0-35.4-15.2-64-50.9-64-35.7 0-54.5 28.6-54.5 64z"></path>
          </g>
          <g id="&lt;Group&gt;">
            <path id="&lt;Path&gt;" class="s3" d="m349.2 218.5l-1-20h-10.1l-0.9 20z"></path>
            <path id="&lt;Path&gt;" class="s3" d="m351.2 258l-1.5-29.2h-13l-1.4 29.2z"></path>
            <g id="&lt;Group&gt;">
              <path id="&lt;Path&gt;" class="s3" d="m334.7 270.9l-1.3 26.6h19.8l-1.4-26.6z"></path>
            </g>
            <g id="&lt;Group&gt;">
              <path id="&lt;Path&gt;" class="s3" d="m319.3 191.8l-7.6 10.3c0 0-34.6 12.3-68 51.2 0 0 4.2 5.1 11.5 11.3 22.5-29 45-42.1 45-42.1l-31.8 51.8c4.2 2.6 8.9 5.1 14 7.2l44.8-85.7z"></path>
              <path id="&lt;Path&gt;" class="s3" d="m227.5 233c0 0 2.3 6.5 8.5 11 0 0 30.3-33.4 75.2-45.5 0 0 4.5-1.6 2-7.6 0 0-0.9-3.3-6-2.1 0 0-38.8 7.1-79.7 44.2z"></path>
              <path id="&lt;Path&gt;" class="s3" d="m217 212.4c0 0 3.1 6.4 6.5 10.5 0 0 23.4-22.8 63-31.1 0 0 3.6-0.8 2.8-5.9-0.7-5.2-3.8-4.4-3.8-4.4 0 0-38.4 6.7-68.5 30.9z"></path>
            </g>
            <g id="&lt;Group&gt;">
              <path id="&lt;Path&gt;" class="s3" d="m367.2 191.8l7.6 10.3c0 0 34.6 12.3 68 51.2 0 0-4.1 5.1-11.5 11.3-22.5-29-45-42.1-45-42.1l31.8 51.8c-4.2 2.6-8.9 5.1-14 7.2l-44.8-85.7z"></path>
              <path id="&lt;Path&gt;" class="s3" d="m459 233c0 0-2.3 6.5-8.5 11 0 0-30.3-33.4-75.2-45.5 0 0-4.5-1.6-2-7.6 0 0 0.9-3.3 6.1-2.1 0 0 38.7 7.1 79.6 44.2z"></path>
              <path id="&lt;Path&gt;" class="s3" d="m469.5 212.4c0 0-3.1 6.4-6.5 10.5 0 0-23.4-22.8-63-31.1 0 0-3.6-0.8-2.8-5.9 0.8-5.2 3.8-4.4 3.8-4.4 0 0 38.4 6.7 68.5 30.9z"></path>
            </g>
          </g>
        </g>
      </g>
      <g id="&lt;Group&gt;">
        <path id="&lt;Compound Path&gt;" fill-rule="evenodd" class="s3" d="m87.5 453.7q7.1 7.5 11.6 15.5 4.6 8.1 10.7 21.4 5.5 11.8 9.3 18.6 3.7 6.8 9.3 11.3 5.6 4.4 13.1 4.4v3.9h-21.2q-13 0-21.5-7.1-8.6-7-13.2-17.1-4.7-10.1-10-26-5.7-17.9-10.9-26.8-5.2-8.8-14.6-8.8h-8.7v51.5q0 30.4 13 30.4v4.1h-53.8v-4.1q12.8 0 12.8-30.4v-110.2q0-30.7-12.8-30.7v-3.9h61.4q28 0.6 40.7 11.4 12.6 10.9 12.6 35 0 22.3-10.7 33.6-10.7 11.2-34.2 13 10 3.6 17.1 11zm-46.1-14.6h19q14.1 0 20.5-10.1 6.4-10.1 6.4-32.9 0-22.3-6.4-32.4-6.4-10.1-20.5-10.1h-19z"></path>
        <path id="&lt;Compound Path&gt;" class="s3" d="m260.6 368.2h-3.5q0-14.6-27.1-14.6h-41.7v71.7h23q27.1 0 27.1-14.3h3.5v32.7h-3.5q0-14.6-27.1-14.6h-23v95.8h41.7q13.5 0 20.3-3.4 6.8-3.5 6.8-10.9h3.5v18.4h-113.1v-4.1q12.7 0 12.7-30.4v-110.2q0-30.7-12.7-30.7v-3.9h113.1z"></path>
        <path id="&lt;Compound Path&gt;" class="s3" d="m404.5 361.3q-3 7.7-3 23v110.2q0 15.1 3 22.8 3.1 7.6 9.7 7.6v4.1h-53.8v-4.1q6.6 0 9.7-7.6 3.1-7.7 3.1-22.8v-43.6h-59.5v43.6q0 30.4 13 30.4v4.1h-53.8v-4.1q12.7 0 12.7-30.4v-110.2q0-30.7-12.7-30.7v-3.9h53.8v3.9q-6.6 0-9.8 7.7-3.2 7.7-3.2 23v62.5h59.5v-62.5q0-15.3-3.1-23-3.1-7.7-9.7-7.7v-3.9h53.8v3.9q-6.6 0-9.7 7.7z"></path>
        <path id="&lt;Compound Path&gt;" class="s3" d="m535.3 510.6v18.4h-109.7v-4.1q12.8 0 12.8-30.4v-110.2q0-30.7-12.8-30.7v-3.9h53.8v3.9q-6.6 0-9.8 7.7-3.2 7.7-3.2 23v140.6h38.4q13.4 0 20.2-3.4 6.9-3.5 6.9-10.9z"></path>
        <path id="&lt;Compound Path&gt;" fill-rule="evenodd" class="s3" d="m668 515.7q1.6 4.4 4.2 6.8 2.6 2.4 5.4 2.4v4.1h-42.4v-4.1q5.2 0 5.2-5.6 0-2-0.7-5.1l-13.4-49.7h-57.7l-13.5 49.7h0.3q-0.7 2.5-0.7 4.6 0 6.1 5.2 6.1v4.1h-18.2v-4.1q3.2 0 5.7-2.4 2.5-2.4 4.5-8.6l43.6-164.2h28zm-70.6-159l-27.9 104h55.9z"></path>
      </g>
      <g id="&lt;Group&gt;">
        <g id="&lt;Group&gt;">
          <path id="&lt;Compound Path&gt;" class="s5" d="m353.9 161.5c-5.8-31.3-43.2-51.3-18.1-87.2-23.4 6.3-39.9 32-38.3 61.7 1.2 23.2 13.3 42.8 29.8 52 14.9 8.3 30.1-7.4 26.6-26.5z"></path>
        </g>
        <g id="&lt;Group&gt;">
          <path id="&lt;Compound Path&gt;" class="s5" d="m332.2 136.4c-10.6-18.6-11.2-44.1 6.8-66.4-34.3 2.7-51.2 32.2-49.4 69.2 1.2 24 47.9 6.3 42.6-2.8z"></path>
        </g>
        <g id="&lt;Group&gt;">
          <path id="&lt;Compound Path&gt;" class="s3" d="m348.8 161.8c-5.8-31.1-41.5-50.8-17.8-86.5-22.2 6.3-37.9 31.8-36.2 61.3 1.4 23 12.9 42.3 28.8 51.5 14.2 8.2 28.7-7.4 25.2-26.3z"></path>
        </g>
        <g id="&lt;Group&gt;">
          <path id="&lt;Compound Path&gt;" class="s5" d="m335.8 102.8c1.1 31.4 39.9 49.8 17.3 86.1 21.3-6.9 36.2-32.8 34.4-62.2-1.3-23-12.5-42.1-27.7-50.8-13.6-7.9-24.8 4.3-24 26.9z"></path>
        </g>
        <g id="&lt;Group&gt;">
          <path id="&lt;Path&gt;" class="s5" d="m394.6 126.6c-1.7-26-11-42.6-26.4-51.1-2.4-1.3-4.7-2.3-7-3q0 0 0 0 0 0-0.1-0.1-0.1 0-0.1 0c-1.3-0.4-6.7-2-10.3-2.2 0 0-25.9 11.2-13 43.5 4.4 11 8.5 9.7 12.1 3.2 3.5 7.7 8.1 14.9 11.9 22.2 6.6 12.7 29 20.9 32.4 5.9 0.4-1.6 0.5-3.7 0.7-5.9 0.4-5.5 0.1-8-0.2-12.5z"></path>
        </g>
        <g id="&lt;Group&gt;">
          <path id="&lt;Compound Path&gt;" class="s3" d="m339.8 102.4c5.5 30.5 39.5 49 17.1 84.8 21.1-6.8 35.8-32.3 34.1-61.3-1.4-22.6-12.4-41.4-27.5-50.1-13.5-7.7-27.1 8-23.7 26.6z"></path>
        </g>
      </g>
    </g>
  </g>
</svg>
