<?xml version="1.0" encoding="UTF-8"?>
<svg id="Layer_1" data-name="Layer 1" xmlns="http://www.w3.org/2000/svg" xmlns:xlink="http://www.w3.org/1999/xlink" viewBox="0 0 595.28 261.23">
  <defs>
    <style>
      .cls-1 {
        fill: url(#New_Gradient_Swatch-13);
      }

      .cls-2 {
        fill: url(#New_Gradient_Swatch-7);
      }

      .cls-3 {
        fill: url(#New_Gradient_Swatch-6);
      }

      .cls-4 {
        fill: url(#New_Gradient_Swatch);
      }

      .cls-5 {
        fill: url(#New_Gradient_Swatch-5);
      }

      .cls-6 {
        fill: url(#New_Gradient_Swatch-16);
      }

      .cls-7 {
        fill: url(#New_Gradient_Swatch-8);
      }

      .cls-8 {
        fill: url(#New_Gradient_Swatch-4);
      }

      .cls-9 {
        fill: url(#New_Gradient_Swatch-2);
        opacity: .5;
      }

      .cls-10 {
        fill: url(#New_Gradient_Swatch-3);
      }

      .cls-11 {
        fill: url(#New_Gradient_Swatch-14);
      }

      .cls-12 {
        fill: url(#New_Gradient_Swatch-10);
      }

      .cls-13 {
        fill: url(#New_Gradient_Swatch-12);
      }

      .cls-14 {
        fill: url(#New_Gradient_Swatch-9);
      }

      .cls-15 {
        fill: url(#New_Gradient_Swatch-15);
      }

      .cls-16 {
        fill: url(#New_Gradient_Swatch-11);
      }
    </style>
    <linearGradient id="New_Gradient_Swatch" data-name="New Gradient Swatch" x1="367.81" y1="101.87" x2="586.24" y2="101.87" gradientUnits="userSpaceOnUse">
      <stop offset="0" stop-color="#03a99e"/>
      <stop offset="1" stop-color="#05948a"/>
    </linearGradient>
    <linearGradient id="New_Gradient_Swatch-2" data-name="New Gradient Swatch" x1="437.53" y1="159.12" x2="516.81" y2="159.12" xlink:href="#New_Gradient_Swatch"/>
    <linearGradient id="New_Gradient_Swatch-3" data-name="New Gradient Swatch" x1="6.7" y1="142.02" x2="116.11" y2="142.02" xlink:href="#New_Gradient_Swatch"/>
    <linearGradient id="New_Gradient_Swatch-4" data-name="New Gradient Swatch" x1="107.25" y1="164.29" x2="243.03" y2="164.29" xlink:href="#New_Gradient_Swatch"/>
    <linearGradient id="New_Gradient_Swatch-5" data-name="New Gradient Swatch" x1="234.17" y1="165.46" x2="290.73" y2="165.46" xlink:href="#New_Gradient_Swatch"/>
    <linearGradient id="New_Gradient_Swatch-6" data-name="New Gradient Swatch" x1="315.36" y1="107.74" x2="366.13" y2="107.74" xlink:href="#New_Gradient_Swatch"/>
    <linearGradient id="New_Gradient_Swatch-7" data-name="New Gradient Swatch" x1="326.37" y1="227.3" x2="356.05" y2="227.3" xlink:href="#New_Gradient_Swatch"/>
    <linearGradient id="New_Gradient_Swatch-8" data-name="New Gradient Swatch" x1="359.29" y1="234.14" x2="383.4" y2="234.14" xlink:href="#New_Gradient_Swatch"/>
    <linearGradient id="New_Gradient_Swatch-9" data-name="New Gradient Swatch" x1="388.21" y1="234.14" x2="412.26" y2="234.14" xlink:href="#New_Gradient_Swatch"/>
    <linearGradient id="New_Gradient_Swatch-10" data-name="New Gradient Swatch" x1="412.2" y1="228.79" x2="426.04" y2="228.79" xlink:href="#New_Gradient_Swatch"/>
    <linearGradient id="New_Gradient_Swatch-11" data-name="New Gradient Swatch" x1="430.14" y1="230.44" x2="453.42" y2="230.44" xlink:href="#New_Gradient_Swatch"/>
    <linearGradient id="New_Gradient_Swatch-12" data-name="New Gradient Swatch" x1="457.87" y1="226.58" x2="482.04" y2="226.58" xlink:href="#New_Gradient_Swatch"/>
    <linearGradient id="New_Gradient_Swatch-13" data-name="New Gradient Swatch" x1="487.23" y1="238.69" x2="496.9" y2="238.69" xlink:href="#New_Gradient_Swatch"/>
    <linearGradient id="New_Gradient_Swatch-14" data-name="New Gradient Swatch" x1="499.83" y1="230.47" x2="519.24" y2="230.47" xlink:href="#New_Gradient_Swatch"/>
    <linearGradient id="New_Gradient_Swatch-15" data-name="New Gradient Swatch" x1="521.79" y1="230.34" x2="546.89" y2="230.34" xlink:href="#New_Gradient_Swatch"/>
    <linearGradient id="New_Gradient_Swatch-16" data-name="New Gradient Swatch" x1="551.52" y1="230.01" x2="588.62" y2="230.01" xlink:href="#New_Gradient_Swatch"/>
  </defs>
  <path class="cls-4" d="M367.81,194.01c36.57-61.84,72.79-123.15,109.36-185.11l109.07,185.45c-.81,.46-1.76,.61-2.67,.41h-30.54c-1.9,.2-3.71-.82-4.52-2.55-23.18-39.87-46.36-79.69-69.55-119.44-.4-1.04-1.03-1.97-1.85-2.72-1.04,.52-1.33,1.56-1.8,2.38-23.18,39.76-46.36,79.53-69.55,119.33-.76,1.64-2.5,2.6-4.29,2.38l-33.67-.12Z"/>
  <path class="cls-9" d="M516.81,194.47h-79.28l39.81-70.7,39.47,70.7Z"/>
  <path class="cls-10" d="M6.7,196.5v-19.94H83.72c-4.17-14.49-7.82-26.31-11.13-35.41-2.4-7.39-5.76-14.44-9.97-20.98-2.81-4.38-6.84-7.85-11.59-9.97-5.17-1.91-10.66-2.82-16.17-2.67-2.83,.01-5.66,.2-8.46,.58-2.84,.32-5.65,.86-8.4,1.62l-4.87-19.53c3.83-.86,7.7-1.52,11.59-1.97,3.38-.43,6.79-.67,10.2-.7,6.76-.08,13.51,.48,20.17,1.68,5.4,1.01,10.44,3.38,14.66,6.9,4.82,4.35,8.75,9.58,11.59,15.42,4.33,8.73,7.99,17.78,10.95,27.06,3.83,11.24,8.11,25.38,12.98,42.36v15.53H6.7Zm93.89,0v-19.94h11.07v19.94h-11.07Zm11.07,0v-19.94c1.68-.08,3.18,1.04,3.59,2.67,1.16,4.8,1.16,9.81,0,14.6-.41,1.63-1.91,2.74-3.59,2.67Z"/>
  <path class="cls-8" d="M111.65,196.5c-1.66,.07-3.15-1.04-3.54-2.67-1.16-4.8-1.16-9.81,0-14.6,.39-1.62,1.87-2.74,3.54-2.67v19.94Zm0,0v-19.94h43.52c5.52,.09,10.99-1.15,15.94-3.59,4.74-2.33,9.03-5.47,12.69-9.27,3.62-3.8,6.78-8.02,9.39-12.58,2.49-4.27,4.61-8.75,6.32-13.39l16.46,7.07c-2.66,7.22-6.08,14.14-10.2,20.63-3.95,6.12-8.77,11.62-14.31,16.34-5.68,4.72-12.16,8.39-19.12,10.84-7.88,2.72-16.18,4.04-24.51,3.88h-36.16Zm118.98,0c-3.71,.23-7.39-.82-10.43-2.96-2.9-2.53-5.06-5.79-6.26-9.45l-15.3-39.93c-2.83-7.4-6.89-14.28-12-20.34-4.45-4.96-10.16-8.62-16.52-10.61-8.17-2.37-16.65-3.47-25.15-3.25h-8.69c-2.96,0-6.2,.35-9.74,.75l-2.9-19.53c4.29-.41,8.4-.75,12.34-.99,3.94-.23,7.65-.29,11.19-.29,10.62-.3,21.21,1.27,31.3,4.64,8.31,3.04,15.68,8.19,21.39,14.95,6.49,8.05,11.5,17.2,14.78,27.01l15.07,39.93h8.87v19.94l-7.94,.12Zm-60.16,42.19c-1.89-.14-3.68-.9-5.1-2.14-1.9-1.36-3.58-3-4.98-4.87-1.28-1.45-2.03-3.29-2.14-5.22,.15-1.89,.9-3.67,2.14-5.1,1.39-1.91,3.07-3.59,4.98-4.98,1.44-1.21,3.22-1.94,5.1-2.09,1.92,.11,3.75,.84,5.22,2.09,1.86,1.41,3.51,3.09,4.87,4.98,1.2,1.45,1.93,3.23,2.09,5.1-.14,1.88-.87,3.66-2.09,5.1-1.39,1.91-3.07,3.59-4.98,4.98-1.43,1.24-3.21,1.99-5.1,2.14Zm68.1-42.19v-19.94c1.68-.08,3.18,1.04,3.59,2.67,1.16,4.8,1.16,9.81,0,14.6-.41,1.63-1.91,2.74-3.59,2.67Z"/>
  <path class="cls-5" d="M238.57,196.5c-1.66,.07-3.15-1.04-3.54-2.67-1.16-4.8-1.16-9.81,0-14.6,.39-1.62,1.87-2.74,3.54-2.67v19.94Zm0,0v-19.94h41.09l-10.03,9.97V92.24h17.79v104.32l-48.86-.06Zm39.93,42.19c-1.88-.16-3.67-.91-5.1-2.14-1.9-1.36-3.58-3-4.98-4.87-1.24-1.47-1.97-3.3-2.09-5.22,.16-1.87,.88-3.65,2.09-5.1,1.39-1.91,3.07-3.59,4.98-4.98,1.45-1.19,3.23-1.92,5.1-2.09,1.92,.11,3.75,.84,5.22,2.09,1.87,1.42,3.53,3.1,4.93,4.98,1.2,1.45,1.93,3.23,2.09,5.1-.14,1.88-.87,3.66-2.09,5.1-1.41,1.9-3.09,3.58-4.98,4.98-1.45,1.24-3.26,1.99-5.16,2.14Z"/>
  <path class="cls-3" d="M315.36,79.37v-10.2l9.74-2.67c-.94-2.17-1.6-4.45-1.97-6.78-.49-3.2-.7-6.44-.64-9.68-.43-6.69,1.23-13.36,4.75-19.07,3.31-4.53,8.04-7.82,13.45-9.33,6.48-1.86,13.2-2.76,19.94-2.67v12.46c-4.25,0-8.48,.44-12.63,1.33-3.9,.73-7.66,2.08-11.13,4v19.53c0,2.61,.75,4.29,2.32,4.98,2.63,.6,5.37,.4,7.88-.58l19.07-5.1v10.2l-50.77,13.56Zm16.4,117.13V92.18h17.79v104.32h-17.79Z"/>
  <path class="cls-2" d="M326.37,242.63l8.11-30.66h13.39l8.17,30.66h-8.81l-5.8-22.43h-.41l-5.8,22.43h-8.87Zm5.45-5.39v-6.32h18.78v6.32h-18.78Z"/>
  <path class="cls-7" d="M359.29,250.86v-32.8h4.29l4.35,6.26v25.85l-8.64,.7Zm14.03-7.53c-1.63,.04-3.26-.2-4.81-.7-1.29-.4-2.42-1.19-3.25-2.26-.89-1.18-1.51-2.55-1.8-4-.77-3.96-.77-8.04,0-12,.29-1.45,.9-2.82,1.8-4,.83-1.07,1.96-1.86,3.25-2.26,1.55-.5,3.18-.74,4.81-.7,1.57-.04,3.14,.2,4.64,.7,1.24,.44,2.33,1.22,3.13,2.26,.87,1.19,1.48,2.56,1.8,4,.7,3.95,.7,7.99,0,11.94-.31,1.46-.93,2.84-1.8,4.06-.8,1.04-1.89,1.82-3.13,2.26-1.5,.49-3.06,.73-4.64,.7Zm-5.39-6.55h4.23c.53,.13,1.09,.13,1.62,0,.29-.27,.44-.65,.41-1.04v-11.59h-4.29c-.52-.04-1.04,.06-1.51,.29-.32,.22-.49,.6-.46,.99v11.36Z"/>
  <path class="cls-14" d="M388.21,250.86v-32.8h4.23l4.4,6.26v25.85l-8.64,.7Zm13.97-7.53c-1.63,.04-3.26-.2-4.81-.7-1.28-.42-2.41-1.21-3.25-2.26-.87-1.19-1.48-2.56-1.8-4-.7-3.97-.7-8.03,0-12,.31-1.44,.93-2.81,1.8-4,.84-1.05,1.97-1.84,3.25-2.26,1.55-.5,3.18-.73,4.81-.7,1.57-.04,3.14,.19,4.64,.7,1.25,.45,2.35,1.23,3.19,2.26,.87,1.18,1.47,2.55,1.74,4,.7,3.95,.7,7.99,0,11.94-.27,1.46-.86,2.85-1.74,4.06-.84,1.03-1.94,1.81-3.19,2.26-1.49,.5-3.06,.73-4.64,.7Zm-5.33-6.55h4.23c.51,.13,1.05,.13,1.56,0,.29,0,.41-.52,.41-1.04v-11.59h-4.23c-.54-.03-1.08,.06-1.56,.29-.31,.23-.46,.61-.41,.99v11.36Z"/>
  <path class="cls-12" d="M417.94,251.38c-.98,.08-1.97,.08-2.96,0-.94-.1-1.87-.28-2.78-.52l.35-5.33c.94,.11,1.9,.11,2.84,0,.56-.1,1.04-.44,1.33-.93,.26-.6,.38-1.26,.35-1.91v-23.18l8.64-1.1v25.44c.16,2.1-.51,4.18-1.85,5.8-1.67,1.32-3.79,1.94-5.91,1.74Zm3.48-35.87c-1.32,.14-2.64-.21-3.71-.99-.8-1.04-1.16-2.35-.99-3.65-.18-1.32,.17-2.65,.99-3.71,1.06-.8,2.39-1.15,3.71-.99,1.28-.16,2.57,.19,3.59,.99,.81,1.06,1.17,2.39,.99,3.71,.16,1.29-.17,2.59-.93,3.65-1.05,.78-2.35,1.14-3.65,.99h0Z"/>
  <path class="cls-16" d="M438.51,243.27c-2.27,.21-4.54-.47-6.32-1.91-1.49-1.68-2.22-3.9-2.03-6.14-.04-1.33,.19-2.65,.7-3.88,.43-1.02,1.18-1.88,2.14-2.43,1.24-.73,2.63-1.18,4.06-1.33,2.13-.31,4.28-.44,6.43-.41h2.78v4.52h-4.64c-.95-.06-1.9,.1-2.78,.46-.54,.43-.83,1.11-.75,1.8v3.42h3.19c.93,.07,1.87-.09,2.72-.46,.54-.35,.83-.98,.75-1.62v-11.19c-1.02-.15-2.05-.15-3.07,0-1.47-.11-2.94-.11-4.4,0-1.68,.2-3.35,.53-4.98,.99l-.99-6.09c1.16-.35,2.34-.64,3.54-.87,1.28-.26,2.58-.44,3.88-.52h3.94c2.08-.09,4.16,.19,6.14,.81,1.43,.47,2.66,1.41,3.48,2.67,.8,1.43,1.18,3.06,1.1,4.69v17.04h-4.23l-2.2-2.49c-2.37,1.98-5.38,3.03-8.46,2.96Z"/>
  <path class="cls-13" d="M468.07,217.42c1.63-.04,3.26,.2,4.81,.7,1.24,.46,2.34,1.24,3.19,2.26,.92,1.17,1.53,2.54,1.8,4,.77,3.96,.77,8.04,0,12-.26,1.46-.88,2.83-1.8,4-.82,1.05-1.92,1.84-3.19,2.26-1.55,.5-3.18,.73-4.81,.7-1.59,.04-3.18-.2-4.69-.7-1.24-.44-2.33-1.22-3.13-2.26-.87-1.21-1.48-2.6-1.8-4.06-.39-1.91-.59-3.85-.58-5.8,0-1.95,.19-3.89,.58-5.8,.31-1.44,.93-2.81,1.8-4,.8-1.04,1.89-1.82,3.13-2.26,1.49-.62,3.08-.97,4.69-1.04Zm5.33,6.55h-4.46c-.52-.04-1.04,.06-1.51,.29-.34,.23-.52,.64-.46,1.04v11.59h4.23c.53,.13,1.09,.13,1.62,0,.29-.27,.44-.65,.41-1.04l.17-11.88Zm8.64-14.14v32.8h-4.29l-4.35-6.26v-25.85l8.64-.7Z"/>
  <path class="cls-1" d="M487.25,238.72c-.11-1.29,.22-2.57,.93-3.65,2.36-1.55,5.41-1.55,7.77,0,.71,1.08,1.03,2.36,.93,3.65,.13,1.29-.19,2.58-.93,3.65-2.38,1.46-5.38,1.46-7.77,0-.71-1.08-1.03-2.36-.93-3.65Z"/>
  <path class="cls-11" d="M510.49,243.27c-1.65,.04-3.3-.2-4.87-.7-1.29-.43-2.43-1.22-3.3-2.26-.9-1.2-1.53-2.59-1.85-4.06-.44-1.9-.66-3.85-.64-5.8-.01-1.95,.2-3.89,.64-5.8,.33-1.45,.96-2.81,1.85-4,.87-1.04,2.01-1.83,3.3-2.26,1.57-.5,3.22-.73,4.87-.7,1-.05,2.01-.05,3.01,0l3.01,.35,2.26,.52-.81,5.8c-.84-.23-1.69-.4-2.55-.52-.93-.06-1.86-.06-2.78,0-1-.12-2,.17-2.78,.81-.6,.84-.86,1.87-.75,2.9v9.1c1,.25,2.04,.35,3.07,.29,1.07,.02,2.14-.07,3.19-.29,1.07-.22,2.12-.55,3.13-.99l.75,5.8c-1.34,.56-2.74,.97-4.17,1.22-1.5,.34-3.04,.53-4.58,.58Z"/>
  <path class="cls-15" d="M534.37,243.27c-1.96,.05-3.91-.18-5.8-.7-3.02-.85-5.35-3.27-6.09-6.32-.93-3.91-.93-7.97,0-11.88,.4-1.49,1.16-2.86,2.2-4,1.07-1.08,2.41-1.86,3.88-2.26,1.89-.51,3.84-.75,5.8-.7,1.96-.05,3.91,.19,5.8,.7,1.45,.4,2.78,1.18,3.83,2.26,1.07,1.12,1.82,2.5,2.2,4,.93,3.91,.93,7.97,0,11.88-.36,1.51-1.12,2.89-2.2,4-1.06,1.08-2.38,1.88-3.83,2.32-1.89,.51-3.84,.74-5.8,.7Zm-3.19-6.55h4.35c.53,.13,1.09,.13,1.62,0,.29-.27,.44-.65,.41-1.04v-11.59h-4.4c-.54-.03-1.08,.06-1.56,.29-.29,0-.41,.52-.41,1.04v11.3Z"/>
  <path class="cls-6" d="M551.52,242.63v-24.57h4.35l2.14,2.49c1.32-1.01,2.78-1.81,4.35-2.38,1.55-.51,3.18-.77,4.81-.75,1.9-.11,3.78,.37,5.39,1.39,1.23,.91,1.92,2.36,1.85,3.88v19.94h-8.69v-18.14h-3.13c-.66-.04-1.32,.1-1.91,.41-.38,.33-.57,.83-.52,1.33v16.4h-8.64Zm14.2,0v-24.57l6.43,2.49c1.33-1.02,2.82-1.83,4.4-2.38,1.55-.52,3.18-.77,4.81-.75,1.88-.12,3.75,.37,5.33,1.39,1.26,.89,1.98,2.35,1.91,3.88v19.94h-8.64v-18.14h-3.13c-.66-.04-1.32,.1-1.91,.41-.42,.31-.64,.82-.58,1.33v16.4h-8.64Z"/>
</svg>