<?xml version="1.0" encoding="utf-8"?>
<!-- Generator: Adobe Illustrator 23.0.1, SVG Export Plug-In . SVG Version: 6.00 Build 0)  -->
<svg version="1.1" id="Ebene_1" xmlns="http://www.w3.org/2000/svg" xmlns:xlink="http://www.w3.org/1999/xlink" x="0px" y="0px"
	 viewBox="0 0 2834.65 2834.65" style="enable-background:new 0 0 2834.65 2834.65;" xml:space="preserve">
<style type="text/css">
	.st0{fill:#C4AD7D;}
</style>
<g>
	<path class="st0" d="M521.49,1901.5l-83.12,254.98h46.16l19.93-69.08h85.53l19.77,69.08h47.88l-83.12-254.98H521.49z
		 M514.7,2051.92l8.98-31.11c8.11-26.98,15.6-55.83,22.61-84.06h1.56c7.48,27.99,14.97,57.08,23.08,84.06l8.9,31.11H514.7z
		 M1003.06,1977.14c0-56.92-40.86-75.64-93.88-75.64h-85.93v254.98h45.22v-99.65h38.86l54.87,99.65h50.84l-60.97-106.24
		C982.7,2039.61,1003.06,2015.83,1003.06,1977.14z M868.47,1937.68h36.02c34.93,0,53.96,10.14,53.96,39.45
		c0,29-19.03,43.51-53.96,43.51h-36.02V1937.68z M1190.5,1901.5h45.22v254.98h-45.22V1901.5z M1482.13,2118.43h112.13v38.05H1436.9
		V1901.5h153.45v38.05h-108.23v65.34h91.7v38.05h-91.7V2118.43z M1828.33,2118.43h105.9v38.05H1783.1V1901.5h45.22V2118.43z
		 M2252.67,2156.48h47.88l-83.12-254.98h-53.02l-83.12,254.98h46.16l19.93-69.08h85.53L2252.67,2156.48z M2157.6,2051.92l8.98-31.11
		c8.11-26.98,15.59-55.83,22.61-84.06h1.56c7.48,27.99,14.97,57.08,23.08,84.06l8.91,31.11H2157.6z"/>
	<path class="st0" d="M808.04,2287.11h7.95l19.88,62.7c4.11,13.15,6.94,23.04,11.34,36.06h0.65c4.4-13.02,7.25-22.91,11.34-36.06
		l19.85-62.7h7.56l-35.1,107.37h-8.08L808.04,2287.11z M961.33,2287.11h58.75v6.45h-51.26v40.67h43.05v6.45h-43.05v47.35h52.89v6.45
		h-60.38V2287.11z M1103.56,2287.11h7.85l45.17,75.7l12.15,21.44h0.65c-0.42-10.52-0.95-20.92-0.95-31.31v-65.83h7.07v107.37h-7.85
		l-45.17-75.71l-12.16-21.43h-0.65c0.42,10.3,0.94,20.04,0.94,30.44v66.7h-7.07V2287.11z M1288.65,2293.56h-34.18v-6.45h75.86v6.45
		h-34.18v100.92h-7.49V2293.56z M1408.87,2353.29v-66.19h7.49v65.34c0,28.58,13.39,37.18,28.58,37.18c15.47,0,29.2-8.6,29.2-37.18
		v-65.34h7.1v66.19c0,33.53-17.79,43.14-36.3,43.14C1426.43,2396.43,1408.87,2386.82,1408.87,2353.29z M1570.85,2287.11h30.69
		c21.34,0,35.32,7.82,35.32,28.35c0,19.57-13.98,29.72-35.32,29.72h-23.2v49.3h-7.49V2287.11z M1599.58,2338.85
		c19,0,29.56-7.53,29.56-23.4c0-16.16-10.56-22.03-29.56-22.03h-21.25v45.43H1599.58z M1599.86,2342.98l7.17-2.15l31.89,53.65h-8.7
		L1599.86,2342.98z M1717.81,2287.11h58.75v6.45h-51.26v40.67h43.05v6.45h-43.05v47.35h52.89v6.45h-60.38V2287.11z M1851.77,2380.25
		l4.82-5.15c7.79,8.81,19,14.52,31.51,14.52c16.39,0,26.73-8.78,26.73-21.57c0-13.41-8.75-17.68-19.33-22.44l-16.27-7.3
		c-9.35-4.12-21.79-10.8-21.79-26.7c0-15.59,13.37-26.46,31.22-26.46c12.93,0,23.36,5.88,29.91,12.86l-4.34,4.98
		c-6.28-6.66-14.83-11.03-25.58-11.03c-14.18,0-23.69,7.58-23.69,19.19c0,12.53,10.72,17.26,18.58,20.71l16.24,7.25
		c12.02,5.36,22.6,11.99,22.6,28.41c0,16.46-13.52,28.9-34.35,28.9C1872.33,2396.43,1860.24,2389.78,1851.77,2380.25z"/>
	<path class="st0" d="M2035.13,1677.35l-263.82-731.21l209.18-227.46l43.3-245.4l0.51-2.86l-109.28-154.95l-230.46,138.59
		l-242.32-7.46L934.8,780.78l-35.01,183.27l-274.27,352.63l100.55,134.07l23.09,88.15l26.38,9.36l-0.44,0.18l48.02,119.01
		l122.6,62.38l209.25-142.95l370.82-131.71L2035.13,1677.35z M1505.98,558.65l-5.15,5.92l-0.59,0.35l0.22,0.07l-316.57,363.76
		l-146.79-27.4l-85.95-114.6l491.13-323.43L1505.98,558.65z M1514.02,570.69l238.28,356.67l-550.37,1.94L1514.02,570.69z
		 M1172.57,940.84l-67.09,70.16l-58.04-93.52L1172.57,940.84z M1113.34,1023.01l76.19-79.68l564.74-2L1523,1428.6L1113.34,1023.01z
		 M2010.97,1651.56l-479.13-209l229.37-483.25L2010.97,1651.56z M1769.32,927.66l-234.69-351.29l426.88,142.29L1769.32,927.66z
		 M2009.53,473.72l-41.03,232.54l-435.04-145.01l377.64-227.11L2009.53,473.72z M1519.31,553.45l-61.72-92.38l204.86,6.3
		L1519.31,553.45z M945,801.84l82.36,109.82l64.94,104.62l-175.58-66.37L945,801.84z M912.89,969.98l1.17-6.14l169.43,64.04
		L664,1289.98L912.89,969.98z M733.2,1436.96L688.98,1378l126.95-25.39L733.2,1436.96z M740.25,1449.72L857.67,1330l-177.99,35.6
		l-35.21-46.95l457.93-286.11l0.71,1.15l0.56-0.59l414.16,410.05l-367.25,130.44l-267.57-2.03l-122.21-43.36L740.25,1449.72z
		 M944.68,1713.62l-110.56-56.25l-41.59-103.07l88.04,31.24l248.83,1.89L944.68,1713.62z"/>
</g>
<g>
</g>
<g>
</g>
<g>
</g>
<g>
</g>
<g>
</g>
<g>
</g>
</svg>
