<?xml version="1.0" encoding="UTF-8"?>
<svg xmlns="http://www.w3.org/2000/svg" width="160" height="164" viewBox="0 0 160 164" fill="none">
  <path d="M9.88417 82.7297L12.3552 80.2587L9.88417 77.7876L7.41313 80.2587L9.88417 82.7297ZM7.41313 85.2008L4.94209 82.7297L2.47104 85.2008L0 82.7297L9.88417 73L19.7683 82.8842L17.2973 85.3552L14.8263 82.8842L12.3552 85.3552L14.8263 87.8263L12.3552 90.2973L9.88417 87.8263L7.41313 90.2973L4.94209 87.8263L7.41313 85.3552V85.2008Z" fill="#00ADEE"></path>
  <path d="M59.3051 81.1853V82.8842H58.0695V87.8262H55.5985V82.8842H54.363V87.8262H51.8919V82.8842H50.6564V87.8262H44.9421L44.1699 86.1274V82.8842H42.4711V87.8262H40V77.9421H46.4865V79.6409H42.3166V81.3398H46.4865V86.2818H48.1854V81.3398H51.8919V79.6409H54.363V81.3398H55.5985V79.6409H58.0695V81.3398H59.3051V81.1853ZM39.2278 82.8842H36.7568V84.583H39.2278V82.8842ZM69.6526 77.9421H67.1815V79.6409H69.6526V77.9421ZM69.6526 87.6718V81.1853H67.1815V87.6718H69.6526ZM76.9112 82.8842V87.8262H74.4402V82.8842H73.2047V87.8262H70.7336V81.3398H79.6912L80.4634 83.0386V87.9807H77.9923V83.0386H76.7568L76.9112 82.8842ZM35.9846 77.9421H33.5136V87.8262H35.9846V77.9421ZM61.7761 82.8842H63.4749V86.1274H61.7761V82.8842ZM65.946 87.6718V81.1853H60.2317L59.4595 82.8842V86.1274L60.2317 87.8262H65.946V87.6718ZM29.807 87.6718H32.278V77.9421H27.7993L24.556 87.8262H27.0271L28.2626 84.583H29.9614V87.8262L29.807 87.6718ZM29.807 79.4865V82.7297H28.5715L29.807 79.4865Z" fill="#005AA9"></path>
  <path d="M85.0965 79.4865H87.5676V81.1853H88.8031V82.8841H87.5676V87.6718H85.0965V82.8841H83.861V81.1853H85.0965V79.4865Z" fill="#005AA9"></path>
  <path d="M91.2741 83.6564H92.973V82.8842H91.2741V83.6564ZM91.2741 85.3552V86.1274H95.444V87.8262H89.7297L88.9575 86.1274V82.8842L89.7297 81.1853H94.6718L95.444 82.8842V85.3552H91.2741Z" fill="#005AA9"></path>
  <path d="M100.232 85.3552V82.8842H98.5329V86.1274H102.703V87.6718H96.9885L96.0618 86.1274V82.8842L96.9885 81.1853H101.776L102.703 82.8842V85.3552H100.232Z" fill="#005AA9"></path>
  <path d="M105.946 77.9421V81.1853H109.189L110.116 82.8842V87.6718H107.645V82.8842H105.946V87.6718H103.475V77.9421H105.946Z" fill="#005AA9"></path>
  <path d="M116.139 81.1853L117.066 82.8842V87.6718H114.595V82.8842H113.359V87.6718H110.888V81.1853H116.139Z" fill="#005AA9"></path>
  <path d="M138.378 86.1274H140.077V82.8842H138.378V86.1274ZM142.394 81.1853V88.5984L141.622 90.2973H135.907V88.5984H140.077V87.8262H136.834L136.062 86.1274V82.8842L136.834 81.1853H142.548H142.394Z" fill="#005AA9"></path>
  <path d="M145.637 79.4865H143.166V77.7876H145.637V79.4865ZM143.321 81.1853H145.792V87.6718H143.321V81.1853Z" fill="#005AA9"></path>
  <path d="M148.88 83.6564H150.579V82.8842H148.88V83.6564ZM148.88 85.3552V86.1274H153.05V87.8262H147.336L146.564 86.1274V82.8842L147.336 81.1853H152.278L153.05 82.8842V85.3552H148.88Z" fill="#005AA9"></path>
  <path d="M160 82.8842H156.293V83.6564H160V86.1274L159.228 87.6718H153.822V86.1274H157.529V85.3552H153.822V82.8842L154.595 81.1853H160V82.8842Z" fill="#005AA9"></path>
  <path d="M127.722 77.9421H125.251V87.8262H127.722V77.9421Z" fill="#005AA9"></path>
  <path d="M129.421 87.6718H134.363L135.135 85.973V82.7297L134.363 81.0309H129.421L128.649 82.7297V85.973L129.421 87.6718ZM130.965 82.8842H132.664V86.1274H130.965V82.8842Z" fill="#005AA9"></path>
  <path d="M118.765 87.6718H123.707L124.479 85.973V82.7297L123.707 81.0309H118.765L117.992 82.7297V85.973L118.765 87.6718ZM120.309 82.8842H122.008V86.1274H120.309V82.8842Z" fill="#005AA9"></path>
</svg>
