<?xml version="1.0" encoding="UTF-8"?>
<svg id="Layer_2" data-name="Layer 2" xmlns="http://www.w3.org/2000/svg" viewBox="0 0 553.94 254.6">
  <defs>
    <style>
      .cls-1 {
        fill: #111;
      }

      .cls-2 {
        stroke: #000;
        stroke-miterlimit: 10;
        stroke-width: 1.15px;
      }
    </style>
  </defs>
  <g id="Layer_1-2" data-name="Layer 1">
    <g>
      <g>
        <rect class="cls-1" x="41.6" y="230.88" width="171.39" height="23.71"/>
        <rect class="cls-1" y="44.27" width="23.71" height="166.05"/>
        <rect class="cls-1" x="230.88" y="44.27" width="23.71" height="166.05"/>
        <rect class="cls-1" x="41.6" width="171.39" height="23.71"/>
        <path class="cls-1" d="M185.4,209.2h23.61v-80.02c0-45.05-36.65-81.71-81.71-81.71s-81.71,36.65-81.71,81.71v80.02h23.61v-23.67c0-32.04,26.07-58.1,58.1-58.1s58.1,26.07,58.1,58.1v23.67ZM127.3,103.82c-22.68,0-43.23,9.3-58.05,24.27.59-31.53,26.38-57.01,58.05-57.01s57.46,25.48,58.05,57.01c-14.82-14.98-35.37-24.27-58.05-24.27Z"/>
      </g>
      <g>
        <path class="cls-2" d="M324.42,140.66c.26,2.8.7,5.31,1.31,7.53.61,2.23,1.55,4.1,2.82,5.63,1.26,1.53,2.88,2.69,4.85,3.47s4.43,1.18,7.4,1.18c5.41,0,9.34-1.64,11.79-4.91,2.44-3.27,3.67-7.93,3.67-13.95v-60.26h19.52v61.44c0,5.68-.83,10.68-2.49,15-1.66,4.32-3.99,7.93-7.01,10.81-3.01,2.89-6.66,5.04-10.94,6.49-4.28,1.44-9.04,2.16-14.28,2.16-11.53,0-20.31-2.8-26.33-8.39-6.03-5.59-9.3-14.32-9.82-26.2h19.52Z"/>
        <path class="cls-2" d="M393.85,79.35h33.67c6.9,0,12.6.65,17.1,1.97,4.5,1.31,8.06,3.1,10.68,5.37,2.62,2.27,4.43,4.94,5.44,7.99,1.01,3.06,1.51,6.37,1.51,9.95s-.78,7.12-2.36,10.35c-1.57,3.23-4.54,5.98-8.91,8.25,2.8,1.49,5.09,3.03,6.88,4.65,1.79,1.61,3.19,3.34,4.19,5.17,1,1.83,1.7,3.71,2.1,5.64.39,1.92.59,3.85.59,5.77,0,3.93-.59,7.64-1.77,11.13-1.18,3.49-3.14,6.51-5.9,9.04-2.75,2.53-6.35,4.54-10.81,6.03-4.45,1.49-9.95,2.23-16.5,2.23h-35.89v-93.53ZM429.75,116.42c5.15,0,8.69-.96,10.61-2.88,1.92-1.92,2.88-4.67,2.88-8.25,0-3.84-1.24-6.57-3.73-8.19-2.49-1.61-6.7-2.42-12.64-2.42h-14.15v21.74h17.03ZM429.09,157.56c3.23,0,5.91-.3,8.06-.92,2.14-.61,3.86-1.51,5.18-2.69,1.31-1.18,2.22-2.55,2.75-4.13.52-1.57.78-3.36.78-5.37,0-4.02-1.09-7.08-3.27-9.17-2.19-2.09-6.03-3.14-11.53-3.14h-18.34v25.41h16.38Z"/>
        <path class="cls-2" d="M478.61,79.35h33.14c7.33,0,13.38.85,18.14,2.56,4.76,1.7,8.49,3.93,11.2,6.68,2.7,2.75,4.58,5.81,5.63,9.17,1.05,3.36,1.57,6.66,1.57,9.89,0,6.03-1.1,11.09-3.28,15.2-2.18,4.11-5.85,7.56-11,10.35l18.99,39.69h-21.09l-15.72-35.11h-18.34v35.11h-19.26v-93.53ZM513.06,121.53c3.06,0,5.59-.32,7.6-.98,2.01-.66,3.6-1.57,4.78-2.75,1.18-1.18,1.99-2.6,2.43-4.26s.65-3.49.65-5.5c0-1.66-.26-3.25-.78-4.78s-1.42-2.88-2.69-4.06c-1.27-1.18-3.01-2.1-5.24-2.75s-5.04-.98-8.45-.98h-13.49v26.07h15.19Z"/>
      </g>
    </g>
  </g>
</svg>