<?xml version="1.0" encoding="UTF-8"?>
<svg id="Alshaya_Group" xmlns="http://www.w3.org/2000/svg" xmlns:xlink="http://www.w3.org/1999/xlink" version="1.1" viewBox="0 0 854.51 622">
  <!-- Generator: Adobe Illustrator 29.8.2, SVG Export Plug-In . SVG Version: 2.1.1 Build 3)  -->
  <defs>
    <style>
      .st0 {
        fill: #9bb7da;
      }

      .st1 {
        fill: none;
      }

      .st2 {
        fill: #2780b9;
      }

      .st3 {
        fill: #2880b9;
      }

      .st4 {
        fill: #017ab5;
      }

      .st5 {
        fill: #c0d1e7;
      }

      .st6 {
        fill: #aec4e1;
      }

      .st7 {
        fill: #1f7eb7;
      }

      .st8 {
        fill: #4789bf;
      }

      .st9 {
        fill: #0078b4;
      }

      .st10 {
        fill: #d8e2f0;
      }

      .st11 {
        fill: #dfe6f2;
      }

      .st12 {
        fill: #167cb6;
      }

      .st13 {
        fill: #94b3d8;
      }

      .st14 {
        fill: #cedaec;
      }

      .st15 {
        fill: #1d7eb7;
      }

      .st16 {
        fill: #a8c0df;
      }

      .st17 {
        fill: #0078b3;
      }

      .st18 {
        fill: #6999c9;
      }

      .st19 {
        fill: #719ecc;
      }

      .st20 {
        fill: #3182bb;
      }

      .st21 {
        fill: #f9fbfd;
      }

      .st22 {
        fill: #0079b4;
      }

      .st23 {
        fill: #729fcc;
      }

      .st24 {
        fill: #3783bb;
      }

      .st25 {
        fill: #1b7db7;
      }

      .st26 {
        fill: #127cb6;
      }

      .st27 {
        fill: #98b6d9;
      }

      .st28 {
        fill: #76a1ce;
      }

      .st29 {
        fill: #2980b9;
      }

      .st30 {
        fill: #0e7cb6;
      }

      .st31 {
        fill: #2e81ba;
      }

      .st32 {
        fill: #3f86bd;
      }

      .st33 {
        fill: #5a92c5;
      }

      .st34 {
        fill: #ecf1f8;
      }

      .st35 {
        fill: #4f8dc1;
      }

      .st36 {
        fill: #5d93c5;
      }

      .st37 {
        fill: #fcfdff;
      }

      .st38 {
        fill: #709ecc;
      }

      .st39 {
        fill: #74a0cd;
      }

      .st40 {
        fill: #eef1f8;
      }

      .st41 {
        fill: #bfcfe7;
      }

      .st42 {
        fill: #5690c3;
      }

      .st43 {
        fill: #528ec3;
      }

      .st44 {
        fill: #dae3f1;
      }

      .st45 {
        fill: #d4dfee;
      }

      .st46 {
        fill: #6296c7;
      }

      .st47 {
        fill: #3d85bd;
      }

      .st48 {
        fill: #518dc2;
      }

      .st49 {
        fill: #e6ecf5;
      }

      .st50 {
        fill: #7aa3ce;
      }

      .st51 {
        fill: #4c8bc1;
      }

      .st52 {
        fill: #5b92c5;
      }

      .st53 {
        fill: #99b6d9;
      }

      .st54 {
        fill: #9fbadc;
      }

      .st55 {
        fill: #3081ba;
      }

      .st56 {
        fill: #f5f8fc;
      }

      .st57 {
        fill: #3b85bc;
      }

      .st58 {
        fill: #c8d6ea;
      }

      .st59 {
        fill: #2580b9;
      }

      .st60 {
        fill: #d0dbec;
      }

      .st61 {
        fill: #6f9dcb;
      }

      .st62 {
        fill: #6899c9;
      }

      .st63 {
        fill: #adc3e0;
      }

      .st64 {
        fill: #0a7bb6;
      }

      .st65 {
        fill: #a4bede;
      }

      .st66 {
        fill: #bdcee6;
      }

      .st67 {
        fill: #3984bc;
      }

      .st68 {
        fill: #f6f8fc;
      }

      .st69 {
        fill: #88add4;
      }

      .st70 {
        fill: #187db7;
      }

      .st71 {
        fill: #87abd3;
      }

      .st72 {
        fill: #5e93c5;
      }

      .st73 {
        fill: #8fb1d7;
      }

      .st74 {
        fill: #b7cae4;
      }

      .st75 {
        fill: #6798c9;
      }

      .st76 {
        fill: #4086bd;
      }

      .st77 {
        fill: #2c80b9;
      }

      .st78 {
        fill: #aac1df;
      }

      .st79 {
        fill: #5991c5;
      }

      .st80 {
        fill: #6698c8;
      }

      .st81 {
        fill: #dde4f1;
      }

      .st82 {
        fill: #24588d;
      }

      .st83 {
        fill: #3683bb;
      }

      .st84 {
        fill: #a6bfde;
      }

      .st85 {
        fill: #8baed5;
      }

      .st86 {
        fill: #c5d4e9;
      }

      .st87 {
        fill: #7ea5d0;
      }

      .st88 {
        fill: #c3d3e9;
      }

      .st89 {
        clip-path: url(#clippath-1);
      }

      .st90 {
        fill: #d2ddee;
      }

      .st91 {
        fill: #2a80b9;
      }

      .st92 {
        fill: #9db9db;
      }

      .st93 {
        fill: #c7d5e9;
      }

      .st94 {
        fill: #b2c8e3;
      }

      .st95 {
        fill: #1a7db7;
      }

      .st96 {
        fill: #a0bbdc;
      }

      .st97 {
        fill: #b5c9e3;
      }

      .st98 {
        fill: #78a2ce;
      }

      .st99 {
        fill: #6a9aca;
      }

      .st100 {
        fill: #fff;
      }

      .st101 {
        fill: #4588bf;
      }

      .st102 {
        fill: #7da5d0;
      }

      .st103 {
        fill: #cfdbec;
      }

      .st104 {
        fill: #237fb8;
      }

      .st105 {
        fill: #e3e9f4;
      }

      .st106 {
        fill: #cdd9ec;
      }

      .st107 {
        fill: #4e8cc1;
      }

      .st108 {
        fill: #6497c8;
      }

      .st109 {
        fill: #eff2f8;
      }

      .st110 {
        fill: #6597c8;
      }

      .st111 {
        fill: #a1bcdc;
      }

      .st112 {
        fill: #a2bcdc;
      }

      .st113 {
        fill: #b1c6e2;
      }

      .st114 {
        fill: #6e9ccb;
      }

      .st115 {
        fill: #3382bb;
      }

      .st116 {
        fill: #89add4;
      }

      .st117 {
        fill: #d3deee;
      }

      .st118 {
        fill: #95b4d8;
      }

      .st119 {
        fill: #79a2ce;
      }

      .st120 {
        fill: #bccde5;
      }

      .st121 {
        fill: #80a7d1;
      }

      .st122 {
        fill: #e8edf6;
      }

      .st123 {
        fill: #e0e6f2;
      }

      .st124 {
        fill: #4d8cc1;
      }

      .st125 {
        fill: #5f94c6;
      }

      .st126 {
        fill: #91b2d7;
      }

      .st127 {
        fill: #538ec3;
      }

      .st128 {
        fill: #7fa6d0;
      }

      .st129 {
        fill: #6396c7;
      }

      .st130 {
        fill: #cbd8eb;
      }

      .st131 {
        fill: #4689bf;
      }

      .st132 {
        fill: #c2d2e8;
      }

      .st133 {
        fill: #85aad3;
      }

      .st134 {
        fill: #86abd3;
      }

      .st135 {
        fill: #508dc1;
      }

      .st136 {
        fill: #dce4f1;
      }

      .st137 {
        fill: #b6cae4;
      }

      .st138 {
        fill: #217fb8;
      }

      .st139 {
        fill: #4889bf;
      }

      .st140 {
        fill: #3c85bc;
      }

      .st141 {
        fill: #4a8bc0;
      }

      .st142 {
        fill: #4288be;
      }

      .st143 {
        fill: #558fc3;
      }

      .st144 {
        fill: #5c92c5;
      }

      .st145 {
        fill: #6195c7;
      }

      .st146 {
        fill: #84aad3;
      }

      .st147 {
        fill: #548fc3;
      }

      .st148 {
        fill: #ebeff7;
      }

      .st149 {
        fill: #80a6d0;
      }

      .st150 {
        fill: #d5dfee;
      }

      .st151 {
        fill: #6b9bca;
      }

      .st152 {
        fill: #93b3d8;
      }

      .st153 {
        fill: #6095c7;
      }

      .st154 {
        fill: #bbcde5;
      }

      .st155 {
        fill: #82a8d2;
      }

      .st156 {
        fill: #a9c0df;
      }

      .st157 {
        fill: #75a0cd;
      }

      .st158 {
        fill: #3582bb;
      }

      .st159 {
        fill: #cad7eb;
      }

      .st160 {
        fill: #3482bb;
      }

      .st161 {
        fill: #abc3e0;
      }

      .st162 {
        fill: #92b2d7;
      }

      .st163 {
        fill: #afc5e1;
      }

      .st164 {
        fill: #becfe7;
      }

      .st165 {
        fill: #a3bddd;
      }

      .st166 {
        fill: #057bb5;
      }

      .st167 {
        fill: #4187be;
      }

      .st168 {
        fill: #fafbfd;
      }

      .st169 {
        fill: #e2e9f4;
      }

      .st170 {
        fill: #f1f4f9;
      }

      .st171 {
        fill: #0077b3;
      }

      .st172 {
        fill: #e7ecf5;
      }

      .st173 {
        fill: #83a9d2;
      }

      .st174 {
        fill: #97b5d9;
      }

      .st175 {
        fill: #739fcc;
      }

      .st176 {
        fill: #5790c3;
      }

      .st177 {
        fill: #d6e0ef;
      }

      .st178 {
        fill: #c4d3e9;
      }

      .st179 {
        fill: #7ba3cf;
      }

      .st180 {
        fill: #7ca4cf;
      }

      .st181 {
        fill: #147db7;
      }

      .st182 {
        fill: #b8cbe4;
      }

      .st183 {
        fill: #f2f5f9;
      }

      .st184 {
        fill: #81a8d2;
      }

      .st185 {
        fill: #b4c8e3;
      }

      .st186 {
        fill: #0079b5;
      }

      .st187 {
        fill: #8aaed5;
      }

      .st188 {
        fill: #5891c4;
      }

      .st189 {
        fill: #9cb8da;
      }

      .st190 {
        clip-path: url(#clippath);
      }

      .st191 {
        fill: #8eafd5;
      }

      .st192 {
        fill: #4488be;
      }

      .st193 {
        fill: #90b1d7;
      }

      .st194 {
        fill: #498abf;
      }

      .st195 {
        fill: #e5eaf4;
      }

      .st196 {
        fill: #8cafd5;
      }

      .st197 {
        fill: #a7bfde;
      }

      .st198 {
        fill: #3884bc;
      }

      .st199 {
        fill: #709dcb;
      }

      .st200 {
        fill: #0a7bb5;
      }

      .st201 {
        fill: #9ab7da;
      }

      .st202 {
        fill: #b0c6e2;
      }

      .st203 {
        fill: #6c9bca;
      }

      .st204 {
        fill: #6b9aca;
      }

      .st205 {
        fill: #007ab5;
      }
    </style>
    <clipPath id="clippath">
      <path class="st1" d="M405.38,237.61h51.63l-13.44-27.82c-11.64,1.1-28.66,5.82-38.19,27.82"/>
    </clipPath>
    <clipPath id="clippath-1">
      <rect class="st1" x="401.88" y="198.83" width="58.63" height="49.73" transform="translate(-54.2 242.74) rotate(-29.67)"/>
    </clipPath>
  </defs>
  <g>
    <path class="st82" d="M309.38,377c0,9.13-2.2,10.94-8.14,10.94-3.42,0-6.11-2.15-7.74-3.7v-15.22h-.24c-3.66,0-6.68,4.24-6.68,7.98,0,7.4-5.98,10.17-14.52,10.17h-10.18c-5.62,0-6.59-3.91-6.59-8.63v-41.35h-.24c-3.66,0-6.68,4.23-6.68,7.97l-.08,34.35c0,10.42,5.7,15.38,12.62,15.38h11.04c5.78,0,14.46,0,18.54-6.17,2.36,4.23,5.45,6.09,10.34,6.09,5.21,0,9.12-2.44,11.88-6.19,1.3,4.88,6.43,6.11,11.07,6.11,5.29,0,9.44-3.26,11.31-5.86,2.2,5.13,6.43,6.02,10.26,6.02h8.91c9.6,0,10.83-7.08,10.83-14v-29.79l3.17-3.42-4.56-10.26-7.4,7.33c1.73,3.18,1.86,13.42,1.87,15.67v26.73h-11.59c-3.75,0-7.41.32-9.44-1.71v-21.96h-.24c-3.66,0-6.67,4.23-6.67,7.98v6.17c0,7.08-1.95,9.52-7.57,9.52-3.01,0-5.05-1.63-6.35-3.17v-17.3h-.24c-3.66,0-6.67,4.23-6.67,7.98v2.32Z"/>
    <path class="st82" d="M313.21,350.79l4.47-4.48v-.32c-.97-1.39-3.58-3.83-4.56-4.24h-.33c.65,0-4.39,3.42-4.39,4.64v.33c1.87.81,3.74,4.07,4.48,4.07h.33Z"/>
    <path class="st82" d="M308.32,350.3h-.32c-.65,0-4.4,4.8-4.4,4.64v.33c1.63.73,3.58,2.85,4.48,4.07h.33c.9-.9,3.01-3.34,4.48-4.48v-.32c-.98-1.38-3.58-3.83-4.56-4.23"/>
    <path class="st82" d="M318.09,359.34h.32l4.48-4.48v-.32c-.97-1.38-3.58-3.83-4.56-4.23h-.33c.65,0-4.39,3.42-4.39,4.64v.33c1.87.81,3.74,4.07,4.48,4.07"/>
    <path class="st82" d="M427.5,357.47h.33l4.48-4.48v-.32c-.98-1.38-3.58-3.82-4.56-4.23h-.33c.65,0-4.39,3.42-4.39,4.64v.33c1.87.81,3.74,4.07,4.48,4.07"/>
    <path class="st82" d="M417.49,357.47h.32c.9-.9,3.01-3.34,4.48-4.48v-.32c-.98-1.38-3.58-3.82-4.56-4.23h-.33c-.65,0-4.4,4.8-4.4,4.64v.33c1.63.73,3.58,2.85,4.48,4.07"/>
    <path class="st82" d="M219.33,409.64c.89-.9,3.01-3.34,4.47-4.48v-.32c-.97-1.38-3.58-3.83-4.56-4.23h-.33c-.65,0-4.39,4.8-4.39,4.64v.32c1.63.73,3.58,2.85,4.48,4.07h.33Z"/>
    <path class="st82" d="M423.27,385.55c-8.22,0-11.48-2.44-11.48-4.23,0-2.93,6.79-8.17,15.63-11.98l-.16,15.88c-.98.23-2.22.32-3.99.32M462.01,377.98c0-6.27,3.5-9.12,9.93-9.2,2.85-.08,7,.74,10.17,3.5l2.69-5.29c-2.85-3.25-7.97-4.72-12.37-4.8-9.44-.16-17.66,7.25-17.66,16.04,0,3.74,1.14,6.68,2.93,8.95h-17.74c-5.13,0-5.61-1.06-5.61-6.27v-22.06h-.25c-2.56,0-4.81,2.08-5.92,4.61-16.66,4.95-19.89,11.97-20.37,19.07-.65,6.51,3.82,9.77,10.58,9.77,3.15,0,6.29-1.79,8.88-4.05v.64c.65,5.13,4.31,6.02,9.85,6.02h21.41c8.47,0,15.71-1.14,24.58-2.2l3.66-7.08c-8.14.49-10.99,1.55-17.5,1.55-3.9,0-7.25-5.62-7.25-9.2"/>
    <path class="st82" d="M379.7,345.17v50.14h.24c3.66,0,6.68-4.23,6.68-7.97v-50.14h-.25c-3.66,0-6.67,4.23-6.67,7.97"/>
    <path class="st82" d="M603.56,402.89c-.9-.9-1.63-1.47-2.2-1.71h-.33c-.08,0-.32.24-.81.73l-1.46,1.47c-.57.57-1.06,1.06-1.46,1.63-.41.49-.65.73-.65.81v.32c.9.41,1.71,1.06,2.52,1.87.81.81,1.14,2.2,1.95,2.2h.33l.9-.9,1.22-1.3,1.22-1.22,1.14-1.06v-.32c-.57-.81-1.39-1.63-2.36-2.52"/>
    <path class="st82" d="M229.26,400.61h-.32c.65,0-4.4,3.42-4.4,4.64v.32c1.87.81,3.75,4.07,4.48,4.07h.32l4.48-4.48v-.32c-.97-1.38-3.58-3.83-4.56-4.23"/>
    <path class="st82" d="M649.67,384.36c.7-5.92,3.07-13.88,8.51-13.88s9.53,10.67,9.53,17.18c-7.47.41-13.72-1.26-18.04-3.3M560.83,388.23c-5.29,0-10.5-2.77-14.25-7.08.98-2.52,3.91-9.44,7.98-9.44,5.13,0,10.42,9.36,10.42,11.48,0,2.69-1.14,5.05-4.15,5.05M509.95,387.17c-7.65,0-9.77.73-9.36-6.1.41-6.51,3.26-10.59,8.3-10.59,6.27,0,7.49,7.09,8.39,16.69h-7.33ZM659.07,364.46c-9.85,0-15.14,11.89-15.87,20.92-.16,3.05-5.24,1.74-9.52,1.79h-6.67c-4.15,0-6.68-1.71-6.75-3.82h3.25l4.15-7.25h-3.66c-10.01,0-16.93-12.45-29.95-12.45-3.91,0-6.59,2.77-10.58,8.95l3.26,2.04c2.2-2.28,5.13-4.23,7.49-4.23,5.05,0,15.71,7.32,19.78,9.36-8.63,4.64-12.05,7.41-24.58,7.41h-12.05c-1.38,0-2.93-.98-2.93-.98-4.48-4.07-9.6-21.73-19.13-21.73-11.8,0-11.15,21.9-22.55,22.71h-8.95c-.65-11.64-5.7-22.71-14-22.71-8.79,0-15.63,10.58-15.63,20.11,0,6.43,2.53,10.26,11.97,10.34h11.48c-3.74,5.78-10.83,11.72-25.88,12.21l-.08.57,5.78,1.79,5.13,1.14c9.77,2.36,17.42-6.84,21.25-15.71h10.34c4.24,0,7.41-3.58,9.04-7.73,5.29,6.43,10.74,8.06,16.44,8.06,3.09,0,6.59-5.61,7.32-9.6,3.58,6.51,7.49,9.28,10.75,9.28h13.76c11.31,0,19.54-8.38,25.88-11.48-1.14,7.16,2.36,11.48,9.36,11.48h12.78c3.05-.14,6.16-2.15,8.72-7.01,7.08,7.54,16.9,7.01,21.24,7.01.73,0,3.82-4.48,3.82-6.84,0-7-4.88-23.61-14.16-23.61"/>
    <path class="st82" d="M187.99,382.21c-1.22-.89-2.44-2.04-3.91-3.42-2.36-2.2-5.37-5.37-7.65-7.73,3.01-.97,7.41-1.71,11.72-1.54,4.8.16,9.11.65,12.37,1.63-1.79,3.42-6.68,8.47-12.45,11.07h-.08ZM229.58,372.44v14.73h-29.38c-2.85,0-5.13-.33-7.08-1.71,6.84-3.91,10.74-10.83,11.48-12.86v-6.27c-2.03-1.95-9.04-4.15-15.71-4.15-7.57,0-18.88.81-18.88,10.66,3.01,3.18,9.11,9.53,11.96,12.37-8.22,4.32-13.43,9.69-13.43,15.06,0,7.57,1.79,18.4,26.21,18.4l4.56-8.79h-2.6c-18.31,0-23.44-4.39-24.82-7.65,1.22-4.56,7.16-8.63,15.06-12.62,4.48,3.33,9.44,5.29,15.95,5.29h22.79c9.61,0,10.83-7.08,10.83-14v-16.44h-.24c-3.66,0-6.67,4.23-6.67,7.98"/>
    <path class="st82" d="M91.49,443.22l-26.57,55.16h3.96c2.18,0,4.15-1.25,5.09-3.22l6.76-14.24h24.58l8.5,17.46h.13l3.7-7.61-23.09-47.55h-3.07ZM93.01,454.94l9.22,19.51h-18.44l9.22-19.51Z"/>
    <path class="st82" d="M327.74,443.22l-26.57,55.16h3.96c2.17,0,4.16-1.25,5.09-3.22l6.76-14.24h24.58l8.5,17.46h.13l3.72-7.57-23.1-47.59h-3.07ZM329.27,454.94l9.22,19.51h-18.44l9.22-19.51Z"/>
    <path class="st82" d="M439.79,443.22l-26.57,55.16h3.96c2.18,0,4.15-1.25,5.09-3.22l6.76-14.24h24.58l8.5,17.46h.13l3.66-7.7-23.04-47.46h-3.07ZM441.32,454.94l9.22,19.51h-18.44l9.22-19.51Z"/>
    <path class="st82" d="M136.82,443.83v54.54h24.21c3.69,0,6.67-2.99,6.67-6.68v-.16h-23.89v-47.71h-6.99Z"/>
    <path class="st82" d="M276.46,443.83v23.28h-30.12v-23.28h-6.99v54.54h1.75c2.9,0,5.24-2.34,5.24-5.24v-19.26h30.12v24.51h6.99v-54.54h-6.99Z"/>
    <path class="st82" d="M397.83,447.23l-13.24,21.19-15.37-24.58h-8.14l19.97,31.42v23.12h7.07v-23.12l19.98-31.42h-4.14c-2.49,0-4.81,1.28-6.13,3.4"/>
    <path class="st82" d="M204.87,468.22l-5.02-2.17c-5.8-2.55-8.12-5.25-8.12-9.28,0-4.56,4.1-7.19,8.74-7.19,1.57,0,2.93.22,4.17.6l5.24-5.24c-2.7-1.35-5.77-2.09-9.18-2.09-8.12,0-16.01,5.41-16.01,13.76,0,6.88,3.64,11.99,11.99,15.54l5.03,2.17c5.88,2.55,8.97,5.18,8.97,10.2s-4.02,7.74-10.36,7.74c-4.24,0-7.93-1.9-10.59-4.39l-5.07,5.07c3.62,3.47,9.24,6.04,15.74,6.04,10.74,0,17.4-6.26,17.4-15.23,0-7.74-5.49-12.3-12.92-15.54"/>
    <path class="st82" d="M504.65,489.62c2.5,2.44,5.41,4.37,8.75,5.78,3.33,1.41,6.93,2.11,10.78,2.11,3.58,0,7.04-.53,10.38-1.59,3.33-1.06,6.25-2.54,8.75-4.44v-25.4h-18.72l-3.18,6.68h14.98v15.22c-1.68.98-3.6,1.71-5.74,2.2-2.14.49-4.3.73-6.47.73-2.93,0-5.64-.53-8.14-1.59-2.5-1.06-4.65-2.52-6.47-4.4-1.82-1.87-3.24-4.08-4.27-6.63-1.03-2.55-1.55-5.32-1.55-8.3s.52-5.67,1.55-8.22c1.03-2.55,2.46-4.76,4.27-6.64,1.82-1.87,3.97-3.35,6.47-4.43,2.5-1.09,5.21-1.63,8.14-1.63s5.56.48,8.06,1.43c2.5.95,4.64,2.27,6.43,3.95l3.01-6.19c-2.39-1.9-5.06-3.33-8.02-4.31-2.96-.98-6.12-1.47-9.49-1.47-3.85,0-7.45.71-10.78,2.12-3.34,1.41-6.25,3.34-8.75,5.78-2.5,2.44-4.45,5.35-5.86,8.71-1.41,3.36-2.12,7-2.12,10.91s.7,7.54,2.12,10.91c1.41,3.36,3.37,6.27,5.86,8.71"/>
    <path class="st82" d="M660.84,478.23c-1.03,2.56-2.45,4.76-4.27,6.64-1.82,1.87-3.99,3.35-6.51,4.43-2.52,1.09-5.25,1.63-8.18,1.63s-5.65-.54-8.14-1.63c-2.5-1.09-4.65-2.56-6.47-4.43-1.82-1.87-3.24-4.09-4.27-6.64-1.03-2.55-1.54-5.29-1.54-8.22s.52-5.67,1.54-8.22c1.03-2.55,2.45-4.76,4.27-6.64,1.82-1.87,3.98-3.35,6.47-4.43,2.49-1.09,5.21-1.63,8.14-1.63s5.66.55,8.18,1.63c2.52,1.08,4.69,2.56,6.51,4.44,1.82,1.87,3.24,4.08,4.27,6.63,1.03,2.55,1.55,5.29,1.55,8.22s-.52,5.67-1.55,8.22M667.28,459.1c-1.41-3.36-3.37-6.27-5.86-8.71-2.5-2.44-5.41-4.37-8.75-5.78-3.34-1.41-6.93-2.12-10.79-2.12s-7.45.71-10.79,2.12c-3.33,1.41-6.25,3.34-8.75,5.78-2.5,2.44-4.45,5.35-5.86,8.71-1.41,3.36-2.12,7-2.12,10.91s.7,7.54,2.12,10.91c1.41,3.37,3.36,6.27,5.86,8.71,2.5,2.44,5.42,4.37,8.75,5.78,3.34,1.41,6.93,2.12,10.79,2.12s7.45-.7,10.79-2.12c3.34-1.41,6.25-3.34,8.75-5.78,2.5-2.44,4.45-5.34,5.86-8.71,1.41-3.36,2.11-7,2.11-10.91s-.7-7.55-2.11-10.91"/>
    <path class="st82" d="M779.63,466.5c-1.96,1.75-4.89,2.62-8.76,2.62h-9.68v-20.02h9.68c3.88,0,6.8.89,8.76,2.67,1.96,1.78,2.95,4.23,2.95,7.35s-.99,5.64-2.95,7.39M784.51,447.16c-1.61-1.4-3.55-2.47-5.81-3.23-2.26-.75-4.79-1.13-7.59-1.13h-16.79v54.4h.32c.92,0,1.77-.24,2.55-.72.78-.49,1.46-1.1,2.06-1.86.59-.75,1.06-1.59,1.41-2.5.35-.92.53-1.83.53-2.74v-13.95h9.92c2.8,0,5.33-.39,7.59-1.17,2.26-.78,4.2-1.87,5.81-3.27,1.62-1.4,2.87-3.11,3.76-5.13.89-2.02,1.33-4.26,1.33-6.74s-.44-4.81-1.33-6.82c-.89-2.02-2.14-3.73-3.76-5.13"/>
    <path class="st82" d="M570.51,449.23h8.23c3.95,0,6.92.89,8.93,2.67,2,1.78,3,4.29,3,7.53s-1,5.54-3,6.91c-2,1.37-4.98,2.06-8.93,2.06h-8.23v-19.17ZM595.53,497.2h8.48l-18.02-23.2c3.67-.93,6.57-2.61,8.68-5.02,2.11-2.41,3.17-5.6,3.17-9.54,0-2.58-.45-4.9-1.36-6.96-.9-2.06-2.18-3.8-3.83-5.22-1.64-1.42-3.63-2.52-5.97-3.29-2.33-.76-4.92-1.15-7.77-1.15h-15.39v54.39h.33c.93,0,1.8-.24,2.59-.74.79-.5,1.49-1.13,2.1-1.89.6-.77,1.08-1.62,1.44-2.55.36-.93.54-1.87.54-2.8v-14.4h7.9l17.12,22.38Z"/>
    <path class="st82" d="M729.47,443.31c-.79.49-1.5,1.12-2.1,1.89-.6.77-1.09,1.62-1.44,2.55-.36.93-.53,1.86-.53,2.8v25.99c0,4.72-1.36,8.28-4.07,10.69-2.71,2.41-6.27,3.62-10.65,3.62s-7.94-1.21-10.65-3.62c-2.71-2.41-4.07-5.98-4.07-10.69v-33.74h-6.99v33.41c0,3.35.53,6.33,1.6,8.97,1.07,2.63,2.56,4.87,4.48,6.7,1.92,1.84,4.21,3.24,6.87,4.19,2.66.96,5.58,1.44,8.76,1.44s6-.47,8.64-1.4c2.63-.94,4.89-2.29,6.79-4.07,1.89-1.78,3.39-3.95,4.48-6.5,1.1-2.55,1.67-5.44,1.73-8.68v-34.3h-.25c-.93,0-1.8.25-2.59.74"/>
  </g>
  <g>
    <path class="st82" d="M405.38,237.61h51.63l-13.44-27.82h-61.73l-45.77,95.01h18.61c11.17-.38,23.5-10.9,30.36-24.96l20.35-42.23"/>
    <path class="st82" d="M455.71,136.61c-3.99-8.26-12.51-13.6-21.68-13.6h-21.81l87.57,181.79,18.66-37.95-62.74-130.24Z"/>
    <g class="st190">
      <g class="st89">
        <rect class="st171" x="393.41" y="187.58" width="75.56" height="72.23"/>
        <path class="st171" d="M451.76,196.19c-1.98-3.48-4.27-6.68-6.81-9.58-1.27-1.45-2.6-2.82-3.99-4.12v4.1h-48.55v74.23h51.36v3.7c1.3-1.39,2.52-2.84,3.67-4.33,4.58-5.99,7.91-12.77,9.87-19.93,3.93-14.32,2.39-30.14-5.54-44.06Z"/>
        <path class="st171" d="M445.72,199.63c-3.49-6.13-8.05-11.25-13.32-15.28v2.23h-39.98v74.23h42.64v2.46c2.55-2.24,4.84-4.69,6.85-7.33,4.03-5.27,6.96-11.24,8.69-17.54,3.46-12.6,2.1-26.52-4.87-38.77Z"/>
        <path class="st171" d="M439.67,203.08c-6.03-10.58-15.77-17.72-26.65-20.7v4.2h-20.6v74.23h30.76v2.4c21.16-12.05,28.54-38.98,16.49-60.14Z"/>
        <path class="st171" d="M439.49,203.18c-6-10.53-15.7-17.63-26.53-20.6v4.01h-20.55v74.23h30.66v2.23c21.06-12,28.41-38.8,16.41-59.86Z"/>
        <path class="st171" d="M439.31,203.28c-5.97-10.48-15.63-17.55-26.41-20.51v3.81h-20.49v74.23h30.56v2.05c20.96-11.94,28.28-38.62,16.34-59.58Z"/>
        <path class="st171" d="M439.14,203.38c-5.94-10.43-15.55-17.47-26.28-20.41v3.62h-20.44v74.23h30.46v1.87c20.87-11.89,28.15-38.44,16.26-59.31Z"/>
        <path class="st171" d="M438.96,203.48c-5.92-10.38-15.48-17.39-26.16-20.32v3.42h-20.38v74.23h30.36v1.7c20.77-11.83,28.02-38.26,16.19-59.03Z"/>
        <path class="st17" d="M438.78,203.58c-5.89-10.34-15.41-17.31-26.04-20.22v3.22h-20.33v74.23h30.26v1.52c20.67-11.78,27.88-38.08,16.11-58.75Z"/>
        <path class="st9" d="M438.61,203.68c-5.86-10.29-15.33-17.23-25.92-20.13v3.03h-20.28v74.23h30.16v1.34c20.57-11.72,27.75-37.9,16.03-58.47Z"/>
        <path class="st9" d="M438.43,203.78c-5.83-10.24-15.26-17.14-25.79-20.03v2.83h-20.22v74.23h30.06v1.17c20.48-11.66,27.62-37.72,15.96-58.2Z"/>
        <path class="st9" d="M438.25,203.88c-5.8-10.19-15.19-17.06-25.67-19.94v2.64h-20.17v74.23h29.96v.99c20.38-11.61,27.49-37.54,15.88-57.92Z"/>
        <path class="st22" d="M438.08,203.98c-5.78-10.14-15.12-16.98-25.55-19.84v2.44h-20.12v74.23h29.86v.82c20.28-11.55,27.36-37.36,15.81-57.64Z"/>
        <path class="st22" d="M437.9,204.08c-5.75-10.09-15.04-16.9-25.43-19.75v2.24h-20.06v74.23h29.76v.64c20.18-11.5,27.23-37.18,15.73-57.37Z"/>
        <path class="st186" d="M437.72,204.18c-5.72-10.04-14.97-16.82-25.3-19.65v2.05h-20.01v74.23h29.66v.46c20.09-11.44,27.1-37,15.65-57.09Z"/>
        <path class="st186" d="M437.55,204.28c-5.69-9.99-14.9-16.74-25.18-19.55v1.85h-19.95v74.23h29.56v.29c19.99-11.39,26.96-36.82,15.58-56.81Z"/>
        <path class="st186" d="M437.37,204.39c-5.67-9.95-14.83-16.65-25.06-19.46v1.66h-19.9v74.23h29.46v.11c19.89-11.33,26.83-36.64,15.5-56.53Z"/>
        <path class="st205" d="M437.19,204.49c-5.64-9.9-14.75-16.57-24.93-19.36v1.46h-19.85v74.23l-1.97,3.87c10.18,2.79,21.43,1.7,31.32-3.94,19.79-11.28,26.7-36.46,15.43-56.26Z"/>
        <path class="st205" d="M437.02,204.59c-5.61-9.85-14.68-16.49-24.81-19.27v1.26h-19.79v74.23l-1.91,3.68c10.13,2.78,21.32,1.69,31.17-3.92,19.7-11.22,26.57-36.28,15.35-55.98Z"/>
        <path class="st4" d="M436.84,204.69c-5.58-9.8-14.61-16.41-24.69-19.17v1.07h-19.74v74.23l-1.86,3.48c10.08,2.76,21.21,1.68,31.01-3.9,19.6-11.16,26.44-36.1,15.27-55.7Z"/>
        <path class="st4" d="M436.66,204.79c-5.55-9.75-14.54-16.33-24.57-19.08v.87h-19.69v74.23l-1.81,3.28c10.03,2.75,21.11,1.67,30.86-3.88,19.5-11.11,26.31-35.92,15.2-55.43Z"/>
        <path class="st166" d="M436.49,204.89c-5.53-9.7-14.46-16.25-24.44-18.98v.68h-19.63v74.23l-1.75,3.09c9.98,2.74,21,1.67,30.71-3.86,19.4-11.05,26.17-35.74,15.12-55.15Z"/>
        <path class="st200" d="M436.31,204.99c-5.5-9.65-14.39-16.16-24.32-18.89v.48h-15.38v-1.64c-2.59.31-5.18.87-7.72,1.7h3.52v74.17l-1.7,2.89c9.93,2.72,20.9,1.66,30.55-3.84,19.31-11,26.04-35.56,15.05-54.87Z"/>
        <path class="st64" d="M436.13,205.09c-5.47-9.6-14.32-16.08-24.2-18.79v.28h-15.3v-1.44c-2.58.31-5.16.87-7.68,1.69h3.46v73.98l-1.64,2.7c9.88,2.71,20.79,1.65,30.4-3.82,19.21-10.94,25.91-35.38,14.97-54.59Z"/>
        <path class="st30" d="M435.96,205.19c-5.44-9.56-14.24-16-24.07-18.7v.09h-15.22v-1.24c-2.57.3-5.13.86-7.64,1.68h3.4v73.78l-1.59,2.5c9.83,2.7,20.69,1.64,30.24-3.8,19.11-10.89,25.78-35.2,14.89-54.32Z"/>
        <path class="st26" d="M435.78,205.29c-5.42-9.51-14.17-15.92-23.95-18.6-4.89-1.34-10.03-1.75-15.15-1.14-2.56.3-5.1.86-7.61,1.68h3.33v73.59l-1.54,2.3c9.78,2.68,20.58,1.63,30.09-3.78,19.01-10.83,25.65-35.03,14.82-54.04Z"/>
        <path class="st12" d="M435.61,205.39c-5.39-9.46-14.1-15.84-23.83-18.51-4.86-1.33-9.98-1.74-15.07-1.14-2.54.3-5.08.85-7.57,1.67h3.27v73.4l-1.48,2.11c9.73,2.67,20.48,1.62,29.93-3.76,18.92-10.78,25.52-34.85,14.74-53.76Z"/>
        <path class="st181" d="M435.43,205.49c-5.36-9.41-14.03-15.76-23.71-18.41-4.84-1.33-9.93-1.73-14.99-1.13-2.53.3-5.05.85-7.53,1.66h3.21v73.2l-1.43,1.91c9.68,2.65,20.37,1.62,29.78-3.74,18.82-10.72,25.39-34.67,14.67-53.49Z"/>
        <path class="st70" d="M435.25,205.59c-5.33-9.36-13.95-15.67-23.58-18.31-4.81-1.32-9.88-1.72-14.91-1.13-2.52.3-5.02.84-7.49,1.65h3.15v73.01l-1.38,1.72c9.63,2.64,20.26,1.61,29.63-3.73,18.72-10.66,25.25-34.49,14.59-53.21Z"/>
        <path class="st25" d="M435.08,205.69c-5.3-9.31-13.88-15.59-23.46-18.22-4.79-1.31-9.83-1.71-14.84-1.12-2.5.3-5,.84-7.45,1.64h3.08v72.82l-1.32,1.52c9.58,2.63,20.16,1.6,29.47-3.71,18.62-10.61,25.12-34.31,14.51-52.93Z"/>
        <path class="st95" d="M434.9,205.79c-5.28-9.26-13.81-15.51-23.34-18.12-4.76-1.31-9.78-1.7-14.76-1.12-2.49.29-4.97.84-7.41,1.63h3.02v72.62l-1.27,1.32c9.53,2.61,20.05,1.59,29.32-3.69,18.53-10.55,24.99-34.13,14.44-52.65Z"/>
        <path class="st15" d="M434.72,205.89c-5.25-9.21-13.74-15.43-23.21-18.03-4.74-1.3-9.73-1.69-14.68-1.11-2.48.29-4.95.83-7.37,1.62h2.96v72.43l-1.22,1.13c9.48,2.6,19.95,1.58,29.16-3.67,18.43-10.5,24.86-33.95,14.36-52.38Z"/>
        <path class="st7" d="M434.55,205.99c-5.22-9.17-13.66-15.35-23.09-17.93-4.71-1.29-9.67-1.69-14.6-1.1-2.46.29-4.92.83-7.33,1.61h2.89v72.24l-1.16.93c9.43,2.59,19.84,1.57,29.01-3.65,18.33-10.44,24.73-33.77,14.29-52.1Z"/>
        <path class="st138" d="M434.37,206.1c-5.19-9.12-13.59-15.27-22.97-17.84-4.69-1.29-9.62-1.68-14.52-1.1-2.45.29-4.89.82-7.29,1.61h2.83v72.04l-1.11.74c9.38,2.57,19.74,1.57,28.85-3.63,18.23-10.39,24.6-33.59,14.21-51.82Z"/>
        <path class="st138" d="M434.19,206.2c-5.17-9.07-13.52-15.18-22.85-17.74-4.66-1.28-9.57-1.67-14.45-1.09-2.44.29-4.87.82-7.25,1.6h2.77v71.85l-1.05.54c9.33,2.56,19.63,1.56,28.7-3.61,18.14-10.33,24.46-33.41,14.13-51.55Z"/>
        <path class="st104" d="M434.02,206.3c-5.14-9.02-13.45-15.1-22.72-17.65-4.64-1.27-9.52-1.66-14.37-1.09-2.42.29-4.84.81-7.22,1.59h2.7v71.66l-1,.34c9.28,2.54,19.53,1.55,28.55-3.59,18.04-10.28,24.33-33.23,14.06-51.27Z"/>
        <path class="st59" d="M433.84,206.4c-5.11-8.97-13.37-15.02-22.6-17.55-4.61-1.27-9.47-1.65-14.29-1.08-2.41.28-4.81.81-7.18,1.58h2.64v71.46l-.95.15c9.23,2.53,19.42,1.54,28.39-3.57,17.94-10.22,24.2-33.05,13.98-50.99Z"/>
        <path class="st2" d="M433.66,206.5c-5.08-8.92-13.3-14.94-22.48-17.46-4.59-1.26-9.42-1.64-14.21-1.07-2.4.28-4.79.8-7.14,1.57h2.58v71.22h-.89c9.18,2.52,19.31,1.53,28.24-3.55,17.84-10.16,24.07-32.87,13.91-50.71Z"/>
        <path class="st29" d="M433.49,206.6c-5.05-8.87-13.23-14.86-22.35-17.36-4.56-1.25-9.37-1.63-14.14-1.07-2.39.28-4.76.8-7.1,1.56h2.52v70.83h-.84c9.13,2.5,19.21,1.52,28.08-3.53,17.75-10.11,23.94-32.69,13.83-50.44Z"/>
        <path class="st3" d="M433.31,206.7c-5.03-8.82-13.15-14.78-22.23-17.27-4.54-1.24-9.31-1.62-14.06-1.06-2.37.28-4.74.8-7.06,1.55h2.45v70.44h-.79c9.08,2.49,19.1,1.51,27.93-3.51,17.65-10.05,23.81-32.51,13.75-50.16Z"/>
        <path class="st91" d="M433.13,206.8c-5-8.78-13.08-14.69-22.11-17.17-4.51-1.24-9.26-1.61-13.98-1.06-2.36.28-4.71.79-7.02,1.55h2.39v70.06h-.73c9.03,2.48,19,1.51,27.77-3.49,17.55-10,23.68-32.33,13.68-49.88Z"/>
        <path class="st77" d="M432.96,206.9c-4.97-8.73-13.01-14.61-21.99-17.07-4.49-1.23-9.21-1.61-13.9-1.05-2.35.28-4.68.79-6.98,1.54h2.33v69.67h-.68c8.98,2.46,18.89,1.5,27.62-3.47,17.45-9.94,23.54-32.15,13.6-49.61Z"/>
        <path class="st31" d="M432.78,207c-4.94-8.68-12.94-14.53-21.86-16.98-4.46-1.22-9.16-1.6-13.83-1.04-2.33.28-4.66.78-6.94,1.53h2.26v69.28h-.62c8.93,2.45,18.79,1.49,27.47-3.45,17.36-9.89,23.41-31.97,13.53-49.33Z"/>
        <path class="st55" d="M432.6,207.1c-4.92-8.63-12.86-14.45-21.74-16.88-4.44-1.22-9.11-1.59-13.75-1.04-2.32.27-4.63.78-6.9,1.52h2.2v68.89h-.57c8.88,2.43,18.68,1.48,27.31-3.43,17.26-9.83,23.28-31.79,13.45-49.05Z"/>
        <path class="st55" d="M432.43,207.2c-4.89-8.58-12.79-14.37-21.62-16.79-4.41-1.21-9.06-1.58-13.67-1.03-2.31.27-4.61.77-6.86,1.51h2.14v68.5h-.52c8.83,2.42,18.58,1.47,27.16-3.41,17.16-9.78,23.15-31.61,13.37-48.77Z"/>
        <path class="st20" d="M432.25,207.3c-4.86-8.53-12.72-14.29-21.49-16.69-4.39-1.2-9.01-1.57-13.59-1.03-2.29.27-4.58.77-6.83,1.5h2.08v68.11h-.46c8.78,2.41,18.47,1.46,27-3.4,17.06-9.72,23.02-31.43,13.3-48.5Z"/>
        <path class="st115" d="M432.07,207.4c-4.83-8.48-12.65-14.2-21.37-16.6-4.36-1.2-8.95-1.56-13.52-1.02-2.28.27-4.55.76-6.79,1.49h2.01v67.72h-.41c8.73,2.39,18.36,1.46,26.85-3.38,16.97-9.66,22.89-31.25,13.22-48.22Z"/>
        <path class="st160" d="M431.9,207.5c-4.8-8.43-12.57-14.12-21.25-16.5-4.34-1.19-8.9-1.55-13.44-1.02-2.27.27-4.53.76-6.75,1.49h1.95v67.33h-.36c8.68,2.38,18.26,1.45,26.69-3.36,16.87-9.61,22.75-31.07,13.15-47.94Z"/>
        <path class="st158" d="M431.72,207.6c-4.78-8.39-12.5-14.04-21.13-16.41-4.31-1.18-8.85-1.54-13.36-1.01-2.25.27-4.5.76-6.71,1.48h1.89v66.94h-.3c8.63,2.37,18.15,1.44,26.54-3.34,16.77-9.55,22.62-30.89,13.07-47.67Z"/>
        <path class="st24" d="M431.54,207.7c-4.75-8.34-12.43-13.96-21-16.31-4.29-1.18-8.8-1.53-13.28-1-2.24.26-4.47.75-6.67,1.47h1.82v66.55h-.25c8.58,2.35,18.05,1.43,26.39-3.32,16.67-9.5,22.49-30.71,12.99-47.39Z"/>
        <path class="st83" d="M431.37,207.8c-4.72-8.29-12.35-13.88-20.88-16.22-4.26-1.17-8.75-1.52-13.2-1-2.23.26-4.45.75-6.63,1.46h1.76v66.16h-.19c8.53,2.34,17.94,1.42,26.23-3.3,16.58-9.44,22.36-30.53,12.92-47.11Z"/>
        <path class="st198" d="M431.19,207.91c-4.69-8.24-12.28-13.8-20.76-16.12-4.24-1.16-8.7-1.52-13.13-.99-2.21.26-4.42.74-6.59,1.45h1.7v65.77h-.14c8.48,2.32,17.84,1.41,26.08-3.28,16.48-9.39,22.23-30.36,12.84-46.83Z"/>
        <path class="st67" d="M431.01,208.01c-4.67-8.19-12.21-13.72-20.63-16.03-4.21-1.16-8.65-1.51-13.05-.99-2.2.26-4.4.74-6.55,1.44h1.63v65.38h-.09c8.43,2.31,17.73,1.41,25.92-3.26,16.38-9.33,22.1-30.18,12.77-46.56Z"/>
        <path class="st57" d="M430.84,208.11c-4.64-8.14-12.14-13.63-20.51-15.93-4.19-1.15-8.59-1.5-12.97-.98-2.19.26-4.37.73-6.51,1.43h1.57v65h-.03c8.38,2.3,17.63,1.4,25.77-3.24,16.28-9.28,21.97-30,12.69-46.28Z"/>
        <path class="st140" d="M430.66,208.21c-4.61-8.09-12.06-13.55-20.39-15.83-4.16-1.14-8.54-1.49-12.89-.97-2.18.26-4.34.73-6.47,1.43h1.51v62.31h-6.03c1.94.96,3.97,1.73,6.05,2.3,8.32,2.28,17.52,1.39,25.61-3.22,16.19-9.22,21.83-29.82,12.61-46Z"/>
        <path class="st47" d="M430.49,208.31c-4.58-8.04-11.99-13.47-20.27-15.74-4.14-1.13-8.49-1.48-12.82-.97-2.16.26-4.32.73-6.44,1.42h1.45v61.93h-5.94c1.93.95,3.94,1.72,6.01,2.29,8.27,2.27,17.42,1.38,25.46-3.2,16.09-9.16,21.7-29.64,12.54-45.73Z"/>
        <path class="st32" d="M430.31,208.41c-4.55-8-11.92-13.39-20.14-15.64-4.11-1.13-8.44-1.47-12.74-.96-2.15.25-4.29.72-6.4,1.41h1.38v61.56h-5.85c1.92.95,3.92,1.71,5.98,2.27,8.22,2.26,17.31,1.37,25.31-3.18,15.99-9.11,21.57-29.46,12.46-45.45Z"/>
        <path class="st32" d="M430.13,208.51c-4.53-7.95-11.85-13.31-20.02-15.55-4.09-1.12-8.39-1.46-12.66-.96-2.14.25-4.27.72-6.36,1.4h1.32v61.18h-5.76c1.91.94,3.9,1.7,5.94,2.26,8.17,2.24,17.2,1.36,25.15-3.16,15.89-9.05,21.44-29.28,12.39-45.17Z"/>
        <path class="st76" d="M429.96,208.61c-4.5-7.9-11.77-13.23-19.9-15.45-4.06-1.11-8.34-1.45-12.58-.95-2.12.25-4.24.71-6.32,1.39h1.26v60.81h-5.67c1.89.94,3.87,1.69,5.9,2.24,8.12,2.23,17.1,1.36,25-3.14,15.8-9,21.31-29.1,12.31-44.89Z"/>
        <path class="st167" d="M429.78,208.71c-4.47-7.85-11.7-13.14-19.78-15.36-4.04-1.11-8.29-1.44-12.51-.95-2.11.25-4.21.71-6.28,1.38h1.19v60.43h-5.58c1.88.93,3.85,1.68,5.87,2.23,8.07,2.21,16.99,1.35,24.84-3.12,15.7-8.94,21.18-28.92,12.23-44.62Z"/>
        <path class="st142" d="M429.6,208.81c-4.44-7.8-11.63-13.06-19.65-15.26-4.01-1.1-8.23-1.43-12.43-.94-2.1.25-4.19.7-6.24,1.37h1.13v60.06h-5.49c1.87.92,3.82,1.67,5.83,2.22,8.02,2.2,16.89,1.34,24.69-3.1,15.6-8.89,21.04-28.74,12.16-44.34Z"/>
        <path class="st192" d="M429.43,208.91c-4.42-7.75-11.56-12.98-19.53-15.17-3.99-1.09-8.18-1.43-12.35-.93-2.08.25-4.16.7-6.2,1.37h1.07v59.68h-5.4c1.86.92,3.8,1.66,5.79,2.2,7.97,2.19,16.78,1.33,24.53-3.08,15.5-8.83,20.91-28.56,12.08-44.06Z"/>
        <path class="st101" d="M429.25,209.01c-8.78-15.41-28.38-20.78-43.79-12.01h6.95v56.67h-5.31c1.85.91,3.78,1.65,5.76,2.19,7.92,2.17,16.68,1.32,24.38-3.07,15.41-8.78,20.78-28.38,12.01-43.79Z"/>
        <path class="st131" d="M429.07,209.11c-8.72-15.31-28.2-20.65-43.51-11.93h6.85v56.31h-5.22c1.84.91,3.75,1.63,5.72,2.17,7.87,2.16,16.57,1.31,24.23-3.05,15.31-8.72,20.65-28.2,11.93-43.51Z"/>
        <path class="st8" d="M428.9,209.21c-8.66-15.21-28.02-20.52-43.23-11.85h6.75v55.95h-5.13c1.82.9,3.73,1.62,5.69,2.16,7.82,2.15,16.47,1.31,24.07-3.03,15.21-8.66,20.52-28.02,11.85-43.23Z"/>
        <path class="st139" d="M428.72,209.31c-8.61-15.11-27.84-20.39-42.95-11.78h6.65v55.59h-5.04c1.81.9,3.71,1.61,5.65,2.15,7.77,2.13,16.36,1.3,23.92-3.01,15.11-8.61,20.39-27.84,11.78-42.95Z"/>
        <path class="st194" d="M428.54,209.41c-8.55-15.02-27.66-20.26-42.68-11.7h6.55v55.23h-4.95c1.8.89,3.68,1.6,5.61,2.13,7.72,2.12,16.25,1.29,23.76-2.99,15.02-8.55,20.26-27.66,11.7-42.68Z"/>
        <path class="st141" d="M428.37,209.51c-8.5-14.92-27.48-20.12-42.4-11.63h6.45v54.88h-4.86c1.79.88,3.66,1.59,5.58,2.12,7.67,2.1,16.15,1.28,23.61-2.97,14.92-8.5,20.12-27.48,11.63-42.4Z"/>
        <path class="st141" d="M428.19,209.62c-8.44-14.82-27.3-19.99-42.12-11.55h6.35v54.52h-4.77c1.78.88,3.63,1.58,5.54,2.11,7.62,2.09,16.04,1.27,23.45-2.95,14.82-8.44,19.99-27.3,11.55-42.12Z"/>
        <path class="st51" d="M428.01,209.72c-8.39-14.72-27.12-19.86-41.85-11.47h6.25v54.16h-4.68c1.77.87,3.61,1.57,5.5,2.09,7.57,2.08,15.94,1.26,23.3-2.93,14.72-8.39,19.86-27.12,11.47-41.85Z"/>
        <path class="st124" d="M427.84,209.82c-8.33-14.63-26.94-19.73-41.57-11.4h6.15v53.8h-4.59c1.75.87,3.59,1.56,5.47,2.08,7.52,2.06,15.83,1.26,23.15-2.91,14.63-8.33,19.73-26.94,11.4-41.57Z"/>
        <path class="st107" d="M427.66,209.92c-8.28-14.53-26.76-19.6-41.29-11.32h6.05v53.44h-4.5c1.74.86,3.56,1.55,5.43,2.06,7.47,2.05,15.73,1.25,22.99-2.89,14.53-8.28,19.6-26.76,11.32-41.29Z"/>
        <path class="st35" d="M427.48,210.02c-8.22-14.43-26.58-19.47-41.01-11.25h5.94v53.08h-4.41c1.73.86,3.54,1.54,5.39,2.05,7.42,2.04,15.62,1.24,22.84-2.87,14.43-8.22,19.47-26.58,11.25-41.01Z"/>
        <path class="st135" d="M427.31,210.12c-8.16-14.33-26.4-19.33-40.74-11.17h5.84v52.72h-4.32c1.72.85,3.51,1.53,5.36,2.04,7.37,2.02,15.52,1.23,22.68-2.85,14.33-8.16,19.33-26.4,11.17-40.74Z"/>
        <path class="st48" d="M427.13,210.22c-8.11-14.24-26.22-19.2-40.46-11.09h5.74v52.37h-4.23c1.71.84,3.49,1.52,5.32,2.02,7.32,2.01,15.41,1.22,22.53-2.83,14.24-8.11,19.2-26.22,11.09-40.46Z"/>
        <path class="st43" d="M426.95,210.32c-8.05-14.14-26.04-19.07-40.18-11.02h5.64v52.01h-4.14c1.7.84,3.47,1.51,5.28,2.01,7.27,1.99,15.3,1.21,22.37-2.81,14.14-8.05,19.07-26.04,11.02-40.18Z"/>
        <path class="st127" d="M426.78,210.42c-8-14.04-25.86-18.94-39.91-10.94h5.54v51.65h-4.05c1.68.83,3.44,1.5,5.25,1.99,7.22,1.98,15.2,1.21,22.22-2.79,14.04-8,18.94-25.86,10.94-39.91Z"/>
        <path class="st147" d="M426.6,210.52c-7.94-13.94-25.69-18.81-39.63-10.87h5.44v51.29h-3.95c1.67.83,3.42,1.49,5.21,1.98,7.17,1.97,15.09,1.2,22.07-2.77,13.94-7.94,18.81-25.69,10.87-39.63Z"/>
        <path class="st143" d="M426.42,210.62c-7.89-13.85-25.51-18.68-39.35-10.79h5.34v50.93h-3.86c1.66.82,3.39,1.48,5.17,1.97,7.12,1.95,14.99,1.19,21.91-2.76,13.85-7.89,18.68-25.51,10.79-39.35Z"/>
        <path class="st42" d="M426.25,210.72c-7.83-13.75-25.33-18.55-39.07-10.71h5.24v50.57h-3.77c1.65.81,3.37,1.47,5.14,1.95,7.07,1.94,14.88,1.18,21.76-2.74,13.75-7.83,18.55-25.33,10.71-39.07Z"/>
        <path class="st176" d="M426.07,210.82c-7.78-13.65-25.15-18.41-38.8-10.64h5.14v50.21h-3.68c1.64.81,3.35,1.46,5.1,1.94,7.02,1.93,14.78,1.17,21.6-2.72,13.65-7.78,18.41-25.15,10.64-38.8Z"/>
        <path class="st188" d="M425.89,210.92c-7.72-13.55-24.97-18.28-38.52-10.56h5.04v49.85h-3.59c1.63.8,3.32,1.45,5.07,1.93,6.97,1.91,14.67,1.16,21.45-2.7,13.55-7.72,18.28-24.97,10.56-38.52Z"/>
        <path class="st79" d="M425.72,211.02c-7.66-13.46-24.79-18.15-38.24-10.49h4.94v49.5h-3.5c1.61.8,3.3,1.44,5.03,1.91,6.92,1.9,14.57,1.16,21.29-2.68,13.46-7.66,18.15-24.79,10.49-38.24Z"/>
        <path class="st33" d="M425.54,211.12c-7.61-13.36-24.61-18.02-37.97-10.41h4.84v49.14h-3.41c1.6.79,3.28,1.43,4.99,1.9,6.87,1.88,14.46,1.15,21.14-2.66,13.36-7.61,18.02-24.61,10.41-37.97Z"/>
        <path class="st52" d="M425.36,211.22c-7.55-13.26-24.43-17.89-37.69-10.33h4.74v48.78h-3.32c1.59.79,3.25,1.42,4.96,1.88,6.82,1.87,14.35,1.14,20.98-2.64,13.26-7.55,17.89-24.43,10.33-37.69Z"/>
        <path class="st144" d="M425.19,211.32c-7.5-13.16-24.25-17.76-37.41-10.26h4.64v48.42h-3.23c1.58.78,3.23,1.41,4.92,1.87,6.77,1.86,14.25,1.13,20.83-2.62,13.16-7.5,17.76-24.25,10.26-37.41Z"/>
        <path class="st36" d="M425.01,211.43c-7.44-13.07-24.07-17.62-37.13-10.18h4.54v48.06h-3.14c1.57.77,3.2,1.4,4.88,1.86,6.72,1.84,14.14,1.12,20.68-2.6,13.07-7.44,17.62-24.07,10.18-37.13Z"/>
        <path class="st72" d="M424.84,211.53c-7.39-12.97-23.89-17.49-36.86-10.11h4.44v47.7h-3.05c1.56.77,3.18,1.38,4.85,1.84,6.67,1.83,14.04,1.11,20.52-2.58,12.97-7.39,17.49-23.89,10.11-36.86Z"/>
        <path class="st125" d="M424.66,211.63c-7.33-12.87-23.71-17.36-36.58-10.03h4.34v47.34h-2.96c1.54.76,3.16,1.37,4.81,1.83,6.62,1.82,13.93,1.1,20.37-2.56,12.87-7.33,17.36-23.71,10.03-36.58Z"/>
        <path class="st153" d="M424.48,211.73c-7.28-12.77-23.53-17.23-36.3-9.95h4.23v46.99h-2.87c1.53.76,3.13,1.36,4.77,1.81,6.57,1.8,13.83,1.1,20.21-2.54,12.77-7.28,17.23-23.53,9.95-36.3Z"/>
        <path class="st145" d="M424.31,211.83c-7.22-12.68-23.35-17.1-36.03-9.88h4.13v46.63h-2.78c1.52.75,3.11,1.35,4.74,1.8,6.52,1.79,13.72,1.09,20.06-2.52,12.68-7.22,17.1-23.35,9.88-36.03Z"/>
        <path class="st46" d="M424.13,211.93c-7.17-12.58-23.17-16.97-35.75-9.8h4.03v43.6h-7c2.7,2.07,5.77,3.57,9,4.46,6.47,1.77,13.62,1.08,19.9-2.5,12.58-7.17,16.97-23.17,9.8-35.75Z"/>
        <path class="st129" d="M423.95,212.03c-7.11-12.48-22.99-16.84-35.47-9.73h3.93v43.26h-6.87c2.68,2.05,5.73,3.54,8.94,4.42,6.42,1.76,13.51,1.07,19.75-2.48,12.48-7.11,16.84-22.99,9.73-35.47Z"/>
        <path class="st108" d="M423.78,212.13c-7.05-12.38-22.81-16.7-35.2-9.65h3.83v42.92h-6.75c2.66,2.04,5.68,3.52,8.87,4.39,6.37,1.75,13.4,1.06,19.6-2.46,12.38-7.05,16.7-22.81,9.65-35.2Z"/>
        <path class="st110" d="M423.6,212.23c-7-12.29-22.63-16.57-34.92-9.57h3.73v42.58h-6.63c2.64,2.02,5.64,3.49,8.8,4.36,6.32,1.73,13.3,1.05,19.44-2.44,12.29-7,16.57-22.63,9.57-34.92Z"/>
        <path class="st80" d="M423.42,212.33c-6.94-12.19-22.45-16.44-34.64-9.5h3.63v42.24h-6.5c2.62,2,5.59,3.46,8.73,4.32,6.27,1.72,13.19,1.05,19.29-2.43,12.19-6.94,16.44-22.45,9.5-34.64Z"/>
        <path class="st75" d="M423.25,212.43c-6.89-12.09-22.27-16.31-34.36-9.42h3.53v41.91h-6.38c2.6,1.99,5.55,3.43,8.66,4.29,6.22,1.71,13.09,1.04,19.13-2.41,12.09-6.89,16.31-22.27,9.42-34.36Z"/>
        <path class="st62" d="M423.07,212.53c-6.83-11.99-22.09-16.18-34.09-9.35h3.43v41.57h-6.25c2.58,1.97,5.5,3.41,8.59,4.25,6.17,1.69,12.98,1.03,18.98-2.39,11.99-6.83,16.18-22.09,9.35-34.09Z"/>
        <path class="st18" d="M422.89,212.63c-6.78-11.9-21.91-16.05-33.81-9.27h3.33v41.23h-6.13c2.56,1.96,5.46,3.38,8.52,4.22,6.12,1.68,12.88,1.02,18.82-2.37,11.9-6.78,16.05-21.91,9.27-33.81Z"/>
        <path class="st99" d="M422.72,212.73c-6.72-11.8-21.73-15.92-33.53-9.19h3.23v40.89h-6.01c2.54,1.94,5.41,3.35,8.45,4.18,6.07,1.66,12.77,1.01,18.67-2.35,11.8-6.72,15.92-21.73,9.19-33.53Z"/>
        <path class="st204" d="M422.54,212.83c-6.67-11.7-21.55-15.78-33.26-9.12h3.13v40.55h-5.88c2.52,1.92,5.37,3.32,8.38,4.15,6.02,1.65,12.67,1,18.52-2.33,11.7-6.67,15.78-21.55,9.12-33.26Z"/>
        <path class="st151" d="M422.36,212.93c-6.61-11.6-21.37-15.65-32.98-9.04h3.03v40.22h-5.76c2.49,1.91,5.32,3.3,8.31,4.11,5.97,1.64,12.56,1,18.36-2.31,11.6-6.61,15.65-21.37,9.04-32.98Z"/>
        <path class="st203" d="M422.19,213.03c-6.55-11.51-21.19-15.52-32.7-8.97h2.93v39.88h-5.64c2.47,1.89,5.28,3.27,8.24,4.08,5.92,1.62,12.45.99,18.21-2.29,11.51-6.55,15.52-21.19,8.97-32.7Z"/>
        <path class="st114" d="M422.01,213.14c-6.5-11.41-21.02-15.39-32.42-8.89h2.83v39.54h-5.51c2.45,1.88,5.23,3.24,8.17,4.04,5.87,1.61,12.35.98,18.05-2.27,11.41-6.5,15.39-21.02,8.89-32.42Z"/>
        <path class="st61" d="M421.83,213.24c-6.44-11.31-20.84-15.26-32.15-8.81h2.73v39.2h-5.39c2.43,1.86,5.19,3.21,8.1,4.01,5.82,1.6,12.24.97,17.9-2.25,11.31-6.44,15.26-20.84,8.81-32.15Z"/>
        <path class="st199" d="M421.66,213.34c-6.39-11.21-20.66-15.13-31.87-8.74h2.63v38.86h-5.27c2.41,1.84,5.14,3.18,8.03,3.98,5.77,1.58,12.14.96,17.74-2.23,11.21-6.39,15.13-20.66,8.74-31.87Z"/>
        <path class="st38" d="M421.48,213.44c-6.33-11.12-20.48-14.99-31.59-8.66h2.53v38.53h-5.14c2.39,1.83,5.1,3.16,7.96,3.94,5.72,1.57,12.03.95,17.59-2.21,11.12-6.33,14.99-20.48,8.66-31.59Z"/>
        <path class="st19" d="M421.3,213.54c-6.28-11.02-20.3-14.86-31.32-8.59h2.42v38.19h-5.02c2.37,1.81,5.05,3.13,7.89,3.91,5.67,1.55,11.93.95,17.44-2.19,11.02-6.28,14.86-20.3,8.59-31.32Z"/>
        <path class="st23" d="M421.13,213.64c-6.22-10.92-20.12-14.73-31.04-8.51h2.32v37.85h-4.9c2.35,1.8,5.01,3.1,7.82,3.87,5.62,1.54,11.82.94,17.28-2.17,10.92-6.22,14.73-20.12,8.51-31.04Z"/>
        <path class="st175" d="M420.95,213.74c-6.17-10.82-19.94-14.6-30.76-8.43h2.22v37.51h-4.77c2.33,1.78,4.97,3.07,7.75,3.84,5.57,1.53,11.72.93,17.13-2.15,10.82-6.17,14.6-19.94,8.43-30.76Z"/>
        <path class="st39" d="M420.77,213.84c-6.11-10.73-19.76-14.47-30.48-8.36h2.12v37.17h-4.65c2.31,1.76,4.92,3.05,7.68,3.8,5.52,1.51,11.61.92,16.97-2.13,10.73-6.11,14.47-19.76,8.36-30.48Z"/>
        <path class="st157" d="M420.6,213.94c-6.05-10.63-19.58-14.34-30.21-8.28h2.02v36.84h-4.53c2.29,1.75,4.88,3.02,7.61,3.77,5.47,1.5,11.5.91,16.82-2.11,10.63-6.05,14.34-19.58,8.28-30.21Z"/>
        <path class="st28" d="M420.42,214.04c-6-10.53-19.4-14.21-29.93-8.21h1.92v36.5h-4.4c2.26,1.73,4.83,2.99,7.54,3.73,5.42,1.49,11.4.9,16.66-2.1,10.53-6,14.21-19.4,8.21-29.93Z"/>
        <path class="st98" d="M420.24,214.14c-5.94-10.43-19.22-14.07-29.65-8.13h1.82v36.16h-4.28c2.24,1.72,4.79,2.96,7.47,3.7,5.37,1.47,11.29.9,16.51-2.08,10.43-5.94,14.07-19.22,8.13-29.65Z"/>
        <path class="st119" d="M420.07,214.24c-5.89-10.34-19.04-13.94-29.38-8.05h1.72v35.82h-4.15c2.22,1.7,4.74,2.94,7.4,3.66,5.32,1.46,11.19.89,16.36-2.06,10.34-5.89,13.94-19.04,8.05-29.38Z"/>
        <path class="st50" d="M419.89,214.34c-5.83-10.24-18.86-13.81-29.1-7.98h1.62v35.48h-4.03c2.2,1.68,4.7,2.91,7.33,3.63,5.27,1.44,11.08.88,16.2-2.04,10.24-5.83,13.81-18.86,7.98-29.1Z"/>
        <path class="st179" d="M419.72,214.44c-5.78-10.14-18.68-13.68-28.82-7.9h1.52v35.15h-3.91c2.18,1.67,4.65,2.88,7.26,3.6,5.22,1.43,10.98.87,16.05-2.02,10.14-5.78,13.68-18.68,7.9-28.82Z"/>
        <path class="st180" d="M419.54,214.54c-5.72-10.04-18.5-13.55-28.54-7.83h1.42v34.81h-3.78c2.16,1.65,4.61,2.85,7.19,3.56,5.17,1.42,10.87.86,15.89-2,10.04-5.72,13.55-18.5,7.83-28.54Z"/>
        <path class="st102" d="M419.36,214.64c-5.67-9.95-18.32-13.42-28.27-7.75h1.32v34.47h-3.66c2.14,1.64,4.56,2.82,7.12,3.53,5.12,1.4,10.77.85,15.74-1.98,9.95-5.67,13.42-18.32,7.75-28.27Z"/>
        <path class="st87" d="M419.19,214.74c-5.61-9.85-18.14-13.28-27.99-7.67h1.22v34.13h-3.54c2.12,1.62,4.52,2.8,7.05,3.49,5.07,1.39,10.66.85,15.58-1.96,9.85-5.61,13.28-18.14,7.67-27.99Z"/>
        <path class="st128" d="M419.01,214.84c-5.55-9.75-17.96-13.15-27.71-7.6h1.12v33.79h-3.41c2.1,1.6,4.47,2.77,6.98,3.46,5.02,1.38,10.55.84,15.43-1.94,9.75-5.55,13.15-17.96,7.6-27.71Z"/>
        <path class="st149" d="M418.83,214.95c-5.5-9.65-17.78-13.02-27.44-7.52h1.02v33.46h-3.29c2.08,1.59,4.43,2.74,6.91,3.42,4.96,1.36,10.45.83,15.28-1.92,9.65-5.5,13.02-17.78,7.52-27.44Z"/>
        <path class="st121" d="M418.66,215.05c-5.44-9.56-17.6-12.89-27.16-7.45h.92v33.12h-3.17c2.05,1.57,4.38,2.71,6.84,3.39,4.91,1.35,10.34.82,15.12-1.9,9.56-5.44,12.89-17.6,7.45-27.16Z"/>
        <path class="st184" d="M418.48,215.15c-5.39-9.46-17.42-12.76-26.88-7.37h.82v32.78h-3.04c2.03,1.56,4.34,2.69,6.77,3.35,4.86,1.33,10.24.81,14.97-1.88,9.46-5.39,12.76-17.42,7.37-26.88Z"/>
        <path class="st155" d="M418.3,215.25c-5.33-9.36-17.24-12.63-26.6-7.29h.71v32.44h-2.92c2.01,1.54,4.29,2.66,6.7,3.32,4.81,1.32,10.13.8,14.81-1.86,9.36-5.33,12.63-17.24,7.29-26.6Z"/>
        <path class="st173" d="M418.13,215.35c-5.28-9.26-17.06-12.5-26.33-7.22h.61v32.1h-2.8c1.99,1.52,4.25,2.63,6.63,3.28,4.76,1.31,10.03.8,14.66-1.84,9.26-5.28,12.5-17.06,7.22-26.33Z"/>
        <path class="st146" d="M417.95,215.45c-5.22-9.17-16.88-12.36-26.05-7.14h.51v31.77h-2.67c1.97,1.51,4.2,2.6,6.56,3.25,4.71,1.29,9.92.79,14.5-1.82,9.17-5.22,12.36-16.88,7.14-26.05Z"/>
        <path class="st133" d="M417.77,215.55c-5.17-9.07-16.7-12.23-25.77-7.07h.41v31.43h-2.55c1.95,1.49,4.16,2.58,6.49,3.21,4.66,1.28,9.82.78,14.35-1.8,9.07-5.17,12.23-16.7,7.07-25.77Z"/>
        <path class="st134" d="M417.6,215.65c-5.11-8.97-16.52-12.1-25.5-6.99h.31v31.09h-2.43c1.93,1.48,4.12,2.55,6.42,3.18,4.61,1.27,9.71.77,14.2-1.78,8.97-5.11,12.1-16.52,6.99-25.5Z"/>
        <path class="st71" d="M417.42,215.75c-5.05-8.87-16.35-11.97-25.22-6.91h.21v30.75h-2.3c1.91,1.46,4.07,2.52,6.35,3.15,4.56,1.25,9.6.76,14.04-1.77,8.87-5.05,11.97-16.35,6.91-25.22Z"/>
        <path class="st69" d="M417.24,215.85c-5-8.78-16.17-11.84-24.94-6.84h.11v24.94h-6.95c5,8.78,16.17,11.84,24.94,6.84,8.78-5,11.84-16.17,6.84-24.94Z"/>
        <path class="st116" d="M417.07,215.95c-4.94-8.68-15.99-11.71-24.66-6.76h.01v24.66h-6.77c4.94,8.68,15.99,11.71,24.66,6.76,8.68-4.94,11.71-15.99,6.76-24.66Z"/>
        <path class="st187" d="M416.89,216.05c-4.89-8.58-15.81-11.57-24.39-6.69-2.15,1.22-3.94,2.82-5.35,4.67h5.26v19.72h-6.6c4.89,8.58,15.81,11.57,24.39,6.69,8.58-4.89,11.57-15.81,6.69-24.39Z"/>
        <path class="st85" d="M416.71,216.15c-4.83-8.48-15.63-11.44-24.11-6.61-2.12,1.21-3.9,2.79-5.29,4.61h5.1v19.5h-6.42c4.83,8.48,15.63,11.44,24.11,6.61,8.48-4.83,11.44-15.63,6.61-24.11Z"/>
        <path class="st196" d="M416.54,216.25c-4.78-8.39-15.45-11.31-23.83-6.53-2.1,1.19-3.85,2.76-5.23,4.56h4.94v19.27h-6.24c4.78,8.39,15.45,11.31,23.83,6.53,8.39-4.78,11.31-15.45,6.53-23.83Z"/>
        <path class="st191" d="M416.36,216.35c-4.72-8.29-15.27-11.18-23.56-6.46-2.07,1.18-3.81,2.72-5.17,4.51h4.78v19.05h-6.07c4.72,8.29,15.27,11.18,23.56,6.46,8.29-4.72,11.18-15.27,6.46-23.56Z"/>
        <path class="st73" d="M416.18,216.45c-4.67-8.19-15.09-11.05-23.28-6.38-2.05,1.17-3.76,2.69-5.11,4.45h4.62v18.82h-5.89c4.67,8.19,15.09,11.05,23.28,6.38,8.19-4.67,11.05-15.09,6.38-23.28Z"/>
        <path class="st193" d="M416.01,216.55c-4.61-8.09-14.91-10.92-23-6.31-2.02,1.15-3.72,2.66-5.05,4.4h4.46v18.6h-5.71c4.61,8.09,14.91,10.92,23,6.31,8.09-4.61,10.92-14.91,6.31-23Z"/>
        <path class="st126" d="M415.83,216.66c-4.55-8-14.73-10.79-22.72-6.23-2,1.14-3.67,2.63-4.99,4.35h4.29v18.38h-5.54c4.55,8,14.73,10.79,22.72,6.23,8-4.55,10.79-14.73,6.23-22.72Z"/>
        <path class="st162" d="M415.65,216.76c-4.5-7.9-14.55-10.65-22.45-6.15-3.95,2.25-6.61,5.89-7.73,9.95h6.93v12.5h-5.36c4.5,7.9,14.55,10.65,22.45,6.15,7.9-4.5,10.65-14.55,6.15-22.45Z"/>
        <path class="st152" d="M415.48,216.86c-4.44-7.8-14.37-10.52-22.17-6.08-3.9,2.22-6.53,5.81-7.63,9.83h6.74v12.34h-5.18c4.44,7.8,14.37,10.52,22.17,6.08,7.8-4.44,10.52-14.37,6.08-22.17Z"/>
        <path class="st13" d="M415.3,216.96c-4.39-7.7-14.19-10.39-21.89-6-3.85,2.19-6.45,5.74-7.54,9.7h6.54v12.19h-5.01c4.39,7.7,14.19,10.39,21.89,6,7.7-4.39,10.39-14.19,6-21.89Z"/>
        <path class="st118" d="M415.12,217.06c-4.33-7.61-14.01-10.26-21.62-5.93-3.8,2.17-6.37,5.67-7.44,9.58h6.34v12.04h-4.83c4.33,7.61,14.01,10.26,21.62,5.93,7.61-4.33,10.26-14.01,5.93-21.62Z"/>
        <path class="st174" d="M414.95,217.16c-4.28-7.51-13.83-10.13-21.34-5.85-3.75,2.14-6.29,5.6-7.34,9.46h6.15v11.88h-4.65c4.28,7.51,13.83,10.13,21.34,5.85s10.13-13.83,5.85-21.34Z"/>
        <path class="st27" d="M414.77,217.26c-4.22-7.41-13.65-10-21.06-5.77-3.71,2.11-6.2,5.52-7.25,9.33h5.95v11.73h-4.48c4.22,7.41,13.65,10,21.06,5.77s10-13.65,5.77-21.06Z"/>
        <path class="st53" d="M414.59,217.36c-4.17-7.31-13.47-9.86-20.78-5.7-3.66,2.08-6.12,5.45-7.15,9.21h5.76v11.57h-4.3c4.17,7.31,13.47,9.86,20.78,5.7,7.31-4.17,9.86-13.47,5.7-20.78Z"/>
        <path class="st201" d="M414.42,217.46c-4.11-7.22-13.29-9.73-20.51-5.62-3.61,2.06-6.04,5.38-7.06,9.09h5.56v11.42h-4.13c4.11,7.22,13.29,9.73,20.51,5.62s9.73-13.29,5.62-20.51Z"/>
        <path class="st0" d="M414.24,217.56c-4.05-7.12-13.11-9.6-20.23-5.55-3.56,2.03-5.96,5.31-6.96,8.97h5.37v11.26h-3.95c4.05,7.12,13.11,9.6,20.23,5.55,7.12-4.05,9.6-13.11,5.55-20.23Z"/>
        <path class="st189" d="M414.07,217.66c-4-7.02-12.93-9.47-19.95-5.47-3.51,2-5.88,5.23-6.87,8.84h5.17v11.11h-3.77c4,7.02,12.93,9.47,19.95,5.47,7.02-4,9.47-12.93,5.47-19.95Z"/>
        <path class="st92" d="M413.89,217.76c-3.94-6.92-12.75-9.34-19.68-5.4-3.46,1.97-5.8,5.16-6.77,8.72h4.97v10.96h-3.6c3.94,6.92,12.75,9.34,19.68,5.4,6.92-3.94,9.34-12.75,5.4-19.68Z"/>
        <path class="st54" d="M413.71,217.86c-3.89-6.83-12.57-9.21-19.4-5.32-3.41,1.94-5.71,5.09-6.68,8.6h4.78v10.8h-3.42c3.89,6.83,12.57,9.21,19.4,5.32,6.83-3.89,9.21-12.57,5.32-19.4Z"/>
        <path class="st96" d="M413.54,217.96c-3.83-6.73-12.39-9.08-19.12-5.24-3.36,1.92-5.63,5.01-6.58,8.48h4.58v10.65h-3.24c3.83,6.73,12.39,9.08,19.12,5.24,6.73-3.83,9.08-12.39,5.24-19.12Z"/>
        <circle class="st111" cx="401.35" cy="224.9" r="13.82"/>
        <circle class="st112" cx="401.35" cy="224.9" r="13.61"/>
        <circle class="st165" cx="401.35" cy="224.9" r="13.41"/>
        <circle class="st65" cx="401.35" cy="224.9" r="13.21"/>
        <circle class="st84" cx="401.35" cy="224.9" r="13"/>
        <circle class="st197" cx="401.35" cy="224.9" r="12.8"/>
        <circle class="st16" cx="401.35" cy="224.9" r="12.6"/>
        <circle class="st156" cx="401.35" cy="224.9" r="12.39"/>
        <circle class="st78" cx="401.35" cy="224.9" r="12.19"/>
        <circle class="st161" cx="401.35" cy="224.9" r="11.99"/>
        <circle class="st63" cx="401.35" cy="224.9" r="11.79"/>
        <circle class="st6" cx="401.35" cy="224.9" r="11.58"/>
        <circle class="st163" cx="401.35" cy="224.9" r="11.38"/>
        <circle class="st202" cx="401.35" cy="224.9" r="11.18"/>
        <circle class="st113" cx="401.35" cy="224.9" r="10.97"/>
        <circle class="st94" cx="401.35" cy="224.9" r="10.77"/>
        <circle class="st185" cx="401.35" cy="224.9" r="10.57"/>
        <circle class="st97" cx="401.35" cy="224.9" r="10.36"/>
        <circle class="st137" cx="401.35" cy="224.9" r="10.16"/>
        <circle class="st74" cx="401.35" cy="224.9" r="9.96"/>
        <circle class="st182" cx="401.35" cy="224.9" r="9.75"/>
        <circle class="st154" cx="401.35" cy="224.9" r="9.55"/>
        <circle class="st120" cx="401.35" cy="224.9" r="9.35"/>
        <circle class="st66" cx="401.35" cy="224.9" r="9.14"/>
        <circle class="st164" cx="401.35" cy="224.9" r="8.94"/>
        <circle class="st41" cx="401.35" cy="224.9" r="8.74"/>
        <circle class="st5" cx="401.35" cy="224.9" r="8.53"/>
        <circle class="st132" cx="401.35" cy="224.9" r="8.33"/>
        <circle class="st88" cx="401.35" cy="224.9" r="8.13"/>
        <circle class="st178" cx="401.35" cy="224.9" r="7.92"/>
        <circle class="st86" cx="401.35" cy="224.9" r="7.72"/>
        <circle class="st93" cx="401.35" cy="224.9" r="7.52"/>
        <circle class="st58" cx="401.35" cy="224.9" r="7.31"/>
        <circle class="st159" cx="401.35" cy="224.9" r="7.11"/>
        <circle class="st130" cx="401.35" cy="224.9" r="6.91"/>
        <circle class="st106" cx="401.35" cy="224.9" r="6.71"/>
        <circle class="st14" cx="401.35" cy="224.9" r="6.5"/>
        <circle class="st103" cx="401.35" cy="224.9" r="6.3"/>
        <circle class="st60" cx="401.35" cy="224.9" r="6.1"/>
        <circle class="st90" cx="401.35" cy="224.9" r="5.89"/>
        <circle class="st117" cx="401.35" cy="224.9" r="5.69"/>
        <circle class="st45" cx="401.35" cy="224.9" r="5.49"/>
        <circle class="st150" cx="401.35" cy="224.9" r="5.28"/>
        <circle class="st177" cx="401.35" cy="224.9" r="5.08"/>
        <circle class="st10" cx="401.35" cy="224.9" r="4.88"/>
        <circle class="st44" cx="401.35" cy="224.9" r="4.67"/>
        <circle class="st136" cx="401.35" cy="224.9" r="4.47"/>
        <circle class="st81" cx="401.35" cy="224.9" r="4.27"/>
        <circle class="st11" cx="401.35" cy="224.9" r="4.06"/>
        <circle class="st123" cx="401.35" cy="224.9" r="3.86"/>
        <circle class="st169" cx="401.35" cy="224.9" r="3.66"/>
        <circle class="st105" cx="401.35" cy="224.9" r="3.45"/>
        <circle class="st195" cx="401.35" cy="224.9" r="3.25"/>
        <circle class="st49" cx="401.35" cy="224.9" r="3.05"/>
        <circle class="st172" cx="401.35" cy="224.9" r="2.84"/>
        <circle class="st122" cx="401.35" cy="224.9" r="2.64"/>
        <circle class="st148" cx="401.35" cy="224.9" r="2.44"/>
        <circle class="st34" cx="401.35" cy="224.9" r="2.24"/>
        <circle class="st40" cx="401.35" cy="224.9" r="2.03"/>
        <circle class="st109" cx="401.35" cy="224.9" r="1.83"/>
        <circle class="st170" cx="401.35" cy="224.9" r="1.63"/>
        <circle class="st183" cx="401.35" cy="224.9" r="1.42"/>
        <circle class="st56" cx="401.35" cy="224.9" r="1.22"/>
        <circle class="st68" cx="401.35" cy="224.9" r="1.02"/>
        <circle class="st21" cx="401.35" cy="224.9" r=".81"/>
        <circle class="st168" cx="401.35" cy="224.9" r=".61"/>
        <circle class="st37" cx="401.35" cy="224.9" r=".41"/>
        <circle class="st100" cx="401.35" cy="224.9" r=".2"/>
      </g>
    </g>
  </g>
</svg>