<?xml version="1.0" encoding="UTF-8" standalone="no"?>
<svg
   xmlns:dc="http://purl.org/dc/elements/1.1/"
   xmlns:cc="http://creativecommons.org/ns#"
   xmlns:rdf="http://www.w3.org/1999/02/22-rdf-syntax-ns#"
   xmlns:svg="http://www.w3.org/2000/svg"
   xmlns="http://www.w3.org/2000/svg"
   xmlns:sodipodi="http://sodipodi.sourceforge.net/DTD/sodipodi-0.dtd"
   xmlns:inkscape="http://www.inkscape.org/namespaces/inkscape"
   viewBox="0 0 219.50887 50"
   version="1.1"
   id="svg6"
   sodipodi:docname="Atlantis Paradise Island Bahamas Updated.svg"
   width="219.50887"
   height="50"
   inkscape:version="0.92.4 (5da689c313, 2019-01-14)">
  <metadata
     id="metadata12">
    <rdf:RDF>
      <cc:Work
         rdf:about="">
        <dc:format>image/svg+xml</dc:format>
        <dc:type
           rdf:resource="http://purl.org/dc/dcmitype/StillImage" />
      </cc:Work>
    </rdf:RDF>
  </metadata>
  <defs
     id="defs10" />
  <sodipodi:namedview
     pagecolor="#ffffff"
     bordercolor="#666666"
     borderopacity="1"
     objecttolerance="10"
     gridtolerance="10"
     guidetolerance="10"
     inkscape:pageopacity="0"
     inkscape:pageshadow="2"
     inkscape:window-width="640"
     inkscape:window-height="480"
     id="namedview8"
     showgrid="false"
     inkscape:zoom="4.9027778"
     inkscape:cx="78.135484"
     inkscape:cy="7.3285724"
     inkscape:current-layer="svg6" />
  <g
     id="g4"
     style="fill:#254297;fill-opacity:1"
     transform="matrix(1.2194937,0,0,1.2194937,0,-0.60898799)">
    <path
       d="M 155,21.907 V 1.043 C 155,0.747 154.74,0.5 154.429,0.5 h -2.858 C 151.26,0.5 151,0.747 151,1.044 v 20.913 c 0,0.296 0.26,0.543 0.571,0.543 h 2.858 C 154.74,22.45 155,22.203 155,21.907 Z M 62.47,22.5 C 62.76,22.5 63,22.252 63,21.955 V 19.626 A 0.542,0.542 0 0 0 62.47,19.081 H 53.707 V 1.045 A 0.542,0.542 0 0 0 53.177,0.5 H 50.53 A 0.542,0.542 0 0 0 50,1.045 v 20.91 c 0,0.297 0.24,0.495 0.53,0.545 z m 111.945,-12.696 -1.47,-0.63 c -2.4,-1.066 -3.281,-1.6 -3.281,-3.101 0,-1.406 1.028,-2.278 2.743,-2.278 1.47,0 2.498,0.533 3.282,1.648 l 0.049,0.048 c 0.147,0.242 0.49,0.29 0.735,0.146 1.763,-1.163 1.96,-1.26 1.96,-1.26 0.097,-0.097 0.195,-0.194 0.244,-0.34 A 0.374,0.374 0 0 0 178.579,3.65 L 178.53,3.553 C 177.11,1.469 175.15,0.5 172.358,0.5 c -3.723,0 -6.32,2.326 -6.32,5.67 0,3.343 2.156,4.99 5.438,6.396 l 1.47,0.63 c 2.008,0.872 3.33,1.6 3.33,3.392 0,1.55 -1.42,2.568 -3.575,2.568 -1.91,0 -3.43,-0.823 -4.41,-2.326 l -0.097,-0.145 c -0.147,-0.242 -0.441,-0.34 -0.686,-0.242 -2.155,1.066 -2.204,1.066 -2.204,1.066 -0.245,0.145 -0.392,0.436 -0.245,0.727 l 0.049,0.097 c 1.616,2.665 4.31,4.167 7.642,4.167 4.458,0 7.25,-2.326 7.25,-6.009 -0.049,-3.586 -2.106,-5.185 -5.585,-6.687 z M 117,22.037 V 1.187 a 0.552,0.552 0 0 0 -0.555,-0.54 h -2.52 a 0.552,0.552 0 0 0 -0.555,0.54 V 14.432 L 99.908,0.696 C 99.807,0.598 99.655,0.5 99.504,0.5 A 0.498,0.498 0 0 0 99,0.99 v 20.85 c 0,0.295 0.252,0.54 0.555,0.54 h 2.52 a 0.552,0.552 0 0 0 0.555,-0.54 V 8.595 l 13.462,13.736 c 0.101,0.098 0.253,0.147 0.353,0.147 0.303,0.098 0.555,-0.147 0.555,-0.441 z M 41,3.374 V 1.045 C 41,0.748 40.747,0.55 40.443,0.5 H 24.557 A 0.556,0.556 0 0 0 24,1.045 v 2.329 c 0,0.297 0.253,0.545 0.557,0.545 h 6.02 v 18.036 c 0,0.297 0.253,0.545 0.557,0.545 h 2.783 a 0.556,0.556 0 0 0 0.556,-0.545 V 3.919 h 6.021 C 40.747,3.919 41,3.671 41,3.374 Z M 142.395,0.5 h -15.84 A 0.555,0.555 0 0 0 126,1.045 v 2.329 c 0,0.297 0.252,0.545 0.555,0.545 h 6.003 v 18.036 c 0,0.297 0.252,0.545 0.555,0.545 h 2.774 a 0.555,0.555 0 0 0 0.555,-0.545 V 3.919 h 6.003 A 0.555,0.555 0 0 0 143,3.374 V 1.045 C 142.9,0.698 142.697,0.5 142.395,0.5 Z M 90,21.957 c 0,-0.05 0,-0.099 -0.049,-0.148 L 80.964,0.778 a 0.568,0.568 0 0 0 -0.977,0 l -8.938,21.03 c 0,0.05 -0.049,0.1 -0.049,0.149 0,0.296 0.244,0.543 0.488,0.543 h 2.394 c 0.097,0 0.293,0 0.39,-0.05 a 0.56,0.56 0 0 0 0.391,-0.345 l 1.514,-3.653 h 8.401 l 1.515,3.604 c 0.097,0.197 0.244,0.296 0.39,0.395 0.05,0.049 0.293,0.049 0.391,0.049 h 2.54 C 89.756,22.45 90,22.253 90,21.957 Z m -12.357,-6.862 2.833,-6.862 2.784,6.862 z m -62.08,7.306 c 0.05,0.05 0.295,0.05 0.393,0.05 h 2.553 c 0.295,0 0.491,-0.247 0.491,-0.542 0,-0.05 0,-0.099 -0.05,-0.148 L 9.967,0.777 a 0.573,0.573 0 0 0 -0.982,0 L 0.05,21.81 c 0,0.05 -0.049,0.099 -0.049,0.148 0,0.296 0.245,0.542 0.491,0.542 h 2.406 c 0.098,0 0.294,0 0.392,-0.05 a 0.562,0.562 0 0 0 0.393,-0.344 l 1.522,-3.645 h 8.445 l 1.522,3.596 a 0.657,0.657 0 0 0 0.392,0.344 z m -8.935,-7.29 2.847,-6.846 2.799,6.846 z M 10.95,34.5 8,41.5 h 1.082 l 0.541,-1.31 h 2.705 l 0.54,1.31 H 14 l -2.95,-7 z m -0.983,4.784 0.984,-2.417 0.983,2.417 z M 50.19,37.479 49.711,37.28 c -0.797,-0.347 -1.17,-0.496 -1.17,-1.042 0,-0.447 0.373,-0.795 1.01,-0.795 0.586,0 0.958,0.199 1.224,0.646 l 0.85,-0.546 C 51.147,34.848 50.509,34.5 49.499,34.5 c -1.223,0 -2.074,0.745 -2.074,1.787 0,1.043 0.745,1.54 1.808,1.986 l 0.478,0.199 c 0.638,0.248 1.17,0.496 1.17,1.141 0,0.547 -0.532,0.894 -1.276,0.894 -0.744,0 -1.33,-0.347 -1.648,-0.894 L 47,40.06 c 0.478,0.844 1.382,1.44 2.605,1.44 1.382,0 2.392,-0.645 2.392,-1.887 0.053,-1.191 -0.69,-1.687 -1.807,-2.134 z m 6.788,0.984 h 2.578 v -0.978 h -2.578 v -2.007 h 2.889 V 34.5 H 56 v 7 h 4 V 40.522 H 56.978 Z M 43,34.5 h 1 v 7 h -1 z m -15.05,0 -2.95,7 h 1.082 l 0.541,-1.31 h 2.705 l 0.54,1.31 H 31 l -2.95,-7 z M 27.016,39.284 28,36.867 28.984,39.284 Z M 35.757,34.5 H 34 v 7 h 1.757 C 37.784,41.5 39,40.059 39,38 39,35.941 37.784,34.5 35.757,34.5 Z m -0.045,6.022 h -0.721 v -5.044 h 0.72 c 1.577,0 2.298,1.03 2.298,2.522 0,1.493 -0.72,2.522 -2.297,2.522 z M 21.7,36.713 C 21.7,35.375 20.8,34.5 19.2,34.5 H 17 v 7 h 1.05 V 38.926 H 19.3 L 20.85,41.5 H 22 l -1.65,-2.78 c 0.9,-0.308 1.35,-1.029 1.35,-2.007 z m -2.55,1.236 H 18.1 v -2.523 h 1.05 c 1,0 1.45,0.412 1.45,1.236 0,0.875 -0.45,1.287 -1.45,1.287 z M 2.31,34.5 H 0 v 7 H 1.129 V 39.03 H 2.31 c 1.72,0 2.687,-0.876 2.687,-2.265 C 5.051,35.375 4.03,34.5 2.31,34.5 Z m 0,3.551 H 1.183 v -2.573 h 1.129 c 1.075,0 1.558,0.412 1.558,1.287 -0.053,0.823 -0.483,1.286 -1.558,1.286 z M 69,34.5 h 1 v 7 H 69 Z M 102.083,39.067 98.046,34.5 H 98 v 6.901 h 0.917 v -4.468 l 3.991,4.567 H 103 v -6.901 h -0.917 z M 76.19,37.479 75.711,37.28 c -0.797,-0.347 -1.17,-0.496 -1.17,-1.042 0,-0.447 0.373,-0.795 1.01,-0.795 0.586,0 0.958,0.199 1.224,0.646 l 0.85,-0.546 C 77.147,34.848 76.509,34.5 75.499,34.5 c -1.223,0 -2.074,0.745 -2.074,1.787 0,1.043 0.745,1.54 1.808,1.986 l 0.478,0.199 c 0.638,0.248 1.17,0.496 1.17,1.141 0,0.547 -0.532,0.894 -1.276,0.894 -0.744,0 -1.33,-0.347 -1.648,-0.894 L 73,40.06 c 0.478,0.844 1.382,1.44 2.605,1.44 1.382,0 2.392,-0.645 2.392,-1.887 0.053,-1.191 -0.69,-1.687 -1.807,-2.134 z M 108.757,34.5 H 107 v 7 h 1.757 c 2.027,0 3.243,-1.441 3.243,-3.5 0,-2.059 -1.216,-3.5 -3.243,-3.5 z m -0.045,6.074 h -0.721 v -5.045 h 0.72 c 1.577,0 2.298,1.03 2.298,2.522 0,1.493 -0.72,2.523 -2.297,2.523 z M 83.073,34.5 H 82 v 7 h 4 v -0.971 h -2.927 z m 8.877,0 -2.95,7 h 1.082 l 0.541,-1.31 h 2.705 l 0.54,1.31 H 95 l -2.95,-7 z m -0.983,4.784 0.984,-2.417 0.983,2.417 z m 51.061,-1.696 h -3.056 V 34.5 H 138 v 7 h 0.972 v -2.934 h 3.056 V 41.5 H 143 v -7 h -0.972 z m 16.498,0.79 -3.474,-3.878 H 155 v 7 h 1.089 v -4.432 l 2.385,2.77 h 0.052 l 2.437,-2.77 V 41.5 H 162 v -7 h -0.052 z m 18.665,-0.899 -0.478,-0.199 c -0.798,-0.347 -1.17,-0.496 -1.17,-1.042 0,-0.447 0.372,-0.795 1.01,-0.795 0.585,0 0.958,0.199 1.224,0.646 l 0.85,-0.546 C 178.149,34.848 177.511,34.5 176.5,34.5 c -1.223,0 -2.074,0.745 -2.074,1.787 0,1.043 0.744,1.54 1.808,1.986 l 0.479,0.199 c 0.638,0.248 1.17,0.496 1.17,1.141 0,0.547 -0.532,0.894 -1.277,0.894 -0.744,0 -1.33,-0.347 -1.649,-0.894 L 174,40.06 c 0.479,0.844 1.383,1.44 2.606,1.44 1.383,0 2.394,-0.645 2.394,-1.887 0,-1.191 -0.745,-1.687 -1.809,-2.134 z m -52.517,0.367 c 0.683,-0.206 1.05,-0.772 1.05,-1.493 0,-1.03 -0.682,-1.853 -2.152,-1.853 H 121 v 7 h 2.73 c 1.47,0 2.257,-0.875 2.257,-2.007 0.105,-0.927 -0.42,-1.442 -1.313,-1.647 z m -2.467,-2.368 h 1.365 c 0.787,0 1.102,0.412 1.102,0.978 0,0.566 -0.315,0.978 -1.102,0.978 h -1.365 z m 1.523,5.147 h -1.575 V 38.36 h 1.47 c 0.84,0 1.26,0.464 1.26,1.133 0.104,0.669 -0.316,1.132 -1.155,1.132 z m 8.22,-6.125 -2.95,7 h 1.082 l 0.541,-1.31 h 2.705 l 0.54,1.31 H 135 l -2.95,-7 z m -0.983,4.784 0.984,-2.417 0.983,2.417 z M 148.95,34.5 146,41.5 h 1.082 l 0.541,-1.31 h 2.705 l 0.54,1.31 H 152 l -2.95,-7 z m -0.983,4.784 0.984,-2.417 0.983,2.417 z M 168.95,34.5 166,41.5 h 1.082 l 0.541,-1.31 h 2.705 l 0.54,1.31 H 172 l -2.95,-7 z m -0.983,4.784 0.984,-2.417 0.983,2.417 z"
       id="path2"
       style="fill:#254297;fill-opacity:1"
       inkscape:connector-curvature="0" />
  </g>
</svg>
