<?xml version="1.0" encoding="UTF-8"?>
<!-- Generator: Adobe Illustrator 25.0.1, SVG Export Plug-In . SVG Version: 6.00 Build 0)  -->
<svg xmlns="http://www.w3.org/2000/svg" xmlns:xlink="http://www.w3.org/1999/xlink" version="1.1" id="Ebene_1" x="0px" y="0px" viewBox="0 0 155.9 155.9" style="enable-background:new 0 0 155.9 155.9;" xml:space="preserve">
<style type="text/css">
	.st0{fill:#00529E;}
	.st1{fill:#FFFFFF;}
	.st2{fill:#FFDA44;}
	.st3{fill:#D80027;}
	.st4{font-family:'MyriadPro-Regular';}
	.st5{font-size:0.8909px;}
</style>
<g>
	<circle class="st0" cx="76.5" cy="76.5" r="71.4"></circle>
	<circle class="st1" cx="76.5" cy="76.5" r="70.9"></circle>
	<circle class="st0" cx="76.5" cy="76.5" r="67.5"></circle>
	<circle class="st1" cx="76.5" cy="76.5" r="48.4"></circle>
	<g>
		<path class="st1" d="M46.8,35.2c-0.9,0.3-2,0.6-2.8,0.7c-0.2,0-0.4,0.1-0.5,0.1c-1.5,1.3-3.6,0.6-6-2.1c-2.1-2.4-2.6-4.9-1-6.3    c1.7-1.5,3.9-0.2,5.8,2c1.8,2.1,2.4,3.7,1.9,4.8l0,0c0.7-0.2,1.4-0.5,2.1-0.8L46.8,35.2z M41.1,30.9c-1.3-1.5-2.8-2.7-3.6-2    c-0.8,0.7,0.1,2.4,1.4,4c1.4,1.6,2.9,2.8,3.7,2.1C43.5,34.2,42.5,32.5,41.1,30.9z"></path>
		<path class="st1" d="M48.6,19.8l3.1,6.3c0.8,1.5,1.5,1.8,2.1,1.5c0.7-0.3,0.9-1,0.1-2.6l-3.1-6.3l1.5-0.7l2.9,6    c1.2,2.5,0.8,4.1-0.9,4.9c-1.7,0.8-3.2,0.1-4.3-2.3l-3-6.1L48.6,19.8z"></path>
		<path class="st1" d="M64.8,22.2l0,2.8l-1.6,0.3l0.2-10.9l1.9-0.4l4.3,10L68,24.4l-1.1-2.6L64.8,22.2z M66.5,20.5l-0.9-2.3    c-0.3-0.7-0.6-1.6-0.9-2.3l0,0c0,0.7,0.1,1.8,0.1,2.4l0,2.5L66.5,20.5z"></path>
		<path class="st1" d="M77,13l1.7,0.1l-0.4,9.2l2.8,0.1l-0.1,1.4l-4.5-0.2L77,13z"></path>
		<path class="st1" d="M92.1,15.1l-2.6,10.3L87.9,25l2.6-10.3L92.1,15.1z"></path>
		<path class="st1" d="M101.8,20.2l-1.7-0.8l0.7-1.4l5,2.4l-0.7,1.4l-1.7-0.8l-3.9,8.2l-1.5-0.7L101.8,20.2z"></path>
		<path class="st1" d="M108.2,34.8l2.7-3.3l2.3-6.4l1.4,1.1l-1,2.5c-0.3,0.7-0.6,1.5-1,2.2l0,0c0.6-0.5,1.3-1,2-1.4l2.2-1.5l1.3,1.1    l-5.9,3.3l-2.8,3.3L108.2,34.8z"></path>
	</g>
	<g>
		<path class="st1" d="M21.9,100.6c1.1-0.5,2.4-1.1,3.5-1.5l0,0c-1.2,0.2-2.5,0.5-3.5,0.6l-4.4,0.6L17,99.1l3.5-2.5    c0.9-0.7,2-1.4,3-2l0,0c-1.1,0.4-2.4,0.9-3.6,1.3l-3.8,1.3l-0.5-1.4l10.1-3.3l0.7,1.7l-3.6,2.6c-1.2,0.8-2.1,1.5-3.1,2.1l0,0    c1.2-0.3,2.3-0.5,3.7-0.7l4.4-0.7l0.7,1.7l-9.6,4.6l-0.6-1.4L21.9,100.6z"></path>
		<path class="st1" d="M27.9,113.1l-2.5,1.3l-1-1.3l9.8-4.8l1.2,1.5l-7,8.3l-1-1.3l1.8-2.2L27.9,113.1z M30.1,113.8l1.6-1.9    c0.5-0.5,1.1-1.2,1.6-1.8l0,0c-0.7,0.4-1.5,0.9-2.1,1.2l-2.2,1.1L30.1,113.8z"></path>
		<path class="st1" d="M36.5,126l6.3-8.6l1.3,0.9l-1.2,4.7c-0.3,1-0.6,2.4-1,3.4l0,0c0.7-1.1,1.6-2.5,2.8-4.1l1.8-2.4l1.2,0.9    l-6.3,8.6l-1.3-0.9l1.2-4.7c0.3-1,0.6-2.3,1.1-3.4l0,0c-0.7,1-1.5,2.3-2.8,4.1l-1.7,2.4L36.5,126z"></path>
		<path class="st1" d="M54,132.9l-1.5,2.4l-1.5-0.6l5.9-9.1l1.8,0.7L57.1,137l-1.5-0.6l0.4-2.8L54,132.9z M56.3,132.4l0.4-2.4    c0.1-0.7,0.3-1.7,0.5-2.4l0,0c-0.4,0.7-0.9,1.5-1.2,2.1l-1.3,2.1L56.3,132.4z"></path>
		<path class="st1" d="M73.1,139.7c-0.5,0.1-1.4,0.2-2.1,0.2c-1.1-0.1-2-0.5-2.6-1.3c-0.7-0.9-1.1-2.5-0.9-4.4    c0.4-4,2.8-5.3,4.8-5.1c0.7,0.1,1.3,0.3,1.6,0.5l-0.5,1.4c-0.3-0.2-0.7-0.3-1.2-0.4c-1.4-0.1-2.7,0.7-3,3.7    c-0.3,2.9,0.7,4,1.8,4.1c0.3,0,0.5,0,0.6,0l0.3-3l-1.1-0.1l0.1-1.4l2.7,0.3L73.1,139.7z"></path>
		<path class="st1" d="M87.8,134.1l-2.5,0.4l0.5,3.3l2.8-0.4l0.2,1.5l-4.5,0.7L82.7,129l4.3-0.7l0.2,1.5l-2.7,0.4l0.5,2.9l2.5-0.4    L87.8,134.1z"></path>
		<path class="st1" d="M104,129.2c-0.6-1.1-1.2-2.4-1.7-3.4l0,0c0.3,1.1,0.6,2.4,0.8,3.5l0.8,4.4l-1,0.5l-2.7-3.4    c-0.7-0.9-1.5-1.9-2.2-2.9l0,0c0.5,1.1,1,2.4,1.5,3.6l1.5,3.8l-1.3,0.6l-3.8-10l1.6-0.8l2.7,3.5c0.9,1.1,1.6,2,2.3,3l0,0    c-0.3-1.2-0.6-2.3-0.9-3.7l-0.9-4.3l1.6-0.8l5.1,9.4l-1.4,0.6L104,129.2z"></path>
		<path class="st1" d="M116.9,119.3l-1.9,1.7l2.2,2.6l2.2-1.9l1,1.1l-3.5,3l-7-8.1l3.3-2.9l1,1.1l-2,1.8l1.9,2.2l1.9-1.7    L116.9,119.3z"></path>
		<path class="st1" d="M127.8,114.4l-8.8-6l0.9-1.3l4.8,1.1c1,0.2,2.4,0.6,3.5,0.9l0,0c-1.2-0.7-2.6-1.5-4.2-2.6l-2.5-1.7l0.8-1.2    l8.8,6l-0.9,1.3l-4.8-1.1c-1-0.2-2.3-0.6-3.4-0.9l0,0c1.1,0.6,2.3,1.4,4.2,2.7l2.5,1.7L127.8,114.4z"></path>
		<path class="st1" d="M128,95l-0.6,1.8l-1.5-0.5l1.8-5.2l1.5,0.5l-0.6,1.8l8.6,3l-0.6,1.6L128,95z"></path>
	</g>
	<ellipse class="st1" cx="20.5" cy="61.2" rx="2.8" ry="2.8"></ellipse>
	<g>
		<path class="st2" d="M31.2,93.4c6.8,18.4,24.6,31.6,45.4,31.6s38.5-13.1,45.4-31.6l-45.4-4.2L31.2,93.4z"></path>
		<path d="M76.6,28.2c-20.8,0-38.5,13.1-45.4,31.6L76.6,64l45.4-4.2C115.2,41.3,97.4,28.2,76.6,28.2z"></path>
		<path class="st3" d="M31.2,59.8c-1.9,5.2-3,10.9-3,16.8s1.1,11.6,3,16.8H122c1.9-5.2,3-10.9,3-16.8s-1.1-11.6-3-16.8H31.2z"></path>
	</g>
	<ellipse class="st1" cx="132" cy="61.7" rx="2.8" ry="2.8"></ellipse>
	<text transform="matrix(1 0 0 1 24.9927 98.9122)" class="st4 st5">Lorem ipsum</text>
	<g>
		<path class="st1" d="M52,73c-0.1-0.1-0.3-0.2-0.7-0.4c-0.3-0.2-0.7-0.2-1.2-0.3c-0.6,0-1.2,0.1-1.6,0.2c-0.5,0.2-1,0.5-1.5,1.2    c-0.5,0.6-0.9,1.6-1.1,2.8c-0.1,0.8-0.2,1.3-0.2,1.8c0,0.7,0.1,1.3,0.4,1.7c0.3,0.4,0.6,0.6,0.9,0.7c0.4,0.1,0.8,0.2,1.4,0.2    c0.4,0,0.8,0,1.1-0.1c0.3-0.1,0.6-0.1,0.8-0.2c0.2-0.1,0.3-0.1,0.4-0.1L50,84.3c1.9-0.1,2.6-1.1,2.7-1.9c0.6-3.3,1.2-6.7,1.8-10    h-1.2C52.5,72.4,52.2,72.6,52,73z M50.9,79.4c-0.1,0.1-0.2,0.2-0.5,0.3c-0.3,0.1-0.6,0.2-1,0.2c-1.2,0-1.7-0.6-1.7-1.8    c0-0.3,0.1-0.8,0.2-1.4c0.1-0.8,0.3-1.4,0.5-1.8c0.2-0.4,0.5-0.8,0.9-1c0.4-0.2,0.8-0.3,1.4-0.3c0.4,0.1,0.7,0.2,0.9,0.4    c0.2,0.2,0.4,0.3,0.4,0.3L50.9,79.4z"></path>
		<path class="st1" d="M99.8,63.7c0.3,0.1,0.5,0.1,0.9,0c0.4-0.1,0.6,0,0.8-0.5c0.3-0.6,0-0.9-1.2-0.7c-0.3,0.1-0.7,0.3-0.8,0.6    C99.3,63.4,99.5,63.5,99.8,63.7z"></path>
		<path class="st1" d="M61,80.9c0.2,0,0.3,0,0.5,0c0.5-2.8,1-5.7,1.5-8.5h-1.8l-1.1,6.2c-0.1,0.2-0.3,0.4-0.6,0.7    c-0.3,0.3-0.8,0.4-1.4,0.5c-0.3,0-0.6-0.1-0.8-0.3c-0.2-0.2-0.3-0.5-0.3-0.9l1.1-6.1h-2.4l-1.1,6.2c0,0.3-0.1,0.5-0.1,0.5    c0,0.6,0.2,1,0.5,1.3c0.3,0.3,0.8,0.5,1.4,0.5c1,0,1.7-0.1,2.3-0.3c0.6-0.2,0.9-0.4,1.1-0.5C60,80.7,60.4,80.9,61,80.9z"></path>
		<path class="st1" d="M94.5,56.9c0.2,0.2,0.6,0.1,0.8-0.4c0.1-0.4,0.3-0.6,0-0.7c-0.4-0.2-0.4-0.1-0.7,0.1    C94,56.4,94.4,56.9,94.5,56.9z"></path>
		<path class="st1" d="M42.2,72.3c-0.6,0-1.2,0.1-1.7,0.2c-0.5,0.1-0.9,0.3-1.2,0.4c-0.3,0.2-0.4,0.2-0.4,0.3l0.4,0.9    c0,0,0.1-0.1,0.1-0.1c0.6-0.4,1.4-0.5,2.4-0.5c0.4,0,0.8,0.1,1,0.3c0.2,0.2,0.3,0.4,0.3,0.7c0,0.3-0.2,0.6-0.5,0.9    c-0.3,0.3-0.8,0.4-1.5,0.5c-1.2,0.1-2.2,0.3-2.9,0.8c-0.7,0.4-1.1,1.1-1.3,1.9c0,0.2-0.1,0.4-0.1,0.5c0,0.6,0.2,1.1,0.7,1.4    c0.4,0.3,1,0.5,1.7,0.5c0.9,0,1.6-0.1,2-0.3c0.4-0.2,0.7-0.4,0.8-0.6c0.1,1,0.9,0.9,2.2,0.9l1.1-6.1c0-0.2,0.1-0.4,0.1-0.4    C45.5,73,44.4,72.3,42.2,72.3z M42.4,78.5c0,0.1-0.1,0.3-0.3,0.5c-0.2,0.2-0.5,0.4-1.1,0.5c-0.3,0.1-0.6,0.1-0.8,0.1    c-0.8,0-1.2-0.3-1.2-0.9c0-0.5,0.3-0.8,0.7-1c0.4-0.2,0.9-0.4,1.7-0.5c0.4,0,0.7-0.1,0.9-0.2c0.2-0.1,0.3-0.2,0.4-0.3    c0.1-0.1,0.1-0.2,0.1-0.2L42.4,78.5z"></path>
		<path class="st1" d="M75.2,52.6c0.3-0.3,0.5-0.5,0.3-1c-0.1-0.4-0.5-0.6-0.9-0.6c-0.8,0-0.8,0.9-0.7,1.1    C74,52.8,74.8,52.9,75.2,52.6z"></path>
		<path class="st1" d="M67.4,69c0.3,0.2,0.5,0.4,0.8,0.2c0.2-0.1,0.2-0.3,0.1-0.5c-0.1-0.2-0.4-0.3-0.6-0.3    C67.4,68.4,67,68.8,67.4,69z"></path>
		<path class="st1" d="M72.6,63.3c0.2,0.3,0.4,0.4,0.6,0.1c0.1-0.2,0.2-0.4,0.1-0.6c-0.1-0.2-0.2-0.4-0.5-0.4    c-0.3,0-0.4,0.2-0.4,0.4C72.4,63,72.5,63.1,72.6,63.3z"></path>
		<path class="st1" d="M87,55.4c0.2,0.1,0.5,0.3,0.6-0.6c0-0.2,0.3-0.5-0.1-0.7c-0.4-0.2-0.4,0.1-0.8,0.5    C86.5,54.8,86.6,55.3,87,55.4z"></path>
		<path class="st1" d="M80.9,57.8c0.4,0.2,0.6-0.1,0.8-0.4c0.1-0.2,0.3-0.6,0-1c-0.4-0.4-0.6-0.3-0.8,0.1    C80.6,56.9,80.4,57.6,80.9,57.8z"></path>
		<path class="st1" d="M79.1,48.6c0.2-0.2,0.4-0.6,0.4-0.8c0-0.6-1-0.8-1.2,0.3C78.2,48.7,78.7,49.2,79.1,48.6z"></path>
		<path class="st1" d="M117.9,74.1c-0.3-0.4-1.5-0.6-1.9-0.3c-0.3,0.2-0.7,0.5-0.3,0.9c0.4,0.4,1.3,0.7,1.9,0.3    C117.9,74.7,118.2,74.4,117.9,74.1z"></path>
		<path class="st1" d="M69.3,86.1c-2.5,2.8-2.7,2.6-5.3,2.9c-0.7,0.1-1.8,0.8-1.5,2.2c0.1,0.7,0.8,1.2,1.8,1.1    c1.4-0.3,1.6-1.4,2.5-2.2c1.9-1.6,3.4-1.9,5-2.2c2.9-0.5,5.2,0.3,5.3,1.2c0.1,1.5,0.9,1.6,2.3,1.6c2,0,1.6,2.1,3.7,2.1    c0.8,0,1.7-0.3,2.1,0.9c0.4,1.1,0.1,2-0.4,3c-0.5,1.1-1.3,1.8-0.8,2.9c0.5,1.3,2,1.2,2.7,0.5c1.3-1.6,0.1-3.7,0.4-5    c0.4-2,1.1-2.3,2.4-1c0.4,0.4,1.4,1.8,1.3,2.7c0,0.3-0.4,1,0,1.7c0.3,0.5,1.2,0.8,1.9-0.1c0.4-0.4,0.3-1.1-0.3-1.8    c-0.4-0.4-1.3-1.4-1.2-4.2c0-2,1.9-2.9,4-3c1.2-0.1,1.6,0.3,2.6,1.2c1.5,1.4,2.9,3.1,5,3.4c1.4,0.2,4.1-0.4,1.9-2.9    c-1.2-1.4-3.9-1.1-5.3-1.9c-2-1.1-3.1-4.2-0.1-5.6c1.3-0.6,2.3-0.6,3.5-0.3c1,0.2,1.4,0.4,1.9,0.6c1.1,0.4,1.9,0.1,2-0.7    c0.3-1.5-1.8-1.3-3.2-1.1c-1.2,0.2-2.9,0.2-4-0.3c-1-0.4-1.8-1,0-1.8c0.6-0.3,0.5-0.9,0.1-1.4c-0.3-0.5-0.8-0.9-0.8-1.5    c0-0.6,0.5-0.9,1.2-0.8c0.5,0,1-0.1,1.2-0.7c0.1-0.3,0.1-0.5,0-0.9c-0.1-0.4-0.2-0.6,0-1c0.3-0.5,0.6-0.4,1.1-0.4    c0.8-0.1,1,0.2,1.6,0.1c0.5-0.1,0.8-0.5,1-0.8c0.4-0.6,0.1-1.7-0.6-2c-0.4-0.2-1-0.1-1.6,0.5c-0.4,0.5-0.8,0.6-1.1,0.5    c-1.4-0.3-1.6-1.4-1.1-2.1c0.5-0.8,1.2-1.3,2.1-1.7c0.7-0.4,1.7-0.6,2.3-0.7c0.9-0.3,1.8-0.4,2.2-1.5c0.3-0.9,0.7-1.6-0.3-2.4    c-0.8-0.7-2.4,0-3,0.7c-0.6,0.9-0.7,1.4-1.7,2.6c-0.8,0.8-1.8,1.5-2.7,1.4c-5.5-0.8-1.9-2.9-3.6-4.1c-2-1.3-4.4,0.7-5.7-1.7    c-0.4-0.7-0.5-1.5-0.5-2.1c0-0.7-0.1-1.6,0-2c0.1-0.4,0.7-0.7,0.7-1.4c0-0.6-0.4-1-1.1-1.1c-0.7-0.1-1.2,0.5-1.3,0.9    c-0.2,0.8,0.5,1.1,0.5,1.5c0,0.4-0.2,1.8-0.4,2.4c-0.5,1.4-0.9,2-2.1,2.5c-1.1,0.5-2.6,0.2-3.9-1c-0.4-0.3-0.5-0.9-0.5-1.4    c-0.1-1.4-1.2-1.5-1.6-1.1c-0.8,0.9-0.2,1.5-0.1,2.6c0.1,0.5-0.4,0.8-0.7,0.9c-1.4,0.3-1.9-1.7-2-2.9c-0.1-1.2,0.5-2.5,1.1-3.5    c0.3-0.6,0.7-1.1,0.8-1.8c0.1-0.6,0-1.5-0.7-2c-0.8-0.5-1.9,0.3-1.7,1.1c0.2,0.9,0.7,0.8,0.8,1.5c0.1,0.6-0.4,1.1-0.9,1.1    c-0.8,0-1.9-0.6-2.5,0.8c-0.5,1.2,0.9,2,1.6,2.5c0.8,0.7,0.9,1.4,1.1,2.3c0.1,0.8,0.1,1.6-0.3,2.3c-1,2-4,1.5-5.5,0.6    c-0.4-0.3-1.3-1-2-1.2c-1.2-0.3-2.1,1-1.4,2c0.4,0.6,1.5,1,2,1.1c0.7,0.2,1.4,0.3,2.1,0.6c2.5,1.4,0.8,2.9-0.4,3    c-2.1,0.2,1.5,1.8-0.3,2.3c-0.8-0.9-3.6-0.8-4.8-0.5c-0.5,0.1-0.9,0.3-1.2,0.4c-0.6,0.3-0.3,1.3,0.1,1c0.3-0.2,0.6-0.3,1-0.4    c0.7-0.2,1.8-0.3,2.4,0.1c0.2,0.2,0.3,0.4,0.3,0.7c0,0.3-0.2,0.6-0.5,0.9c-0.3,0.3-0.8,0.4-1.5,0.5c-1.2,0.1-2.2,0.3-2.9,0.8    c-0.7,0.4-1.1,1.1-1.3,1.9c0,0.2-0.1,0.4-0.1,0.5c0,0.6,0.2,1.1,0.7,1.4c0.4,0.3,1,0.5,1.7,0.5c0.9,0,1.6-0.1,2-0.3    c0.4-0.2,0.7-0.4,0.8-0.6c0.1,1.5,3,0.5,2.9,2.1c-0.1,1.4,0.1,1.8-0.7,2.9C70,85.3,69.6,85.8,69.3,86.1z M68.4,77.5l-0.2,1    c0,0.1-0.1,0.3-0.3,0.5c-0.2,0.2-0.5,0.4-1.1,0.5c-0.3,0.1-0.6,0.1-0.8,0.1c-0.8,0-1.2-0.3-1.2-0.9c0-0.5,0.3-0.8,0.7-1    c0.4-0.2,0.9-0.4,1.7-0.5c0.4,0,0.7-0.1,0.9-0.2C68.7,76.7,68.6,76.3,68.4,77.5z M74.7,82.2c-0.6,0.4-1.4,0.6-2.3,0.7l1.6-8.8    h-1.6c0-0.3,0.1-0.6,0.1-0.8c0-0.2,0.1-0.4,0.2-0.6c0.2-0.3,0.6-0.3,1.1-0.4h0.5l0.1-0.5c0.2-1,0.7-1.7,1.4-2.2    c0.7-0.5,1.7-0.7,3-0.7c0.2,0,0.4,0,0.7,0c0.2,0,0.1,0,0.3,0l-0.3,1.9c0,0-0.1,0-0.2,0c-0.1,0-0.2,0-0.3,0c-0.2,0-0.4,0-0.6,0.1    c-0.4,0.1-0.6,0.5-0.7,1l-0.1,0.4h1.6c0,0.3-0.1,0.6-0.1,0.8c-0.1,0.7-0.5,0.9-1.2,0.9h-0.5c-0.4,2.2-0.7,3.7-1,5.9    C76,81,75.5,81.7,74.7,82.2z M86,80.9c-0.6,0-1.1-0.1-1.2-0.7c0,0-0.2,0.1-0.4,0.2c-0.3,0.2-0.7,0.3-1.2,0.4    c-0.5,0.1-1,0.2-1.7,0.2c-1.7-0.1-2.9-1-2.6-2.5l1.1-6.2h3.2l-1,5.5c0,0.5,0.1,0.8,0.3,1c0.2,0.2,0.6,0.3,1.1,0.3    c0.6-0.1,1-0.3,1.2-0.7c0.2-0.3,0.3-0.6,0.4-0.8l0.9-5.4h2.4l-1.5,8.5H86z M97.9,74.7l-1.1,6.1h-2.4l1-5.5c0-0.9-0.5-1.3-1.4-1.3    c-0.5,0.1-0.9,0.3-1.2,0.6c-0.2,0.3-0.4,0.6-0.4,0.8l-0.9,5.4h-3.2l1.5-8.5c0.6,0,1.3,0,1.9,0c0.6,0,1.1,0.1,1.2,0.7    c0,0,0.1-0.1,0.3-0.3c0.2-0.1,0.5-0.3,0.8-0.4c0.3-0.1,0.8-0.2,1.2-0.2C97,72.2,98.2,73.2,97.9,74.7z"></path>
		<path class="st1" d="M101.8,85.5c-0.1,0-0.3,0.1-0.3,0.2c0,0.1,0,0.4,0.1,0.5c0.1,0.2,0.4,0.3,0.6,0.4c0.1,0.1,0.3,0.1,0.5,0    c0.2,0,0.3-0.1,0.4-0.2c0.3-0.2,0.1-0.5-0.1-0.8C102.8,85.2,102.3,85.3,101.8,85.5z"></path>
		<path class="st1" d="M110.5,78.9c-0.4,0-0.6,0.2-0.6,0.6c0,0.2,0,0.3,0.1,0.5c0.2,0.4,0.4,0.2,0.7,0c0.2-0.1,0.5-0.5,0.3-0.8    C110.8,79,110.8,78.9,110.5,78.9z"></path>
		<path class="st1" d="M109,70.9c-0.7-0.3-0.8,0.1-1,0.4c-0.6,0.8-0.1,1,0.1,1c0.4,0.1,0.7-0.1,1-0.5    C109.3,71.5,109.4,71.1,109,70.9z"></path>
		<path class="st1" d="M97.5,92.5c-0.9-0.1-1,1.5,0.5,1.4c0.5,0,1.8-0.1,1.6-0.6c-0.1-0.4-0.8-0.1-1.3-0.3    C97.9,92.8,97.9,92.6,97.5,92.5z"></path>
		<path class="st1" d="M98.7,95.3c-0.3-0.1-0.5-0.1-0.7,0.1c-0.1,0.2-0.3,1,0,1.1c0.4,0.2,0.7,0.1,0.9-0.2    C99.1,96,99.4,95.6,98.7,95.3z"></path>
		<path class="st1" d="M77.8,91.8c-0.5-0.7-0.9-0.1-1,0.1c-0.1,0.3-0.1,1.1,0.5,1.1c0.4,0,0.7-0.2,0.9-0.5    C78.4,92.1,78,92.1,77.8,91.8z"></path>
		<path class="st1" d="M72.3,89.1c-0.4-0.2-0.6,0-0.9,0.4c-0.3,0.4-0.2,1,0.2,1.3c0.4,0.2,0.8,0,1-0.5    C72.8,89.8,72.8,89.3,72.3,89.1z"></path>
	</g>
</g>
</svg>
