<?xml version="1.0" encoding="UTF-8"?>
<!-- Generator: Adobe Illustrator 25.0.1, SVG Export Plug-In . SVG Version: 6.00 Build 0)  -->
<svg xmlns="http://www.w3.org/2000/svg" xmlns:xlink="http://www.w3.org/1999/xlink" version="1.1" id="Ebene_1" x="0px" y="0px" viewBox="0 0 155.9 155.9" style="enable-background:new 0 0 155.9 155.9;" xml:space="preserve">
<style type="text/css">
	.st0{fill:#00529E;}
	.st1{fill:#FFFFFF;}
</style>
<g>
	<circle class="st0" cx="76.5" cy="76.5" r="71.4"></circle>
	<circle class="st1" cx="76.5" cy="76.5" r="70.9"></circle>
	<circle class="st0" cx="76.5" cy="76.5" r="67.5"></circle>
	<circle class="st1" cx="76.5" cy="76.5" r="48.4"></circle>
	<g>
		<path class="st0" d="M52,73c-0.1-0.1-0.3-0.2-0.7-0.4c-0.3-0.2-0.7-0.2-1.2-0.3c-0.6,0-1.2,0.1-1.6,0.2c-0.5,0.2-1,0.5-1.5,1.2    c-0.5,0.6-0.9,1.6-1.1,2.8c-0.1,0.8-0.2,1.3-0.2,1.8c0,0.7,0.1,1.3,0.4,1.7c0.3,0.4,0.6,0.6,0.9,0.7c0.4,0.1,0.8,0.2,1.4,0.2    c0.4,0,0.8,0,1.1-0.1c0.3-0.1,0.6-0.1,0.8-0.2c0.2-0.1,0.3-0.1,0.4-0.1L50,84.3c1.9-0.1,2.6-1.1,2.7-1.9c0.6-3.3,1.2-6.7,1.8-10    h-1.2C52.5,72.4,52.2,72.6,52,73z M50.9,79.4c-0.1,0.1-0.2,0.2-0.5,0.3c-0.3,0.1-0.6,0.2-1,0.2c-1.2,0-1.7-0.6-1.7-1.8    c0-0.3,0.1-0.8,0.2-1.4c0.1-0.8,0.3-1.4,0.5-1.8c0.2-0.4,0.5-0.8,0.9-1c0.4-0.2,0.8-0.3,1.4-0.3c0.4,0.1,0.7,0.2,0.9,0.4    c0.2,0.2,0.4,0.3,0.4,0.3L50.9,79.4z"></path>
		<path class="st0" d="M99.8,63.7c0.3,0.1,0.5,0.1,0.9,0c0.4-0.1,0.6,0,0.8-0.5c0.3-0.6,0-0.9-1.2-0.7c-0.3,0.1-0.7,0.3-0.8,0.6    C99.3,63.4,99.5,63.5,99.8,63.7z"></path>
		<path class="st0" d="M61,80.9c0.2,0,0.3,0,0.5,0c0.5-2.8,1-5.7,1.5-8.5h-1.8l-1.1,6.2c-0.1,0.2-0.3,0.4-0.6,0.7    c-0.3,0.3-0.8,0.4-1.4,0.5c-0.3,0-0.6-0.1-0.8-0.3c-0.2-0.2-0.3-0.5-0.3-0.9l1.1-6.1h-2.4l-1.1,6.2c0,0.3-0.1,0.5-0.1,0.5    c0,0.6,0.2,1,0.5,1.3c0.3,0.3,0.8,0.5,1.4,0.5c1,0,1.7-0.1,2.3-0.3c0.6-0.2,0.9-0.4,1.1-0.5C60,80.7,60.4,80.9,61,80.9z"></path>
		<path class="st0" d="M94.5,56.9c0.2,0.2,0.6,0.1,0.8-0.4c0.1-0.4,0.3-0.6,0-0.7c-0.4-0.2-0.4-0.1-0.7,0.1    C94,56.4,94.4,56.9,94.5,56.9z"></path>
		<path class="st0" d="M42.2,72.3c-0.6,0-1.2,0.1-1.7,0.2c-0.5,0.1-0.9,0.3-1.2,0.4c-0.3,0.2-0.4,0.2-0.4,0.3l0.4,0.9    c0,0,0.1-0.1,0.1-0.1c0.6-0.4,1.4-0.5,2.4-0.5c0.4,0,0.8,0.1,1,0.3c0.2,0.2,0.3,0.4,0.3,0.7c0,0.3-0.2,0.6-0.5,0.9    c-0.3,0.3-0.8,0.4-1.5,0.5c-1.2,0.1-2.2,0.3-2.9,0.8c-0.7,0.4-1.1,1.1-1.3,1.9c0,0.2-0.1,0.4-0.1,0.5c0,0.6,0.2,1.1,0.7,1.4    c0.4,0.3,1,0.5,1.7,0.5c0.9,0,1.6-0.1,2-0.3c0.4-0.2,0.7-0.4,0.8-0.6c0.1,1,0.9,0.9,2.2,0.9l1.1-6.1c0-0.2,0.1-0.4,0.1-0.4    C45.5,73,44.4,72.3,42.2,72.3z M42.4,78.5c0,0.1-0.1,0.3-0.3,0.5c-0.2,0.2-0.5,0.4-1.1,0.5c-0.3,0.1-0.6,0.1-0.8,0.1    c-0.8,0-1.2-0.3-1.2-0.9c0-0.5,0.3-0.8,0.7-1c0.4-0.2,0.9-0.4,1.7-0.5c0.4,0,0.7-0.1,0.9-0.2c0.2-0.1,0.3-0.2,0.4-0.3    c0.1-0.1,0.1-0.2,0.1-0.2L42.4,78.5z"></path>
		<path class="st0" d="M75.2,52.6c0.3-0.3,0.5-0.5,0.3-1c-0.1-0.4-0.5-0.6-0.9-0.6c-0.8,0-0.8,0.9-0.7,1.1    C74,52.8,74.8,52.9,75.2,52.6z"></path>
		<path class="st0" d="M67.4,69c0.3,0.2,0.5,0.4,0.8,0.2c0.2-0.1,0.2-0.3,0.1-0.5c-0.1-0.2-0.4-0.3-0.6-0.3    C67.4,68.4,67,68.8,67.4,69z"></path>
		<path class="st0" d="M72.6,63.3c0.2,0.3,0.4,0.4,0.6,0.1c0.1-0.2,0.2-0.4,0.1-0.6c-0.1-0.2-0.2-0.4-0.5-0.4    c-0.3,0-0.4,0.2-0.4,0.4C72.4,63,72.5,63.1,72.6,63.3z"></path>
		<path class="st0" d="M87,55.4c0.2,0.1,0.5,0.3,0.6-0.6c0-0.2,0.3-0.5-0.1-0.7c-0.4-0.2-0.4,0.1-0.8,0.5    C86.5,54.8,86.6,55.3,87,55.4z"></path>
		<path class="st0" d="M80.9,57.8c0.4,0.2,0.6-0.1,0.8-0.4c0.1-0.2,0.3-0.6,0-1c-0.4-0.4-0.6-0.3-0.8,0.1    C80.6,56.9,80.4,57.6,80.9,57.8z"></path>
		<path class="st0" d="M79.1,48.6c0.2-0.2,0.4-0.6,0.4-0.8c0-0.6-1-0.8-1.2,0.3C78.2,48.7,78.7,49.2,79.1,48.6z"></path>
		<path class="st0" d="M117.9,74.1c-0.3-0.4-1.5-0.6-1.9-0.3c-0.3,0.2-0.7,0.5-0.3,0.9c0.4,0.4,1.3,0.7,1.9,0.3    C117.9,74.7,118.2,74.4,117.9,74.1z"></path>
		<path class="st0" d="M69.3,86.1c-2.5,2.8-2.7,2.6-5.3,2.9c-0.7,0.1-1.8,0.8-1.5,2.2c0.1,0.7,0.8,1.2,1.8,1.1    c1.4-0.3,1.6-1.4,2.5-2.2c1.9-1.6,3.4-1.9,5-2.2c2.9-0.5,5.2,0.3,5.3,1.2c0.1,1.5,0.9,1.6,2.3,1.6c2,0,1.6,2.1,3.7,2.1    c0.8,0,1.7-0.3,2.1,0.9c0.4,1.1,0.1,2-0.4,3c-0.5,1.1-1.3,1.8-0.8,2.9c0.5,1.3,2,1.2,2.7,0.5c1.3-1.6,0.1-3.7,0.4-5    c0.4-2,1.1-2.3,2.4-1c0.4,0.4,1.4,1.8,1.3,2.7c0,0.3-0.4,1,0,1.7c0.3,0.5,1.2,0.8,1.9-0.1c0.4-0.4,0.3-1.1-0.3-1.8    c-0.4-0.4-1.3-1.4-1.2-4.2c0-2,1.9-2.9,4-3c1.2-0.1,1.6,0.3,2.6,1.2c1.5,1.4,2.9,3.1,5,3.4c1.4,0.2,4.1-0.4,1.9-2.9    c-1.2-1.4-3.9-1.1-5.3-1.9c-2-1.1-3.1-4.2-0.1-5.6c1.3-0.6,2.3-0.6,3.5-0.3c1,0.2,1.4,0.4,1.9,0.6c1.1,0.4,1.9,0.1,2-0.7    c0.3-1.5-1.8-1.3-3.2-1.1c-1.2,0.2-2.9,0.2-4-0.3c-1-0.4-1.8-1,0-1.8c0.6-0.3,0.5-0.9,0.1-1.4c-0.3-0.5-0.8-0.9-0.8-1.5    c0-0.6,0.5-0.9,1.2-0.8c0.5,0,1-0.1,1.2-0.7c0.1-0.3,0.1-0.5,0-0.9c-0.1-0.4-0.2-0.6,0-1c0.3-0.5,0.6-0.4,1.1-0.4    c0.8-0.1,1,0.2,1.6,0.1c0.5-0.1,0.8-0.5,1-0.8c0.4-0.6,0.1-1.7-0.6-2c-0.4-0.2-1-0.1-1.6,0.5c-0.4,0.5-0.8,0.6-1.1,0.5    c-1.4-0.3-1.6-1.4-1.1-2.1c0.5-0.8,1.2-1.3,2.1-1.7c0.7-0.4,1.7-0.6,2.3-0.7c0.9-0.3,1.8-0.4,2.2-1.5c0.3-0.9,0.7-1.6-0.3-2.4    c-0.8-0.7-2.4,0-3,0.7c-0.6,0.9-0.7,1.4-1.7,2.6c-0.8,0.8-1.8,1.5-2.7,1.4c-5.5-0.8-1.9-2.9-3.6-4.1c-2-1.3-4.4,0.7-5.7-1.7    c-0.4-0.7-0.5-1.5-0.5-2.1c0-0.7-0.1-1.6,0-2c0.1-0.4,0.7-0.7,0.7-1.4c0-0.6-0.4-1-1.1-1.1c-0.7-0.1-1.2,0.5-1.3,0.9    c-0.2,0.8,0.5,1.1,0.5,1.5c0,0.4-0.2,1.8-0.4,2.4c-0.5,1.4-0.9,2-2.1,2.5c-1.1,0.5-2.6,0.2-3.9-1c-0.4-0.3-0.5-0.9-0.5-1.4    c-0.1-1.4-1.2-1.5-1.6-1.1c-0.8,0.9-0.2,1.5-0.1,2.6c0.1,0.5-0.4,0.8-0.7,0.9c-1.4,0.3-1.9-1.7-2-2.9c-0.1-1.2,0.5-2.5,1.1-3.5    c0.3-0.6,0.7-1.1,0.8-1.8c0.1-0.6,0-1.5-0.7-2c-0.8-0.5-1.9,0.3-1.7,1.1c0.2,0.9,0.7,0.8,0.8,1.5c0.1,0.6-0.4,1.1-0.9,1.1    c-0.8,0-1.9-0.6-2.5,0.8c-0.5,1.2,0.9,2,1.6,2.5c0.8,0.7,0.9,1.4,1.1,2.3c0.1,0.8,0.1,1.6-0.3,2.3c-1,2-4,1.5-5.5,0.6    c-0.4-0.3-1.3-1-2-1.2c-1.2-0.3-2.1,1-1.4,2c0.4,0.6,1.5,1,2,1.1c0.7,0.2,1.4,0.3,2.1,0.6c2.5,1.4,0.8,2.9-0.4,3    c-2.1,0.2,1.5,1.8-0.3,2.3c-0.8-0.9-3.6-0.8-4.8-0.5c-0.5,0.1-0.9,0.3-1.2,0.4c-0.6,0.3-0.3,1.3,0.1,1c0.3-0.2,0.6-0.3,1-0.4    c0.7-0.2,1.8-0.3,2.4,0.1c0.2,0.2,0.3,0.4,0.3,0.7c0,0.3-0.2,0.6-0.5,0.9c-0.3,0.3-0.8,0.4-1.5,0.5c-1.2,0.1-2.2,0.3-2.9,0.8    c-0.7,0.4-1.1,1.1-1.3,1.9c0,0.2-0.1,0.4-0.1,0.5c0,0.6,0.2,1.1,0.7,1.4c0.4,0.3,1,0.5,1.7,0.5c0.9,0,1.6-0.1,2-0.3    c0.4-0.2,0.7-0.4,0.8-0.6c0.1,1.5,3,0.5,2.9,2.1c-0.1,1.4,0.1,1.8-0.7,2.9C70,85.3,69.6,85.8,69.3,86.1z M68.4,77.5l-0.2,1    c0,0.1-0.1,0.3-0.3,0.5c-0.2,0.2-0.5,0.4-1.1,0.5c-0.3,0.1-0.6,0.1-0.8,0.1c-0.8,0-1.2-0.3-1.2-0.9c0-0.5,0.3-0.8,0.7-1    c0.4-0.2,0.9-0.4,1.7-0.5c0.4,0,0.7-0.1,0.9-0.2C68.7,76.7,68.6,76.3,68.4,77.5z M74.7,82.2c-0.6,0.4-1.4,0.6-2.3,0.7l1.6-8.8    h-1.6c0-0.3,0.1-0.6,0.1-0.8c0-0.2,0.1-0.4,0.2-0.6c0.2-0.3,0.6-0.3,1.1-0.4h0.5l0.1-0.5c0.2-1,0.7-1.7,1.4-2.2    c0.7-0.5,1.7-0.7,3-0.7c0.2,0,0.4,0,0.7,0c0.2,0,0.1,0,0.3,0l-0.3,1.9c0,0-0.1,0-0.2,0c-0.1,0-0.2,0-0.3,0c-0.2,0-0.4,0-0.6,0.1    c-0.4,0.1-0.6,0.5-0.7,1l-0.1,0.4h1.6c0,0.3-0.1,0.6-0.1,0.8c-0.1,0.7-0.5,0.9-1.2,0.9h-0.5c-0.4,2.2-0.7,3.7-1,5.9    C76,81,75.5,81.7,74.7,82.2z M86,80.9c-0.6,0-1.1-0.1-1.2-0.7c0,0-0.2,0.1-0.4,0.2c-0.3,0.2-0.7,0.3-1.2,0.4    c-0.5,0.1-1,0.2-1.7,0.2c-1.7-0.1-2.9-1-2.6-2.5l1.1-6.2h3.2l-1,5.5c0,0.5,0.1,0.8,0.3,1c0.2,0.2,0.6,0.3,1.1,0.3    c0.6-0.1,1-0.3,1.2-0.7c0.2-0.3,0.3-0.6,0.4-0.8l0.9-5.4h2.4l-1.5,8.5H86z M97.9,74.7l-1.1,6.1h-2.4l1-5.5c0-0.9-0.5-1.3-1.4-1.3    c-0.5,0.1-0.9,0.3-1.2,0.6c-0.2,0.3-0.4,0.6-0.4,0.8l-0.9,5.4h-3.2l1.5-8.5c0.6,0,1.3,0,1.9,0c0.6,0,1.1,0.1,1.2,0.7    c0,0,0.1-0.1,0.3-0.3c0.2-0.1,0.5-0.3,0.8-0.4c0.3-0.1,0.8-0.2,1.2-0.2C97,72.2,98.2,73.2,97.9,74.7z"></path>
		<path class="st0" d="M101.8,85.5c-0.1,0-0.3,0.1-0.3,0.2c0,0.1,0,0.4,0.1,0.5c0.1,0.2,0.4,0.3,0.6,0.4c0.1,0.1,0.3,0.1,0.5,0    c0.2,0,0.3-0.1,0.4-0.2c0.3-0.2,0.1-0.5-0.1-0.8C102.8,85.2,102.3,85.3,101.8,85.5z"></path>
		<path class="st0" d="M110.5,78.9c-0.4,0-0.6,0.2-0.6,0.6c0,0.2,0,0.3,0.1,0.5c0.2,0.4,0.4,0.2,0.7,0c0.2-0.1,0.5-0.5,0.3-0.8    C110.8,79,110.8,78.9,110.5,78.9z"></path>
		<path class="st0" d="M109,70.9c-0.7-0.3-0.8,0.1-1,0.4c-0.6,0.8-0.1,1,0.1,1c0.4,0.1,0.7-0.1,1-0.5    C109.3,71.5,109.4,71.1,109,70.9z"></path>
		<path class="st0" d="M97.5,92.5c-0.9-0.1-1,1.5,0.5,1.4c0.5,0,1.8-0.1,1.6-0.6c-0.1-0.4-0.8-0.1-1.3-0.3    C97.9,92.8,97.9,92.6,97.5,92.5z"></path>
		<path class="st0" d="M98.7,95.3c-0.3-0.1-0.5-0.1-0.7,0.1c-0.1,0.2-0.3,1,0,1.1c0.4,0.2,0.7,0.1,0.9-0.2    C99.1,96,99.4,95.6,98.7,95.3z"></path>
		<path class="st0" d="M77.8,91.8c-0.5-0.7-0.9-0.1-1,0.1c-0.1,0.3-0.1,1.1,0.5,1.1c0.4,0,0.7-0.2,0.9-0.5    C78.4,92.1,78,92.1,77.8,91.8z"></path>
		<path class="st0" d="M72.3,89.1c-0.4-0.2-0.6,0-0.9,0.4c-0.3,0.4-0.2,1,0.2,1.3c0.4,0.2,0.8,0,1-0.5    C72.8,89.8,72.8,89.3,72.3,89.1z"></path>
	</g>
	<g>
		<path class="st1" d="M38.1,42c-0.1,0.3-0.3,0.8-0.7,1.4c-1.5,1.9-3.9,1.8-6.5-0.2c-3.2-2.5-3.1-5.1-1.9-6.6    c0.4-0.5,0.8-0.8,1.1-0.9l0.9,1.1c-0.2,0.1-0.5,0.3-0.8,0.7c-0.7,0.9-0.6,2.5,1.7,4.3c2.3,1.7,3.7,1.5,4.5,0.5    c0.2-0.3,0.4-0.7,0.5-0.9L38.1,42z"></path>
		<path class="st1" d="M43.4,30.9l-2,1.6l2.1,2.6l2.2-1.8l0.9,1.1l-3.5,2.9L36.5,29l3.4-2.7l0.9,1.1l-2.1,1.7l1.8,2.3l2-1.6    L43.4,30.9z"></path>
		<path class="st1" d="M48.2,21.3c0.5-0.4,1.1-0.7,1.8-1.1c1-0.5,1.9-0.7,2.7-0.4c0.8,0.3,1.3,0.8,1.6,1.6c0.5,1.1,0.4,2.2-0.4,3.1    l0,0c0.8-0.1,1.4,0.4,2.2,1.5c0.8,1.1,1.5,2,1.8,2.2L56.3,29c-0.3-0.2-0.9-1.1-1.6-2.1c-0.8-1.2-1.3-1.4-2.1-1L52.3,26l1.9,4    l-1.5,0.7L48.2,21.3z M51.7,24.8l0.4-0.2c0.9-0.4,1.1-1.4,0.7-2.4c-0.4-0.9-1.1-1.4-2.1-1c-0.2,0.1-0.4,0.2-0.5,0.3L51.7,24.8z"></path>
		<path class="st1" d="M63.7,17.1l-1.9,0.4L61.5,16l5.4-1.1l0.3,1.5l-1.9,0.4l1.8,8.9L65.5,26L63.7,17.1z"></path>
		<path class="st1" d="M77.7,14.2l-0.1,10.6l-1.7,0L76,14.2L77.7,14.2z"></path>
		<path class="st1" d="M87.4,15.1l4.3,0.9l-0.3,1.4l-2.6-0.6L88.1,20l2.4,0.5l-0.3,1.4l-2.4-0.5l-1,4.5l-1.6-0.4L87.4,15.1z"></path>
		<path class="st1" d="M102.2,19.8l-4.3,9.7l-1.5-0.7l4.3-9.7L102.2,19.8z"></path>
		<path class="st1" d="M110.8,31.7l-2-1.5l-2,2.7l2.3,1.7l-0.9,1.2l-3.7-2.7l6.2-8.6l3.5,2.6l-0.9,1.2l-2.2-1.6l-1.7,2.4l2,1.5    L110.8,31.7z"></path>
		<path class="st1" d="M121.4,33.9c0.4,0.3,0.9,0.8,1.4,1.3c0.8,0.9,1.1,1.8,1.1,2.7c0,1.2-0.7,2.5-2.4,3.8c-1.7,1.5-3.2,2-4.3,1.8    c-1-0.1-1.9-0.6-2.8-1.7c-0.4-0.4-0.7-0.9-0.9-1.2L121.4,33.9z M115.5,41c0.1,0.1,0.2,0.2,0.2,0.3c0.7,0.9,2.2,1.1,4.6-1    c1.8-1.6,2.5-3,1.5-4.1c-0.1-0.1-0.2-0.3-0.3-0.3L115.5,41z"></path>
	</g>
	<g>
		<path class="st1" d="M17.3,90.8L14.5,91l-0.4-1.6l10.9-0.5l0.5,1.9l-9.7,4.9l-0.4-1.6l2.5-1.3L17.3,90.8z M19.1,92.4l2.2-1.1    c0.6-0.3,1.5-0.7,2.2-1l0,0c-0.7,0.1-1.8,0.2-2.4,0.2l-2.5,0.2L19.1,92.4z"></path>
		<path class="st1" d="M21.5,111.3c-0.1-0.9-0.2-2.1-0.2-2.9c0-0.2,0-0.4,0-0.5c-1-1.7,0-3.7,3.1-5.5c2.7-1.6,5.3-1.7,6.4,0.2    c1.1,1.9-0.6,3.9-3,5.3c-2.4,1.4-4.1,1.6-5.1,1l-0.1,0c0.1,0.8,0.2,1.5,0.4,2.2L21.5,111.3z M26.7,106.5c1.7-1,3.2-2.2,2.7-3.2    c-0.5-0.9-2.4-0.3-4.2,0.7c-1.8,1.1-3.3,2.3-2.7,3.3C23,108.2,24.8,107.6,26.7,106.5z"></path>
		<path class="st1" d="M38.5,113.1l-4.9,5c-1.2,1.2-1.2,2-0.7,2.5c0.5,0.5,1.2,0.5,2.5-0.8l4.9-5l1.2,1.2l-4.7,4.8    c-1.9,2-3.6,2.1-4.9,0.8c-1.4-1.4-1.1-3,0.7-4.8l4.8-4.8L38.5,113.1z"></path>
		<path class="st1" d="M45.9,128.8l-1.8,2.1l-1.4-0.8l7.2-8.1l1.7,1l-3.2,10.3l-1.4-0.8l0.9-2.7L45.9,128.8z M48.2,128.6l0.8-2.3    c0.2-0.7,0.6-1.6,0.8-2.3l0,0c-0.5,0.6-1.1,1.4-1.5,1.9l-1.6,1.9L48.2,128.6z"></path>
		<path class="st1" d="M61.1,126.9l4.2,1.1l-0.4,1.4l-2.6-0.7l-0.8,3.1l2.4,0.6l-0.4,1.4l-2.4-0.6l-1.2,4.4l-1.6-0.4L61.1,126.9z"></path>
		<path class="st1" d="M75.3,129.2l0,7c0,1.7,0.5,2.3,1.2,2.3c0.7,0,1.2-0.5,1.2-2.3l0-7h1.7l0,6.7c0,2.7-1.1,4-2.9,4    c-1.9,0-2.9-1.3-2.9-4l0-6.8H75.3z"></path>
		<path class="st1" d="M91.1,138.2L88.2,128l1.5-0.4l3,3.9c0.6,0.8,1.5,2,2.1,2.9l0,0c-0.4-1.3-1-2.8-1.5-4.7l-0.8-2.9l1.4-0.4    l2.9,10.2l-1.5,0.4l-3-3.9c-0.6-0.8-1.4-1.9-2-2.9l0,0c0.4,1.2,0.9,2.6,1.5,4.7l0.8,2.8L91.1,138.2z"></path>
		<path class="st1" d="M102.1,122.9c0.4-0.4,0.9-0.8,1.6-1.2c1-0.6,1.8-0.9,2.7-0.7c0.8,0.2,1.4,0.7,1.9,1.5    c0.6,0.9,0.7,1.7,0.6,2.4c-0.2,1-0.9,1.8-1.6,2.2c-0.1,0.1-0.3,0.2-0.4,0.2l2.1,3.5l-1.4,0.9L102.1,122.9z M106,126.3    c0.1,0,0.2-0.1,0.4-0.2c0.9-0.6,1.1-1.5,0.4-2.6c-0.5-0.8-1.3-1.3-2.3-0.8c-0.2,0.1-0.4,0.3-0.5,0.4L106,126.3z"></path>
		<path class="st1" d="M119.1,119.7l1.6,2.4l-1.2,1.2l-5.9-9.2l1.4-1.4l9.1,5.9l-1.2,1.2l-2.4-1.5L119.1,119.7z M119.6,117.4l-2-1.4    c-0.6-0.4-1.4-1-2-1.4l0,0c0.4,0.6,1.1,1.4,1.4,2l1.4,2.1L119.6,117.4z"></path>
		<path class="st1" d="M121.7,104.6c0.2-0.6,0.5-1.3,0.8-1.9c0.5-0.9,1.2-1.6,2-1.9c0.8-0.2,1.5-0.1,2.3,0.4    c1.1,0.6,1.6,1.6,1.5,2.8l0,0c0.6-0.5,1.4-0.5,2.6-0.1c1.2,0.4,2.3,0.8,2.7,0.8l-0.9,1.5c-0.3,0-1.3-0.3-2.5-0.8    c-1.3-0.5-1.9-0.4-2.3,0.3l-0.2,0.3l3.8,2.2l-0.8,1.5L121.7,104.6z M126.6,105.5l0.2-0.4c0.5-0.9,0.1-1.8-0.8-2.3    c-0.9-0.5-1.7-0.5-2.3,0.4c-0.1,0.2-0.2,0.4-0.2,0.5L126.6,105.5z"></path>
		<path class="st1" d="M127.3,91.9l0.4-1.6l4.7,1.2l0,0c-0.4-0.3-0.8-0.6-1.1-0.9l-3-2.5l0.5-1.8l3.8,3.6l6.5-0.9l-0.5,1.8l-5,0.6    l0.8,0.8l3.7,1l-0.4,1.6L127.3,91.9z"></path>
	</g>
	<ellipse class="st1" cx="20.3" cy="64.1" rx="2.8" ry="2.8"></ellipse>
	<ellipse class="st1" cx="132.8" cy="64.1" rx="2.8" ry="2.8"></ellipse>
</g>
</svg>
