<svg width="416.23" height="267.18" preserveAspectRatio="xMidYMid" version="1.1" viewBox="0 0 416.23 267.18" xmlns="http://www.w3.org/2000/svg">
 <g transform="translate(-751.28 -397.64)">
  <path d="m960.4 468.29c19.506 0 35.319-15.831 35.319-35.339 0-19.486-15.813-35.315-35.319-35.315-19.528 0-35.317 15.829-35.317 35.315 0 19.508 15.789 35.339 35.317 35.339z"/>
  <path d="m751.28 540.8c0 19.508 15.789 35.34 35.317 35.34h344.98c19.507 0 35.319-15.832 35.319-35.34 0-19.485-15.812-35.316-35.319-35.316h-344.98c-19.528 0-35.317 15.831-35.317 35.316z"/>
  <path d="m767.22 620.68-14.732 43.514h8.951l3.109-9.573h16.411l3.045 9.573h8.952s-14.671-43.514-14.671-43.514h-11.065zm-0.496 26.73 5.657-17.592h0.682l5.721 17.592h-12.06z"/>
  <path d="m811.73 638.21c-5.284-1.989-7.772-3.295-7.772-6.216 0-2.798 2.363-4.725 5.782-4.725 4.662 0 6.776 2.859 7.086 6.03h7.709c-0.062-7.086-5.347-13.241-14.795-13.241-8.019 0-14.236 4.663-14.236 12.557 0 7.149 6.715 10.32 12.807 12.619 5.843 2.052 8.764 4.103 8.764 7.398 0 3.357-2.984 4.973-6.465 4.973-5.532 0-7.956-3.17-8.018-7.584h-8.331c0.062 8.517 5.781 14.795 16.163 14.795 8.702 0 15.293-4.041 15.293-12.184 0-7.522-5.843-11.19-13.987-14.422z"/>
  <path d="m828.08 628.39h11.998v35.806h8.3301v-35.806h12.06v-7.7081h-32.388v7.7081z"/>
  <path d="m895.97 634.29c0-8.391-5.968-13.615-14.484-13.615h-15.79v43.516h8.082v-16.038h5.47l9.263 16.038h8.889l-10.071-17.654c5.346-1.989 8.641-6.465 8.641-12.247zm-15.292 6.216h-6.9v-12.121h6.9c4.351 0 6.9 2.362 6.9 6.03 0 3.481-2.549 6.091-6.9 6.091z"/>
  <path d="m915.92 620.68-14.732 43.514h8.951l3.108-9.573h16.411s3.046 9.573 3.046 9.573h8.952l-14.67-43.514h-11.066zm-0.497 26.73 5.657-17.592h0.684l5.719 17.592h-12.06z"/>
  <path d="m954.28 620.68h-8.89v43.516h30.088v-8.143h-21.198v-35.373z"/>
  <path d="m1013.9 654.18h-0.684l-7.211-30.398h-10.443l-7.148 30.398h-0.685l-5.471-33.506h-8.143l7.708 43.514h11.625l7.024-28.595h0.685l7.023 28.595h11.564l7.707-43.514h-8.019l-5.532 33.506z"/>
  <path d="m1040.1 645.79h17.779v-7.273h-17.779v-10.195h20.639v-7.646h-28.783v43.514h29.404v-7.708h-21.26v-10.692z"/>
  <path d="m1096.6 634.29c0-8.391-5.968-13.615-14.484-13.615h-15.79v43.516h8.082v-16.038h5.469l9.262 16.038h8.891l-10.072-17.654c5.346-1.989 8.642-6.465 8.642-12.247zm-15.292 6.216h-6.9v-12.121h6.9c4.352 0 6.899 2.362 6.899 6.03 0 3.481-2.547 6.091-6.899 6.091z"/>
  <path d="m1120.7 641.5 14.546-20.824h-9.573s-11.997 17.032-11.997 17.032h-2.549v-17.032h-8.517v43.514h8.517v-18.276h2.549l13.799 18.276h9.511l-16.286-22.068v-0.622z"/>
  <path d="m1153.5 638.21c-5.284-1.989-7.771-3.295-7.771-6.216 0-2.798 2.363-4.725 5.782-4.725 4.662 0 6.776 2.859 7.087 6.03h7.708c-0.062-7.086-5.346-13.241-14.795-13.241-8.019 0-14.236 4.663-14.236 12.557 0 7.149 6.713 10.32 12.806 12.619 5.843 2.052 8.766 4.103 8.766 7.398 0 3.357-2.985 4.973-6.466 4.973-5.532 0-7.957-3.17-8.02-7.584h-8.329c0.063 8.517 5.781 14.795 16.162 14.795 8.703 0 15.292-4.041 15.292-12.184 0-7.522-5.842-11.19-13.986-14.422z"/>
 </g>
</svg>
