<?xml version="1.0" encoding="UTF-8"?>
<svg xmlns="http://www.w3.org/2000/svg" id="Layer_1" data-name="Layer 1" viewBox="0 0 95.2 89.64">
  <defs>
    <style>
      .cls-1 {
        fill: #b6875b;
      }
    </style>
  </defs>
  <polygon class="cls-1" points="19.74 63.85 21.93 63.85 21.93 30.97 13.16 30.97 13.16 55.08 0 55.08 0 63.85 19.74 63.85 19.74 63.85"></polygon>
  <polygon class="cls-1" points="26.31 17.83 15.3 17.83 21.49 11.64 18.78 8.94 21.49 6.24 15.25 0 9.01 6.24 11.72 8.94 9.01 11.64 15.2 17.83 0 17.83 0 26.59 26.31 26.59 35.08 26.59 35.08 17.83 35.08 9.06 26.31 9.06 26.31 17.83"></polygon>
  <rect class="cls-1" x="84.56" y="17.8" width="8.82" height="8.82" transform="translate(10.35 69.41) rotate(-45)"></rect>
  <polygon class="cls-1" points="58.09 34.13 57.12 35.11 61.76 39.75 66.4 35.11 61.76 30.47 60.76 31.47 63.88 34.59 62.98 35.49 59.86 32.37 58.99 33.24 62.11 36.36 61.22 37.26 58.09 34.13"></polygon>
  <rect class="cls-1" x="39.46" y="17.83" width="41.47" height="8.77"></rect>
  <polygon class="cls-1" points="47.13 27.36 40.89 33.6 43.59 36.3 40.89 39 47.13 45.24 53.36 39 50.66 36.3 53.36 33.6 47.13 27.36"></polygon>
  <rect class="cls-1" x="26.31" y="30.97" width="8.77" height="32.87"></rect>
  <rect class="cls-1" x="84.85" y="30.97" width="8.77" height="32.87"></rect>
  <path class="cls-1" d="M81.11,30.97v32.87h-26.32v8.77h-8.77v-8.84h-6.58c0-8.43,6.83-15.26,15.26-15.26h.08v6.57h4.38v-13.5h8.77v13.5h4.4v-24.11h8.77,0Z"></path>
  <path class="cls-1" d="M8.56,84.93c-.16-.21-.37-.39-.63-.53-.26-.15-.57-.25-.94-.32.37-.23.64-.51.82-.83s.27-.74.27-1.24c0-.82-.24-1.45-.71-1.89-.47-.44-1.17-.66-2.08-.66H1.46v9.91h4.14c.53,0,1-.06,1.42-.18.42-.12.78-.31,1.07-.55.29-.24.52-.55.68-.91.16-.36.24-.77.24-1.24,0-.3-.04-.58-.11-.84-.07-.26-.19-.5-.35-.71ZM4.04,81.42h.47c.81,0,1.21.32,1.21.96s-.4.96-1.21.96h-.47v-1.92ZM5.99,87.12c-.28.17-.74.25-1.39.25h-.56v-2.1h.56c.65,0,1.11.08,1.39.25.28.17.42.43.42.8s-.14.64-.42.8Z"></path>
  <path class="cls-1" d="M13.24,79.45l-3.77,9.91h2.75l.59-1.72h3.68l.59,1.72h2.75l-3.77-9.91h-2.81ZM13.49,85.68l1.16-3.3,1.16,3.3h-2.31Z"></path>
  <rect class="cls-1" x="20.95" y="79.45" width="2.58" height="9.91"></rect>
  <polygon class="cls-1" points="24.68 81.63 26.79 81.63 26.79 89.36 29.37 89.36 29.37 81.63 31.48 81.63 31.48 79.45 24.68 79.45 24.68 81.63"></polygon>
  <polygon class="cls-1" points="37.1 89.36 42.74 89.36 42.74 87.18 39.67 87.18 39.67 85.47 42.57 85.47 42.57 83.29 39.67 83.29 39.67 81.63 42.74 81.63 42.74 79.45 37.1 79.45 37.1 89.36"></polygon>
  <polygon class="cls-1" points="47.17 79.45 44.59 79.45 44.59 89.36 50.26 89.36 50.26 87.18 47.17 87.18 47.17 79.45"></polygon>
  <path class="cls-1" d="M60.37,80.69c-.49-.47-1.07-.84-1.74-1.11-.68-.27-1.41-.4-2.21-.4s-1.54.13-2.22.4c-.67.27-1.25.64-1.73,1.11-.48.47-.86,1.03-1.13,1.66s-.41,1.32-.41,2.06.14,1.42.41,2.06c.27.64.65,1.19,1.13,1.66.48.47,1.06.84,1.73,1.11.67.27,1.41.4,2.22.4s1.53-.13,2.21-.4c.68-.27,1.26-.64,1.74-1.11.49-.47.87-1.03,1.14-1.66s.41-1.32.41-2.06-.14-1.42-.41-2.06c-.27-.64-.65-1.19-1.14-1.66ZM59,85.5c-.15.33-.35.62-.61.87-.26.25-.56.44-.89.57-.34.14-.69.2-1.07.2s-.73-.07-1.07-.2c-.34-.14-.63-.33-.89-.57-.25-.25-.46-.53-.6-.87-.15-.33-.22-.7-.22-1.09s.08-.76.22-1.09c.15-.33.35-.62.6-.87.25-.25.55-.44.89-.57.34-.14.69-.2,1.07-.2s.73.07,1.07.2c.34.14.64.33.89.57.26.25.46.53.61.87.15.33.22.7.22,1.09s-.07.76-.22,1.09Z"></path>
  <polygon class="cls-1" points="74.72 79.45 73.01 85.85 70.91 79.45 68.86 79.45 66.75 85.85 65.04 79.45 62.35 79.45 65.31 89.36 67.94 89.36 69.88 83.62 71.83 89.36 74.46 89.36 77.41 79.45 74.72 79.45"></polygon>
  <path class="cls-1" d="M80.75,79.45l-3.77,9.91h2.75l.59-1.72h3.68l.59,1.72h2.75l-3.77-9.91h-2.81ZM81,85.68l1.16-3.3,1.16,3.3h-2.31Z"></path>
  <polygon class="cls-1" points="91.05 79.45 88.47 79.45 88.47 89.36 94.14 89.36 94.14 87.18 91.05 87.18 91.05 79.45"></polygon>
</svg>
