<?xml version="1.0" encoding="UTF-8"?>
<svg id="Layer_2" data-name="Layer 2" xmlns="http://www.w3.org/2000/svg" viewBox="0 0 266.43 210.47">
  <defs>
    <style>
      .cls-1 {
        fill: none;
      }

      .cls-2 {
        stroke: #275673;
        stroke-miterlimit: 10;
        stroke-width: .5px;
      }

      .cls-2, .cls-3 {
        fill: #275673;
      }
    </style>
  </defs>
  <g id="Layer_1-2" data-name="Layer 1">
    <path class="cls-3" d="M62.43,196.5c-1.16-.88-2.79-1.43-4.87-1.65.98-.57,1.72-1.29,2.21-2.12.55-.93.83-2.09.83-3.44,0-1.77-.66-3.28-1.96-4.49-1.3-1.2-2.99-1.87-5.04-1.99h-11.32l-.02.96.44.05c.51.05.94.27,1.28.64.35.38.52.81.52,1.34v19.47c0,.52-.17.97-.52,1.34-.35.37-.78.59-1.28.64l-.44.05v.96h10.91c2.07,0,3.93-.26,5.53-.78,1.61-.52,2.91-1.28,3.86-2.25,1.27-1.33,1.88-2.97,1.81-4.88-.05-1.59-.7-2.88-1.94-3.82ZM53.6,195.05h0c-1.41.65-3.18,1.48-5.27,2.47v-13.48h2.71c3.79.1,5.63,1.88,5.63,5.42,0,2.78-1.04,4.66-3.08,5.59ZM48.33,198.91c.2-.1.67-.32,1.4-.66l2.42-1.14c.77-.36,1.34-.63,1.71-.8.34-.17.73-.28,1.15-.33.13-.02.23-.03.31-.03.84,0,1.59.15,2.23.45.64.3,1.13.64,1.46,1.02.33.38.61.84.82,1.35.22.51.36.92.41,1.21.06.3.09.58.1.84.15,2.08-.21,3.6-1.07,4.52-.91.96-2.62,1.44-5.06,1.44-2.04,0-4.02-.23-5.89-.68v-7.18Z"/>
    <path class="cls-3" d="M91.18,190.04c-.68-1.64-1.63-3.07-2.82-4.24-1.19-1.17-2.64-2.1-4.32-2.77-1.68-.67-3.51-1.01-5.43-1.01s-3.77.34-5.45,1.01c-1.68.67-3.14,1.6-4.33,2.77-1.2,1.17-2.15,2.59-2.83,4.24-.68,1.64-1.03,3.44-1.03,5.34s.35,3.7,1.03,5.34c.68,1.64,1.63,3.07,2.83,4.24,1.19,1.17,2.65,2.1,4.33,2.77,1.68.67,3.51,1.01,5.45,1.01s3.75-.34,5.43-1.01c1.68-.67,3.13-1.6,4.32-2.77,1.19-1.17,2.14-2.59,2.82-4.24.68-1.64,1.03-3.44,1.03-5.34s-.35-3.7-1.03-5.34ZM88.26,197.33c0,2.95-.77,5.37-2.28,7.18-1.51,1.8-3.52,2.72-5.97,2.72-1.27,0-2.51-.27-3.67-.79-1.16-.53-2.2-1.25-3.08-2.15-.88-.91-1.66-1.96-2.31-3.13-.65-1.17-1.15-2.44-1.5-3.77-.34-1.33-.51-2.67-.51-4,0-2.94.77-5.35,2.28-7.15,1.51-1.79,3.52-2.7,5.97-2.7,1.58,0,3.09.41,4.49,1.22,1.4.81,2.59,1.88,3.53,3.18.94,1.3,1.7,2.8,2.24,4.44.54,1.64.82,3.31.82,4.97Z"/>
    <path class="cls-3" d="M113.4,203.57h0c-.22.01-.53.02-.98.02-2.45,0-4.86-.45-7.15-1.34-2.15-.83-4.1-2.01-5.81-3.5,1.07.2,2.23.32,3.46.36,1.7.05,3.28-.18,4.72-.68,1.44-.5,2.68-1.24,3.69-2.22.82-.8,1.46-1.74,1.91-2.8.44-1.06.66-2.18.66-3.36,0-2.24-.88-4.03-2.63-5.32-1.73-1.29-4.12-1.94-7.09-1.94h-12.15v.96l.42.05c.5.04.93.26,1.28.64.34.38.53.83.54,1.34v19.47c0,.52-.17.97-.52,1.34-.35.37-.78.59-1.3.64l-.42.05v.96h8.31v-.96l-.44-.05c-.51-.05-.94-.27-1.29-.64-.35-.37-.53-.82-.53-1.34v-5.56c1.23,2.01,2.82,3.73,4.75,5.13,2.05,1.49,4.34,2.51,6.8,3.03l.23.05,4.87-4.41-1.35.07ZM98.1,186.24v-2.13h4.29c1.27,0,2.38.14,3.3.43.91.28,1.64.64,2.15,1.07.51.43.93.98,1.23,1.64.31.66.51,1.31.6,1.92.09.62.14,1.34.14,2.14,0,.65-.05,1.28-.16,1.85-.11.57-.31,1.15-.61,1.74-.3.59-.69,1.1-1.16,1.51-.47.42-1.12.76-1.92,1.03-.8.26-1.75.4-2.81.4h-.36c-.52-.02-1.07-.06-1.63-.1l-.33-.03c-.88-.11-1.8-.26-2.73-.46v-10.49h.05l-.05-.5Z"/>
    <path class="cls-3" d="M135.41,186.01c-2.38-2.12-5.72-3.2-9.92-3.2h-11.12v.96l.44.05c.52.04.94.25,1.29.64.34.38.51.84.51,1.36v19.43c0,.52-.17.97-.51,1.36-.34.39-.76.6-1.29.64l-.44.05v.96h10.43c2.74,0,5.22-.57,7.36-1.69,2.15-1.12,3.84-2.71,5.04-4.74,1.19-2.03,1.8-4.36,1.8-6.93,0-3.76-1.21-6.75-3.59-8.88ZM134.77,196.56c0,3.57-.77,6.19-2.27,7.79-1.51,1.6-3.98,2.41-7.35,2.41-1.78,0-3.36-.33-4.7-.97v-21.71h3.65c1.28,0,2.46.15,3.52.45,1.06.3,1.95.7,2.67,1.19.71.49,1.35,1.09,1.9,1.79.55.7.99,1.42,1.3,2.14.32.73.58,1.53.78,2.38.2.86.33,1.65.4,2.35.07.7.1,1.44.1,2.18Z"/>
    <path class="cls-3" d="M166.22,190.04c-.68-1.64-1.63-3.07-2.82-4.24-1.19-1.17-2.64-2.1-4.32-2.77-1.68-.67-3.51-1.01-5.43-1.01s-3.77.34-5.45,1.01c-1.68.67-3.14,1.6-4.33,2.77-1.2,1.17-2.15,2.59-2.83,4.24-.68,1.64-1.03,3.44-1.03,5.34s.35,3.7,1.03,5.34c.68,1.64,1.63,3.07,2.83,4.24,1.2,1.17,2.65,2.1,4.33,2.77,1.68.67,3.51,1.01,5.45,1.01s3.75-.34,5.43-1.01c1.68-.67,3.13-1.6,4.32-2.77,1.19-1.17,2.14-2.59,2.82-4.24.68-1.64,1.03-3.44,1.03-5.34s-.34-3.7-1.03-5.34ZM163.3,197.33c0,2.95-.77,5.37-2.28,7.18-1.51,1.8-3.52,2.72-5.97,2.72-1.27,0-2.51-.27-3.67-.79-1.16-.53-2.2-1.25-3.08-2.15-.88-.91-1.66-1.96-2.31-3.13-.65-1.17-1.15-2.44-1.5-3.77-.34-1.33-.51-2.67-.51-4,0-2.94.77-5.35,2.28-7.15,1.51-1.79,3.52-2.7,5.97-2.7,1.58,0,3.09.41,4.49,1.22,1.4.81,2.59,1.88,3.53,3.18.94,1.3,1.7,2.8,2.24,4.44.54,1.64.82,3.31.82,4.97Z"/>
    <path class="cls-3" d="M219.71,206.41c-.48-.32-.82-.76-1.03-1.29l-9.6-24.26-.19-.47-2.98,1.42-.62.29,2.21,5.54-6.92,16.32c-.59,1.38-1.58,2.37-2.96,2.94h-.04c-.52-.05-.95-.26-1.3-.64-.34-.38-.52-.84-.52-1.36v-19.43c0-.52.17-.97.52-1.36.34-.38.78-.6,1.3-.64l.42-.05v-.96h-5.13v-.47l-.24.47h-.39s-9.86,16.74-9.86,16.74l-11.11-16.74h-4.64l1.74,2.71c.56.86.84,1.82.84,2.86v15.49c0,.74-.21,1.43-.63,2.04-.42.61-.98,1.07-1.67,1.36l-.3.14v.84h6.45v-.84l-.3-.14c-.7-.29-1.26-.74-1.68-1.36-.41-.61-.62-1.31-.62-2.06v-15.1l12.66,19.44.04.06h4.88l-4.87-7.53,8.74-14.8.02,18.91v.43c0,.52-.17.97-.51,1.36-.34.39-.76.6-1.29.64l-.44.05v.96h12.98v-.82l-.26-.14c-.41-.22-.69-.53-.85-.96-.16-.43-.15-.84.02-1.26l1.28-3.01h10.26l1.22,3.1c.18.5.13.96-.17,1.4-.31.45-.72.67-1.24.67h-.49v1.01h9.33v-1.01h-.49c-.58,0-1.12-.16-1.59-.49ZM212.65,200.49h-9.23l4.75-11.21,4.47,11.19v.02Z"/>
    <path class="cls-3" d="M234.89,182.18c-.25-.54-.51-1.01-.75-1.39l-.3-.49-3.88,3.52.28.35c.94,1.18,1.64,2.5,2.08,3.92.19.63.34,1.32.43,2.05.24,1.99-.03,3.95-.78,5.81l-2.38,5.77v.09s-1.54,3.58-1.54,3.58l-7.91-19.84c-.18-.5-.13-.96.17-1.4.31-.45.72-.67,1.24-.67h.49v-1.01h-9.31v1.01h.47c.58,0,1.12.16,1.59.49.48.32.82.76,1.03,1.3l9.95,25.21h4.55l-1.59-3.52,4.34-10.21,1.86-4.17c.19-.45.3-.71.33-.8.58-1.56.84-3.18.77-4.83-.06-1.64-.45-3.25-1.14-4.76h0Z"/>
    <path class="cls-3" d="M236.1,183.43l.44.05c.52.04.95.26,1.29.64.34.38.51.84.51,1.36v19.43c0,.52-.17.97-.51,1.36-.34.38-.77.6-1.29.64l-.44.05v.96h8.31v-.96l-.44-.05c-.51-.05-.94-.27-1.28-.64-.35-.38-.52-.81-.52-1.34v-19.47c0-.52.17-.97.52-1.34.34-.37.78-.59,1.28-.64l.44-.05v-.96h-8.31v.96Z"/>
    <polygon class="cls-3" points="233.92 79.21 236.54 79.21 236.54 69.93 232.19 69.93 232.19 71.96 233.92 71.96 233.92 79.21"/>
    <path class="cls-3" d="M242.66,69.74c-2.02,0-3.63,1.23-3.63,3.17,0,1.78,1.45,2.93,3.2,2.93.87,0,1.56-.24,2.08-.68-.15,1.41-1.02,2.15-2.33,2.15-.6,0-1.18-.11-1.71-.48l-.95,1.88c.68.44,1.68.68,2.72.68,2.94,0,4.95-1.84,4.95-5.08,0-3.01-1.7-4.57-4.31-4.57ZM242.84,73.96c-.76,0-1.27-.45-1.27-1.17s.52-1.18,1.26-1.18c.8,0,1.3.48,1.3,1.17s-.53,1.18-1.29,1.18Z"/>
    <path class="cls-3" d="M252.59,69.74c-2.02,0-3.63,1.23-3.63,3.17,0,1.78,1.45,2.93,3.2,2.93.87,0,1.56-.24,2.08-.68-.15,1.41-1.02,2.15-2.33,2.15-.6,0-1.18-.11-1.71-.48l-.95,1.88c.68.44,1.68.68,2.72.68,2.94,0,4.95-1.84,4.95-5.08,0-3.01-1.7-4.57-4.31-4.57ZM252.78,73.96c-.76,0-1.27-.45-1.27-1.17s.52-1.18,1.26-1.18c.8,0,1.3.48,1.3,1.17s-.53,1.18-1.29,1.18Z"/>
    <path class="cls-3" d="M262.61,73.31h-.62l.12-1.35h3.74v-2.03h-5.91l-.46,5.42h2.52c1.42,0,1.8.37,1.8.94,0,.62-.6.98-1.49.98s-1.82-.27-2.57-.77l-.94,1.98c.94.6,2.31.92,3.59.92,2.8,0,4.04-1.51,4.04-3.17s-1.07-2.92-3.82-2.92Z"/>
    <g>
      <path class="cls-1" d="M187.81,119.58c-1.02-.3-1.67-1.16-2.25-2.01-.33-.48-.64-.95-.76-1.59-.41-2.13-.65-4.27-.74-6.42-.08-1.95-.14-3.89-.22-5.84-.02-.6-.06-1.2-.12-1.8-.02-.15-.14-.3-.21-.45-.09.11-.19.2-.26.32-.54.85-.91,1.75-.92,2.78-.02,2.86-.19,5.7.56,8.54.61,2.34,1.36,4.58,2.46,6.71.54,1.04.46,1.57-.35,2.48-.63.71-1.25,1.44-1.83,2.2-.42.54-.96.81-1.59.96-.55.13-1.1.31-1.65.34-.7.03-1,.42-1.19,1-.14.43-.42.69-.84.89-.98.47-1.94,1-2.9,1.52-.21.12-.4.3-.56.48-.2.24-.02.46.21.43.41-.05.81-.2,1.21-.33,1.51-.49,3-1.05,4.63-.8,2.33.36,4.34,1.4,6.1,2.96.29.26.55.55.85.8.11.09.35.17.45.11.11-.07.21-.3.18-.44-.04-.23-.16-.46-.29-.66-.83-1.33-1.77-2.54-3.17-3.34-.23-.13-.41-.5-.43-.77,0-.14.38-.37.62-.44.44-.13.9-.19,1.35-.26.24-.04.51-.02.73-.11.18-.07.31-.26.46-.4-.16-.07-.32-.16-.48-.2-.41-.11-.81-.22-1.23-.3-.35-.07-.79-.08-.82-.51-.02-.31.13-.71.34-.92.58-.57,1.21-1.07,2.07-1.21.52-.09,1.02-.26,1.52-.43.37-.13.74-.3.7-.78-.31-1.01-.35-2.12-1.66-2.51Z"/>
      <path class="cls-1" d="M163.93,49.45c.23-.9.18-1.89.11-2.84-.05-.65-.31-.72-.85-.38-.29.18-.54.44-.78.69-1.42,1.5-2.74,3.1-4.7,4.01-.89.41-1.77.7-2.72.76-.32.02-.86-.08-.93-.27-.2-.53.34-.56.68-.7.37-.16.63-.44.27-.8-.5-.51-.31-1.03-.16-1.58.18-.68.08-.86-.58-1.09-.73-.25-1.46-.52-2.19-.77-.23-.08-.48-.16-.72-.16-1.05-.01-1.86-.65-2.75-1.06-.47-.21-.7-.69-.6-1.25.1-.55.49-.91,1.12-.94.92-.04,1.84,0,2.76-.03.42-.02.84-.11,1.24-.22.65-.19.9-.49.83-1.14-.07-.66-.27-1.31-.42-1.97-.1-.44-.23-.88-.33-1.32-.21-.93-.41-1.86-.61-2.79-.16-.76-.37-1.52-.46-2.28-.08-.64.12-1.2.58-1.74,1.44-1.7,3.33-2.57,5.4-3.13,1.12-.31,2.29-.45,3.45-.64.34-.06.72-.07,1.04.02.23.06.55.32.56.51.02.26-.18.56-.35.8-.09.13-.32.14-.46.25-.13.1-.21.25-.32.38.16.11.31.24.49.32.12.05.28.05.42.04.78-.08,1.34.28,1.83.84.41.47.53,1,.08,1.38-.69.58-1.37,1.18-2.38,1.26-1.66.13-3.3.37-4.95.58-.49.06-.86.27-1.02.79-.55,1.76-.47,3.53.23,5.2.35.82,1.05,1.49,1.62,2.21.12.15.35.24.54.31,1.62.55,3.01,0,4.17-1.07.95-.87,1.85-1.79,2.52-2.95.9-1.54,1.59-3.19,1.91-4.89.43-2.25.43-4.58-.42-6.81-.1-.26-.13-.55-.2-.82-.17-.68-.29-1.38-.54-2.04-.29-.75-.63-1.5-1.07-2.17-.74-1.11-1.51-2.21-2.4-3.2-.79-.89-1.78-1.58-2.62-2.43-.54-.55-.77-1.26-.6-2.06.06-.31.15-.63.14-.94-.01-.44-.11-.88-.17-1.32-.43.21-.86.41-1.28.63l-.13.17c-.97,1.21-2.24,2.03-3.56,2.76-.64.36-1.39.53-2.03.9-1.42.82-2.95.91-4.52.83-.81-.04-1.63-.09-2.14-.12-1.83.09-3.35.14-4.87.26-.44.03-.94.13-1.3.37-1.56,1.04-2.62,2.58-3.55,4.13-.61,1.02-1.31,2.11-1.37,3.4,0,.13-.11.26-.14.4-.2.85-.54,1.7-.57,2.57-.1,2.34-.08,4.68-.09,7.01,0,.86.26,1.63.77,2.37.98,1.41,1.92,2.86,2.78,4.35.67,1.16,1.58,1.76,2.9,1.78,1,.02,1.98-.06,2.93-.41.6-.22.94-.02,1.06.61.07.34.03.71.05,1.06.06,1.22.64,1.93,1.82,2.28.91.27,1.81.59,2.73.86.34.1.66.28.59.62-.05.26-.31.58-.56.68-.84.34-1.72.36-2.56,0-1.19-.52-2.43-.76-3.72-.7-.9.04-1.18.49-.93,1.34.55,1.86,1.71,3.34,3.13,4.57,1.21,1.04,2.47,2.04,4.19,2.32,1.23.19,2.43.47,3.67.23.62-.12,1.24-.36,1.86-.39,1.69-.1,3.05-1.05,4.54-1.64.49-.19.95-.47,1.37-.8,1.65-1.27,2.73-2.96,3.25-4.95ZM146.01,35.75c-.92.6-1.93.62-2.96.56-.67-.04-1.34-.16-2.01-.14-1.02.03-1.82-.5-2.68-.89-.15-.07-.22-.38-.27-.6-.03-.12.07-.27.13-.4.58-1.3.56-1.34-.87-1.5-.3-.03-.73-.01-.71-.45.01-.22.23-.52.43-.62.53-.26,1.09-.56,1.66-.62,1.55-.17,3.1-.22,4.93-.33.75.09,1.8.09,2.78.37.71.2,1.35.73,1.95,1.2.42.33.48.91.26,1.37-.33.69-.68,1.41-1.57,1.6-.37.08-.75.24-1.07.44Z"/>
      <path class="cls-1" d="M136.76,15.3c.62-.32,1.3-.52,1.91-.87,1.84-1.05,3.9-1.4,5.9-1.97.44-.12.9-.18,1.36-.2,1.31-.05,2.57-.17,3.65-1.08.41-.34.77-.65,1.08-1.1.56-.83.8-1.9,1.75-2.46.18-.11.27-.39.45-.68-.18-.19-.31-.42-.49-.48-.29-.09-.63-.12-.94-.07-.87.13-1.73.44-2.59.45-1.95.03-3.72.78-5.57,1.2-.76.17-1.45.67-2.16,1.05-.74.4-1.43.89-2.19,1.26-1.53.76-2.68,1.8-3.01,3.55-.03.17-.16.32-.18.49-.04.29-.18.7-.04.86.27.31.68.24,1.07.04Z"/>
      <path class="cls-1" d="M191.82,69.25c-.95-1.02-1.98-1.94-3.17-2.72-1.85-1.19-3.88-1.95-5.88-2.79-.51-.22-1.09-.27-1.74-.42-.15.1-.41.18-.51.36-.06.11.08.41.21.53.44.4.9.79,1.39,1.13.95.67,1.99,1.24,2.06,2.62,0,.18.3.5.44.49.83-.07,1.12.45,1.33,1.09.11.36.34.42.65.27.28-.14.56-.3.84-.45.55-.31,1.12-.36,1.74-.18.71.21,1.22.66,1.74,1.16.47.46.99.86,1.52,1.25.16.12.42.11.64.16,0-.23.1-.52,0-.69-.37-.63-.75-1.29-1.25-1.82Z"/>
      <path class="cls-3" d="M207.58,95.46c-.23-2.59-.28-5.24-1.23-7.74-.34-.91-.7-1.78-1.37-2.47-.42-.43-.5-.88-.48-1.44.02-.66.05-1.37-.13-1.99-.49-1.65-1.02-3.3-1.66-4.9-.64-1.59-1.41-3.14-2.17-4.68-1.04-2.1-2.43-3.93-4.07-5.64-2.19-2.29-4.83-3.73-7.75-4.79-1.16-.42-2.31-.89-3.47-1.31-1.1-.4-2.2-.77-3.31-1.13-1.3-.43-2.63-.79-3.91-1.27-1.45-.54-2.87-1.18-4.31-1.78-.52-.21-.78-.13-.91.32-.3,1.01-.64,2.02-.84,3.05-.38,1.85-1.19,3.53-2.05,5.18-.89,1.7-2.06,3.2-3.45,4.53-1.15,1.1-2.37,2.07-3.8,2.78-.63.31-1.23.67-1.86,1-.16.08-.34.11-.51.16,0-.21-.07-.47.03-.61.15-.22.4-.46.64-.52.91-.22,1.57-.87,2.15-1.48,1.45-1.53,2.89-3.09,4.11-4.79,1.47-2.06,2.85-4.21,3.14-6.85.23-2.07-.04-3.98-1.31-5.72-.71-.97-1.05-2.14-1.2-3.34-.16-1.3.25-2.52.47-3.77.44-2.44.77-4.89,1.16-7.34.1-.63.28-1.24.41-1.87.11-.59.22-1.17.29-1.77.11-.84.06-1.72.29-2.52.44-1.58.8-3.16.84-4.8.04-1.52,0-3.04,0-4.57h.08c0-.67,0-1.35,0-2.02.02-1.07,0-2.12-.59-3.07-.44-.71-.58-1.51-.56-2.35,0-.46,0-.93-.07-1.38-.06-.37-.17-.75-.33-1.08-.86-1.69-1.83-3.31-3.01-4.81-2.42-3.08-5.23-5.62-8.92-7.02-1.61-.61-3.29-1.17-4.98-1.37-3.3-.39-6.6-.51-9.87.54-2.45.78-4.72,1.89-6.78,3.35-2.22,1.58-4.09,3.57-5.89,5.62-.96,1.1-1.81,2.37-2.13,3.74-.36,1.55-.72,3.18-.51,4.83.17,1.3.26,2.61.42,3.91.07.59.13,1.22.37,1.75.43.97.54,1.98.58,3,.05,1.35.06,2.69.05,4.04-.01,1.49.1,2.92.7,4.35.73,1.72,1.52,3.39,2.56,4.94.58.88,1.15,1.77,1.69,2.67.34.57.75,1.15.93,1.78.33,1.18,1.11,2.22,1.18,3.49,0,.13.1.26.16.39.59,1.33.7,2.72.57,4.15-.16,1.83-.24,3.67-.41,5.5-.14,1.58.49,2.95,1.3,4.18,1.22,1.86,2.62,3.58,4.7,4.59.6.29,1.14.71,1.73,1.01,1.29.65,2.59,1.29,3.91,1.87,1.19.52,2.42.94,3.62,1.43.18.08.29.34.43.51-.19.15-.36.35-.57.42-.18.06-.43.03-.62-.03-1.27-.41-2.55-.82-3.8-1.29-1.18-.44-2.32-1.01-3.51-1.44-3.15-1.14-5.9-2.8-7.93-5.55-.86-1.17-1.48-2.41-1.56-3.86-.05-.88.01-1.77,0-2.65,0-.39,0-.78-.08-1.15-.13-.58-.26-.61-.67-.23-.21.19-.39.42-.61.58-1.43,1.02-2.86,2.04-4.3,3.05-.6.42-1.2.87-1.85,1.21-1.84.96-3.76,1.79-5.56,2.83-1.55.9-3.02,1.94-4.42,3.06-.69.55-1.37,1.31-1.38,2.29-.01,1.06,0,2.15.28,3.16.52,1.97,1.22,3.89,1.86,5.83.44,1.34.87,2.69,1.36,4.01.67,1.77,1.35,2.16,2.95,1.8.17-.04.32-.15.49-.18,1.27-.27,2.54-.72,3.85-.18.33.13.66.24.99.37,1.4.54,2.58,1.3,2.95,2.89.04.17.17.31.24.47.48,1.02.67,1.04,1.71.65,1.25-.47,2.54-.86,3.83-1.25.74-.22,1.5-.38,2.27-.53.83-.17,1.66-.37,2.5-.42,1.35-.08,1.79.32,1.92,1.66.31,3.18.59,6.37-.5,9.46-.4,1.15-.74,2.33-1.45,3.36-.45.65-.69,1.41-.32,2.21.25.54.51,1.08.74,1.63.37.87.62,1.82,1.11,2.62.93,1.5,2.06,2.85,3.95,3.21.21.04.41.13.59.24.65.35,1.36.47,2.06.36,1.6-.26,3.2-.58,4.79-.87l.18-.1c.97-.55,1.95-1.09,2.92-1.64.31-.17.61-.36.93-.51.67-.32,1.12-.08,1.21.64.02.14.03.29,0,.42-.24,1.6-.36,3.24-.77,4.79-.44,1.66-1.22,3.22-2.09,4.72-.37.64-.7,1.27-1.18,1.85-.66.8-.51,1.4.23,2.13,1.18,1.17,2.39,2.31,3.5,3.54,1.11,1.22,2.19,2.49,3.17,3.82,1,1.36,1.92,2.79,2.79,4.23,1.12,1.87,2.25,3.73,3.19,5.69.92,1.93,1.62,3.97,2.4,5.98.13.33.16.69.23,1.03.06.28.04.6.17.82.58.94.6,2.02.84,3.05.1.41.13.84.27,1.25.26.8.6.99,1.44.8,1.37-.3,2.74-.64,4.11-.96,1.44-.34,2.87-.72,4.32-1.04,2.8-.62,5.6-1.22,8.39-1.83.48-.11.96-.26,1.43-.4.37-.11.73-.24,1.09-.38,1.29-.47,2.58-.93,3.86-1.41,1.3-.49,2.48-1.18,3.55-2.06.76-.62,1.57-1.21,2.18-1.96.77-.95,1.41-2.02,2.01-3.1.37-.66.56-1.43.83-2.15.67-1.83,1.18-3.7,1.42-5.63.09-.74.23-1.47.33-2.21.2-1.47.39-2.94.58-4.41.03-.21.06-.42.08-.63.19-2.01.42-4.01.58-6.02.58-7.51.5-15.02-.18-22.52ZM135.73,14.4c.03-.17.15-.32.18-.49.33-1.76,1.48-2.8,3.01-3.55.75-.37,1.45-.86,2.19-1.26.71-.38,1.4-.88,2.16-1.05,1.85-.42,3.62-1.18,5.57-1.2.87-.01,1.72-.32,2.59-.45.3-.05.64-.02.94.07.18.06.31.29.49.48-.19.29-.27.57-.45.68-.95.57-1.19,1.63-1.75,2.46-.3.45-.67.76-1.08,1.1-1.08.91-2.34,1.03-3.65,1.08-.46.02-.92.08-1.36.2-2,.56-4.06.92-5.9,1.97-.6.34-1.28.55-1.91.87-.39.2-.8.27-1.07-.04-.14-.16,0-.57.04-.86ZM154.77,56.84c-.63.04-1.24.27-1.86.39-1.24.24-2.44-.03-3.67-.23-1.72-.27-2.98-1.27-4.19-2.32-1.42-1.23-2.58-2.7-3.13-4.57-.25-.85.03-1.3.93-1.34,1.29-.06,2.53.19,3.72.7.84.37,1.72.35,2.56,0,.25-.1.51-.42.56-.68.06-.34-.25-.52-.59-.62-.91-.27-1.81-.6-2.73-.86-1.18-.35-1.76-1.06-1.82-2.28-.02-.35.02-.72-.05-1.06-.12-.63-.46-.83-1.06-.61-.95.35-1.93.43-2.93.41-1.32-.03-2.23-.63-2.9-1.78-.86-1.49-1.8-2.94-2.78-4.35-.51-.74-.77-1.51-.77-2.37,0-2.34-.01-4.68.09-7.01.04-.86.37-1.71.57-2.57.03-.14.14-.26.14-.4.06-1.29.76-2.38,1.37-3.4.93-1.55,2-3.09,3.55-4.13.36-.24.86-.33,1.3-.37,1.52-.11,3.04-.16,4.87-.26.51.03,1.32.08,2.14.12,1.57.08,3.1,0,4.52-.83.64-.37,1.39-.54,2.03-.9,1.32-.74,2.6-1.56,3.56-2.76l.13-.17c.42-.22.85-.42,1.28-.63.06.44.15.88.17,1.32,0,.31-.08.63-.14.94-.17.8.07,1.51.6,2.06.83.85,1.83,1.55,2.62,2.43.88.99,1.66,2.09,2.4,3.2.44.67.78,1.42,1.07,2.17.25.65.37,1.35.54,2.04.07.27.1.56.2.82.85,2.23.84,4.56.42,6.81-.32,1.7-1.01,3.35-1.91,4.89-.67,1.16-1.58,2.08-2.52,2.95-1.16,1.07-2.55,1.62-4.17,1.07-.19-.07-.42-.15-.54-.31-.57-.72-1.27-1.39-1.62-2.21-.7-1.67-.78-3.44-.23-5.2.16-.52.53-.73,1.02-.79,1.65-.2,3.3-.45,4.95-.58,1.01-.08,1.69-.68,2.38-1.26.45-.38.33-.91-.08-1.38-.49-.56-1.05-.92-1.83-.84-.14.01-.3.02-.42-.04-.18-.08-.33-.21-.49-.32.1-.13.19-.28.32-.38.14-.11.37-.12.46-.25.17-.24.37-.54.35-.8-.01-.19-.33-.45-.56-.51-.33-.09-.7-.07-1.04-.02-1.15.19-2.32.34-3.45.64-2.06.56-3.96,1.44-5.4,3.13-.46.54-.66,1.1-.58,1.74.1.77.3,1.52.46,2.28.2.93.4,1.86.61,2.79.1.44.22.88.33,1.32.15.65.35,1.3.42,1.97.07.66-.18.95-.83,1.14-.4.12-.82.21-1.24.22-.92.04-1.84,0-2.76.03-.62.03-1.02.39-1.12.94-.1.56.13,1.03.6,1.25.89.41,1.7,1.04,2.75,1.06.24,0,.49.09.72.16.73.25,1.46.52,2.19.77.66.22.76.4.58,1.09-.15.54-.34,1.07.16,1.58.36.37.1.65-.27.8-.35.14-.89.17-.68.7.07.19.61.29.93.27.95-.07,1.83-.35,2.72-.76,1.96-.91,3.27-2.51,4.7-4.01.24-.25.49-.51.78-.69.54-.34.8-.26.85.38.07.94.13,1.94-.11,2.84-.52,1.99-1.61,3.68-3.25,4.95-.41.32-.88.6-1.37.8-1.5.59-2.85,1.55-4.54,1.64ZM188.77,122.86c-.5.17-1.01.34-1.52.43-.85.14-1.49.64-2.07,1.21-.22.21-.36.62-.34.92.02.43.47.44.82.51.41.08.82.19,1.23.3.17.05.32.13.48.2-.15.14-.28.33-.46.4-.22.09-.49.07-.73.11-.45.08-.92.13-1.35.26-.24.07-.63.3-.62.44.02.27.2.64.43.77,1.4.8,2.34,2.01,3.17,3.34.13.2.25.43.29.66.02.14-.07.37-.18.44-.1.06-.34-.01-.45-.11-.3-.24-.56-.54-.85-.8-1.75-1.56-3.76-2.59-6.1-2.96-1.63-.25-3.13.31-4.63.8-.4.13-.8.28-1.21.33-.22.03-.4-.19-.21-.43.15-.19.35-.37.56-.48.96-.52,1.91-1.04,2.9-1.52.42-.2.7-.46.84-.89.19-.58.49-.97,1.19-1,.55-.03,1.1-.21,1.65-.34.63-.15,1.18-.42,1.59-.96.58-.76,1.19-1.49,1.83-2.2.81-.91.89-1.44.35-2.48-1.11-2.13-1.85-4.38-2.46-6.71-.75-2.85-.58-5.68-.56-8.54,0-1.03.38-1.93.92-2.78.07-.12.17-.21.26-.32.07.15.19.29.21.45.06.6.09,1.2.12,1.8.08,1.95.14,3.89.22,5.84.09,2.16.33,4.3.74,6.42.12.63.43,1.11.76,1.59.58.85,1.23,1.71,2.25,2.01,1.3.39,1.35,1.5,1.66,2.51.04.48-.33.65-.7.78ZM193.06,71.76c-.21-.05-.47-.04-.64-.16-.53-.39-1.06-.79-1.52-1.25-.51-.5-1.02-.95-1.74-1.16-.62-.18-1.18-.13-1.74.18-.28.15-.55.31-.84.45-.31.15-.54.08-.65-.27-.21-.64-.5-1.16-1.33-1.09-.14.01-.43-.31-.44-.49-.07-1.38-1.11-1.95-2.06-2.62-.49-.34-.95-.73-1.39-1.13-.13-.12-.27-.42-.21-.53.09-.17.35-.26.51-.36.65.15,1.23.21,1.74.42,2,.84,4.03,1.59,5.88,2.79,1.2.77,2.22,1.7,3.17,2.72.5.53.87,1.19,1.25,1.82.1.17,0,.46,0,.69Z"/>
      <path class="cls-3" d="M154.08,159.36c-.35-.73-.66-1.5-.81-2.28-.18-.94-.35-1.87-.76-2.75-.13-.28-.16-.62-.19-.93-.08-.74-.11-1.48-.2-2.22-.03-.22-.17-.43-.26-.65-.15.22-.33.42-.45.65-.06.11-.03.28-.05.42-.21,1.39-.36,2.8-.64,4.18-.34,1.71-2.21,2.8-3.84,2.33-1.09-.31-2.11-.72-3.09-1.34-1.85-1.16-3.2-2.63-3.73-4.78-.2-.79-.71-1.17-1.54-1.21-.42-.02-.85.04-1.28.02-1.95-.08-3.53-1.01-4.51-2.6-.62-1.01-1.2-2.18-1.19-3.47,0-.21-.01-.45-.12-.62-.56-.86-.51-1.82-.52-2.77-.01-1.1.13-2.15.52-3.21.36-.97.45-1.99,1-2.96,1.02-1.78,2.26-3.31,3.75-4.69.21-.19.42-.39.56-.62.1-.17.09-.4.14-.6-.2,0-.4-.05-.6-.02-1.04.15-1.77.93-2.5,1.53-2.24,1.83-4.03,4.04-4.82,6.91-.05.17-.09.35-.2.48-.51.64-.65,1.39-.68,2.19-.02.42-.13.84-.2,1.25-.33,2-.46,3.99.09,5.99.17.63.11,1.33.13,2,0,.09-.16.22-.27.26l-.27-.12c-.34-.84-.73-1.66-.95-2.53-.2-.78-.4-1.35-1.31-1.56-1.16-.27-2.12-1.02-2.88-1.89-1.19-1.36-1.77-3.09-1.86-4.86-.19-3.68.82-7.12,2.6-10.33.91-1.64,2.08-3.1,3.46-4.36,1.92-1.75,4.05-3.19,6.55-3.99.69-.22,1.46-.2,2.19-.33.17-.03.32-.21.47-.31-.14-.07-.28-.19-.43-.21-3.34-.43-6.47.25-9.42,1.82-1.76.94-3.29,2.19-4.67,3.62-1.05,1.09-2.11,2.23-2.68,3.64-.85,2.09-1.79,4.17-1.67,6.52.02.42-.14.84-.15,1.26-.03,1.16-.08,2.33-.04,3.49.05,1.52.18,3.04.26,4.56,0,.12-.16.26-.24.38-.11-.08-.26-.13-.33-.23-.1-.14-.13-.33-.21-.49-.72-1.35-.99-2.86-1.38-4.31-.24-.88-.28-1.81-.43-2.72-.09-.52-.16-1.03-.66-1.38-1.62-1.12-3.26-2.23-4.82-3.43-1.56-1.21-3.14-2.42-4.52-3.83-1.67-1.71-3.15-3.6-4.69-5.44-2.28-2.72-3.99-5.81-5.65-8.92-.28-.52-.61-1.02-.85-1.56-.55-1.26-1.07-2.54-1.58-3.82-.23-.59-.33-1.24-.63-1.79-.31-.56-.42-1.12-.42-1.73,0-.19.1-.37.16-.56.18.14.4.25.52.42,1.2,1.74,2.32,3.53,3.58,5.22,2.2,2.93,4.66,5.63,7.42,8.07,2.69,2.38,5.42,4.69,8.58,6.43.29.16.51.58.88.28.04-.03-.28-.56-.46-.83-.16-.23-.36-.43-.56-.64-.75-.79-1.55-1.54-2.25-2.39-1.41-1.71-2.79-3.46-4.14-5.22-.9-1.17-1.79-2.35-2.57-3.6-1.12-1.79-2.16-3.63-3.17-5.48-.74-1.36-1.4-2.76-2.04-4.18-.42-.93-.72-1.9-1.08-2.86-.74-2.01-1.52-4.01-2.19-6.05-.43-1.3-.74-2.65-1.01-3.99-.39-1.94-1.01-3.84-1.05-5.84,0-.17-.04-.36-.12-.51-.54-1.02-.43-2.13-.44-3.22,0-.74,0-1.49.01-2.23,0-.09.14-.21.23-.25l.25.17c.07.12.11.27.11.4.01.94.37,1.79.7,2.65.41,1.09.7,2.22,1.08,3.32.47,1.32.98,2.62,1.49,3.93.4,1.01.81,2.02,1.23,3.02.06.14.22.23.33.34.1-.13.31-.26.3-.38-.05-.73-.12-1.47-.25-2.19-.1-.54-.33-1.06-.44-1.61-.17-.8-.27-1.61-.45-2.4-.13-.59-.4-1.15-.46-1.74-.21-1.94-.37-3.88-.53-5.82-.31-3.7.11-7.38.66-11.01.32-2.14.64-4.31,1.38-6.39.35-1.01.33-2.15.9-3.13.08-.14-.03-.4-.06-.61-.19.05-.41.05-.55.15-1.1.82-2.13,1.71-3.01,2.79-1.26,1.56-2.68,3-3.85,4.62-1.05,1.45-1.86,3.07-2.77,4.61-.08.14-.19.26-.28.39-.11-.13-.28-.24-.34-.4-.3-.91-.55-1.83-.87-2.73-.13-.38-.39-.71-.6-1.06-.13.38-.3.76-.39,1.15-.06.27.01.56,0,.85,0,.5,0,.99-.05,1.49-.18,1.77-.24,3.54.01,5.3.13.9-.06,1.75-.36,2.6-.2.56-.35,1.14-.46,1.73-.14.8-.16,1.63-.35,2.42-.33,1.39-.51,2.78-.53,4.21,0,.25,0,.52-.09.73-.72,1.64-1.65,3.13-3.3,4-.5.26-1.02.49-1.53.74-1.17.58-2.42,1.07-3.15,2.23-.62.98-1.3,2.01-1.01,3.25.2.86.49,1.7.85,2.5.75,1.65,1.92,3.03,3.1,4.39,2.27,2.64,4.68,5.18,6.33,8.3.59,1.11.87,2.23.75,3.46-.05.56-.15,1.12-.21,1.69-.12,1.04-.04,2.01.53,2.96.59.99.57,2.13.04,3.16-.23.44-.21.72,0,1.15.5,1.05.51,2.16-.05,3.18-.57,1.03-.64,1.99-.04,3.01.27.46.28.92.03,1.41-.57,1.09-.53,1.22.31,2.12.12.13.25.25.37.39.51.63.69,1.3.25,2.05-.11.18-.2.39-.22.59-.04.3.04.57.42.61.42.04.85.06,1.27.11.42.05.85.08,1.25.19.89.26,1.19.74,1.12,1.66-.02.32-.07.64-.05.95.03.35.25.61.63.6,1.16-.01,2.33.13,3.39-.55.76-.48,1.2-.41,1.72.3.39.54.87.63,1.38.4.69-.32,1.34-.76,1.99-1.17.31-.19.6-.61.9-.6.33,0,.66.35.97.58.17.12.32.27.47.43,1.09,1.14,2.16,2.3,3.26,3.44,2.07,2.14,4.39,3.97,6.76,5.74,1.7,1.27,3.47,2.44,5.28,3.54,1.49.92,3.07,1.69,4.64,2.49.75.38,1.55.68,2.34,1.01,1.2.5,2.38,1.06,3.61,1.48,1.6.55,3.23,1.04,4.86,1.45,2.08.53,4.19.98,6.29,1.44,1.03.23,2.08.42,3.12.62.94.18,1.89.3,2.82.52,1.68.4,3.34.85,5.01,1.29.21.05.41.1.61.18,1.77.69,3.53,1.4,5.31,2.08.44.17.97.57,1.35.05.32-.44-.16-.85-.36-1.24-.66-1.28-1.37-2.54-1.99-3.84Z"/>
      <path class="cls-3" d="M75.91,32.43c.43.6.72,1.29,1.1,1.92.08.14.25.31.38.31.62,0,.96.35,1.26.82.06.1.23.14.35.21.07-.14.16-.28.21-.43.17-.59-.35-.97-.46-1.47-.28-1.31-.52-2.63-.76-3.95l.09-.28.24.06c.36.38.75.74,1.06,1.16.94,1.23,1.9,2.45,3.18,3.37.35.25.58.73,1.14.62-.07-.44-.15-.87-.23-1.31l-.09-.19c-.91-1.28-1.38-2.78-2.02-4.19-.38-.83-.41-1.72-.26-2.6.03-.16.24-.3.36-.45.1.13.24.25.29.39.8,2.28,2.18,4.17,3.86,5.87.44.45.95.84,1.46,1.22.51.37.87.19.94-.44.02-.17-.01-.35-.01-.53,0-.85,0-1.7,0-2.55h-.09c0-.89-.01-1.77,0-2.66.01-.42.06-.85.15-1.26.04-.18.22-.35.38-.46.04-.03.26.17.37.28.82.79.84,1.86.9,2.86.13,2.12.12,4.25.27,6.36.08,1.15.36,2.29.57,3.43.03.17.25.31.38.46.11-.16.25-.31.33-.48.16-.35.27-.72.43-1.07.37-.84.85-1.64,1.11-2.51.45-1.55,1.27-2.97,1.48-4.61.11-.83.35-1.66.61-2.46.67-2.01.86-4.08.93-6.17.02-.48.2-.95.29-1.43.08-.43.36-.44.6-.24.22.18.48.47.5.73.26,2.54.5,5.08-.55,7.53-.1.23-.16.47-.23.7-.4,1.31-.76,2.64-1.2,3.94-.28.83-.75,1.6-.99,2.43-.2.7-.2,1.46-.25,2.19,0,.13.17.32.31.37.08.03.27-.15.36-.28.34-.45.66-.91.98-1.37.73-1.04,1.55-1.99,2.59-2.74.16-.11.35-.18.52-.26.04.2.1.4.11.6.07.85.05,1.71.19,2.54.09.52.15,1.01.02,1.43-.91.33-1.81.95-2.14,1.84-.04.09,0,.2.1.25l.22.05c.16,0,.3-.06.42-.1.12-.05.24-.09.29-.09h.16c.24-.01.51.06.64.18,0,0,0,0,0,0l.11.04h.04s0,.01,0,.01l.14-.07.05-.15h0s-.03-.07-.03-.07l-.03-.07c-.08-.07-.12-.18-.12-.3,0-.09.03-.19.07-.27.11-.2.34-.35.6-.46.32-.13.66-.19,1.02-.19.4,0,.8.08,1.17.21.58.21,1.1.55,1.59.96-.12.02-.23.08-.29.16-.08.09-.13.19-.17.28-.37.88-.58,1.82-.62,2.77,0,.13-.02.27-.06.36-.04.1-.07.12-.12.13h-.01s-.16-.07-.27-.18c-.5-.49-1-.99-1.5-1.48h-.27s-.03.26-.03.26c.24.34.48.68.73,1.03-.56-.24-1.06-.63-1.4-1.13l-.25-.07c-.09.05-.13.15-.1.24l.32.93c-.18-.17-.36-.35-.54-.52h0s0,0,0,0h0l-.14-.06-.14.06-.06.14.05.12h0s.04.15.04.15c.04.24.05.62.05.85-.06.02-.12.04-.19.04-.42,0-.99-.3-1.37-.53h0c-.64-.38-1.11-.96-1.21-1.68h0s0-.02,0-.03c-.03-.1-.13-.16-.23-.14-.1.02-.17.12-.16.22,0,.01,0,.02,0,.03h0c.22.71.12,1.51.21,2.34.09.83.45,1.77,1.31,2.1.21.08.43.11.64.11.34,0,.67-.07.97-.15.29-.07.59-.19.87-.35.35.03.45.22.44.75-.02,1.03-.05,2.06-.21,3.07-.34,2.19-.37,4.38-.24,6.57.04.77.39,1.52.38,2.28-.01,1.71.65,3.25,1.1,4.84.04.13.11.28.22.34.67.43.68,1.12.67,1.79-.02,2.4.43,4.7,1.58,6.83.67,1.24,1.28,2.53,2.1,3.66,2.05,2.81,4.67,5.1,7.28,7.37,2.94,2.56,5.93,5.07,8.85,7.65,2.85,2.52,5.51,5.24,8.06,8.07,3.52,3.91,6.69,8.08,9.57,12.48.39.59.74,1.21,1.04,1.85.23.49.08.71-.45.85-1.19.31-2.4.57-3.59.9-1.09.3-2.16.66-3.24,1-.1.03-.22.07-.28.14-.19.24-.35.5-.53.75.24.04.47.09.71.12.1.01.21,0,.32,0,2.72.16,5.43.33,8.15.5.18.01.37,0,.52.08,1.42.61,2.95.72,4.45.97,1.11.18,1.19.09.9-.99-.05-.17-.08-.35-.17-.5-.39-.66-.78-1.32-1.19-1.97-.7-1.1-1.39-2.2-2.11-3.28-1.15-1.72-2.3-3.44-3.5-5.13-1.06-1.49-2.14-2.98-3.29-4.4-1.31-1.61-2.66-3.2-4.09-4.7-2.22-2.32-4.48-4.6-6.81-6.8-1.79-1.69-3.63-3.34-5.59-4.82-1.97-1.49-3.28-3.38-4.01-5.66-.51-1.57-.77-3.22-1.14-4.84-.04-.17-.06-.35-.1-.52-.22-.96-.43-1.92-.68-2.87-.31-1.19-.66-2.37-1.01-3.55-.04-.14-.22-.23-.33-.35-.08.11-.16.21-.23.33-.71,1.22-1.39,2.48-2.69,3.19-.58.31-1.22.51-1.84.74-1.2.45-2.46,0-3.1-1.13-.45-.8-.87-1.62-1.29-2.43-.21-.4-.46-.8-.61-1.22-.24-.7-.43-1.42-.62-2.13-.07-.27-.2-.57-.15-.82.3-1.45-.2-2.82-.44-4.2-.26-1.48-.21-2.96-.3-4.44-.01-.21,0-.44.09-.63.87-1.84.32-3.77.34-5.66,0-.14-.03-.3-.11-.41-.77-1.09-.47-2.32-.49-3.51,0-.15.03-.28.07-.4.06,0,.13,0,.19,0,.76-.07,1.56-.45,1.92-1.18.17-.34.21-.71.21-1.07,0-.24-.02-.47-.04-.69-.07-.75-.13-1.49-.2-2.24,0-.09-.03-.2-.07-.3h.12s.05-.25.05-.25c-.7-1.25-2.1-2.06-3.53-2.06.09-.19.09-.41-.06-.69-.16-.3-.18-.68-.19-1.03-.04-1.17-.06-2.34-.07-3.51-.01-1.14.09-2.24.63-3.3.53-1.03,1.02-2.09,1.03-3.3,0-.1.06-.2.11-.3.46-.8.55-1.68.55-2.57,0-1.73,0-3.42-.58-5.12-.41-1.21-.56-2.52-1.11-3.73-.71-1.57-1.28-3.2-1.98-4.78-.63-1.41-1.4-2.76-1.58-4.34-.02-.21-.31-.55-.49-.56-.31-.02-.74.08-.93.3-.81.93-1.47,1.99-2.33,2.86-1.38,1.39-1.66,3.06-1.52,4.89.06.81.08,1.63.15,2.44.13,1.62.17,3.26.45,4.86.24,1.38.3,2.74.22,4.12,0,.11-.08.22-.13.33-.04-.09-.11-.18-.13-.28-.11-.66-.11-1.37-.34-1.98-.55-1.44-.73-2.94-.91-4.45-.04-.31-.08-.66-.24-.91-.39-.64-.43-1.33-.46-2.04-.02-.49-.09-.99-.23-1.45-.23-.78-.93-.96-1.54-.42-1.14.99-1.91,2.16-1.78,3.76.03.38-.04.77-.11,1.15-.02.14-.17.26-.26.38-.1-.1-.22-.18-.29-.3-.08-.12-.11-.26-.16-.39-.31-.86-.63-1.72-.94-2.58-.32-.88-.97-1.09-1.67-.49-.46.4-.97.51-1.57.51-.91,0-1.83.11-2.74.12-.28,0-.62-.12-.82-.3-.42-.37-.76-.84-1.15-1.24-.23-.24-.56-.14-.61.18-.03.17-.02.36.03.52.39,1.22.12,2.47.14,3.7,0,.48-.24,1-.49,1.43-.09.16-1.07-.64-1.2-1.2-.15-.69-.58-1.19-.89-1.78-1.13-2.15-2.73-3.93-4.41-5.64-.13-.13-.42-.1-.63-.14,0,.23-.07.5.03.68.16.3.55.51.63.82.3,1.1.94,2.02,1.43,3.02.15.31.07.74.08,1.12l-.29.06c-.35-.47-.74-.93-1.01-1.46-.84-1.67-2.14-2.96-3.42-4.24-1.32-1.33-2.75-2.54-4.14-3.79-.45-.4-.94-.74-1.42-1.09l-.24.1c-.03.13-.03.29.02.42.58,1.56.56,3.26,1.24,4.81.49,1.13.84,2.32,1.25,3.48.21.6.41,1.2.64,1.79.37.95.71,1.92,1.16,2.83.35.71.81,1.41,1.12,2.11.56,1.27,1.45,2.25,2.31,3.25,1.69,1.98,3.53,3.84,5.28,5.78.7.78,1.38,1.6,1.99,2.45Z"/>
      <path class="cls-3" d="M126.99,106.47c-.21-.28-.43-.57-.69-.8-2.38-2.15-4.69-4.4-7.71-5.68-1.07-.45-2.13-.97-3.25-1.21-1.51-.34-3.07-.44-4.57-.64-1.99.21-3.93.39-5.86.63-.55.07-1.1.24-1.63.44-.24.09-.47.32-.59.54-.38.67-.35,1.41.04,2.03.88,1.4,1.79,2.78,2.8,4.09,1.44,1.88,3.17,3.51,4.99,5.01,1.3,1.07,2.75,1.96,4.16,2.9.61.41,1.27.76,1.94,1.06.99.45,2.03.79,3.02,1.25,1.62.74,3.32,1.17,5.08,1.39,1.13.14,1.44-.13,1.18-1.2-.37-1.51-.2-3.03-.32-4.54-.11-1.36.67-2.34,1.33-3.34.61-.92.72-1.03.08-1.91Z"/>
      <path class="cls-3" d="M169.99,149.58c-.44-1.49-1-2.93-1.51-4.39-.08-.23-.17-.47-.27-.69-.43-.92-.95-1.81-1.28-2.76-.72-2.11-2-3.93-3.02-5.89-.56-1.08-1.41-2.02-2.06-3.06-1.5-2.4-3.55-4.32-5.67-6.12-1.9-1.62-4-3-6.21-4.22-.75-.41-1.46-.6-2.27-.55.06.11.11.26.2.32,1.17.78,2.37,1.51,3.51,2.32,1.8,1.29,3.6,2.58,5.2,4.14,1.29,1.26,2.57,2.52,3.61,4,.7,1.01,1.38,2.03,2.05,3.05l-.03.28-.27.02c-.38-.3-.79-.58-1.12-.93-1.99-2.1-4.23-3.92-6.56-5.61-2.02-1.46-4.31-2.42-6.63-3.3-1.11-.42-1.88.1-1.69,1.27.1.61.34,1.24.67,1.76.79,1.24,1.64,2.45,2.53,3.62.7.92,1.49,1.76,2.26,2.62.11.12.33.14.5.21-.02-.2,0-.43-.07-.6-.61-1.38-1.25-2.75-1.86-4.14-.11-.25-.18-.54-.18-.81,0-.42.27-.54.62-.33.27.17.51.39.8.52,2.28,1.09,4.28,2.58,6.11,4.31,1.36,1.28,2.74,2.53,3.78,4.11.73,1.11,1.63,2.12,2.32,3.25.87,1.43,1.61,2.92,2.38,4.41.34.65.65,1.34.85,2.04.11.4.13,1.03-.1,1.27-.36.37-.73-.16-1.07-.37-.15-.09-.26-.24-.39-.36-1.59-1.39-3.17-2.81-4.79-4.16-.64-.53-1.39-.94-2.13-1.35-.29-.16-.69-.24-1.01-.19-1.27.2-2.44.7-2.98,1.94-.3.69-.47,1.53-.39,2.26.3,2.63.73,5.25,1.11,7.87.02.1.05.21.1.3.81,1.44.68,3.14,1.34,4.65.52,1.18.81,2.46,1.58,3.53.08.11.18.26.17.38-.04,1.1.85,1.51,1.57,1.96,1.12.7,2.15.37,2.88-.73.47-.71.76-1.5,1.14-2.24.58-1.11.43-2.27.48-3.42,0-.19-.12-.4-.21-.59l-.21-.23-.16.24c-.08.42-.2.83-.21,1.25-.01.87-.45,1.55-.92,2.2-.56.78-1.3.8-1.89.03-.31-.41-.6-.9-.7-1.39-.29-1.46-.5-2.93-.69-4.4-.17-1.3-.27-2.6-.39-3.91-.04-.46-.08-.92-.05-1.38.05-.68.49-1.45,1.24-1.67.58-.17,1.03.14,1.37.37,2.21,1.5,4.38,3.07,6.54,4.65.73.53.71.6.06,1.26-.3.3-.21.48.08.66.42.26.83.54,1.27.76.57.28,1.22.36,1.72-.04.44-.35.64-.91.57-1.52-.26-2.23-.99-4.33-1.62-6.47Z"/>
      <path class="cls-3" d="M140.35,87.82c-.24-.25-.61-.34-.84-.02-.43.59-1.06.64-1.68.79-.73.17-1.45.19-2.21.06-1.35-.23-2.72.76-3.19,2-.43,1.13,0,2.09.41,3.05.84,1.97,2.24,3.58,3.58,5.21.27.33.52.67.84.94.82.68.91.66,1.57-.21.21-.28.37-.6.58-.88.6-.81.77-1.81,1.22-2.67.34-.66.48-1.31.47-2.02,0-.67,0-1.35,0-2.02h-.01c0-.92-.01-1.84,0-2.76.01-.63-.36-1.06-.76-1.46Z"/>
      <path class="cls-3" d="M151.93,118.76c1.5-1.55,2.63-3.38,3.62-5.28.11-.21.08-.49.15-.72.13-.47.29-.92.41-1.39.1-.37.19-.75.22-1.13.02-.35-.22-.54-.55-.46-.4.11-.81.25-1.18.45-1.63.85-3.32,1.41-5.19,1.16-.53,0-1.06-.01-1.59,0-.24,0-.5.03-.72.13-.28.12-.44.33-.24.68,1.23,2.14,2.42,4.3,3.67,6.43.42.72.82.75,1.41.14Z"/>
      <path class="cls-3" d="M145.28,148.12c-1.75.67-1.92,2.24-2.37,3.53.06,1.31.63,2.18,1.43,2.92.2.19.58.33.84.28.43-.08.38-.53.4-.88.01-.14.02-.28,0-.42-.05-.87.52-1.4,1.15-1.77.63-.37,1.3-.08,1.89.3.12.08.19.21.31.28.3.2.54.13.67-.21.36-.95.25-1.95-.17-2.78-.44-.85-1.38-1.3-2.27-1.65-.69-.27-1.25.16-1.88.41Z"/>
      <path class="cls-3" d="M145.2,136.36c-.75-.42-1.65-.6-2.5-.8-.73-.17-1.35.33-2.03.5-2.2.53-3.39,2.15-4.41,3.96-.13.23-.14.55-.12.83,0,.18.16.35.25.52.12-.11.27-.2.36-.33,1.38-1.96,3.34-2.82,5.7-3.05.51.12,1.01.25,1.52.37.96.23,1.92.47,2.89.67.21.04.46-.06.69-.1-.06-.25-.08-.53-.19-.76-.45-.91-1.35-1.36-2.16-1.81Z"/>
      <path class="cls-3" d="M147.08,121.12c-.16-.04-.36.06-.54.09.08.14.14.34.26.39.27.12.57.17.86.25-.02-.38-.23-.63-.58-.73Z"/>
      <path class="cls-3" d="M147.67,121.85s0,.02,0,.04c.01,0,.03,0,.04,0,0,0,0-.02-.01-.03-.01,0-.02,0-.03,0Z"/>
      <path class="cls-3" d="M96.67,92.4c.08.27.25.51.38.76.07-.15.14-.29.24-.5-.11-.2-.22-.4-.33-.6-.11.11-.32.26-.3.34Z"/>
      <path class="cls-3" d="M148.65,33.71c.23-.46.16-1.04-.26-1.37-.6-.47-1.24-.99-1.95-1.2-.97-.28-2.02-.28-2.78-.37-1.82.11-3.38.16-4.93.33-.57.06-1.13.36-1.66.62-.2.1-.42.4-.43.62-.02.44.41.42.71.45,1.43.16,1.45.19.87,1.5-.06.13-.15.28-.13.4.05.21.12.53.27.6.86.39,1.67.92,2.68.89.67-.02,1.34.11,2.01.14,1.03.06,2.04.04,2.96-.56.32-.21.7-.36,1.07-.44.89-.19,1.23-.91,1.57-1.6Z"/>
      <path class="cls-3" d="M86.4,56.85c.38-.59.7-1.21,1.02-1.83.47-.92.94-1.84,1.41-2.76.27-.53.57-1.12.57-1.78v-.21c-.09-.63-.58-1.24-1.22-1.31.27-.55.52-1.12.61-1.74.02-.15.04-.31.04-.47,0-.61-.18-1.24-.63-1.68-.49-.49-1.15-.58-1.78-.58-.46,0-.93.05-1.36.05h-.05s-.14,0-.14,0c-1.85,0-3.63.33-5.35.87-.09.03-.15.12-.14.21s.09.17.18.18c.17.01.34.02.5.02,1.25,0,2.43-.31,3.59-.58.35-.08.73-.13,1.1-.13.74,0,1.41.2,1.82.71.22.27.33.7.33,1.14,0,.42-.11.86-.29,1.17-.19.31-.42.49-.72.49h-.06c-.36-.03-.71-.04-1.03-.04-1.48,0-2.53.3-3.53.74-.09.04-.13.13-.12.22.02.09.1.16.19.16h.03c.48,0,1.95-.21,3.45-.43.12-.02.24-.03.36-.03.71,0,1.38.31,1.64.92.08.2.12.4.12.61,0,.84-.67,1.74-1.51,2.1-.39.17-.83.22-1.29.22-.56,0-1.15-.07-1.7-.07-.2,0-.39,0-.58.04l-.16.15.07.21c.29.23.65.24,1.02.24.19,0,.38,0,.56,0,.26,0,.51.02.7.08.19.07.33.16.42.36.15.3.22.63.22.97,0,.67-.27,1.37-.68,1.92-.13.19-.67.57-1.17.93-.25.18-.49.37-.69.55-.19.18-.34.33-.4.55l.2.04-.2-.04v.13c0,.5.43.87.88,1.21.45.34.97.64,1.24.84h.23s.08-.21.08-.21c-.13-.47-.27-.95-.4-1.42,1.02-.72,1.91-1.62,2.59-2.67Z"/>
      <path class="cls-3" d="M79,59.04h0s0,0,0,0c.22.12.52.21.82.21.24,0,.49-.06.67-.25l.02-.24c-.47-.76-1.2-1.18-1.52-1.93-.04-.09-.15-.14-.25-.11-.41.15-.56.58-.56.93v.04s0,0,0,0c0,0,0,0,0,0h0s0,0,0,0c.02.55.34,1.07.82,1.33h0s0,0,0,0Z"/>
      <path class="cls-3" d="M78.23,55.21c0,.1-.07.25-.13.43-.03.08-.06.2-.06.33,0,.11.02.27.18.37h.21s.1-.18.1-.18h0c0-.12.03-.2.1-.27.09-.1.24-.19.4-.34.12-.13.22-.29.23-.5l-.03-.18c-.08-.19-.22-.28-.31-.35-.14-.1-.29-.2-.43-.31,0-.02,0-.03,0-.04-2.03-1.81-1.32-2.86-.84-3.27.05-.04.1-.08.15-.11.38-.26.8-.47,1.23-.63.09-.03.15-.13.13-.23s-.11-.16-.2-.16c-.44.02-.88.03-1.32.05-1.67-.27-1.37-2.5-1.33-2.79.09-.19.17-.35.19-.4.39-.76.83-1.52,1.53-1.81.36-.15.78-.18,1.21-.2.83-.04,1.66-.08,2.48-.12.1,0,.18-.08.19-.17.01-.1-.05-.19-.14-.22-.53-.17-1.09-.25-1.64-.25-1.23,0-2.46.39-3.44,1.14-.45.34-.86.76-1.11,1.29l.18.09-.18-.09c-.11.24-.19.49-.22.76,0,.03,0,.08-.01.15,0,0,0,0,0,.02-.35,2.24,1.01,3.11,1.53,3.35,0,0,0,0,0,0-1.31,2.77,1.21,4.1,1.21,4.1l.03.02c.03.1.06.19.09.29l.05.22h0Z"/>
      <path class="cls-3" d="M77.94,38.98l.15-.12-.02-.19c-.18-.24-.46-.34-.73-.34l-.23.03c-.32.07-.58.25-.81.42-.51.37-1.06.8-1.34,1.43-.12.28-.18.58-.18.88,0,.54.18,1.07.47,1.52.08.12.33.42.62.71.15.15.3.29.45.39.15.11.28.2.46.2l.26-.13h0s.06-.19.06-.19c0-.12-.05-.2-.1-.28-.08-.12-.18-.23-.27-.32-.09-.09-.17-.18-.19-.2-.19-.27-.34-.55-.43-.86-.06-.2-.09-.41-.09-.62,0-.44.12-.88.35-1.25.34-.55.93-.95,1.56-1.07Z"/>
      <path class="cls-3" d="M79.21,43.62c.25,0,.45-.16.66-.3.2-.15.37-.32.45-.4.31-.31.55-.69.69-1.1.09-.27.14-.56.14-.84,0-.2-.03-.41-.08-.61-.13-.48-.44-.92-.89-1.18-.3-.17-.63-.25-.91-.34-.29-.1-.52-.2-.67-.39h0l-.13-.07-.15.04-.08.13.04.15h0c.57.73,1.13,1.49,1.17,2.34v.11c0,.39-.1.78-.26,1.16-.01.04-.11.2-.2.36-.09.17-.18.36-.19.56l.07.23.22.15.05-.19-.05.19h.11Z"/>
      <path class="cls-3" d="M79.63,49.06l.09.13s.08.1.21.11c.12,0,.19-.09.22-.14l.02-.11v-.14s-.03-.06-.03-.06c-.29-.71-.57-1.41-.86-2.12-.04-.1-.16-.15-.26-.11-.1.04-.15.16-.11.26h0s.01.12.01.12c0,.1-.02.24-.02.38v.14s.01,0,.01,0c0,0,0,0,0,0h0s0,0,0,0c.04.24.11.48.21.71.1.23.24.45.4.64h0s.1.19.1.19Z"/>
      <path class="cls-3" d="M82.42,47.87l.2.24c.08.07.18.13.32.13h.02s.01,0,.01,0l.15-.04.11-.2c0-.13-.06-.16-.08-.2l-.07-.08c-.12-.17-.24-.34-.36-.51l-.02-.02-.07-.08-.18-.06-.1.02c-.1.02-.17.1-.17.2v.09s.01.06.01.06c.04.11.11.29.22.46Z"/>
    </g>
    <polygon class="cls-3" points="233.92 79.21 236.54 79.21 236.54 69.93 232.19 69.93 232.19 71.96 233.92 71.96 233.92 79.21"/>
    <path class="cls-3" d="M242.66,69.74c-2.02,0-3.63,1.23-3.63,3.17,0,1.78,1.45,2.93,3.2,2.93.87,0,1.56-.24,2.08-.68-.15,1.41-1.02,2.15-2.33,2.15-.6,0-1.18-.11-1.71-.48l-.95,1.88c.68.44,1.68.68,2.72.68,2.94,0,4.95-1.84,4.95-5.08,0-3.01-1.7-4.57-4.31-4.57ZM242.84,73.96c-.76,0-1.27-.45-1.27-1.17s.52-1.18,1.26-1.18c.8,0,1.3.48,1.3,1.17s-.53,1.18-1.29,1.18Z"/>
    <path class="cls-3" d="M262.61,73.31h-.62l.12-1.35h3.74v-2.03h-5.91l-.46,5.42h2.52c1.42,0,1.8.37,1.8.94,0,.62-.6.98-1.49.98s-1.82-.27-2.57-.77l-.94,1.98c.94.6,2.31.92,3.59.92,2.8,0,4.04-1.51,4.04-3.17s-1.07-2.92-3.82-2.92Z"/>
    <g>
      <path class="cls-2" d="M.35,77.54l1.11-1.33c.77.64,1.58,1.04,2.56,1.04.77,0,1.24-.31,1.24-.83,0-.48-.29-.72-1.72-1.09-1.73-.44-2.84-.92-2.84-2.64,0-1.55,1.25-2.58,3-2.58,1.25,0,2.31.39,3.18,1.09l-.98,1.42c-.76-.53-1.5-.84-2.23-.84s-1.1.33-1.1.77c0,.56.37.75,1.85,1.13,1.74.45,2.72,1.08,2.72,2.59,0,1.7-1.3,2.65-3.14,2.65-1.3,0-2.61-.45-3.63-1.37Z"/>
      <path class="cls-2" d="M9.16,70.22h1.88v8.56h-1.88v-8.56Z"/>
      <path class="cls-2" d="M13.49,70.22h1.74l4.01,5.27v-5.27h1.86v8.56h-1.6l-4.15-5.44v5.44h-1.86v-8.56Z"/>
      <path class="cls-2" d="M23.08,74.5c0-2.43,1.83-4.43,4.47-4.43,1.61,0,2.52.61,3.31,1.39l-1.13,1.3c-.66-.6-1.22-.95-2.2-.95-1.44,0-2.48,1.2-2.48,2.69s1.02,2.69,2.48,2.69c.98,0,1.58-.39,2.25-1l1.2,1.28c-.88.94-1.86,1.46-3.51,1.46-2.52,0-4.39-1.94-4.39-4.43Z"/>
      <path class="cls-2" d="M32.8,70.22h6.46v1.68h-4.59v1.74h4.04v1.68h-4.04v1.8h4.65v1.68h-6.52v-8.56Z"/>
    </g>
  </g>
</svg>