<?xml version="1.0" encoding="UTF-8"?>
<svg xmlns="http://www.w3.org/2000/svg" id="Layer_1" version="1.1" viewBox="0 0 300 300">
  <defs>
    <style>
      .st0 {
        fill: #fee200;
      }

      .st1 {
        fill: #ffe200;
      }

      .st2 {
        fill: #1d1d1b;
      }

      .st3 {
        fill: #00acdc;
      }

      .st4 {
        fill: #fff;
      }

      .st5 {
        fill: #ee2a7b;
      }
    </style>
  </defs>
  <g>
    <circle cx="152.3" cy="151.8" r="129.8"></circle>
    <path class="st5" d="M149.9,25.6c21.7,0,43.2,5.7,62.1,16.5,19.4,11.1,35.5,27.3,46.5,47,16.3,29,20.3,62.6,11.3,94.6-9,32-29.9,58.6-58.8,74.9-18.6,10.5-39.6,16-60.8,16s-43.2-5.7-62.1-16.5c-19.4-11.1-35.5-27.3-46.5-47-16.3-29-20.3-62.6-11.3-94.6,9-32,29.9-58.6,58.8-74.9,18.6-10.5,39.6-16,60.8-16h0M149.9.6c-24.8,0-49.9,6.2-73.1,19.2C4.8,60.2-20.7,151.3,19.7,223.2c27.4,48.8,78.1,76.2,130.4,76.2s49.9-6.2,73.1-19.2c71.9-40.4,97.5-131.5,57-203.5C252.8,28,202.1.5,149.9.6h0Z"></path>
    <path class="st3" d="M220.8,281.6c.3-.1.5-.3.8-.4l-11-22.5c-.5.3-1.1.6-1.6.9-28.8,15.5-62.1,19.1-93.6,10-31.5-9.1-57.8-29.9-73.9-58.6-7.5-13.3-12.3-27.5-14.6-42.1l-25.1.8c2.4,18.3,8.3,36.5,17.9,53.6,40,71.2,129.5,96.9,201.1,58.4Z"></path>
    <path class="st0" d="M280.3,76.8c-6.6-11.7-14.4-22.1-23.4-31.2-4.1,6.2-9,13.4-14.3,21.3,6,6.7,11.3,14.1,15.9,22.2,16.3,29,20.3,62.6,11.3,94.6-9,32-29.9,58.6-58.8,74.9-.5.3-1,.5-1.4.8l12,21.9c.6-.3,1.1-.6,1.7-.9,71.9-40.4,97.5-131.5,57-203.5Z"></path>
  </g>
  <g id="white-chevron">
    <g id="Layer_2">
      <g id="Layer_1-2">
        <polygon class="st1" points="46.1 1906.6 -32.1 1736.4 -145.3 1736.7 -67.1 1907 -144.4 2076.4 -31.1 2076 46.1 1906.6"></polygon>
        <polygon class="st5" points="-183.6 1736.4 -296.9 1736.7 -218.7 1907 -295.9 2076.4 -182.7 2076 -105.4 1906.7 -183.6 1736.4"></polygon>
        <polygon class="st3" points="-335.2 1736.4 -448.4 1736.7 -370.2 1907 -447.4 2076.4 -334.2 2076 -257 1906.7 -335.2 1736.4"></polygon>
      </g>
    </g>
  </g>
  <g>
    <path class="st2" d="M317.8,1711.9c-.1,0-.2,0-.3,0-.3,0-.7,0-1,0s-.7,0-1,0h-.2c-40.5,1.7-54.9,33.2-55,59.6,0,28.4,17,59.3,54.7,60.1h0c.3,0,.7,0,1,0h1.3c33.3-1.6,54.8-25.1,54.9-59.9,0-27-14.2-57-54.5-59.7M330.8,1794.4c-3.8,4.7-8,6-14.3,6.8-.1,0-.2,0-.4,0s-.3,0-.5,0c-5.8-.6-9.8-2-13.7-6.8-6.8-8.4-6.8-19.4-6.8-23,0-10.1,2.8-27.3,20.7-29.4.1,0,.3,0,.4,0s.2,0,.4,0c13.8,1.8,20.8,11.9,20.7,29.9,0,7.2-.8,15.6-6.6,22.5Z"></path>
    <path class="st2" d="M474.4,1718c-.9-1-2.2-1.6-3.6-1.6,0,0-23.8-.8-23.8-.8-1.3,0-2.6.5-3.5,1.4-1,.9-1.6,2.2-1.6,3.6l-2.1,63.1c-.4,12.4-1,17.4-12.4,18.2-.3,0-.8,0-1.1,0-10.2-.9-10.9-5.9-10.8-17.6l.2-63.9c0-2.8-2.3-5.2-5.1-5.2h-23.7c-2.8,0-5.2,2.2-5.2,5.1l-.2,66.6c.2,13.3.6,31.4,20.7,40.7,6.9,3.3,14.8,4.7,24.1,4.7.6,0,1.1,0,2,0,44.3-.8,45-31.1,45.4-47.4l2.1-63.1c0-1.4-.4-2.7-1.4-3.7"></path>
    <path class="st2" d="M708.8,1791.5c-.8-1.2-2.1-2.1-3.6-2.3l-24.5-3.5c-.2,0-.5,0-.7,0-2.5,0-4.6,1.8-5.1,4.3-1.4,8.1-7,12.5-16.7,12.9-.6,0-1.1,0-1.7,0s-1.1,0-1.7,0c-6.1-.4-20.3-3.9-20.2-28.4,0-19.4,6.8-29.5,20.6-30.8,0,0,0,0,0,0,0,0,0,0,.1,0,10.5.7,13.9,6.6,14.9,11.4.5,2.4,2.6,4.1,5,4.1s.3,0,.5,0l23.8-2.4c1.5-.2,2.8-1,3.7-2.2.9-1.2,1.1-2.8.8-4.2-1.4-5.8-5.7-23.4-26.4-32.2-6.4-2.6-13.9-4-22.4-4.2h0c0,0-.1,0-.2,0s-.2,0-.2,0h-.2c-40.9,1.3-55.5,32.6-55.6,59,0,29.2,16.1,47.3,31.4,54.7,9.8,4.6,17.9,5,23.8,5.3h1.5c.4,0,.8,0,1.2,0h0c8.9,0,22.5,0,34.9-9.3,12.7-9.3,16.3-22.8,17.7-27.9.4-1.4.1-2.9-.7-4.2"></path>
    <path class="st2" d="M804.7,1800.3l-49.8-.2-.4-16.1c.1,0,.3,0,.4,0l45,.2c2.8,0,5.2-2.3,5.2-5.1v-18.8c0-2.8-2.2-5.2-5.1-5.2h-45c-.4-.1-.8,0-1.2,0l-.3-11c.5.1,1,.2,1.5.3l48.8.2c2.9,0,5.2-2.3,5.2-5.1v-19.1c0-2.8-2.2-5.2-5.1-5.2l-48.8-.2c-1.5,0-32.1-.2-32.1-.2-1.8,0-3.5.8-4.7,2.1-1.2,1.3-1.9,3-1.9,4.8l2.4,102.4c0,3.7,3.1,6.5,6.7,6.6,0,0,28.2-.9,29.1-.9l49.9.2c2.8,0,5.2-2.3,5.2-5.1v-19.4c0-2.9-2.2-5.2-5.1-5.2"></path>
    <path class="st2" d="M584.4,1712h-23.4c-1.4,0-2.7.5-3.7,1.4-1,1-1.5,2.3-1.5,3.7l.6,51-11.4-17.8-14.3,38.7,16.2,25.1,10.5-28.3,3.8-10.3,16.1,25.2-4.3,11.6-5.8,15.7c6.5-.2,15-.5,15-.5,1.9,0,3.9-.9,5.3-2.2,1.2-1.5,1.8-2.6,1.8-4.3l.3-103.8c0-2.8-2.3-5.2-5.1-5.2"></path>
    <path class="st2" d="M514.6,1763.9l3.3-8.8,11.1-30-6.8-10.6c-1.3-2-3.4-3.1-5.8-3.2,0,0-3.6.1-7.9.3l-6.3,17-3.8,10.2-10.3-16h0c-.6-1.1-1-2.1-1.1-3.1,0-.3,0-.6,0-1,0,.6-.1,1.3-.2,1.8,0,.2,0,.4,0,.6v.9s-.3,101.4-.3,101.4c0,2.8,2.3,5.2,5.1,5.2h23.5c1.4,0,2.7-.5,3.7-1.4,1-1,1.5-2.3,1.5-3.7l-.7-52-4.9-7.6h0Z"></path>
    <path class="st2" d="M838.4,1830.5c.5-.4.9-.9.9-1.5l.9-10.3h0c0-1.2-.9-2.2-2-2.3-3.6-.4-5.6-2.6-6.1-6.6,0-.1,0-.3,0-.4s0-.4,0-.6c.2-2.6,1.7-8.5,12.3-8.5,8.5,0,12.9,2.7,13.5,8.4h0c0,.1,0,.2,0,.2-.5,4.4-3.2,5.7-5.3,6-1.1.2-1.9,1-1.9,2.1v.2l.5,9.9c0,.6.4,1.2.9,1.6.5.4,1.2.5,1.8.4,2.5-.5,10.3-1.9,14.6-10.3,1.3-2.6,2-5.7,2.3-9.2h0c0-.2,0-.3,0-.4,0-.1,0-.3,0-.4h0c-.7-17.2-14.4-23.2-25.9-23.2-12.7,0-20.6,6.8-23.8,13.2-2,4.1-2.1,7.5-2.2,9.9,0,0,0,0,0,0,0,.2,0,.3,0,.5v.7c.3,3.7.6,9.4,5,14.3,4.4,5,10.4,6.2,12.6,6.7.6.1,1.3,0,1.8-.4"></path>
    <path class="st2" d="M821.4,1718.1c0-.6.3-1.1.7-1.5.4-.4,1-.7,1.6-.7h45.6c1.2,0,2.2,1.1,2.2,2.3,0,0,0,10.4,0,10.4,0,.6-.3,1.1-.7,1.5-.4.4-1,.7-1.6.6h-45.6c-1.2,0-2.2-1.1-2.2-2.3v-10.4"></path>
    <path class="st2" d="M871.6,1750.9v-10c-.1-1.1-.7-2.1-1.7-2.6-.5-.3-1.2-.4-1.8-.4-.2,0-.3,0-.5,0l-43.7-1c-1.2,0-2.3,1-2.3,2.2l-.2,10.3c0,.6.2,1.2.6,1.6.4.4,1,.7,1.6.7h21.6c0,.1-23.5,14.7-23.5,14.7-.9.5-1.4,1.5-1.4,2.5,0,0,.1,9.8.1,9.8,0,1.1.6,2.1,1.5,2.6.6.3,1.3.4,2,.4h.6l43.4,1c1.2,0,2.3-1,2.3-2.2l.2-10.2c0-.6-.2-1.2-.6-1.6-.4-.4-1-.7-1.6-.7l-21.4-.2,23.4-14.4c.9-.5,1.4-1.5,1.4-2.5"></path>
    <polygon class="st5" points="158.6 1887 158.6 1848.9 186.2 1848.9 186.2 1858.3 169 1858.3 169 1864.2 184.6 1864.2 184.6 1873 169 1873 169 1887 158.6 1887"></polygon>
    <path class="st5" d="M201.5,1866.9h5.8c2.8,0,4.5-1.6,4.5-4.5s-1.6-4-3.6-4h-6.7v8.5h0ZM191.1,1887v-38.1h17.3c3.8,0,7,1.3,9.7,3.8,2.7,2.6,4,5.6,4,9.3s-2.6,9.1-6.5,10.9l9.5,14.1h-11.9l-7.8-11.9h-3.9v11.9h-10.4,0Z"></path>
    <polygon class="st5" points="228.3 1887 228.3 1848.9 256.4 1848.9 256.4 1858.3 238.7 1858.3 238.7 1863.5 255.2 1863.5 255.2 1872.1 238.7 1872.1 238.7 1877.9 256.8 1877.9 256.8 1887 228.3 1887"></polygon>
    <polygon class="st5" points="262.1 1887 262.1 1848.9 290.2 1848.9 290.2 1858.3 272.5 1858.3 272.5 1863.5 289 1863.5 289 1872.1 272.5 1872.1 272.5 1877.9 290.7 1877.9 290.7 1887 262.1 1887"></polygon>
    <path class="st5" d="M321.6,1873.9c2,2.8,5.5,4.7,9.5,4.7s5.1-.9,5.1-2.7-.7-1.8-2.1-2.3c-.7-.3-1.5-.5-2.2-.8-1.5-.4-4.2-1.3-6-1.9-5.9-2.2-8.8-5.9-8.8-11s1.3-6.4,4-8.4c2.7-2,5.9-3,9.7-3,6.3,0,11,2,14.1,6.1l-6.8,5.9c-1.7-2-4-3-6.9-3s-4.2,1-4.2,2.3.4,1.7,1.5,2.2c.6.3,1.3.5,1.9.7,1.3.3,4.3,1.2,6.7,2,6.6,2.3,9.2,5.8,9.2,11,0,7.4-5.1,12.1-15.2,12.1s-7.8-.8-10.6-2.3c-2.7-1.6-4.8-3.5-6.3-5.7l7.3-5.6h0Z"></path>
    <path class="st5" d="M360.7,1866.6h7.1c.5,0,1-.1,1.9-.5,1-.4,1.7-1.8,1.7-3.6s-.7-3.2-1.7-3.7c-1-.4-1.5-.5-2-.5h-7v8.3ZM350.3,1887v-38.1h17.9c2.9,0,6.1,1.1,8.8,3.3,2.7,2.1,4.6,5.9,4.6,10.2s-1.4,7.1-4.2,9.7-5.9,3.8-9.2,3.8h-7.5v11.1h-10.4,0Z"></path>
    <rect class="st5" x="386.1" y="1848.9" width="10.4" height="38.1"></rect>
    <path class="st5" d="M413.4,1866.9h5.8c2.8,0,4.5-1.6,4.5-4.5s-1.6-4-3.6-4h-6.7v8.5h0ZM403,1887v-38.1h17.3c3.8,0,7,1.3,9.7,3.8,2.7,2.6,4,5.6,4,9.3s-2.6,9.1-6.5,10.9l9.5,14.1h-11.9l-7.8-11.9h-3.9v11.9h-10.4,0Z"></path>
    <rect class="st5" x="440.4" y="1848.9" width="10.4" height="38.1"></rect>
    <polygon class="st5" points="464.7 1887 464.7 1858.3 454.4 1858.3 454.4 1848.9 485.1 1848.9 485.1 1858.3 475.1 1858.3 475.1 1887 464.7 1887"></polygon>
    <path class="st5" d="M492.3,1873.9c2,2.8,5.5,4.7,9.5,4.7s5.1-.9,5.1-2.7-.7-1.8-2.1-2.3c-.7-.3-1.5-.5-2.2-.8-1.5-.4-4.2-1.3-6-1.9-5.9-2.2-8.8-5.9-8.8-11s1.3-6.4,4-8.4c2.7-2,5.9-3,9.7-3,6.3,0,11,2,14.1,6.1l-6.8,5.9c-1.7-2-4-3-6.9-3s-4.2,1-4.2,2.3.4,1.7,1.5,2.2c.6.3,1.3.5,1.9.7,1.3.3,4.3,1.2,6.7,2,6.6,2.3,9.2,5.8,9.2,11,0,7.4-5.1,12.1-15.2,12.1s-7.8-.8-10.6-2.3c-2.7-1.6-4.8-3.5-6.3-5.7l7.3-5.6h0Z"></path>
    <path class="st5" d="M541.1,1848.9h10.4v20.6c0,6.3,2.4,8.6,6.7,8.6s6.7-2.3,6.7-8.6v-20.6h10.4v21.7c0,5.5-1.6,9.7-4.9,12.6-3.2,2.9-7.3,4.3-12.2,4.3s-9-1.4-12.2-4.3c-3.2-2.9-4.9-7.1-4.9-12.6v-21.7Z"></path>
    <polygon class="st5" points="581.1 1887 581.1 1848.9 590.4 1848.9 606.4 1869.4 606.4 1848.9 616.3 1848.9 616.3 1887 607.8 1887 591 1865.8 591 1887 581.1 1887"></polygon>
    <polygon class="st5" points="622.5 1887 622.5 1848.9 632.9 1848.9 632.9 1877.6 647.4 1877.6 647.4 1887 622.5 1887"></polygon>
    <polygon class="st5" points="651.6 1887 651.6 1848.9 679.7 1848.9 679.7 1858.3 662 1858.3 662 1863.5 678.6 1863.5 678.6 1872.1 662 1872.1 662 1877.9 680.2 1877.9 680.2 1887 651.6 1887"></polygon>
    <path class="st5" d="M698.1,1874h9.2l-4.6-11.8-4.6,11.8ZM682.4,1887l15.5-38.1h9.5l15.5,38.1h-11l-2-5h-14.7l-2,5h-10.9Z"></path>
    <path class="st5" d="M729.7,1873.9c2,2.8,5.5,4.7,9.5,4.7s5.1-.9,5.1-2.7-.7-1.8-2.1-2.3c-.7-.3-1.5-.5-2.2-.8-1.5-.4-4.2-1.3-6-1.9-5.9-2.2-8.8-5.9-8.8-11s1.3-6.4,4-8.4c2.7-2,5.9-3,9.7-3,6.3,0,11,2,14.1,6.1l-6.8,5.9c-1.7-2-4-3-6.9-3s-4.2,1-4.2,2.3.4,1.7,1.5,2.2c.6.3,1.3.5,1.9.7,1.3.3,4.3,1.2,6.7,2,6.6,2.3,9.2,5.8,9.2,11,0,7.4-5.1,12.1-15.2,12.1s-7.8-.8-10.6-2.3c-2.7-1.6-4.8-3.5-6.3-5.7l7.3-5.6h0Z"></path>
    <polygon class="st5" points="758.4 1887 758.4 1848.9 768.8 1848.9 768.8 1862.2 783.1 1862.2 783.1 1848.9 793.5 1848.9 793.5 1887 783.1 1887 783.1 1871.7 768.8 1871.7 768.8 1887 758.4 1887"></polygon>
    <polygon class="st5" points="799.7 1887 799.7 1848.9 827.8 1848.9 827.8 1858.3 810.1 1858.3 810.1 1863.5 826.6 1863.5 826.6 1872.1 810.1 1872.1 810.1 1877.9 828.3 1877.9 828.3 1887 799.7 1887"></polygon>
    <path class="st5" d="M844,1877.6h4.5c4.4,0,7.4-1,8.8-2.9,1.5-1.9,1.9-3.8,1.9-6.7s-.4-4.7-1.9-6.5c-1.5-1.8-4.4-2.8-8.8-2.8h-4.4v18.9h0ZM833.6,1887v-38.1h15.5c6.6,0,11.7,1.8,15.2,5.3,3.6,3.6,5.3,8.1,5.3,13.8s-1.8,10.4-5.3,13.8c-3.4,3.5-8.5,5.1-15.2,5.1h-15.5Z"></path>
  </g>
  <g id="white-chevron1" data-name="white-chevron">
    <g id="Layer_21" data-name="Layer_2">
      <g id="Layer_1-21" data-name="Layer_1-2">
        <polygon class="st4" points="73.6 105.3 74.6 155.5 149.5 119.4 225.2 152.4 224.2 102.2 148.5 69.2 73.6 105.3"></polygon>
        <polygon class="st4" points="74.8 172.4 75.8 222.6 150.7 186.6 226.4 219.5 225.4 169.3 149.7 136.4 74.8 172.4"></polygon>
      </g>
    </g>
  </g>
</svg>
