<?xml version="1.0" encoding="UTF-8"?>
<svg id="Layer_2" data-name="Layer 2" xmlns="http://www.w3.org/2000/svg" viewBox="0 0 208.93 105.14">
  <defs>
    <style>
      .cls-1 {
        fill: #78825e;
      }
    </style>
  </defs>
  <g id="Layer_1-2" data-name="Layer 1">
    <g>
      <path class="cls-1" d="M56.27,48.54c-4.37-3.03-10.08-4.63-15.66-4.73,4.35-.68,8.74-2.46,12.11-5.08,3.52-2.75,5.93-6.44,5.93-10.79,0-2.82-.76-5.24-2.06-7.27-1.95-3.05-5.1-5.23-8.71-6.65-3.61-1.43-7.69-2.1-11.52-2.14H11.45c-.19,0-.35.06-.46.18-.11.11-.16.26-.16.4,0,.15.05.3.16.42.1.12.27.21.46.2h4.72c.23,0,.34.05.4.1.06.06.1.17.1.4v66.67c0,.2-.07.3-.17.38-.09.08-.23.12-.34.12h-4.72c-.21,0-.4.06-.53.17-.13.11-.2.27-.2.43,0,.16.07.32.2.43.13.11.31.17.53.17h27.11c6.21,0,12.52-1.61,17.3-4.87,4.77-3.25,8.01-8.17,8.01-14.71,0-6.05-3.09-10.72-7.6-13.84ZM51.8,76.52c-3.4,2.93-8.1,4.23-13.24,4.23h-15.26c-.23,0-.34-.05-.4-.1-.06-.06-.1-.17-.1-.4v-35.24c0-.21.06-.32.13-.39.08-.07.2-.11.37-.11h12.75c6.21,0,11.54.95,15.3,3.65,1.88,1.35,3.37,3.13,4.4,5.46,1.03,2.33,1.59,5.21,1.59,8.76,0,6.64-2.14,11.21-5.54,14.14ZM47.83,39.74c-3.01,2.46-7.38,3.56-12.78,3.56h-11.75c-.23,0-.34-.05-.4-.1-.06-.06-.1-.17-.1-.4V13.58c0-.21.06-.32.13-.39.08-.07.2-.11.37-.11h12.75c4.19,0,8.32.9,11.38,3.2,3.06,2.3,5.09,5.99,5.09,11.66,0,5.53-1.69,9.35-4.7,11.81Z"/>
      <path class="cls-1" d="M126.78,80.79c-.27-.12-.64-.21-1.09-.31-1.36-.3-3.5-.67-5.52-1.62-3.35-1.57-5.27-4.2-6.86-7.37-1.59-3.17-2.84-6.87-4.87-10.52-2.5-4.51-7.05-10.51-16.02-16.02,4.99-.43,9.87-1.98,13.56-4.69,3.84-2.83,6.4-6.94,6.39-12.32,0-2.85-.77-5.29-2.09-7.35-1.98-3.08-5.18-5.28-8.84-6.72-3.66-1.43-7.79-2.1-11.66-2.1h-23.09c-.19,0-.37.07-.48.18-.12.12-.17.27-.17.42,0,.15.06.3.17.42.11.12.29.19.48.18h5.22v66.98c0,.33-.07.52-.18.62-.11.11-.3.18-.62.18h-4.62v.2c0,.27,0,.54,0,.8v.2h16.97c.17,0,.32-.1.39-.21.08-.12.11-.25.11-.39,0-.13-.03-.27-.11-.39-.07-.12-.22-.22-.39-.21h-4.62c-.33,0-.52-.07-.62-.18-.11-.11-.18-.3-.18-.62v-34.94h10.13c2.69.4,5.13,2.01,7.49,4.97,2.37,2.96,4.64,7.27,7,12.98,2.29,5.55,4.54,10.08,7.12,13.43,2.58,3.35,5.5,5.51,9.09,6.27.9.19,1.82.27,2.72.27,1.46,0,2.83-.21,3.85-.5.51-.14.93-.31,1.24-.48.15-.09.28-.17.38-.27.1-.1.17-.21.18-.36h0s0-.02,0-.02c0-.09-.03-.17-.08-.24-.09-.12-.22-.19-.37-.26ZM89.8,44.2h0,0ZM89.79,43.8h-11.75V12.97h11.75c4.19,0,8.31.92,11.38,3.25,3.06,2.32,5.09,6.04,5.09,11.71,0,5.73-1.86,9.65-4.84,12.17-2.98,2.52-7.1,3.64-11.63,3.69Z"/>
      <path class="cls-1" d="M147,80.75h-4.62c-.23,0-.34-.05-.4-.1-.06-.06-.1-.17-.1-.4V13.58c0-.23.05-.34.1-.4.06-.06.17-.1.4-.1h4.52c.17,0,.32-.1.39-.21.08-.12.11-.25.11-.39,0-.13-.03-.27-.11-.39-.07-.12-.22-.22-.39-.21h-15.86c-.18,0-.34.08-.44.2-.1.12-.14.26-.14.4,0,.14.04.29.14.4.1.12.26.2.44.2h4.32c.23,0,.34.05.4.1.06.06.1.17.1.4v66.67c0,.23-.05.34-.1.4-.06.06-.17.1-.4.1h-4.72c-.19,0-.37.07-.48.18-.12.12-.17.27-.17.42,0,.15.06.3.17.42.11.12.29.19.48.18h16.37c.18,0,.34-.08.44-.2.1-.12.14-.26.14-.4,0-.14-.04-.29-.14-.4-.1-.12-.26-.2-.44-.2Z"/>
      <path class="cls-1" d="M208.79,80.95c-.1-.12-.26-.2-.44-.2h-3.4l-22.87-37.45,18.25-30.22h6.01c.17,0,.32-.1.39-.21.08-.12.11-.25.11-.39,0-.13-.03-.27-.11-.39-.07-.12-.22-.22-.39-.21h-12.85c-.19,0-.35.06-.46.18-.11.11-.16.26-.16.4,0,.15.05.3.16.42.1.12.27.21.46.2h5.37l-17.62,28.94-17.62-28.94h4.26c.18,0,.34-.08.44-.2.1-.12.14-.26.14-.4,0-.14-.04-.29-.14-.4-.1-.12-.26-.2-.44-.2h-16.47c-.18,0-.34.08-.44.2-.1.12-.14.26-.14.4,0,.14.04.29.14.4.1.12.26.2.44.2h5.01l21.17,35.04-19.86,32.64h-5.71c-.18,0-.34.08-.44.2-.1.12-.14.26-.14.4,0,.14.04.29.14.4.1.12.26.2.44.2h12.65c.18,0,.34-.08.44-.2.1-.12.14-.26.14-.4,0-.14-.04-.29-.14-.4-.1-.12-.26-.2-.44-.2h-5.27l18.93-31.34,19.02,31.34h-3.96c-.17,0-.32.1-.39.21-.08.12-.11.25-.11.39,0,.13.03.27.11.39.07.12.22.22.39.21h14.96c.18,0,.34-.08.44-.2.1-.12.14-.26.14-.4,0-.14-.04-.29-.14-.4Z"/>
      <path class="cls-1" d="M5.16,0C2.31,0,0,2.31,0,5.16c0,2.85,2.31,5.16,5.16,5.16,2.85,0,5.16-2.31,5.16-5.16C10.33,2.31,8.02,0,5.16,0ZM5.16,8.77c-1.56,0-2.83-1.61-2.83-3.6s1.27-3.6,2.83-3.6,2.83,1.61,2.83,3.6-1.27,3.6-2.83,3.6Z"/>
      <g>
        <path class="cls-1" d="M84.85,104.08c-.29.22-.6.41-.93.57-.33.16-.7.28-1.09.37-.4.08-.83.12-1.31.12-.75,0-1.44-.14-2.08-.41-.63-.27-1.18-.65-1.65-1.12-.46-.47-.83-1.03-1.09-1.68s-.4-1.34-.4-2.08.13-1.42.39-2.06c.26-.64.62-1.21,1.09-1.69.47-.48,1.02-.86,1.67-1.14s1.36-.42,2.14-.42c.47,0,.89.04,1.28.12.39.08.74.19,1.06.33s.62.31.89.5c.27.2.53.41.78.64l-1.16,1.33c-.41-.38-.84-.69-1.3-.92-.46-.23-.98-.35-1.57-.35-.49,0-.94.1-1.35.29-.41.19-.77.45-1.08.78-.3.33-.54.71-.7,1.15-.17.44-.25.91-.25,1.42s.08.98.25,1.43c.17.44.4.83.7,1.16.3.33.66.59,1.08.78.41.19.87.29,1.35.29.62,0,1.16-.12,1.61-.36.45-.24.89-.56,1.33-.97l1.16,1.17c-.26.28-.54.53-.83.75Z"/>
        <path class="cls-1" d="M102.78,104.96h-1.9l-1.04-2.47h-4.84l-1.05,2.47h-1.84l4.51-10.32h1.67l4.51,10.32ZM97.41,96.8l-1.76,4.1h3.53l-1.77-4.1Z"/>
        <polygon class="cls-1" points="117.56 96.34 111.74 96.34 111.74 99.17 116.9 99.17 116.9 100.79 111.74 100.79 111.74 104.96 109.95 104.96 109.95 94.72 117.56 94.72 117.56 96.34"/>
        <path class="cls-1" d="M132.55,96.34h-5.8v2.63h5.14v1.62h-5.14v2.74h5.87v1.62h-7.65v-10.24h7.58v1.62ZM127.7,93.87l1.55-2.4,1.61.72-1.79,1.68h-1.38Z"/>
      </g>
    </g>
  </g>
</svg>