<?xml version="1.0" encoding="UTF-8"?>
<svg id="Layer_2" data-name="Layer 2" xmlns="http://www.w3.org/2000/svg" viewBox="0 0 204.45 102.89">
  <defs>
    <style>
      .cls-1 {
        fill: #e9dcd2;
      }
    </style>
  </defs>
  <g id="Layer_1-2" data-name="Layer 1">
    <g>
      <path class="cls-1" d="M55.06,47.5c-4.28-2.97-9.87-4.54-15.32-4.63,4.26-.67,8.56-2.4,11.85-4.97,3.45-2.69,5.8-6.31,5.8-10.56,0-2.76-.74-5.13-2.01-7.12-1.91-2.98-4.99-5.11-8.53-6.51-3.54-1.39-7.53-2.06-11.27-2.09H11.21c-.18,0-.34.06-.45.17-.11.11-.15.25-.15.39,0,.15.05.3.16.42.1.12.26.2.45.2h4.62c.22,0,.34.05.39.1.06.05.1.17.1.39v65.24c0,.19-.07.3-.16.38-.09.08-.23.12-.33.12h-4.62c-.21,0-.39.06-.51.17-.13.11-.2.26-.2.42,0,.16.07.31.2.42.13.11.31.17.51.17h26.53c6.08,0,12.25-1.58,16.92-4.76,4.67-3.18,7.84-7.99,7.84-14.4,0-5.92-3.02-10.49-7.43-13.54ZM50.69,74.88c-3.33,2.87-7.92,4.14-12.95,4.14h-14.94c-.22,0-.34-.05-.39-.1-.06-.05-.1-.17-.1-.39v-34.49c0-.21.06-.31.13-.38.07-.07.19-.11.36-.11h12.48c6.07,0,11.29.93,14.97,3.57,1.84,1.32,3.3,3.06,4.31,5.35,1.01,2.28,1.56,5.1,1.56,8.57,0,6.49-2.09,10.97-5.42,13.84ZM46.8,38.89c-2.94,2.4-7.22,3.48-12.5,3.48h-11.5c-.22,0-.34-.05-.39-.1-.06-.05-.1-.17-.1-.39V13.29c0-.21.06-.31.13-.38.07-.07.19-.11.36-.11h12.48c4.1,0,8.14.88,11.13,3.13,2.99,2.25,4.98,5.86,4.98,11.41,0,5.42-1.65,9.15-4.6,11.55Z"/>
      <path class="cls-1" d="M124.06,79.06c-.26-.11-.62-.2-1.07-.3-1.33-.3-3.42-.66-5.4-1.59-3.28-1.54-5.15-4.11-6.71-7.21-1.56-3.1-2.78-6.72-4.76-10.29-2.45-4.42-6.9-10.29-15.67-15.68,4.88-.42,9.66-1.94,13.27-4.59,3.76-2.76,6.26-6.79,6.26-12.06,0-2.79-.75-5.18-2.05-7.19-1.94-3.02-5.07-5.17-8.65-6.57-3.59-1.4-7.63-2.05-11.41-2.05h-22.6c-.19,0-.36.07-.47.18-.11.11-.17.26-.17.41,0,.15.06.3.17.41.11.11.28.18.47.18h5.11v65.54c0,.32-.07.5-.18.61-.11.11-.29.18-.61.18h-4.52v.2c0,.26,0,.52,0,.79v.2h16.6c.17,0,.31-.09.38-.21.08-.12.11-.25.11-.38,0-.13-.03-.26-.11-.38-.07-.12-.22-.21-.38-.21h-4.52c-.32,0-.5-.07-.61-.18-.11-.11-.18-.29-.18-.61v-34.2h9.91c2.63.39,5.02,1.97,7.33,4.86,2.31,2.9,4.55,7.11,6.85,12.7,2.24,5.43,4.44,9.86,6.97,13.14,2.52,3.27,5.38,5.39,8.89,6.14.88.19,1.79.27,2.66.27,1.43,0,2.77-.21,3.76-.49.5-.14.91-.3,1.21-.47.15-.08.27-.17.37-.27.09-.1.17-.21.18-.35h0s0-.02,0-.02c0-.09-.03-.17-.08-.23-.09-.12-.21-.19-.36-.26ZM87.87,43.25h0,0ZM87.87,42.86h-11.5V12.7h11.5c4.1,0,8.14.9,11.13,3.18,3,2.27,4.98,5.91,4.98,11.46,0,5.61-1.82,9.45-4.73,11.91-2.91,2.47-6.94,3.57-11.38,3.61Z"/>
      <path class="cls-1" d="M143.85,79.02h-4.52c-.22,0-.34-.05-.39-.1-.06-.05-.1-.17-.1-.39V13.29c0-.22.05-.34.1-.39.05-.06.17-.1.39-.1h4.42c.17,0,.31-.09.38-.21.08-.12.11-.25.11-.38,0-.13-.03-.26-.11-.38-.07-.12-.22-.21-.38-.21h-15.53c-.18,0-.33.08-.43.19-.1.12-.14.26-.14.4,0,.14.04.28.14.4.09.12.25.2.43.19h4.23c.22,0,.34.05.39.1.06.05.1.17.1.39v65.24c0,.22-.05.34-.1.39-.05.06-.17.1-.39.1h-4.62c-.19,0-.36.07-.47.18-.11.11-.17.26-.17.41,0,.15.06.3.17.41.11.11.28.18.47.18h16.02c.18,0,.33-.08.43-.19.1-.12.14-.26.14-.4,0-.14-.04-.28-.14-.4-.09-.12-.25-.2-.43-.19Z"/>
      <path class="cls-1" d="M204.31,79.22c-.09-.12-.25-.2-.43-.19h-3.33l-22.38-36.65,17.86-29.58h5.88c.17,0,.31-.09.38-.21.08-.12.11-.25.11-.38,0-.13-.03-.26-.11-.38-.07-.12-.22-.21-.38-.21h-12.58c-.18,0-.34.06-.45.17-.11.11-.15.25-.15.39,0,.15.05.3.16.42.1.12.26.2.45.2h5.25l-17.24,28.32-17.24-28.32h4.17c.18,0,.33-.08.43-.19.1-.12.14-.26.14-.4,0-.14-.04-.28-.14-.4-.09-.12-.25-.2-.43-.19h-16.11c-.18,0-.33.08-.43.19-.1.12-.14.26-.14.4,0,.14.04.28.14.4.09.12.25.2.43.19h4.9l20.71,34.29-19.44,31.94h-5.59c-.18,0-.33.08-.43.19-.1.12-.14.26-.14.4,0,.14.04.28.14.4.09.12.25.2.43.19h12.38c.18,0,.33-.08.43-.19.1-.12.14-.26.14-.4,0-.14-.04-.28-.14-.4-.09-.12-.25-.2-.43-.19h-5.16l18.52-30.67,18.62,30.67h-3.88c-.17,0-.31.09-.38.21-.08.12-.11.25-.11.38,0,.13.03.26.11.38.07.12.22.21.38.21h14.64c.18,0,.33-.08.43-.19.1-.12.14-.26.14-.4,0-.14-.04-.28-.14-.4Z"/>
      <path class="cls-1" d="M5.05,0C2.26,0,0,2.26,0,5.05c0,2.79,2.26,5.05,5.05,5.05,2.79,0,5.05-2.26,5.05-5.05C10.11,2.26,7.84,0,5.05,0ZM5.05,8.58c-1.53,0-2.77-1.58-2.77-3.53s1.24-3.53,2.77-3.53,2.77,1.58,2.77,3.53-1.24,3.53-2.77,3.53Z"/>
      <g>
        <path class="cls-1" d="M83.03,101.85c-.28.21-.59.4-.91.56-.32.16-.68.28-1.07.36-.39.08-.81.12-1.28.12-.74,0-1.41-.13-2.03-.4-.62-.27-1.16-.63-1.61-1.1-.45-.46-.81-1.01-1.07-1.64s-.39-1.31-.39-2.03.13-1.39.38-2.02c.25-.63.61-1.18,1.07-1.65.46-.47,1-.84,1.63-1.12s1.33-.41,2.09-.41c.46,0,.88.04,1.25.11.38.08.72.18,1.04.32s.61.3.87.49c.27.19.52.4.76.63l-1.13,1.3c-.4-.37-.83-.67-1.27-.9-.45-.23-.96-.34-1.53-.34-.48,0-.92.09-1.32.28-.41.19-.76.44-1.05.76-.3.32-.53.69-.69,1.12-.16.43-.24.89-.24,1.39s.08.96.24,1.4c.16.43.39.81.69,1.14.3.32.65.58,1.05.77.41.19.85.28,1.32.28.61,0,1.14-.12,1.58-.35.44-.23.87-.55,1.3-.95l1.13,1.15c-.26.28-.53.52-.81.74Z"/>
        <path class="cls-1" d="M100.58,102.71h-1.86l-1.02-2.42h-4.74l-1.03,2.42h-1.8l4.41-10.1h1.63l4.41,10.1ZM95.32,94.72l-1.72,4.01h3.45l-1.73-4.01Z"/>
        <polygon class="cls-1" points="115.04 94.28 109.34 94.28 109.34 97.04 114.4 97.04 114.4 98.63 109.34 98.63 109.34 102.71 107.6 102.71 107.6 92.69 115.04 92.69 115.04 94.28"/>
        <path class="cls-1" d="M129.71,94.28h-5.67v2.58h5.03v1.59h-5.03v2.68h5.74v1.59h-7.49v-10.02h7.42v1.59ZM124.97,91.86l1.52-2.35,1.58.7-1.75,1.65h-1.35Z"/>
      </g>
    </g>
  </g>
</svg>