<?xml version="1.0" encoding="UTF-8" standalone="no"?>
<!-- Created with Inkscape (http://www.inkscape.org/) -->

<svg
   xmlns:dc="http://purl.org/dc/elements/1.1/"
   xmlns:cc="http://creativecommons.org/ns#"
   xmlns:rdf="http://www.w3.org/1999/02/22-rdf-syntax-ns#"
   xmlns:svg="http://www.w3.org/2000/svg"
   xmlns="http://www.w3.org/2000/svg"
   xmlns:sodipodi="http://sodipodi.sourceforge.net/DTD/sodipodi-0.dtd"
   xmlns:inkscape="http://www.inkscape.org/namespaces/inkscape"
   width="164.55836"
   height="34.26133"
   viewBox="0 0 43.539401 9.0649764"
   version="1.1"
   id="svg11721"
   inkscape:version="0.92.0 r15299"
   sodipodi:docname="the carlyle hotel.svg">
  <defs
     id="defs11715" />
  <sodipodi:namedview
     id="base"
     pagecolor="#ffffff"
     bordercolor="#666666"
     borderopacity="1.0"
     inkscape:pageopacity="0.0"
     inkscape:pageshadow="2"
     inkscape:zoom="5.4842805"
     inkscape:cx="81.779187"
     inkscape:cy="16.630665"
     inkscape:document-units="mm"
     inkscape:current-layer="layer1"
     showgrid="false"
     fit-margin-top="0"
     fit-margin-left="0"
     fit-margin-right="0"
     fit-margin-bottom="0"
     units="px"
     inkscape:window-width="1280"
     inkscape:window-height="744"
     inkscape:window-x="-4"
     inkscape:window-y="-4"
     inkscape:window-maximized="1" />
  <metadata
     id="metadata11718">
    <rdf:RDF>
      <cc:Work
         rdf:about="">
        <dc:format>image/svg+xml</dc:format>
        <dc:type
           rdf:resource="http://purl.org/dc/dcmitype/StillImage" />
        <dc:title></dc:title>
      </cc:Work>
    </rdf:RDF>
  </metadata>
  <g
     inkscape:label="Layer 1"
     inkscape:groupmode="layer"
     id="layer1"
     transform="translate(-115.18997,-206.9126)">
    <g
       transform="translate(-97.49871,96.433295)"
       id="g11677">
      <path
         style="fill:#000000;fill-opacity:1;stroke:none;stroke-width:0.35277778"
         d="m 214.60688,111.09599 c 0,-0.16536 -0.006,-0.17087 0.14332,-0.17087 h 0.34726 c 0.27561,0 0.46302,0.0441 0.57327,0.12678 0.0772,0.0551 0.11024,0.23702 0.12678,0.35829 0.022,0.0331 0.10473,0.0331 0.12677,-0.011 -0.0165,-0.14332 0.022,-0.5457 0.0717,-0.74965 -0.006,-0.0165 -0.0606,-0.0221 -0.0882,-0.011 -0.0717,0.12678 -0.11576,0.13781 -0.38585,0.13781 h -1.9954 c -0.23151,0 -0.39136,0.006 -0.42444,-0.15434 -0.011,-0.0165 -0.0772,-0.011 -0.0937,0 -0.0331,0.19843 -0.10473,0.51263 -0.18742,0.73311 0.022,0.0441 0.0882,0.0662 0.13229,0.0386 0.0496,-0.12678 0.0992,-0.23151 0.22049,-0.34175 0.12127,-0.11576 0.39688,-0.12678 0.60634,-0.12678 h 0.27009 c 0.14883,0 0.14883,0.006 0.14883,0.15985 v 2.21037 c 0,0.51814 -0.0221,0.5898 -0.30317,0.61736 l -0.1819,0.011 c -0.0386,0.0276 -0.0276,0.11024 0,0.12678 0.31971,-0.011 0.49058,-0.0165 0.68902,-0.0165 0.19844,0 0.3638,0.006 0.64492,0.0165 0.0331,-0.0165 0.0441,-0.10473 0.011,-0.12678 l -0.15986,-0.011 c -0.28112,-0.0276 -0.29214,-0.0992 -0.29214,-0.61736 z m 0,0"
         id="path11619"
         inkscape:connector-curvature="0" />
      <path
         style="fill:#000000;fill-opacity:1;stroke:none;stroke-width:0.35277778"
         d="m 219.86904,112.44096 c 0.23703,0 0.24805,0.006 0.24805,0.15434 v 0.70004 c 0,0.51814 0,0.56775 -0.30317,0.61736 l -0.0937,0.011 c -0.0276,0.0331 -0.0165,0.11024 0.011,0.12678 0.22049,-0.011 0.39687,-0.0165 0.60082,-0.0165 0.18742,0 0.35829,0.006 0.59532,0.0165 0.0276,-0.0165 0.0386,-0.10473 0.011,-0.12678 l -0.12127,-0.011 c -0.28663,-0.0386 -0.29765,-0.0992 -0.29765,-0.61736 v -1.78042 c 0,-0.51815 0.011,-0.5898 0.29765,-0.62288 l 0.10473,-0.011 c 0.0276,-0.0165 0.022,-0.10473 -0.011,-0.12127 -0.22049,0.011 -0.39136,0.0165 -0.57878,0.0165 -0.20395,0 -0.37482,-0.006 -0.60082,-0.0165 -0.0276,0.0165 -0.0386,0.10473 -0.011,0.12127 l 0.0937,0.011 c 0.29215,0.0331 0.30317,0.10473 0.30317,0.62288 v 0.56775 c 0,0.15434 -0.011,0.15985 -0.24805,0.15985 h -1.41111 c -0.23702,0 -0.24805,-0.006 -0.24805,-0.15985 v -0.56775 c 0,-0.51815 0.011,-0.5898 0.29766,-0.62288 l 0.0937,-0.011 c 0.0276,-0.0165 0.0221,-0.10473 -0.011,-0.12127 -0.20946,0.011 -0.38034,0.0165 -0.57326,0.0165 -0.20946,0 -0.38034,-0.011 -0.62287,-0.0165 -0.0276,0.0165 -0.0386,0.10473 -0.006,0.12127 l 0.12678,0.011 c 0.25356,0.0221 0.29215,0.10473 0.29215,0.62288 v 1.78042 c 0,0.51814 -0.011,0.56775 -0.28663,0.61736 l -0.0882,0.011 c -0.0276,0.0331 -0.0165,0.11024 0.011,0.12678 0.19292,-0.006 0.3638,-0.0165 0.57326,-0.0165 0.19292,0 0.3638,0.006 0.62838,0.0165 0.0276,-0.0165 0.0386,-0.10473 0.011,-0.12678 l -0.14332,-0.011 c -0.2756,-0.0331 -0.30317,-0.0992 -0.30317,-0.61736 v -0.70004 c 0,-0.14883 0.011,-0.15434 0.24805,-0.15434 z m 0,0"
         id="path11615"
         inkscape:connector-curvature="0" />
      <path
         style="fill:#000000;fill-opacity:1;stroke:none;stroke-width:0.35277778"
         d="m 222.87974,113.29534 c 0,0.51814 -0.0276,0.5898 -0.30868,0.61736 l -0.15986,0.011 c -0.0331,0.0331 -0.022,0.11024 0.006,0.12678 0.29214,-0.011 0.46302,-0.0165 0.67248,-0.0165 h 0.44648 c 0.44098,0 0.87644,0.006 1.32292,0.0165 0.0661,-0.13781 0.18741,-0.51263 0.22049,-0.68902 -0.0165,-0.0441 -0.0882,-0.0606 -0.12127,-0.0331 -0.12678,0.25356 -0.26458,0.42995 -0.35278,0.47956 -0.10473,0.0551 -0.24805,0.0717 -0.62838,0.0717 -0.43546,0 -0.54019,-0.0551 -0.60083,-0.11024 -0.0772,-0.0882 -0.0937,-0.25356 -0.0937,-0.51815 v -0.69453 c 0,-0.12678 0.0165,-0.13229 0.16537,-0.13229 h 0.28663 c 0.19293,0 0.30868,0.006 0.38034,0.0221 0.0992,0.0276 0.13229,0.0992 0.14883,0.18741 l 0.0496,0.19293 c 0.022,0.0331 0.10473,0.0331 0.12678,-0.006 0,-0.10473 -0.0221,-0.29215 -0.0221,-0.47405 0,-0.18741 0.0221,-0.38034 0.0221,-0.49609 -0.0221,-0.0331 -0.10473,-0.0331 -0.12678,-0.006 l -0.0441,0.20394 c -0.0221,0.12127 -0.0551,0.15435 -0.11576,0.17088 -0.0606,0.022 -0.21497,0.0331 -0.41892,0.0331 h -0.28663 c -0.14883,0 -0.16537,0 -0.16537,-0.14331 v -0.98668 c 0,-0.18741 0,-0.19843 0.14883,-0.19843 h 0.35829 c 0.21498,0 0.37483,0.006 0.47405,0.0331 0.25907,0.0606 0.30317,0.23702 0.38034,0.46853 0.0221,0.0276 0.0992,0.0165 0.12126,-0.011 -0.022,-0.21498 -0.0496,-0.57327 -0.0772,-0.65595 -0.0606,0.0165 -0.35277,0.0165 -0.66697,0.0165 h -0.93155 c -0.20395,0 -0.36931,-0.006 -0.58429,-0.0165 -0.0276,0.0165 -0.0386,0.10473 -0.006,0.12127 l 0.0772,0.011 c 0.29214,0.0331 0.30317,0.11025 0.30317,0.62288 z m 0,0"
         id="path11611"
         inkscape:connector-curvature="0" />
      <path
         style="fill:#000000;fill-opacity:1;stroke:none;stroke-width:0.35277778"
         d=""
         id="path11603"
         inkscape:connector-curvature="0" />
      <path
         style="fill:#000000;fill-opacity:1;stroke:none;stroke-width:0.35277778"
         d="m 228.65418,112.42442 c 0,0.6339 0.30868,1.0859 0.70556,1.35599 0.35829,0.24254 0.78273,0.33073 1.22921,0.33073 0.31419,0 0.67248,-0.0717 0.77721,-0.11024 0.0551,-0.0221 0.11576,-0.0386 0.17639,-0.0496 0.0717,-0.0937 0.19844,-0.41893 0.23702,-0.678 -0.022,-0.0331 -0.0937,-0.0441 -0.13229,-0.0221 -0.11024,0.29215 -0.39136,0.71107 -1.03077,0.71107 -0.81029,0 -1.46623,-0.57326 -1.46623,-1.61506 0,-1.01975 0.64492,-1.4993 1.40008,-1.4993 0.71658,0 0.93707,0.38585 1.00873,0.72209 0.0386,0.0276 0.11024,0.022 0.13229,-0.011 -0.0386,-0.30317 -0.0606,-0.61185 -0.0662,-0.7276 -0.0441,0.006 -0.0772,-0.006 -0.1378,-0.0165 -0.23151,-0.0661 -0.60634,-0.12126 -0.87643,-0.12126 -0.51263,0 -0.97014,0.1378 -1.33394,0.41892 -0.37483,0.29214 -0.62288,0.76068 -0.62288,1.31189 z m 0,0"
         id="path11607"
         inkscape:connector-curvature="0" />
      <path
         style="fill:#000000;fill-opacity:1;stroke:none;stroke-width:0.35277778"
         d="m 235.28398,113.55992 c 0.0386,0.11576 0.0661,0.20947 0.0661,0.25908 0,0.0496 -0.0717,0.0827 -0.17639,0.0937 l -0.14332,0.011 c -0.0331,0.0276 -0.0276,0.10473 0.011,0.12678 0.14331,-0.006 0.33072,-0.0165 0.56775,-0.0165 0.226,0 0.39687,0.006 0.60082,0.0165 0.0221,-0.0221 0.0331,-0.0992 0,-0.12678 l -0.1378,-0.011 c -0.20946,-0.0276 -0.27561,-0.0992 -0.41893,-0.52365 l -0.67248,-1.98989 c -0.0772,-0.21497 -0.15434,-0.44097 -0.22048,-0.66146 -0.011,-0.0331 -0.0441,-0.0441 -0.0717,-0.0441 -0.0551,0.0661 -0.13781,0.15434 -0.25907,0.18741 0.0165,0.0827 -0.0165,0.17639 -0.0827,0.35278 l -0.50711,1.33394 c -0.20395,0.55121 -0.34176,0.87092 -0.42995,1.10243 -0.0717,0.17639 -0.1819,0.23151 -0.29766,0.24253 l -0.16536,0.011 c -0.0276,0.0276 -0.0165,0.10473 0.011,0.12678 0.13229,-0.006 0.31419,-0.0165 0.47405,-0.0165 0.23151,0.006 0.38585,0.006 0.51263,0.0165 0.0441,-0.0221 0.0441,-0.0992 0.011,-0.12678 l -0.15985,-0.011 c -0.12127,-0.011 -0.14332,-0.0441 -0.14332,-0.0992 0,-0.0551 0.0331,-0.18741 0.10473,-0.41341 l 0.17639,-0.51814 c 0.0331,-0.10473 0.0606,-0.11576 0.18742,-0.11576 h 0.74414 c 0.14882,0 0.16536,0.011 0.20395,0.12127 z m -0.88194,-1.97335 c 0.0551,-0.14331 0.10473,-0.26458 0.11575,-0.28663 h 0.011 c 0.0276,0.0551 0.0717,0.19293 0.11576,0.30868 l 0.26458,0.80478 c 0.0441,0.13229 0.0331,0.15434 -0.11024,0.15434 h -0.60634 c -0.1378,0 -0.14331,-0.006 -0.10473,-0.12127 z m 0,0"
         id="path11599"
         inkscape:connector-curvature="0" />
      <path
         style="fill:#000000;fill-opacity:1;stroke:none;stroke-width:0.35277778"
         d="m 237.97793,113.29534 c 0,0.51814 -0.011,0.57878 -0.29766,0.61736 l -0.12127,0.011 c -0.0331,0.0386 -0.022,0.11024 0.006,0.12678 0.23151,-0.011 0.41341,-0.0165 0.61736,-0.0165 0.19843,0 0.36931,0.006 0.5898,0.0165 0.0276,-0.0165 0.0386,-0.0992 0.011,-0.12678 l -0.10473,-0.011 c -0.28663,-0.0441 -0.29766,-0.0992 -0.29766,-0.61736 v -0.62287 c 0,-0.10473 0.011,-0.11024 0.23152,-0.11024 0.19843,0 0.2756,0.0496 0.35277,0.15985 0.15434,0.22048 0.35278,0.56224 0.48507,0.74414 0.34727,0.49609 0.60083,0.62287 1.01975,0.62287 0.0937,0 0.17639,-0.011 0.22049,-0.0276 0.0221,-0.0165 0.0165,-0.0551 -0.006,-0.0662 -0.13229,-0.011 -0.25907,-0.0661 -0.34175,-0.1378 -0.33624,-0.28112 -0.60082,-0.67799 -0.99219,-1.3174 -0.0276,-0.0386 -0.0496,-0.0882 -0.0276,-0.11576 0.24805,-0.0992 0.61736,-0.35829 0.61736,-0.82682 0,-0.34176 -0.17087,-0.56775 -0.4079,-0.68902 -0.22599,-0.12678 -0.51814,-0.14883 -0.82682,-0.14883 -0.48507,0 -0.82131,0.0165 -1.10243,0.0386 -0.0386,0.022 -0.0386,0.0992 0,0.12678 l 0.15434,0.0165 c 0.20395,0.0276 0.22049,0.11025 0.22049,0.57878 z m 0.40238,-2.22691 c 0,-0.1378 0.0165,-0.15434 0.31971,-0.15434 0.55121,0 0.79375,0.36932 0.79375,0.76068 0,0.33624 -0.11576,0.50712 -0.24805,0.61185 -0.14331,0.11024 -0.33073,0.12678 -0.50712,0.12678 -0.25355,0 -0.32521,-0.011 -0.34175,-0.022 -0.0165,-0.0221 -0.0165,-0.0772 -0.0165,-0.16537 z m 0,0"
         id="path11591"
         inkscape:connector-curvature="0" />
      <path
         style="fill:#000000;fill-opacity:1;stroke:none;stroke-width:0.35277778"
         d="m 242.42786,113.29534 c 0,0.51814 -0.011,0.58429 -0.29766,0.61736 l -0.14883,0.011 c -0.0276,0.0331 -0.0221,0.11024 0.011,0.12678 0.27561,-0.011 0.43546,-0.0165 0.63941,-0.0165 h 0.45751 c 0.50711,0 0.97565,0.006 1.22921,0.0165 0.0661,-0.13781 0.20395,-0.63941 0.20395,-0.69453 0,-0.0331 -0.0937,-0.0551 -0.12127,-0.0276 -0.0992,0.25356 -0.226,0.42995 -0.32522,0.49059 -0.0772,0.0441 -0.1819,0.0606 -0.60082,0.0606 -0.39137,0 -0.48507,-0.0606 -0.54019,-0.11024 -0.0882,-0.0937 -0.10474,-0.226 -0.10474,-0.53468 v -1.71979 c 0,-0.51815 0.011,-0.59532 0.30317,-0.62288 l 0.11576,-0.011 c 0.0331,-0.0165 0.0221,-0.10473 -0.006,-0.12127 -0.24805,0.011 -0.41893,0.0165 -0.61185,0.0165 -0.19844,0 -0.3638,-0.006 -0.63941,-0.0165 -0.0331,0.0165 -0.0386,0.10473 -0.011,0.12127 l 0.12127,0.011 c 0.31419,0.0276 0.32522,0.10473 0.32522,0.62288 z m 0,0"
         id="path11595"
         inkscape:connector-curvature="0" />
      <path
         style="fill:#000000;fill-opacity:1;stroke:none;stroke-width:0.35277778"
         d="m 246.97454,113.02525 c 0,-0.38034 0.0165,-0.42444 0.23151,-0.79927 l 0.31419,-0.54019 c 0.24254,-0.42443 0.39136,-0.73311 0.65044,-0.77721 l 0.1378,-0.0276 c 0.0331,-0.0276 0.0276,-0.0992 -0.011,-0.12127 -0.16536,0.011 -0.30316,0.0165 -0.4575,0.0165 -0.15434,0 -0.29766,-0.006 -0.47405,-0.0165 -0.0386,0.0221 -0.0441,0.0882 -0.011,0.12127 l 0.0882,0.011 c 0.12127,0.0165 0.20946,0.0496 0.20946,0.0772 0,0.0606 -0.1819,0.39688 -0.3197,0.65595 -0.14883,0.28663 -0.31419,0.57326 -0.46854,0.83233 -0.19292,-0.34175 -0.37482,-0.7276 -0.55672,-1.09691 -0.0221,-0.0496 -0.15434,-0.33073 -0.15434,-0.38034 0,-0.0386 0.0386,-0.0606 0.20946,-0.0882 l 0.0661,-0.011 c 0.0276,-0.0276 0.0276,-0.10473 -0.0165,-0.12127 -0.12127,0.011 -0.30317,0.0165 -0.52917,0.0165 -0.23702,0 -0.41341,-0.006 -0.57326,-0.0165 -0.0331,0.0221 -0.0386,0.0882 -0.011,0.12127 l 0.13781,0.0276 c 0.14883,0.022 0.226,0.0496 0.39136,0.37483 l 0.58429,1.1355 c 0.14331,0.27561 0.15985,0.34175 0.15985,0.61185 v 0.25356 c 0,0.52916 -0.011,0.59531 -0.29766,0.62838 l -0.15434,0.011 c -0.0276,0.0331 -0.022,0.11024 0.011,0.12678 0.25907,-0.011 0.44097,-0.0165 0.64492,-0.0165 0.19844,0 0.36931,0.006 0.67248,0.0165 0.0276,-0.0165 0.0386,-0.0937 0.011,-0.12678 l -0.18742,-0.011 c -0.27009,-0.0221 -0.29765,-0.0992 -0.29765,-0.62838 z m 0,0"
         id="path11583"
         inkscape:connector-curvature="0" />
      <path
         style="fill:#000000;fill-opacity:1;stroke:none;stroke-width:0.35277778"
         d="m 250.04857,113.29534 c 0,0.51814 -0.011,0.58429 -0.29766,0.61736 l -0.14883,0.011 c -0.0276,0.0331 -0.0221,0.11024 0.011,0.12678 0.27561,-0.011 0.43546,-0.0165 0.63941,-0.0165 H 250.71 c 0.50711,0 0.97565,0.006 1.22921,0.0165 0.0661,-0.13781 0.20395,-0.63941 0.20395,-0.69453 0,-0.0331 -0.0937,-0.0551 -0.12127,-0.0276 -0.0992,0.25356 -0.226,0.42995 -0.32522,0.49059 -0.0772,0.0441 -0.1819,0.0606 -0.60082,0.0606 -0.39137,0 -0.48507,-0.0606 -0.54019,-0.11024 -0.0882,-0.0937 -0.10474,-0.226 -0.10474,-0.53468 v -1.71979 c 0,-0.51815 0.011,-0.59532 0.30317,-0.62288 l 0.11576,-0.011 c 0.0331,-0.0165 0.0221,-0.10473 -0.006,-0.12127 -0.24805,0.011 -0.41893,0.0165 -0.61185,0.0165 -0.19844,0 -0.3638,-0.006 -0.63941,-0.0165 -0.0331,0.0165 -0.0386,0.10473 -0.011,0.12127 l 0.12127,0.011 c 0.31419,0.0276 0.32522,0.10473 0.32522,0.62288 z m 0,0"
         id="path11587"
         inkscape:connector-curvature="0" />
      <path
         style="fill:#000000;fill-opacity:1;stroke:none;stroke-width:0.35277778"
         d="m 253.89596,113.29534 c 0,0.51814 -0.0276,0.5898 -0.30868,0.61736 l -0.15986,0.011 c -0.0331,0.0331 -0.022,0.11024 0.006,0.12678 0.29214,-0.011 0.46302,-0.0165 0.67248,-0.0165 h 0.44648 c 0.44098,0 0.87644,0.006 1.32292,0.0165 0.0661,-0.13781 0.18741,-0.51263 0.22049,-0.68902 -0.0165,-0.0441 -0.0882,-0.0606 -0.12127,-0.0331 -0.12678,0.25356 -0.26458,0.42995 -0.35278,0.47956 -0.10473,0.0551 -0.24805,0.0717 -0.62838,0.0717 -0.43546,0 -0.54019,-0.0551 -0.60083,-0.11024 -0.0772,-0.0882 -0.0937,-0.25356 -0.0937,-0.51815 v -0.69453 c 0,-0.12678 0.0165,-0.13229 0.16537,-0.13229 h 0.28663 c 0.19293,0 0.30868,0.006 0.38034,0.0221 0.0992,0.0276 0.13229,0.0992 0.14883,0.18741 l 0.0496,0.19293 c 0.0221,0.0331 0.10473,0.0331 0.12678,-0.006 0,-0.10473 -0.0221,-0.29215 -0.0221,-0.47405 0,-0.18741 0.0221,-0.38034 0.0221,-0.49609 -0.0221,-0.0331 -0.10473,-0.0331 -0.12678,-0.006 l -0.0441,0.20394 c -0.0221,0.12127 -0.0551,0.15435 -0.11576,0.17088 -0.0606,0.022 -0.21497,0.0331 -0.41892,0.0331 h -0.28663 c -0.14883,0 -0.16537,0 -0.16537,-0.14331 v -0.98668 c 0,-0.18741 0,-0.19843 0.14883,-0.19843 h 0.35829 c 0.21498,0 0.37483,0.006 0.47405,0.0331 0.25907,0.0606 0.30317,0.23702 0.38034,0.46853 0.0221,0.0276 0.0992,0.0165 0.12126,-0.011 -0.022,-0.21498 -0.0496,-0.57327 -0.0772,-0.65595 -0.0606,0.0165 -0.35277,0.0165 -0.66697,0.0165 h -0.93155 c -0.20395,0 -0.36931,-0.006 -0.58429,-0.0165 -0.0276,0.0165 -0.0386,0.10473 -0.006,0.12127 l 0.0772,0.011 c 0.29214,0.0331 0.30317,0.11025 0.30317,0.62288 z m 0,0"
         id="path11579"
         inkscape:connector-curvature="0" />
      <path
         style="fill:#000000;fill-opacity:1;stroke:none;stroke-width:0.35277778"
         d="m 218.41201,119.37877 c 0.0827,0 0.17087,-0.006 0.25356,-0.006 0.0937,0 0.19292,0.006 0.28663,0.006 0.0386,0 0.0386,-0.0276 0.0386,-0.0551 0,-0.0386 -0.011,-0.0441 -0.14331,-0.0441 -0.0992,0 -0.12678,-0.0496 -0.12678,-0.0992 0,-0.0772 0.0937,-0.30316 0.13229,-0.37482 0.006,-0.0165 0.0221,-0.0165 0.0441,-0.0165 h 0.53468 c 0.022,0.0717 0.16536,0.38034 0.16536,0.42995 0,0.0606 -0.0441,0.0606 -0.11024,0.0606 -0.10473,0 -0.10473,0.006 -0.10473,0.0551 0,0.0276 0.006,0.0441 0.0276,0.0441 0.0165,0 0.12126,-0.006 0.39136,-0.006 0.1378,0 0.27561,0.006 0.41341,0.006 0.0331,0 0.0331,-0.0276 0.0331,-0.0551 0,-0.0221 0,-0.0441 -0.0441,-0.0441 -0.13229,0 -0.15434,-0.0221 -0.21498,-0.14882 -0.12126,-0.24805 -0.51263,-1.2237 -0.62838,-1.51585 -0.011,-0.022 -0.0165,-0.0331 -0.0661,-0.0331 -0.0165,0 -0.0606,0.006 -0.0661,0.0165 -0.0221,0.0441 -0.30317,0.67799 -0.40239,0.98116 -0.0551,0.16536 -0.12127,0.33073 -0.19293,0.48507 -0.0496,0.12127 -0.0772,0.21497 -0.15985,0.21497 -0.0717,0 -0.0882,0.011 -0.0882,0.0551 0,0.0331 0.011,0.0441 0.0276,0.0441 z m 0.49058,-0.71658 c 0,-0.0661 0.20395,-0.52365 0.23702,-0.61736 l 0.24805,0.6339 h -0.42995 c -0.0441,0 -0.0551,-0.0165 -0.0551,-0.0165 z m 0,0"
         id="path11515"
         inkscape:connector-curvature="0" />
      <path
         style="fill:#000000;fill-opacity:1;stroke:none;stroke-width:0.35277778"
         d=""
         id="path11519"
         inkscape:connector-curvature="0" />
      <path
         style="fill:#000000;fill-opacity:1;stroke:none;stroke-width:0.35277778"
         d="m 221.95971,118.59053 c 0.0882,0 0.12127,0 0.23151,0.17088 l 0.28663,0.45751 c 0.0551,0.0827 0.0937,0.15985 0.12127,0.15985 0.0717,0 0.15985,-0.006 0.24254,-0.006 0.0992,0 0.22048,0.006 0.2756,0.006 0.0221,0 0.0221,-0.006 0.0221,-0.0717 0,-0.022 0,-0.0276 -0.0221,-0.0276 -0.0937,-0.006 -0.15434,-0.0221 -0.20395,-0.0937 l -0.40238,-0.57878 c -0.0331,-0.0441 -0.0496,-0.0661 -0.0496,-0.0717 0,-0.0165 0.0221,-0.022 0.0331,-0.0276 0.19293,-0.0772 0.3638,-0.1819 0.3638,-0.41892 0,-0.15434 -0.0661,-0.47405 -0.67799,-0.47405 -0.19844,0 -0.33624,0.006 -0.41341,0.006 -0.14332,0 -0.28664,-0.006 -0.42995,-0.006 -0.0386,0 -0.0441,0 -0.0441,0.0662 0,0.0165 0.0331,0.0276 0.0661,0.0276 0.19843,0 0.21497,0.0331 0.21497,0.33073 v 0.84887 c 0,0.35829 -0.006,0.39136 -0.1819,0.39136 -0.0772,0 -0.0827,0.006 -0.0827,0.0661 0,0.0221 0.006,0.0331 0.0276,0.0331 0.14331,0 0.28663,-0.006 0.42995,-0.006 0.14331,0 0.28112,0.006 0.42443,0.006 0.0276,0 0.0331,-0.011 0.0331,-0.0331 0,-0.0606 -0.006,-0.0661 -0.0827,-0.0661 -0.17639,0 -0.1819,-0.0331 -0.1819,-0.39136 z m 0,-0.76067 c 0,-0.10473 0.0827,-0.12127 0.14332,-0.12127 0.24804,0 0.34175,0.19844 0.34175,0.41892 0,0.19844 -0.0937,0.36932 -0.39687,0.36932 h -0.0882 z m 0,0"
         id="path11523"
         inkscape:connector-curvature="0" />
      <path
         style="fill:#000000;fill-opacity:1;stroke:none;stroke-width:0.35277778"
         d="m 224.40605,117.58732 c -0.57326,0 -1.01974,0.3638 -1.01974,0.90951 0,0.56224 0.39136,0.91502 0.94257,0.91502 0.84888,0 1.01975,-0.60083 1.01975,-0.91502 0,-0.55673 -0.39136,-0.90951 -0.94258,-0.90951 z m -0.0386,0.0992 c 0.41892,0 0.54019,0.47405 0.54019,0.81029 0,0.38034 -0.0937,0.8158 -0.54019,0.8158 -0.42995,0 -0.54019,-0.50712 -0.54019,-0.8158 0,-0.3638 0.0937,-0.81029 0.54019,-0.81029 z m 0,0"
         id="path11527"
         inkscape:connector-curvature="0" />
      <path
         style="fill:#000000;fill-opacity:1;stroke:none;stroke-width:0.35277778"
         d="m 226.85124,117.68654 c 0,-0.0772 -0.011,-0.0937 -0.0276,-0.0937 -0.0276,0 -0.0496,0.0496 -0.0772,0.0496 -0.0165,0 -0.0661,-0.011 -0.1378,-0.0276 -0.0717,-0.011 -0.16537,-0.0276 -0.25907,-0.0276 -0.33073,0 -0.57878,0.20395 -0.57878,0.53468 0,0.56224 0.80478,0.45751 0.80478,0.91502 0,0.16536 -0.12127,0.27561 -0.30317,0.27561 -0.23151,0 -0.36932,-0.1323 -0.44097,-0.32522 -0.011,-0.0441 -0.0165,-0.0661 -0.0496,-0.0661 -0.0441,0 -0.0551,0.006 -0.0551,0.0165 0,0.0827 0.0276,0.34175 0.0331,0.40239 0.006,0.0331 0.0221,0.0386 0.0496,0.0386 0.19292,0 0.30868,0.0331 0.47955,0.0331 0.43546,0 0.65595,-0.24254 0.65595,-0.51815 0,-0.15985 -0.0551,-0.29214 -0.18741,-0.39687 -0.28663,-0.22049 -0.66697,-0.27561 -0.66697,-0.52366 0,-0.16536 0.12126,-0.28663 0.29214,-0.28663 0.34727,0 0.38585,0.38034 0.42995,0.38034 0.0441,0 0.0717,-0.011 0.0717,-0.0331 0,-0.011 -0.0276,-0.14883 -0.0331,-0.34727 z m 0,0"
         id="path11531"
         inkscape:connector-curvature="0" />
      <path
         style="fill:#000000;fill-opacity:1;stroke:none;stroke-width:0.35277778"
         d="m 227.29769,119.3457 c 0,0.0221 0.006,0.0331 0.0276,0.0331 0.0331,0 0.0551,-0.006 0.36931,-0.006 0.94809,0 0.9977,0.006 1.0418,0.006 0.0661,0 0.0717,0 0.0882,-0.0386 0.0496,-0.12678 0.1323,-0.33624 0.1323,-0.34727 0,-0.022 -0.0165,-0.022 -0.0551,-0.022 -0.0441,0 -0.0551,0.022 -0.19292,0.21498 -0.0441,0.0606 -0.12127,0.0937 -0.16537,0.0937 -0.59531,0 -0.59531,-0.011 -0.59531,-0.0992 V 118.541 h 0.0827 c 0.29215,0 0.3142,0.0331 0.34727,0.24805 0.011,0.0551 0.0165,0.0551 0.0331,0.0551 0.0441,0 0.0662,0 0.0662,-0.022 0,-0.11024 -0.006,-0.21497 -0.006,-0.32521 0,-0.226 0.006,-0.29766 0.006,-0.32522 0,-0.0276 -0.011,-0.0276 -0.0551,-0.0276 -0.0386,0 -0.0441,0.0165 -0.0551,0.0717 -0.0276,0.17639 -0.0661,0.23151 -0.25907,0.23151 h -0.15985 v -0.57327 c 0,-0.14882 0.006,-0.14882 0.24805,-0.14882 0.20395,0 0.20946,0 0.28663,0.0386 0.0882,0.0441 0.16536,0.13781 0.19844,0.1819 0.0551,0.0661 0.0551,0.0661 0.0937,0.0661 0.0331,0 0.0496,0 0.0496,-0.022 0,-0.0386 -0.11024,-0.32522 -0.11024,-0.35829 0,-0.011 -0.011,-0.0165 -0.0221,-0.0165 -0.0772,0 -0.18741,0.006 -0.98667,0.006 -0.14883,0 -0.3142,-0.006 -0.38034,-0.006 -0.0386,0 -0.0441,0 -0.0441,0.0662 0,0.0165 0.0331,0.0276 0.0661,0.0276 0.19843,0 0.21497,0.0331 0.21497,0.33073 v 0.84887 c 0,0.35829 -0.006,0.39136 -0.1819,0.39136 -0.0772,0 -0.0827,0.006 -0.0827,0.0661 z m 0,0"
         id="path11535"
         inkscape:connector-curvature="0" />
      <path
         style="fill:#000000;fill-opacity:1;stroke:none;stroke-width:0.35277778"
         d="m 230.16528,118.81653 c -0.0276,0.0606 -0.0331,0.0717 -0.0441,0.0717 -0.0165,0 -0.022,-0.0386 -0.0276,-0.0551 -0.0331,-0.0827 -0.29214,-0.96463 -0.29214,-1.04731 0,-0.0606 0.0386,-0.0772 0.0717,-0.0772 0.12126,0 0.12126,-0.0165 0.12126,-0.0441 0,-0.0221 0,-0.0496 -0.0276,-0.0496 -0.13229,0 -0.25907,0.006 -0.39136,0.006 -0.12127,0 -0.24253,-0.006 -0.3638,-0.006 -0.0276,0 -0.0386,0.011 -0.0386,0.0441 0,0.0386 0,0.0496 0.11025,0.0496 0.0772,0 0.11024,0.0992 0.11575,0.12127 0.0882,0.25356 0.35829,1.24574 0.46302,1.51584 0.0165,0.0441 0.0276,0.0662 0.0827,0.0662 0.0331,0 0.0386,-0.0165 0.0496,-0.0386 0.0937,-0.14883 0.33625,-0.64492 0.52917,-1.06936 0.0276,-0.0551 0.0331,-0.0606 0.0441,-0.0606 0.011,0 0.011,0.006 0.0221,0.0276 0.0992,0.31419 0.19843,0.65043 0.32521,1.00872 0.006,0.0276 0.0221,0.1323 0.0882,0.1323 0.0386,0 0.0606,-0.011 0.0882,-0.0827 0.13781,-0.36931 0.35278,-0.90399 0.5898,-1.45521 0.0606,-0.14882 0.14332,-0.15985 0.1819,-0.16536 0.0827,-0.006 0.0992,-0.006 0.0992,-0.0441 0,-0.0441 -0.006,-0.0496 -0.0276,-0.0496 -0.14331,0 -0.21497,0.006 -0.28112,0.006 -0.0882,0 -0.1819,-0.006 -0.28663,-0.006 -0.0386,0 -0.0496,0 -0.0496,0.0496 0,0.0441 0.0496,0.0441 0.0882,0.0441 0.0551,0 0.14331,0 0.14331,0.10473 0,0.0386 -0.011,0.13229 -0.34175,0.97014 -0.0276,0.0661 -0.0331,0.0661 -0.0441,0.0661 -0.011,0 -0.0165,-0.0165 -0.0386,-0.0992 -0.0441,-0.15986 -0.27561,-0.8599 -0.27561,-0.94809 0,-0.0606 0.0386,-0.0937 0.0882,-0.0937 0.0992,0 0.11025,-0.006 0.11025,-0.0386 0,-0.0551 -0.006,-0.0551 -0.0221,-0.0551 -0.12678,0 -0.24805,0.006 -0.36932,0.006 -0.12678,0 -0.25356,-0.006 -0.37482,-0.006 -0.0441,0 -0.0441,0.0221 -0.0441,0.0551 0,0.022 0,0.0386 0.0827,0.0386 0.0276,0.006 0.0772,0.022 0.0882,0.0331 0.0551,0.0441 0.11024,0.28663 0.11024,0.32522 0,0.0386 -0.0165,0.0717 -0.0276,0.0937 z m 0,0"
         id="path11539"
         inkscape:connector-curvature="0" />
      <path
         style="fill:#000000;fill-opacity:1;stroke:none;stroke-width:0.35277778"
         d="m 233.15282,117.58732 c -0.57326,0 -1.01974,0.3638 -1.01974,0.90951 0,0.56224 0.39136,0.91502 0.94257,0.91502 0.84888,0 1.01975,-0.60083 1.01975,-0.91502 0,-0.55673 -0.39136,-0.90951 -0.94258,-0.90951 z m -0.0386,0.0992 c 0.41892,0 0.54019,0.47405 0.54019,0.81029 0,0.38034 -0.0937,0.8158 -0.54019,0.8158 -0.42995,0 -0.54019,-0.50712 -0.54019,-0.8158 0,-0.3638 0.0937,-0.81029 0.54019,-0.81029 z m 0,0"
         id="path11543"
         inkscape:connector-curvature="0" />
      <path
         style="fill:#000000;fill-opacity:1;stroke:none;stroke-width:0.35277778"
         d="m 235.49879,117.58732 c -0.57326,0 -1.01974,0.3638 -1.01974,0.90951 0,0.56224 0.39136,0.91502 0.94257,0.91502 0.84888,0 1.01975,-0.60083 1.01975,-0.91502 0,-0.55673 -0.39136,-0.90951 -0.94258,-0.90951 z m -0.0386,0.0992 c 0.41892,0 0.54019,0.47405 0.54019,0.81029 0,0.38034 -0.0937,0.8158 -0.54019,0.8158 -0.42995,0 -0.54019,-0.50712 -0.54019,-0.8158 0,-0.3638 0.0937,-0.81029 0.54019,-0.81029 z m 0,0"
         id="path11547"
         inkscape:connector-curvature="0" />
      <path
         style="fill:#000000;fill-opacity:1;stroke:none;stroke-width:0.35277778"
         d="m 236.79746,119.3457 c 0,0.0221 0.006,0.0331 0.0331,0.0331 0.11575,0 0.25907,-0.006 0.40239,-0.006 0.14882,0 0.29214,0.006 0.44097,0.006 0.78824,0 1.06936,-0.45751 1.06936,-0.93155 0,-0.25907 -0.11576,-0.83234 -0.98668,-0.83234 -0.33624,0 -0.42995,0.006 -0.52365,0.006 -0.14332,0 -0.28664,-0.006 -0.40239,-0.006 -0.0441,0 -0.0441,0 -0.0441,0.0662 0,0.0165 0.0331,0.0276 0.0386,0.0276 0.19843,0 0.21497,0.0331 0.21497,0.33073 v 0.84887 c 0,0.35829 -0.006,0.39136 -0.1819,0.39136 -0.0551,0 -0.0606,0.006 -0.0606,0.0661 z m 0.62838,-0.23702 v -1.28433 c 0,-0.10474 0.0717,-0.11576 0.15985,-0.11576 0.6339,0 0.71107,0.5457 0.71107,0.76619 0,0.51814 -0.28112,0.80477 -0.69453,0.80477 -0.13229,0 -0.17639,-0.0165 -0.17639,-0.17087 z m 0,0"
         id="path11551"
         inkscape:connector-curvature="0" />
      <path
         style="fill:#000000;fill-opacity:1;stroke:none;stroke-width:0.35277778"
         d=""
         id="path11555"
         inkscape:connector-curvature="0" />
      <path
         style="fill:#000000;fill-opacity:1;stroke:none;stroke-width:0.35277778"
         d="m 239.961,119.3457 c 0,0.0221 0.006,0.0331 0.0276,0.0331 0.14331,0 0.28663,-0.006 0.42995,-0.006 0.14331,0 0.28112,0.006 0.42443,0.006 0.0276,0 0.0331,-0.011 0.0331,-0.0331 0,-0.0606 -0.006,-0.0661 -0.0827,-0.0661 -0.17639,0 -0.1819,-0.0331 -0.1819,-0.39136 v -0.34727 h 0.80478 v 0.34727 c 0,0.35829 -0.006,0.39136 -0.18191,0.39136 -0.0772,0 -0.0827,0.006 -0.0827,0.0661 0,0.0221 0.006,0.0331 0.0331,0.0331 0.14331,0 0.28111,-0.006 0.42443,-0.006 0.14332,0 0.28663,0.006 0.42995,0.006 0.022,0 0.0331,-0.011 0.0331,-0.0331 0,-0.0606 -0.011,-0.0661 -0.0882,-0.0661 -0.17639,0 -0.1819,-0.0331 -0.1819,-0.39136 v -0.84887 c 0,-0.29766 0.0165,-0.33073 0.21497,-0.33073 0.0331,0 0.0661,-0.011 0.0661,-0.0276 0,-0.0662 -0.006,-0.0662 -0.0441,-0.0662 -0.14332,0 -0.28663,0.006 -0.42995,0.006 -0.14332,0 -0.28112,-0.006 -0.42443,-0.006 -0.0165,0 -0.022,0 -0.022,0.0662 0,0.0165 0.0331,0.0276 0.0882,0.0276 0.15434,0 0.16537,0.0331 0.16537,0.33073 v 0.38585 h -0.80478 v -0.38585 c 0,-0.29766 0.0165,-0.33073 0.16537,-0.33073 0.0551,0 0.0882,-0.011 0.0882,-0.0276 0,-0.0662 0,-0.0662 -0.0221,-0.0662 -0.14331,0 -0.28112,0.006 -0.42443,0.006 -0.14332,0 -0.28664,-0.006 -0.42995,-0.006 -0.0386,0 -0.0441,0 -0.0441,0.0662 0,0.0165 0.0331,0.0276 0.0662,0.0276 0.19843,0 0.21497,0.0331 0.21497,0.33073 v 0.84887 c 0,0.35829 -0.006,0.39136 -0.1819,0.39136 -0.0772,0 -0.0827,0.006 -0.0827,0.0661 z m 0,0"
         id="path11559"
         inkscape:connector-curvature="0" />
      <path
         style="fill:#000000;fill-opacity:1;stroke:none;stroke-width:0.35277778"
         d="m 243.42325,117.58732 c -0.57326,0 -1.01974,0.3638 -1.01974,0.90951 0,0.56224 0.39136,0.91502 0.94257,0.91502 0.84888,0 1.01975,-0.60083 1.01975,-0.91502 0,-0.55673 -0.39136,-0.90951 -0.94258,-0.90951 z m -0.0386,0.0992 c 0.41892,0 0.54019,0.47405 0.54019,0.81029 0,0.38034 -0.0937,0.8158 -0.54019,0.8158 -0.42995,0 -0.54019,-0.50712 -0.54019,-0.8158 0,-0.3638 0.0937,-0.81029 0.54019,-0.81029 z m 0,0"
         id="path11563"
         inkscape:connector-curvature="0" />
      <path
         style="fill:#000000;fill-opacity:1;stroke:none;stroke-width:0.35277778"
         d="m 244.9865,117.6204 c -0.12127,0 -0.14332,-0.0551 -0.17639,-0.0551 -0.0331,0 -0.0496,0.0221 -0.0496,0.0496 -0.006,0.0496 -0.12127,0.36932 -0.12127,0.4079 0,0.0276 0.0165,0.0331 0.0441,0.0331 0.0276,0 0.0386,-0.006 0.0551,-0.0331 0.13781,-0.20395 0.24805,-0.30317 0.55673,-0.30317 0.17639,0 0.17639,0.006 0.17639,0.17088 v 0.9977 c 0,0.35829 -0.006,0.39136 -0.1819,0.39136 -0.0772,0 -0.0882,0.006 -0.0882,0.0661 0,0.0221 0.011,0.0331 0.0331,0.0331 0.14331,0 0.28663,-0.006 0.42994,-0.006 0.14332,0 0.28112,0.006 0.42444,0.006 0.0276,0 0.0331,-0.011 0.0331,-0.0331 0,-0.0606 -0.006,-0.0661 -0.0827,-0.0661 -0.17639,0 -0.1819,-0.0331 -0.1819,-0.39136 v -0.9977 c 0,-0.16536 0,-0.17088 0.15985,-0.17088 0.34727,0 0.42995,0.0827 0.56775,0.30317 0.0165,0.0276 0.0221,0.0276 0.0551,0.0276 0.011,0 0.0441,0 0.0441,-0.0221 0,-0.0276 -0.11024,-0.39687 -0.12127,-0.43546 -0.006,-0.0276 -0.011,-0.0386 -0.0386,-0.0386 -0.0386,0 -0.0662,0.0662 -0.12678,0.0662 z m 0,0"
         id="path11567"
         inkscape:connector-curvature="0" />
      <path
         style="fill:#000000;fill-opacity:1;stroke:none;stroke-width:0.35277778"
         d="m 246.91001,119.3457 c 0,0.0221 0.006,0.0331 0.0276,0.0331 0.0331,0 0.0551,-0.006 0.36931,-0.006 0.94809,0 0.9977,0.006 1.0418,0.006 0.0661,0 0.0717,0 0.0882,-0.0386 0.0496,-0.12678 0.1323,-0.33624 0.1323,-0.34727 0,-0.022 -0.0165,-0.022 -0.0551,-0.022 -0.0441,0 -0.0551,0.022 -0.19292,0.21498 -0.0441,0.0606 -0.12127,0.0937 -0.16537,0.0937 -0.59531,0 -0.59531,-0.011 -0.59531,-0.0992 V 118.541 h 0.0827 c 0.29215,0 0.3142,0.0331 0.34727,0.24805 0.011,0.0551 0.0165,0.0551 0.0331,0.0551 0.0441,0 0.0661,0 0.0661,-0.022 0,-0.11024 -0.006,-0.21497 -0.006,-0.32521 0,-0.226 0.006,-0.29766 0.006,-0.32522 0,-0.0276 -0.011,-0.0276 -0.0551,-0.0276 -0.0386,0 -0.0441,0.0165 -0.0551,0.0717 -0.0276,0.17639 -0.0661,0.23151 -0.25907,0.23151 h -0.15985 v -0.57327 c 0,-0.14882 0.006,-0.14882 0.24805,-0.14882 0.20395,0 0.20946,0 0.28663,0.0386 0.0882,0.0441 0.16536,0.13781 0.19844,0.1819 0.0551,0.0661 0.0551,0.0661 0.0937,0.0661 0.0331,0 0.0496,0 0.0496,-0.022 0,-0.0386 -0.11024,-0.32522 -0.11024,-0.35829 0,-0.011 -0.011,-0.0165 -0.0221,-0.0165 -0.0772,0 -0.18741,0.006 -0.98667,0.006 -0.14883,0 -0.3142,-0.006 -0.38034,-0.006 -0.0386,0 -0.0441,0 -0.0441,0.0662 0,0.0165 0.0331,0.0276 0.0661,0.0276 0.19843,0 0.21497,0.0331 0.21497,0.33073 v 0.84887 c 0,0.35829 -0.006,0.39136 -0.1819,0.39136 -0.0772,0 -0.0827,0.006 -0.0827,0.0661 z m 0,0"
         id="path11571"
         inkscape:connector-curvature="0" />
      <path
         style="fill:#000000;fill-opacity:1;stroke:none;stroke-width:0.35277778"
         d="m 248.84606,119.3457 c 0,0.0221 0.006,0.0331 0.0276,0.0331 0.1378,0 0.26458,-0.011 0.65594,-0.011 0.26459,0 0.68902,0.011 0.79375,0.011 0.0165,0 0.0276,0 0.0386,-0.0165 0.011,-0.0165 0.10473,-0.44098 0.10473,-0.47956 0,-0.0165 -0.0165,-0.022 -0.0386,-0.022 -0.0276,0 -0.0441,0 -0.0551,0.0331 -0.13229,0.36932 -0.28663,0.37483 -0.63941,0.37483 -0.22048,0 -0.23702,-0.0331 -0.23702,-0.17088 v -1.05833 c 0,-0.29766 0.0165,-0.33073 0.21498,-0.33073 0.0331,0 0.0661,-0.011 0.0661,-0.0276 0,-0.0662 -0.006,-0.0662 -0.0496,-0.0662 -0.14331,0 -0.28112,0.006 -0.42443,0.006 -0.14332,0 -0.28664,-0.006 -0.42995,-0.006 -0.0386,0 -0.0441,0 -0.0441,0.0662 0,0.0165 0.0331,0.0276 0.0661,0.0276 0.19843,0 0.21497,0.0331 0.21497,0.33073 v 0.84887 c 0,0.35829 -0.006,0.39136 -0.1819,0.39136 -0.0772,0 -0.0827,0.006 -0.0827,0.0661 z m 0,0"
         id="path11575"
         inkscape:connector-curvature="0" />
    </g>
  </g>
</svg>
