<?xml version="1.0" encoding="UTF-8"?>
<svg width="160px" height="206px" viewBox="0 0 160 206" version="1.1" xmlns="http://www.w3.org/2000/svg" xmlns:xlink="http://www.w3.org/1999/xlink">
    <title>Logo-Stacked</title>
    <g id="Page-1" stroke="none" stroke-width="1" fill="none" fill-rule="evenodd">
        <g id="Elements" transform="translate(-340.000000, -60.000000)" fill="#000000" fill-rule="nonzero">
            <g id="Logo-Stacked" transform="translate(340.000000, 60.000000)">
                <path d="M39.33,176.640946 C44.5902247,176.640946 48.7359235,179.422373 48.8284212,184.506725 L48.83,184.680946 L48.83,186.560946 L43.74,186.560946 L43.74,185.190946 C43.74,182.755946 42.015,181.190946 39.31,181.190946 C36.5108929,181.190946 34.8693112,182.816305 34.8115759,185.474911 L34.81,185.620946 L34.81,196.345946 C34.81,199.475946 36.615,200.975946 39.4,200.975946 C41.9371296,200.975946 43.6843484,199.540621 43.7481902,197.223067 L43.75,197.090946 L43.75,195.560946 L48.815,195.560946 L48.815,197.445946 C48.815,202.700946 44.66,205.520946 39.37,205.520946 L39.1974734,205.520065 L39.1974734,205.520065 L38.8542126,205.512997 C38.5692008,205.504149 38.2868576,205.487894 38.0077199,205.464115 L37.6743276,205.431961 C32.974041,204.925065 29.2622006,202.230179 29.1765143,196.774642 L29.175,196.580946 L29.175,185.580946 C29.175,179.895946 33.76,176.640946 39.33,176.640946 Z M90.595,177.110946 L90.595,196.205946 C90.595,199.695946 92.75,201.030946 95.22,201.030946 C97.8783621,201.030946 99.7061237,199.287651 99.6924267,196.437 L99.69,196.285946 L99.69,177.110946 L105.065,177.110946 L105.065,196.422608 C105.013971,202.334833 100.772819,205.520946 94.99,205.520946 C89.2850521,205.520946 85.0783952,202.925867 84.9913755,196.718181 L84.99,196.520946 L84.99,177.110946 L90.595,177.110946 Z M65,177.115946 L65,200.440946 L76.76,200.440946 L76.76,205.065946 L59.39,205.065946 L59.39,177.115946 L65,177.115946 Z M126.65,177.110946 C131.405,177.110946 134.15,179.855946 134.15,184.050946 C134.15,187.248841 132.296777,189.915865 129.519653,190.677002 L129.37,190.715946 L129.37,190.795946 C132.58,191.485946 134.465,194.245946 134.475,197.380946 C134.475,202.145634 131.452016,204.994139 126.999757,205.064608 L126.83,205.065946 L115.055,205.065946 L115.055,177.110946 L126.65,177.110946 Z M124.74,193.070946 L120.625,193.070946 L120.625,200.715946 L125.055,200.715946 C127.33,200.715946 128.78,199.265946 128.78,196.715946 C128.78,194.21406 127.080975,193.112785 124.86822,193.072118 L124.74,193.070946 Z M124.975,181.385946 L120.625,181.385946 L120.625,188.765946 L124.625,188.765946 C126.86,188.765946 128.585,187.475946 128.585,184.885946 C128.585,182.608395 127.155196,181.434385 125.104001,181.387414 L124.975,181.385946 Z M39.36,134.735946 C39.4727551,134.735946 39.585202,134.737056 39.6973063,134.739286 L40.0325571,134.749346 C40.311019,134.760546 40.5871248,134.778808 40.8603374,134.80429 L41.1867693,134.838344 L41.1867693,134.838344 L41.5102174,134.879388 C46.016641,135.503221 49.585168,138.200015 49.6685096,143.712861 L49.67,143.910946 L49.67,154.220946 C49.67,160.725946 44.97,163.630946 39.4,163.630946 C39.1749495,163.630946 38.9513764,163.626718 38.7295287,163.618169 L38.3980822,163.602094 C33.3366955,163.305556 29.2536464,160.698797 29.166424,154.654271 L29.165,154.455946 L29.165,144.145946 C29.165,137.910946 33.715,134.735946 39.36,134.735946 Z M10.155,134.735946 C15.4251124,134.735946 19.5464809,137.532038 19.6287639,142.597386 L19.63,142.770946 L19.63,144.650946 L14.575,144.650946 L14.575,143.280946 C14.575,140.850946 12.85,139.280946 10.145,139.280946 C7.34098214,139.280946 5.70413584,140.906305 5.64657118,143.564911 L5.645,143.710946 L5.645,154.435946 C5.645,157.560946 7.45,159.060946 10.23,159.060946 C12.772037,159.060946 14.5193467,157.625621 14.5831901,155.312795 L14.585,155.180946 L14.585,153.650946 L19.64,153.650946 L19.64,155.530946 C19.64,160.785946 15.485,163.605946 10.195,163.605946 L10.0224734,163.605067 L10.0224734,163.605067 L9.67921265,163.598011 C4.43499552,163.435511 0.0942571343,160.769358 0.00151425962,154.86464 L-2.84217094e-14,154.670946 L-2.84217094e-14,143.670946 C-2.84217094e-14,137.985946 4.585,134.735946 10.155,134.735946 Z M77.035,135.205946 L77.035,139.715946 L65.31,139.715946 L65.31,146.850946 L74.605,146.850946 L74.605,151.360946 L65.31,151.360946 L65.31,163.155946 L59.705,163.155946 L59.705,135.205946 L77.035,135.205946 Z M104.905,135.205946 L104.905,139.715946 L93.185,139.715946 L93.185,146.850946 L102.475,146.850946 L102.475,151.360946 L93.185,151.360946 L93.185,163.155946 L87.58,163.155946 L87.58,135.205946 L104.905,135.205946 Z M132.385,135.205946 L132.385,139.790946 L120.665,139.790946 L120.665,146.615946 L129.995,146.615946 L129.995,151.200946 L120.665,151.200946 L120.665,158.530946 L132.425,158.530946 L132.425,163.155946 L115.06,163.155946 L115.06,135.205946 L132.385,135.205946 Z M159.675,135.205946 L159.675,139.790946 L147.95,139.790946 L147.95,146.615946 L157.28,146.615946 L157.28,151.200946 L147.95,151.200946 L147.95,158.530946 L159.71,158.530946 L159.71,163.155946 L142.345,163.155946 L142.345,135.205946 L159.675,135.205946 Z M39.31,139.320946 C36.4314035,139.320946 34.8655063,141.063169 34.8114485,143.87433 L34.81,144.025946 L34.81,154.335946 C34.81,157.240946 36.44,159.000946 39.44,159.000946 C42.2498246,159.000946 43.9641243,157.224942 44.0234104,154.521648 L44.025,154.375946 L44.015,143.790946 C44.015,140.930946 42.095,139.320946 39.31,139.320946 Z M68.855,104.360946 L68.855,106.620946 L64.315,106.620946 L64.315,121.135946 L61.54,121.135946 L61.54,106.620946 L56.95,106.620946 L56.95,104.360946 L68.855,104.360946 Z M77.89,104.360946 L77.89,111.280946 L83.91,111.280946 L83.91,104.360946 L86.665,104.360946 L86.665,121.135946 L83.91,121.135946 L83.91,113.750946 L77.89,113.750946 L77.89,121.135946 L75.11,121.135946 L75.11,104.360946 L77.89,104.360946 Z M103.745,104.360946 L103.745,106.690946 L96.59,106.690946 L96.59,111.395946 L102.285,111.395946 L102.285,113.700946 L96.59,113.700946 L96.59,118.785946 L103.765,118.785946 L103.765,121.135946 L93.815,121.135946 L93.815,104.360946 L103.745,104.360946 Z M99.4675,40.4770814 C106.268,40.4770814 111.830993,45.8637444 112.074261,52.6353272 L112.08,52.8409465 L112.085,52.8559465 C112.085,66.8209465 95.93025,70.4614826 87.8844625,70.7906238 L87.3873159,70.8070741 C87.14436,70.8131632 86.91,70.8162391 86.685,70.8162391 C86.516934,70.8207877 86.3678993,70.7086493 86.3259945,70.5458192 C86.2840897,70.3829892 86.3604763,70.2128379 86.51,70.1359465 C90.62,68.1209465 92.005,66.0109465 92.62,63.2709465 C89.0384905,61.0114207 86.8630548,57.0756369 86.855,52.8409465 C86.9917494,45.9731155 92.5983077,40.4770814 99.4675,40.4770814 Z M76.765,0.000946497957 C76.9364948,-0.0113716872 77.0933328,0.0976646518 77.1415213,0.26271035 C77.1897098,0.427756048 77.1161808,0.604052812 76.965,0.685946498 C75.2624482,1.36138509 74.5414444,3.15236083 74.236681,4.60298905 L74.1884078,4.84806251 L74.1884078,4.84806251 L74.1476566,5.08483802 C74.1414565,5.12351855 74.1355433,5.16178543 74.129904,5.19960469 L74.0992493,5.4208772 L74.0992493,5.4208772 L74.0745344,5.62977699 L74.0745344,5.62977699 L74.0551264,5.82467414 L74.0551264,5.82467414 L74.0403925,6.00393874 L74.0403925,6.00393874 L74.0224154,6.30905066 L74.0224154,6.30905066 L74.0164949,6.48472669 L74.0164949,6.48472669 L74.0149624,6.57347467 L74.0149624,6.57347467 L74.0157318,64.3095104 L74.0157318,64.3095104 L74.0229109,64.5342354 L74.0229109,64.5342354 L74.0353693,64.7568662 L74.0353693,64.7568662 L74.0562474,65.0197645 L74.0562474,65.0197645 L74.0758911,65.2146931 L74.0758911,65.2146931 L74.1008476,65.4234564 L74.1008476,65.4234564 L74.1317454,65.64443 L74.1317454,65.64443 L74.1692128,65.8759889 L74.1692128,65.8759889 L74.2138782,66.1165085 L74.2138782,66.1165085 L74.2663698,66.3643641 C74.5871836,67.7865952 75.3152273,69.4839167 76.965,70.1259465 C77.1161808,70.2078402 77.1897098,70.3841369 77.1415213,70.5491826 C77.0933328,70.7142283 76.9364948,70.8232647 76.765,70.8109465 C73.8684445,70.5874691 71.0121374,69.9960455 68.265,69.0509465 C55.43955,64.6404965 46.073853,51.4777535 45.8878216,35.8551065 L45.885,35.3809465 L45.8881156,34.9067865 C46.083654,19.2841395 55.43955,6.1213965 68.265,1.7109465 C71.0143708,0.782860246 73.8706245,0.208249202 76.765,0.000946497957 Z M86.685,0.025946498 C86.835,0.025946498 86.98916,0.027252498 87.1472536,0.029929818 L87.6331085,0.042141058 C95.5054849,0.302691858 111.742051,3.80466166 112.074808,17.5485173 L112.080001,17.9859465 L112.074262,18.1915658 C111.830993,24.9631486 106.268,30.3498116 99.4675,30.3498116 C92.5983077,30.3498116 86.9917494,24.8537775 86.855,17.9859465 C86.8689549,13.7581259 89.0437745,9.83100155 92.62,7.5759465 C92.01,4.8309465 90.63,2.7109465 86.51,0.710946498 C86.353904,0.637376445 86.2719687,0.463388533 86.3146827,0.296193895 C86.3573966,0.128999257 86.512744,0.0156309989 86.685,0.025946498 Z" id="Shape"></path>
            </g>
        </g>
    </g>
</svg>