<svg xmlns="http://www.w3.org/2000/svg" height="800" width="1200" viewBox="-7.113018 -1.7114575 61.646156 10.268745"><g fill="#e21a38"><path d="M41.70053 5.3393c-3.11538 2.27435-7.12505-1.25872-4.8454-4.68137v-.003c-.85372.62583-1.41217 1.63372-1.41217 2.76825 0 1.88701 1.5367 3.42265 3.423 3.42265 1.17722 0 2.21791-.5983 2.83457-1.50636"/><path d="M41.7846 5.2094c-2.87267 1.74376-6.86682-1.4009-4.62739-4.74806.13477-.0787.27517-.14887.42087-.20743v.002c-1.49649 3.01625 1.66511 5.83001 4.44958 4.48945h-.003c-.0667.16193-.14817.31574-.23989.46355"/><path d="M42.10291 4.54137C39.55339 5.56054 36.4948 2.95458 37.79338.17222l-.004.004c.11112-.0374.22437-.067.34078-.0952v.003c-.78387 2.34527 1.44921 4.81612 4.07423 4.08834l.002-.003c-.0268.12735-.0617.25047-.10442.37218"/><path d="M42.25348 3.92126c-2.36079.14605-4.10951-1.37442-3.91125-3.88056.133-.0187.26776-.0325.40252-.0377l.003-.003c-.0737 2.24013 1.53847 3.6061 3.5433 3.54118h-.002c-.006.12947-.0169.25612-.0356.37994"/><path d="M42.26657 3.02933c-1.80552-.2875-2.80458-1.36102-3.00179-3.00496.10478.0113.20991.0296.31221.0512h.002c.22578 1.43157 1.10949 2.32304 2.64795 2.67406l-.004-.003c.0187.0914.0328.18662.0427.27976v.003m-.45589-1.35776c-.44732-.16157-1.00647-.80927-1.22167-1.20509l.002.002c.49812.2914.91722.70661 1.21179 1.1991l.007.004"/></g><g fill="#232021"><path d="M42.69307.76316l-.008 5.67302h.56057l.005-4.6863 3.75073 4.6803.41875.008-.005-5.67478-.56868-.003.005 3.7592-2.9965-3.75638zM10.62751.76591v5.66244c.87595-.003 1.79211.0264 2.67899-.043 2.02142-.18627 2.29835-2.4959.49319-3.0032 1.65699-.81104 1.29893-2.59468-1.1049-2.61338zm1.09361.33443l.92498.002c1.53282.0191 1.40441 1.96991.1076 2.0888l-1.03258-.006zm.0123 2.48003l1.04951-.004c1.39418-.008 1.73637 2.42323-.13688 2.47685h-.91263V3.5806M5.46056 6.43032L7.94905.75448l2.48356 5.67584h-1.0608l-.67099-1.53317H6.63637l-.67134 1.53141zm1.33456-1.905h1.73602l-.86537-1.9699zM31.40348.62812c.77929-.0589 1.89195.63923 1.63548 1.01071-.0286.0434-.0808.0705-.14252.0677-.12665-.0243-.20038-.19967-.28011-.27799-.32667-.32279-.88124-.53093-1.41217-.2688-.19685.096-.40464.29632-.46884.51998-.11853.40111.0212.70026.30127.97543.77611.75953 2.17593.37148 2.35091 1.8729.0699.61418-.18238 1.04598-.46637 1.3716-.75248.86783-2.48285.77082-3.12102-.0995-.127-.17215-.0254-.35665.16651-.3048.11006.0353.17533.13547.25329.2018.63888.55562 1.88136.64205 2.0888-.38489.26705-1.31233-1.26154-1.34443-1.96991-1.81645-1.40088-.9331-.55281-2.74849 1.06468-2.86773m-26.67053.63599c.0864.0536.61524.37712.42616.54434-.019.0162-.0667.0377-.10831.0325-.17744-.0194-.32526-.25329-.4572-.34255-.64981-.44167-1.59032-.6304-2.41758-.24235-1.68663.79233-1.25095 3.79271.10795 4.6355.77011.48048 1.73602.19967 2.34103-.23178.18133-.12135.64523-.73272.76165-.68686.21166.0864-.21626.5387-.26529.59267-1.03188 1.17228-2.75943 1.21814-4.07494.26141-1.31233-.9592-1.42839-3.31294-.13158-4.37903 1.25871-1.0488 2.7753-.92252 3.81811-.1838"/><path d="M15.32454 6.43307h3.40184V6.0616H16.4432V.75723h-1.11866zM19.09796.75762v5.67584h3.49003V6.062l-2.38196-.003V3.60613l2.20169-.002V3.2242h-2.20169V1.1414h2.38196V.75827zm3.80305.00554h1.09326l1.55575 3.78672 1.55434-3.7839.51505-.003-2.35761 5.71817zm5.19285 5.67024h1.06221V.7632h-1.06221zm5.83494-.00318h1.06151V.76037H33.9288z"/></g></svg>