<?xml version="1.0" encoding="UTF-8" standalone="no"?>
<svg
   width="1000"
   height="116.01267"
   viewBox="0 0 999.99992 116.01268"
   version="1.1"
   id="svg65"
   sodipodi:docname="And Just Like That....svg"
   inkscape:version="1.1.1 (3bf5ae0d25, 2021-09-20)"
   xmlns:inkscape="http://www.inkscape.org/namespaces/inkscape"
   xmlns:sodipodi="http://sodipodi.sourceforge.net/DTD/sodipodi-0.dtd"
   xmlns:xlink="http://www.w3.org/1999/xlink"
   xmlns="http://www.w3.org/2000/svg"
   xmlns:svg="http://www.w3.org/2000/svg"
   xmlns:rdf="http://www.w3.org/1999/02/22-rdf-syntax-ns#"
   xmlns:cc="http://creativecommons.org/ns#"
   xmlns:dc="http://purl.org/dc/elements/1.1/">
  <metadata
     id="metadata71">
    <rdf:RDF>
      <cc:Work
         rdf:about="">
        <dc:format>image/svg+xml</dc:format>
        <dc:type
           rdf:resource="http://purl.org/dc/dcmitype/StillImage" />
      </cc:Work>
    </rdf:RDF>
  </metadata>
  <defs
     id="defs69">
    <linearGradient
       inkscape:collect="always"
       id="linearGradient8352">
      <stop
         style="stop-color:#9f6c39;stop-opacity:1"
         offset="0"
         id="stop8348" />
      <stop
         style="stop-color:#c6ad68;stop-opacity:1"
         offset="1"
         id="stop8350" />
    </linearGradient>
    <filter
       inkscape:label="Blur Double"
       inkscape:menu="Blurs"
       inkscape:menu-tooltip="Overlays two copies with different blur amounts and modifiable blend and composite"
       style="color-interpolation-filters:sRGB"
       id="filter1012"
       x="-1.7151795e-05"
       width="1.0000343"
       y="-0.00011956386"
       height="1.0002391">
      <feGaussianBlur
         stdDeviation="0.007318099"
         result="fbSourceGraphic"
         id="feGaussianBlur1004" />
      <feGaussianBlur
         stdDeviation="0.01"
         in="SourceGraphic"
         result="result1"
         id="feGaussianBlur1006" />
      <feComposite
         in2="result1"
         operator="arithmetic"
         in="fbSourceGraphic"
         k2="0.5"
         k3="0.5"
         result="result2"
         id="feComposite1008"
         k1="0"
         k4="0" />
      <feBlend
         in2="fbSourceGraphic"
         mode="normal"
         result="result3"
         id="feBlend1010" />
    </filter>
    <filter
       inkscape:label="Cross Blur"
       inkscape:menu="Blurs"
       inkscape:menu-tooltip="Overlays two copies with different blur amounts and modifiable blend and composite"
       style="color-interpolation-filters:sRGB"
       id="filter1012-3"
       x="-0.027286947"
       width="1.0545739"
       y="-0.19021523"
       height="1.3804305">
      <feGaussianBlur
         stdDeviation="11.64243"
         result="fbSourceGraphic"
         id="feGaussianBlur1004-2" />
      <feGaussianBlur
         stdDeviation="0.01"
         in="SourceGraphic"
         result="result1"
         id="feGaussianBlur1006-0" />
      <feComposite
         in2="result1"
         operator="arithmetic"
         in="fbSourceGraphic"
         k2="0.5"
         k3="0.5"
         result="result2"
         id="feComposite1008-6"
         k1="0"
         k4="0" />
      <feBlend
         in2="fbSourceGraphic"
         mode="normal"
         result="fbSourceGraphic"
         id="feBlend1010-7" />
      <feColorMatrix
         result="fbSourceGraphicAlpha"
         in="fbSourceGraphic"
         values="0 0 0 -1 0 0 0 0 -1 0 0 0 0 -1 0 0 0 0 1 0"
         id="feColorMatrix1461" />
      <feColorMatrix
         id="feColorMatrix1463"
         in="fbSourceGraphic"
         values="1 0 0 0 0 0 1 0 0 0 0 0 1 0 0 -0.2125 -0.7154 -0.0721 1 0 "
         result="colormatrix" />
      <feComposite
         in2="colormatrix"
         id="feComposite1465"
         in="fbSourceGraphic"
         operator="arithmetic"
         k2="1"
         k3="2.06587"
         k4="0"
         result="composite"
         k1="0" />
      <feGaussianBlur
         id="feGaussianBlur1467"
         stdDeviation="7.37159 0.01"
         result="blur1" />
      <feGaussianBlur
         id="feGaussianBlur1469"
         in="composite"
         stdDeviation="0.01 13.8953"
         result="blur2" />
      <feBlend
         in2="blur1"
         id="feBlend1471"
         in="blur2"
         mode="screen"
         result="blend" />
    </filter>
    <filter
       inkscape:label="Blur Double"
       inkscape:menu="Blurs"
       inkscape:menu-tooltip="Overlays two copies with different blur amounts and modifiable blend and composite"
       style="color-interpolation-filters:sRGB"
       id="filter1012-32"
       x="-0.008633689"
       width="1.0172673"
       y="-0.060184859"
       height="1.1203697">
      <feGaussianBlur
         stdDeviation="3.5973705"
         result="fbSourceGraphic"
         id="feGaussianBlur1004-3" />
      <feGaussianBlur
         stdDeviation="0.01"
         in="SourceGraphic"
         result="result1"
         id="feGaussianBlur1006-4" />
      <feComposite
         in2="result1"
         operator="arithmetic"
         in="fbSourceGraphic"
         k2="0.5"
         k3="0.5"
         result="result2"
         id="feComposite1008-3"
         k1="0"
         k4="0" />
      <feBlend
         in2="fbSourceGraphic"
         mode="normal"
         result="fbSourceGraphic"
         id="feBlend1010-78" />
      <feColorMatrix
         result="fbSourceGraphicAlpha"
         in="fbSourceGraphic"
         values="0 0 0 -1 0 0 0 0 -1 0 0 0 0 -1 0 0 0 0 1 0"
         id="feColorMatrix925" />
      <feGaussianBlur
         id="feGaussianBlur927"
         stdDeviation="5"
         result="fbSourceGraphic"
         in="fbSourceGraphic" />
      <feGaussianBlur
         id="feGaussianBlur929"
         stdDeviation="0.01"
         in="fbSourceGraphic"
         result="result1" />
      <feComposite
         in2="result1"
         id="feComposite931"
         operator="arithmetic"
         in="fbSourceGraphic"
         k2="0.5"
         k3="0.5"
         result="result2"
         k1="0"
         k4="0" />
      <feBlend
         in2="fbSourceGraphic"
         id="feBlend933"
         mode="normal"
         result="result3" />
    </filter>
    <linearGradient
       inkscape:collect="always"
       xlink:href="#linearGradient8352"
       id="linearGradient8354"
       x1="0"
       y1="-5"
       x2="1"
       y2="94"
       gradientUnits="userSpaceOnUse" />
    <linearGradient
       inkscape:collect="always"
       xlink:href="#linearGradient8352"
       id="linearGradient18129"
       gradientUnits="userSpaceOnUse"
       x1="0"
       y1="-5"
       x2="1"
       y2="94" />
    <linearGradient
       inkscape:collect="always"
       xlink:href="#linearGradient8352"
       id="linearGradient18131"
       gradientUnits="userSpaceOnUse"
       x1="0"
       y1="-5"
       x2="1"
       y2="94" />
    <linearGradient
       inkscape:collect="always"
       xlink:href="#linearGradient8352"
       id="linearGradient18133"
       gradientUnits="userSpaceOnUse"
       x1="0"
       y1="-5"
       x2="1"
       y2="94" />
    <linearGradient
       inkscape:collect="always"
       xlink:href="#linearGradient8352"
       id="linearGradient18135"
       gradientUnits="userSpaceOnUse"
       x1="0"
       y1="-5"
       x2="1"
       y2="94" />
    <linearGradient
       inkscape:collect="always"
       xlink:href="#linearGradient8352"
       id="linearGradient18137"
       gradientUnits="userSpaceOnUse"
       x1="0"
       y1="-5"
       x2="1"
       y2="94" />
    <linearGradient
       inkscape:collect="always"
       xlink:href="#linearGradient8352"
       id="linearGradient18139"
       gradientUnits="userSpaceOnUse"
       x1="0"
       y1="-5"
       x2="1"
       y2="94" />
    <linearGradient
       inkscape:collect="always"
       xlink:href="#linearGradient8352"
       id="linearGradient18141"
       gradientUnits="userSpaceOnUse"
       x1="0"
       y1="-5"
       x2="1"
       y2="94" />
    <linearGradient
       inkscape:collect="always"
       xlink:href="#linearGradient8352"
       id="linearGradient18143"
       gradientUnits="userSpaceOnUse"
       x1="0"
       y1="-5"
       x2="1"
       y2="94" />
    <linearGradient
       inkscape:collect="always"
       xlink:href="#linearGradient8352"
       id="linearGradient18145"
       gradientUnits="userSpaceOnUse"
       x1="0"
       y1="-5"
       x2="1"
       y2="94" />
    <linearGradient
       inkscape:collect="always"
       xlink:href="#linearGradient8352"
       id="linearGradient18147"
       gradientUnits="userSpaceOnUse"
       x1="0"
       y1="-5"
       x2="1"
       y2="94" />
    <linearGradient
       inkscape:collect="always"
       xlink:href="#linearGradient8352"
       id="linearGradient18149"
       gradientUnits="userSpaceOnUse"
       x1="0"
       y1="-5"
       x2="1"
       y2="94" />
    <linearGradient
       inkscape:collect="always"
       xlink:href="#linearGradient8352"
       id="linearGradient18151"
       gradientUnits="userSpaceOnUse"
       x1="0"
       y1="-5"
       x2="1"
       y2="94" />
    <linearGradient
       inkscape:collect="always"
       xlink:href="#linearGradient8352"
       id="linearGradient18153"
       gradientUnits="userSpaceOnUse"
       x1="0"
       y1="-5"
       x2="1"
       y2="94" />
    <linearGradient
       inkscape:collect="always"
       xlink:href="#linearGradient8352"
       id="linearGradient18155"
       gradientUnits="userSpaceOnUse"
       x1="0"
       y1="-5"
       x2="1"
       y2="94" />
    <linearGradient
       inkscape:collect="always"
       xlink:href="#linearGradient8352"
       id="linearGradient18157"
       gradientUnits="userSpaceOnUse"
       x1="0"
       y1="-5"
       x2="1"
       y2="94" />
    <linearGradient
       inkscape:collect="always"
       xlink:href="#linearGradient8352"
       id="linearGradient18159"
       gradientUnits="userSpaceOnUse"
       x1="0"
       y1="-5"
       x2="1"
       y2="94" />
    <linearGradient
       inkscape:collect="always"
       xlink:href="#linearGradient8352"
       id="linearGradient18161"
       gradientUnits="userSpaceOnUse"
       x1="0"
       y1="-5"
       x2="1"
       y2="94" />
    <linearGradient
       inkscape:collect="always"
       xlink:href="#linearGradient8352"
       id="linearGradient18163"
       gradientUnits="userSpaceOnUse"
       x1="0"
       y1="-5"
       x2="1"
       y2="94" />
  </defs>
  <sodipodi:namedview
     pagecolor="#ffffff"
     bordercolor="#666666"
     borderopacity="1"
     objecttolerance="10"
     gridtolerance="10"
     guidetolerance="10"
     inkscape:pageopacity="0"
     inkscape:pageshadow="2"
     inkscape:window-width="1366"
     inkscape:window-height="705"
     id="namedview67"
     showgrid="false"
     inkscape:zoom="0.5"
     inkscape:cx="555"
     inkscape:cy="75"
     inkscape:window-x="-8"
     inkscape:window-y="-8"
     inkscape:window-maximized="1"
     inkscape:current-layer="svg65"
     inkscape:document-rotation="0"
     showguides="false"
     inkscape:pagecheckerboard="0">
    <inkscape:grid
       type="xygrid"
       id="grid870"
       originx="-165.06668"
       originy="-49.558639" />
  </sodipodi:namedview>
  <!-- Generated by Pixelmator Pro 2.0.3 -->
  <g
     id="g8316"
     style="fill:url(#linearGradient8354);fill-opacity:1">
    <path
       d="m 72.104083,75.922226 c 0.734258,0 1.174812,0.293697 1.468515,1.02796 l 11.74812,31.132504 c 0.734258,1.76222 -0.293703,3.08389 -1.321663,3.37759 -1.468515,0.14685 -2.055921,0.5874 -2.055921,1.32166 0,0.88112 0.734257,1.02796 3.377584,1.17481 11.748119,0.29371 23.496242,0.29371 28.782892,0.29371 5.43351,0 6.75517,-0.29371 6.75517,-1.46852 0,-0.88111 -0.73426,-1.17481 -1.90907,-1.17481 -1.76222,0 -3.96499,-0.14685 -6.16777,-0.58741 -3.08387,-0.73425 -7.34257,-2.79017 -12.922923,-16.006799 C 90.460519,72.691489 66.964281,12.77608 63.439845,4.6992479 61.97133,1.3216635 60.94337,0 59.768558,0 58.446894,0 57.418934,1.6153665 55.656716,5.8740598 L 18.796991,98.096799 c -2.937029,7.342571 -5.727208,12.335521 -12.4823769,13.216631 -1.1748118,0.14685 -2.9370298,0.2937 -4.2586932,0.2937 C 0.88110893,111.60713 0,111.90083 0,112.78194 c 0,1.17481 0.88110893,1.46852 2.7901784,1.46852 7.6362776,0 15.7131096,-0.44056 17.3284766,-0.44056 4.552396,0 10.867011,0.44056 15.566257,0.44056 1.615367,0 2.496476,-0.29371 2.496476,-1.46852 0,-0.88111 -0.440555,-1.17481 -2.202773,-1.17481 -0.587406,0 -1.468514,0 -2.202772,0 -4.552395,0 -5.874059,-1.90906 -5.874059,-4.5524 0,-1.76221 0.734258,-5.28665 2.202773,-8.957931 l 7.929979,-20.999765 c 0.293703,-0.881111 0.587406,-1.174808 1.321664,-1.174808 z M 42.29323,68.579651 c -0.587406,0 -0.734258,-0.440555 -0.587406,-1.027959 L 55.216161,31.42622 c 0.587406,-1.762218 1.174812,-1.321663 1.615367,0 l 13.216634,36.272321 c 0.146852,0.440555 0,0.88111 -0.734257,0.88111 z"
       id="path5373"
       style="font-weight:600;font-size:148.963px;line-height:1.25;font-family:'Trajan Pro 3';-inkscape-font-specification:'Trajan Pro 3 Semi-Bold';letter-spacing:7.04px;fill:url(#linearGradient18129);fill-opacity:1;stroke-width:3.67129" />
    <path
       d="m 139.54694,92.663295 c -0.14685,12.776075 -0.73426,17.034775 -4.5524,18.209575 -2.05592,0.58741 -4.69924,0.73426 -6.60831,0.73426 -1.46852,0 -2.34963,0.2937 -2.34963,1.17481 0,1.32167 1.32167,1.46852 3.23074,1.46852 7.63627,0 14.53829,-0.44056 15.85996,-0.44056 2.79018,0 8.66424,0.44056 18.20958,0.44056 2.05592,0 3.37759,-0.29371 3.37759,-1.46852 0,-0.88111 -0.88111,-1.17481 -2.49648,-1.17481 -2.34962,0 -5.13981,-0.14685 -7.63628,-1.02796 -2.93703,-1.02796 -4.8461,-4.8461 -5.1398,-16.300512 l -1.61536,-62.11818 c 2.64332,2.790178 19.38439,21.587166 35.39121,37.447133 15.27255,15.125705 34.06954,34.363249 43.32118,43.174329 1.61537,1.61537 3.37759,3.23073 4.99295,3.23073 1.32167,0 1.90907,-1.32165 1.90907,-4.55239 0.58741,-30.98566 1.02796,-61.677626 1.61538,-92.663289 0.14684,-8.223683 1.32165,-11.3075647 5.4335,-12.4823767 1.76221,-0.4405545 2.93703,-0.4405545 4.40554,-0.4405545 1.76222,0 2.64333,-0.4405545 2.64333,-1.3216634 0,-1.174812 -1.46852,-1.3216635 -3.37759,-1.3216635 -7.19572,0 -12.77608,0.4405545 -14.39144,0.4405545 -3.08389,0 -10.13276,-0.4405545 -17.76904,-0.4405545 -2.20277,0 -3.81813,0.1468515 -3.81813,1.3216635 0,0.8811089 0.5874,1.3216634 2.34962,1.3216634 2.05593,0 5.58036,0 7.78313,0.881109 3.52444,1.468515 4.8461,4.2586932 4.99296,13.2166342 l 1.46851,66.670574 C 224.28025,84.292761 203.72105,62.411885 193.73514,52.425987 172.29482,31.132517 149.9734,7.1957233 148.21118,5.2866538 145.7147,2.6433269 144.39303,0.73425748 142.77767,0.73425748 c -1.46851,0 -1.90907,2.05592092 -1.90907,4.99295082 -0.2937,19.5312487 -0.88111,55.8035657 -1.32166,86.9360867 z"
       id="path5375"
       style="font-weight:600;font-size:148.963px;line-height:1.25;font-family:'Trajan Pro 3';-inkscape-font-specification:'Trajan Pro 3 Semi-Bold';letter-spacing:7.04px;fill:url(#linearGradient18131);fill-opacity:1;stroke-width:3.67129" />
    <path
       d="m 269.51007,71.66353 c 0,13.510332 0,25.111603 -0.73425,31.27937 -0.58741,4.25868 -1.32167,7.48942 -4.2587,8.07682 -1.32166,0.29371 -3.08388,0.58741 -5.28665,0.58741 -1.76222,0 -2.34962,0.44055 -2.34962,1.17481 0,1.02796 1.02796,1.46852 2.93703,1.46852 2.93703,0 6.75516,-0.29371 10.13274,-0.29371 3.52445,-0.14685 6.75518,-0.14685 8.37054,-0.14685 3.67129,0 8.81109,0.44056 14.39145,0.88112 5.58035,0.44055 11.60127,0.88111 16.88792,0.88111 27.16753,0 42.44008,-10.42647 49.19525,-17.328482 8.22369,-8.370535 16.00681,-22.46828 16.00681,-40.971561 0,-17.475331 -6.90202,-29.664006 -14.24459,-37.300284 C 344.55119,3.2307329 320.02699,3.2307329 301.67055,3.2307329 c -8.81109,0 -18.06273,0.4405545 -22.61513,0.4405545 -4.11184,0 -13.36348,-0.4405545 -21.14661,-0.4405545 -2.20278,0 -3.23074,0.293703 -3.23074,1.3216635 0,1.0279604 0.88111,1.3216634 2.49648,1.3216634 2.05592,0 4.5524,0.1468515 5.72721,0.4405545 4.8461,1.0279605 6.02091,3.3775844 6.31461,8.3705357 0.2937,4.699247 0.2937,8.811089 0.2937,31.132515 z m 18.35644,-28.195491 c 0,-11.601264 0,-24.377345 0.14685,-29.370295 0,-1.615367 0.44056,-2.349624 1.76222,-2.93703 1.17481,-0.587406 6.60831,-1.027961 9.54534,-1.027961 11.45443,0 28.1955,1.762218 41.70583,14.68515 6.31461,6.020911 14.09774,18.062732 14.09774,36.712871 0,15.125705 -2.93703,28.489188 -12.33552,36.566025 -8.81109,7.636271 -18.79699,10.573301 -33.77585,10.573301 -11.60127,0 -17.32847,-3.08388 -19.23754,-5.87406 -1.17482,-1.61537 -1.46851,-7.489422 -1.61536,-11.160705 -0.14686,-2.790181 -0.29371,-14.097745 -0.29371,-29.664006 z"
       style="font-weight:600;font-size:148.963px;line-height:1.25;font-family:'Trajan Pro 3';-inkscape-font-specification:'Trajan Pro 3 Semi-Bold';letter-spacing:2.56px;fill:url(#linearGradient18133);fill-opacity:1;stroke-width:3.67129"
       id="path5377" />
    <path
       d="m 602.13308,11.454417 c 8.66424,0.146851 14.68515,0.293703 18.50329,0.440554 13.06978,0.293703 17.03478,4.405545 17.32847,8.223684 0,0.440554 0.14685,1.174812 0.14685,1.615366 0.14686,2.202773 0.44056,2.93703 1.61537,2.93703 0.88112,0 1.17481,-0.881109 1.32166,-2.349624 0,-3.818139 0.44056,-13.9508917 0.44056,-17.0347732 0,-2.2027724 -0.14685,-3.0838814 -1.17481,-3.0838814 -0.58741,0 -1.76222,0.293703 -3.96499,0.7342575 -2.20278,0.293703 -5.43351,0.7342575 -10.13276,0.7342575 h -58.15319 c -4.84609,0 -10.42645,-0.293703 -14.68514,-0.7342575 -3.67129,-0.293703 -5.13981,-1.7622179 -6.31462,-1.7622179 -0.88111,0 -1.32166,0.8811089 -1.76222,2.7901784 -0.29371,1.174812 -3.08388,14.5382976 -3.08388,16.8879216 0,1.615367 0.2937,2.349624 1.32166,2.349624 0.88111,0 1.32167,-0.587406 1.61537,-1.762218 0.2937,-1.174812 1.02796,-2.93703 2.49648,-5.139802 2.20277,-3.230733 5.72721,-3.96499 14.24459,-4.258693 7.19573,-0.146852 16.30051,-0.440555 21.88088,-0.587406 V 71.66353 c 0,13.510332 0,25.111603 -0.73426,31.27937 -0.44056,4.25868 -1.32167,7.48942 -4.2587,8.07682 -1.32166,0.29371 -3.08388,0.58741 -5.28665,0.58741 -1.76222,0 -2.34962,0.44055 -2.34962,1.17481 0,1.02796 1.02796,1.46852 2.93703,1.46852 5.87406,0 15.1257,-0.44056 18.50329,-0.44056 4.11184,0 13.36348,0.44056 23.05568,0.44056 1.61536,0 2.79017,-0.44056 2.79017,-1.46852 0,-0.73426 -0.73425,-1.17481 -2.34961,-1.17481 -2.20278,0 -5.43352,-0.2937 -7.48944,-0.58741 -4.40554,-0.5874 -5.28665,-3.81814 -5.7272,-7.92998 -0.73426,-6.314607 -0.73426,-17.915878 -0.73426,-31.42621 z"
       id="path5379"
       style="font-weight:600;font-size:148.963px;line-height:1.25;font-family:'Trajan Pro 3';-inkscape-font-specification:'Trajan Pro 3 Semi-Bold';letter-spacing:7.04px;fill:url(#linearGradient18135);fill-opacity:1;stroke-width:3.67129" />
    <path
       d="m 678.62068,49.929513 c -0.44055,0 -0.88111,-0.293707 -0.88111,-1.02797 v -3.083878 c 0,-22.321426 0,-26.433268 0.29371,-31.132515 0.2937,-5.1398028 1.46851,-7.9299812 5.4335,-8.5173872 1.17481,-0.1468515 3.08388,-0.293703 4.25869,-0.293703 1.32167,0 2.64333,-0.293703 2.64333,-1.3216634 0,-1.0279605 -1.02796,-1.3216635 -3.08388,-1.3216635 -5.72721,0 -14.97885,0.4405545 -18.50329,0.4405545 -3.96499,0 -13.21663,-0.4405545 -21.14661,-0.4405545 -2.05593,0 -3.08389,0.293703 -3.08389,1.3216635 0,1.0279604 0.88111,1.3216634 2.49648,1.3216634 2.05592,0 4.5524,0.1468515 5.72721,0.4405545 4.8461,1.0279605 6.02091,3.3775844 6.31461,8.3705357 0.29371,4.699247 0.29371,8.811089 0.29371,31.132515 V 71.66353 c 0,13.510332 0,25.111603 -0.73426,31.27937 -0.58741,4.25868 -1.32167,7.48942 -4.2587,8.07682 -1.32166,0.29371 -3.08388,0.58741 -5.28665,0.58741 -1.76222,0 -2.34962,0.44055 -2.34962,1.17481 0,1.02796 1.02796,1.46852 2.93703,1.46852 5.87406,0 15.1257,-0.44056 18.50329,-0.44056 4.11184,0 13.36348,0.44056 22.90882,0.44056 1.76223,0 2.93703,-0.44056 2.93703,-1.46852 0,-0.73426 -0.73425,-1.17481 -2.34961,-1.17481 -2.20278,0 -5.43352,-0.2937 -7.48943,-0.58741 -4.40555,-0.5874 -5.28666,-3.81814 -5.72721,-7.92998 -0.73426,-6.314607 -0.73426,-17.915878 -0.73426,-31.42621 V 58.740602 c 0,-0.734262 0.44056,-0.881111 0.88111,-0.881111 h 56.09727 c 0.44055,0 0.88111,0.293697 0.88111,0.881111 V 71.66353 c 0,13.510332 0,25.111603 -0.73425,31.27937 -0.58742,4.25868 -1.32167,7.48942 -4.2587,8.07682 -1.32167,0.29371 -3.08388,0.58741 -5.28666,0.58741 -1.76221,0 -2.34962,0.44055 -2.34962,1.17481 0,1.02796 1.02797,1.46852 3.08389,1.46852 5.7272,0 14.97884,-0.44056 18.35643,-0.44056 4.11185,0 13.36348,0.44056 22.90883,0.44056 1.76223,0 2.93703,-0.44056 2.93703,-1.46852 0,-0.73426 -0.73426,-1.17481 -2.34962,-1.17481 -2.20277,0 -5.43351,-0.2937 -7.48943,-0.58741 -4.40554,-0.5874 -5.28665,-3.81814 -5.72721,-7.92998 C 753.9555,96.775133 753.9555,85.173862 753.9555,71.66353 V 45.817665 c 0,-22.321426 0,-26.433268 0.2937,-31.132515 0.2937,-5.1398028 1.46851,-7.6362782 5.4335,-8.3705357 1.76222,-0.293703 3.08389,-0.4405545 4.2587,-0.4405545 1.76222,0 2.64332,-0.293703 2.64332,-1.3216634 0,-1.0279605 -1.02796,-1.3216635 -3.08388,-1.3216635 -5.72721,0 -14.97884,0.4405545 -18.50329,0.4405545 -3.96499,0 -13.21663,-0.4405545 -21.14661,-0.4405545 -2.05592,0 -3.08388,0.293703 -3.08388,1.3216635 0,1.0279604 0.88111,1.3216634 2.49648,1.3216634 2.05591,0 4.55239,0.1468515 5.72721,0.4405545 4.8461,1.0279605 6.0209,3.3775844 6.31461,8.3705357 0.2937,4.699247 0.2937,8.811089 0.2937,31.132515 v 3.083878 c 0,0.734263 -0.44056,1.02797 -0.88111,1.02797 z"
       id="path5381"
       style="font-weight:600;font-size:148.963px;line-height:1.25;font-family:'Trajan Pro 3';-inkscape-font-specification:'Trajan Pro 3 Semi-Bold';letter-spacing:7.04px;fill:url(#linearGradient18137);fill-opacity:1;stroke-width:3.67129" />
    <path
       d="m 843.59459,75.922226 c 0.73425,0 1.1748,0.293697 1.46851,1.02796 l 11.74812,31.132504 c 0.73425,1.76222 -0.29371,3.08389 -1.32167,3.37759 -1.46851,0.14685 -2.05592,0.5874 -2.05592,1.32166 0,0.88112 0.73426,1.02796 3.37759,1.17481 11.74812,0.29371 23.49624,0.29371 28.78289,0.29371 5.4335,0 6.75517,-0.29371 6.75517,-1.46852 0,-0.88111 -0.73426,-1.17481 -1.90907,-1.17481 -1.76222,0 -3.96499,-0.14685 -6.16776,-0.58741 -3.08389,-0.73425 -7.34258,-2.79017 -12.92294,-16.006799 C 861.95102,72.691489 838.45478,12.77608 834.93034,4.6992479 833.46183,1.3216635 832.43387,0 831.25905,0 829.9374,0 828.90944,1.6153665 827.14721,5.8740598 L 790.28749,98.096799 c -2.93703,7.342571 -5.72721,12.335521 -12.48238,13.216631 -1.17481,0.14685 -2.93703,0.2937 -4.25869,0.2937 -1.17482,0 -2.05593,0.2937 -2.05593,1.17481 0,1.17481 0.88111,1.46852 2.79019,1.46852 7.63628,0 15.7131,-0.44056 17.32847,-0.44056 4.5524,0 10.86702,0.44056 15.56626,0.44056 1.61537,0 2.49647,-0.29371 2.49647,-1.46852 0,-0.88111 -0.44055,-1.17481 -2.20276,-1.17481 -0.58741,0 -1.46852,0 -2.20278,0 -4.5524,0 -5.87406,-1.90906 -5.87406,-4.5524 0,-1.76221 0.73426,-5.28665 2.20278,-8.957931 l 7.92997,-20.999765 c 0.29371,-0.881111 0.58741,-1.174808 1.32167,-1.174808 z m -29.81086,-7.342575 c -0.5874,0 -0.73426,-0.440555 -0.5874,-1.027959 L 826.70666,31.42622 c 0.5874,-1.762218 1.17482,-1.321663 1.61536,0 l 13.21664,36.272321 c 0.14685,0.440555 0,0.88111 -0.73426,0.88111 z"
       id="path5383"
       style="font-weight:600;font-size:148.963px;line-height:1.25;font-family:'Trajan Pro 3';-inkscape-font-specification:'Trajan Pro 3 Semi-Bold';letter-spacing:7.04px;fill:url(#linearGradient18139);fill-opacity:1;stroke-width:3.67129" />
    <path
       d="m 926.23073,11.454417 c 8.66424,0.146851 14.68511,0.293703 18.50331,0.440554 13.06978,0.293703 17.03477,4.405545 17.32844,8.223684 0,0.440554 0.14689,1.174812 0.14689,1.615366 0.14679,2.202773 0.44057,2.93703 1.61538,2.93703 0.88113,0 1.1748,-0.881109 1.32159,-2.349624 0,-3.818139 0.44057,-13.9508917 0.44057,-17.0347732 0,-2.2027724 -0.14679,-3.0838814 -1.17481,-3.0838814 -0.58735,0 -1.76216,0.293703 -3.96499,0.7342575 -2.20273,0.293703 -5.43347,0.7342575 -10.13271,0.7342575 h -58.15321 c -4.8461,0 -10.42646,-0.293703 -14.68515,-0.7342575 -3.67129,-0.293703 -5.13981,-1.7622179 -6.31461,-1.7622179 -0.88112,0 -1.32167,0.8811089 -1.76223,2.7901784 -0.2937,1.174812 -3.08387,14.5382976 -3.08387,16.8879216 0,1.615367 0.29369,2.349624 1.32165,2.349624 0.88111,0 1.32167,-0.587406 1.61538,-1.762218 0.29369,-1.174812 1.02795,-2.93703 2.49647,-5.139802 2.20277,-3.230733 5.72721,-3.96499 14.24459,-4.258693 7.19573,-0.146852 16.30052,-0.440555 21.88088,-0.587406 V 71.66353 c 0,13.510332 0,25.111603 -0.73426,31.27937 -0.44056,4.25868 -1.32167,7.48942 -4.2587,8.07682 -1.32166,0.29371 -3.08388,0.58741 -5.28665,0.58741 -1.76222,0 -2.34962,0.44055 -2.34962,1.17481 0,1.02796 1.02796,1.46852 2.93703,1.46852 5.87406,0 15.1257,-0.44056 18.50329,-0.44056 4.11184,0 13.36348,0.44056 23.05564,0.44056 1.61538,0 2.79018,-0.44056 2.79018,-1.46852 0,-0.73426 -0.73424,-1.17481 -2.34961,-1.17481 -2.20273,0 -5.43349,-0.2937 -7.4894,-0.58741 -4.40555,-0.5874 -5.28666,-3.81814 -5.72721,-7.92998 -0.73426,-6.314607 -0.73426,-17.915878 -0.73426,-31.42621 z"
       id="path5385"
       style="font-weight:600;font-size:148.963px;line-height:1.25;font-family:'Trajan Pro 3';-inkscape-font-specification:'Trajan Pro 3 Semi-Bold';letter-spacing:7.04px;fill:url(#linearGradient18141);fill-opacity:1;stroke-width:3.67129" />
    <path
       d="m 956.22446,114.83786 c 2.48673,0 4.44994,-1.96321 4.44994,-4.58081 0,-2.55217 -1.8978,-4.3845 -4.38448,-4.3845 -3.0103,0 -4.44995,2.48673 -4.44995,4.51538 0,2.02865 1.43965,4.44993 4.38449,4.44993 z"
       id="path5387"
       style="font-weight:600;font-size:148.963px;line-height:1.25;font-family:'Trajan Pro 3';-inkscape-font-specification:'Trajan Pro 3 Semi-Bold';letter-spacing:7.04px;fill:url(#linearGradient18143);fill-opacity:1;stroke-width:1.63601" />
    <path
       d="m 975.14768,114.83786 c 2.48673,0 4.44995,-1.96321 4.44995,-4.58081 0,-2.55217 -1.89777,-4.3845 -4.38449,-4.3845 -3.01026,0 -4.44995,2.48673 -4.44995,4.51538 0,2.02865 1.43969,4.44993 4.38449,4.44993 z"
       id="path5389"
       style="font-weight:600;font-size:148.963px;line-height:1.25;font-family:'Trajan Pro 3';-inkscape-font-specification:'Trajan Pro 3 Semi-Bold';letter-spacing:7.04px;fill:url(#linearGradient18145);fill-opacity:1;stroke-width:1.63601" />
    <path
       d="m 995.55008,114.83786 c 2.48675,0 4.44992,-1.96321 4.44992,-4.58081 0,-2.55217 -1.89781,-4.3845 -4.38456,-4.3845 -3.01021,0 -4.44991,2.48673 -4.44991,4.51538 0,2.02865 1.4397,4.44993 4.38455,4.44993 z"
       id="path5391"
       style="font-weight:600;font-size:148.963px;line-height:1.25;font-family:'Trajan Pro 3';-inkscape-font-specification:'Trajan Pro 3 Semi-Bold';letter-spacing:7.04px;fill:url(#linearGradient18147);fill-opacity:1;stroke-width:1.63601" />
    <path
       d="m 405.73769,17.789001 c 0,-7.279237 0,-8.6201493 0.0958,-10.1526197 0.0957,-1.6761406 0.4789,-2.4902657 1.77192,-2.7297138 0.57467,-0.095783 0.86201,-0.1436693 1.3888,-0.1436693 0.57467,0 0.86201,-0.095783 0.86201,-0.4310077 0,-0.335228 -0.33523,-0.4310078 -1.00568,-0.4310078 -1.8677,0 -4.88475,0.1436693 -6.03411,0.1436693 -1.24512,0 -4.26218,-0.1436693 -6.80034,-0.1436693 -0.71834,0 -1.05357,0.095783 -1.05357,0.4310078 0,0.3352279 0.28734,0.4310077 0.81413,0.4310077 0.67046,0 1.48458,0.047891 1.8677,0.1436693 1.58036,0.3352279 1.96348,1.1014626 2.05925,2.7297138 0.0958,1.5324704 0.0958,2.8733827 0.0958,10.1526197 v 13.74435 c 0,9.386389 0.0479,14.17536 -3.59172,17.86286 -0.9578,0.957798 -1.67614,1.484583 -2.29871,1.819813 -0.81412,0.431003 -1.05357,0.622569 -1.05357,0.862016 0,0.239447 0.19155,0.383121 0.38311,0.383121 0.23945,0 0.62257,-0.09582 0.9578,-0.287338 1.00568,-0.478904 1.77192,-0.862016 2.39448,-1.245137 4.59741,-2.825494 7.13557,-6.129882 8.14125,-9.051158 0.86202,-2.442372 1.00569,-5.890433 1.00569,-15.228929 z"
       id="path8061"
       style="font-weight:600;font-size:48.5783px;line-height:1.25;font-family:'Trajan Pro 3';-inkscape-font-specification:'Trajan Pro 3 Semi-Bold';fill:url(#linearGradient18149);fill-opacity:1;stroke-width:1.19725" />
    <path
       d="m 426.66839,21.13253 c 0,-8.951001 0,-10.599871 0.10631,-12.4842917 0.10632,-2.0610857 0.53133,-3.0621844 1.96591,-3.3566248 0.6376,-0.1177805 0.95638,-0.1766648 1.54084,-0.1766648 0.53132,0 0.85011,-0.1177805 0.85011,-0.5299935 0,-0.4122169 -0.37192,-0.5299945 -1.16891,-0.5299945 -1.91277,0 -5.26011,0.1766649 -6.53529,0.1766649 -1.59398,0 -4.94133,-0.1766649 -7.75735,-0.1766649 -0.79698,0 -1.16891,0.1177805 -1.16891,0.5299945 0,0.412217 0.31879,0.5299935 0.90325,0.5299935 0.74385,0 1.64711,0.058893 2.07217,0.1766648 1.75337,0.412217 2.17843,1.3544264 2.28468,3.3566248 0.10632,1.8844207 0.10632,3.5332907 0.10632,12.4842917 v 8.597672 c 0,8.538785 2.01904,12.896514 4.72879,15.605365 3.87867,3.886626 8.97939,4.063286 11.79541,4.063286 3.45361,0 7.27916,-0.647766 11.05157,-4.239946 4.46312,-4.239956 5.04758,-11.188756 5.04758,-17.725343 V 21.13253 c 0,-8.951001 0,-10.599871 0.1062,-12.4842917 0.10632,-2.0610857 0.53133,-3.0621844 1.96592,-3.3566248 0.63758,-0.1177805 0.95637,-0.1766648 1.54083,-0.1766648 0.63759,0 0.95639,-0.1177805 0.95639,-0.5299935 0,-0.4122169 -0.37193,-0.5299945 -1.11578,-0.5299945 -2.07217,0 -5.41951,0.1766649 -6.0571,0.1766649 -0.0532,0 -3.40048,-0.1766649 -6.11024,-0.1766649 -0.74385,0 -1.11579,0.1177805 -1.11579,0.5299945 0,0.412217 0.3188,0.5299935 0.90325,0.5299935 0.58446,0 1.48772,0.058893 1.91277,0.1766648 1.75338,0.412217 2.17843,1.3544264 2.2847,3.3566248 0.10621,1.8844207 0.10621,3.5332907 0.10621,12.4842917 v 7.361021 c 0,6.065482 -0.15939,11.365421 -3.08168,14.604261 -2.1253,2.355531 -4.99446,3.179967 -7.33229,3.179967 -1.80649,0 -4.25059,-0.235553 -6.64155,-2.414414 -2.6035,-2.355531 -4.14434,-5.947707 -4.14434,-14.486492 z"
       id="path8063"
       style="font-weight:600;font-size:48.5783px;line-height:1.25;font-family:'Trajan Pro 3';-inkscape-font-specification:'Trajan Pro 3 Semi-Bold';fill:url(#linearGradient18151);fill-opacity:1;stroke-width:1.39841" />
    <path
       d="m 473.16503,49.398853 c 2.81601,0 5.79143,-0.52999 8.44806,-2.414415 3.82554,-2.767744 4.99445,-6.83103 4.99445,-10.246544 0,-5.594376 -2.28469,-9.657659 -8.71373,-15.016482 l -1.4877,-1.236652 c -4.41,-3.709955 -5.63204,-5.77104 -5.63204,-8.479896 0,-3.5332895 2.39096,-6.0654814 6.32276,-6.0654814 3.45362,0 4.99445,1.7666453 5.79144,2.8855205 1.11579,1.5310909 1.38145,3.3566259 1.38145,3.8866179 0,0.706659 0.15939,1.059988 0.53132,1.059988 0.42507,0 0.58445,-0.471106 0.58445,-1.766645 0,-4.5932775 0.21255,-6.3010335 0.21255,-7.0665801 0,-0.412217 -0.26566,-0.5888818 -0.74387,-0.7066583 -0.58445,-0.1766649 -1.27517,-0.3533297 -2.17842,-0.5299935 -1.27519,-0.2355531 -2.86916,-0.4711052 -4.88819,-0.4711052 -7.38543,0 -12.2736,4.6521658 -12.2736,11.1298641 0,4.769942 2.01903,8.892113 7.8636,13.956496 l 2.4441,2.119974 c 4.40999,3.82773 5.20697,6.536586 5.20697,9.422111 0,3.121073 -2.33783,6.713243 -7.11975,6.713243 -3.2942,0 -6.42903,-1.589978 -7.59794,-5.947701 -0.26567,-1.001095 -0.47819,-2.237751 -0.47819,-3.003298 0,-0.471105 -0.0532,-1.001098 -0.53133,-1.001098 -0.42505,0 -0.58446,0.647771 -0.63759,1.531092 -0.0531,0.942209 -0.26567,4.475506 -0.26567,7.714356 0,1.295542 0.15941,1.589978 1.00952,2.002182 2.28471,1.118882 4.67566,1.531105 7.75735,1.531105 z"
       id="path8065"
       style="font-weight:600;font-size:48.5783px;line-height:1.25;font-family:'Trajan Pro 3';-inkscape-font-specification:'Trajan Pro 3 Semi-Bold';fill:url(#linearGradient18153);fill-opacity:1;stroke-width:1.39841" />
    <path
       d="m 517.38937,7.3526982 c 3.13481,0.058893 5.31324,0.1177805 6.69468,0.1766649 4.72879,0.1177804 6.16338,1.7666452 6.26964,3.2977379 0,0.176664 0.0532,0.471105 0.0532,0.64777 0.0532,0.883323 0.15941,1.177763 0.58446,1.177763 0.3188,0 0.42507,-0.35333 0.4782,-0.942211 0,-1.531093 0.15939,-5.5943756 0.15939,-6.8310284 0,-0.8833211 -0.0532,-1.2366508 -0.42506,-1.2366508 -0.21253,0 -0.63758,0.1177805 -1.43458,0.2944414 -0.79697,0.1177805 -1.96589,0.2944404 -3.66613,0.2944404 h -21.04046 c -1.75337,0 -3.77241,-0.1177805 -5.31326,-0.2944404 -1.32832,-0.1177805 -1.85963,-0.7066583 -2.28469,-0.7066583 -0.31879,0 -0.47819,0.3533296 -0.63759,1.1188752 -0.1062,0.4711052 -1.11579,5.8299279 -1.11579,6.7721389 0,0.647771 0.10631,0.942211 0.47821,0.942211 0.31879,0 0.47818,-0.235553 0.58444,-0.706659 0.10621,-0.471104 0.37194,-1.177763 0.90326,-2.0610847 0.79699,-1.29554 2.07216,-1.5899804 5.15384,-1.707757 2.60351,-0.058893 5.89771,-0.1766648 7.91675,-0.2355531 V 31.496848 c 0,5.417711 0,10.069879 -0.26566,12.543177 -0.15941,1.707755 -0.4782,3.003297 -1.54084,3.23885 -0.4782,0.117826 -1.11579,0.235553 -1.91277,0.235553 -0.63759,0 -0.85012,0.17667 -0.85012,0.471106 0,0.412223 0.37191,0.588873 1.06264,0.588873 2.12529,0 5.47265,-0.17665 6.6947,-0.17665 1.4877,0 4.83505,0.17665 8.34179,0.17665 0.58447,0 1.00953,-0.17665 1.00953,-0.588873 0,-0.294436 -0.26566,-0.471106 -0.85011,-0.471106 -0.797,0 -1.96591,-0.117708 -2.70977,-0.235553 -1.59398,-0.235553 -1.91278,-1.531095 -2.07216,-3.179957 -0.26566,-2.532191 -0.26566,-7.184359 -0.26566,-12.60207 z"
       id="path8067"
       style="font-weight:600;font-size:48.5783px;line-height:1.25;font-family:'Trajan Pro 3';-inkscape-font-specification:'Trajan Pro 3 Semi-Bold';fill:url(#linearGradient18155);fill-opacity:1;stroke-width:1.39841" />
    <path
       d="m 403.74527,83.991463 c 0,-9.201506 0,-10.896515 0.10929,-12.833681 0.10929,-2.118765 0.54618,-3.147878 2.02092,-3.450566 0.65544,-0.121069 1.52934,-0.181599 2.13015,-0.181599 0.65543,0 0.98314,-0.121089 0.98314,-0.544836 0,-0.423747 -0.38232,-0.544817 -1.147,-0.544817 -2.13015,0 -6.11736,0.181599 -7.42823,0.181599 -1.47473,0 -4.91575,-0.181599 -7.48287,-0.181599 -0.81929,0 -1.20163,0.12107 -1.20163,0.544817 0,0.423757 0.32772,0.544836 0.92853,0.544836 0.71006,0 1.36549,0.06053 1.80245,0.181599 1.80243,0.423767 2.23939,1.39233 2.34864,3.450566 0.10917,1.937166 0.10917,3.632175 0.10917,12.833681 v 10.654366 c 0,5.569331 0,10.351691 -0.2731,12.894211 -0.21847,1.75554 -0.49158,3.08734 -1.58396,3.32949 -0.49157,0.12112 -1.14701,0.24214 -1.9663,0.24214 -0.65543,0 -0.87391,0.18162 -0.87391,0.4843 0,0.42375 0.38234,0.60534 1.09239,0.60534 2.45788,0 4.69728,-0.18159 6.88205,-0.18159 5.84427,0 10.86926,0.36322 15.89426,0.36322 2.8402,0 3.11331,-0.30269 3.44101,-1.63448 0.43697,-1.75555 0.8193,-6.29577 0.8193,-6.96167 0,-0.72643 -0.0546,-1.02911 -0.43695,-1.02911 -0.43696,0 -0.54619,0.36323 -0.60081,0.90804 -0.10929,1.15018 -0.76468,2.8452 -1.42012,3.63217 -1.36549,1.63449 -3.49563,1.69502 -6.39046,1.69502 -4.26032,0 -5.68042,-0.42375 -6.60895,-1.33181 -1.14702,-1.08965 -1.14702,-5.26664 -1.14702,-13.015271 z"
       id="path8069"
       style="font-weight:600;font-size:48.5783px;line-height:1.25;font-family:'Trajan Pro 3';-inkscape-font-specification:'Trajan Pro 3 Semi-Bold';fill:url(#linearGradient18157);fill-opacity:1;stroke-width:1.43755" />
    <path
       d="m 434.49715,94.645829 c 0,5.872001 0,10.654371 -0.27309,13.196891 -0.16385,1.75555 -0.49156,2.78466 -1.58396,3.02681 -0.49159,0.12112 -1.14702,0.24214 -1.9663,0.24214 -0.65544,0 -0.87392,0.18162 -0.87392,0.4843 0,0.42375 0.38234,0.60534 1.09239,0.60534 2.18479,0 5.6258,-0.18159 6.88205,-0.18159 1.47472,0 4.91575,0.18159 8.52063,0.18159 0.60083,0 1.03777,-0.18159 1.03777,-0.60534 0,-0.30268 -0.27309,-0.4843 -0.87391,-0.4843 -0.8193,0 -2.02092,-0.121 -2.78559,-0.24214 -1.63858,-0.24215 -2.02093,-1.3318 -2.18478,-2.96628 -0.21847,-2.60305 -0.21847,-7.38542 -0.21847,-13.257421 V 83.991463 c 0,-9.201506 0,-10.896515 0.10928,-12.833681 0.10929,-2.118765 0.5462,-3.147878 2.02091,-3.450566 0.65544,-0.121069 1.0924,-0.181599 1.63859,-0.181599 0.54621,0 0.87392,-0.121089 0.87392,-0.605366 0,-0.363217 -0.43696,-0.484287 -1.14701,-0.484287 -2.07554,0 -5.29808,0.181599 -6.66358,0.181599 -1.58397,0 -5.02498,-0.181599 -7.10053,-0.181599 -0.8739,0 -1.31086,0.12107 -1.31086,0.484287 0,0.484287 0.32772,0.605366 0.8739,0.605366 0.65543,0 1.36549,0.06053 1.9663,0.242148 1.20165,0.302668 1.74783,1.331781 1.85707,3.390017 0.10929,1.937166 0.10929,3.632175 0.10929,12.833681 z"
       id="path8071"
       style="font-weight:600;font-size:48.5783px;line-height:1.25;font-family:'Trajan Pro 3';-inkscape-font-specification:'Trajan Pro 3 Semi-Bold';fill:url(#linearGradient18159);fill-opacity:1;stroke-width:1.43755" />
    <path
       d="m 467.22908,83.991463 c 0,-9.201506 0,-10.896515 0.1093,-12.833681 0.10927,-2.118765 0.54619,-3.147878 2.02091,-3.450566 0.65543,-0.121069 0.98315,-0.181599 1.52934,-0.181599 0.43696,0 0.76467,-0.121089 0.76467,-0.544836 0,-0.423747 -0.38233,-0.544817 -1.147,-0.544817 -1.85706,0 -5.29809,0.181599 -6.60896,0.181599 -1.31086,0 -4.75187,-0.181599 -7.64672,-0.181599 -0.81929,0 -1.20162,0.12107 -1.20162,0.544817 0,0.423757 0.32771,0.544836 0.92854,0.544836 0.76466,0 1.69319,0.06053 2.13015,0.181599 1.80243,0.423767 2.23939,1.39233 2.34864,3.450566 0.10917,1.937166 0.10917,3.632175 0.10917,12.833681 v 10.654366 c 0,5.569331 0,10.351691 -0.27309,12.894211 -0.21847,1.75554 -0.49158,3.08734 -1.58397,3.32949 -0.49157,0.12112 -1.147,0.24214 -1.9663,0.24214 -0.65542,0 -0.87391,0.18162 -0.87391,0.4843 0,0.42375 0.38234,0.60534 1.09239,0.60534 2.18478,0 5.6258,-0.18159 6.88205,-0.18159 1.36549,0 4.80651,0.18159 7.8652,0.18159 0.60081,0 1.03777,-0.18159 1.03777,-0.60534 0,-0.30268 -0.27311,-0.4843 -0.71005,-0.4843 -0.71005,0 -1.91168,-0.121 -2.67636,-0.24214 -1.36549,-0.24215 -1.85706,-1.57395 -1.9663,-3.26895 -0.16385,-2.60306 -0.16385,-7.38542 -0.16385,-12.954751 v -5.569331 c 4.53341,6.235226 10.7054,14.165482 14.9111,18.947832 3.0587,3.5111 4.97037,4.17698 11.14238,4.17698 h 4.69726 c 0.76468,0 1.03778,-0.121 1.03778,-0.5448 0,-0.36322 -0.32772,-0.4843 -1.0924,-0.54484 -0.76467,-0.121 -0.92854,-0.121 -1.9663,-0.42375 -1.74781,-0.54482 -3.33178,-1.45287 -8.13829,-6.53791 -2.40326,-2.54252 -11.85243,-13.681182 -14.74726,-18.100321 1.42012,-1.695009 8.46602,-10.049011 11.03313,-13.01528 2.89484,-3.329497 4.20571,-4.116462 6.11739,-4.842897 0.8739,-0.363217 1.6932,-0.544826 2.94944,-0.665895 0.65543,-0.06053 0.71006,-0.302688 0.71006,-0.544836 0,-0.363218 -0.10928,-0.544817 -0.98315,-0.544817 -0.81931,0 -4.31494,0.181599 -6.60896,0.181599 -2.40325,0 -3.60488,-0.181599 -5.51658,-0.181599 -0.54618,0 -0.71003,0.181599 -0.71003,0.484287 0,0.302678 0.16385,0.484287 0.71003,0.605366 1.14702,0.302678 1.25628,0.605366 1.25628,1.089652 0,0.726425 -0.87394,2.179295 -3.38642,5.448263 -2.45788,3.147868 -8.95759,11.259731 -11.41546,13.741714 z"
       id="path8073"
       style="font-weight:600;font-size:48.5783px;line-height:1.25;font-family:'Trajan Pro 3';-inkscape-font-specification:'Trajan Pro 3 Semi-Bold';fill:url(#linearGradient18161);fill-opacity:1;stroke-width:1.43755" />
    <path
       d="m 505.57717,94.645829 c 0,5.569331 0,10.351691 -0.27311,12.894211 -0.21847,1.75554 -0.49157,3.08734 -1.58397,3.32949 -0.49155,0.12112 -1.14699,0.24214 -1.9663,0.24214 -0.65542,0 -0.8739,0.18162 -0.8739,0.4843 0,0.42375 0.38234,0.60534 1.09239,0.60534 2.45787,0 4.69727,-0.18159 6.88205,-0.18159 5.46193,0 10.26844,0.36322 15.12959,0.36322 2.07553,0 2.56711,0 2.94945,-1.57396 0.27309,-1.21071 0.71004,-5.32717 0.71004,-6.71951 0,-0.60535 0,-1.08964 -0.43695,-1.08964 -0.38234,0 -0.49157,0.24215 -0.60081,0.90804 -0.38234,2.48198 -1.03778,3.75323 -2.45788,4.47968 -1.42011,0.72643 -3.71413,0.72643 -5.13422,0.72643 -5.57118,0 -6.44511,-0.90804 -6.55433,-5.08504 -0.0546,-1.75555 0,-7.324885 0,-9.383111 v -4.782357 c 0,-0.363217 0.0547,-0.605366 0.32771,-0.605366 1.31087,0 6.71819,0.06053 7.75595,0.181609 2.02094,0.242148 2.7856,1.150192 3.05869,2.360914 0.16386,0.786964 0.16386,1.150182 0.21848,1.755548 0,0.302677 0.10929,0.968583 0.49159,0.968583 0.49157,0 0.49157,-0.665906 0.49157,-1.150182 0,-0.423767 0.16386,-2.845201 0.21847,-4.055932 0.21848,-3.087349 0.43696,-4.055932 0.43696,-4.419149 0,-0.363218 -0.16385,-0.484287 -0.38234,-0.484287 -0.27309,0 -0.49157,0.302688 -0.8739,0.786965 -0.49159,0.605365 -1.31087,0.786984 -2.62174,0.908053 -1.25624,0.121069 -7.53748,0.121069 -8.7391,0.121069 -0.32772,0 -0.38234,-0.242138 -0.38234,-0.665895 V 70.249748 c 0,-0.423757 0.10927,-0.605366 0.38234,-0.605366 1.09238,0 6.82743,0.121079 7.75595,0.242149 2.73097,0.363217 3.27718,1.089652 3.6595,2.179304 0.2731,0.726435 0.32772,1.695019 0.32772,1.937157 0,0.726425 0.10927,1.089643 0.49157,1.089643 0.38234,0 0.49157,-0.363218 0.54621,-0.665886 0.10927,-0.726445 0.21847,-3.390027 0.27308,-3.995392 0.16386,-2.784671 0.43696,-3.511106 0.43696,-3.934853 0,-0.302688 -0.0547,-0.544826 -0.32772,-0.544826 -0.27309,0 -0.60081,0.181609 -0.87391,0.242138 -0.43695,0.121079 -1.31087,0.242148 -2.34864,0.363218 -1.03776,0.06053 -11.90704,0.06053 -13.65485,0.06053 -2.84023,0 -5.35271,-0.181599 -7.8652,-0.181599 -0.81929,0 -1.20163,0.12107 -1.20163,0.544817 0,0.423757 0.32772,0.544836 0.92854,0.544836 0.76465,0 1.69319,0.06053 2.13014,0.181599 1.80245,0.423757 2.2394,1.39233 2.34865,3.450566 0.10929,1.937166 0.10929,3.632165 0.10929,12.833681 z"
       id="path8075"
       style="font-weight:600;font-size:48.5783px;line-height:1.25;font-family:'Trajan Pro 3';-inkscape-font-specification:'Trajan Pro 3 Semi-Bold';fill:url(#linearGradient18163);fill-opacity:1;stroke-width:1.43755" />
  </g>
</svg>
