<svg xmlns="http://www.w3.org/2000/svg" width="1200" height="800" viewBox="-31.95 -19.6425 276.9 117.855"><path d="M31.6212 68.2622c-9.6407-5.664-17.5707-10.286-17.6223-10.2711-.0613.0177-.11 3.2703-.1406 9.3937l-.0469 9.3666H.0323L.0067 54.7215c-.0141-12.1164-.0051-22.1154.02-22.2201.0428-.1783 1.2991-.9815 1.5352-.9815.0546 0 8.0623 4.6407 17.795 10.3127 9.7327 5.672 17.7392 10.2983 17.7922 10.2806.0647-.0216.1117-3.2742.1431-9.9143l.047-9.8821H50.837v45.4606l-.6527.401c-.359.2205-.7386.3967-.8436.3915-.105-.0052-8.0788-4.6437-17.7196-10.3077zM49.478 55.3865c0-16.586-.0257-21.5111-.1125-21.598-.1744-.1744-10.4164-.161-10.5615.0138-.0755.091-.1115 3.0243-.1286 10.5028l-.0239 10.3764L20.373 44.0286C10.3198 38.1696 1.9847 33.319 1.8506 33.2495c-.1836-.0951-.2704-.0997-.3515-.0186-.0804.0804-.1077 5.3782-.1077 20.9393 0 11.4573.0256 20.8983.057 20.9798.0509.1329.6216.1483 5.4835.1483 2.9846 0 5.4367-.0105 5.449-.0234.0123-.0129.044-4.4823.0703-9.932l.048-9.9087L30.861 66.202c10.099 5.9223 18.4193 10.7457 18.4894 10.7188.107-.041.1275-3.505.1275-21.5343zm10.1669 21.2947c-.0245-.0645-.0338-10.073-.0206-22.2409l.024-22.1235h44.0558V44.316l-14.2479.0468-14.2478.047v3.3747l7.288.024c6.8591.0226 7.288.0336 7.2885.1875.0016.414-2.1 10.7719-2.2091 10.8882-.1011.1076-1.222.1552-6.1518.2614-3.3155.0714-6.0815.1482-6.1468.1707-.0927.0319-.1132.6197-.0937 2.6914l.0249 2.6507 14.2478.0469 14.2479.0468v11.9993l-22.0074.0236c-17.5567.0188-22.0164-.0001-22.052-.0938zm42.6532-5.9763v-4.5466l-14.2713-.0237-14.2712-.0238v-4.0805c0-3.1809.0258-4.0892.1171-4.1198.0645-.0217 2.893-.0987 6.2858-.1713 3.5587-.0761 6.2061-.1694 6.2573-.2206.1303-.1303 1.694-8.0248 1.6067-8.112-.0408-.0408-3.257-.085-7.1471-.0982l-7.073-.024-.0246-3.1636-.0247-3.1635 14.2725-.0237 14.2725-.0238.0244-4.5405c.0191-3.5702-.001-4.5565-.0938-4.6154-.1359-.0863-40.7548-.107-40.9792-.021-.1346.0517-.1483 1.9725-.1483 20.8114v20.7544l20.5985-.0236 20.5984-.0237zm9.7452 5.9767c-.0246-.0648-.0339-10.0733-.0207-22.2413l.024-22.1235 18.3723-.0274c12.6613-.0188 18.6476.004 19.2581.0734 1.9024.2164 3.3985.9399 4.7382 2.2914 1.1011 1.1109 1.6035 1.9737 2.0808 3.5742.1534.5144.1682 1.2976.1942 10.306.0313 10.8025.05 10.4208-.577 11.7292-.5586 1.1659-1.5065 2.1277-2.9066 2.9496-.3148.1848-.5681.3967-.563.4708.0053.074 1.6524 2.4962 3.6603 5.3824 2.0079 2.8862 3.7916 5.4534 3.9637 5.705l.313.4574-.3613.7412c-.2392.4906-.4257.7567-.5518.787-.1048.0253-3.7127.0343-8.0175.0201l-7.827-.0257-4.206-6.3053-4.206-6.3053-3.9022.0244-3.902.0245-.0469 6.2808-.0468 6.2809-7.7126.024c-6.1204.019-7.7217-.0004-7.7572-.0938zm14.0386-1.4067c.012-.0129.0436-2.8498.0703-6.3043l.0486-6.2808 4.8968-.0243c4.5687-.0226 4.9076-.0132 5.0566.1406.0878.0907 1.9969 2.928 4.2423 6.3051l4.0827 6.1402 7.1474.024c6.1227.0206 7.1473.005 7.1473-.109 0-.0732-1.9032-2.8682-4.2295-6.2111-2.3262-3.343-4.2462-6.121-4.2666-6.1735-.0207-.053.2988-.165.7186-.2518 2.1235-.439 3.8792-2.0747 4.2181-3.9297.063-.3448.0873-3.8459.0703-10.1243l-.026-9.5972-.2215-.6562c-.5991-1.7742-1.6678-3.0256-3.2467-3.802-1.432-.704.172-.654-20.1095-.6276l-18.2284.0237-.024 20.6236c-.0133 11.343-.004 20.6764.0204 20.7408.035.0922 1.3874.1172 6.3278.1172 3.4558 0 6.293-.0105 6.305-.0234zm.0213-21.1861c-.0246-.0645-.0339-2.7116-.0205-5.8825l.0243-5.7652 8.1785-.024 8.1784-.024V54.206h-8.158c-6.44 0-8.1673-.0247-8.2027-.1172zM141.0109 48.3v-4.4528h-13.498l-.0244 4.359c-.0134 2.3975-.004 4.4121.0208 4.477.0357.0933 1.4405.1127 6.7734.0937l6.7282-.024zm30.839 28.2633c-3.179-.7133-5.4528-3.0293-6.0915-6.205-.1309-.6504-.1442-2.4424-.1206-16.1524.0292-16.9829-.018-15.5973.5816-17.0818.6181-1.5304 1.8978-2.9618 3.4426-3.8509.6821-.3926 2.018-.8 2.9893-.9115.6149-.0707 5.905-.0924 17.2897-.071l16.4038.0307.7605.2041c2.7926.7493 4.8888 2.7884 5.6828 5.5284l.2119.731v31.5918l-.2688.7968c-.3441 1.0202-.6823 1.6875-1.213 2.3935-1.163 1.5473-2.8222 2.6076-4.6774 2.9889-.6444.1324-2.5447.1477-17.5754.141-13.762-.006-16.9562-.0306-17.4154-.1336zm34.8578-1.4048c2.1135-.4478 3.9397-2.1355 4.667-4.3131l.2193-.6562.025-15.3956c.028-17.168.066-16.11-.6279-17.5085-.8443-1.7019-2.2592-2.862-4.0776-3.3434-.6189-.1638-1.4553-.172-17.5792-.172-18.8252 0-17.3674-.0505-18.7966.6513-1.5824.777-2.712 2.1146-3.25 3.8484l-.2182.703v31.2168l.2646.749c.4786 1.3545 1.346 2.5146 2.4307 3.2513.6895.4683 1.1907.692 2.061.9201.6562.172 1.2758.1784 17.459.1818 14.3405.003 16.8723-.0163 17.4229-.133zm-27.7178-9.1093c-.0346-.0346-.0629-5.2446-.0629-11.5777v-11.515h21.0913l-.0238 11.554-.0238 11.554-10.459.0238c-5.7524.0131-10.4872-.0045-10.5218-.039zm19.5748-11.5621V44.4097h-18.091l-.0242 9.9837c-.0133 5.491-.0039 10.0367.0207 10.1014.0356.0935 1.8993.1127 9.0696.0938l9.0249-.024zM62.4257 23.4507c-.9798-.1926-1.8555-.8872-2.3258-1.8452l-.2642-.538V9.0683l.2534-.541c.3325-.7095 1.0467-1.3994 1.7374-1.6783l.54-.218h13.0293v5.0621l-4.593.0469-4.593.0469v6.562l4.593.0469 4.593.0469.0264 2.3436c.0145 1.289.0032 2.4385-.0252 2.5545l-.0516.211-6.255-.0104c-3.4404-.0056-6.4394-.0465-6.6646-.0907zm12.2102-.891c.084-.219.0664-3.0664-.0198-3.2021-.0567-.0894-1.125-.122-4.615-.1406l-4.5413-.0244v-8.2494l4.5413-.0244c3.49-.0187 4.5583-.0513 4.615-.1406.0862-.1358.1038-2.9832.0198-3.2022-.051-.1331-.6803-.148-6.1631-.1462-6.8132.0023-6.488-.0276-7.177.6614-.6876.6877-.6592.3872-.6592 6.9767 0 6.5916-.0289 6.2876.6613 6.972.7017.6957.3575.6638 7.1749.666 5.4828.0019 6.112-.013 6.1631-.1462zm5.2761.9307c-.035-.035-.0637-3.1957-.0637-7.0236 0-6.5061.0113-6.9963.1732-7.5166.2335-.7502.6497-1.328 1.2499-1.7353.9598-.6513.816-.6402 7.915-.6105l6.3626.0265.5898.2724c.7324.3382 1.42 1.0617 1.7236 1.8138l.2175.5387v14.249l-3.1807.0247c-2.4823.0193-3.1972-.0013-3.2559-.0937-.0413-.0652-.0758-.9951-.0766-2.0666-.0011-1.5137-.0287-1.9586-.1236-1.995-.1522-.0584-4.8595.6852-4.9574.783-.0392.0393-.0829.8085-.097 1.7095l-.0258 1.6381-3.1936.0247c-1.7565.0135-3.2223-.004-3.2573-.039zm5.691-.9307c.0313-.0815.057-.8198.057-1.6405 0-.8207.0356-1.4922.0793-1.4922.1015 0 5.9744-.9236 6.318-.9936l.2579-.0525.0014 2.0464c.001 1.1255.0353 2.0998.0768 2.1652.0584.092.6146.1131 2.4591.0937l2.3838-.025.024-6.684c.024-6.6349.0226-6.6872-.1752-7.1471-.1096-.2548-.362-.6104-.561-.79-.7097-.6414-.3523-.6126-7.5715-.6103-7.2838.0023-6.9054-.0306-7.5973.6614-.6932.6932-.659.2915-.6613 7.7813-.0012 3.6908.026 6.7386.0604 6.773.0344.0344 1.1266.0625 2.4271.0625 2.0697 0 2.3717-.0185 2.4215-.1483zm.102-6.2125c-.0248-.0248-.045-1.2403-.045-2.7011v-2.656h6.6551v2.159c0 1.642-.0281 2.1693-.1172 2.2018-.237.0865-6.4496 1.0398-6.493.9963zm3.3093-1.2348c1.3232-.2076 2.4396-.4112 2.481-.4526.0413-.0414.0634-.7047.0491-1.474l-.026-1.399h-5.0617l-.0257 1.7313c-.0243 1.6479-.0043 1.9716.1221 1.9716.0305 0 1.138-.1698 2.4612-.3773zm13.5617 8.3234c-.0248-.0652-.0343-3.8729-.021-8.4617l.0242-8.3432h15.4664v5.0622l-4.5462.0469-4.5461.0469v.7499l2.6214.025c1.4418.0137 2.6543.0578 2.6945.098.0924.0924-.7601 4.4315-.9003 4.5818-.07.0752-.8049.1362-2.2597.1875l-2.156.0761-.0468 2.9998-.0469 2.9998-3.1191.0247c-2.445.0194-3.129-.0009-3.1644-.0937zm5.5584-3.7366l.0247-2.9619 1.279-.0613c.7034-.0337 1.71-.0613 2.2368-.0613.6927 0 .9872-.0353 1.0636-.1274.1312-.158.6659-2.7668.6015-2.9346-.0367-.0956-.6034-.1278-2.5918-.1473l-2.5448-.0249v-2.4373l4.5462-.047 4.5461-.0468V7.4746H103.423l-.0243 7.4995c-.0133 4.1248-.0038 7.553.0212 7.6184.0352.0924.5605.1132 2.3676.0937l2.3222-.025zm12.9076 3.7366c-.0249-.0652-.0343-3.8729-.021-8.4617l.0242-8.3432h15.4664v5.0622l-4.5462.0469-4.5462.0469v.7499l2.6214.025c1.4418.0137 2.6512.0559 2.6876.0937.0791.0823-.7963 4.4995-.9147 4.6158-.0454.0445-1.0526.1153-2.2384.1574l-2.1559.0765-.0469 2.9998-.0468 2.9998-3.1192.0247c-2.445.0194-3.129-.0009-3.1643-.0937zm5.5236-.876c.0313-.0816.0569-1.425.0569-2.9853v-2.837l1.2802-.0614c.7042-.0338 1.7113-.0614 2.2382-.0614.653 0 .9883-.0374 1.0534-.1172.1106-.1357.5836-2.4084.5836-2.8039v-.2662h-5.1609l.0262-1.2421.0261-1.2421 4.4944-.0244c3.4525-.0187 4.5115-.0513 4.5682-.1406.0862-.1358.1038-2.9832.0198-3.2022-.0512-.1333-.7538-.1482-6.9833-.1482h-6.9265v7.5776c0 4.1677.0282 7.6057.0625 7.6401.0344.0344 1.0844.0625 2.3334.0625 1.9843 0 2.278-.0187 2.3278-.1483zm13.2232.8752c-.0247-.0647-.034-3.8721-.0207-8.4609l.0242-8.3432h16.7787v5.0622l-5.2023.0469-5.2023.0469v.7499l2.6214.025c1.4418.0137 2.6512.0559 2.6876.0937.079.0823-.7963 4.4995-.9148 4.6158-.0453.0445-1.0526.1153-2.2383.1574l-2.156.0765v.9375l5.2024.0468 5.2023.047v4.9683l-8.3686.024c-6.6454.019-8.378-.0003-8.4136-.0938zm15.8705-.7119c.0911-.0578.1134-.4746.0938-1.7563l-.0257-1.6804-5.1789-.0243-5.1789-.0242v-2.5004l1.2803-.0614c.7041-.0338 1.7113-.0614 2.2382-.0614.655 0 .9868-.037 1.0494-.1172.1313-.168.6218-2.752.5553-2.9252-.0482-.1258-.3903-.145-2.5921-.145h-2.5365l.0261-1.242.0262-1.2421 5.1554-.047 5.1555-.0468V7.4746l-7.5398-.024c-5.97-.019-7.5554.0006-7.6146.0938-.0411.0647-.0754 3.4735-.0762 7.575-.0011 5.6768.0254 7.4842.111 7.5699.0857.0856 1.8825.1121 7.5223.111 4.0754-.0007 7.4636-.0355 7.5292-.0772zm-7.6416-17.4088c-1.328-.3577-2.1695-1.2692-2.4715-2.6772-.1206-.5628-.0574-2.4906.0865-2.6345.1016-.1016 10.209 2.7887 10.412 2.9774.1388.129.7634 2.3515.6834 2.4315-.0263.0262-1.886.0449-4.133.0415-3.2103-.0049-4.1907-.0346-4.5774-.1387zm7.5146-.662c.1732-.0665.1903-.357.0453-.773-.1196-.343.413-.16-5.1921-1.7837-2.1133-.6122-3.8928-1.0936-3.9547-1.0699-.1852.071-.232.5217-.1243 1.1962.1314.8227.2776 1.1597.7108 1.6393.4058.4493.7343.6404 1.2887.75.4514.0893 7.0037.1265 7.2263.041z" fill="#ce7502"/><path d="M31.6212 68.2622c-9.6407-5.664-17.5707-10.286-17.6223-10.2711-.0613.0177-.11 3.2703-.1406 9.3937l-.0469 9.3666H.0323L.0067 54.7215c-.0141-12.1164-.0051-22.1154.02-22.2201.0428-.1783 1.2991-.9815 1.5352-.9815.0546 0 8.0623 4.6407 17.795 10.3127 9.7327 5.672 17.7392 10.2983 17.7922 10.2806.0647-.0216.1117-3.2742.1431-9.9143l.047-9.8821H50.837v45.4606l-.6527.401c-.359.2205-.7386.3967-.8436.3915-.105-.0052-8.0788-4.6437-17.7196-10.3077zM49.478 55.3865c0-16.586-.0257-21.5111-.1125-21.598-.1744-.1744-10.4164-.161-10.5615.0138-.0755.091-.1115 3.0243-.1286 10.5028l-.0239 10.3764L20.373 44.0286C10.3198 38.1696 1.9847 33.319 1.8506 33.2495c-.1836-.0951-.2704-.0997-.3515-.0186-.0804.0804-.1077 5.3782-.1077 20.9393 0 11.4573.0256 20.8983.057 20.9798.0509.1329.6216.1483 5.4835.1483 2.9846 0 5.4367-.0105 5.449-.0234.0123-.0129.044-4.4823.0703-9.932l.048-9.9087L30.861 66.202c10.099 5.9223 18.4193 10.7457 18.4894 10.7188.107-.041.1275-3.505.1275-21.5343zm10.1669 21.2947c-.0245-.0645-.0338-10.073-.0206-22.2409l.024-22.1235h44.0558V44.316l-14.2479.0468-14.2478.047v3.3747l7.288.024c6.8591.0226 7.288.0336 7.2885.1875.0016.414-2.1 10.7719-2.2091 10.8882-.1011.1076-1.222.1552-6.1518.2614-3.3155.0714-6.0815.1482-6.1468.1707-.0927.0319-.1132.6197-.0937 2.6914l.0249 2.6507 14.2478.0469 14.2479.0468v11.9993l-22.0074.0236c-17.5567.0188-22.0164-.0001-22.052-.0938zm42.6532-5.9763v-4.5466l-14.2713-.0237-14.2712-.0238v-4.0805c0-3.1809.0258-4.0892.1171-4.1198.0645-.0217 2.893-.0987 6.2858-.1713 3.5587-.0761 6.2061-.1694 6.2573-.2206.1303-.1303 1.694-8.0248 1.6067-8.112-.0408-.0408-3.257-.085-7.1471-.0982l-7.073-.024-.0246-3.1636-.0247-3.1635 14.2725-.0237 14.2725-.0238.0244-4.5405c.0191-3.5702-.001-4.5565-.0938-4.6154-.1359-.0863-40.7548-.107-40.9792-.021-.1346.0517-.1483 1.9725-.1483 20.8114v20.7544l20.5985-.0236 20.5984-.0237zm9.7452 5.9767c-.0246-.0648-.0339-10.0733-.0207-22.2413l.024-22.1235 18.3723-.0274c12.6613-.0188 18.6476.004 19.2581.0734 1.9024.2164 3.3985.9399 4.7382 2.2914 1.1011 1.1109 1.6035 1.9737 2.0808 3.5742.1534.5144.1682 1.2976.1942 10.306.0313 10.8025.05 10.4208-.577 11.7292-.5586 1.1659-1.5065 2.1277-2.9066 2.9496-.3148.1848-.5681.3967-.563.4708.0053.074 1.6524 2.4962 3.6603 5.3824 2.0079 2.8862 3.7916 5.4534 3.9637 5.705l.313.4574-.3613.7412c-.2392.4906-.4257.7567-.5518.787-.1048.0253-3.7127.0343-8.0175.0201l-7.827-.0257-4.206-6.3053-4.206-6.3053-3.9022.0244-3.902.0245-.0469 6.2808-.0468 6.2809-7.7126.024c-6.1204.019-7.7217-.0004-7.7572-.0938zm14.0386-1.4067c.012-.0129.0436-2.8498.0703-6.3043l.0486-6.2808 4.8968-.0243c4.5687-.0226 4.9076-.0132 5.0566.1406.0878.0907 1.9969 2.928 4.2423 6.3051l4.0827 6.1402 7.1474.024c6.1227.0206 7.1473.005 7.1473-.109 0-.0732-1.9032-2.8682-4.2295-6.2111-2.3262-3.343-4.2462-6.121-4.2666-6.1735-.0207-.053.2988-.165.7186-.2518 2.1235-.439 3.8792-2.0747 4.2181-3.9297.063-.3448.0873-3.8459.0703-10.1243l-.026-9.5972-.2215-.6562c-.5991-1.7742-1.6678-3.0256-3.2467-3.802-1.432-.704.172-.654-20.1095-.6276l-18.2284.0237-.024 20.6236c-.0133 11.343-.004 20.6764.0204 20.7408.035.0922 1.3874.1172 6.3278.1172 3.4558 0 6.293-.0105 6.305-.0234zm.0213-21.1861c-.0246-.0645-.0339-2.7116-.0205-5.8825l.0243-5.7652 8.1785-.024 8.1784-.024V54.206h-8.158c-6.44 0-8.1673-.0247-8.2027-.1172zM141.0109 48.3v-4.4528h-13.498l-.0244 4.359c-.0134 2.3975-.004 4.4121.0208 4.477.0357.0933 1.4405.1127 6.7734.0937l6.7282-.024zm30.839 28.2633c-3.179-.7133-5.4528-3.0293-6.0915-6.205-.1309-.6504-.1442-2.4424-.1206-16.1524.0292-16.9829-.018-15.5973.5816-17.0818.6181-1.5304 1.8978-2.9618 3.4426-3.8509.6821-.3926 2.018-.8 2.9893-.9115.6149-.0707 5.905-.0924 17.2897-.071l16.4038.0307.7605.2041c2.7926.7493 4.8888 2.7884 5.6828 5.5284l.2119.731v31.5918l-.2688.7968c-.3441 1.0202-.6823 1.6875-1.213 2.3935-1.163 1.5473-2.8222 2.6076-4.6774 2.9889-.6444.1324-2.5447.1477-17.5754.141-13.762-.006-16.9562-.0306-17.4154-.1336zm34.8578-1.4048c2.1135-.4478 3.9397-2.1355 4.667-4.3131l.2193-.6562.025-15.3956c.028-17.168.066-16.11-.6279-17.5085-.8443-1.7019-2.2592-2.862-4.0776-3.3434-.6189-.1638-1.4553-.172-17.5792-.172-18.8252 0-17.3674-.0505-18.7966.6513-1.5824.777-2.712 2.1146-3.25 3.8484l-.2182.703v31.2168l.2646.749c.4786 1.3545 1.346 2.5146 2.4307 3.2513.6895.4683 1.1907.692 2.061.9201.6562.172 1.2758.1784 17.459.1818 14.3405.003 16.8723-.0163 17.4229-.133zm-27.7178-9.1093c-.0346-.0346-.0629-5.2446-.0629-11.5777v-11.515h21.0913l-.0238 11.554-.0238 11.554-10.459.0238c-5.7524.0131-10.4872-.0045-10.5218-.039zm19.5748-11.5621V44.4097h-18.091l-.0242 9.9837c-.0133 5.491-.0039 10.0367.0207 10.1014.0356.0935 1.8993.1127 9.0696.0938l9.0249-.024zM62.4257 23.4507c-.9798-.1926-1.8555-.8872-2.3258-1.8452l-.2642-.538V9.0683l.2534-.541c.3325-.7095 1.0467-1.3994 1.7374-1.6783l.54-.218h13.0293v5.0621l-4.593.0469-4.593.0469v6.562l4.593.0469 4.593.0469.0264 2.3436c.0145 1.289.0032 2.4385-.0252 2.5545l-.0516.211-6.255-.0104c-3.4404-.0056-6.4394-.0465-6.6646-.0907zm12.2102-.891c.084-.219.0664-3.0664-.0198-3.2021-.0567-.0894-1.125-.122-4.615-.1406l-4.5413-.0244v-8.2494l4.5413-.0244c3.49-.0187 4.5583-.0513 4.615-.1406.0862-.1358.1038-2.9832.0198-3.2022-.051-.1331-.6803-.148-6.1631-.1462-6.8132.0023-6.488-.0276-7.177.6614-.6876.6877-.6592.3872-.6592 6.9767 0 6.5916-.0289 6.2876.6613 6.972.7017.6957.3575.6638 7.1749.666 5.4828.0019 6.112-.013 6.1631-.1462zm5.2761.9307c-.035-.035-.0637-3.1957-.0637-7.0236 0-6.5061.0113-6.9963.1732-7.5166.2335-.7502.6497-1.328 1.2499-1.7353.9598-.6513.816-.6402 7.915-.6105l6.3626.0265.5898.2724c.7324.3382 1.42 1.0617 1.7236 1.8138l.2175.5387v14.249l-3.1807.0247c-2.4823.0193-3.1972-.0013-3.2559-.0937-.0413-.0652-.0758-.9951-.0766-2.0666-.0011-1.5137-.0287-1.9586-.1236-1.995-.1522-.0584-4.8595.6852-4.9574.783-.0392.0393-.0829.8085-.097 1.7095l-.0258 1.6381-3.1936.0247c-1.7565.0135-3.2223-.004-3.2573-.039zm5.691-.9307c.0313-.0815.057-.8198.057-1.6405 0-.8207.0356-1.4922.0793-1.4922.1015 0 5.9744-.9236 6.318-.9936l.2579-.0525.0014 2.0464c.001 1.1255.0353 2.0998.0768 2.1652.0584.092.6146.1131 2.4591.0937l2.3838-.025.024-6.684c.024-6.6349.0226-6.6872-.1752-7.1471-.1096-.2548-.362-.6104-.561-.79-.7097-.6414-.3523-.6126-7.5715-.6103-7.2838.0023-6.9054-.0306-7.5973.6614-.6932.6932-.659.2915-.6613 7.7813-.0012 3.6908.026 6.7386.0604 6.773.0344.0344 1.1266.0625 2.4271.0625 2.0697 0 2.3717-.0185 2.4215-.1483zm.102-6.2125c-.0248-.0248-.045-1.2403-.045-2.7011v-2.656h6.6551v2.159c0 1.642-.0281 2.1693-.1172 2.2018-.237.0865-6.4496 1.0398-6.493.9963zm3.3093-1.2348c1.3232-.2076 2.4396-.4112 2.481-.4526.0413-.0414.0634-.7047.0491-1.474l-.026-1.399h-5.0617l-.0257 1.7313c-.0243 1.6479-.0043 1.9716.1221 1.9716.0305 0 1.138-.1698 2.4612-.3773zm13.5617 8.3234c-.0248-.0652-.0343-3.8729-.021-8.4617l.0242-8.3432h15.4664v5.0622l-4.5462.0469-4.5461.0469v.7499l2.6214.025c1.4418.0137 2.6543.0578 2.6945.098.0924.0924-.7601 4.4315-.9003 4.5818-.07.0752-.8049.1362-2.2597.1875l-2.156.0761-.0468 2.9998-.0469 2.9998-3.1191.0247c-2.445.0194-3.129-.0009-3.1644-.0937zm5.5584-3.7366l.0247-2.9619 1.279-.0613c.7034-.0337 1.71-.0613 2.2368-.0613.6927 0 .9872-.0353 1.0636-.1274.1312-.158.6659-2.7668.6015-2.9346-.0367-.0956-.6034-.1278-2.5918-.1473l-2.5448-.0249v-2.4373l4.5462-.047 4.5461-.0468V7.4746H103.423l-.0243 7.4995c-.0133 4.1248-.0038 7.553.0212 7.6184.0352.0924.5605.1132 2.3676.0937l2.3222-.025zm12.9076 3.7366c-.0249-.0652-.0343-3.8729-.021-8.4617l.0242-8.3432h15.4664v5.0622l-4.5462.0469-4.5462.0469v.7499l2.6214.025c1.4418.0137 2.6512.0559 2.6876.0937.0791.0823-.7963 4.4995-.9147 4.6158-.0454.0445-1.0526.1153-2.2384.1574l-2.1559.0765-.0469 2.9998-.0468 2.9998-3.1192.0247c-2.445.0194-3.129-.0009-3.1643-.0937zm5.5236-.876c.0313-.0816.0569-1.425.0569-2.9853v-2.837l1.2802-.0614c.7042-.0338 1.7113-.0614 2.2382-.0614.653 0 .9883-.0374 1.0534-.1172.1106-.1357.5836-2.4084.5836-2.8039v-.2662h-5.1609l.0262-1.2421.0261-1.2421 4.4944-.0244c3.4525-.0187 4.5115-.0513 4.5682-.1406.0862-.1358.1038-2.9832.0198-3.2022-.0512-.1333-.7538-.1482-6.9833-.1482h-6.9265v7.5776c0 4.1677.0282 7.6057.0625 7.6401.0344.0344 1.0844.0625 2.3334.0625 1.9843 0 2.278-.0187 2.3278-.1483zm13.2232.8752c-.0247-.0647-.034-3.8721-.0207-8.4609l.0242-8.3432h16.7787v5.0622l-5.2023.0469-5.2023.0469v.7499l2.6214.025c1.4418.0137 2.6512.0559 2.6876.0937.079.0823-.7963 4.4995-.9148 4.6158-.0453.0445-1.0526.1153-2.2383.1574l-2.156.0765v.9375l5.2024.0468 5.2023.047v4.9683l-8.3686.024c-6.6454.019-8.378-.0003-8.4136-.0938zm15.8705-.7119c.0911-.0578.1134-.4746.0938-1.7563l-.0257-1.6804-5.1789-.0243-5.1789-.0242v-2.5004l1.2803-.0614c.7041-.0338 1.7113-.0614 2.2382-.0614.655 0 .9868-.037 1.0494-.1172.1313-.168.6218-2.752.5553-2.9252-.0482-.1258-.3903-.145-2.5921-.145h-2.5365l.0261-1.242.0262-1.2421 5.1554-.047 5.1555-.0468V7.4746l-7.5398-.024c-5.97-.019-7.5554.0006-7.6146.0938-.0411.0647-.0754 3.4735-.0762 7.575-.0011 5.6768.0254 7.4842.111 7.5699.0857.0856 1.8825.1121 7.5223.111 4.0754-.0007 7.4636-.0355 7.5292-.0772zm-7.6416-17.4088c-1.328-.3577-2.1695-1.2692-2.4715-2.6772-.1206-.5628-.0574-2.4906.0865-2.6345.1016-.1016 10.209 2.7887 10.412 2.9774.1388.129.7634 2.3515.6834 2.4315-.0263.0262-1.886.0449-4.133.0415-3.2103-.0049-4.1907-.0346-4.5774-.1387zm7.5146-.662c.1732-.0665.1903-.357.0453-.773-.1196-.343.413-.16-5.1921-1.7837-2.1133-.6122-3.8928-1.0936-3.9547-1.0699-.1852.071-.232.5217-.1243 1.1962.1314.8227.2776 1.1597.7108 1.6393.4058.4493.7343.6404 1.2887.75.4514.0893 7.0037.1265 7.2263.041z" fill="#ce7502"/><path d="M61.1332 55.6622c0-10.7081.0578-20.0225.1285-20.6986l.1285-1.2293h40.7123l.137.9142c.1743 1.162.0163 7.823-.1904 8.03-.0853.0853-6.4917.1842-14.2365.2195l-14.0813.0643v6.3321l6.9824.0695c3.8403.0382 7.0376.1247 7.1052.1923.131.1312-1.2357 7.366-1.4602 7.7292-.0872.141-2.282.2734-6.3304.3816l-6.197.1658-.054 4.1497-.0541 4.1497 11.6523.0008c6.4087.0004 12.7996.0593 14.2019.1309l2.5496.13v8.7377H61.1332zm-13.398 20.2911c-.7148-.4192-7.4638-4.3636-14.9977-8.7653-7.5338-4.4017-15.1538-8.8612-16.9332-9.91-1.7794-1.0488-3.2867-1.8555-3.3495-1.7926-.0628.0628-.1142 4.5089-.1142 9.8802v9.766H1.5422V54.233c0-11.4943.0692-20.8986.1538-20.8986.0845 0 8.421 4.8146 18.5257 10.6993C30.3263 49.9183 38.6258 54.733 38.665 54.733c.0393 0 .0715-4.5725.0715-10.1612 0-7.8132.0578-10.24.25-10.5029.2261-.3092.7265-.3367 5.2492-.2882l4.9992.0536.051 21.4486c.0279 11.7967-.017 21.445-.1 21.4406-.083-.0044-.7359-.351-1.4508-.7702zm65.7901-21.4243V33.9263l18.7471.054 18.7472.054.9369.5614c1.1933.715 2.2836 1.9209 2.7765 3.071.3646.8506.386 1.4676.3852 11.1332-.001 10.041-.0086 10.2459-.421 10.9327-.231.385-.6131.9143-.849 1.1762-.4718.524-2.6242 1.6232-3.1786 1.6235-.1924 0-.3499.1008-.3499.2238s1.5594 2.4854 3.4654 5.2497c4.424 6.4162 4.7334 6.8744 4.7334 7.0119 0 .0626-3.1465.114-6.9922.114h-6.9921l-4.0178-5.997c-2.2099-3.2984-4.154-6.1332-4.3205-6.2996-.2536-.2537-1.093-.3027-5.1876-.3027h-4.885l-.0013 4.9497c-.001 2.7223-.0588 5.5572-.129 6.2996l-.1274 1.35h-12.3403V54.529zm28.9956-6.1956v-5.9996h-16.3432l-.1271.9278c-.07.5103-.1272 3.123-.1272 5.806 0 4.872.001 4.8785.45 5.0592.2474.0994 3.9818.1865 8.2987.1935l7.8488.0127zm28.7361 26.5098c-1.782-.6357-3.1934-2.0788-3.848-3.9343-.4443-1.2594-.435-31.4842.0102-32.7892.4556-1.3356 1.6477-2.7615 2.8975-3.4657l1.0998-.6197h35.7946l.9658.4934c1.0993.5616 2.1062 1.5947 2.775 2.8474l.4585.859.0569 15.9989c.0635 17.8739.1435 16.7769-1.3627 18.6825-.5197.6576-1.1712 1.1735-2.0129 1.5942l-1.2445.622-17.4154-.0089c-14.125-.007-17.5589-.06-18.1747-.2796zm28.8552-20.3102V42.9337h-21.1968v23.1985h21.1968zm-59.4258-31.9278c-.0912-.0912-.12-1.9154-.12-7.5995V7.5262h15.0977v3.2998h-2.8833c-1.586 0-3.903.0297-5.1493.066l-2.2658.0659v2.468l1.7247.0005c.9487.0003 2.0992.0298 2.557.0654l.832.0648-.0698.508c-.1215.884-.4317 2.2882-.5263 2.3827-.05.05-.8507.1125-1.7794.1387-.9286.0262-1.9246.0716-2.2133.1008l-.5249.0532v2.5854h10.268l.0603 1.2013c.0332.6606.0338 1.4256.0013 1.6998l-.059.4987h-7.415c-5.6339 0-7.4438-.0288-7.535-.12zm-18.7533-.4421c-.0351-.2561-.0638-3.6767-.0638-7.6013V7.4262l5.3742.0132c2.9558.0073 6.0715.041 6.9239.075l1.5498.0618.0275 1.5106c.0206 1.1303-.0046 1.537-.1 1.616-.082.0677-1.7026.1314-4.541.1785l-4.4136.0732-.0597.3607c-.0328.1984-.0601.7545-.0607 1.2357l-.0011.875h5.2247l-.0638.4249c-.1122.7466-.4788 2.4408-.5549 2.5639-.05.081-.6261.1347-1.8148.169-.9578.0276-1.977.074-2.2648.103l-.5234.053-.0265 2.9177-.0265 2.9178-2.2608.0269-2.2609.0268zm-18.4611-7.0874V7.5262h13.798v3.2998l-2.5247.0003c-1.3885 0-3.4357.0298-4.5493.0659l-2.0247.0656v2.468l1.8748.0008c1.031.0004 2.1784.0294 2.5496.0644.6238.059.6749.0816.6749.299 0 .3611-.4828 2.5586-.5846 2.6603-.0494.0495-.8718.111-1.8274.1366-.9556.0256-1.9736.0706-2.2623.0999l-.525.0532v5.8852h-4.5992v-7.5495zm-22.6748.6676l.0283-6.882.2682-.4052c.515-.7782.7578-.8563 2.974-.9576 2.4729-.113 11.2292-.0234 11.699.1197.4134.126.9583.6286 1.2012 1.108.2586.5104.3085 2.3289.235 8.5761l-.0625 5.3265-2.3583-.0268-2.3584-.0268-.027-2.122-.027-2.122-.2729.0544c-.1501.03-1.6453.2676-3.3225.5283l-3.0496.4738-.0619.7438c-.034.4091-.0678 1.1376-.075 1.6188l-.013.875h-4.8059zm8.7713.0783c1.3992-.217 2.5915-.442 2.6496-.5.0655-.0654.1179-.9208.1378-2.2519l.032-2.1464-3.3815.0263-3.3816.0264-.0336.6c-.0184.33-.0025 1.5478.0355 2.7063l.069 2.1064.6644-.0862c.3654-.0474 1.8092-.2638 3.2084-.4809zm-27.3457 6.7108c-.6773-.1635-1.2878-.7568-1.4199-1.38-.044-.2074-.0799-3.0319-.0799-6.2767 0-6.6015-.0463-6.1682.7357-6.8747.283-.2558.5386-.3838.8813-.4415.2655-.0447 3.1052-.0817 6.3105-.0823 5.07-.0009 5.8407.0185 5.9277.149.1286.193.0774 2.9568-.0573 3.0864-.0583.0561-1.9748.131-4.5993.1798l-4.4993.0836v8.1994l4.5317.0658c2.4925.0361 4.5602.0941 4.595.1289.092.092.1575 2.4843.0793 2.9009l-.0664.3542-6.0196-.0102c-3.3107-.0056-6.1545-.0428-6.3195-.0826zm85.7928-18.0552c-.8957-.3191-1.387-.9506-1.617-2.0788-.1908-.9357-.136-1.2718.2076-1.2718.2454 0 6.9182 1.8849 8.1981 2.3157.635.2138.703.2635.781.5713.1625.6417.3308.6132-3.598.6084-2.8091-.0034-3.6622-.0345-3.9717-.1448z" fill="#ffffe0"/><path d="M3.9417 75.2804c-1.9085-.0132-2.3057-.029-2.4407-.0973l-.0458-.0231-.0116-.6507c-.0063-.3578-.0155-2.1182-.0205-3.9119a14613.394 14613.394 0 00-.0185-6.2265l-.0096-2.9653h11.066v.5347c-.0001.6308-.027 5.5823-.0523 9.6558-.01 1.5847-.0229 3.0576-.029 3.2732l-.0108.3919-.144.0096c-.2334.0157-6.3728.0227-8.2832.0096z" fill="#ffffe0"/><path d="M48.94 76.684c-2.58-1.445-10.5886-6.1127-26.9444-15.704-4.8522-2.8453-8.969-5.2514-9.1487-5.3467l-.3266-.1734-.0312 1.192c-.0172.6555-.0462 5.0279-.0645 9.7163-.0182 4.6885-.0466 8.6096-.0629 8.7137l-.0297.1892-5.355-.0142c-2.9453-.0078-5.394-.0334-5.4418-.0568-.0808-.0396-.0877-.262-.1005-3.2248-.0308-7.1113-.0276-28.4243.005-33.3954.0377-5.725.0233-5.458.2885-5.3571.168.0638 5.0472 2.9014 30.7017 17.8548 3.3889 1.9753 6.1809 3.5914 6.2045 3.5914.0236 0 .0574-4.4315.0751-9.8618.0178-5.424.0462-10.1131.0633-10.4202.0285-.5125.0398-.5608.1373-.5896.0584-.0173 1.2986-.0567 2.756-.0876 2.6304-.0557 7.5775-.0023 7.6626.0828.0198.0198.0532.7148.0743 1.5443.0507 2.0047.0186 41.2738-.034 41.4182-.0225.0618-.0552.1121-.0726.1117-.0174-.0004-.1779-.0827-.3566-.1828z" fill="#ffffe0"/></svg>