<svg width="128" height="128" viewBox="0 0 128 128" fill="none" xmlns="http://www.w3.org/2000/svg">
<g clip-path="url(#clip0_5675_91321)">
<rect width="128" height="128" rx="24" fill="#4FC4CD"/>
<path fill-rule="evenodd" clip-rule="evenodd" d="M36.6052 53.3419C36.6052 50.2168 39.1342 47.674 42.2425 47.674L96.3274 47.6743C97.8995 47.6368 98.8902 46.9751 99.9532 45.1553C100.797 43.7103 101.687 41.5358 102.95 38.3603C103.274 37.5464 103.849 36.1284 103.962 35.8333C103.976 35.7964 104 35.7118 104 35.6699V35.6268C104 35.281 103.721 35 103.376 35H42.2425C32.1837 35 24 43.2281 24 53.3419V75.3777C24 85.4912 32.1837 93.7197 42.2425 93.7197H103.376C103.721 93.7197 104 93.4387 104 93.0928V93.0497C104 93.0082 103.976 92.9232 103.962 92.8863C103.849 92.5912 103.274 91.1733 102.95 90.3597C101.687 87.1839 100.797 85.0093 99.9532 83.5644C98.8902 81.7446 97.8995 81.0828 96.3274 81.045L42.2425 81.0456C39.1342 81.0456 36.6052 78.5032 36.6052 75.3777V53.3419Z" fill="white"/>
</g>
<defs>
<clipPath id="clip0_5675_91321">
<rect width="128" height="128" fill="white"/>
</clipPath>
</defs>
</svg>
