<?xml version="1.0" encoding="UTF-8"?>
<svg xmlns="http://www.w3.org/2000/svg" width="1440" height="780" viewBox="0 0 1440 780" fill="none">
  <rect width="1440" height="780" fill="#00E784"></rect>
  <path d="M475.558 414.909C471.388 419.623 466.147 423.306 460.26 425.66C454.374 428.015 448.006 428.975 441.671 428.462C435.337 427.95 429.214 425.979 423.799 422.71C418.383 419.441 413.826 414.966 410.496 409.645C408.304 406.108 406.668 402.265 405.644 398.248C405.538 397.828 405.438 397.408 405.346 396.983C405.313 396.846 405.289 396.714 405.265 396.582C404.751 394.021 404.497 391.416 404.506 388.806C404.506 388.391 404.506 387.975 404.53 387.56C404.567 386.465 404.686 385.375 404.885 384.297H373.183C373.183 384.647 373.139 384.987 373.12 385.331C373.12 385.331 373 387.659 373 388.806C372.996 395.438 373.944 402.037 375.815 408.408C376.646 411.441 377.727 414.404 379.048 417.265V417.265C383.959 428.242 391.627 437.812 401.333 445.079C411.038 452.345 422.463 457.069 434.535 458.808C446.606 460.546 458.93 459.242 470.348 455.018C481.767 450.794 491.906 443.788 499.815 434.657L475.558 414.909Z" fill="#00493E"></path>
  <path d="M643.624 458.31H614.803V355.815H643.624V370.186C645.63 366.887 648.288 364.015 651.439 361.74C656.67 357.845 662.833 356.386 668.708 355.385C675.232 354.289 681.91 354.427 688.382 355.791L689.574 356.037L684.621 386.809L683.099 386.219C677.088 383.799 670.504 383.098 664.106 384.198C658.215 385.042 652.881 388.086 649.215 392.696C646.189 396.426 644.33 401.293 643.701 407.162V408.875C643.648 409.758 643.624 410.702 643.624 411.684V458.31Z" fill="#00493E"></path>
  <path d="M767.032 415.405C765.506 419.741 762.862 423.615 759.358 426.647C755.854 429.679 751.61 431.766 747.04 432.705C742.47 433.643 737.731 433.401 733.285 432.001C728.839 430.602 724.838 428.093 721.673 424.719L744.998 414.895V414.862L756.527 410.046L793.513 394.575C790.454 381.898 782.712 370.79 771.791 363.407C760.869 356.024 747.545 352.892 734.407 354.619C721.268 356.346 709.25 362.809 700.686 372.754C692.122 382.699 687.623 395.416 688.061 408.437C688.499 421.459 693.843 433.856 703.057 443.223C712.27 452.59 724.696 458.259 737.922 459.129C751.148 460 764.232 456.01 774.634 447.934C785.036 439.858 792.014 428.271 794.214 415.424L767.032 415.405ZM741.511 380.129C747.254 380.125 752.848 381.929 757.473 385.275L714.722 403.139C715.604 396.769 718.803 390.929 723.728 386.698C728.653 382.468 734.97 380.134 741.511 380.129V380.129Z" fill="#00493E"></path>
  <path d="M1066.99 458.31H1038.11V398.876C1038.11 392.016 1036.63 387.234 1033.71 384.666C1030.77 382.05 1026.92 380.647 1022.96 380.747C1020.32 380.816 1017.73 381.527 1015.44 382.815C1012.86 384.184 1010.64 386.46 1008.86 389.594C1007.09 392.729 1006.15 396.959 1006.15 402.11V458.291H977.277V398.876C977.277 391.997 975.893 387.206 973.155 384.642C970.417 382.078 967.026 380.747 962.943 380.747C960.541 380.747 957.952 381.446 955.205 382.829C952.457 384.212 950.137 386.488 948.216 389.627C946.295 392.767 945.334 396.988 945.334 402.11V458.291H916.46V355.603H945.334V368.35C948.015 364.575 951.381 361.319 955.262 358.742C960.234 355.552 966.061 353.895 971.998 353.983C979.092 353.983 985.015 355.631 989.602 358.874C993.157 361.386 996.524 365.484 999.632 371.149C1002.3 367.075 1006.36 362.212 1012.06 359.021C1017.87 355.722 1024.47 353.991 1031.19 354.002C1038.25 354.002 1044.52 355.631 1049.85 358.841C1055.17 362.052 1059.45 367.113 1062.47 373.845C1065.49 380.577 1067 388.952 1067 398.9L1066.99 458.31Z" fill="#00493E"></path>
  <path d="M880.549 415.405C879.023 419.741 876.379 423.615 872.875 426.647C869.371 429.679 865.127 431.766 860.557 432.705C855.987 433.643 851.248 433.401 846.802 432.001C842.356 430.602 838.355 428.093 835.19 424.719L858.515 414.895V414.862L870.044 410.046L907.03 394.575C903.971 381.898 896.229 370.79 885.308 363.407C874.386 356.024 861.062 352.892 847.924 354.619C834.785 356.346 822.767 362.809 814.203 372.754C805.639 382.699 801.14 395.416 801.578 408.437C802.016 421.459 807.36 433.856 816.574 443.223C825.787 452.59 838.213 458.259 851.439 459.129C864.665 460 877.749 456.01 888.151 447.934C898.553 439.858 905.531 428.271 907.732 415.424L880.549 415.405ZM855.028 380.129C860.771 380.125 866.365 381.929 870.99 385.275L828.239 403.139C829.121 396.769 832.32 390.929 837.245 386.698C842.17 382.468 848.487 380.134 855.028 380.129V380.129Z" fill="#00493E"></path>
  <path d="M592.109 365.446C583.665 358.525 572.583 355.012 559.177 355.012C546.621 355.012 535.991 357.996 527.58 363.874C519.842 369.275 514.51 375.965 511.729 383.754L511.248 385.171L539.555 390.227L539.992 389.401C541.244 387.042 542.996 384.974 545.132 383.339C548.153 381.007 552.337 379.826 557.587 379.826C563.899 379.826 568.443 381.243 571.099 384.075C573.337 386.469 574.769 390.605 575.091 395.557C554.686 394.485 538.46 396.199 526.84 400.656C514.178 405.504 507.761 414.668 507.761 427.897C507.686 433.558 509.247 439.124 512.262 443.948C515.259 448.934 519.659 452.918 525.342 455.751C531.024 458.584 537.758 460 545.55 460C554.061 460 561.449 458.14 567.506 454.472C571.554 452.033 575.169 448.96 578.208 445.374V458.428H605.006V402.016C604.992 384.765 600.659 372.462 592.109 365.446ZM570.643 424.686C568.366 428.021 565.451 430.888 562.059 433.128C558.749 435.295 555.334 436.432 551.929 436.574C547.024 436.819 543.23 436.04 540.64 434.265C538.095 432.523 536.855 429.894 536.855 426.239C536.855 421.197 540.573 417.841 548.225 415.971C553.645 414.713 559.2 414.104 564.768 414.158C568.174 414.165 571.578 414.341 574.966 414.687C574.231 418.274 572.76 421.677 570.643 424.686Z" fill="#00493E"></path>
  <path d="M410.285 364.743C421.291 364.743 430.214 355.973 430.214 345.155C430.214 334.337 421.291 325.567 410.285 325.567C399.278 325.567 390.355 334.337 390.355 345.155C390.355 355.973 399.278 364.743 410.285 364.743Z" fill="#00493E"></path>
  <path d="M503.457 347.114C503.457 347.114 489.008 324.009 458.434 319L450.24 349.182C450.24 349.182 467.374 349.852 479.229 366.829L503.457 347.114Z" fill="#00493E"></path>
</svg>
