<?xml version="1.0" encoding="UTF-8"?> <!-- Generator: Adobe Illustrator 22.1.0, SVG Export Plug-In . SVG Version: 6.00 Build 0) --> <svg xmlns="http://www.w3.org/2000/svg" xmlns:xlink="http://www.w3.org/1999/xlink" id="Layer_1" x="0px" y="0px" width="1220px" height="125px" viewBox="0 0 1220 125" style="enable-background:new 0 0 1220 125;" xml:space="preserve"> <style type="text/css"> .st0{fill:#5C9021;} </style> <g id="logoCRFMobile" transform="translate(128.000000, 64.000000)"> <g id="Page-1"> <path id="Fill-1" class="st0" d="M-112.2,40.93C-121.8,31.01-128,16.51-128-1.58c0-17.29,6.05-31.88,15.5-42.15 c9.45-10.25,22.32-16.2,35.89-16.2c24.29,0.04,41.47,17.21,41.56,32.04c-0.01,7.93-4.98,14.07-11.74,14.08 c-3.31,0-6.42-1.14-8.71-3.32c-2.28-2.16-3.7-5.35-3.7-9.19c0-4.66,2.36-7.47,4.12-9.49c-3.21-5.59-9.52-10.21-19.45-10.23 c-8.42,0-15.52,4.4-20.63,12.18c-5.11,7.77-8.13,18.92-8.13,32.09s3.14,24.28,8.39,32.01c5.26,7.73,12.49,12.13,20.94,12.15 c9.91-0.03,16.23-4.58,19.44-10.23c-1.78-1.98-4.13-4.8-4.11-9.41c-0.02-3.87,1.4-7.07,3.7-9.23c2.27-2.16,5.4-3.33,8.7-3.33 c6.77,0,11.73,6.1,11.73,14.02c-0.08,14.91-17.26,32.01-41.56,32.06C-89.59,56.3-102.6,50.89-112.2,40.93z M231.12,3.29 c1.52-0.03,1.96-0.41,2.26-0.89c0.3-0.55,0.39-1.6,0.38-2.89c-0.15-7.5-5.94-14.43-14.85-14.43c-11.19,0-15.74,9.06-16.45,18.21 H231.12z M10.22,16.33C1.64,16.41-4.14,20.5-4.19,28.54c0.04,7.61,5.14,12.76,13.14,12.8c5.19,0.02,10.49-2.88,13.85-7.08V23.11 c0.02-1.52-0.99-3.18-3.1-4.51C17.57,17.27,14.37,16.33,10.22,16.33z M335.45,11.8c0.03,21.56,9.34,30.85,18.46,30.88 c10.44,0,18.01-9.3,18.07-27.46c0-9.51-2.07-17.1-5.47-22.22c-3.42-5.18-8.07-7.91-13.41-7.91 C342.27-14.89,335.51-5.02,335.45,11.8z M65.19,52.88c-3.37-0.95-5.53-2.8-5.52-5.59c0.02-1.1,0.33-2.27,0.9-3.56l0.19-0.4 l0.42-0.08c1.33-0.26,3.43-0.92,5.36-2.41c1.95-1.67,2.76-4,2.78-10.49V-2.52c-0.16-5.54-1.43-7.48-6.02-7.6 c-1.02,0-2.23,0.12-3.62,0.4L59-9.61l-0.26-0.66c-0.51-1.24-0.73-2.45-0.73-3.59c0.1-6.52,7.24-9.88,12.07-11.4 c1.87-0.56,3.64-0.87,5.29-0.87c6.56-0.02,10.09,4.64,11.63,10.63c4.28-6.98,11.12-11.6,17.79-11.63 c6.21,0.03,12.61,4.14,12.63,12.03c-0.02,5.61-3.93,11.46-10.53,11.49c-4.83,0-9.06-3.21-9.96-7.97 c-3.73,1.22-9.03,5.91-9.07,22.1v19.84c0.02,6.46,0.95,8.8,2.89,10.46c1.79,1.43,5.66,2.17,7.04,2.43l0.45,0.08l0.17,0.4 c0.64,1.38,0.99,2.64,0.99,3.82c0.03,2.67-1.97,4.5-5.13,5.38c-3.22,0.96-7.92,1.3-14.28,1.32 C73.48,54.24,68.59,53.88,65.19,52.88z M129.42,52.88c-3.36-0.95-5.51-2.78-5.49-5.59c0-1.1,0.31-2.27,0.9-3.56l0.17-0.4 l0.43-0.08c1.32-0.26,3.44-0.92,5.36-2.41c1.95-1.67,2.76-4,2.77-10.49V-2.52c-0.15-5.54-1.44-7.48-5.98-7.6 c-1.03,0-2.26,0.12-3.63,0.4l-0.7,0.11l-0.28-0.66c-0.48-1.24-0.72-2.45-0.72-3.59c0.12-6.52,7.24-9.88,12.09-11.4 c1.88-0.56,3.64-0.87,5.29-0.87c6.58-0.02,10.1,4.64,11.63,10.63c4.3-6.98,11.11-11.6,17.79-11.63 c6.2,0.03,12.61,4.14,12.62,12.03c-0.01,5.61-3.91,11.46-10.53,11.49c-4.82,0-9.05-3.21-9.96-7.97c-3.72,1.22-9.03,5.91-9.06,22.1 v19.84c0.02,6.46,0.94,8.8,2.89,10.46c1.8,1.43,5.66,2.17,7.05,2.43l0.43,0.08l0.19,0.4c0.62,1.38,0.98,2.64,0.98,3.82 c0.03,2.67-1.96,4.5-5.13,5.38c-3.24,0.96-7.92,1.3-14.28,1.32C137.74,54.24,132.84,53.88,129.42,52.88z M267.03,52.88 c-3.4-0.95-5.59-2.81-5.55-5.62c0-1.09,0.29-2.26,0.88-3.53l0.17-0.4l0.44-0.08c1.31-0.26,3.43-0.92,5.35-2.41 c1.95-1.67,2.78-4,2.79-10.49v-43.2l-11.51-0.43l-0.21-0.5c-0.59-1.44-0.87-2.8-0.87-4.05c0.02-4.21,3.24-7.02,7.26-7.03h5.03 v-4.78c0-11.56,2.13-18.14,5.07-22.53C280.35-59.2,288.13-64.03,300-64c14.88,0.01,27.39,7,27.45,18.24 c0,4.86-3.36,10.9-10.37,10.91c-5.23-0.01-10.07-4.44-10.1-10.05c0.02-2.05,0.68-4.14,1.7-5.72c-1.56-1.36-4.54-2.2-7.44-2.18 c-4.62,0.03-7.17,1.66-8.78,4.31c-1.59,2.69-2.13,6.63-2.11,11.09V-25h19.75l0.21,0.54c0.59,1.45,0.88,2.87,0.88,4.16 c0.02,4.32-3.06,7.55-6.89,7.92c-1.47,0.16-3.05,0.16-4.43,0.16c-3.3,0-6.54-0.23-8.95-0.28v42.87c0.02,6.45,1.07,8.79,3.02,10.46 c1.73,1.4,6.63,2.17,8.06,2.43l0.43,0.08l0.18,0.4c0.53,1.17,0.81,2.23,0.81,3.26c0,2.97-2.38,4.84-5.99,5.83 c-3.68,1.05-8.87,1.42-15.49,1.43C275.4,54.24,270.46,53.88,267.03,52.88z M501.95,52.88c-3.37-0.95-5.54-2.78-5.53-5.59 c0-1.1,0.34-2.27,0.92-3.56l0.17-0.4l0.44-0.08c1.23-0.26,3.44-0.92,5.29-2.41c2.01-1.68,2.77-4,2.79-10.49V-2.52 c-0.16-5.54-1.41-7.48-5.97-7.6c-1.04,0-2.26,0.12-3.64,0.4l-0.71,0.11l-0.25-0.66c-0.47-1.23-0.71-2.42-0.71-3.53 c0.12-6.55,7.24-9.94,12.04-11.46c1.95-0.56,3.65-0.87,5.38-0.87c6.53-0.02,10.05,4.71,11.56,10.76 c4.27-7.04,11.05-11.73,17.75-11.76c6.3,0.03,12.61,4.15,12.64,12.03c-0.03,5.61-3.93,11.46-10.46,11.49 c-4.85,0-9.09-3.21-10.05-7.97c-3.68,1.22-8.9,5.89-8.97,22.1v19.84c0.02,6.46,0.94,8.82,2.75,10.46c1.9,1.43,5.76,2.17,7.11,2.43 l0.42,0.08l0.18,0.4c0.63,1.4,0.98,2.67,0.98,3.86c0.03,2.66-1.93,4.48-5.09,5.35c-3.21,0.96-7.87,1.3-14.24,1.32 C510.27,54.24,505.35,53.88,501.95,52.88z M353.1,55.33c-10.95,0-20.92-4.12-28.13-11.39c-7.22-7.24-11.7-17.59-11.7-29.9 c0.04-24.4,19.07-40.98,40.53-41.02c11.54,0,21.56,4.12,28.66,11.36c7.11,7.22,11.29,17.51,11.29,29.66 c0,12.16-4.36,22.52-11.65,29.81c-7.27,7.27-17.46,11.48-28.97,11.48H353.1z M181.63,15.59c0-12.33,4.03-22.98,11.08-30.54 c7.05-7.59,17.1-12.03,29.01-12.03c10.86,0,18.9,4.05,24.19,9.87c5.26,5.81,7.76,13.32,7.76,20.27c0,4.09-0.85,7.91-2.62,11.15 l-0.23,0.43h-48.51c0.8,14.23,9.79,24.2,25.44,24.25c9.61,0.03,17.03-5.33,19.49-8.52l0.53-0.66l0.68,0.5 c1.39,1.02,2.91,2.84,2.88,6.41c-0.06,8.21-9.59,18.7-30.73,18.72C199.13,55.43,181.67,38.17,181.63,15.59z M461.2,51.68 c-1.42-1.98-2.18-4.55-2.88-7.45c-0.78,0.89-1.71,1.88-3.12,3.23c-5.18,4.91-11.99,7.88-19.66,7.87 c-8.34,0.01-15.45-3.23-19.98-8.62c-6.99-8.38-6.91-19-6.93-34.12V-1.94c-0.15-5.9-2-7.9-7.39-8.06c-0.71,0-1.49,0.04-2.31,0.14 l-0.66,0.07l-0.22-0.61c-0.43-1.09-0.63-2.12-0.63-3.12c0.16-7.05,9-10.82,14.19-11.9c1.81-0.29,3.51-0.57,5.17-0.57 c4.24-0.01,7.35,1.36,9.32,3.84c1.97,2.47,2.74,5.84,2.74,9.78l-0.15,24.84c-0.02,9.17,0.65,16.04,2.66,20.44 c2.03,4.38,5.11,6.45,10.78,6.49c6.19-0.03,9.91-2.69,12.29-6.67c2.38-4.01,3.25-9.41,3.25-14.6V-1.94c-0.15-5.9-2-7.9-7.39-8.06 c-0.71,0-1.48,0.04-2.31,0.14l-0.65,0.07l-0.23-0.61c-0.42-1.09-0.64-2.12-0.64-3.12c0.18-7.05,8.99-10.82,14.19-11.9 c1.79-0.29,3.55-0.57,5.19-0.57c4.23-0.01,7.36,1.36,9.33,3.84c1.97,2.47,2.75,5.84,2.75,9.78c0,2.84-0.26,7.9-0.26,29.05 c0,8.94-0.15,13.69-0.15,15.13c0.13,6.11,2.17,8.85,7.75,8.95l1.91-0.1l0.65-0.07l0.23,0.62c0.41,1.04,0.62,2.08,0.62,3.06 c-0.22,6.85-9.06,9.61-14.19,10.65c-1.78,0.29-3.4,0.54-4.85,0.54h-0.09C465.53,55.45,462.87,54.06,461.2,51.68z M-25.39,29.92 c-0.02-7.83,3.41-14.15,9.15-18.43c5.75-4.27,13.79-6.53,23.09-6.53c5.83,0,11.83,1.07,15.96,2.87v-8.77 c-0.13-8.85-3.44-13.85-13.28-13.97c-1.82,0-5.95,0.48-9.33,1.63c0.32,1.26,0.53,2.6,0.53,3.86c0,2.95-0.95,5.67-2.71,7.67 c-1.77,2.01-4.37,3.23-7.53,3.23C-15.21,1.46-19.5-3.19-19.51-9c0.12-10.75,13.05-17.97,30.3-17.97c13.7,0,22.28,3.26,26.87,9.21 c4.17,5.36,4.37,13.16,4.39,24.17v28.68c0.07,5.58,3.18,7.09,10.04,8.14l0.78,0.1l-0.04,0.79c-0.4,7.57-5.93,10.72-11.85,11.2 l-1.55,0.05c-5.83,0.03-11.44-2.87-14.13-8.73c-3.67,3.13-11.96,8.93-22.66,8.93C-13.28,55.57-25.36,44.73-25.39,29.92z"></path> <path id="Fill-3" class="st0" d="M633.88,57.56h1.7c3.18,0,4.79-1.77,4.79-5.33v-94.05l28.85,63.55c1.02,2.31,2.22,4.12,3.59,5.43 c1.36,1.32,3.53,1.99,6.49,1.99c2.84,0,4.98-0.67,6.4-1.99c1.43-1.31,2.64-3.12,3.67-5.43l29.03-63.55v94.05 c0,3.56,1.59,5.33,4.79,5.33h1.36c3.31,0,4.96-1.77,4.96-5.33V-47.85c0-2.18-0.77-3.96-2.31-5.33c-1.54-1.39-3.56-2.08-6.06-2.08 h-2.39c-2.96,0-5.06,0.72-6.32,2.15c-1.26,1.43-2.5,3.65-3.75,6.64l-29.21,64.92l-29.03-64.92c-1.26-3-2.5-5.21-3.75-6.64 c-1.26-1.43-3.36-2.15-6.32-2.15h-2.73c-2.5,0-4.53,0.69-6.07,2.08c-1.53,1.37-2.31,3.15-2.31,5.33V52.23 C629.27,55.79,630.81,57.56,633.88,57.56z M807.37,55.76c5.12-2.12,9.54-5.11,13.23-8.95c3.7-3.86,6.6-8.38,8.71-13.62 c2.11-5.22,3.16-10.93,3.16-17.13s-1.05-11.95-3.16-17.23s-5.01-9.84-8.71-13.68c-3.69-3.86-8.11-6.86-13.23-9.05 c-5.12-2.18-10.7-3.27-16.73-3.27c-6.15,0-11.78,1.06-16.91,3.18c-5.12,2.14-9.54,5.11-13.23,8.97c-3.7,3.85-6.6,8.37-8.71,13.61 c-2.11,5.23-3.16,10.94-3.16,17.14s1.05,11.94,3.16,17.21c2.11,5.29,5.01,9.86,8.71,13.69c3.69,3.86,8.11,6.87,13.23,9.05 c5.12,2.18,10.76,3.27,16.91,3.27C796.67,58.94,802.24,57.88,807.37,55.76z M778.34,46.62c-3.76-1.65-7-3.99-9.74-6.97 c-2.73-2.98-4.86-6.51-6.4-10.58c-1.53-4.08-2.31-8.54-2.31-13.35c0-4.84,0.77-9.25,2.31-13.28c1.54-4.02,3.68-7.48,6.4-10.41 c2.74-2.93,5.97-5.22,9.74-6.89c3.75-1.68,7.85-2.5,12.29-2.5s8.51,0.82,12.21,2.5c3.7,1.67,6.92,3.99,9.65,6.96 c2.74,3,4.87,6.52,6.4,10.6c1.54,4.07,2.31,8.52,2.31,13.35c0,4.82-0.77,9.24-2.31,13.26c-1.53,4.03-3.67,7.49-6.4,10.42 c-2.73,2.93-5.97,5.24-9.74,6.89c-3.75,1.68-7.79,2.5-12.12,2.5C786.19,49.12,782.09,48.3,778.34,46.62z M860.98,2.1 c2.62-5.97,6.34-10.71,11.18-14.21c4.84-3.51,10.85-5.25,18.02-5.25c4.1,0,7.88,0.82,11.35,2.5c3.47,1.67,6.46,3.96,8.96,6.89 c2.5,2.93,4.47,6.43,5.9,10.51c1.42,4.07,2.13,8.53,2.13,13.35c0,4.94-0.69,9.44-2.05,13.53c-1.37,4.07-3.31,7.58-5.81,10.51 c-2.5,2.93-5.52,5.18-9.05,6.79c-3.53,1.62-7.45,2.41-11.78,2.41c-3.87,0-7.54-0.71-11.01-2.15c-3.48-1.43-6.52-3.38-9.13-5.85 c-2.63-2.47-4.73-5.4-6.33-8.78c-1.59-3.4-2.38-7.04-2.38-10.94V2.1z M860.98,44.31c2.27,3.78,5.95,7.17,11.01,10.16 c5.06,2.98,11.3,4.47,18.7,4.47c5.69,0,10.9-1.03,15.62-3.09c4.73-2.08,8.85-5,12.39-8.8c3.52-3.79,6.26-8.35,8.19-13.68 c1.93-5.34,2.9-11.23,2.9-17.65c0-6.55-1-12.46-2.99-17.75c-2-5.29-4.73-9.79-8.19-13.52c-3.48-3.73-7.55-6.61-12.21-8.62 c-4.67-2.01-9.68-3-15.02-3c-6.72,0-12.52,1.35-17.42,4.05c-4.89,2.7-9.16,6.52-12.8,11.45v-37.88c0-4.49-0.75-7.41-2.21-8.8 c-1.49-1.37-3.2-2.06-5.13-2.06c-1.02,0-1.91,0.15-2.65,0.42c-0.74,0.3-1.11,0.55-1.11,0.78V52.23c0,2.06,0.46,3.46,1.37,4.21 c0.91,0.75,2.1,1.12,3.58,1.12h1.2c1.48,0,2.65-0.37,3.5-1.12c0.85-0.75,1.28-2.15,1.28-4.21V44.31z M961.04-53.01 c0-4.95-2.39-7.41-7.17-7.41c-5.01,0-7.51,2.46-7.51,7.41c0,4.93,2.38,7.41,7.17,7.41C958.54-45.6,961.04-48.08,961.04-53.01z M953.01,57.56h1.2c1.48,0,2.68-0.37,3.59-1.12c0.91-0.75,1.37-2.15,1.37-4.21v-72.69c0-2.08-0.46-3.48-1.37-4.23 c-0.91-0.75-2.11-1.12-3.59-1.12h-1.2c-1.48,0-2.67,0.37-3.58,1.12c-0.91,0.75-1.37,2.15-1.37,4.23v72.69 c0,2.06,0.46,3.46,1.37,4.21C950.34,57.19,951.53,57.56,953.01,57.56z M988.7,57.56h1.2c1.48,0,2.68-0.37,3.59-1.12 c0.9-0.75,1.36-2.15,1.36-4.21V-49.56c0-4.49-0.74-7.41-2.22-8.8c-1.48-1.37-3.18-2.06-5.12-2.06c-1.02,0-1.9,0.15-2.64,0.42 c-0.74,0.3-1.1,0.55-1.1,0.78V52.23c0,2.06,0.45,3.46,1.36,4.21C986.02,57.19,987.22,57.56,988.7,57.56z M1024.73,9.34 c0.57-3.9,1.7-7.49,3.42-10.76c1.7-3.27,3.84-6.1,6.4-8.45c2.57-2.35,5.49-4.19,8.8-5.51c3.3-1.33,6.89-1.98,10.76-1.98 c7.63,0,13.75,2.41,18.35,7.23c4.61,4.82,7.2,11.31,7.78,19.46H1024.73z M1024.21,18.99h63.19c1.7,0,2.89-0.24,3.58-0.69 c0.68-0.45,1.02-1.48,1.02-3.11v-1.02c0-6.21-0.91-11.85-2.73-16.98c-1.82-5.11-4.37-9.46-7.69-13.08 c-3.3-3.62-7.28-6.4-11.95-8.35c-4.67-1.95-9.85-2.93-15.54-2.93c-5.92,0-11.39,1.09-16.4,3.27c-5.01,2.19-9.33,5.19-12.97,9.05 c-3.65,3.85-6.49,8.43-8.54,13.78c-2.05,5.33-3.07,11.1-3.07,17.3c0,6.33,1.02,12.1,3.07,17.31c2.05,5.24,4.92,9.73,8.62,13.52 c3.69,3.79,8.13,6.72,13.32,8.8c5.18,2.06,10.85,3.09,17,3.09c5.46,0,10.32-0.69,14.59-2.06c4.27-1.38,7.85-3.02,10.75-4.92 c2.91-1.88,5.14-3.9,6.66-6.03c1.54-2.13,2.31-3.86,2.31-5.24c0-1.39-0.32-2.5-0.94-3.36c-0.63-0.87-1.34-1.55-2.13-2.07 c-0.8-0.52-1.54-0.83-2.22-0.96c-0.68-0.1-1.08-0.1-1.2,0c-1.14,1.96-2.5,3.83-4.1,5.61c-1.59,1.78-3.48,3.33-5.64,4.65 c-2.16,1.32-4.72,2.38-7.68,3.18c-2.96,0.82-6.44,1.22-10.41,1.22c-4.34,0-8.32-0.75-11.96-2.25c-3.64-1.48-6.83-3.54-9.55-6.2 c-2.74-2.64-4.93-5.79-6.58-9.47C1025.38,27.36,1024.45,23.35,1024.21,18.99z"></path> </g> </g> </svg> 