<svg xmlns="http://www.w3.org/2000/svg" viewBox="0 0 223.88 96.22"><path d="M140.2,34.28c.75.69,1.41,1.21,2,1.83a8.46,8.46,0,0,1,1.77,2.83,11.7,11.7,0,0,1,.69,3.3,7.79,7.79,0,0,1-.58,3.09,16.92,16.92,0,0,1-.9,1.93A4.79,4.79,0,0,1,141.76,49c-.75.58-1.55,1.09-2.32,1.63a5.39,5.39,0,0,0-.45.4c.11.18.2.32.27.46a5.51,5.51,0,0,1,.58,3.65,3.81,3.81,0,0,1-.39,1.39,4.42,4.42,0,0,1-1.76,1.67,4.64,4.64,0,0,1-2.36.51c-1.93,0-3.87,0-5.8,0-.54,0-.7.13-.85.66a1.82,1.82,0,0,0,.24,1.57c.27.4.49.83.71,1.21a.56.56,0,0,1-.59.33l-8.87,0H98.26a4.15,4.15,0,0,1-.49,0c-.15,0-.36-.07-.41-.18a.63.63,0,0,1,0-.5c.21-.39.49-.75.7-1.15a1.36,1.36,0,0,0,.15-.63c0-.38-.09-.75-.15-1.21a9,9,0,0,0-1-.1c-1.93,0-3.87,0-5.81,0a4.83,4.83,0,0,1-2.73-.81,3.55,3.55,0,0,1-1.33-1.63,4.32,4.32,0,0,1-.35-2.83s0,0,0-.06a4.1,4.1,0,0,1,.94-2.31c-.13-.14-.23-.34-.38-.4A8.53,8.53,0,0,1,84.94,49a5.15,5.15,0,0,1-.88-1A11.71,11.71,0,0,1,83,46.14a8.09,8.09,0,0,1-.8-3.21c0-.49,0-1,0-1.48a9,9,0,0,1,1.26-3.86,8.57,8.57,0,0,1,2.68-2.9.87.87,0,0,0,.4-.92,4,4,0,0,1,.63-3.07,12.08,12.08,0,0,1,1.37-1.3,1,1,0,0,0,.29-.37c.17-.62.3-1.24.45-1.86a15.75,15.75,0,0,1,.44-1.8,25,25,0,0,1,1.1-2.67,34.71,34.71,0,0,1,1.9-3.5,18.64,18.64,0,0,1,2.75-3.39c.78-.74,1.52-1.53,2.36-2.2a24.47,24.47,0,0,1,2.87-2c1.16-.67,2.39-1.24,3.59-1.83a9.29,9.29,0,0,1,1.35-.45c.91-.25,1.82-.54,2.74-.73a17.11,17.11,0,0,1,3.9-.46c1.37,0,2.74,0,4.11.12a19.25,19.25,0,0,1,3,.58,25.84,25.84,0,0,1,2.88.87c.81.3,1.59.71,2.38,1.09a19.69,19.69,0,0,1,3.49,2.12c.85.67,1.68,1.36,2.45,2.1a20.76,20.76,0,0,1,3.12,3.57,23.49,23.49,0,0,1,2.78,5.18c.29.88.6,1.75.9,2.63.07.22.12.46.17.69.14.62.25,1.25.42,1.86a1,1,0,0,0,.36.44A5.49,5.49,0,0,1,139.75,31a4.3,4.3,0,0,1,.44,2.49c0,.32,0,.63,0,.81M98.08,28c.19-.41.36-.81.55-1.2.34-.71.66-1.42,1-2.12.18-.33.46-.61.67-.93a14.35,14.35,0,0,1,2.81-3.11,14.58,14.58,0,0,1,3.25-2.1,13.05,13.05,0,0,1,2.33-.94,22.76,22.76,0,0,1,2.61-.53,16.06,16.06,0,0,1,4,0,15.45,15.45,0,0,1,5.61,1.71,16.23,16.23,0,0,1,4.82,3.86,8.92,8.92,0,0,1,1,1.3c.41.66.79,1.35,1.14,2.05.26.52.46,1.07.68,1.61a.62.62,0,0,0,.61.45l1.91,0,3.67,0a1.17,1.17,0,0,0,.91-.24,22.59,22.59,0,0,0-7.75-12.43,22.13,22.13,0,0,0-15.12-5.19,22.37,22.37,0,0,0-15.31,6.54A22,22,0,0,0,91.22,27.8a5.33,5.33,0,0,0,.65.15,6.49,6.49,0,0,0,.76,0h5.45m7.14,9.8c-.29-.24-.5-.42-.72-.58a13.8,13.8,0,0,0-2.68-1.67c-1-.44-2-.91-3.08-1.25a22.5,22.5,0,0,0-2.62-.53l-.48-.1a15.88,15.88,0,0,0-2-.23c-.67,0-1.39-.2-2,.26-.06.05-.17,0-.26,0a8.8,8.8,0,0,0-3.43,1.2,8.16,8.16,0,0,0-3.51,4.63A8.5,8.5,0,0,0,84,41.4a11.07,11.07,0,0,0,0,3.2,6.55,6.55,0,0,0,3.21,4.7,5.11,5.11,0,0,0,1,.49c.68.22,1.37.35,2,.56a5.11,5.11,0,0,0,5.23-2,4.72,4.72,0,0,0,.83-2.88A3.89,3.89,0,0,0,95.2,43a7.18,7.18,0,0,0-3.2-1.8c-.28-.09-.52-.17-.61-.57a3.7,3.7,0,0,1,.39-.43c.34-.27.71-.51,1-.77A7.62,7.62,0,0,1,96.17,38a9.31,9.31,0,0,1,6.66,1.31,9,9,0,0,0,.9.51c.39.19.61.09.78-.3s.37-.76.53-1.14a5,5,0,0,0,.18-.62m30.22,2.9a1.12,1.12,0,0,1-.83.56,6.39,6.39,0,0,0-3.33,2.13,3.25,3.25,0,0,0-.82,2.14,4.49,4.49,0,0,0,.33,2.07,5.28,5.28,0,0,0,1.07,1.53,5,5,0,0,0,1.42.89,4.63,4.63,0,0,0,2.44.47,10.52,10.52,0,0,0,3.5-1,6.22,6.22,0,0,0,3.5-4.72,10.38,10.38,0,0,0-1.7-7.91,7.22,7.22,0,0,0-2.94-2.37,6.08,6.08,0,0,0-2.17-.7,4.61,4.61,0,0,1-1.13-.21,5.5,5.5,0,0,0-2.17-.16c-.44,0-.86.16-1.3.21a18.64,18.64,0,0,0-4.5,1,23.11,23.11,0,0,0-3.07,1.53,21.31,21.31,0,0,0-1.93,1.33.57.57,0,0,0-.19.78c.28.54.59,1.08.92,1.68a2,2,0,0,0,.46-.14,4.31,4.31,0,0,0,.61-.37A9.4,9.4,0,0,1,127.4,38a8.27,8.27,0,0,1,5.22.7,11.61,11.61,0,0,1,1.56.92,15.07,15.07,0,0,1,1.26,1.06M115.55,51.59c0,.25,0,.61-.06,1a.5.5,0,0,0,.29.54c.58.3,1.16.6,1.74.92l2.67,1.45c.87.48,1.16.39,1.39-.74a9.18,9.18,0,0,0,0-3,6.39,6.39,0,0,0-1-2.59,8,8,0,0,0-3-2.77,8.17,8.17,0,0,0-3.67-.89,6.9,6.9,0,0,0-1.56.22,6.75,6.75,0,0,0-2.61,1.09,10.27,10.27,0,0,0-1.67,1.56,7,7,0,0,0-1.63,3.58,6.88,6.88,0,0,0,.24,3.56A8.31,8.31,0,0,0,109,59a7.88,7.88,0,0,0,2.87,1.52,6.62,6.62,0,0,0,3.82.11,9.58,9.58,0,0,0,1.83-.69,5.85,5.85,0,0,0,.82-.44.51.51,0,0,0,.11-.81c-.56-.74-1.14-1.47-1.72-2.19s-1.24-1.48-1.85-2.23c-.39-.48-.72-.55-1.32-.21-.11.7-.23,1.42-.34,2.14a.31.31,0,0,1-.11-.22c0-.56-.07-1.13-.1-1.69s-.33-.83-.91-.46c-.25.16-.46.36-.69.54s-.32.3-.58.11c.47-.53.93-1,1.41-1.56-.87-.51-1.75-.11-2.57-.35l2.38-.64c.11-.37.34-.68.07-1s-.49-.59-.73-.88-.21-.31-.37-.54c.2,0,.28,0,.33,0a5,5,0,0,1,.83.62,1.2,1.2,0,0,0,1.46.24c.47-.54.41-1.3.7-1.94a1.23,1.23,0,0,1,.1.52c0,.42,0,.84,0,1.26s.37.77.9.57c.26-.09.49-.23.74-.34l.4-.17.13.18-1.13,1.09m-20.69.87A5.25,5.25,0,0,0,96,56.32a7.39,7.39,0,0,0,1.59,1.57,7.11,7.11,0,0,0,2.17,1,5.43,5.43,0,0,0,2.8,0c.4-.11.78-.29,1.18-.4a5.24,5.24,0,0,0,2.13-1.38c.35-.33.33-.57.06-1a6.91,6.91,0,0,1-1.06-3.23,6.37,6.37,0,0,1,.6-3,3.88,3.88,0,0,1,.46-.85c.31-.42.33-.63,0-1a6.44,6.44,0,0,0-4.06-1.94,6.06,6.06,0,0,0-2,.11,6.77,6.77,0,0,0-3.14,1.7,6.33,6.33,0,0,0-1.48,2.14,4.33,4.33,0,0,0-.4,2.4m12.85-13.37.63-1.14a.83.83,0,0,0-.14-1c-.45-.52-.87-1.07-1.35-1.57A21,21,0,0,0,103,32.09a17.63,17.63,0,0,0-4.39-2,16.54,16.54,0,0,0-2.09-.45,10.34,10.34,0,0,0-5.24.18,6.94,6.94,0,0,0-1.87.87,4.38,4.38,0,0,0-1.58,2.17.84.84,0,0,0,.08.88,3.37,3.37,0,0,0,.45,0c.81-.11,1.62-.25,2.44-.35s1.33-.18,2-.2a21.33,21.33,0,0,1,5.9.6,17.47,17.47,0,0,1,3.37,1.1,15.07,15.07,0,0,1,5.07,3.73,6.33,6.33,0,0,0,.59.49M119.2,39c.19-.2.36-.38.54-.55a20.3,20.3,0,0,1,2.18-2,12.91,12.91,0,0,1,4.94-2.36c.08,0,.16-.07.25-.1s.47-.17.71-.23.43-.09.65-.12a27.46,27.46,0,0,1,3.22-.47,18.27,18.27,0,0,1,4,.14c.89.18,1.84.1,2.75.36a1.9,1.9,0,0,0,.48,0c0-.17.07-.27.09-.37a2,2,0,0,0-.43-1.27,5.24,5.24,0,0,0-3-2.29,10.49,10.49,0,0,0-3-.41,13.94,13.94,0,0,0-3,.35,14.72,14.72,0,0,0-2,.54,11.93,11.93,0,0,0-2.81,1.3c-.69.47-1.44.85-2.12,1.34a16.32,16.32,0,0,0-2.82,2.56c-.44.51-.84,1.05-1.28,1.57a.74.74,0,0,0-.16.76A2.21,2.21,0,0,0,119.2,39m-4.88-6.82v0h7.22c1.13,0,1.18-.06,1.11-1.18,0-.56-.1-.66-.66-.7s-1.42-.07-2.13-.07c-.93,0-1.85.06-2.78.06-1.38,0-2.77-.06-4.15-.08-1.11,0-2.22,0-3.33,0h-4.2a2.63,2.63,0,0,0-.49,0c-.64.09-.76.24-.75.89,0,.13,0,.26,0,.39,0,.46.12.56.57.63l.38,0h9.2m-10.87-8.32c-.06,1.68,0,3.32,0,4.94.14.07.21.13.27.13a30.14,30.14,0,0,0,3.16-.11,1.67,1.67,0,0,0,1-.79,3.3,3.3,0,0,0,.32-2.44c-.25-1-.65-1.75-1.93-1.81-.75,0-1.5,0-2.24,0a2,2,0,0,0-.54.1M91.9,56.06a1.54,1.54,0,0,0,.43,0c.61-.16,1.26-.27,1.49-1a1.75,1.75,0,0,0-.58-1.94,5.27,5.27,0,0,0-1.45-.85,2.67,2.67,0,0,0-2.4.13,1.17,1.17,0,0,0-.65,1,2,2,0,0,0,.63,1.74,3.78,3.78,0,0,0,2.53,1m12.56-13.14a6.09,6.09,0,0,0-.55-1.17,5.18,5.18,0,0,0-3.39-1.93,6.41,6.41,0,0,0-3.34-.11.91.91,0,0,1-.33,0,2.58,2.58,0,0,0-1.55.52c-.32,1,0,1.35,1,1.16.37-.06.75-.1,1.14-.13a12.38,12.38,0,0,1,3,.26,20.2,20.2,0,0,1,4,1.37m26.61-1.38c.53-.37.71-.87.39-1.18a2,2,0,0,0-.92-.55,9.62,9.62,0,0,0-5.1.22,5.61,5.61,0,0,0-2.55,1.67,1.53,1.53,0,0,0-.5,1c.24.19.43.09.62,0a2.2,2.2,0,0,1,.32-.21,16.73,16.73,0,0,1,3.54-1,11,11,0,0,1,4.2.16m-4.51,5.76a1.17,1.17,0,0,0,.2,1.37c.84,1,1.69,2,2.49,3.1a1.8,1.8,0,0,0,1.88.68,1.1,1.1,0,0,0,.91-1,1.64,1.64,0,0,0-.86-1.48c-.55-.43-1.11-.82-1.67-1.22s-1.31-.93-2-1.38a.93.93,0,0,0-1-.06m-8.29-22.18c0-.49-.08-.65-.39-.86-.13-.1-.28-.16-.41-.26a3.18,3.18,0,0,0-3.14.34,3.22,3.22,0,0,0-.82,1.57,3.46,3.46,0,0,0,.34,2c.1.3.48.52.77.73a2.8,2.8,0,0,0,3.52-.48.75.75,0,0,0,.11-.77c-.09-.28-.36-.27-.6-.29a.66.66,0,0,0-.62.35,1.07,1.07,0,0,1-1.29.47c-.6-.23-.86-.48-.87-1.05,0-.36,0-.73,0-1.09a.83.83,0,0,1,.66-.89,1.28,1.28,0,0,1,1.37.19c.55.55.72.55,1.36,0m5.62-.05a1.31,1.31,0,0,0-.64-1,3,3,0,0,0-2.63-.22,1.8,1.8,0,0,0-1.07.82,3.54,3.54,0,0,0-.12,3.26,1.28,1.28,0,0,0,.23.29,3,3,0,0,0,3.22.59,1.56,1.56,0,0,0,1-1c.16-.41,0-.68-.47-.73a.68.68,0,0,0-.76.39,1.32,1.32,0,0,1-1.21.46,1.15,1.15,0,0,1-.9-1c0-.38,0-.76,0-1.14a1,1,0,0,1,.79-1,1.24,1.24,0,0,1,1.31.33c.46.46.83.46,1.32-.06m14.59,27.86A12.68,12.68,0,0,0,134,53c0,.82,0,1.65,0,2.48,0,.34.22.5.6.51.62,0,1.24,0,1.86,0a1.69,1.69,0,0,0,1.25-.59,3.18,3.18,0,0,0,.77-2.44m-29.75-29c-.13.62,0,.78.57.8.8,0,.91.13.91.93,0,.6,0,1.2,0,1.8V28.8a1.08,1.08,0,0,0,1.33-.05V24.87l1.48-.21c0-.25,0-.5.06-.73a14,14,0,0,0-4.34,0M128.1,53.28a8.64,8.64,0,0,0-.89.49c-1.17.82-2.32,1.67-3.49,2.5a.9.9,0,0,0-.38.85c.09.27.62.72.85.69a.39.39,0,0,0,.25-.1l1.63-1.45c.73-.65,1.44-1.33,2.19-2,.46-.39.44-.71-.16-1m-1.81-.66a.85.85,0,0,0,0-.32A6,6,0,0,0,125,50.39a.39.39,0,0,0-.54-.08.71.71,0,0,0-.21.46.69.69,0,0,0,.16.45c.36.45.74.89,1.13,1.33a.53.53,0,0,0,.79.07m1.5-.75a4.25,4.25,0,0,0-1.64-2.38c-.56.21-.67.59-.3,1l1.07,1.23a.64.64,0,0,0,.87.12m-4.15.14c-.27.29-.27.37,0,.81a1.37,1.37,0,0,1-.19,1.88,3.47,3.47,0,0,0-.27.46l.12.1a5.85,5.85,0,0,0,1.5-1.26.51.51,0,0,0,.08-.46A3,3,0,0,0,123.64,52m4.46,5.39c.33.34.57.38.84.11a4.19,4.19,0,0,0,.67-.79.53.53,0,0,0,0-.49c-.09-.1-.39-.17-.47-.1-.43.34-.92.66-1,1.27m-14.33-5.85a.56.56,0,0,0-.59.56.61.61,0,0,0,.62.62.66.66,0,0,0,.59-.71.55.55,0,0,0-.62-.47M99.21,44.4c.31.27.31.27,1.4.25.2,0,.44.08.56-.19a2.56,2.56,0,0,0-2-.06" style="fill:#90251e"/><path d="M157.27,14.08a.55.55,0,0,0-.19-.67,5.77,5.77,0,0,1-.64-.67,10.79,10.79,0,0,0-3.12-2.45,17.29,17.29,0,0,0-2.39-.82c-1.54-.52-3.11-.23-4.66-.27a1.67,1.67,0,0,0-.51.16c-.16.05-.33.08-.52.12,0-.15-.05-.25,0-.28.35-.36.57-.86,1.09-1a.41.41,0,0,0,.2-.09,4.77,4.77,0,0,1,2.43-1.22,10.75,10.75,0,0,1,2.42-.42c.67-.07.89-.3.78-1a2.79,2.79,0,0,1,0-.51,1.4,1.4,0,0,1,.47,0c.43.19.86.4,1.28.61.26.13.5.28.76.42a12.89,12.89,0,0,1,2.71,2.34,9.15,9.15,0,0,1,1.2,1.68c.23.36.37.78.57,1.16s.32.52.56.9a4.86,4.86,0,0,0,.57-1.27,3.52,3.52,0,0,1,.69-1.49c.26-.44.58-.85.79-1.3a1.89,1.89,0,0,1,.57-.71c.37-.3.68-.67,1.07-.93a12.46,12.46,0,0,1,3-1.53,10.71,10.71,0,0,1,3.18-.24.81.81,0,0,1,.27,0l1.64.61a.3.3,0,0,1,.21.45l-.34.07a13.74,13.74,0,0,0-2.25.58A6.05,6.05,0,0,0,166.59,8a3,3,0,0,0-.46.74.76.76,0,0,0,.58,1,2.57,2.57,0,0,1,.48.11,4.54,4.54,0,0,1,.53.3.66.66,0,0,1,0,.14,5.46,5.46,0,0,0-.67.26,11.86,11.86,0,0,0-3.58,2.71c-.36.41-.77.76-1.16,1.14s-.44.57-.14,1.2c.39.24.65,0,.91-.26a17.5,17.5,0,0,0,1.72-1.49,10.78,10.78,0,0,1,1.94-1.3,3.52,3.52,0,0,1,1.1-.44c.83-.21,1.67-.38,2.5-.56.31-.06.61-.11.92-.15a2.85,2.85,0,0,1,.87-.05c.79.16,1.58.39,2.37.56a4.57,4.57,0,0,1,1.38.5c.52.32,1.1.56,1.59.92a11.16,11.16,0,0,1,2.9,3.07,2.85,2.85,0,0,1,.23.55l-1.34.72a7.56,7.56,0,0,0,.8,2.1,5.32,5.32,0,0,1,.59,1.45c.14.42.21.87.35,1.47.52.5.31,1.32.29,2.09a.56.56,0,0,1-.31.39c-.11,0-.3-.12-.43-.23s-.4-.36-.6-.53c-.75-.64-1.49-1.28-2.25-1.91a7.68,7.68,0,0,0-1.12-.77.89.89,0,0,0-.66,0,.62.62,0,0,1-.82-.17,6.87,6.87,0,0,0-3.08-1.9,12.55,12.55,0,0,0-2.11-.66,20.7,20.7,0,0,0-2.73-.09,1.68,1.68,0,0,0-.54.08,1.71,1.71,0,0,0-.35.21c.18.12.29.27.42.28a3.88,3.88,0,0,1,1.41.57c.82.42,1.64.84,2.44,1.3.61.35,1.19.75,1.77,1.15.24.16.41.41.65.58a16.93,16.93,0,0,1,2.71,2.43c.5.57.93,1.2,1.5,2a4.05,4.05,0,0,0-.77.57,8.65,8.65,0,0,0-1.15,2,16.09,16.09,0,0,0-1,3.58,10.31,10.31,0,0,1-.7,2.27,3.28,3.28,0,0,1-.45.67,12.27,12.27,0,0,1-.88,1,1.12,1.12,0,0,1-1.09.39c0-.35,0-.69,0-1a5.26,5.26,0,0,0-.24-1.66,4.38,4.38,0,0,1-.08-1.36c0-.56-.09-.67-.62-.87a7.86,7.86,0,0,1-1.19-.5.77.77,0,0,1-.36-.5,21.9,21.9,0,0,1-.58-3.61,7.89,7.89,0,0,0-.21-1.35.58.58,0,0,0-.56-.5,3.89,3.89,0,0,1-.88-.27.89.89,0,0,1-.42-.34,20.52,20.52,0,0,0-2-2.85c-.56-.77-1.22-1.45-1.83-2.16a.84.84,0,0,0-.9-.26c-.35.1-.39.43-.36.72a7.08,7.08,0,0,0,.23,1,4.21,4.21,0,0,1-2.12.05c0-.23-.07-.49-.07-.75,0-.76-.28-1-1-.83a4.84,4.84,0,0,0-2.79,1.67c-.53.57-1,1.18-1.54,1.76a4.31,4.31,0,0,1-.5.43l-.44-.42a1,1,0,0,0-1.38-.09,5,5,0,0,0-1.85,2.51c-.2.52-.45,1-.63,1.54-.1.31-.09.65-.16,1s-.15.39-.2.59a2.67,2.67,0,0,0-.14.67c0,.49,0,1,0,1.51-.69-.09-.61-.84-1.05-1-.27-.71-.54-1.36-.75-2a3,3,0,0,1,0-2.09,1.7,1.7,0,0,0,.15-.52,4.78,4.78,0,0,1,1-2.38c.25-.4.48-.8.73-1.2a13.82,13.82,0,0,1,1.87-2.17q.75-.75,1.56-1.44c.37-.31.79-.57,1.19-.85a1.73,1.73,0,0,0,.31-.22.48.48,0,0,0-.22-.82.45.45,0,0,0-.16,0,17.93,17.93,0,0,0-2.82.26,14.25,14.25,0,0,0-2.56.94c-.22.12-.45.24-.66.38-.49.35-.55.36-1,0a1.81,1.81,0,0,0-1.28-.39,1.13,1.13,0,0,0-.32.06,7.78,7.78,0,0,0-2.94,2.36c-.29.35-.6.69-.86,1.06a6.53,6.53,0,0,0-.64,1.08c-.43.91-.83,1.83-1.25,2.75l-.08,0a1.62,1.62,0,0,1-.1-.34,7.86,7.86,0,0,1,.07-2.94.71.71,0,0,0,0-.38,2.91,2.91,0,0,1,.48-1.92,10.24,10.24,0,0,1,.5-1.13,7.19,7.19,0,0,1,1.38-1.53,3.7,3.7,0,0,0,.36-.33.91.91,0,0,0,.11-1.16c-.13-.23-.22-.49-.33-.74a.63.63,0,0,1,.27-.81,10.44,10.44,0,0,1,1.33-1,7.08,7.08,0,0,1,1.39-.46,18.36,18.36,0,0,1,6.14-.33,13.28,13.28,0,0,1,2.58.38,10.21,10.21,0,0,1,1.63.37c.6.26,1.29.21,1.84.63a.91.91,0,0,0,1.12-.09" style="fill:#3f804b"/><path d="M53.41,5.78A.86.86,0,0,1,54.15,5c.42-.13.84-.24,1.26-.34a4.19,4.19,0,0,1,.7-.09c.51,0,1,0,1.54,0a1,1,0,0,1,.82.22,1,1,0,0,0,.35.12,7.62,7.62,0,0,1,4,2.28,10.17,10.17,0,0,1,1.71,2.45A10.71,10.71,0,0,1,65,11l.17.54c.54.19.67.16.86-.28a12.56,12.56,0,0,1,1.55-2.62A3.3,3.3,0,0,1,69,7.31c.06-.13.14-.29.19-.41A12.35,12.35,0,0,1,72.53,5l.6-.15c.16.53-.25,1.13.36,1.57a.58.58,0,0,0,.24.05,9.06,9.06,0,0,1,3.44.76,5.91,5.91,0,0,1,2.91,2,.64.64,0,0,1,.08.14,1,1,0,0,1,0,.19,4.77,4.77,0,0,1-.7-.18,2.89,2.89,0,0,0-1.23-.22c-.73,0-1.46,0-2.19,0a10.62,10.62,0,0,0-3.13.67,18.38,18.38,0,0,0-2.45,1.28,1.18,1.18,0,0,0-.22.17l-1.9,1.94c-.11.12-.24.21-.43.38.06.26.14.56.22.9l2.73-.93.1,0,2.46-.45,1.11-.24a1.69,1.69,0,0,1,.38-.07,38.22,38.22,0,0,1,5,0c.29,0,.56.2.84.24a3.53,3.53,0,0,1,1.45.43c.62.36,1.25.73,1.83,1.15a.6.6,0,0,1,.19.87l-.42.89c-.19.4-.15.73.24.94a5,5,0,0,1,1.69,1.81,9.23,9.23,0,0,1,.9,2.16,7.48,7.48,0,0,1,.26,2.53c0,.4,0,.8,0,1.2s0,.54,0,.8l-.17.05a3.1,3.1,0,0,1-.35-.61,13.87,13.87,0,0,0-2.29-4.14,7.48,7.48,0,0,0-2.51-2.26,1.83,1.83,0,0,0-2.6.34c-.15-.05-.38-.05-.5-.18a7.32,7.32,0,0,0-2.36-1.2,2.67,2.67,0,0,0-.48-.08L75,17.55a3.3,3.3,0,0,0-.74-.17c-.64,0-1.28,0-1.92,0a.36.36,0,0,0-.21,0c-.13.11-.31.22-.35.36a.54.54,0,0,0,.22.39,20.66,20.66,0,0,1,3.3,2.9A16.12,16.12,0,0,1,77,23a8.72,8.72,0,0,1,1.79,4.73A4.25,4.25,0,0,1,78.44,30c-.28.48-.33,1.09-.74,1.51l-.52.53a1.67,1.67,0,0,1-.12-.31c-.1-.62-.16-1.23-.27-1.84a16.35,16.35,0,0,0-.74-2.72,6.73,6.73,0,0,0-.79-1.67,4.54,4.54,0,0,0-1.4-1.36,1,1,0,0,0-1.32.26,2.85,2.85,0,0,1-.46.32c-.13-.13-.27-.2-.34-.32a13.38,13.38,0,0,0-2.49-2.66,4,4,0,0,0-2.37-1l-.66.59c0,.35-.08.72-.13,1.13H64.2a.72.72,0,0,1,.08-.77c.23-.43.2-.74-.07-.93a.82.82,0,0,0-1,.08c-.33.38-.84.62-.88,1.18a24.57,24.57,0,0,0-3,3.8,2.53,2.53,0,0,1-1.54.75c-.32,0-.46.25-.47.58,0,.51,0,1-.09,1.53,0,.31-.16.62-.23.93a4.76,4.76,0,0,0-.11.64c0,.37,0,.74,0,1.1a1.29,1.29,0,0,1-.94,1.27A5.58,5.58,0,0,0,55,33a1.14,1.14,0,0,0-.68,1c-.08.71-.09,1.43-.16,2.13s-.16,1.08-.25,1.62c0,.08-.09.14-.18.27a5.91,5.91,0,0,1-.56-.33,5.6,5.6,0,0,1-1.32-1.42,6.4,6.4,0,0,1-.85-2.1c-.17-.79-.39-1.57-.59-2.36a1.28,1.28,0,0,1,0-.27,8.56,8.56,0,0,0-.91-2.6,5.32,5.32,0,0,0-1.4-1.56,18,18,0,0,1,3-3.48,33.76,33.76,0,0,1,3.68-2.7,30,30,0,0,1,4.18-2,.6.6,0,0,0-.64-.42,25.52,25.52,0,0,0-2.9.05,6.93,6.93,0,0,0-1.69.54c-.5.18-1,.39-1.46.59a4.7,4.7,0,0,0-2.08,1.43,4.79,4.79,0,0,1-.47.43c-.21-.1-.38-.18-.54-.24a.83.83,0,0,0-.9.21A18.66,18.66,0,0,1,46.81,23a13,13,0,0,0-2.32,2.15,1.2,1.2,0,0,1-.2,0c-.07,0-.13-.05-.22-.07a6.46,6.46,0,0,1,.15-2.87c.2-.57.34-1.15.51-1.72,0-.05,0-.12.05-.16.48-.48.53-1.18.89-1.73a.9.9,0,0,0,.12-.24c.26-.67.1-1-.57-1.28L44.81,17l-.19-.43c.34-.44.68-.86,1-1.29a8.72,8.72,0,0,1,2.07-2,11.24,11.24,0,0,1,1.89-1,4.52,4.52,0,0,1,2.33-.65.43.43,0,0,0,.27-.06,3.64,3.64,0,0,1,1.93-.25.7.7,0,0,1,.32.05,3.71,3.71,0,0,0,2.07.33l.26.34s.05,0,.09,0a3.15,3.15,0,0,1,1.72.59c.39.22.75.5,1.13.76s1,.7,1.56,1.08c.23.17.41.41.63.6s.5.41.74.6c.36-.14.62-.31.66-.66a.76.76,0,0,0-.47-.79.56.56,0,0,1-.21-.16A14.74,14.74,0,0,0,59,11a9.86,9.86,0,0,0-1.23-.57,3.36,3.36,0,0,1-.33-.16c0-.31.25-.35.46-.4a2.45,2.45,0,0,0,1.18-.59.85.85,0,0,0-.28-1,5.21,5.21,0,0,0-2.48-1.69c-.64-.18-1.26-.44-1.89-.65A1.93,1.93,0,0,0,54,5.84c-.18,0-.35,0-.56-.06" style="fill:#3f804b"/><path d="M154.89,45.13h7.22a4.21,4.21,0,0,1-.2,1.48c-.1.44-.27.86-.4,1.3s-.18.57-.69.62a11.9,11.9,0,0,1-1.2.06h-5.2a6.67,6.67,0,0,1-.69-.08,1.51,1.51,0,0,1,0-.45c.32-.66.67-1.31,1-2a4.46,4.46,0,0,0,.16-.94" style="fill:#3f804b"/><path d="M63,45.09h1.56c1.65,0,3.28,0,4.93,0,.42,0,.69.11.82.54A14.24,14.24,0,0,0,70.8,47a1.7,1.7,0,0,0,.27.39,3.86,3.86,0,0,1,.6,1.06,4,4,0,0,1-.64.13H65.51c-.44,0-.88,0-1.31-.06a.53.53,0,0,1-.53-.46c-.18-.74-.38-1.47-.56-2.21-.06-.21-.08-.43-.14-.76" style="fill:#3f804b"/><path d="M62.21,38c1.93,0,3.77,0,5.64,0a2.71,2.71,0,0,0,.11.84c.34.63.35,1.36.65,2a1.17,1.17,0,0,1,.11,1H62.51a12.08,12.08,0,0,1-.3-3.84" style="fill:#3f804b"/><path d="M162.63,41.81c-.26,0-.53.08-.8.09h-5c-.15,0-.31,0-.5,0L157.53,38h5.54a8.43,8.43,0,0,1-.44,3.77" style="fill:#3f804b"/><path d="M93.79,7.17a2.42,2.42,0,0,1,.44-.56c.89-.62,1.8-1.22,2.7-1.83.52-.35.51-.36,1.09-.28.35.6.29.76-.27,1.14-.72.49-1.42,1-2.18,1.55.37.35.37.88.94,1,.62-.41,1.25-.85,1.88-1.26a1.49,1.49,0,0,1,.54-.23c.3,0,.47.17.58.42a.49.49,0,0,1-.22.61c-.58.41-1.17.8-1.74,1.22a3.61,3.61,0,0,0-.48.48l.87,1.18c1.15-.45,2-1.35,3.06-1.87l.54.67a14.31,14.31,0,0,1-4,2.94,1.71,1.71,0,0,1-.41-.36c-.82-1.2-1.62-2.41-2.44-3.61-.26-.37-.56-.72-.92-1.19" style="fill:#90251e"/><path d="M151.65,52.21c.43-.79.84-1.53,1.26-2.31h7.91a1,1,0,0,1,0,.38c-.18.41-.4.79-.6,1.2-.1.22-.18.46-.28.7a78.85,78.85,0,0,1-8.3,0" style="fill:#3f804b"/><path d="M163,32.79c0,.69.07,1.31.08,1.92s0,1.23,0,1.91h-5.28a.85.85,0,0,1,0-.76,6,6,0,0,0,.22-.72c.08-.37.16-.75.23-1.12,0-.2.07-.39.09-.59.05-.49.2-.67.68-.68,1,0,2,0,3,0l1,0" style="fill:#3f804b"/><path d="M72.3,49.9c.42.76.82,1.46,1.26,2.26a3.93,3.93,0,0,1-.7.13c-.58,0-1.16,0-1.74,0l-5.52-.07c-.11,0-.21,0-.41,0-.11-.25-.22-.53-.33-.81s-.13-.37-.22-.54a1,1,0,0,1-.15-.94Z" style="fill:#3f804b"/><path d="M135.14,9.2a1.05,1.05,0,0,1-.87-1,.63.63,0,0,0-1-.53c-.27.16-.65.23-.6.71a1.71,1.71,0,0,0,.27.14,1.71,1.71,0,0,1,1.25,1.87,2.24,2.24,0,0,1-1.35,2,2.29,2.29,0,0,1-1.2.29,2.22,2.22,0,0,1-1.91-2.06,3,3,0,0,1,.77-2.1A14.17,14.17,0,0,1,131.75,7a2.33,2.33,0,0,1,3.76.7,1.26,1.26,0,0,1-.37,1.47m-4.2,1.46c0,.32.24.52.49.71a.55.55,0,0,0,.66-.06,2,2,0,0,0,.83-1,.76.76,0,0,0-.82-1,1.67,1.67,0,0,0-1.16,1.35" style="fill:#90251e"/><path d="M121.08,2.53a2.43,2.43,0,0,1,1.18-1.32,1.49,1.49,0,0,1,.48-.14,2.14,2.14,0,0,1,2.51,2.15,5.67,5.67,0,0,1-1.08,3.52,2.22,2.22,0,0,1-2,1,1.89,1.89,0,0,1-1.7-1.13c-.13-.29-.24-.59,0-.87s.53-.15.82-.1a.93.93,0,0,1,.22.09c.09.38.2.77.66.91a1.1,1.1,0,0,0,1-1.23c-.27,0-.56-.06-.84-.07a1.23,1.23,0,0,1-.81-.38,2,2,0,0,1-.48-2.34.14.14,0,0,1,0-.06m2.21,1.84A1.78,1.78,0,0,0,123.88,3a.78.78,0,0,0-.68-.84.73.73,0,0,0-.85.64c0,.17,0,.33-.09.49-.2.8.18,1.2,1,1.06" style="fill:#90251e"/><path d="M130.69,5.79a1.09,1.09,0,0,1-1-.34,2.94,2.94,0,0,1-.46-.94.93.93,0,0,0-1,.16c-.2.21-.53.39-.37.66a11.78,11.78,0,0,1,1.24.63,2.07,2.07,0,0,1,.48,2.29l-.21.38a2,2,0,0,1-2.31,1.06,2.15,2.15,0,0,1-1.6-2.89c.2-.48.37-1,.59-1.45a4,4,0,0,1,1.59-1.82A2.52,2.52,0,0,1,130,3.7a1.86,1.86,0,0,1,.69,2.09m-3.85,2.62a.8.8,0,0,0,1.26-.23,3.74,3.74,0,0,0,.34-.73.65.65,0,0,0-.2-.87.83.83,0,0,0-1.05,0,1.53,1.53,0,0,0-.35,1.79" style="fill:#90251e"/><path d="M62.25,32.81h4.26c.52,1.23.46,2.56.95,3.79a3.84,3.84,0,0,1-.45.09l-4.22,0a.72.72,0,0,1-.75-.39c.07-1.16.14-2.29.21-3.46" style="fill:#3f804b"/><path d="M69.32,59.3l-1.15-1.55h9l1.06,1.48c-.33.14-7.94.2-9,.07" style="fill:#3f804b"/><path d="M146.87,59.31a9,9,0,0,1,1.2-1.48,1.14,1.14,0,0,1,.68-.11H157l-1.15,1.59Z" style="fill:#3f804b"/><path d="M104.48,7.46a.68.68,0,0,0,.47-.38.32.32,0,0,0-.26-.44,2.62,2.62,0,0,0-.28,0c-.57,0-1.13.07-1.69.07a1.22,1.22,0,0,1-1.23-1.31c-.07-1,.64-1.29,1.3-1.59a2,2,0,0,1,1.89-.16c.31.16.36.19.49.63a3.86,3.86,0,0,1-.5.38.68.68,0,0,1-.46.08c-.76-.21-.76-.22-1.45.21a.4.4,0,0,0,0,.15h0a.39.39,0,0,0,.42.29l.38,0c.47,0,.94-.12,1.41-.11a1.39,1.39,0,0,1,1.38,1,1.59,1.59,0,0,1-.73,1.8,3.3,3.3,0,0,1-2.28.57,1.14,1.14,0,0,1-1-.56c.2-.59.52-.77,1.19-.59a1.56,1.56,0,0,0,1,0" style="fill:#90251e"/><path d="M118.19,6.65h-.82a.68.68,0,0,1-.2-.07,1.51,1.51,0,0,1-.07-.38c.09-1.07.2-2.14.3-3.21,0-.19,0-.39,0-.56-.25-.25-.5-.13-.74-.08s-.48.09-.71.14c-.2-.55-.08-1,.4-1.2A4.29,4.29,0,0,0,117.84.21c.23-.27.5-.26,1.07-.09a9.45,9.45,0,0,1-.15,2.18c-.09.72-.09,1.46-.18,2.18a8.05,8.05,0,0,1-.39,2.17" style="fill:#90251e"/><path d="M109.65,5.92c0,.32.09.62.14.93a2.16,2.16,0,0,1-1.6.27.9.9,0,0,1-.65-.68c-.16-.69-.33-1.37-.47-2.07-.06-.31,0-1-.71-.72-.29.1-.22-.61-.31-.69.4-.5.49-.26.7-.62-.39-1.3.21-1.2.54-1.39.61.2.41.82.67,1.22.27.05.5-.07.84,0,0,.28.1.6.12.87a1.63,1.63,0,0,0-.75.19c0,.16.08.59.11.74.11.5.23,1,.35,1.49s.28.51,1,.47" style="fill:#90251e"/><path d="M159.06,25.09a9.36,9.36,0,0,1,2.8,0s0,.06,0,.09q.24,1.17.45,2.34a2.92,2.92,0,0,1,0,.6,8.48,8.48,0,0,1-1.67,0h-1.64c-.19-1.08.1-2.05,0-3" style="fill:#3f804b"/><path d="M63.44,25h2.61c0,1.05.08,2.06.12,3.12H62.68c.25-1.06.5-2.05.76-3.12" style="fill:#3f804b"/><path d="M75.65,55.54l.48.82a2.41,2.41,0,0,1-.59.11c-.69,0-1.37-.07-2.07-.07h-4.8c-.26,0-.51.06-.76.08-.56,0-.89-.33-.84-.94h8.58" style="fill:#3f804b"/><path d="M149.64,55.52l8.23,0a1,1,0,0,1,.29.09c.12.39-.19.55-.36.84H149l.61-.89" style="fill:#3f804b"/><path d="M62.38,31.35a1.35,1.35,0,0,1,.33-1.44h3.71c0,.51,0,1,.07,1.38a12.58,12.58,0,0,1-4.11.06" style="fill:#3f804b"/><path d="M158.8,31.49c0-.59.07-1,.11-1.5a13.13,13.13,0,0,1,3.76,0q.09.64.21,1.41a6.92,6.92,0,0,1-2,.11c-.66,0-1.33,0-2.06,0" style="fill:#3f804b"/><path d="M159.28,53.55c0,.53-.26.67-.64.66l-7.32-.06h-.69c0-.29.08-.45.31-.5a2.35,2.35,0,0,1,.58-.1h7.76" style="fill:#3f804b"/><path d="M66,53.63c.22,0,.41-.06.6-.06h3.49c1.22,0,2.44,0,3.65,0a.87.87,0,0,1,.89.56,4.68,4.68,0,0,1-.69.09H66.61c-.35,0-.57-.1-.57-.58" style="fill:#3f804b"/><path d="M69.41,43.25c0,.2.08.34.14.56H62.64c0-.16,0-.36,0-.56Z" style="fill:#3f804b"/><path d="M155.74,43.75c0-.21.07-.33.11-.48h6.65c0,.47,0,.53-.4.53h-5.69c-.2,0-.4,0-.67,0" style="fill:#3f804b"/><path d="M66.1,23.43V24a9.23,9.23,0,0,1-2.35,0c-.08-.46,0-.64.3-.64.66,0,1.33,0,2,.08" style="fill:#3f804b"/><path d="M161.55,24a7.21,7.21,0,0,1-2.5-.09c0-.33.12-.51.45-.51.53,0,1.06,0,1.59,0,.36,0,.45.15.46.6" style="fill:#3f804b"/><path d="M111.21,6.68h0a.75.75,0,0,1-.79-.72c0-.27.19-.44.58-.52a.63.63,0,0,1,.67.24.69.69,0,0,1,.08.5.57.57,0,0,1-.53.5" style="fill:#90251e"/><path d="M103.58,49.2c.25-.22.52-.36.79-.18a.56.56,0,0,1,.1.47.43.43,0,0,1-.51.3c-.3,0-.41-.26-.38-.59" style="fill:#90251e"/><path d="M97.19,50c.34.06.6.15.61.5a.37.37,0,0,1-.34.42c-.36.07-.48-.18-.59-.53l.32-.39" style="fill:#90251e"/><path d="M103.15,52.85h.53v.8c-.28.15-.48.18-.64,0s-.1-.5.11-.76" style="fill:#90251e"/><path d="M97.25,53.72c.3.17.45.38.3.68a.41.41,0,0,1-.51.2.44.44,0,0,1-.35-.48c0-.33.27-.38.56-.4" style="fill:#90251e"/><path d="M104.42,50.67c.13.27.19.56-.08.73a.64.64,0,0,1-.53-.06.35.35,0,0,1-.08-.53c.15-.28.39-.28.69-.14" style="fill:#90251e"/><path d="M98.68,56.8c-.19-.25-.29-.5-.05-.69a.54.54,0,0,1,.52,0,.58.58,0,0,1,.16.5c-.07.33-.34.31-.63.24" style="fill:#90251e"/><path d="M101,48.86a1.29,1.29,0,0,1,.2.15l.18.21c0,.29-.1.56-.45.57s-.37-.13-.42-.36.18-.47.49-.57" style="fill:#90251e"/><path d="M100.53,52.59c-.1-.22-.14-.46.11-.61a.47.47,0,0,1,.66.14c0,.58-.2.71-.77.47" style="fill:#90251e"/><path d="M103.08,57.26a.42.42,0,0,1-.84,0,.42.42,0,0,1,.84,0" style="fill:#90251e"/><path d="M104.92,28.12a4.38,4.38,0,0,1-.17-.73c0-.64,0-1.27,0-1.91s.17-.67.7-.67c1,0,1.44.41,1.51,1.44a3.21,3.21,0,0,1,0,.7,1,1,0,0,1-1,1,9,9,0,0,0-1,.21" style="fill:#90251e"/><path d="M107.1,93.83a8.39,8.39,0,0,1-1.84.19c-1.39,0-3.29-.68-3.29-3.51V88.83c0-2.88,1.9-3.51,3.29-3.51a8.39,8.39,0,0,1,1.84.19c.15,0,.26.1.26.26v.77a.21.21,0,0,1-.24.24h0c-.41,0-1.2-.09-1.81-.09-1,0-1.69.51-1.69,2.14v1.68c0,1.59.71,2.14,1.69,2.14.61,0,1.4-.05,1.81-.09h0a.22.22,0,0,1,.24.24v.77c0,.16-.11.22-.26.26" style="fill:#90251e"/><path d="M111.22,94a2.62,2.62,0,0,1-2.78-2.86v-.93a2.78,2.78,0,1,1,5.56,0v.93A2.62,2.62,0,0,1,111.22,94m1.24-3.78c0-.94-.43-1.55-1.24-1.55S110,89.3,110,90.24v.93c0,.94.42,1.54,1.24,1.54s1.24-.61,1.24-1.54Z" style="fill:#90251e"/><path d="M120.41,93.93h-1.1a.24.24,0,0,1-.22-.24v-4c0-.56-.11-1.07-.79-1.07h-.72c-.68,0-.79.52-.79,1.07v4a.23.23,0,0,1-.22.24h-1.1a.24.24,0,0,1-.22-.24v-4a2.15,2.15,0,0,1,2.33-2.33h.72a2.15,2.15,0,0,1,2.33,2.33v4a.25.25,0,0,1-.22.24" style="fill:#90251e"/><path d="M125.21,88.6h-1.64v5.08a.24.24,0,0,1-.24.24h-1.07a.25.25,0,0,1-.24-.24V86.9c0-1.47.89-1.83,2-1.83a9.14,9.14,0,0,1,1.25.1c.17,0,.21.08.21.18V86c0,.13,0,.2-.17.2h-1c-.53,0-.68.13-.68.69v.56h1.64a.23.23,0,0,1,.23.23v.68a.22.22,0,0,1-.23.22" style="fill:#90251e"/><path d="M131.44,91.22h-3.79v0a1.3,1.3,0,0,0,1.4,1.45,21.29,21.29,0,0,0,2.13-.12h0a.19.19,0,0,1,.21.18v.75c0,.19,0,.26-.25.3a10.25,10.25,0,0,1-2.25.19,2.65,2.65,0,0,1-2.81-2.87v-.85a2.78,2.78,0,1,1,5.55,0v.64c0,.19-.07.29-.23.29m-1.31-1.12c0-.89-.5-1.41-1.22-1.41a1.25,1.25,0,0,0-1.25,1.41v.05h2.47Z" style="fill:#90251e"/><path d="M136.91,93.87a6.39,6.39,0,0,1-1.5.15,2.52,2.52,0,0,1-2.66-2.78V90.17a2.51,2.51,0,0,1,2.66-2.78,6.39,6.39,0,0,1,1.5.15c.19,0,.24.11.24.3v.74c0,.11-.09.17-.21.17h0a9.87,9.87,0,0,0-1.5-.08c-.55,0-1.12.31-1.12,1.5v1.07c0,1.19.57,1.5,1.12,1.5a9.65,9.65,0,0,0,1.5-.09h0c.12,0,.21.06.21.18v.74c0,.18-.05.25-.24.3" style="fill:#90251e"/><path d="M141.57,93.93a11.38,11.38,0,0,1-1.36.09c-1.15,0-1.84-.39-1.84-1.72V86.53a.24.24,0,0,1,.23-.23l1.09-.18h0a.23.23,0,0,1,.2.22v1.12h1.64a.23.23,0,0,1,.23.23v.68a.22.22,0,0,1-.23.22h-1.64v3.7c0,.46.21.54.71.54h.92c.15,0,.24.06.24.18v.71c0,.11-.07.18-.22.21" style="fill:#90251e"/><path d="M144.21,86.61h-1.13a.25.25,0,0,1-.24-.23v-1a.23.23,0,0,1,.24-.23h1.13a.23.23,0,0,1,.23.23v1a.23.23,0,0,1-.23.23m0,7.32h-1.06a.25.25,0,0,1-.24-.24v-6a.23.23,0,0,1,.24-.22h1.06a.23.23,0,0,1,.24.22v6a.25.25,0,0,1-.24.25" style="fill:#90251e"/><path d="M148.53,94a2.62,2.62,0,0,1-2.77-2.86v-.93a2.78,2.78,0,1,1,5.56,0v.93A2.63,2.63,0,0,1,148.53,94m1.25-3.78c0-.94-.43-1.55-1.25-1.55s-1.24.61-1.24,1.55v.93c0,.94.43,1.54,1.24,1.54s1.25-.61,1.25-1.54Z" style="fill:#90251e"/><path d="M157.72,93.93h-1.09a.23.23,0,0,1-.22-.24v-4c0-.56-.12-1.07-.79-1.07h-.72c-.68,0-.79.52-.79,1.07v4a.24.24,0,0,1-.22.24h-1.1a.23.23,0,0,1-.22-.24v-4a2.15,2.15,0,0,1,2.33-2.33h.72a2.15,2.15,0,0,1,2.32,2.33v4a.23.23,0,0,1-.22.24" style="fill:#90251e"/><path d="M164.52,91.22h-3.79v0a1.3,1.3,0,0,0,1.4,1.45c.85,0,1.65-.07,2.14-.12h0c.12,0,.21.06.21.18v.75c0,.19,0,.26-.24.3A10.41,10.41,0,0,1,162,94a2.65,2.65,0,0,1-2.81-2.87v-.85a2.78,2.78,0,1,1,5.56,0v.64c0,.19-.07.29-.24.29m-1.31-1.12c0-.89-.5-1.41-1.22-1.41a1.24,1.24,0,0,0-1.24,1.41v.05h2.46Z" style="fill:#90251e"/><path d="M168.75,88.66a6.43,6.43,0,0,0-1.14.08v5a.23.23,0,0,1-.22.24H166.3a.25.25,0,0,1-.23-.24V88.06c0-.15.11-.27.32-.34a6.93,6.93,0,0,1,2.36-.33c.14,0,.34,0,.34.19v.88c0,.12-.07.2-.34.2" style="fill:#90251e"/><path d="M173,96.22a7.5,7.5,0,0,1-2.18-.28c-.16,0-.23-.11-.23-.27v-.61a.2.2,0,0,1,.22-.19h0c.53,0,1.63.14,2.17.14.94,0,1.08-.23,1.08-1v-.09a8,8,0,0,1-1.12.13,2.55,2.55,0,0,1-2.78-2.88V87.69a.23.23,0,0,1,.24-.22h1.07a.23.23,0,0,1,.23.22v3.45c0,.94.24,1.64,1.24,1.64.28,0,.79,0,1.12-.09v-5a.22.22,0,0,1,.23-.22h1.07a.23.23,0,0,1,.24.22V93.9c0,1.63-.84,2.32-2.62,2.32" style="fill:#90251e"/><path d="M185,93.83a8.36,8.36,0,0,1-1.83.19c-1.4,0-3.29-.68-3.29-3.51V88.83c0-2.88,1.89-3.51,3.29-3.51a8.36,8.36,0,0,1,1.83.19c.15,0,.26.1.26.26v.77c0,.14-.06.24-.23.24h0c-.4,0-1.19-.09-1.81-.09-1,0-1.69.51-1.69,2.14v1.68c0,1.59.71,2.14,1.69,2.14.62,0,1.41-.05,1.81-.09h0a.21.21,0,0,1,.23.24v.77c0,.16-.11.22-.26.26" style="fill:#90251e"/><path d="M189.11,94a2.62,2.62,0,0,1-2.78-2.86v-.93a2.78,2.78,0,1,1,5.56,0v.93A2.62,2.62,0,0,1,189.11,94m1.25-3.78c0-.94-.43-1.55-1.25-1.55s-1.25.61-1.25,1.55v.93c0,.94.43,1.54,1.25,1.54s1.25-.61,1.25-1.54Z" style="fill:#90251e"/><path d="M194.47,93.93h-1a.24.24,0,0,1-.24-.23V92.4a.23.23,0,0,1,.24-.21h1a.23.23,0,0,1,.24.21v1.3a.25.25,0,0,1-.24.23" style="fill:#90251e"/><path d="M203.9,93.86a12.85,12.85,0,0,1-2,.16c-1.51,0-2.68-.4-2.68-2.35v-6a.23.23,0,0,1,.23-.23h1.15a.23.23,0,0,1,.23.23v6c0,.76.24,1,.91,1h2.14a.23.23,0,0,1,.24.23v.73c0,.16-.06.2-.24.24" style="fill:#90251e"/><path d="M206.39,93.93h-1a.24.24,0,0,1-.24-.23V92.4a.23.23,0,0,1,.24-.21h1a.22.22,0,0,1,.23.21v1.3a.23.23,0,0,1-.23.23" style="fill:#90251e"/><path d="M212.92,93.86a12.85,12.85,0,0,1-2,.16c-1.51,0-2.69-.4-2.69-2.35v-6a.23.23,0,0,1,.23-.23h1.16a.23.23,0,0,1,.23.23v6c0,.76.23,1,.91,1h2.14a.23.23,0,0,1,.23.23v.73c0,.16-.06.2-.23.24" style="fill:#90251e"/><path d="M215.41,93.93h-1a.23.23,0,0,1-.23-.23V92.4a.22.22,0,0,1,.23-.21h1a.22.22,0,0,1,.23.21v1.3a.24.24,0,0,1-.23.23" style="fill:#90251e"/><path d="M222.16,93.83a8.39,8.39,0,0,1-1.84.19c-1.39,0-3.29-.68-3.29-3.51V88.83c0-2.88,1.9-3.51,3.29-3.51a8.39,8.39,0,0,1,1.84.19c.15,0,.26.1.26.26v.77c0,.14-.06.24-.23.24h0c-.4,0-1.2-.09-1.81-.09-1,0-1.69.51-1.69,2.14v1.68c0,1.59.71,2.14,1.69,2.14.61,0,1.41-.05,1.81-.09h0a.21.21,0,0,1,.23.24v.77c0,.16-.11.22-.26.26" style="fill:#90251e"/><path d="M4.48,94a21.45,21.45,0,0,1-2.29-.14.32.32,0,0,1-.31-.36V85.81a.32.32,0,0,1,.31-.35,19.07,19.07,0,0,1,2.29-.14c2.32,0,3.65,1.24,3.65,3.5v1.69C8.13,92.78,6.8,94,4.48,94m2-5.19c0-1.72-.88-2.17-2-2.17-.43,0-.74,0-1,0v5.94c.24,0,.55,0,1,0,1.16,0,2-.44,2-2.16Z" style="fill:#90251e"/><path d="M12.19,94h-.07a2.53,2.53,0,0,1-2.65-2.78V87.71a.23.23,0,0,1,.22-.24h1.09a.23.23,0,0,1,.22.24v3.53c0,1.2.45,1.47,1.12,1.47h.07c.67,0,1.12-.27,1.12-1.47V87.71a.23.23,0,0,1,.22-.24h1.09a.23.23,0,0,1,.22.24v3.53A2.53,2.53,0,0,1,12.19,94" style="fill:#90251e"/><path d="M18.94,94a10.28,10.28,0,0,1-2.34-.3c-.26-.07-.31-.14-.31-.31v-8a.23.23,0,0,1,.23-.23h1.07a.24.24,0,0,1,.24.23v2a8.33,8.33,0,0,1,1.11-.08,2.54,2.54,0,0,1,2.78,2.87v.88A2.54,2.54,0,0,1,18.94,94m1.25-3.76c0-.94-.25-1.64-1.25-1.64-.28,0-.79,0-1.11.08v4a6.33,6.33,0,0,0,1.11.08c1,0,1.25-.7,1.25-1.64Z" style="fill:#90251e"/><path d="M27.89,93.72a10.35,10.35,0,0,1-2.34.3,2.54,2.54,0,0,1-2.78-2.88v-.88a2.54,2.54,0,0,1,2.78-2.88,10.35,10.35,0,0,1,2.34.3c.26.07.31.14.31.31v5.42c0,.17-.05.24-.31.31m-1.22-5a6.54,6.54,0,0,0-1.12-.08c-1,0-1.25.7-1.25,1.64v.88c0,.94.25,1.64,1.25,1.64a7.75,7.75,0,0,0,1.12-.08Z" style="fill:#90251e"/><path d="M31.08,86.61H30a.25.25,0,0,1-.25-.23v-1a.24.24,0,0,1,.25-.23h1.12a.24.24,0,0,1,.24.23v1a.24.24,0,0,1-.24.23m0,7.32H30a.24.24,0,0,1-.23-.24v-6a.22.22,0,0,1,.23-.22h1.07a.23.23,0,0,1,.23.22v6a.25.25,0,0,1-.23.25" style="fill:#90251e"/><path d="M41.19,86.74h-2v7a.22.22,0,0,1-.23.22H37.77a.22.22,0,0,1-.23-.22v-7h-2a.21.21,0,0,1-.23-.2v-.91a.22.22,0,0,1,.23-.21h5.69a.22.22,0,0,1,.23.21v.91a.21.21,0,0,1-.23.2" style="fill:#90251e"/><path d="M44.7,88.66a6.5,6.5,0,0,0-1.14.08v5a.23.23,0,0,1-.22.24H42.26a.24.24,0,0,1-.23-.24V88.06c0-.15.1-.27.31-.34a7,7,0,0,1,2.36-.33c.14,0,.34,0,.34.19v.88c0,.12-.07.2-.34.2" style="fill:#90251e"/><path d="M50.69,93.72a10.21,10.21,0,0,1-2.34.3,2.55,2.55,0,0,1-2.78-2.88v-.88a2.55,2.55,0,0,1,2.78-2.88,10.21,10.21,0,0,1,2.34.3c.27.07.32.14.32.31v5.42c0,.17,0,.24-.32.31m-1.22-5a6.45,6.45,0,0,0-1.12-.08c-1,0-1.24.7-1.24,1.64v.88c0,.94.24,1.64,1.24,1.64a7.64,7.64,0,0,0,1.12-.08Z" style="fill:#90251e"/><path d="M57.4,93.72a10.21,10.21,0,0,1-2.34.3,2.55,2.55,0,0,1-2.78-2.88v-.88a2.55,2.55,0,0,1,2.78-2.88,10.62,10.62,0,0,1,1.12.08v-2a.23.23,0,0,1,.23-.23h1.07a.23.23,0,0,1,.24.23v8c0,.17,0,.24-.32.31m-1.22-5a9.07,9.07,0,0,0-1.12-.08c-1,0-1.24.7-1.24,1.64v.88c0,.94.24,1.64,1.24,1.64a7.64,7.64,0,0,0,1.12-.08Z" style="fill:#90251e"/><path d="M60.6,86.61H59.47a.25.25,0,0,1-.24-.23v-1a.23.23,0,0,1,.24-.23H60.6a.23.23,0,0,1,.23.23v1a.23.23,0,0,1-.23.23m0,7.32H59.49a.25.25,0,0,1-.23-.24v-6a.22.22,0,0,1,.23-.22h1.07a.23.23,0,0,1,.24.22v6a.25.25,0,0,1-.24.25" style="fill:#90251e"/><path d="M67.44,93.93H66.35a.24.24,0,0,1-.23-.24v-4c0-.56-.11-1.07-.79-1.07h-.72c-.67,0-.79.52-.79,1.07v4a.23.23,0,0,1-.22.24H62.51a.24.24,0,0,1-.23-.24v-4a2.15,2.15,0,0,1,2.33-2.33h.72a2.15,2.15,0,0,1,2.33,2.33v4a.24.24,0,0,1-.22.24" style="fill:#90251e"/><path d="M71.69,96.22a7.47,7.47,0,0,1-2.17-.28c-.16,0-.23-.11-.23-.27v-.61a.2.2,0,0,1,.22-.19h0c.52,0,1.63.14,2.16.14,1,0,1.09-.23,1.09-1v-.09a8,8,0,0,1-1.12.13,2.55,2.55,0,0,1-2.78-2.88v-.88a2.54,2.54,0,0,1,2.78-2.87,10.27,10.27,0,0,1,2.34.29c.27.07.31.14.31.31V93.9c0,1.63-.84,2.32-2.62,2.32m1.09-7.5a7.33,7.33,0,0,0-1.12-.1c-1,0-1.25.7-1.25,1.64v.88c0,.94.25,1.64,1.25,1.64.28,0,.79,0,1.12-.09Z" style="fill:#90251e"/><path d="M84.75,93.93H83.58a.22.22,0,0,1-.21-.23v-3H80.46v3a.22.22,0,0,1-.22.23H79.07a.22.22,0,0,1-.22-.23V87.8c0-1.92,1.05-2.44,2.66-2.44h.8c1.61,0,2.66.52,2.66,2.44v5.9a.22.22,0,0,1-.22.23M83.37,87.8c0-.8-.23-1-1.06-1h-.8c-.81,0-1.05.25-1.05,1v1.53h2.91Z" style="fill:#90251e"/><path d="M91.7,93.93H90.6a.24.24,0,0,1-.22-.24v-4c0-.56-.11-1.07-.79-1.07h-.72c-.67,0-.79.52-.79,1.07v4a.23.23,0,0,1-.22.24h-1.1a.24.24,0,0,1-.22-.24v-4a2.15,2.15,0,0,1,2.33-2.33h.72a2.15,2.15,0,0,1,2.33,2.33v4a.23.23,0,0,1-.22.24" style="fill:#90251e"/><path d="M98.26,93.72a10.35,10.35,0,0,1-2.34.3,2.55,2.55,0,0,1-2.78-2.88v-.88a2.55,2.55,0,0,1,2.78-2.88,10.46,10.46,0,0,1,1.11.08v-2a.23.23,0,0,1,.24-.23h1.07a.23.23,0,0,1,.23.23v8c0,.17,0,.24-.31.31M97,88.7a8.79,8.79,0,0,0-1.11-.08c-1,0-1.25.7-1.25,1.64v.88c0,.94.25,1.64,1.25,1.64A7.48,7.48,0,0,0,97,92.7Z" style="fill:#90251e"/><path d="M8.18,76.41A2.43,2.43,0,0,1,5.7,79a2.48,2.48,0,0,1-2.5-2.58,2.58,2.58,0,0,1,.31-1.3H2.6c-.83,0-1.36.73-1.36,1.93v3.68H0V76.75c0-1.77.94-3,2.58-3H5.7a2.47,2.47,0,0,1,2.48,2.61m-1.27,0A1.31,1.31,0,0,0,5.66,75c-.75,0-1.19.62-1.19,1.42a1.34,1.34,0,0,0,1.27,1.45,1.26,1.26,0,0,0,1.17-1.41" style="fill:#90251e"/><rect x="8.84" y="77.45" width="1.35" height="1.4" style="fill:#90251e"/><path d="M19.39,76.41A2.43,2.43,0,0,1,16.91,79a2.48,2.48,0,0,1-2.5-2.58,2.58,2.58,0,0,1,.31-1.3h-.91c-.83,0-1.36.73-1.36,1.93v3.68H11.21V76.75c0-1.77.94-3,2.58-3h3.12a2.47,2.47,0,0,1,2.48,2.61m-1.27,0A1.31,1.31,0,0,0,16.86,75c-.75,0-1.18.62-1.18,1.42a1.34,1.34,0,0,0,1.26,1.45,1.26,1.26,0,0,0,1.18-1.41" style="fill:#90251e"/><rect x="20.04" y="77.45" width="1.35" height="1.4" style="fill:#90251e"/><path d="M28,78.84H22.75V77.58h4c0-1.45-.57-2.29-1.69-2.54a5.62,5.62,0,0,0-1.12-.1V73.81c.61,0,1,0,1.15,0a2.59,2.59,0,0,1,.67.15c1.48.5,2.22,1.7,2.23,3.59v1.26Zm-2.27-6.07H24.53V71.54h1.21Z" style="fill:#90251e"/><path d="M40.63,73.82v3.25a1.59,1.59,0,0,1-1.72,1.77h-4q-3.53,0-3.52-3.13v-1.9H32.6v1.9a1.69,1.69,0,0,0,.63,1.51,2.64,2.64,0,0,0,1.52.36h3A2.26,2.26,0,0,0,39,77.37a1.27,1.27,0,0,0,.46-1.15v-2.4Zm-5.09,0H34.33V72.57h1.21Zm2.1,0H36.43V72.57h1.21Z" style="fill:#90251e"/><path d="M45.05,78.84H43.6a1.65,1.65,0,0,1-1.37-.57,2.16,2.16,0,0,1-.45-1.44V71.7H43v4.63c0,.54.12.9.36,1.06a1.67,1.67,0,0,0,1,.19h.73v1.26Z" style="fill:#90251e"/><rect x="44.66" y="77.58" width="2.45" height="1.26" style="fill:#90251e"/><rect x="46.86" y="77.58" width="2.45" height="1.26" style="fill:#90251e"/><rect x="49.05" y="77.58" width="2.45" height="1.26" style="fill:#90251e"/><rect x="51.24" y="77.58" width="2.45" height="1.26" style="fill:#90251e"/><path d="M54.53,81.27H53.32V80h1.21Zm2.13-4.43c0,1.34-.62,2-1.85,2H53.5V77.58h1c.41,0,.67-.12.79-.37a2.21,2.21,0,0,0,.09-.79V73.81h1.24v3Zm0,4.43H55.41V80h1.21Z" style="fill:#90251e"/><path d="M64,78.84H62.5c-.17,1.22-1,1.83-2.42,1.83v-1a1.14,1.14,0,0,0,1.23-.86H60.13a2.48,2.48,0,0,1-2.43-2.58,2.39,2.39,0,0,1,2.48-2.46,2.32,2.32,0,0,1,2.3,2.5v1.28H64Zm-2.76-1.26V76.06A1.08,1.08,0,0,0,60.16,75,1.16,1.16,0,0,0,59,76.2a1.29,1.29,0,0,0,1.19,1.38Z" style="fill:#90251e"/><rect x="63.72" y="77.58" width="2.45" height="1.26" style="fill:#90251e"/><rect x="65.92" y="77.58" width="2.45" height="1.26" style="fill:#90251e"/><path d="M73.17,78.84H68.1V77.58h1.15A.75.75,0,0,0,70,77.2a1.9,1.9,0,0,0,.13-.84V71.7h1.23v4.6a2.17,2.17,0,0,1-.26,1.28h2.08v1.26Z" style="fill:#90251e"/><rect x="72.88" y="77.58" width="2.45" height="1.26" style="fill:#90251e"/><rect x="75.08" y="77.58" width="2.45" height="1.26" style="fill:#90251e"/><path d="M86.15,78.84H77.26V77.58h6.4a2.74,2.74,0,0,0-.58-1.76,2.43,2.43,0,0,0-2.83-.63,2.69,2.69,0,0,0-1,.7,10.12,10.12,0,0,0-.6-1,4.26,4.26,0,0,1,1.19-.79,3.65,3.65,0,0,1,1.46-.31A3.55,3.55,0,0,1,85,77.58h1.17v1.26Z" style="fill:#90251e"/><rect x="85.84" y="77.58" width="2.45" height="1.26" style="fill:#90251e"/><path d="M91.17,76.84c0,1.34-.62,2-1.86,2H88V77.58h1.06c.41,0,.66-.12.78-.36a2.32,2.32,0,0,0,.09-.8V71.7h1.24v5.14Z" style="fill:#90251e"/><rect x="92.31" y="71.69" width="1.23" height="7.15" style="fill:#90251e"/><path d="M99.35,78.69c0,1.32-.79,2-2.4,2v-1c.78,0,1.16-.55,1.19-1.41a1.23,1.23,0,0,1-1.18.56,2.52,2.52,0,1,1,2.4-2.49v2.34Zm-1.27-2.32c0-.86-.46-1.44-1.17-1.44s-1.09.64-1.09,1.39A1.27,1.27,0,0,0,97,77.73a1.23,1.23,0,0,0,1.12-1.36" style="fill:#90251e"/><path d="M108,76.16a2.54,2.54,0,0,1-2.61,2.68,2.6,2.6,0,0,1-2.64-2.72,2.63,2.63,0,1,1,5.25,0m-3.08-3.75h-1.22V71.18h1.22Zm1.81,3.75a1.46,1.46,0,0,0-1.39-1.63c-.82,0-1.3.68-1.3,1.58a1.47,1.47,0,0,0,1.38,1.61,1.38,1.38,0,0,0,1.31-1.56m.3-3.75h-1.22V71.18H107Z" style="fill:#90251e"/><path d="M111.49,73.82v4c0,2-.87,2.82-2.78,2.82V79.62a1.37,1.37,0,0,0,1.54-1.57V73.82Z" style="fill:#90251e"/><path d="M115.9,78.84h-1.45a1.65,1.65,0,0,1-1.37-.57,2.16,2.16,0,0,1-.45-1.44V71.7h1.23v4.63c0,.54.12.9.36,1.06a1.62,1.62,0,0,0,1,.19h.73Z" style="fill:#90251e"/><rect x="115.51" y="77.58" width="2.45" height="1.26" style="fill:#90251e"/><rect x="117.71" y="77.58" width="2.45" height="1.26" style="fill:#90251e"/><path d="M128.78,78.84h-8.89V77.58h6.4a2.74,2.74,0,0,0-.58-1.76,2.43,2.43,0,0,0-2.83-.63,2.78,2.78,0,0,0-1,.7,10.12,10.12,0,0,0-.6-1,4.41,4.41,0,0,1,1.19-.79,3.62,3.62,0,0,1,1.46-.31,3.53,3.53,0,0,1,3.68,3.76h1.17v1.27Zm-4.26,2.43H123.3V80h1.22Z" style="fill:#90251e"/><rect x="128.47" y="77.58" width="2.45" height="1.26" style="fill:#90251e"/><path d="M131.8,72.79h-1.21V71.56h1.21Zm4,6h-5.12V77.58h1.15a.76.76,0,0,0,.75-.38,1.9,1.9,0,0,0,.13-.84V73.82h1.23V76.3a2.08,2.08,0,0,1-.27,1.28h2.13v1.26Zm-1.86-6h-1.22V71.56h1.22Z" style="fill:#90251e"/><rect x="135.44" y="77.58" width="2.45" height="1.26" style="fill:#90251e"/><path d="M142.69,78.84h-5.07V77.58h1.15a.74.74,0,0,0,.74-.38,1.87,1.87,0,0,0,.14-.84V71.7h1.22v4.6a2.17,2.17,0,0,1-.26,1.28h2.08v1.26Z" style="fill:#90251e"/><rect x="142.4" y="77.58" width="2.45" height="1.26" style="fill:#90251e"/><path d="M147.73,76.84c0,1.34-.62,2-1.86,2h-1.3V77.58h1.05c.41,0,.66-.12.78-.36a2.32,2.32,0,0,0,.09-.8V71.7h1.24v5.14Z" style="fill:#90251e"/><path d="M160.81,77.58v1.26c-1.36,0-1.75-.21-2.26-1a3.55,3.55,0,0,1-3.64,2.81,3.77,3.77,0,0,1-3.81-3.84V75.6h1.24v1.09a2.51,2.51,0,0,0,2.6,2.79,2.32,2.32,0,0,0,2.53-2.08,1.07,1.07,0,0,0-1.12-1.17h-.2V75.11h.49a2.36,2.36,0,0,1,2.19,1.32c.45.83.89,1.15,1.52,1.15Zm-6.33,5.55h-1.22V81.9h1.22Zm2.09,0h-1.22V81.9h1.22Z" style="fill:#90251e"/><rect x="160.5" y="77.58" width="2.45" height="1.26" style="fill:#90251e"/><rect x="162.7" y="77.58" width="2.45" height="1.26" style="fill:#90251e"/><rect x="164.89" y="77.58" width="2.45" height="1.26" style="fill:#90251e"/><rect x="167.08" y="77.58" width="2.45" height="1.26" style="fill:#90251e"/><path d="M172.4,76.84c0,1.34-.62,2-1.85,2h-1.2V77.58h.94a.79.79,0,0,0,.79-.37,2.48,2.48,0,0,0,.09-.79V73.81h1.23Zm0,4.43h-1.21V80h1.21Z" style="fill:#90251e"/><path d="M178.72,78.84h-5.26V77.58h4c0-1.45-.57-2.29-1.69-2.54a5.62,5.62,0,0,0-1.12-.1V73.81c.61,0,1,0,1.16,0a2.62,2.62,0,0,1,.66.15c1.48.5,2.22,1.7,2.24,3.59v1.26Z" style="fill:#90251e"/><path d="M189.14,78.84H187.8a2.06,2.06,0,0,1-2-1.63,1.72,1.72,0,0,1-1.42.83,2.32,2.32,0,0,1-2.29-2.61c0-1.66.87-2.69,2.29-2.69h2.74v3.51c0,.87.41,1.33,1.24,1.33h.78Zm-3.31-3.53v-1.6h-1.12c-.86,0-1.39.68-1.39,1.71,0,.85.47,1.58,1.21,1.58s1.3-.75,1.3-1.69m-.91-3.47H183.7V70.6h1.22Zm2.1,0H185.8V70.6H187Z" style="fill:#90251e"/><rect x="188.83" y="77.58" width="2.45" height="1.26" style="fill:#90251e"/><rect x="191.02" y="77.58" width="2.45" height="1.26" style="fill:#90251e"/><rect x="193.22" y="77.58" width="2.45" height="1.26" style="fill:#90251e"/><path d="M202.8,78.07v.77h-7.41V77.58h6.08a2.7,2.7,0,0,0-.6-1.76A2.34,2.34,0,0,0,199,75H196.4l2.18-3.28h1.48l-1.5,2.12h.54a3.67,3.67,0,0,1,2.13.6,4,4,0,0,1,1.57,3.65" style="fill:#90251e"/><path d="M208.3,78.84h-2c-.19,1.19-1.2,1.84-2.7,1.84V79.62a1.37,1.37,0,0,0,1.54-1.57V73.82h1.24v3.76h1.9Z" style="fill:#90251e"/><rect x="207.89" y="77.58" width="2.45" height="1.26" style="fill:#90251e"/><rect x="210.09" y="77.58" width="2.45" height="1.26" style="fill:#90251e"/><rect x="212.28" y="77.58" width="2.45" height="1.26" style="fill:#90251e"/><path d="M214.5,77.58h.9c.63,0,.94-.43.94-1.31V73.82h1.25v2.41a2.67,2.67,0,0,1-.2,1.29v.06h1.16c.63,0,.94-.41.94-1.23V73.82h1.25v2.41a2.21,2.21,0,0,1-.26,1.35h1.21c.63,0,.94-.41.94-1.22V73.82h1.25v2.39c0,1.6-.88,2.64-2.14,2.64h-7.25V77.58Zm3.95-6h1.21V72.8h-1.21Zm1.05-1.75h1.22v1.24H219.5Zm1,1.75h1.21V72.8h-1.21Z" style="fill:#90251e"/></svg>