<?xml version="1.0" encoding="utf-8"?>
<!-- Generator: Adobe Illustrator 25.3.0, SVG Export Plug-In . SVG Version: 6.00 Build 0)  -->
<svg version="1.1" id="Layer_1" xmlns="http://www.w3.org/2000/svg" xmlns:xlink="http://www.w3.org/1999/xlink" x="0px" y="0px"
	 viewBox="0 0 595.28 841.89" style="enable-background:new 0 0 595.28 841.89;" xml:space="preserve">
<style type="text/css">
	.st0{fill:#E2BA85;}
</style>
<path class="st0" d="M156.19,474.71l6.95,6.95c-4.88,5.12-11.34,7.83-19.49,7.83c-15.18,0-27.32-11.42-27.32-28.6
	c0-17.17,12.06-28.59,27.4-28.59c8.15,0,14.62,2.87,19.49,7.99l-6.95,6.95c-3.19-3.2-7.59-4.95-12.54-4.95
	c-9.91,0-17.49,6.71-17.49,18.61c0,11.98,7.59,18.69,17.49,18.69C148.61,479.58,153.08,477.91,156.19,474.71"/>
<rect x="176.31" y="432.94" class="st0" width="9.9" height="55.91"/>
<path class="st0" d="M213.87,476.23v12.62h-9.9v-55.91h21.64c11.91,0,21.65,8.94,21.65,21.65c0,12.7-9.74,21.65-21.65,21.65H213.87z
	 M213.87,442.92v23.41h11.74c6.47,0,11.74-4.47,11.74-11.74c0-7.19-5.27-11.67-11.74-11.67H213.87z"/>
<path class="st0" d="M291.25,473.44l11.25,15.42h-12.2l-9.42-12.54h-10.62v12.54h-9.91v-55.91h21.64c11.91,0,21.63,8.94,21.63,21.65
	C303.61,469.6,291.25,473.44,291.25,473.44 M270.25,442.92v23.41h11.74c6.48,0,11.74-4.47,11.74-11.74
	c0-7.19-5.27-11.67-11.74-11.67H270.25z"/>
<rect x="318.89" y="432.94" class="st0" width="9.9" height="55.91"/>
<path class="st0" d="M339.54,466.73h14.38l12.22-33.79h10.3l20.21,55.91h-10.14l-4.55-12.86h-21.16l-4.64,12.86h-10.15l4.63-12.86
	h-11.1V466.73z M371.33,446.44l-7.35,20.29h14.62L371.33,446.44z"/>
<polygon class="st0" points="441.75,432.94 451.5,432.94 451.5,488.85 438.23,488.85 417.63,447.88 417.63,488.85 407.89,488.85 
	407.89,432.94 421.14,432.94 441.75,473.99 "/>
<rect x="468.68" y="432.94" class="st0" width="9.91" height="55.91"/>
<path class="st0" d="M274.75,412.14c-0.17-0.71,1.7-2.52,2.16-4.14c0.62-2.23,0.94-5.19-3.54-3.86c-4.96,1.47-2.97,5.68-1.79,7.56
	c1.19,1.88,0.61,3.23-0.18,4.31c-0.79,1.09,1.66,2.23,3.08,1.89c1.42-0.34,2.73-1.22,3.29-2.33
	C278.33,414.47,274.92,412.85,274.75,412.14 M274.3,409.26c-0.42,0.64-0.97,1.3-1.53,0.39c0,0-1.43-2.61,0.06-3.33
	c2.15-1.03,2.33-0.05,2.32,0.48C275.15,407.88,274.61,408.79,274.3,409.26 M283.01,359.54c0.53,0.2,1.09-0.03,1.4-0.59
	c0.79-1.37,0.31-7.13,0.04-8c-0.29-0.95-0.62-1.41-0.99-1.38c-0.41,0.04-0.52,0.59-0.57,1.06l-0.74,6.75
	C281.93,358.55,282.42,359.32,283.01,359.54 M293.77,404.3c-0.17-0.71,1.7-2.52,2.16-4.14c0.63-2.23,0.94-5.19-3.54-3.86
	c-4.96,1.47-2.98,5.68-1.79,7.57c1.19,1.88,0.61,3.22-0.18,4.31c-0.79,1.09,1.66,2.23,3.08,1.89c1.42-0.34,2.74-1.22,3.29-2.33
	C297.35,406.63,293.94,405.01,293.77,404.3 M293.32,401.42c-0.42,0.64-0.97,1.3-1.53,0.4c0,0-1.43-2.61,0.06-3.33
	c2.15-1.03,2.33-0.05,2.32,0.48C294.17,400.04,293.63,400.95,293.32,401.42 M311.14,397.12c-0.17-0.71,1.7-2.52,2.16-4.14
	c0.63-2.23,0.94-5.19-3.54-3.86c-4.96,1.47-2.98,5.68-1.79,7.57c1.19,1.88,0.61,3.22-0.18,4.31c-0.79,1.09,1.65,2.23,3.08,1.89
	c1.42-0.33,2.74-1.22,3.3-2.32C314.72,399.45,311.31,397.83,311.14,397.12 M310.69,394.24c-0.42,0.64-0.97,1.3-1.53,0.39
	c0,0-1.44-2.61,0.06-3.33c2.15-1.03,2.33-0.05,2.32,0.48C311.54,392.85,311,393.76,310.69,394.24 M357.98,357.37
	c-0.06-0.12-0.26-0.36-0.77-0.11c-0.61,0.3-12.96,5.4-28.58,11.85c-20.06,8.28-46.09,19.03-64.85,26.87
	c-4.15-2.29-8.13-4.66-11.54-8.22c1,0.43,2.05,0.8,3.15,1.1c12.61,3.42,27.72-3,33.94-6.87c8.59-5.34,16.91-13.51,19.29-17.79
	c1.59-2.86,1.46-5.28,0.79-7.15c1.46-1.15,3.74-3.39,4.17-6.41c0.33-2.41,0.08-4.09-0.58-5.57c1.7-2.55,8.91-13.41,10.21-17.5
	c0.53-1.64,0.53-3.9-0.27-6.04c0.04-0.06,0.08-0.12,0.12-0.18c0.84-1.65,0.96-3.59,0.35-5.47c-0.75-2.3-2.53-4.3-4.88-5.49
	c-4.42-2.24-9.59-0.98-11.51,2.82c-0.51,1.02-0.75,2.14-0.72,3.29c-0.01,0.01-0.02,0.01-0.02,0.02c-0.04,0.07-5.16,6.88-15.14,11.04
	c-10.14,4.22-19.18,4.4-19.27,4.4c-0.08,0-0.16,0.02-0.24,0.03c-0.51-0.89-1.12-1.74-1.82-2.53c-2.63-2.93-6.25-4.66-10.18-4.87
	c-3.94-0.21-7.72,1.12-10.65,3.76c-2.93,2.63-4.66,6.25-4.88,10.18c-0.16,3.06,0.62,5.94,2.09,8.38
	c-3.28,4.78-8.68,14.92-5.65,26.52c3.66,14.05,11.07,19.89,18.83,24.41c-11.08,4.64-18.81,7.93-19.8,8.5
	c-2.54,1.47-2.96,3.1-2.55,4.05c0.32,0.76,1.17,1.1,2.04,0.83c4.35-1.71,106.02-41.74,110.65-44.27
	C353.64,364.79,358.53,358.43,357.98,357.37 M310.39,314.91c0.98-1.94,3.87-2.46,6.43-1.16c1.46,0.74,2.55,1.94,2.99,3.29
	c0.04,0.14,0.08,0.29,0.12,0.45c-0.66-0.49-1.39-0.91-2.25-1.25c-2.77-1.06-5.4-1.05-7.6-0.12
	C310.1,315.69,310.2,315.28,310.39,314.91 M308.8,322.42c0.65-1.41,2.67-4.49,7.52-2.64c3.4,1.3,3.82,4.96,3.28,6.63
	c-0.89,2.79-5.7,10.43-8.89,15.25c-0.05-0.06-0.09-0.12-0.15-0.18c-1-1.2-1.94-3.94-1.99-5.26c-0.04-1.11-0.62-2.24-1.49-3.04
	C307.17,330.61,307.59,325.09,308.8,322.42 M304.8,336.38c0.07,2,1.26,5.59,2.86,7.51c1.93,2.34,2.58,3.29,2.17,6.22
	c-0.2,1.44-1.4,2.79-2.42,3.67c-0.22-0.26-0.42-0.46-0.58-0.63c-0.81-0.86-1.84-1.5-2.94-1.92c0-0.01-0.02-0.03-0.02-0.04
	c-1.95-2.4-2.99-5.85-3.22-7.59c-0.2-1.51,0.38-5.19,2.67-7.31c0.4-0.38,0.79-0.56,1-0.49C304.56,335.89,304.77,336.23,304.8,336.38
	 M292.59,331.03c5.12-2.14,9.05-4.87,11.82-7.23c-0.7,2.92-0.96,6.34-1.06,8.31c-0.89,0.19-1.78,0.66-2.59,1.42
	c-1.44,1.32-2.4,2.98-3.01,4.63c-0.51,0.27-1.03,0.55-1.59,0.83c-5.28,2.61-12.85,3.89-12.92,3.9l0.62,3.73
	c0.31-0.05,7.33-1.24,12.99-3.78c-0.01,0.47,0.01,0.9,0.06,1.26c0.2,1.47,0.87,4.17,2.26,6.77c-0.81,0.2-1.54,0.54-2.14,1.04
	l-1.83,1.73c-2.3,2.27-6.15,6.08-12.61,10.6c-0.81,0.57-1.64,1.08-2.48,1.54c-0.43-2.82-1.35-8.63-2.05-11.97
	c-0.85-3.99-3.52-14.72-4.4-18.18C276.92,335.38,284.35,334.47,292.59,331.03 M248.93,338.66c0.15-2.73,1.35-5.24,3.39-7.07
	c2.07-1.86,4.75-2.8,7.54-2.65c5.72,0.31,10.12,5.17,9.82,10.83c-0.3,5.67-5.2,10.03-10.93,9.72
	C253.03,349.18,248.62,344.32,248.93,338.66 M245.43,376.39l-0.02,0.01c-0.44-1.23-0.85-2.55-1.22-3.95
	c-2.44-9.35,1.6-17.88,4.5-22.45c2.46,2.33,5.71,3.83,9.35,4.03c6.28,0.34,11.86-3.32,14.27-8.75c0.64,2.54,1.27,5.06,1.71,6.87
	c-0.79-1.06-1.92-2.08-2.42-1.19c-0.9,1.64-1.44,3.08-3.74,3.26c-4.98,0.38-7.38,0.79-4.87,4.8c2.56,4.1,4.83,2.39,5.53,0.48
	c0.55-1.5,0.93-3.44,1.6-3.69c0.65-0.25,4.23,1.23,4.79,0.38c0.59,3.33,1.46,9.33,1.73,11.2c-1.17,0.44-2.22,0.8-3.33,1.1
	c-0.93-0.44-4.07-1.95-7.26-3.91c-2.74-1.68-5.52-3.68-7.17-4.88l-1.23-0.88c-0.7-0.46-1.19-0.3-1.43-0.01
	c-0.11,0.15-0.17,0.34-0.17,0.56c0,0.44,0.25,1.01,0.84,1.56l0.47,0.45c1.73,1.64,6.43,6.07,9.93,8.09c-3.66,0.32-6.2,0-6.26-0.01
	l-0.51,3.75c0.54,0.07,13.39,1.72,24.22-5.87c6.71-4.71,10.71-8.65,13.09-11.01l1.6-1.53c0.88-0.73,3.37-0.4,4.63,0.94
	c1.85,1.97,2.77,3.84,1.23,6.6c-1.82,3.28-9.28,11.01-17.98,16.42c-6.67,4.15-20.43,9.29-30.95,6.43
	C251.5,383.88,247.81,380.91,245.43,376.39"/>
<path class="st0" d="M204.41,533.39v-26.1h14.38c12.26,0,21.5,5.61,21.5,13.05c0,7.44-9.24,13.05-21.5,13.05H204.41z M211.85,529.08
	h6.94c8.41,0,14.06-3.51,14.06-8.74c0-5.12-5.78-8.7-14.06-8.7h-6.94V529.08z"/>
<path class="st0" d="M271.25,533.69c-12.39,0-21.38-5.62-21.38-13.35c0-7.74,9.02-13.35,21.44-13.35s21.44,5.61,21.44,13.35
	C292.76,528.08,283.71,533.69,271.25,533.69 M271.32,511.34c-8.51,0-14,3.53-14,9.01c0,5.49,5.47,9.04,13.94,9.04
	c8.54,0,14.06-3.55,14.06-9.04C285.32,514.95,279.69,511.34,271.32,511.34"/>
<polygon class="st0" points="302.6,533.39 302.6,507.29 310.03,507.29 310.03,529.08 332.29,529.08 332.29,533.39 "/>
<path class="st0" d="M363.51,533.69c-12.39,0-21.38-5.62-21.38-13.35s9.02-13.35,21.44-13.35c6.05,0,11.1,1.21,15.02,3.59
	l-5.12,3.07c-2.54-1.49-6.05-2.31-9.9-2.31c-8.5,0-14,3.54-14,9c0,5.49,5.5,9.04,14,9.04c3.91,0,7.4-0.81,9.84-2.28l5.12,3.07
	C374.68,532.51,369.63,533.69,363.51,533.69"/>
<rect x="388.66" y="506.93" class="st0" width="7.44" height="26.1"/>
</svg>
