<?xml version="1.0" encoding="utf-8"?>
<!-- Generator: Adobe Illustrator 16.0.0, SVG Export Plug-In . SVG Version: 6.00 Build 0)  -->
<!DOCTYPE svg PUBLIC "-//W3C//DTD SVG 1.1//EN" "http://www.w3.org/Graphics/SVG/1.1/DTD/svg11.dtd">
<svg version="1.1" id="Layer_1" xmlns="http://www.w3.org/2000/svg" xmlns:xlink="http://www.w3.org/1999/xlink" x="0px" y="0px"
	 width="348.42px" height="101.691px" viewBox="0 0 348.42 101.691" enable-background="new 0 0 348.42 101.691"
	 xml:space="preserve">
<polygon points="99.388,100.16 101.899,100.16 101.899,91.201 110.649,91.201 110.649,88.631 101.899,88.631 101.899,82.183 
	113.091,82.183 113.091,79.643 99.388,79.643 "/>
<polygon points="122.377,79.643 119.866,79.643 119.866,100.16 133.24,100.16 133.24,97.65 122.377,97.65 "/>
<g>
	<defs>
		<rect id="SVGID_1_" x="-231" y="-259" width="792" height="612"/>
	</defs>
	<clipPath id="SVGID_2_">
		<use xlink:href="#SVGID_1_"  overflow="visible"/>
	</clipPath>
	<path clip-path="url(#SVGID_2_)" d="M152.714,80.84c-3.185-1.866-7.228-1.866-10.413,0c-1.589,0.929-2.862,2.212-3.785,3.813
		c-0.92,1.6-1.387,3.365-1.387,5.25c0,1.882,0.466,3.647,1.387,5.246c0.922,1.603,2.195,2.887,3.785,3.815
		c1.59,0.932,3.342,1.404,5.206,1.404c1.864,0,3.616-0.473,5.207-1.404c1.591-0.932,2.864-2.214,3.783-3.815
		c0.921-1.599,1.387-3.364,1.387-5.246c0-1.885-0.467-3.65-1.387-5.248C155.577,83.054,154.304,81.77,152.714,80.84 M143.579,96.765
		c-1.199-0.71-2.167-1.682-2.875-2.888c-0.706-1.203-1.064-2.54-1.064-3.975c0-1.437,0.358-2.775,1.064-3.975
		c0.71-1.208,1.677-2.179,2.875-2.891c1.193-0.705,2.515-1.063,3.928-1.063c1.414,0,2.736,0.358,3.928,1.063
		c1.196,0.71,2.157,1.68,2.859,2.888c0.697,1.201,1.05,2.54,1.05,3.978c0,1.435-0.353,2.773-1.05,3.977
		c-0.7,1.206-1.661,2.177-2.859,2.886C149.053,98.174,145.962,98.174,143.579,96.765"/>
	<polygon clip-path="url(#SVGID_2_)" points="179.207,93.949 173.882,80.121 168.494,94.019 164.013,79.643 161.387,79.643 
		168.255,101.678 173.877,87.127 179.445,101.691 186.283,79.643 183.629,79.643 	"/>
	<polygon clip-path="url(#SVGID_2_)" points="192.075,100.16 205.778,100.16 205.778,97.59 194.587,97.59 194.587,91.171 
		203.308,91.171 203.308,88.631 194.587,88.631 194.587,82.183 205.778,82.183 205.778,79.643 192.075,79.643 	"/>
	<path clip-path="url(#SVGID_2_)" d="M221.41,91.568c0.641-0.076,1.304-0.268,1.958-0.562c0.983-0.414,1.845-1.103,2.56-2.047
		c0.732-0.962,1.103-2.067,1.103-3.284c0-0.777-0.174-1.543-0.517-2.273c-0.342-0.726-0.834-1.38-1.464-1.942
		c-0.647-0.585-1.413-1.04-2.276-1.351c-0.856-0.31-1.785-0.467-2.758-0.467h-7.343v20.518h2.511V82.154h4.832
		c0.913,0,1.725,0.178,2.412,0.53c0.68,0.349,1.207,0.797,1.564,1.336c0.355,0.531,0.527,1.073,0.527,1.655
		c0,0.646-0.204,1.225-0.624,1.771c-0.436,0.567-0.954,0.995-1.516,1.259c-0.834,0.347-1.959,0.521-3.347,0.521h-3.621l9.001,10.934
		h3.302l-7.027-8.522C220.937,91.619,221.177,91.598,221.41,91.568"/>
	<path clip-path="url(#SVGID_2_)" d="M245.213,89.686c-0.396-0.22-0.882-0.407-1.441-0.558c-0.543-0.145-1.106-0.261-1.679-0.342
		l-1.052-0.15c-0.781-0.097-1.421-0.189-1.918-0.278c-0.455-0.08-0.871-0.21-1.227-0.379c-0.59-0.295-1.091-0.712-1.49-1.243
		c-0.381-0.505-0.566-0.988-0.566-1.478c0-0.392,0.11-0.767,0.334-1.144c0.236-0.396,0.584-0.762,1.045-1.101
		c0.456-0.351,1.008-0.623,1.639-0.811c1.301-0.38,2.748-0.383,4.026,0c0.627,0.188,1.187,0.462,1.661,0.813
		c0.433,0.329,0.769,0.692,0.995,1.08c0.217,0.372,0.336,0.761,0.351,1.153l0.038,0.953l2.475-1.38l-0.071-0.409
		c-0.223-1.294-0.979-2.438-2.26-3.411c-1.483-1.062-3.23-1.6-5.191-1.6c-0.962,0-1.901,0.138-2.793,0.413
		c-0.896,0.279-1.705,0.679-2.404,1.189c-0.742,0.544-1.322,1.182-1.725,1.896c-0.418,0.729-0.629,1.521-0.629,2.356
		c0,1.031,0.316,2.002,0.939,2.884c0.607,0.856,1.452,1.557,2.516,2.079c0.67,0.323,1.47,0.56,2.379,0.705
		c0.874,0.142,1.38,0.223,1.529,0.239c2.003,0.237,2.906,0.536,3.301,0.74c0.613,0.331,1.093,0.735,1.427,1.197
		c0.316,0.437,0.47,0.889,0.47,1.383c0,0.861-0.438,1.603-1.343,2.269c-0.982,0.732-2.216,1.104-3.667,1.104
		c-0.717,0-1.399-0.097-2.035-0.288c-0.624-0.188-1.171-0.461-1.654-0.83c-0.86-0.591-1.303-1.32-1.353-2.228l-0.051-0.938
		l-2.468,1.381l0.079,0.416c0.269,1.354,1.035,2.506,2.285,3.427c0.709,0.514,1.518,0.913,2.403,1.187
		c0.881,0.274,1.821,0.413,2.793,0.413c1.962,0,3.71-0.537,5.197-1.603c0.744-0.547,1.32-1.197,1.717-1.935
		c0.402-0.749,0.605-1.548,0.605-2.376c0-0.97-0.289-1.886-0.859-2.726C246.988,90.946,246.206,90.25,245.213,89.686"/>
	<path clip-path="url(#SVGID_2_)" d="M25.927,3.655c-4.233,0-8.21,1.084-11.821,3.224c-3.615,2.138-6.509,5.056-8.604,8.673
		C3.41,19.165,2.35,23.167,2.35,27.45c0,4.283,1.06,8.298,3.153,11.934c2.092,3.64,4.987,6.57,8.603,8.71
		c3.611,2.14,7.588,3.224,11.821,3.224c3.565,0,6.988-0.783,10.174-2.328c3.066-1.486,5.73-3.588,7.921-6.251l-2.011-1.563
		c-1.972,2.324-4.346,4.171-7.063,5.494c-2.833,1.379-5.867,2.078-9.021,2.078c-3.793,0-7.342-0.962-10.544-2.859
		c-3.199-1.893-5.783-4.501-7.678-7.752c-1.897-3.25-2.858-6.845-2.858-10.686c0-3.841,0.961-7.437,2.858-10.687
		c1.894-3.248,4.477-5.856,7.678-7.752c3.204-1.897,6.751-2.859,10.544-2.859c2.955,0,5.816,0.625,8.503,1.857
		c2.568,1.178,4.837,2.827,6.752,4.906l1.96-1.737c-2.226-2.336-4.822-4.18-7.723-5.481C32.401,4.342,29.207,3.655,25.927,3.655"/>
	<path clip-path="url(#SVGID_2_)" d="M88.548,50.808L71.429,30.046h0.828c1.583,0,3.1-0.085,4.506-0.253
		c1.388-0.165,2.832-0.582,4.293-1.243c2.12-0.894,3.978-2.384,5.532-4.432c1.543-2.034,2.325-4.369,2.325-6.941
		c0-1.633-0.368-3.244-1.093-4.787c-0.727-1.546-1.785-2.951-3.148-4.174C83.26,6.947,81.588,5.956,79.7,5.27
		c-1.893-0.685-3.956-1.033-6.132-1.033H57.422v46.571h2.497V6.734h13.649c2.526,0,4.792,0.505,6.734,1.499
		c1.947,1,3.467,2.306,4.517,3.884c1.06,1.587,1.596,3.29,1.596,5.06c0,1.973-0.639,3.806-1.902,5.447
		c-1.247,1.621-2.741,2.849-4.441,3.648c-2.288,0.946-5.279,1.422-8.908,1.422h-5.001l19.026,23.113H88.548z"/>
	<path clip-path="url(#SVGID_2_)" d="M182.182,3.655c-4.23,0-8.208,1.084-11.819,3.224c-3.613,2.138-6.508,5.056-8.604,8.673
		c-2.092,3.613-3.152,7.615-3.152,11.898c0,4.283,1.06,8.298,3.153,11.934c2.093,3.64,4.986,6.57,8.603,8.71
		c3.611,2.14,7.589,3.224,11.819,3.224c3.566,0,6.991-0.783,10.175-2.328c3.065-1.486,5.729-3.588,7.922-6.251l-2.011-1.563
		c-1.974,2.324-4.347,4.171-7.063,5.494c-2.836,1.379-5.87,2.078-9.023,2.078c-3.793,0-7.34-0.962-10.541-2.859
		c-3.201-1.894-5.785-4.503-7.678-7.752c-1.897-3.249-2.859-6.845-2.859-10.686c0-3.841,0.962-7.438,2.859-10.687
		c1.891-3.247,4.475-5.855,7.678-7.752s6.749-2.859,10.541-2.859c2.957,0,5.816,0.625,8.505,1.857
		c2.566,1.178,4.836,2.827,6.751,4.906l1.96-1.737c-2.224-2.335-4.82-4.178-7.723-5.481C188.657,4.342,185.463,3.655,182.182,3.655"
		/>
	<polygon clip-path="url(#SVGID_2_)" points="247.574,50.808 247.574,4.237 245.077,4.237 245.077,26.238 216.322,26.238 
		216.322,4.237 213.752,4.237 213.752,50.808 216.322,50.808 216.322,28.808 245.077,28.808 245.077,50.808 	"/>
	<polygon clip-path="url(#SVGID_2_)" points="294.123,6.808 294.123,4.237 264.234,4.237 264.234,50.808 294.123,50.808 
		294.123,48.165 266.73,48.165 266.73,28.808 288.076,28.808 288.076,26.238 266.73,26.238 266.73,6.808 	"/>
	<polygon clip-path="url(#SVGID_2_)" points="348.029,4.237 307.942,4.237 307.942,6.808 326.737,6.808 326.737,50.808 
		329.308,50.808 329.308,6.808 348.029,6.808 	"/>
	<path clip-path="url(#SVGID_2_)" fill="#010101" d="M70.247,100.052l-1.235-0.954l36.618-47.287l-7.756-22.393l16.807-24.821
		l4.585,12.755l32.731,12.438l-23.168,18.784L114.251,8.016L99.604,29.645l7.778,22.455L70.247,100.052z M119.961,19.287
		l9.594,26.689l19.351-15.69L119.961,19.287z"/>
	<polygon clip-path="url(#SVGID_2_)" fill="#010101" points="142.574,27.351 142.384,11.165 116.665,13.042 116.551,11.484 
		143.926,9.488 144.135,27.332 	"/>
	
		<rect x="126.241" y="16.667" transform="matrix(0.4775 0.8787 -0.8787 0.4775 101.8418 -90.5168)" clip-path="url(#SVGID_2_)" fill="#010101" width="1.563" height="47.395"/>
	
		<line clip-path="url(#SVGID_2_)" fill="none" stroke="#010101" stroke-miterlimit="10" x1="106.506" y1="51.955" x2="128.796" y2="47.722"/>
	<rect x="4.042" y="64.405" clip-path="url(#SVGID_2_)" width="344.378" height="1.561"/>
</g>
</svg>
