<?xml version="1.0" encoding="UTF-8" standalone="no"?>
<!-- Created with Inkscape (http://www.inkscape.org/) -->

<svg
   xmlns:dc="http://purl.org/dc/elements/1.1/"
   xmlns:cc="http://creativecommons.org/ns#"
   xmlns:rdf="http://www.w3.org/1999/02/22-rdf-syntax-ns#"
   xmlns:svg="http://www.w3.org/2000/svg"
   xmlns="http://www.w3.org/2000/svg"
   xmlns:sodipodi="http://sodipodi.sourceforge.net/DTD/sodipodi-0.dtd"
   xmlns:inkscape="http://www.inkscape.org/namespaces/inkscape"
   width="133.30272mm"
   height="62.373772mm"
   viewBox="0 0 133.30272 62.373772"
   version="1.1"
   id="svg6398"
   inkscape:version="0.92.0 r15299"
   sodipodi:docname="uk gbc.svg">
  <defs
     id="defs6392">
    <style
       id="style6400">.cls-1{fill:none;}.cls-2{clip-path:url(#clip-path);}.cls-3{fill:url(#radial-gradient);}.cls-4{fill:#191919;}</style>
    <clipPath
       id="clip-path">
      <path
         id="path6402"
         d="m 113.61,137.31 q -0.8,-3.43 -1.33,-6.92 a 6.18,6.18 0 0 0 -6.55,-5.32 l -9.17,0.8 a 5.64,5.64 0 0 0 -5.19,6.35 112.08,112.08 0 0 0 2.15,11.16 5.64,5.64 0 0 0 7.17,4 l 8.81,-2.66 a 6.18,6.18 0 0 0 4.11,-7.41 z M 109.2,93.86 93.84,90.21 a 5.7,5.7 0 0 0 -7,4.38 148.54,148.54 0 0 0 -2.39,18.41 5.7,5.7 0 0 0 5.58,6 l 15.78,0.46 a 6.1,6.1 0 0 0 6.18,-5.69 121.28,121.28 0 0 1 1.7,-12.87 6.1,6.1 0 0 0 -4.49,-7.04 z m 12.28,21.71 9,2.69 a 6.17,6.17 0 0 0 7.48,-3.9 q 1.25,-3.41 2.77,-6.71 a 6.17,6.17 0 0 0 -2.56,-8 l -8.29,-4.46 a 5.64,5.64 0 0 0 -7.82,2.46 114.61,114.61 0 0 0 -4.41,10.69 5.65,5.65 0 0 0 3.83,7.23 z M 80.77,164 a 5.65,5.65 0 0 0 -3.46,7.43 q 1.12,2.74 2.38,5.41 1.26,2.67 2.61,5.2 a 5.62,5.62 0 0 0 7.9,2 l 8.12,-4.87 c 2.78,-1.67 3.54,-4.15 2.7,-7.16 -0.43,-1.52 -3.46,-7.16 -4.06,-8.64 -1,-2.46 -4.19,-3.62 -7.25,-2.55 z m 32.33,-14 -7.47,1.61 c -9.41,2.36 -5,8.72 -1.62,15.25 1.5,2.89 4.63,4.36 7.59,3 l 7,-3.11 a 5.19,5.19 0 0 0 2.79,-6.54 q -1.23,-3.27 -2.16,-6.63 A 5.19,5.19 0 0 0 113.1,150 Z m 44,31.33 a 3.33,3.33 0 0 0 -4.69,-4.71 3.33,3.33 0 1 0 4.69,4.71 z m -58.87,14.09 q 1.57,2 3.24,3.93 c 1.84,2.12 5.33,1.94 7.67,-0.31 l 4.92,-4.73 a 5.76,5.76 0 0 0 1.43,-7.14 48.86,48.86 0 0 0 -5.16,-6.58 c -2,-1.91 -4.56,-2.1 -7.3,-0.37 l -5.78,3.64 c -2.74,1.73 -3.75,5.1 -2.1,7.43 q 1.49,2.1 3.08,4.13 z m 53.87,-6 a 3.8608095,3.8608095 0 0 0 -5.45,-5.47 3.8608095,3.8608095 0 1 0 5.45,5.47 z m -6.19,10.35 a 4.59,4.59 0 0 0 -6.47,-6.49 4.59,4.59 0 1 0 6.47,6.49 z m 6.36,-130.4 -12.61,-9.5 a 5.69,5.69 0 0 0 -8.13,1.23 147.68,147.68 0 0 0 -9.6,15.95 5.7,5.7 0 0 0 2.71,7.76 l 14.29,6.71 a 6.11,6.11 0 0 0 7.94,-2.76 120.31,120.31 0 0 1 6.68,-11.09 6.11,6.11 0 0 0 -1.28,-8.25 z m -16.8,123.05 c 0,0 5,-4.69 0.88,-8.5 -0.49,-0.45 -1,-0.87 -1.47,-1.36 -2.31,-2.43 -5.54,-1.72 -7.38,0.4 l -1,1.15 c -2.16,3 -2.41,5.63 0.77,8.19 3.18,2.56 5.56,2.97 8.2,0.17 z M 131.64,158 c 0.58,-0.16 2.24,-0.83 2.24,-0.83 a 6.34,6.34 0 0 0 3.73,-7.64 l -0.23,-0.9 a 5.7,5.7 0 0 0 -6.59,-4.52 l -2.36,0.36 a 5.73,5.73 0 0 0 -5.08,6.28 c 0.49,5.83 4.29,8.4 8.29,7.25 z m -5.79,12.28 c -0.84,-1.43 -3.11,-1.77 -5.17,-0.7 l -4.32,2.24 c -2.05,1.07 -3,3.4 -1.94,5.15 q 0.93,1.59 1.94,3.13 1.01,1.54 2.07,3 c 1.18,1.62 3.67,1.7 5.47,0.24 l 3.78,-3.07 c 1.8,-1.46 2.41,-3.67 1.44,-5 q -0.87,-1.2 -1.69,-2.44 -0.82,-1.24 -1.58,-2.51 z m 33.92,-90.5 q -3.3,3.89 -6.21,8.09 a 5.29,5.29 0 0 0 1.68,7.51 l 7,4.31 A 5.81,5.81 0 0 0 170,98 q 1.8,-2.54 3.79,-4.94 a 5.82,5.82 0 0 0 -0.35,-7.92 l -6,-5.65 a 5.29,5.29 0 0 0 -7.66,0.33 z m -29.07,89.76 a 5.39,5.39 0 0 0 7.59,2.46 l 0.63,-0.34 a 6.12,6.12 0 0 0 -4.63,-11.25 l -0.69,0.2 a 5.4,5.4 0 0 0 -3.65,7.09 q 0.36,0.93 0.75,1.84 z m 29.4,-54.65 q 0.83,-2.1 1.78,-4.15 a 5.73,5.73 0 0 0 -2.26,-7.44 l -5.49,-3.06 a 5.16,5.16 0 0 0 -7.21,2.16 q -1.75,3.62 -3.17,7.39 a 5.16,5.16 0 0 0 3.4,6.72 l 6,1.87 a 5.72,5.72 0 0 0 6.95,-3.49 z m -28.89,7.58 -6.8,-0.67 a 5.82,5.82 0 0 0 -6.25,5.28 27.82,27.82 0 0 0 0,8.72 5.74,5.74 0 0 0 6.29,5.24 l 6.79,-0.72 a 6.22,6.22 0 0 0 5.43,-6.48 q -0.08,-2.47 0,-4.94 a 6.22,6.22 0 0 0 -5.46,-6.43 z m 20.88,51.35 a 3.79,3.79 0 0 0 -1.41,-7.44 3.79,3.79 0 1 0 1.41,7.44 z m 0.51,-14.73 a 4.91,4.91 0 0 0 -4.49,-4.75 4.75,4.75 0 1 0 0,9.48 4.91,4.91 0 0 0 4.49,-4.73 z m -14,21.61 a 4.36,4.36 0 0 0 6.42,0.8 l 0.06,-0.05 a 4.4,4.4 0 0 0 -5,-7.17 h -0.07 a 4.36,4.36 0 0 0 -1.47,6.3 z m 8,-29.74 c 0.46,-0.08 1.82,-0.46 1.82,-0.46 a 5,5 0 0 0 3.56,-5.65 c -0.07,-0.46 -0.13,-0.93 -0.19,-1.39 a 4.32,4.32 0 0 0 -4.46,-3.76 l -2,0.08 a 4.47,4.47 0 0 0 -4.51,4 c -0.48,5.09 2.4,7.74 5.81,7.22 z m -0.25,-15.74 c 0.56,0.07 2.26,0.08 2.26,0.08 4.21,0 5.61,-2.3 6,-5.34 0.06,-0.49 0.14,-1 0.21,-1.47 a 5.42,5.42 0 0 0 -4.07,-6.08 l -2.4,-0.59 a 5.28,5.28 0 0 0 -6.4,3.33 c -1.75,6.23 -0.73,9.4 4.42,10.07 z m -30.82,71.31 c 4.64,3.29 7.8,4.59 11.22,0.07 0.39,-0.52 1.79,-2.94 1.79,-2.94 1.65,-3.08 0.46,-5.71 -2.46,-7.65 l -1.88,-1.23 c -2.88,-2 -5.89,-1.93 -9,2.91 -1.89,2.94 -3.3,6.26 0.35,8.85 z m 17.72,11.37 -1,-0.41 a 6.33,6.33 0 0 0 -8.09,2.61 l -1.16,2.23 a 5.54,5.54 0 0 0 2.46,7.76 q 1.82,0.81 3.68,1.53 a 5.54,5.54 0 0 0 7.25,-3.71 l 0.73,-2.42 a 6.33,6.33 0 0 0 -3.85,-7.58 z m 24.28,-16.6 a 4.24,4.24 0 0 0 -7,-4.76 4.24,4.24 0 1 0 7,4.76 z m -6.46,5 a 5,5 0 0 0 -6.17,2.36 4.79,4.79 0 1 0 8.84,3.69 5,5 0 0 0 -2.65,-6.07 z m -9.07,3.31 a 5.27,5.27 0 0 0 -3.5,-6.16 l -0.84,-0.3 a 5.27,5.27 0 0 0 -6.63,2.5 l -0.92,1.9 a 4.62,4.62 0 0 0 2.36,6.36 q 1.55,0.6 3.12,1.13 a 4.62,4.62 0 0 0 5.89,-3.38 z m 6.48,8.59 a 6.23,6.23 0 0 0 -7.19,4.18 l -0.22,0.7 a 5.5,5.5 0 0 0 3.9,7.13 q 1,0.22 2,0.41 a 5.49,5.49 0 0 0 6.41,-5 l 0.08,-0.73 a 6.23,6.23 0 0 0 -5.02,-6.68 z m 13.38,-26.58 a 3.55,3.55 0 0 0 -5,-5 3.55,3.55 0 1 0 5,5 z m 9.9,12.22 a 3.79,3.79 0 0 0 -3.67,3.47 3.67,3.67 0 1 0 7.33,0 3.79,3.79 0 0 0 -3.71,-3.46 z m 10.8,10 a 3,3 0 0 0 -5.45,2.24 3,3 0 1 0 5.45,-2.24 z M 165.12,195 a 3.75,3.75 0 0 0 -4.25,2.64 3.63,3.63 0 1 0 7.1,1.48 3.75,3.75 0 0 0 -2.85,-4.12 z m 5.21,20.6 a 3.94,3.94 0 0 0 -3.07,4.27 3.82,3.82 0 1 0 7.49,-1.42 4,4 0 0 0 -4.43,-2.85 z m -7.15,-9.51 a 4.57,4.57 0 0 0 -5.69,2.18 4.42,4.42 0 1 0 8.15,3.4 4.57,4.57 0 0 0 -2.46,-5.59 z m -2.35,11.5 a 4.9,4.9 0 0 0 -4.74,4.48 4.74,4.74 0 1 0 9.46,0 4.9,4.9 0 0 0 -4.73,-4.48 z m -102,-76.42 A 147.68,147.68 0 0 0 64,159 a 5.69,5.69 0 0 0 7.55,3.27 l 14.62,-6 a 6.11,6.11 0 0 0 3.36,-7.71 120,120 0 0 1 -3.62,-12.43 6.11,6.11 0 0 0 -7,-4.69 l -15.53,2.84 a 5.69,5.69 0 0 0 -4.56,6.89 z m 28.1,-58.49 19.18,4.65 a 6.07,6.07 0 0 0 7.21,-4.33 138.62,138.62 0 0 1 5.51,-15.58 6.07,6.07 0 0 0 -2.91,-7.87 L 98.07,51.14 a 5.72,5.72 0 0 0 -7.73,2.86 170.14,170.14 0 0 0 -7.65,21.6 5.72,5.72 0 0 0 4.23,7.07 z m -8.68,34 a 136,136 0 0 1 -1.18,-16.17 6.08,6.08 0 0 0 -5.82,-6 L 51.83,93.93 a 5.72,5.72 0 0 0 -5.94,5.7 167.09,167.09 0 0 0 1.65,22.57 5.72,5.72 0 0 0 6.69,4.8 l 19.13,-3.41 a 6.08,6.08 0 0 0 4.88,-6.88 z m 57,-66.77 15.65,10.37 a 6.08,6.08 0 0 0 8.25,-1.59 133,133 0 0 1 9.85,-12.07 6.09,6.09 0 0 0 -0.06,-8.4 L 155.77,24.9 a 5.71,5.71 0 0 0 -8.23,0 163.79,163.79 0 0 0 -13.87,16.93 5.71,5.71 0 0 0 1.58,8.11 z M 87.5,37.68 113.22,51.55 a 6,6 0 0 0 8,-2.33 178.49,178.49 0 0 1 14.05,-20.65 6,6 0 0 0 -0.78,-8.34 L 112.21,1.38 A 5.75,5.75 0 0 0 104,2.13 219.83,219.83 0 0 0 85.2,29.76 a 5.75,5.75 0 0 0 2.3,7.92 z m -25.88,129 q -1.79,-3.72 -3.37,-7.54 -1.58,-3.82 -3,-7.89 a 6.07,6.07 0 0 0 -7.42,-3.92 l -19,5.64 A 5.72,5.72 0 0 0 25,160.24 q 1.85,5.53 4.07,10.93 2.22,5.4 4.71,10.43 a 5.72,5.72 0 0 0 7.86,2.4 l 17.47,-9.36 a 6.07,6.07 0 0 0 2.52,-7.96 z m 20.11,22.94 q -1.91,-2.6 -3.68,-5.3 -1.77,-2.7 -3.48,-5.62 a 6.1,6.1 0 0 0 -8,-2.44 l -14,7.27 a 5.7,5.7 0 0 0 -2.41,7.86 q 2.33,4.1 4.92,8 2.59,3.9 5.3,7.56 a 5.7,5.7 0 0 0 8.17,0.93 l 12.26,-10 a 6.1,6.1 0 0 0 0.93,-8.26 z m 17.9,14.69 q -2.59,-2.41 -5,-5 a 6.18,6.18 0 0 0 -8.41,-0.75 l -7.18,5.81 a 5.64,5.64 0 0 0 -0.75,8.16 112.6,112.6 0 0 0 8,8.07 5.64,5.64 0 0 0 8.16,-0.72 l 5.84,-7.16 a 6.18,6.18 0 0 0 -0.65,-8.41 z M 45.52,135 a 178.7,178.7 0 0 1 -4.64,-24.55 6,6 0 0 0 -6.44,-5.35 l -29.12,2.44 a 5.75,5.75 0 0 0 -5.32,6.34 219.61,219.61 0 0 0 6.21,32.84 5.75,5.75 0 0 0 7.23,4 l 28,-8.36 A 6,6 0 0 0 45.52,135 Z m 72.38,77.73 q -2.13,-1.23 -4.17,-2.59 a 6.22,6.22 0 0 0 -8.37,1.22 l -4.18,5.4 a 5.61,5.61 0 0 0 1.15,8.1 q 3.61,2.47 7.43,4.61 a 5.61,5.61 0 0 0 7.77,-2.56 l 3,-6.14 a 6.22,6.22 0 0 0 -2.62,-8.06 z m -80.55,-126.5 29.07,3 A 6,6 0 0 0 73,84 180.16,180.16 0 0 1 78.1,59.49 6,6 0 0 0 74.19,52.09 L 46.29,43.28 A 5.75,5.75 0 0 0 39,47.13 221.35,221.35 0 0 0 32.2,79.8 a 5.76,5.76 0 0 0 5.15,6.43 z"
         class="cls-1"
         inkscape:connector-curvature="0"
         style="fill:none" />
    </clipPath>
    <radialGradient
       gradientUnits="userSpaceOnUse"
       gradientTransform="matrix(1,0,0,1.06,0,-184.47)"
       r="248.78"
       cy="323.10001"
       cx="159.48"
       id="radial-gradient">
      <stop
         id="stop6405"
         stop-color="#058c95"
         offset="0.26" />
      <stop
         id="stop6407"
         stop-color="#4abdc9"
         offset="0.74" />
    </radialGradient>
  </defs>
  <sodipodi:namedview
     id="base"
     pagecolor="#ffffff"
     bordercolor="#666666"
     borderopacity="1.0"
     inkscape:pageopacity="0.0"
     inkscape:pageshadow="2"
     inkscape:zoom="1.7938501"
     inkscape:cx="250.02089"
     inkscape:cy="115.98192"
     inkscape:document-units="mm"
     inkscape:current-layer="layer1"
     showgrid="false"
     fit-margin-top="0"
     fit-margin-left="0"
     fit-margin-right="0"
     fit-margin-bottom="0"
     units="mm"
     inkscape:window-width="1280"
     inkscape:window-height="744"
     inkscape:window-x="-4"
     inkscape:window-y="-4"
     inkscape:window-maximized="1" />
  <metadata
     id="metadata6395">
    <rdf:RDF>
      <cc:Work
         rdf:about="">
        <dc:format>image/svg+xml</dc:format>
        <dc:type
           rdf:resource="http://purl.org/dc/dcmitype/StillImage" />
        <dc:title></dc:title>
      </cc:Work>
    </rdf:RDF>
  </metadata>
  <g
     inkscape:label="Layer 1"
     inkscape:groupmode="layer"
     id="layer1"
     transform="translate(150.06207,-232.80717)">
    <g
       id="g6446"
       transform="matrix(0.26458333,0,0,0.26458333,-149.55366,233.30791)">
      <g
         id="g6416"
         clip-path="url(#clip-path)"
         class="cls-2">
        <rect
           id="rect6414"
           height="510.42999"
           width="514.79999"
           y="-95.889999"
           x="-97.919998"
           class="cls-3"
           style="fill:url(#radial-gradient)" />
      </g>
      <path
         id="path6418"
         d="m 297.33,141.13 c 0.17,2.18 0.17,4.85 0.17,5.86 0,18.24 -6,32.8 -18.58,44.18 a 60.74,60.74 0 0 1 -40.84,15.73 c -33.14,0 -58.41,-24.94 -58.41,-57.74 0,-33.14 25.1,-58.24 58.07,-58.24 a 59.73,59.73 0 0 1 47,22.09 l -20.59,15.9 C 257,120 249.13,116 238.59,116 c -17.91,0 -31.46,14.23 -31.46,33.3 a 32.54,32.54 0 0 0 32.64,33 29.14,29.14 0 0 0 27.95,-19.25 h -27.46 v -21.92 z"
         class="cls-4"
         inkscape:connector-curvature="0"
         style="fill:#191919" />
      <path
         id="path6420"
         d="m 349.38,93.1 c 14.06,0 22.43,1.51 28.45,5.36 7.7,4.69 12.38,14.23 12.38,24.94 0,7.7 -2.51,14.39 -7.53,19.41 -3.18,3.35 -5.69,4.69 -11.72,6.53 6.86,1.51 9.87,3 13.39,6.36 5,4.69 7.53,11.21 7.53,19.41 0,10.38 -4.18,19.58 -11.38,24.43 -5.52,3.68 -12.22,5.19 -23.6,5.19 H 311.22 V 93.1 Z m -11,46.19 H 345 c 12,0 17.57,-4 17.57,-13.05 0,-9.05 -5.36,-12.89 -17.91,-12.89 h -6.36 z m 0,46 h 9.87 c 11.38,0 16.23,-3.85 16.23,-12.89 0,-5.52 -2,-9.2 -6,-11.38 -3,-1.67 -5.69,-2 -13.89,-2 h -6.19 z"
         class="cls-4"
         inkscape:connector-curvature="0"
         style="fill:#191919" />
      <path
         id="path6422"
         d="m 498.66,191 c -13.39,11.38 -25.27,15.9 -41.84,15.9 -17.07,0 -30.63,-5.52 -40.84,-16.9 -9.54,-10.54 -15.06,-25.44 -15.06,-40.84 0,-18.08 7.36,-35 19.75,-45.69 9.87,-8.37 22.09,-12.55 37,-12.55 17.41,0 29.12,4.69 42.34,16.9 l -17.41,18.24 c -7.87,-6.86 -15.57,-10 -23.93,-10 -17.91,0 -30.29,13.22 -30.29,32.47 0,19.58 13.22,33.3 32,33.3 9.54,0 16.4,-3 22.26,-9.54 z"
         class="cls-4"
         inkscape:connector-curvature="0"
         style="fill:#191919" />
      <path
         id="path6424"
         d="m 204.21,61.85 c 0,3.32 0.46,5.38 1.53,6.91 a 7.16,7.16 0 0 0 11.22,-0.4 c 0.8,-1.46 1.13,-3.32 1.13,-6.51 V 36.08 h 10.76 v 25.3 q 0,9.76 -4.58,14.74 c -3,3.25 -7.7,5.11 -13,5.11 -5.51,0 -10.49,-2 -13.68,-5.51 -2.86,-3.19 -4.12,-7.44 -4.12,-14.34 v -25.3 h 10.76 z"
         class="cls-4"
         inkscape:connector-curvature="0"
         style="fill:#191919" />
      <path
         id="path6426"
         d="M 245,80.38 H 234.26 V 36.08 H 245 v 18.73 l 10.36,-18.73 h 12.35 l -12.33,21.05 12.35,23.24 H 255.38 L 245,61 Z"
         class="cls-4"
         inkscape:connector-curvature="0"
         style="fill:#191919" />
    </g>
  </g>
</svg>
