<?xml version="1.0" encoding="UTF-8" ?>
<!DOCTYPE svg PUBLIC "-//W3C//DTD SVG 1.1//EN" "http://www.w3.org/Graphics/SVG/1.1/DTD/svg11.dtd">
<svg width="427.5pt" height="132pt" viewBox="0 0 1528 471" version="1.1" xmlns="http://www.w3.org/2000/svg">
<path fill="#3aa7d7" opacity="1.00" d=" M 90.94 5.16 C 91.56 5.30 92.78 5.56 93.39 5.69 C 93.97 23.79 93.00 41.94 94.28 60.00 C 94.28 73.38 94.11 86.75 94.51 100.12 C 95.64 99.81 96.22 99.09 96.25 97.95 C 96.55 93.75 96.34 89.52 96.35 85.31 C 96.66 85.31 97.28 85.29 97.59 85.29 C 97.49 89.83 97.78 94.38 97.58 98.92 C 97.44 101.92 93.97 103.76 94.45 106.94 C 94.48 117.70 94.36 128.46 94.71 139.22 C 97.56 139.66 100.43 140.03 103.21 140.83 C 104.21 143.40 103.54 146.30 103.74 149.00 C 103.58 153.57 105.00 158.25 103.62 162.73 C 101.82 166.74 98.04 169.40 95.82 173.14 C 95.16 178.85 95.76 184.62 95.82 190.35 C 98.01 190.42 100.20 190.41 102.40 190.34 C 100.41 187.86 97.75 185.50 98.17 181.99 C 100.42 182.70 102.49 183.85 104.56 184.99 C 104.13 179.60 99.57 174.41 101.92 168.98 C 103.39 165.79 107.75 166.19 109.41 168.98 C 108.93 171.67 105.49 170.35 103.59 171.01 C 103.88 175.61 106.53 179.56 107.46 183.99 C 107.02 186.16 105.87 188.09 104.99 190.10 C 109.11 190.12 115.38 192.48 113.85 197.69 C 107.99 197.40 102.13 197.07 96.26 197.40 C 96.21 199.14 96.11 200.88 96.30 202.61 C 101.18 206.57 107.82 208.12 111.99 213.03 C 114.26 215.45 113.57 218.97 113.66 221.99 C 113.59 237.31 113.62 252.65 113.69 267.97 C 113.92 271.71 109.81 273.26 107.76 275.75 C 107.01 278.73 107.36 281.90 107.50 284.95 C 107.37 286.89 109.24 287.91 110.42 289.13 C 111.07 286.62 109.43 281.96 113.44 282.29 C 113.54 285.11 113.55 287.95 113.47 290.78 C 114.77 291.30 116.09 291.81 117.40 292.32 C 116.89 289.53 116.61 286.70 116.48 283.86 C 118.65 281.91 121.03 280.21 123.65 278.92 C 123.65 284.03 124.29 289.26 123.14 294.28 C 121.41 297.03 118.90 299.47 115.92 300.82 C 113.86 300.32 112.01 299.26 110.10 298.42 C 106.17 302.74 101.01 305.72 97.18 310.10 C 94.18 315.38 96.29 321.71 96.62 327.40 C 98.03 326.24 99.27 324.76 101.02 324.10 C 106.00 325.93 109.58 330.12 113.37 333.64 C 114.12 334.51 115.31 334.47 116.34 334.67 C 116.50 333.54 116.65 332.41 116.79 331.28 C 112.30 327.54 106.61 325.61 102.22 321.77 C 98.63 318.73 97.85 312.64 101.13 309.12 C 103.78 305.76 107.00 302.79 111.00 301.11 C 114.41 306.21 120.45 309.14 123.12 314.71 C 124.64 321.46 124.16 329.21 119.98 334.99 C 118.72 336.94 117.00 338.60 116.02 340.73 C 115.26 343.37 115.14 346.26 113.63 348.65 C 111.37 352.32 108.13 355.24 105.04 358.21 C 109.45 361.67 115.68 362.26 120.49 359.24 C 118.14 357.40 115.89 355.41 114.09 353.01 C 114.95 352.19 115.81 351.39 116.69 350.60 C 118.26 351.98 119.97 353.22 121.91 354.03 C 121.58 349.90 118.29 345.71 120.66 341.67 C 122.22 338.84 125.92 339.13 128.26 340.78 C 128.75 341.94 128.50 343.25 128.61 344.48 C 126.57 344.37 124.55 344.13 122.52 343.99 C 123.17 348.40 125.00 352.69 124.10 357.24 C 126.00 356.03 128.25 355.02 129.34 352.92 C 129.69 350.76 129.56 348.57 129.56 346.40 C 130.06 346.40 131.07 346.39 131.57 346.39 C 131.58 349.11 131.55 351.82 131.52 354.55 C 122.75 362.07 111.07 368.74 99.15 365.77 C 99.24 367.83 99.33 369.90 99.39 371.97 C 101.70 372.45 104.05 372.60 106.40 372.47 C 106.64 370.44 107.53 368.29 109.81 367.94 C 115.28 366.81 120.93 367.72 126.46 367.09 C 126.81 365.32 127.27 363.56 127.83 361.85 C 130.08 363.52 130.39 366.14 129.83 368.70 C 123.29 372.13 115.67 369.08 108.85 371.01 L 108.13 372.25 C 115.23 373.11 122.39 372.00 129.48 372.71 C 132.43 373.72 131.36 377.37 131.70 379.73 C 129.25 381.73 126.48 383.35 123.38 384.05 C 123.06 382.14 122.74 380.23 122.47 378.32 C 117.60 377.59 112.51 377.43 107.73 378.73 C 106.11 382.03 104.60 385.40 102.46 388.41 C 101.15 390.00 101.33 392.11 101.24 394.04 C 106.06 390.82 109.93 386.31 115.07 383.54 C 116.80 383.25 118.25 384.60 119.76 385.22 C 126.44 388.98 134.08 391.04 140.33 395.52 C 140.69 399.21 140.34 402.94 140.46 406.65 C 137.51 409.30 134.17 411.53 130.48 413.03 C 130.26 408.73 130.69 404.39 130.13 400.11 C 128.44 397.82 125.45 397.17 123.05 395.90 C 119.01 394.21 115.35 391.60 111.14 390.35 C 105.75 392.79 103.52 401.49 108.21 405.80 C 112.16 410.10 118.06 411.22 123.21 413.44 C 128.63 415.33 135.31 416.00 138.74 421.21 C 141.74 426.26 139.52 432.33 139.51 437.82 C 139.63 440.27 136.80 441.05 135.23 442.35 C 131.97 444.22 129.30 447.23 125.67 448.37 C 118.52 448.93 111.33 448.24 104.24 447.29 C 100.06 446.73 97.48 443.00 94.21 440.75 C 89.60 444.42 84.54 448.13 78.40 448.27 C 68.47 448.59 58.50 448.90 48.58 448.47 C 48.64 441.97 48.53 435.48 48.56 428.99 C 48.44 424.69 52.29 421.86 54.05 418.27 C 52.56 416.69 51.06 415.10 49.57 413.53 C 49.46 407.66 49.46 401.80 49.47 395.93 C 49.36 393.59 50.33 391.44 51.15 389.32 C 50.50 388.02 49.11 386.83 49.45 385.25 C 49.95 382.92 51.85 381.31 53.49 379.75 C 53.40 382.18 53.44 384.63 53.95 387.03 C 59.02 384.14 64.55 381.96 69.23 378.46 C 64.94 378.22 60.54 378.65 56.38 377.28 C 56.76 374.91 55.74 371.66 58.15 370.13 C 60.33 368.27 62.86 366.60 64.01 363.86 C 66.53 358.96 65.19 353.26 64.20 348.14 C 63.79 346.12 61.44 346.42 59.94 345.85 C 59.33 351.48 59.99 357.14 59.57 362.77 C 59.59 364.63 58.19 365.93 56.67 366.76 C 56.17 351.19 56.51 335.59 56.51 320.01 C 58.93 319.22 61.29 318.27 63.60 317.19 C 63.52 314.48 63.36 311.77 63.48 309.06 C 63.49 306.12 66.00 304.13 67.62 301.97 C 65.85 299.54 63.14 297.29 63.22 294.03 C 63.24 288.53 62.79 282.96 63.58 277.51 C 65.69 275.09 68.42 273.21 70.14 270.45 C 67.47 269.08 62.09 269.23 62.61 265.05 C 62.57 262.79 62.88 260.55 63.20 258.33 C 67.75 258.24 72.33 258.69 76.86 258.15 C 77.77 257.36 78.60 256.48 79.44 255.62 C 75.60 256.53 71.71 254.98 67.88 256.04 C 65.93 256.67 64.61 254.82 63.14 253.94 C 64.18 253.07 65.06 251.94 66.32 251.39 C 69.05 251.43 71.77 252.49 74.48 251.57 C 76.95 250.60 78.84 252.75 80.92 253.67 C 82.58 252.35 83.66 250.15 83.29 248.02 C 81.98 242.89 78.33 238.58 73.49 236.45 C 71.46 233.83 69.60 231.08 67.60 228.44 C 65.98 226.50 66.27 223.62 67.71 221.67 C 69.83 218.76 72.75 216.48 74.52 213.29 C 73.74 213.02 72.18 212.47 71.40 212.19 C 70.83 208.48 73.43 205.61 75.55 202.92 C 73.45 199.51 70.82 196.06 70.68 191.89 C 70.54 186.29 70.55 180.68 70.57 175.07 C 70.29 172.67 72.67 170.69 74.95 170.75 C 79.88 170.52 84.82 170.80 89.76 170.69 C 89.78 161.97 89.66 153.25 89.46 144.53 C 87.78 144.07 86.10 143.59 84.41 143.16 C 83.27 148.58 80.81 153.53 78.03 158.26 C 76.13 160.54 80.64 164.29 82.30 161.50 C 83.66 159.49 84.73 157.31 86.12 155.33 C 88.59 159.80 84.83 164.64 81.81 167.80 C 79.53 170.73 75.48 168.23 74.57 165.38 C 72.98 162.26 74.63 158.79 75.93 155.87 C 78.18 151.71 80.66 147.63 81.94 143.03 C 81.01 141.70 80.00 140.40 79.33 138.92 C 80.08 136.74 81.82 134.98 82.32 132.72 C 82.93 125.54 82.08 118.29 82.89 111.14 C 84.73 108.61 87.29 106.75 89.57 104.64 C 89.68 76.43 89.35 48.21 89.88 20.00 C 90.32 15.06 89.75 10.02 90.94 5.16 M 87.31 109.40 C 86.09 115.87 86.81 122.49 86.40 129.03 C 86.05 131.72 84.73 134.16 83.98 136.74 C 85.83 137.25 87.70 137.69 89.58 138.05 C 89.60 128.43 89.55 118.82 89.66 109.20 C 89.08 109.25 87.90 109.35 87.31 109.40 M 94.66 145.62 C 94.62 153.20 94.19 160.89 95.86 168.34 C 98.35 166.52 100.78 164.12 101.42 160.99 C 101.81 155.84 101.41 150.64 100.27 145.60 C 98.40 145.59 96.53 145.59 94.66 145.62 M 74.52 174.61 C 74.38 179.01 74.01 183.46 74.67 187.84 C 75.50 188.93 76.54 190.20 78.02 190.31 C 82.09 190.78 86.21 190.49 90.30 190.32 C 90.57 185.09 90.42 179.86 90.16 174.63 C 84.95 174.44 79.73 174.55 74.52 174.61 M 84.30 197.39 C 84.35 197.90 84.44 198.91 84.49 199.42 C 86.84 200.02 89.21 200.56 91.63 200.81 C 91.47 199.78 91.33 198.76 91.21 197.73 C 88.91 197.59 86.60 197.50 84.30 197.39 M 73.87 209.07 C 78.53 210.13 83.31 210.27 88.07 210.32 C 87.27 212.86 86.18 215.31 85.63 217.93 C 85.89 220.75 88.99 221.24 91.23 221.58 C 91.13 217.62 92.25 213.10 90.60 209.47 C 86.56 207.26 82.22 205.57 77.96 203.83 C 75.55 203.94 74.90 207.26 73.87 209.07 M 96.65 212.30 C 96.56 215.31 96.57 218.33 96.67 221.34 C 100.59 221.64 104.54 221.67 108.46 221.32 C 107.17 216.01 101.75 212.90 96.65 212.30 M 73.58 217.62 C 73.15 219.54 72.20 221.67 73.50 223.48 C 77.68 230.83 87.13 234.90 88.15 244.03 C 88.81 249.83 83.66 253.49 81.33 258.17 C 85.01 258.43 88.70 258.36 92.39 258.23 C 93.07 248.37 91.09 238.61 91.34 228.74 C 87.77 228.46 83.72 227.67 81.63 224.44 C 81.12 221.87 81.77 219.27 82.05 216.72 C 79.19 216.51 76.34 216.88 73.58 217.62 M 97.46 228.45 C 97.26 238.36 97.31 248.29 97.78 258.20 C 100.70 258.34 103.63 258.42 106.56 258.45 C 106.64 262.86 106.67 267.27 106.77 271.68 C 109.23 271.50 111.71 269.75 111.33 267.02 C 110.98 258.35 111.36 249.67 110.81 241.00 C 110.51 236.71 113.09 230.55 107.91 228.33 C 106.38 230.63 105.04 233.05 103.83 235.52 C 104.95 235.54 106.06 235.56 107.17 235.59 C 106.35 237.86 104.81 239.72 102.27 240.00 C 99.72 235.68 103.88 232.22 105.72 228.66 C 102.97 228.42 100.22 228.38 97.46 228.45 M 78.56 263.96 C 81.72 266.63 85.87 268.14 88.36 271.55 C 89.94 273.60 89.72 276.33 89.56 278.76 C 89.17 283.41 85.42 286.84 81.92 289.46 C 76.66 290.17 72.40 285.65 69.55 281.74 C 66.64 287.55 70.55 293.44 75.24 296.78 C 81.03 292.42 87.01 288.21 92.43 283.41 C 94.48 277.20 92.23 270.40 92.71 263.95 C 88.00 263.51 83.26 263.45 78.56 263.96 M 97.77 263.66 C 97.57 268.77 97.09 274.08 98.82 279.01 C 99.77 278.24 100.65 277.42 101.47 276.52 C 101.86 272.36 101.54 268.16 101.66 263.99 C 100.37 263.86 99.07 263.75 97.77 263.66 M 74.00 271.98 C 74.35 277.55 79.50 281.44 84.41 283.10 C 85.06 277.16 79.24 272.96 74.00 271.98 M 99.22 281.30 C 97.03 286.40 96.64 292.03 95.35 297.39 C 97.86 297.42 100.38 297.41 102.89 297.37 C 102.78 297.91 102.55 298.99 102.44 299.53 C 99.50 300.24 96.49 300.55 93.48 300.58 C 91.76 303.41 90.16 306.40 87.59 308.57 C 85.97 310.08 83.93 311.19 82.67 313.05 C 81.95 324.66 83.97 336.18 83.86 347.79 C 85.30 347.79 86.75 347.80 88.19 347.81 C 88.86 341.18 87.11 334.63 86.96 328.01 C 86.81 322.81 85.28 316.54 89.39 312.40 C 94.88 306.57 102.39 303.08 107.65 296.98 C 105.73 294.99 103.43 293.22 102.15 290.72 C 101.27 287.65 101.67 284.39 101.61 281.24 C 101.02 281.26 99.82 281.29 99.22 281.30 M 78.16 298.39 C 80.05 301.34 81.47 304.54 82.85 307.75 C 85.18 305.75 87.31 303.46 88.43 300.55 C 86.27 300.99 83.96 301.52 81.95 300.23 C 84.47 297.90 88.01 297.84 91.19 297.22 C 91.94 294.05 92.98 290.83 92.38 287.54 C 87.52 291.00 83.00 294.90 78.16 298.39 M 71.00 304.80 C 70.49 308.18 70.63 311.61 71.30 314.96 C 72.89 313.96 76.15 313.63 75.69 311.12 C 75.43 308.33 73.87 305.54 71.00 304.80 M 105.92 315.12 C 109.57 318.50 114.19 320.94 119.05 322.04 C 117.46 318.46 114.20 316.17 111.56 313.44 C 109.72 311.61 108.08 309.56 106.03 307.97 C 103.28 309.15 104.06 313.38 105.92 315.12 M 71.62 319.00 C 71.25 327.94 72.62 336.85 72.45 345.80 C 74.40 346.23 77.14 348.82 78.39 346.07 C 78.32 335.95 76.94 325.90 76.13 315.82 C 74.58 316.61 71.75 316.82 71.62 319.00 M 60.32 321.38 C 59.17 327.50 59.71 333.78 59.70 339.98 C 59.46 342.65 62.37 343.29 64.37 343.76 C 64.87 336.22 64.12 328.70 63.53 321.19 C 62.46 321.23 61.39 321.29 60.32 321.38 M 96.67 327.79 C 96.30 333.75 97.21 339.65 97.86 345.56 C 102.44 344.87 106.22 342.05 110.02 339.63 C 109.61 336.38 106.91 334.26 104.00 333.23 C 103.45 334.51 102.89 335.80 102.34 337.10 C 102.95 337.51 104.15 338.32 104.76 338.73 C 103.49 340.24 101.94 341.46 100.06 342.12 C 97.75 338.44 101.86 335.87 103.51 333.00 C 102.76 330.08 99.05 329.18 96.67 327.79 M 104.02 349.05 C 101.59 350.47 98.60 351.30 97.23 354.01 C 99.19 355.17 101.19 357.15 103.68 356.62 C 107.32 353.66 111.40 349.88 111.41 344.81 C 108.82 345.99 106.48 347.63 104.02 349.05 M 73.59 351.12 C 73.08 356.70 71.99 362.70 67.76 366.76 C 66.64 368.39 63.80 369.32 64.26 371.63 C 68.86 372.64 73.58 373.05 78.27 373.17 C 76.33 369.76 72.04 370.32 68.76 369.51 C 70.48 366.24 74.07 364.82 77.05 362.98 C 80.68 360.75 84.68 359.24 88.50 357.40 C 90.05 356.81 89.33 354.84 89.60 353.60 C 87.21 353.47 84.82 353.39 82.43 353.36 C 79.54 357.11 77.06 361.64 72.73 363.89 C 72.93 359.69 77.29 356.75 77.93 352.45 C 76.48 351.99 75.04 351.55 73.59 351.12 M 80.39 363.94 C 83.49 365.90 86.86 367.42 90.36 368.51 C 90.14 366.30 91.10 363.10 88.89 361.70 C 85.87 361.35 83.08 362.79 80.39 363.94 M 100.32 378.28 C 100.32 380.25 100.35 382.22 100.40 384.20 C 103.04 383.29 104.34 380.84 105.07 378.32 C 103.49 378.29 101.90 378.28 100.32 378.28 M 75.17 378.69 C 77.90 382.04 82.59 383.80 83.79 388.31 C 85.64 392.69 83.35 397.11 81.93 401.22 C 85.91 399.88 89.47 397.24 91.63 393.61 C 91.99 388.61 91.28 383.58 91.31 378.58 C 85.94 378.32 80.54 378.20 75.17 378.69 M 56.73 389.75 C 55.33 391.50 55.69 393.88 55.59 395.97 C 55.69 399.97 55.35 403.99 55.74 407.99 C 56.37 410.65 58.66 412.29 60.88 413.60 C 65.70 411.05 70.50 408.44 75.52 406.30 C 75.53 405.88 75.55 405.05 75.57 404.63 C 72.26 402.73 69.39 400.23 66.36 397.96 C 64.58 400.62 62.53 403.14 61.44 406.19 C 63.13 405.96 64.81 405.71 66.49 405.48 C 65.43 407.98 63.40 409.78 61.05 411.06 C 60.14 409.53 58.06 408.09 58.92 406.09 C 60.30 402.29 63.21 399.35 65.38 396.02 C 63.84 391.95 65.20 387.84 66.36 383.90 C 62.88 385.30 59.20 386.80 56.73 389.75 M 70.38 384.97 C 69.37 390.96 74.15 396.48 79.73 397.97 C 80.14 392.12 75.34 387.28 70.38 384.97 M 82.93 406.00 C 77.29 409.38 71.39 412.32 65.96 416.05 C 72.73 420.19 80.45 423.16 86.08 428.93 C 89.44 432.80 85.30 437.00 83.78 440.65 C 85.79 440.72 87.81 440.74 89.82 440.78 C 91.86 437.91 93.31 434.59 93.41 431.02 C 93.95 420.58 93.17 410.14 92.60 399.72 C 89.11 401.39 86.23 404.02 82.93 406.00 M 102.59 415.43 C 102.59 417.01 102.60 418.60 102.63 420.19 C 104.01 419.64 105.54 419.29 106.52 418.09 C 106.21 416.15 104.02 416.07 102.59 415.43 M 102.74 421.99 C 102.40 425.65 101.50 429.30 101.71 433.00 C 102.38 436.18 105.22 438.54 108.29 439.33 C 114.83 441.16 121.75 440.85 128.48 440.58 C 128.36 435.78 129.67 430.60 127.85 426.05 C 123.66 422.13 117.64 420.88 112.13 420.01 C 110.73 423.78 108.58 427.20 106.80 430.80 C 108.57 430.26 110.34 429.68 112.12 429.16 C 110.88 432.30 108.31 435.68 104.49 434.66 C 103.21 431.17 104.96 427.82 107.28 425.27 C 108.49 423.36 111.13 421.80 110.71 419.26 C 107.74 418.57 105.16 420.61 102.74 421.99 M 57.15 422.05 C 55.95 428.38 56.78 434.93 56.89 441.34 C 59.92 441.58 62.96 441.57 66.00 441.46 C 64.61 439.47 63.81 436.96 64.75 434.61 C 66.28 431.91 68.34 429.56 69.95 426.91 C 66.15 424.77 62.32 422.37 57.98 421.49 L 57.15 422.05 M 67.13 435.02 C 67.93 437.50 70.48 434.57 72.09 434.32 C 71.20 437.00 69.40 439.18 67.61 441.31 C 72.09 441.57 76.58 441.34 81.04 440.83 C 83.13 434.82 77.25 429.72 72.01 428.31 C 69.77 429.98 68.43 432.60 67.13 435.02 Z" />
<path fill="#3aa7d7" opacity="1.00" d=" M 97.51 134.22 C 98.62 131.13 100.97 128.71 102.96 126.16 C 103.09 126.57 103.37 127.40 103.51 127.81 C 102.95 128.85 102.39 129.89 101.84 130.94 C 102.43 131.95 103.07 132.95 103.61 134.00 C 102.64 135.56 101.23 136.76 99.92 138.03 C 99.01 136.86 97.04 135.98 97.51 134.22 Z" />
<path fill="#3aa7d7" opacity="1.00" d=" M 75.78 182.18 C 77.90 180.68 79.88 178.06 82.75 178.33 C 84.74 179.01 86.74 180.28 87.82 182.13 C 88.04 184.10 85.83 184.76 84.52 185.66 C 81.26 187.84 77.85 184.54 75.78 182.18 Z" />
<path fill="#3aa7d7" opacity="1.00" d=" M 106.37 199.29 C 109.18 198.56 111.40 200.88 113.64 202.13 C 112.09 203.99 110.45 206.15 107.95 206.68 C 105.28 206.33 103.24 204.32 101.04 202.95 C 102.53 201.40 104.13 199.66 106.37 199.29 Z" />
<path fill="#3aa7d7" opacity="1.00" d=" M 69.40 248.82 C 67.90 245.17 68.81 241.12 71.93 238.66 C 71.81 240.55 71.64 242.44 71.51 244.34 C 73.21 243.71 74.86 242.98 76.57 242.39 C 76.53 246.15 73.30 249.54 69.40 248.82 Z" />
<path fill="#3aa7d7" opacity="1.00" d=" M 99.10 245.15 C 100.70 244.14 102.24 242.95 104.04 242.31 C 106.24 242.57 107.69 244.40 109.17 245.83 C 108.25 246.64 107.32 247.45 106.39 248.25 C 107.30 249.71 108.19 251.19 109.02 252.70 C 107.16 253.50 105.36 255.05 103.22 254.78 C 101.72 254.12 100.46 253.06 99.14 252.11 C 100.01 250.84 100.96 249.62 101.81 248.34 C 100.90 247.28 100.00 246.22 99.10 245.15 Z" />
<path fill="#3aa7d7" opacity="1.00" d=" M 109.73 275.29 C 111.79 273.99 113.78 272.54 116.05 271.66 C 118.87 271.84 120.93 274.24 122.97 275.96 C 120.79 277.63 118.49 279.16 116.11 280.56 C 113.83 278.99 111.52 277.42 109.73 275.29 Z" />
<path fill="#3aa7d7" opacity="1.00" d=" M 118.43 307.60 C 118.64 305.98 119.09 304.44 119.77 302.97 C 120.83 304.02 121.87 305.09 122.90 306.17 C 121.48 306.85 119.99 307.33 118.43 307.60 Z" />
<path fill="#3aa7d7" opacity="1.00" d=" M 109.31 403.70 C 107.35 402.03 108.90 399.63 110.24 398.17 C 111.43 399.39 112.66 400.58 113.90 401.75 C 113.03 403.32 110.92 406.11 109.31 403.70 Z" />
<path fill="#3aa7d7" opacity="1.00" d=" M 117.39 403.40 C 118.70 400.29 122.37 399.04 125.37 400.51 C 125.92 403.47 126.46 406.44 126.95 409.42 C 124.89 409.31 122.66 409.46 120.93 408.10 C 119.33 406.93 116.54 405.89 117.39 403.40 M 120.40 402.42 C 119.13 403.80 121.46 405.96 122.79 404.70 C 124.15 403.32 121.71 401.21 120.40 402.42 Z" />
<path fill="#3aa7d7" opacity="1.00" d=" M 88.07 407.13 C 90.61 407.93 90.86 411.53 90.76 413.82 C 90.44 417.85 85.97 418.48 83.13 420.15 C 81.67 420.74 79.86 422.34 78.35 420.97 C 75.21 419.32 76.12 415.37 76.93 412.63 C 77.81 414.05 78.68 415.48 79.50 416.95 C 82.61 417.36 82.68 414.33 82.92 412.06 C 84.57 412.80 86.22 413.57 87.90 414.24 C 87.90 411.97 86.36 408.99 88.07 407.13 Z" />
<path fill="#3aa7d7" opacity="1.00" d=" M 118.42 426.45 C 119.50 424.71 121.96 423.98 123.83 424.82 C 124.69 425.86 126.12 427.11 124.67 428.35 C 123.35 428.58 122.02 428.78 120.70 428.94 C 121.26 431.26 121.96 433.56 122.18 435.95 C 122.00 437.91 120.37 439.16 119.10 440.47 C 116.31 438.81 113.45 436.62 114.10 432.95 C 115.93 433.86 117.69 434.90 119.45 435.94 C 119.21 432.76 117.77 429.65 118.42 426.45 Z" />
<path fill="#3aa7d7" opacity="1.00" d=" M 36.07 444.66 C 38.92 444.26 41.76 443.80 44.63 443.69 C 43.72 445.46 42.92 447.29 41.89 449.00 C 40.61 449.86 38.92 449.67 37.46 450.03 C 37.91 449.12 38.35 448.22 38.78 447.31 C 37.88 446.42 36.98 445.54 36.07 444.66 Z" />
<path fill="#3aa7d7" opacity="1.00" d=" M 16.80 447.84 C 21.74 446.82 26.65 445.53 31.72 445.33 C 31.59 445.78 31.34 446.70 31.22 447.16 C 26.22 447.94 21.28 449.02 16.28 449.80 C 16.41 449.31 16.67 448.33 16.80 447.84 Z" />
<path fill="#3aa7d7" opacity="1.00" d=" M 44.28 451.69 C 51.24 451.35 58.26 451.96 65.17 450.72 C 96.85 450.19 128.67 449.71 160.22 453.03 C 166.78 454.23 173.48 454.19 180.04 455.36 C 179.02 458.35 176.41 462.27 172.74 461.17 C 164.01 460.03 155.33 458.47 146.51 458.14 C 139.69 456.99 132.72 458.02 125.91 456.80 C 120.63 456.15 115.30 456.16 110.00 455.81 C 95.36 455.86 80.67 455.18 66.09 456.78 C 59.33 457.98 52.42 457.02 45.66 458.19 C 32.47 458.79 19.39 460.76 6.30 462.34 C 7.92 459.92 9.71 457.50 12.17 455.88 C 22.88 454.61 33.70 453.89 44.28 451.69 Z" />
<path fill="#3aa7d7" opacity="1.00" d=" M 840.58 82.55 C 844.32 78.51 848.31 74.70 851.98 70.58 C 856.68 70.66 861.38 70.45 866.08 70.79 C 864.56 75.02 860.52 77.44 857.78 80.79 C 853.68 85.69 848.72 89.79 844.87 94.89 C 836.66 103.20 828.60 111.64 820.67 120.20 C 820.56 120.65 820.34 121.56 820.23 122.02 C 832.62 136.19 845.04 150.35 857.59 164.39 C 861.21 168.67 865.93 172.38 868.10 177.63 C 863.01 177.73 857.92 177.68 852.83 177.63 C 838.01 160.83 823.47 143.81 808.70 126.98 C 808.42 127.46 807.86 128.42 807.58 128.91 C 807.48 144.48 807.50 160.06 807.60 175.64 C 803.47 176.72 799.17 176.26 794.96 176.32 C 793.59 176.45 791.39 175.70 791.67 173.99 C 791.78 140.70 791.51 107.38 791.80 74.10 C 792.12 73.76 792.75 73.08 793.07 72.74 C 797.91 72.69 802.86 72.22 807.63 73.31 C 807.40 87.25 807.61 101.18 807.50 115.12 C 807.82 115.63 808.45 116.64 808.76 117.15 C 819.19 105.46 830.28 94.37 840.58 82.55 Z" />
<path fill="#3aa7d7" opacity="1.00" d=" M 1067.52 71.52 C 1070.48 69.58 1074.54 70.91 1077.95 70.71 C 1089.58 102.54 1100.11 134.80 1112.11 166.50 C 1113.10 169.52 1114.43 172.46 1114.92 175.63 C 1109.25 175.76 1103.57 175.88 1097.91 175.54 C 1096.62 169.40 1094.12 163.59 1092.32 157.59 C 1090.75 153.47 1089.83 149.11 1087.86 145.16 C 1086.70 142.58 1083.52 142.20 1081.03 142.32 C 1071.68 142.46 1062.32 142.13 1052.99 142.47 C 1051.59 143.89 1051.19 145.87 1050.61 147.69 C 1047.56 156.96 1044.02 166.08 1041.41 175.49 C 1038.03 176.43 1034.32 176.94 1031.05 175.37 C 1040.33 150.06 1048.77 124.43 1057.86 99.05 C 1061.11 89.89 1063.94 80.56 1067.52 71.52 M 1068.77 93.31 C 1066.39 103.01 1062.43 112.24 1059.49 121.78 C 1058.11 125.67 1056.38 129.50 1056.09 133.68 C 1064.89 133.03 1074.09 135.17 1082.55 132.04 C 1082.52 130.01 1082.45 127.95 1081.69 126.04 C 1077.82 115.21 1074.20 104.29 1070.61 93.37 C 1070.15 93.35 1069.23 93.33 1068.77 93.31 Z" />
<path fill="#3aa7d7" opacity="1.00" d=" M 1450.96 147.82 C 1460.00 122.10 1468.80 96.30 1477.93 70.63 C 1480.95 70.64 1483.98 70.48 1487.01 70.65 C 1488.72 71.08 1488.92 73.07 1489.56 74.43 C 1492.99 84.40 1496.75 94.27 1499.77 104.38 L 1500.52 103.42 L 1499.91 105.59 L 1500.39 104.56 C 1506.46 124.30 1514.07 143.55 1520.86 163.05 C 1522.18 167.47 1525.11 171.49 1524.91 176.27 C 1519.41 176.13 1513.81 176.91 1508.40 175.67 C 1505.62 166.30 1502.16 157.15 1499.24 147.83 C 1498.52 145.02 1496.30 142.02 1493.07 142.38 C 1483.02 142.33 1472.97 142.24 1462.93 142.43 C 1458.48 153.15 1455.12 164.41 1451.30 175.41 C 1448.02 176.60 1444.34 176.84 1441.16 175.23 C 1444.78 166.22 1447.80 156.99 1450.96 147.82 M 1479.31 93.36 C 1475.99 103.02 1472.65 112.68 1469.44 122.38 C 1468.21 126.09 1466.29 129.65 1466.16 133.63 C 1472.78 133.72 1479.41 133.66 1486.05 133.67 C 1488.31 133.75 1490.38 132.70 1492.52 132.07 C 1493.22 127.22 1490.48 123.01 1489.23 118.51 C 1486.67 110.14 1482.94 102.10 1481.25 93.47 C 1480.76 93.44 1479.79 93.39 1479.31 93.36 Z" />
<path fill="#3aa7d7" opacity="1.00" d=" M 344.46 72.50 C 349.49 72.56 354.55 72.12 359.56 72.75 C 359.45 98.19 359.55 123.62 359.51 149.05 C 360.01 157.63 366.21 165.96 374.93 167.47 C 379.29 167.68 383.69 167.73 388.05 167.35 C 391.90 166.22 395.38 163.93 398.11 161.00 C 401.95 157.06 403.32 151.39 403.26 146.03 C 403.21 121.65 403.21 97.26 403.25 72.88 C 407.63 72.55 412.03 72.54 416.42 72.70 C 416.85 98.13 416.44 123.58 416.63 149.01 C 416.98 155.95 413.72 162.30 409.94 167.88 C 404.34 173.32 396.80 176.88 389.01 177.62 C 379.05 178.03 368.34 178.72 359.38 173.51 C 349.63 168.64 344.36 157.62 344.37 147.01 C 344.41 122.17 344.24 97.33 344.46 72.50 Z" />
<path fill="#3aa7d7" opacity="1.00" d=" M 479.70 76.97 C 479.62 75.36 480.18 73.84 480.60 72.32 C 492.40 72.74 504.22 72.06 516.02 72.72 C 525.42 73.72 535.50 76.64 541.54 84.46 C 546.66 90.46 545.82 98.69 545.55 106.02 C 543.55 117.91 532.66 125.23 522.00 128.83 C 524.56 133.23 527.66 137.29 530.25 141.68 C 535.60 150.82 542.04 159.25 548.02 167.98 C 549.69 170.52 552.13 172.65 552.98 175.66 C 549.74 176.68 546.33 176.25 543.00 176.34 C 539.87 176.29 536.59 176.69 533.66 175.33 C 526.77 164.28 519.64 153.35 512.63 142.37 C 510.17 138.89 507.42 134.94 503.02 133.93 C 500.96 133.27 498.76 133.44 496.64 133.29 C 496.05 134.80 495.38 136.32 495.55 137.98 C 495.65 150.55 495.50 163.12 495.64 175.69 C 491.18 176.73 486.55 176.26 482.02 176.31 C 480.30 176.49 479.42 174.48 479.69 173.03 C 479.72 141.01 479.72 108.99 479.70 76.97 M 496.24 81.23 C 496.24 95.72 496.11 110.21 496.30 124.70 C 506.57 124.21 518.25 122.58 525.55 114.54 C 530.42 109.28 530.06 101.60 529.44 94.95 C 528.33 90.62 525.07 87.18 521.62 84.51 C 514.09 79.60 504.70 81.64 496.24 81.23 Z" />
<path fill="#3aa7d7" opacity="1.00" d=" M 608.51 76.06 C 607.24 73.17 610.88 72.58 612.96 72.62 C 621.02 72.70 629.09 72.46 637.15 72.88 C 637.64 100.24 637.18 127.62 637.38 154.99 C 637.57 161.46 636.51 167.85 635.81 174.25 C 635.29 180.37 632.41 185.95 629.03 190.95 C 623.90 196.26 616.72 198.96 609.72 200.77 C 606.66 201.67 603.58 202.63 600.36 202.53 C 600.25 201.01 600.36 199.51 600.69 198.05 C 603.86 195.61 607.86 194.50 610.97 191.94 C 613.32 189.97 615.45 187.72 617.29 185.25 C 621.75 179.91 621.55 172.54 622.23 166.00 C 622.31 140.66 622.21 115.33 622.28 89.99 C 622.14 86.67 622.23 83.14 620.83 80.07 C 618.00 76.13 612.36 78.15 608.51 76.06 Z" />
<path fill="#3aa7d7" opacity="1.00" d=" M 914.31 73.58 C 918.98 71.95 924.06 72.76 928.91 72.77 C 929.26 73.09 929.95 73.72 930.29 74.03 C 930.40 86.02 930.33 98.02 930.33 110.01 C 930.56 111.46 929.77 113.34 930.97 114.48 C 943.63 114.55 956.31 114.61 968.97 114.45 L 969.54 113.80 C 969.76 100.54 969.43 87.26 969.66 74.00 C 970.02 73.69 970.72 73.06 971.07 72.75 C 975.34 72.61 979.64 72.49 983.90 72.82 C 984.24 73.13 984.92 73.76 985.26 74.07 C 985.27 107.67 985.42 141.30 985.19 174.90 C 984.87 175.21 984.22 175.85 983.90 176.16 C 979.62 176.47 975.31 176.37 971.04 176.24 C 970.69 175.93 970.00 175.31 969.65 175.00 C 969.51 158.48 969.65 141.95 969.59 125.43 C 956.57 125.28 943.54 125.51 930.52 125.32 C 930.06 141.85 930.56 158.41 930.30 174.94 C 929.12 176.80 926.87 176.25 925.03 176.36 C 921.45 176.22 917.72 176.85 914.33 175.40 C 914.53 141.46 914.58 107.51 914.31 73.58 Z" />
<path fill="#3aa7d7" opacity="1.00" d=" M 1167.34 73.59 C 1172.20 71.83 1177.53 72.82 1182.61 72.84 C 1182.70 102.57 1182.66 132.30 1182.63 162.03 C 1182.39 163.42 1182.81 164.58 1183.87 165.50 C 1200.36 165.59 1216.84 165.45 1233.33 165.56 C 1233.37 168.89 1233.38 172.21 1233.46 175.54 C 1231.67 175.96 1229.87 176.43 1228.04 176.35 C 1211.03 176.32 1194.02 176.31 1177.01 176.33 C 1173.77 176.28 1170.41 176.76 1167.36 175.41 C 1167.50 141.47 1167.55 107.52 1167.34 73.59 Z" />
<path fill="#3aa7d7" opacity="1.00" d=" M 1273.65 74.00 C 1274.89 73.08 1276.34 72.44 1277.95 72.65 C 1281.83 72.71 1285.85 72.19 1289.56 73.71 C 1289.31 107.55 1289.36 141.41 1289.54 175.26 C 1284.40 176.85 1278.62 176.93 1273.51 175.23 C 1273.80 141.49 1273.50 107.75 1273.65 74.00 Z" />
<path fill="#3aa7d7" opacity="1.00" d=" M 1350.31 73.32 C 1353.80 72.42 1357.42 72.67 1361.00 72.64 C 1377.01 72.65 1393.01 72.65 1409.02 72.63 C 1410.62 72.47 1412.12 73.09 1413.63 73.64 C 1413.18 75.53 1414.17 78.02 1412.78 79.53 C 1400.86 79.80 1388.92 79.56 1377.00 79.64 C 1373.42 79.76 1369.68 79.09 1366.31 80.60 C 1366.47 91.42 1366.29 102.25 1366.40 113.07 C 1365.92 116.61 1369.82 118.82 1372.93 118.54 C 1386.33 118.50 1399.74 118.60 1413.14 118.47 C 1413.15 120.68 1414.44 123.79 1412.73 125.43 C 1397.27 125.90 1381.78 125.26 1366.32 125.74 C 1366.40 142.15 1366.41 158.57 1366.34 174.98 C 1365.76 175.31 1364.60 175.96 1364.02 176.29 C 1359.43 176.35 1354.79 176.68 1350.29 175.66 C 1350.37 141.55 1350.36 107.43 1350.31 73.32 Z" />
<path fill="#3aa7d7" opacity="1.00" d=" M 220.30 73.33 C 232.88 73.25 245.46 73.07 258.04 73.48 C 264.48 74.42 271.35 76.11 276.00 81.01 C 279.65 84.65 282.00 89.77 281.77 94.98 C 282.55 102.30 280.33 109.81 275.02 115.02 C 272.41 117.96 268.17 118.92 266.04 122.34 C 275.81 124.77 285.33 133.22 284.72 143.99 C 285.15 150.44 284.57 157.20 280.72 162.63 C 275.29 171.27 264.71 174.75 255.02 175.54 C 243.45 175.63 231.87 175.66 220.30 175.51 C 220.20 141.45 220.22 107.39 220.30 73.33 M 236.67 80.43 C 236.04 81.88 235.33 83.33 235.54 84.96 C 235.58 93.65 235.56 102.35 235.54 111.04 C 235.43 112.93 236.05 114.73 236.54 116.53 C 240.83 118.22 245.51 117.59 250.01 117.61 C 259.20 117.69 267.04 109.07 266.70 100.01 C 267.24 93.82 264.82 87.09 259.32 83.79 C 252.53 79.67 244.25 80.67 236.67 80.43 M 235.64 126.37 C 235.49 138.26 235.54 150.16 235.58 162.05 C 235.38 165.38 238.80 167.89 241.95 167.56 C 248.31 167.33 255.37 168.87 261.00 165.10 C 273.66 157.47 272.24 135.26 258.80 129.14 C 251.70 125.26 243.39 126.35 235.64 126.37 Z" />
<path fill="#3aa7d7" opacity="1.00" d=" M 642.05 365.63 C 644.38 363.95 647.33 364.68 650.00 364.54 C 668.45 364.51 686.91 364.68 705.36 364.45 C 706.70 367.35 706.30 370.58 706.34 373.67 C 702.71 373.97 699.65 371.39 696.05 371.59 C 684.33 371.64 672.62 371.57 660.90 371.63 C 660.56 371.94 659.87 372.56 659.52 372.88 C 659.60 383.90 659.47 394.94 659.58 405.97 C 660.72 407.09 662.53 406.46 663.98 406.67 C 674.66 406.60 685.34 406.67 696.02 406.62 C 697.71 406.46 699.28 407.10 700.86 407.63 C 699.94 409.88 700.02 412.82 698.00 414.45 C 685.29 414.57 672.57 414.51 659.86 414.46 C 659.16 425.65 659.70 436.89 659.57 448.10 C 659.88 448.46 660.51 449.19 660.83 449.56 C 673.22 449.57 685.62 449.53 698.02 449.57 C 701.74 449.67 705.08 447.71 708.66 447.01 C 708.01 450.32 709.74 454.78 706.92 457.23 C 685.43 457.61 663.91 457.27 642.41 457.39 C 642.08 453.81 643.99 450.56 643.77 447.00 C 643.74 422.67 643.77 398.33 643.76 374.00 C 643.88 371.09 642.76 368.38 642.05 365.63 Z" />
<path fill="#3aa7d7" opacity="1.00" d=" M 726.64 369.07 C 726.52 367.21 727.97 365.86 728.84 364.37 C 730.87 364.58 733.52 364.12 734.33 366.58 C 743.42 383.87 752.47 401.20 761.49 418.54 C 764.83 424.10 767.03 430.35 771.04 435.51 C 778.26 422.14 785.11 408.57 792.24 395.14 C 797.95 384.93 802.61 374.13 808.89 364.25 C 810.38 364.65 811.88 365.12 813.38 365.56 C 813.28 370.50 813.63 375.43 815.21 380.13 C 815.23 389.25 818.01 398.02 818.54 407.10 C 820.56 420.46 822.03 433.91 824.16 447.26 C 824.56 450.76 826.70 453.81 826.72 457.39 C 820.30 457.30 813.87 457.64 807.47 457.17 C 807.69 447.31 807.77 437.37 805.65 427.68 C 804.93 418.37 802.64 409.27 802.25 399.93 C 798.37 402.49 797.24 407.20 795.01 411.00 C 786.94 425.96 778.84 440.91 770.96 455.96 C 769.29 458.15 766.39 457.28 764.05 457.40 C 753.75 437.56 743.46 417.68 733.01 397.90 C 732.25 397.76 731.49 397.61 730.74 397.46 C 730.79 404.44 730.22 411.42 728.71 418.24 C 728.30 425.89 726.73 433.40 725.70 440.97 C 725.30 446.21 725.61 451.47 725.50 456.72 C 721.87 457.84 718.03 457.29 714.30 457.38 C 714.23 452.74 716.87 448.64 717.09 444.02 C 717.36 438.24 718.72 432.61 719.40 426.88 C 719.39 421.15 721.45 415.67 721.50 409.95 C 721.46 405.97 722.71 402.15 723.26 398.25 C 723.94 388.47 726.24 378.89 726.64 369.07 Z" />
<path fill="#3aa7d7" opacity="1.00" d=" M 843.12 432.97 C 853.52 410.20 863.33 387.15 873.98 364.51 C 875.94 364.49 878.48 364.28 879.20 366.64 C 890.08 390.83 901.06 414.97 911.98 439.14 C 914.22 443.41 915.97 448.09 919.41 451.60 C 920.93 453.29 922.89 454.87 922.83 457.38 C 916.87 457.31 910.91 457.51 904.96 457.34 C 903.52 457.43 902.61 456.01 902.16 454.86 C 897.35 444.45 892.91 433.89 888.00 423.53 C 878.23 423.23 868.45 423.64 858.68 423.31 C 855.68 427.72 853.91 432.80 851.64 437.60 C 848.90 444.24 845.63 450.66 843.13 457.40 C 839.18 457.35 835.23 457.45 831.29 457.32 C 831.43 455.72 832.05 454.28 833.06 453.03 C 837.52 446.96 839.91 439.72 843.12 432.97 M 871.61 392.32 C 869.01 400.31 864.14 407.50 862.09 415.62 C 869.36 415.76 876.64 415.70 883.92 415.64 C 881.73 407.57 876.87 400.47 874.26 392.50 C 873.37 392.44 872.48 392.38 871.61 392.32 Z" />
<path fill="#3aa7d7" opacity="1.00" d=" M 968.18 366.03 C 969.25 364.39 971.38 364.59 973.10 364.39 C 983.96 386.91 993.77 409.94 1004.30 432.62 C 1006.73 438.09 1009.05 443.66 1012.36 448.68 C 1014.03 451.28 1016.40 453.36 1017.96 456.04 C 1017.75 456.38 1017.33 457.05 1017.12 457.39 C 1011.01 457.50 1004.90 457.29 998.80 457.44 C 994.74 449.59 991.62 441.30 987.74 433.38 C 986.13 430.17 985.27 426.53 982.93 423.76 C 981.35 423.18 979.64 423.47 978.02 423.40 C 969.67 423.54 961.32 423.24 952.98 423.58 C 948.39 435.00 942.98 446.08 938.13 457.40 C 934.18 457.00 929.82 458.36 926.22 456.29 C 930.56 450.62 933.51 444.12 936.34 437.62 C 946.85 413.71 957.84 390.01 968.18 366.03 M 966.60 393.42 C 963.38 400.75 959.90 407.98 956.98 415.45 C 964.30 415.96 971.65 415.61 978.98 415.64 C 977.05 407.33 971.87 400.16 969.25 392.04 C 968.38 392.50 966.91 392.29 966.60 393.42 Z" />
<path fill="#3aa7d7" opacity="1.00" d=" M 1022.99 365.22 C 1034.32 365.14 1045.65 365.13 1056.99 365.25 C 1064.34 365.11 1071.95 366.76 1078.14 370.86 C 1090.75 378.58 1091.15 399.64 1078.84 407.84 C 1073.80 411.12 1067.98 413.67 1061.88 413.63 C 1062.35 415.15 1063.12 416.57 1064.36 417.62 C 1076.70 429.92 1089.30 441.97 1101.51 454.41 C 1102.15 455.27 1102.69 456.21 1103.13 457.23 C 1097.06 457.61 1090.98 457.26 1084.92 457.42 C 1078.52 450.70 1071.22 444.90 1065.11 437.89 C 1058.34 431.29 1052.67 423.68 1046.06 416.95 C 1044.74 415.10 1042.45 415.30 1040.47 415.24 C 1040.55 426.17 1040.34 437.10 1040.57 448.03 C 1041.47 451.09 1041.94 454.24 1041.74 457.45 C 1036.16 457.30 1030.58 457.50 1025.00 457.36 C 1024.34 457.10 1023.00 456.60 1022.33 456.34 C 1023.88 453.09 1024.82 449.61 1024.61 445.99 C 1024.80 423.66 1024.63 401.33 1024.69 379.01 C 1024.77 374.33 1024.36 369.70 1022.99 365.22 M 1040.45 371.34 C 1040.47 383.75 1040.51 396.17 1040.43 408.59 C 1045.62 408.74 1050.82 408.76 1056.03 408.72 C 1061.17 408.93 1065.76 405.62 1068.65 401.59 C 1072.04 397.56 1071.88 391.90 1071.48 386.94 C 1070.87 380.76 1066.00 375.92 1060.54 373.53 C 1054.34 370.38 1047.15 371.29 1040.45 371.34 Z" />
</svg>