<svg id="Layer_1" data-name="Layer 1" xmlns="http://www.w3.org/2000/svg" viewBox="0 0 575 237.36"><defs><style>.cls-1{fill:#00431c;}.cls-2{fill:none;}.cls-3{fill:#fff;}.cls-4{fill:#fa8e80;}.cls-5{fill:#00832d;}.cls-6{fill:#ffa800;}.cls-7{fill:#00a78a;}</style></defs><title>delice-logo-new</title><rect class="cls-1" width="575" height="237.36"/><path class="cls-2" d="M99.56,222.39H25.21V15.92H99.56c54.1,0,96.5,45.23,96.5,103C196.06,176,152.77,222.39,99.56,222.39Z" transform="translate(0 0.36)"/><path class="cls-3" d="M177.35,123c-3.75,0-6.78-1.71-6.78-3.8s3-3.79,6.78-3.79h.11a6.43,6.43,0,0,1,11.65,0h.11c3.75,0,6.78,1.71,6.78,3.79s-3,3.8-6.78,3.8h-.11a6.43,6.43,0,0,1-11.65,0ZM176,134a.14.14,0,0,0-.08-.07,6.44,6.44,0,0,0-7.13-9.24l-.06-.09c-2.29-3-5.49-4.32-7.15-3l15.53,20.11C178.78,140.43,178.28,137,176,134Zm-7.27-20.33.06-.09a6.44,6.44,0,0,0,7.13-9.24.14.14,0,0,1,.08-.07c2.29-3,2.79-6.41,1.13-7.69l-15.53,20.11C163.23,118,166.43,116.65,168.72,113.69Z" transform="translate(0 0.36)"/><path class="cls-4" d="M134.17,117.34a1.81,1.81,0,0,1,0,3.61c-1,0-4-1.8-4-1.8S133.16,117.34,134.17,117.34Z" transform="translate(0 0.36)"/><path class="cls-4" d="M132.83,127.88a1.82,1.82,0,0,1-1.36,3.37c-.93-.38-3.07-3.21-3.07-3.21S131.9,127.5,132.83,127.88Z" transform="translate(0 0.36)"/><path class="cls-4" d="M127.61,137.13a1.8,1.8,0,0,1-2.51,2.59c-.73-.69-1.64-4.12-1.64-4.12S126.91,136.44,127.61,137.13Z" transform="translate(0 0.36)"/><path class="cls-4" d="M119.31,143.76a1.81,1.81,0,0,1-3.31,1.45c-.41-.91,0-4.43,0-4.43S118.92,142.83,119.31,143.76Z" transform="translate(0 0.36)"/><path class="cls-4" d="M109.14,146.78a1.81,1.81,0,1,1-3.61.11c0-1,1.7-4.1,1.7-4.1S109.11,145.77,109.14,146.78Z" transform="translate(0 0.36)"/><path class="cls-4" d="M132.83,110.43a1.82,1.82,0,0,0-1.36-3.37c-.93.37-3.07,3.2-3.07,3.2S131.9,110.8,132.83,110.43Z" transform="translate(0 0.36)"/><path class="cls-4" d="M127.61,101.18a1.8,1.8,0,1,0-2.51-2.59c-.73.69-1.64,4.11-1.64,4.11S126.91,101.89,127.61,101.18Z" transform="translate(0 0.36)"/><path class="cls-4" d="M119.31,94.57A1.81,1.81,0,1,0,116,93.12c-.41.91,0,4.43,0,4.43S118.92,95.48,119.31,94.57Z" transform="translate(0 0.36)"/><path class="cls-4" d="M109.14,91.55a1.81,1.81,0,0,0-3.61-.11c0,1,1.7,4.1,1.7,4.1S109.11,92.54,109.14,91.55Z" transform="translate(0 0.36)"/><path class="cls-5" d="M111.45,132.63a13.48,13.48,0,0,0,0-27,13.66,13.66,0,0,0-3.61.48v-.08l-12.53,5a8.53,8.53,0,0,0,0,16.17l11,4.37,1.56.62v-.08A13.13,13.13,0,0,0,111.45,132.63Zm-6-13.47a6,6,0,1,1,6,6A6.05,6.05,0,0,1,105.4,119.16Z" transform="translate(0 0.36)"/><path class="cls-5" d="M160.4,91.5c1.68-.92,2.76-3.36,3.07-4.17l13.5-7.4c.71,1.34,1.16,2.78.91,3.54-1.28,4.41-5.15,4.15-7.81,6.67-3.17,3-3.77,7.15-8.23,8.84-5.09,1.94-8.89-.46-11.62-4.41l4.6-2.52C155.82,92.17,158.73,92.41,160.4,91.5Z" transform="translate(0 0.36)"/><path class="cls-5" d="M157.83,86.69c1.68-.91,4.3-.52,5.18-.33L176.51,79a5.94,5.94,0,0,0-2.5-2.69c-4.41-1.28-6.27,2.11-9.83,3-4.21,1.06-8.06-.69-11.88,2.16-4.37,3.24-4.39,7.73-2.53,12.16l4.6-2.51C154.8,90.19,156.16,87.62,157.83,86.69Z" transform="translate(0 0.36)"/><path class="cls-5" d="M160.68,88.85a2,2,0,0,0-1.34.54c-.48.52-.67,1.14-.43,1.38s.86,0,1.34-.54A2.07,2.07,0,0,0,160.68,88.85Z" transform="translate(0 0.36)"/><path class="cls-5" d="M160.14,87.88a2.06,2.06,0,0,1-1.17.84c-.71.13-1.32,0-1.38-.39s.47-.71,1.17-.84A2.1,2.1,0,0,1,160.14,87.88Z" transform="translate(0 0.36)"/><path class="cls-6" d="M35.23,22.22a6.34,6.34,0,0,1-5.5-.73c-1.8-1-4.52-5.12-4.52-5.12s4.77-1.47,8.47.95C35.43,18.45,35.23,22.22,35.23,22.22Z" transform="translate(0 0.36)"/><path class="cls-6" d="M35.52,22.22a6.34,6.34,0,0,0,5.5-.73c1.8-1,4.52-5.12,4.52-5.12s-4.76-1.47-8.47.95C35.32,18.45,35.52,22.22,35.52,22.22Z" transform="translate(0 0.36)"/><path class="cls-6" d="M35.23,28.58a6.31,6.31,0,0,1-5.5-.72c-1.8-1.05-4.52-5.12-4.52-5.12s4.77-1.47,8.47,1C35.43,24.82,35.23,28.58,35.23,28.58Z" transform="translate(0 0.36)"/><path class="cls-6" d="M35.52,28.58a6.31,6.31,0,0,0,5.5-.72c1.8-1.05,4.52-5.12,4.52-5.12s-4.76-1.47-8.47,1C35.32,24.82,35.52,28.58,35.52,28.58Z" transform="translate(0 0.36)"/><path class="cls-6" d="M35.23,35a6.3,6.3,0,0,1-5.5-.73c-1.8-1-4.52-5.12-4.52-5.12s4.77-1.47,8.47.95C35.43,31.17,35.23,35,35.23,35Z" transform="translate(0 0.36)"/><path class="cls-6" d="M35.52,35a6.3,6.3,0,0,0,5.5-.73c1.8-1,4.52-5.12,4.52-5.12s-4.76-1.47-8.47.95C35.32,31.17,35.52,35,35.52,35Z" transform="translate(0 0.36)"/><path class="cls-6" d="M35.23,41.3a6.3,6.3,0,0,1-5.5-.73c-1.8-1-4.52-5.12-4.52-5.12S30,34,33.68,36.4C35.43,37.54,35.23,41.3,35.23,41.3Z" transform="translate(0 0.36)"/><path class="cls-6" d="M35.52,41.3a6.3,6.3,0,0,0,5.5-.73c1.8-1,4.52-5.12,4.52-5.12s-4.76-1.47-8.47.95C35.32,37.54,35.52,41.3,35.52,41.3Z" transform="translate(0 0.36)"/><path class="cls-4" d="M161.13,48.84c4.69,4.69,8.45,10.09,12,15.23l7.41-2.18a84.3,84.3,0,0,0-14.11-18.3,84.11,84.11,0,0,0-18.31-14.11s-1,3.07-2.21,7.39C151,40.37,156.42,44.13,161.13,48.84Z" transform="translate(0 0.36)"/><path class="cls-4" d="M135.77,74.18l36.06-9.92c-3.37-4.84-7-10.06-11.52-14.62s-9.79-8.17-14.65-11.56C142.08,51.09,135.77,74.18,135.77,74.18ZM164.87,63c1.15-.52,2-.32,2.27.28s-.17,1.36-1.32,1.86a7.07,7.07,0,0,1-3.24.15A7.36,7.36,0,0,1,164.87,63Zm-6.09-4.41c1.08-.73,2-.68,2.33-.12s.07,1.4-1,2.13a7.24,7.24,0,0,1-3.22.72A7.25,7.25,0,0,1,158.78,58.62Zm-10.2,6.74c1.1-.68,2-.6,2.34,0s0,1.39-1.08,2.06a7.29,7.29,0,0,1-3.25.58A7.19,7.19,0,0,1,148.58,65.36Zm3.41-10c.5.47.42,1.36-.47,2.35a7.33,7.33,0,0,1-3,1.51,7.38,7.38,0,0,1,1.21-3.17C150.59,55.13,151.48,55,152,55.41Zm-6.91.51c.58.33.69,1.24,0,2.38a7.62,7.62,0,0,1-2.65,2.1,7.31,7.31,0,0,1,.52-3.33C143.64,55.93,144.48,55.58,145.08,55.92Zm5.06-10.3c.58.33.69,1.25,0,2.38a7.56,7.56,0,0,1-2.64,2.11,7.35,7.35,0,0,1,.52-3.34C148.71,45.62,149.55,45.27,150.14,45.62Z" transform="translate(0 0.36)"/><path class="cls-6" d="M36.9,87.55a22.12,22.12,0,0,0-11.54,19.7Z" transform="translate(0 0.36)"/><path class="cls-6" d="M37.72,87.83l-11.54,19.7a24.3,24.3,0,0,0,8.51-8.25A24.22,24.22,0,0,0,37.72,87.83Z" transform="translate(0 0.36)"/><path class="cls-3" d="M36.9,150.76a22.12,22.12,0,0,1-11.54-19.7Z" transform="translate(0 0.36)"/><path class="cls-3" d="M37.72,150.48l-11.54-19.7A24.3,24.3,0,0,1,34.69,139,24.22,24.22,0,0,1,37.72,150.48Z" transform="translate(0 0.36)"/><path class="cls-4" d="M111.45,130.11a10.95,10.95,0,1,0-4.22-21.06l-1.9.8v0l-8.2,3.26v.07l-.94.32A6,6,0,0,0,92,119.18a6,6,0,0,0,4.16,5.72l.94.31v.08l8.2,3.26v0l1.9.8A11.59,11.59,0,0,0,111.45,130.11Zm-6-11a6,6,0,1,1,6,6A6.05,6.05,0,0,1,105.4,119.16Z" transform="translate(0 0.36)"/><path class="cls-4" d="M113.39,72.32h0l-.08-.36a1.13,1.13,0,0,1,0-.18l-1.42-5.92a5.48,5.48,0,0,0-9.79-2.37l-3.95,4.56a1.39,1.39,0,0,0-.15.19l-.22.26h0a8.92,8.92,0,1,0,15.62,3.82Zm-3.22,3.11A5.66,5.66,0,1,1,106,68.59,5.66,5.66,0,0,1,110.17,75.43Z" transform="translate(0 0.36)"/><path class="cls-7" d="M125,80.9c-.09.11.71.62,1.55.95a4.52,4.52,0,0,0,.72,5,84.54,84.54,0,0,1,12.63,18,4.49,4.49,0,0,0,4,2.42,5,5,0,0,0-.56,1.27c-.34,1.23,1.49.15,2.61.13s2.84-1.53,2.34-2.07a3.28,3.28,0,0,0-1.54-.57,4.44,4.44,0,0,0,.54-5c-1-2-2.15-3.91-3.3-5.81q-.19,1.13-.45,2.22a.56.56,0,0,1-.7.43.69.69,0,0,1-.47-.77c.22-1.13.45-2.27.63-3.42-.82-1.27-1.65-2.5-2.53-3.73-.09.75-.19,1.49-.28,2.24a.55.55,0,0,1-.69.46.63.63,0,0,1-.5-.72q.22-1.71.39-3.45c-.89-1.21-1.82-2.38-2.77-3.54,0,.77-.08,1.51-.13,2.26a.57.57,0,0,1-.65.52.67.67,0,0,1-.56-.69c.07-1.16.13-2.31.16-3.46-.67-.79-1.34-1.55-2-2.31A4.41,4.41,0,0,0,128.51,80a6,6,0,0,0-.56-2.42c-.41-.32-1.21.69-1.64,1.38S125.1,80.72,125,80.9Z" transform="translate(0 0.36)"/><path class="cls-6" d="M85.46,84.1a.94.94,0,0,0-.24,1.29,1,1,0,1,0,.24-1.29ZM84,89.3a.91.91,0,0,0-.22,1.28.93.93,0,0,0,1.3.13.92.92,0,0,0,.23-1.28A.94.94,0,0,0,84,89.3Zm-2.42-3A.92.92,0,0,0,81.76,85a.94.94,0,0,0-1.31-.13.9.9,0,0,0-.22,1.28A.93.93,0,0,0,81.53,86.28Zm-2.75,2.85a.93.93,0,0,0-.23,1.29,1,1,0,0,0,1.31.13.89.89,0,1,0-1.08-1.42Zm14.15-6a5,5,0,0,0-2.7-.1c-3.91-4.41-8.49-3.63-11.34-1.49l-.15.12c-.15.11-.3.2-.43.31a9.21,9.21,0,0,0-4,6.18,8.8,8.8,0,0,0,1.26,5.57,6.53,6.53,0,0,0,.15,4.34,4.69,4.69,0,0,0,3,2.46,5.48,5.48,0,0,0,2.85.16l.15.1,6.09,4.11a2.65,2.65,0,0,0,2.29-.22l6.78-5.08a2.77,2.77,0,0,0,.87-2.52l-2.29-6.83A6,6,0,0,0,95.78,86l0-.09,0-.09A4.7,4.7,0,0,0,92.93,83.14Zm-2.83,20a.45.45,0,0,1-.64,0l-3.91-3.5a.47.47,0,0,1-.07-.63.45.45,0,0,1,.63,0l3.91,3.5A.46.46,0,0,1,90.1,103.1Zm2.58-2.57a.43.43,0,0,1-.14.61.44.44,0,0,1-.64,0l-3-4.06a.45.45,0,0,1,.13-.61.43.43,0,0,1,.63,0ZM93,94l2.27,4.73a.44.44,0,0,1-.19.6.44.44,0,0,1-.59-.25l-2.27-4.73a.41.41,0,0,1,.18-.59A.5.5,0,0,1,93,94Zm1.23-7.52s1.19,4-4.08,5c0,0,0,6.47-6.48,4.51,0,0-.86,4.17-4.56,3s-1.84-5.53-1.84-5.53-4.6-5.78,2.36-10.6c0,0,5.21-4.45,10,2A3.18,3.18,0,0,1,94.27,86.47Z" transform="translate(0 0.36)"/><path class="cls-7" d="M41.37,58.69V81.78a2.16,2.16,0,0,0,2.16,2.16H68.28a2.16,2.16,0,0,0,2.16-2.16V58.69ZM55.91,80.12a9,9,0,1,1,9-9A9,9,0,0,1,55.91,80.12Z" transform="translate(0 0.36)"/><path class="cls-7" d="M55.91,78.24a7.15,7.15,0,0,0,7.15-7.15,6.88,6.88,0,0,0-.39-2.31,7.94,7.94,0,0,0-3.37.11c-4.43,1-5.25,4.34-9.4,6.11A7.18,7.18,0,0,0,55.91,78.24Z" transform="translate(0 0.36)"/><path class="cls-7" d="M50.23,70.4a1.7,1.7,0,0,1,0-3.39,1.71,1.71,0,0,1,1.7,1.7A1.68,1.68,0,0,1,50.23,70.4Zm0-3a1.31,1.31,0,1,0,1.31,1.31A1.29,1.29,0,0,0,50.23,67.4Z" transform="translate(0 0.36)"/><path class="cls-7" d="M49.92,68.3c-.21.09-.41.07-.47-.06s.08-.3.28-.39.41-.07.47.06S50.12,68.2,49.92,68.3Z" transform="translate(0 0.36)"/><path class="cls-7" d="M55.6,66.4A1.38,1.38,0,1,1,57,65,1.38,1.38,0,0,1,55.6,66.4Zm0-2.37a1,1,0,1,0,1,1A1,1,0,0,0,55.6,64Z" transform="translate(0 0.36)"/><path class="cls-7" d="M55.34,64.68c-.17.08-.34.06-.38,0s.06-.24.21-.3.33-.06.37,0S55.5,64.61,55.34,64.68Z" transform="translate(0 0.36)"/><path class="cls-7" d="M54.61,69.66a1.08,1.08,0,1,1,1.08-1.08A1.08,1.08,0,0,1,54.61,69.66Zm0-1.77a.69.69,0,1,0,.69.69A.7.7,0,0,0,54.61,67.89Z" transform="translate(0 0.36)"/><path class="cls-7" d="M54.59,68.41c-.11,0-.24,0-.28,0s0-.17.17-.22a.21.21,0,0,1,.28,0C54.78,68.26,54.7,68.35,54.59,68.41Z" transform="translate(0 0.36)"/><path class="cls-7" d="M68.28,50.93H43.53a2.16,2.16,0,0,0-2.16,2.16v4.09H70.44V53.09A2.16,2.16,0,0,0,68.28,50.93Zm-22.5,4.22a1.08,1.08,0,1,1,1.08-1.08A1.08,1.08,0,0,1,45.78,55.15Zm4.42,0a1.08,1.08,0,0,1,0-2.16,1.08,1.08,0,0,1,0,2.16Zm5.71.49a1.57,1.57,0,1,1,1.57-1.57A1.56,1.56,0,0,1,55.91,55.64Zm10.28-.49H62.47a1.08,1.08,0,0,1,0-2.16h3.72a1.08,1.08,0,0,1,0,2.16Z" transform="translate(0 0.36)"/><g id="_Group_" data-name="&lt;Group&gt;"><g id="_Group_2" data-name="&lt;Group&gt;"><g id="_Group_3" data-name="&lt;Group&gt;"><path id="_Path_" data-name="&lt;Path&gt;" class="cls-5" d="M93.06,63.68a.63.63,0,0,0-.08-.41.85.85,0,0,0-.7-.21,2.6,2.6,0,0,0-.75.1,28.68,28.68,0,0,0-3,1.23,3.73,3.73,0,0,1-3.85-.54.32.32,0,0,0-.51.28,1.89,1.89,0,0,0,.32.89c.6.93,2,1.75,4.23,1.58h.16c2.35-.16,3.69-1.34,4-2.4A2,2,0,0,0,93.06,63.68Z" transform="translate(0 0.36)"/></g><g id="_Group_4" data-name="&lt;Group&gt;"><path id="_Path_2" data-name="&lt;Path&gt;" class="cls-5" d="M89.28,62.88a5,5,0,0,1,3.44-.09.2.2,0,0,0,.24-.21A2.26,2.26,0,0,0,92,61a5,5,0,0,0-3.6-.86l-.16,0c-2.54.2-3.9,1.58-4.08,2.73a.33.33,0,0,0,.2.36A7.39,7.39,0,0,0,89.28,62.88Z" transform="translate(0 0.36)"/></g></g><g id="_Group_5" data-name="&lt;Group&gt;"><g id="_Group_6" data-name="&lt;Group&gt;"><path id="_Path_3" data-name="&lt;Path&gt;" class="cls-5" d="M84,71a.72.72,0,0,0,.24-.34c0-.15,0-.35-.33-.65a6.9,6.9,0,0,0-.58-.49,22.44,22.44,0,0,0-2.94-1.28,3.75,3.75,0,0,1-2.27-3.17.31.31,0,0,0-.54-.16,2,2,0,0,0-.43.85c-.26,1.08.17,2.68,1.77,4.16l.06,0,0,.06c1.73,1.58,3.5,1.75,4.53,1.26A1.72,1.72,0,0,0,84,71Z" transform="translate(0 0.36)"/></g><g id="_Group_7" data-name="&lt;Group&gt;"><path id="_Path_4" data-name="&lt;Path&gt;" class="cls-5" d="M81.92,67.74a5,5,0,0,1,2.44,2.42.19.19,0,0,0,.32,0,2.34,2.34,0,0,0,.45-1.77,5.12,5.12,0,0,0-1.87-3.21l-.13-.11c-1.9-1.69-3.83-1.71-4.8-1.06a.32.32,0,0,0-.11.39A7.47,7.47,0,0,0,81.92,67.74Z" transform="translate(0 0.36)"/></g></g><g id="_Group_8" data-name="&lt;Group&gt;"><g id="_Group_9" data-name="&lt;Group&gt;"><path id="_Path_5" data-name="&lt;Path&gt;" class="cls-5" d="M84.66,55c-.09-.06-.2-.19-.35-.2s-.36.07-.62.41a3.85,3.85,0,0,0-.41.61,26.44,26.44,0,0,0-1,3,3.73,3.73,0,0,1-2.9,2.61.31.31,0,0,0-.11.56,1.73,1.73,0,0,0,.89.33c1.1.13,2.66-.44,3.93-2.21a.1.1,0,0,0,0-.08.21.21,0,0,0,0-.07c1.38-1.9,1.36-3.67.77-4.64A1.69,1.69,0,0,0,84.66,55Z" transform="translate(0 0.36)"/></g><g id="_Group_10" data-name="&lt;Group&gt;"><path id="_Path_6" data-name="&lt;Path&gt;" class="cls-5" d="M81.61,57.4a5,5,0,0,1,2.16-2.68.19.19,0,0,0,0-.31A2.27,2.27,0,0,0,82,54.15a5,5,0,0,0-3,2.19s-.07.12-.09.13c-1.47,2.09-1.31,4-.54,4.88a.35.35,0,0,0,.41.08A7.36,7.36,0,0,0,81.61,57.4Z" transform="translate(0 0.36)"/></g></g></g><path class="cls-6" d="M102.22,33.57c-1.57-1.56-5.38-.3-8.59,2.8h0l-7.8,7.8v.24a.5.5,0,0,0,.51.5h.24a.5.5,0,0,1,.5.5v.25a.5.5,0,0,0,.5.5h.25a.5.5,0,0,1,.5.5v.24a.5.5,0,0,0,.5.51h.24a.5.5,0,0,1,.51.5v.24a.5.5,0,0,0,.5.5h.24a.5.5,0,0,1,.5.51v.24a.5.5,0,0,0,.51.5h.24a.5.5,0,0,1,.5.5v.25a.5.5,0,0,0,.5.5h.25a.5.5,0,0,1,.5.5v.24a.5.5,0,0,0,.5.51h.24a.5.5,0,0,1,.51.5v.24a.5.5,0,0,0,.5.5h.24l7.82-7.82c2.7-2.6,5.73-3.91,7.8-3.52Zm.18,9.63.77.76a.35.35,0,1,1-.49.49l-.76-.77a.34.34,0,1,1,.48-.48Zm-1.75-1.75.77.76a.35.35,0,1,1-.49.49l-.76-.77a.34.34,0,1,1,.48-.48ZM98.9,39.7l.77.76a.35.35,0,1,1-.49.49l-.76-.77a.34.34,0,1,1,.48-.48ZM97.15,38l.77.76a.35.35,0,1,1-.49.49l-.76-.77a.34.34,0,1,1,.48-.48ZM95.4,36.2l.77.76a.35.35,0,1,1-.49.49l-.76-.77a.34.34,0,1,1,.48-.48Z" transform="translate(0 0.36)"/><path class="cls-6" d="M100.26,49.21l-3,3L99.05,54A7.59,7.59,0,0,1,100.26,49.21Z" transform="translate(0 0.36)"/><path class="cls-6" d="M112,43.31c-1.61-1.6-5.53-.26-8.79,3s-4.58,7.18-3,8.79,5.53.26,8.79-3S113.56,44.91,112,43.31Zm-7.81,8.3a.68.68,0,0,1-.16-.29c-.21-.66.33-1.83,1.36-2.85s2.19-1.57,2.84-1.36a.81.81,0,0,1,.3.17c.54.54,0,1.93-1.19,3.14S104.69,52.14,104.15,51.61Z" transform="translate(0 0.36)"/><path class="cls-6" d="M152.06,112.2a7,7,0,1,1,0,13.93c-3.85,0-8.27-7-8.27-7S148.21,112.2,152.06,112.2Z" transform="translate(0 0.36)"/><path class="cls-5" d="M53.27,147.54a2.64,2.64,0,0,0,2.55-2,2.65,2.65,0,0,0,4.73-2,2.61,2.61,0,0,0,3.18-.43,2.64,2.64,0,0,0,.43-3.18,2.63,2.63,0,0,0,2.77-1.62,2.66,2.66,0,0,0-.81-3.11,2.64,2.64,0,0,0,1.75-1.57,2.46,2.46,0,0,0,1.06.23,2.64,2.64,0,0,0,2.55-2,2.65,2.65,0,0,0,4.73-2,2.65,2.65,0,0,0,3.61-3.61,2.69,2.69,0,0,0,2.79-1.62,2.63,2.63,0,0,0-.84-3.11,2.65,2.65,0,0,0,0-5.11,2.64,2.64,0,0,0-2-4.72,2.63,2.63,0,0,0-.43-3.19,2.66,2.66,0,0,0-3.18-.43,2.66,2.66,0,0,0-4.73-2,2.68,2.68,0,0,0-2.55-2,2.87,2.87,0,0,0-1.06.23A2.69,2.69,0,0,0,66.12,103a2.66,2.66,0,0,0-2-4.73,2.61,2.61,0,0,0-.43-3.18,2.66,2.66,0,0,0-3.18-.43,2.66,2.66,0,0,0-4.73-2,2.68,2.68,0,0,0-2.55-2,2.65,2.65,0,0,0-2.55,2,2.66,2.66,0,0,0-4.73,2,2.65,2.65,0,0,0-3.61,3.61,2.7,2.7,0,0,0-2.8,1.62,2.66,2.66,0,0,0,.84,3.11,2.66,2.66,0,0,0-2,2.55,2.5,2.5,0,0,0,.31,1.23,33.55,33.55,0,0,1-13.55,9.15V123A33.68,33.68,0,0,1,38.6,132a2.19,2.19,0,0,0-.11.73,2.63,2.63,0,0,0,1.95,2.55,2.65,2.65,0,0,0,2,4.73,2.62,2.62,0,0,0,.42,3.18,2.66,2.66,0,0,0,3.19.43,2.65,2.65,0,0,0,4.73,2A2.59,2.59,0,0,0,53.27,147.54ZM47.93,99.39a1.77,1.77,0,1,1,1.76,1.77A1.76,1.76,0,0,1,47.93,99.39Zm7.87,0a1.77,1.77,0,1,1,1.77,1.77A1.77,1.77,0,0,1,55.8,99.39Zm-7.87,7.91a1.77,1.77,0,1,1,1.76,1.77A1.77,1.77,0,0,1,47.93,107.3Zm7.87,0a1.77,1.77,0,0,1,3.54,0,1.75,1.75,0,0,1-1.77,1.77A1.79,1.79,0,0,1,55.8,107.3Zm7.88,0a1.77,1.77,0,1,1,3.53,0,1.75,1.75,0,0,1-1.76,1.77A1.79,1.79,0,0,1,63.68,107.3Zm11.41,7.9a1.77,1.77,0,1,1-1.77-1.77A1.77,1.77,0,0,1,75.09,115.2Zm-7.88,0a1.77,1.77,0,1,1-1.76-1.77A1.79,1.79,0,0,1,67.21,115.2Zm-7.87,0a1.77,1.77,0,1,1-1.77-1.77A1.79,1.79,0,0,1,59.34,115.2Zm-7.9,0a1.77,1.77,0,1,1-1.76-1.77A1.76,1.76,0,0,1,51.44,115.2Zm-11.15-3a2.67,2.67,0,0,0,2.09.65A2.64,2.64,0,0,0,42.8,116a4.42,4.42,0,0,0,1,.74l-9.83.3A37.68,37.68,0,0,0,40.29,112.2Zm34.8,10.91a1.77,1.77,0,1,1-1.77-1.77A1.77,1.77,0,0,1,75.09,123.11Zm-7.88,0a1.77,1.77,0,1,1-1.76-1.77A1.76,1.76,0,0,1,67.21,123.11Zm-7.87,0a1.77,1.77,0,1,1-1.77-1.77A1.77,1.77,0,0,1,59.34,123.11Zm-7.9,0a1.77,1.77,0,1,1-1.76-1.77A1.76,1.76,0,0,1,51.44,123.11ZM34,121.94l9.61-.3a4.75,4.75,0,0,0-.79.61,2.67,2.67,0,0,0-.42,3.19,2.63,2.63,0,0,0-2.44,1A42.41,42.41,0,0,0,34,121.94ZM47.93,131a1.77,1.77,0,1,1,1.76,1.77A1.76,1.76,0,0,1,47.93,131Zm7.87,0a1.77,1.77,0,1,1,1.77,1.77A1.79,1.79,0,0,1,55.8,131Zm7.88,0a1.77,1.77,0,1,1,1.77,1.77A1.79,1.79,0,0,1,63.68,131Zm-15.75,7.9a1.77,1.77,0,1,1,1.76,1.77A1.76,1.76,0,0,1,47.93,138.92Zm7.87,0a1.77,1.77,0,1,1,1.77,1.77A1.77,1.77,0,0,1,55.8,138.92Z" transform="translate(0 0.36)"/><path class="cls-4" d="M184.57,70.48c.67.74,3.44,4.09,3.07,7.72s-3.8,6.33-4.6,6.91Z" transform="translate(0 0.36)"/><path class="cls-4" d="M183.53,70.34,182,85c-.67-.75-3.44-4.1-3.07-7.73S182.73,70.92,183.53,70.34Z" transform="translate(0 0.36)"/><path class="cls-4" d="M29,61.76a1.49,1.49,0,0,1,1.49-1.49h.78a1.49,1.49,0,0,1,1.49,1.49h0a1.49,1.49,0,0,1-1.49,1.49h-.78A1.48,1.48,0,0,1,29,61.76Zm-3.76,0a1.49,1.49,0,0,0,1.49,1.49h.78A1.49,1.49,0,0,0,29,61.76h0a1.49,1.49,0,0,0-1.49-1.49H26.7a1.49,1.49,0,0,0-1.49,1.49Zm3.54-3.09a1.41,1.41,0,0,0,1.39,1.4h.75a1.4,1.4,0,0,0,1.4-1.4h0a1.4,1.4,0,0,0-1.4-1.4h-.75a1.4,1.4,0,0,0-1.39,1.4Zm-3.54,0a1.41,1.41,0,0,0,1.4,1.4h.74a1.4,1.4,0,0,0,1.4-1.4h0a1.4,1.4,0,0,0-1.4-1.4h-.74a1.4,1.4,0,0,0-1.4,1.4Zm3.3-2.87a1.29,1.29,0,0,0,1.3,1.31h.69a1.3,1.3,0,0,0,1.3-1.31h0a1.3,1.3,0,0,0-1.3-1.3h-.69a1.29,1.29,0,0,0-1.3,1.3Zm-3.3,0a1.3,1.3,0,0,0,1.3,1.31h.69a1.3,1.3,0,0,0,1.31-1.31h0a1.3,1.3,0,0,0-1.31-1.3h-.69a1.31,1.31,0,0,0-1.3,1.3Zm2.89-2.75a1.12,1.12,0,0,0,1.13,1.13h.6A1.12,1.12,0,0,0,31,53.05h0a1.12,1.12,0,0,0-1.13-1.14h-.6a1.14,1.14,0,0,0-1.13,1.14Zm-2.89,0a1.12,1.12,0,0,0,1.14,1.13h.59a1.13,1.13,0,0,0,1.14-1.13h0a1.13,1.13,0,0,0-1.14-1.14h-.59a1.14,1.14,0,0,0-1.14,1.14Zm2.27-2.31a.89.89,0,0,0,.9.89h.48a.89.89,0,0,0,.89-.89h0a.89.89,0,0,0-.89-.89h-.48a.91.91,0,0,0-.9.89Zm-2.27,0a.89.89,0,0,0,.89.89h.49a.89.89,0,0,0,.89-.89h0a.89.89,0,0,0-.89-.89H26.1a.91.91,0,0,0-.89.89Zm1.84-2a.73.73,0,0,0,.73.72h.39a.73.73,0,0,0,.73-.72h0a.73.73,0,0,0-.73-.73h-.39a.74.74,0,0,0-.73.73Zm-1.84,0a.73.73,0,0,0,.73.72h.39a.72.72,0,0,0,.72-.72h0a.73.73,0,0,0-.72-.73h-.39a.74.74,0,0,0-.73.73Zm4.08,33.55a1.6,1.6,0,0,0,1.62,1.6h.85a1.62,1.62,0,0,0,1.62-1.6h0a1.61,1.61,0,0,0-1.62-1.62h-.85a1.61,1.61,0,0,0-1.62,1.62Zm0-3.47a1.61,1.61,0,0,0,1.62,1.62h.85a1.61,1.61,0,0,0,1.62-1.62h0a1.62,1.62,0,0,0-1.62-1.62h-.85a1.65,1.65,0,0,0-1.62,1.62Zm0-3.42A1.6,1.6,0,0,0,30.91,77h.85a1.62,1.62,0,0,0,1.62-1.6h0a1.61,1.61,0,0,0-1.62-1.62h-.85a1.61,1.61,0,0,0-1.62,1.62Zm0-3.47a1.61,1.61,0,0,0,1.62,1.62h.85A1.61,1.61,0,0,0,33.38,72h0a1.62,1.62,0,0,0-1.62-1.62h-.85A1.65,1.65,0,0,0,29.29,72Zm0-3.44a1.62,1.62,0,0,0,1.62,1.62h.85a1.62,1.62,0,0,0,1.62-1.62h0a1.62,1.62,0,0,0-1.62-1.62h-.85a1.65,1.65,0,0,0-1.62,1.62Zm0-3.44a1.62,1.62,0,0,0,1.62,1.62h.85a1.62,1.62,0,0,0,1.62-1.62h0a1.61,1.61,0,0,0-1.62-1.62h-.85a1.63,1.63,0,0,0-1.62,1.62ZM25.21,82.32a1.61,1.61,0,0,0,1.62,1.6h.86a1.62,1.62,0,0,0,1.62-1.6h0a1.62,1.62,0,0,0-1.62-1.62h-.86a1.62,1.62,0,0,0-1.62,1.62Zm0-3.47a1.62,1.62,0,0,0,1.62,1.62h.86a1.62,1.62,0,0,0,1.62-1.62h0a1.63,1.63,0,0,0-1.62-1.62h-.86a1.65,1.65,0,0,0-1.62,1.62Zm0-3.42A1.61,1.61,0,0,0,26.83,77h.86a1.62,1.62,0,0,0,1.62-1.6h0a1.62,1.62,0,0,0-1.62-1.62h-.86a1.62,1.62,0,0,0-1.62,1.62Zm0-3.47a1.62,1.62,0,0,0,1.62,1.62h.86A1.62,1.62,0,0,0,29.31,72h0a1.63,1.63,0,0,0-1.62-1.62h-.86A1.65,1.65,0,0,0,25.21,72Zm0-3.44a1.63,1.63,0,0,0,1.62,1.62h.86a1.63,1.63,0,0,0,1.62-1.62h0a1.63,1.63,0,0,0-1.62-1.62h-.86a1.65,1.65,0,0,0-1.62,1.62Zm0-3.44a1.63,1.63,0,0,0,1.62,1.62h.86a1.63,1.63,0,0,0,1.62-1.62h0a1.62,1.62,0,0,0-1.62-1.62h-.86a1.64,1.64,0,0,0-1.62,1.62Zm0-17.38H26a1,1,0,1,0,0-1.93h-.74Z" transform="translate(0 0.36)"/><polygon class="cls-4" points="84.85 31.77 84.85 21.51 87.19 19.58 87.19 29.84 84.85 31.77"/><path class="cls-4" d="M76,26.57A10,10,0,0,1,73,28a1.38,1.38,0,1,1,0-2.76A10.55,10.55,0,0,1,76,26.57Z" transform="translate(0 0.36)"/><path class="cls-4" d="M83.9,21.4H52.67V31a1,1,0,0,0,1,1H83.9V21.4ZM70.64,26.57A2.33,2.33,0,0,1,73,24.24c1.1,0,3.68,1.61,4.19,1.94a.49.49,0,0,1,0,.8c-.51.32-3.09,1.94-4.19,1.94A2.36,2.36,0,0,1,70.64,26.57Z" transform="translate(0 0.36)"/><path class="cls-4" d="M88.14,29.22V18.66h1.19a1,1,0,0,1,1,1v8.57a1,1,0,0,1-1,1H88.14Z" transform="translate(0 0.36)"/><path class="cls-4" d="M84.19,20.45H52.67V16.93a1,1,0,0,1,1-1H84.21l2.72,2.27Z" transform="translate(0 0.36)"/><path class="cls-5" d="M132.53,27.41a.29.29,0,0,0-.37,0l-2.09,1.9.75-4,3-2.78a.22.22,0,0,0,0-.33.27.27,0,0,0-.37,0L131,24.49l.63-3.41a.26.26,0,0,0-.22-.28.25.25,0,0,0-.3.19l-.63,3.4-1.51-3a.3.3,0,0,0-.36-.13.22.22,0,0,0-.13.3l1.85,3.68-.75,4-1.25-2.52a.29.29,0,0,0-.35-.13.22.22,0,0,0-.13.3L129.38,30,129,32.23a.27.27,0,0,0,.23.28c.15,0,.28,0,.29-.18l.41-2.2,2.61-2.39A.2.2,0,0,0,132.53,27.41Z" transform="translate(0 0.36)"/><path class="cls-5" d="M139.19,26.18a.31.31,0,0,0-.35-.13l-2.68,1,1.62-2.34a.22.22,0,0,0-.09-.32.27.27,0,0,0-.36.08l-1.62,2.34-.15-2.62a.26.26,0,0,0-.28-.23c-.14,0-.26.12-.24.23l.19,3.33-1.92,2.77-.11-2.16a.25.25,0,0,0-.28-.22c-.15,0-.26.11-.24.22l.15,2.85-1.08,1.57a.2.2,0,0,0,.09.31s.06,0,.09,0a.25.25,0,0,0,.26-.09l1.08-1.58,2.91-1.12a.23.23,0,0,0,.13-.3.31.31,0,0,0-.35-.13l-2.2.84,1.92-2.78,3.38-1.3A.2.2,0,0,0,139.19,26.18Z" transform="translate(0 0.36)"/><path class="cls-5" d="M126.4,29.79l1.18-2.6a.23.23,0,0,0-.15-.3.27.27,0,0,0-.34.11l-.89,2-.78-3.27,1.37-3a.22.22,0,0,0-.14-.3.27.27,0,0,0-.34.12l-1.08,2.4-.67-2.78a.28.28,0,0,0-.32-.18.23.23,0,0,0-.2.26l.67,2.77L122.59,23a.31.31,0,0,0-.38,0,.24.24,0,0,0,0,.33l2.69,2.44.78,3.28-1.75-1.59a.3.3,0,0,0-.37,0,.22.22,0,0,0,0,.33l2.3,2.09.45,1.86a.25.25,0,0,0,.21.18h.09a.22.22,0,0,0,.2-.26Z" transform="translate(0 0.36)"/><path class="cls-5" d="M121.36,74.55c.43.08,1.38-.28,3.09-3.48l-1-.19a.41.41,0,0,1-.34-.48.39.39,0,0,1,.17-.26.44.44,0,0,1,.32-.07l1.28.24c.6-1.18,1.23-2.57,1.88-4.19-1.14-.32-1.9-.52-2.2-.58a.42.42,0,0,1-.31-.48.38.38,0,0,1,.18-.26.45.45,0,0,1,.32-.06c.43.09,1.58.41,2.33.61.52-1.28,1-2.69,1.58-4.18a25,25,0,0,0-3-1,.45.45,0,0,1-.32-.49.42.42,0,0,1,.19-.26.49.49,0,0,1,.32-.05,27.58,27.58,0,0,1,3.07,1c.46-1.32.95-2.73,1.41-4.19a15.87,15.87,0,0,0-3.53-1.34.34.34,0,0,1-.26-.18.45.45,0,0,1-.06-.32.38.38,0,0,1,.19-.26A.47.47,0,0,1,127,54a16,16,0,0,1,3.63,1.36c.45-1.37.88-2.79,1.31-4.19a12.34,12.34,0,0,0-4-1.69.42.42,0,0,1-.31-.48.41.41,0,0,1,.48-.32,12.28,12.28,0,0,1,4,1.68c.45-1.51.84-2.93,1.17-4.25a9.4,9.4,0,0,0-4.28-2,.42.42,0,0,1-.26-.19.5.5,0,0,1-.06-.32.42.42,0,0,1,.49-.31,10.62,10.62,0,0,1,4.32,1.88c.3-1.18.52-2.16.65-2.89.11-.56.19-1.12.24-1.64a9.28,9.28,0,0,0-4.28-1.9.41.41,0,1,1,.17-.8,11.43,11.43,0,0,1,4.15,1.7c.15-5.18-2.76-6.82-5.23-7.28s-5.78,0-7.53,4.89a11.25,11.25,0,0,1,4.49-.07.42.42,0,0,1,.36.46.43.43,0,0,1-.47.36,9.39,9.39,0,0,0-4.67.22c-.15.5-.26,1-.38,1.6-.13.73-.27,1.73-.42,2.93a10.53,10.53,0,0,1,4.71-.19.41.41,0,0,1-.11.82,9.73,9.73,0,0,0-4.7.28c-.15,1.34-.29,2.81-.43,4.37a12.76,12.76,0,0,1,4.38-.09.43.43,0,0,1,.35.47.42.42,0,0,1-.46.35A11.55,11.55,0,0,0,120,49c-.11,1.43-.22,2.9-.32,4.37a17.49,17.49,0,0,1,3.88,0,.42.42,0,0,1,.35.47.43.43,0,0,1-.47.35,15.53,15.53,0,0,0-3.79,0c-.08,1.53-.15,3-.19,4.41a25,25,0,0,1,3.22.19.39.39,0,0,1,.26.17.38.38,0,0,1,.08.3.44.44,0,0,1-.47.35,23.36,23.36,0,0,0-3.13-.17c0,1.59,0,3.09,0,4.47l2.41.26a.39.39,0,0,1,.26.17.37.37,0,0,1,.07.3.43.43,0,0,1-.46.35l-2.28-.26c0,1.73.12,3.28.25,4.58l1.28.24a.37.37,0,0,1,.26.17.44.44,0,0,1,.08.32.42.42,0,0,1-.49.33l-1-.18C120.17,73.81,120.93,74.48,121.36,74.55Z" transform="translate(0 0.36)"/><path class="cls-7" d="M189.22,85.89l.86,3.87c-1.47,1.38-6.09,5.5-7.34,9.37-2.19,6.94,6.37,8.42,7.66,6.09a12.51,12.51,0,0,1-1.14-3.13c-.89-3.71.34-9.44.93-11.8l0,0c-.54,3-1.14,7.71-.35,11,1.23,5.06,3.37,6.22,5.56,5.75A108.92,108.92,0,0,0,191,85.46Z" transform="translate(0 0.36)"/><path class="cls-6" d="M177.46,115.35a6.43,6.43,0,0,1,11.65,0h.11c3.75,0,6.78,1.71,6.78,3.8s-3,3.79-6.78,3.79h-.11a6.43,6.43,0,0,1-11.65,0h-.11c-3.75,0-6.78-1.71-6.78-3.79s3-3.8,6.78-3.8ZM177.1,96.6l-15.53,20.11c1.66,1.28,4.86-.08,7.15-3l.06-.09a6.44,6.44,0,0,0,7.13-9.24.19.19,0,0,1,.08-.07C178.28,101.33,178.78,97.88,177.1,96.6Zm-15.53,25,15.53,20.11c1.66-1.28,1.16-4.73-1.13-7.69a.14.14,0,0,0-.08-.07,6.44,6.44,0,0,0-7.13-9.24s0,0,0-.09C166.43,121.68,163.23,120.32,161.57,121.6Z" transform="translate(0 0.36)"/><path class="cls-5" d="M160.4,146.83c1.68.91,2.76,3.35,3.07,4.17l13.5,7.39c.71-1.34,1.16-2.77.91-3.53-1.28-4.42-5.15-4.16-7.81-6.67-3.17-3-3.77-7.15-8.23-8.84-5.09-1.94-8.89.46-11.62,4.41l4.6,2.51C155.82,146.16,158.73,145.9,160.4,146.83Z" transform="translate(0 0.36)"/><path class="cls-5" d="M157.83,151.62c1.68.91,4.3.52,5.18.33l13.5,7.39c-.75,1.31-1.72,2.46-2.5,2.68-4.41,1.29-6.27-2.1-9.83-3-4.21-1.06-8.06.69-11.88-2.16-4.37-3.24-4.39-7.73-2.53-12.16l4.6,2.51C154.8,148.12,156.16,150.7,157.83,151.62Z" transform="translate(0 0.36)"/><path class="cls-5" d="M160.68,149.46a2,2,0,0,1-1.34-.54c-.48-.52-.67-1.14-.43-1.38s.86,0,1.34.54A2.07,2.07,0,0,1,160.68,149.46Z" transform="translate(0 0.36)"/><path class="cls-5" d="M160.14,150.42a2.06,2.06,0,0,0-1.17-.83c-.71-.13-1.32,0-1.38.39s.47.71,1.17.84A2.08,2.08,0,0,0,160.14,150.42Z" transform="translate(0 0.36)"/><path class="cls-6" d="M35.23,216.09a6.3,6.3,0,0,0-5.5.73c-1.8,1-4.52,5.12-4.52,5.12s4.77,1.47,8.47-.95C35.43,219.85,35.23,216.09,35.23,216.09Z" transform="translate(0 0.36)"/><path class="cls-6" d="M35.52,216.09a6.3,6.3,0,0,1,5.5.73c1.8,1,4.52,5.12,4.52,5.12s-4.76,1.47-8.47-.95C35.32,219.85,35.52,216.09,35.52,216.09Z" transform="translate(0 0.36)"/><path class="cls-6" d="M35.23,209.73a6.31,6.31,0,0,0-5.5.72c-1.8,1-4.52,5.12-4.52,5.12s4.77,1.47,8.47-.95C35.43,213.51,35.23,209.73,35.23,209.73Z" transform="translate(0 0.36)"/><path class="cls-6" d="M35.52,209.73a6.31,6.31,0,0,1,5.5.72c1.8,1,4.52,5.12,4.52,5.12s-4.76,1.47-8.47-.95C35.32,213.51,35.52,209.73,35.52,209.73Z" transform="translate(0 0.36)"/><path class="cls-6" d="M35.23,203.38a6.31,6.31,0,0,0-5.5.72c-1.8,1.05-4.52,5.12-4.52,5.12s4.77,1.47,8.47-.95C35.43,207.14,35.23,203.38,35.23,203.38Z" transform="translate(0 0.36)"/><path class="cls-6" d="M35.52,203.38a6.31,6.31,0,0,1,5.5.72c1.8,1.05,4.52,5.12,4.52,5.12s-4.76,1.47-8.47-.95C35.32,207.14,35.52,203.38,35.52,203.38Z" transform="translate(0 0.36)"/><path class="cls-6" d="M35.23,197a6.3,6.3,0,0,0-5.5.73c-1.8,1-4.52,5.12-4.52,5.12s4.77,1.47,8.47-1C35.43,200.77,35.23,197,35.23,197Z" transform="translate(0 0.36)"/><path class="cls-6" d="M35.52,197a6.3,6.3,0,0,1,5.5.73c1.8,1,4.52,5.12,4.52,5.12s-4.76,1.47-8.47-1C35.32,200.77,35.52,197,35.52,197Z" transform="translate(0 0.36)"/><path class="cls-4" d="M161.13,189.49c4.69-4.69,8.45-10.09,12-15.23l7.41,2.18a84.3,84.3,0,0,1-14.11,18.3,84.43,84.43,0,0,1-18.31,14.11s-1-3.07-2.21-7.39A105.54,105.54,0,0,0,161.13,189.49Z" transform="translate(0 0.36)"/><path class="cls-4" d="M145.66,200.23c4.86-3.37,10.07-7,14.65-11.56s8.15-9.78,11.52-14.62l-36.06-9.92S142.08,187.22,145.66,200.23ZM162.6,173a7.07,7.07,0,0,1,3.24.15c1.15.5,1.58,1.28,1.32,1.86s-1.12.8-2.27.28A6.93,6.93,0,0,1,162.6,173Zm-5.7,4a7.15,7.15,0,0,1,3.22.73c1.08.73,1.36,1.56,1,2.12s-1.27.6-2.33-.11A7.58,7.58,0,0,1,156.9,177Zm-10.31-6.66a7.29,7.29,0,0,1,3.25.58c1.1.67,1.44,1.5,1.08,2.06s-1.22.65-2.34,0A7.19,7.19,0,0,1,146.59,170.33Zm3.12,11.88A7.52,7.52,0,0,1,148.5,179a7.35,7.35,0,0,1,3,1.51c.89,1,1,1.88.46,2.35S150.59,183.18,149.71,182.21Zm-6.72-1a7.31,7.31,0,0,1-.52-3.33,7.37,7.37,0,0,1,2.65,2.1c.67,1.14.55,2.05,0,2.38S143.64,182.37,143,181.24Zm5.07,10.31a7.3,7.3,0,0,1-.52-3.33,7.56,7.56,0,0,1,2.64,2.11c.67,1.13.56,2,0,2.38S148.71,192.69,148.06,191.55Z" transform="translate(0 0.36)"/><path class="cls-6" d="M36.9,150.76a22.12,22.12,0,0,1-11.54-19.7Z" transform="translate(0 0.36)"/><path class="cls-6" d="M37.72,150.48l-11.54-19.7A24.3,24.3,0,0,1,34.69,139,24.22,24.22,0,0,1,37.72,150.48Z" transform="translate(0 0.36)"/><path class="cls-4" d="M113.33,162.12a8.91,8.91,0,1,0-15.58,7.69h0l.22.26a.9.9,0,0,1,.15.18l4,4.57a5.48,5.48,0,0,0,9.79-2.37l1.42-5.92a.65.65,0,0,0,0-.19l.09-.37h0A8.36,8.36,0,0,0,113.33,162.12ZM106,169.71a5.65,5.65,0,1,1,4.15-6.83A5.65,5.65,0,0,1,106,169.71Z" transform="translate(0 0.36)"/><path class="cls-7" d="M114.64,208.65h-5a7.94,7.94,0,0,0-8,7.95v4.78Z" transform="translate(0 0.36)"/><path class="cls-4" d="M102.2,222.22h5.12a8,8,0,0,0,8-7.95v-4.92Z" transform="translate(0 0.36)"/><path class="cls-7" d="M125,157.41c-.09-.11.71-.62,1.55-.95a4.52,4.52,0,0,1,.72-5,84.35,84.35,0,0,0,12.63-18,4.53,4.53,0,0,1,4-2.42,5,5,0,0,1-.56-1.26c-.34-1.23,1.49-.15,2.61-.13s2.84,1.52,2.34,2.06a3.27,3.27,0,0,1-1.54.58,4.44,4.44,0,0,1,.54,5c-1,2-2.15,3.91-3.3,5.81q-.19-1.12-.45-2.22a.56.56,0,0,0-.7-.43.69.69,0,0,0-.47.77c.22,1.13.45,2.27.63,3.42-.82,1.27-1.65,2.5-2.53,3.73-.09-.75-.19-1.49-.28-2.24a.55.55,0,0,0-.69-.46.63.63,0,0,0-.5.72q.22,1.71.39,3.45c-.89,1.21-1.82,2.38-2.77,3.54,0-.77-.08-1.51-.13-2.26a.57.57,0,0,0-.65-.52.66.66,0,0,0-.56.69c.07,1.15.13,2.31.16,3.46-.67.78-1.34,1.55-2,2.31a4.42,4.42,0,0,1-4.88,1.23,6,6,0,0,1-.56,2.42c-.41.32-1.21-.69-1.64-1.38S125.1,157.59,125,157.41Z" transform="translate(0 0.36)"/><path class="cls-6" d="M86.75,154.07a.93.93,0,0,0-.23-1.28.93.93,0,0,0-1.3.13,1,1,0,0,0,1.53,1.15Zm-1.49-5.19a1,1,0,0,0-.23-1.29A.89.89,0,1,0,84,149,.94.94,0,0,0,85.26,148.88Zm-5,3.3a.92.92,0,0,0,.22,1.28.94.94,0,0,0,1.31-.13,1,1,0,0,0-.23-1.29A.9.9,0,0,0,80.23,152.18Zm-.17-3.11a1,1,0,0,0-1.53-1.16,1,1,0,0,0,.23,1.29A.93.93,0,0,0,80.06,149.07Zm15.64,3.44,0-.09,0-.1a6,6,0,0,0-.34-4.26l2.29-6.83a2.77,2.77,0,0,0-.87-2.52l-6.78-5.08a2.65,2.65,0,0,0-2.29-.22l-6.09,4.11-.15.09a5.83,5.83,0,0,0-2.85.17,4.64,4.64,0,0,0-3,2.46,6.53,6.53,0,0,0-.15,4.34,8.87,8.87,0,0,0-1.26,5.57,9.21,9.21,0,0,0,4,6.18c.13.11.28.2.43.31l.15.12c2.85,2.14,7.43,2.92,11.34-1.49a4.84,4.84,0,0,0,2.7-.1A4.66,4.66,0,0,0,95.7,152.51ZM90,135.85l-3.91,3.5a.45.45,0,0,1-.63,0,.46.46,0,0,1,.07-.64l3.91-3.5a.46.46,0,0,1,.64,0A.45.45,0,0,1,90,135.85Zm-.37,6a.43.43,0,0,1-.63,0,.44.44,0,0,1-.13-.62l3-4a.43.43,0,0,1,.63,0,.44.44,0,0,1,.15.61Zm2.79,2.72a.43.43,0,0,1-.18-.6l2.27-4.73a.47.47,0,0,1,.59-.24.45.45,0,0,1,.19.6L93,144.32A.5.5,0,0,1,92.44,144.56Zm-2.73,8.88c-4.83,6.42-10,2-10,2-7-4.82-2.36-10.59-2.36-10.59s-1.87-4.39,1.84-5.53,4.56,3,4.56,3c6.44-2,6.48,4.5,6.48,4.5,5.27,1.12,4.08,5.05,4.08,5.05A3.21,3.21,0,0,1,89.71,153.44Z" transform="translate(0 0.36)"/><path class="cls-7" d="M70.44,179.62V156.53a2.16,2.16,0,0,0-2.16-2.16H43.53a2.16,2.16,0,0,0-2.16,2.16v23.09Zm-5.5-12.38a9,9,0,1,1-9-9A9,9,0,0,1,64.94,167.24Z" transform="translate(0 0.36)"/><path class="cls-7" d="M55.91,160.07a7.15,7.15,0,0,1,7.15,7.15,6.88,6.88,0,0,1-.39,2.31,8.27,8.27,0,0,1-3.37-.11c-4.43-1-5.25-4.34-9.4-6.11A7.18,7.18,0,0,1,55.91,160.07Z" transform="translate(0 0.36)"/><path class="cls-7" d="M52,169.6a1.7,1.7,0,1,1-3.39,0,1.7,1.7,0,0,1,3.39,0Zm-.39,0a1.31,1.31,0,1,0-1.31,1.31A1.31,1.31,0,0,0,51.56,169.6Z" transform="translate(0 0.36)"/><path class="cls-7" d="M49.92,170c-.21-.09-.41-.07-.47.06s.08.29.28.39.41.07.47-.06S50.12,170.12,49.92,170Z" transform="translate(0 0.36)"/><path class="cls-7" d="M57,173.29a1.38,1.38,0,1,1-1.37-1.38A1.37,1.37,0,0,1,57,173.29Zm-.39,0a1,1,0,1,0-1,1A1,1,0,0,0,56.58,173.29Z" transform="translate(0 0.36)"/><path class="cls-7" d="M55.34,173.62c-.17-.07-.34-.05-.38,0s.06.24.21.3.33,0,.37,0S55.5,173.7,55.34,173.62Z" transform="translate(0 0.36)"/><path class="cls-7" d="M55.69,169.75a1.08,1.08,0,1,1-1.08-1.08A1.08,1.08,0,0,1,55.69,169.75Zm-.39,0a.69.69,0,1,0-.69.69A.7.7,0,0,0,55.3,169.75Z" transform="translate(0 0.36)"/><path class="cls-7" d="M54.59,169.9a.21.21,0,0,0-.28,0c0,.07,0,.16.17.22a.21.21,0,0,0,.28,0C54.78,170.07,54.7,170,54.59,169.9Z" transform="translate(0 0.36)"/><path class="cls-7" d="M70.44,185.22v-4.09H41.37v4.09a2.16,2.16,0,0,0,2.16,2.16H68.28A2.16,2.16,0,0,0,70.44,185.22Zm-23.58-1a1.08,1.08,0,1,1-1.08-1.08A1.08,1.08,0,0,1,46.86,184.26Zm4.44,0a1.08,1.08,0,1,1-2.16,0,1.08,1.08,0,0,1,1.08-1.08A1.09,1.09,0,0,1,51.3,184.26Zm6.18,0a1.57,1.57,0,1,1-1.57-1.57A1.56,1.56,0,0,1,57.48,184.26Zm9.79,0a1.08,1.08,0,0,1-1.08,1.08H62.47a1.08,1.08,0,1,1,0-2.16h3.72A1.08,1.08,0,0,1,67.27,184.26Z" transform="translate(0 0.36)"/><g id="_Group_11" data-name="&lt;Group&gt;"><g id="_Group_12" data-name="&lt;Group&gt;"><g id="_Group_13" data-name="&lt;Group&gt;"><path id="_Path_7" data-name="&lt;Path&gt;" class="cls-5" d="M93.06,174.63A.63.63,0,0,1,93,175a.82.82,0,0,1-.7.2,2.42,2.42,0,0,1-.75-.09,28.68,28.68,0,0,1-3-1.23,3.73,3.73,0,0,0-3.85.54.32.32,0,0,1-.51-.28,1.89,1.89,0,0,1,.32-.89c.6-.93,2-1.75,4.23-1.58h.16c2.35.16,3.69,1.34,4,2.4A2.09,2.09,0,0,1,93.06,174.63Z" transform="translate(0 0.36)"/></g><g id="_Group_14" data-name="&lt;Group&gt;"><path id="_Path_8" data-name="&lt;Path&gt;" class="cls-5" d="M89.28,175.43a5,5,0,0,0,3.44.09.2.2,0,0,1,.24.21,2.28,2.28,0,0,1-1,1.54,5,5,0,0,1-3.6.86l-.16,0c-2.54-.2-3.9-1.58-4.08-2.74a.32.32,0,0,1,.2-.35A7.39,7.39,0,0,1,89.28,175.43Z" transform="translate(0 0.36)"/></g></g><g id="_Group_15" data-name="&lt;Group&gt;"><g id="_Group_16" data-name="&lt;Group&gt;"><path id="_Path_9" data-name="&lt;Path&gt;" class="cls-5" d="M84,167.29a.72.72,0,0,1,.24.34c0,.15,0,.35-.33.65a4.38,4.38,0,0,1-.58.48,20.8,20.8,0,0,1-2.94,1.29,3.75,3.75,0,0,0-2.27,3.16.31.31,0,0,1-.54.17,2,2,0,0,1-.43-.85c-.26-1.08.17-2.69,1.77-4.16l.06-.05,0-.06c1.73-1.58,3.5-1.75,4.53-1.26A2.58,2.58,0,0,1,84,167.29Z" transform="translate(0 0.36)"/></g><g id="_Group_17" data-name="&lt;Group&gt;"><path id="_Path_10" data-name="&lt;Path&gt;" class="cls-5" d="M81.92,170.59a5,5,0,0,0,2.44-2.42.19.19,0,0,1,.32,0,2.31,2.31,0,0,1,.45,1.77,5.13,5.13,0,0,1-1.87,3.2.69.69,0,0,1-.13.11c-1.9,1.7-3.83,1.72-4.8,1.07a.33.33,0,0,1-.11-.4A7.36,7.36,0,0,1,81.92,170.59Z" transform="translate(0 0.36)"/></g></g><g id="_Group_18" data-name="&lt;Group&gt;"><g id="_Group_19" data-name="&lt;Group&gt;"><path id="_Path_11" data-name="&lt;Path&gt;" class="cls-5" d="M84.66,183.29c-.09.05-.2.18-.35.2s-.36-.07-.62-.41a3,3,0,0,1-.41-.61,26.81,26.81,0,0,1-1-3.06,3.73,3.73,0,0,0-2.9-2.6.31.31,0,0,1-.11-.56,1.83,1.83,0,0,1,.89-.34c1.1-.13,2.66.45,3.93,2.22a.1.1,0,0,1,0,.07.28.28,0,0,1,0,.08c1.38,1.9,1.36,3.67.77,4.63A3.46,3.46,0,0,1,84.66,183.29Z" transform="translate(0 0.36)"/></g><g id="_Group_20" data-name="&lt;Group&gt;"><path id="_Path_12" data-name="&lt;Path&gt;" class="cls-5" d="M81.61,180.9a5,5,0,0,0,2.16,2.69.19.19,0,0,1,0,.31,2.27,2.27,0,0,1-1.81.26A5,5,0,0,1,79,182s-.07-.12-.09-.14c-1.47-2.08-1.31-4-.54-4.87a.35.35,0,0,1,.41-.08A7.37,7.37,0,0,1,81.61,180.9Z" transform="translate(0 0.36)"/></g></g></g><path class="cls-6" d="M110.84,196.12c-2.07.39-5.1-.92-7.8-3.52l-7.82-7.82H95a.5.5,0,0,0-.51.5v.24a.5.5,0,0,1-.5.5h-.24a.51.51,0,0,0-.51.51v.24a.5.5,0,0,1-.5.5h-.24a.5.5,0,0,0-.5.5V188a.5.5,0,0,1-.51.5h-.24a.5.5,0,0,0-.5.5v.24a.5.5,0,0,1-.5.51H90a.5.5,0,0,0-.51.5v.24a.5.5,0,0,1-.5.5h-.24a.5.5,0,0,0-.5.51v.24a.5.5,0,0,1-.51.5h-.24a.5.5,0,0,0-.5.5V193a.5.5,0,0,1-.51.5h-.24a.5.5,0,0,0-.5.5v.24l7.8,7.8h0c3.2,3.11,7,4.36,8.58,2.8Zm-8.92-1a.34.34,0,0,1,0-.48l.76-.77a.35.35,0,0,1,.49.49l-.77.76A.34.34,0,0,1,101.92,195.11Zm-1.75,1.75a.34.34,0,0,1,0-.48l.76-.77a.35.35,0,0,1,.49.49l-.77.76A.34.34,0,0,1,100.17,196.86Zm-1.75,1.75a.34.34,0,0,1,0-.48l.76-.77a.35.35,0,0,1,.49.49l-.77.76A.34.34,0,0,1,98.42,198.61Zm-1.75,1.75a.34.34,0,0,1,0-.48l.76-.77a.35.35,0,0,1,.49.49l-.77.76A.34.34,0,0,1,96.67,200.36Zm-1.75,1.75a.34.34,0,0,1,0-.48l.76-.77a.35.35,0,0,1,.49.49l-.77.76A.34.34,0,0,1,94.92,202.11Z" transform="translate(0 0.36)"/><path class="cls-6" d="M100.26,189.1l-3-3,1.77-1.77A7.59,7.59,0,0,0,100.26,189.1Z" transform="translate(0 0.36)"/><path class="cls-6" d="M109,186.23c-3.24-3.24-7.19-4.58-8.79-3s-.26,5.53,3,8.79,7.18,4.58,8.78,3S112.22,189.47,109,186.23Zm-1.68,1.67c1.19,1.2,1.73,2.61,1.19,3.15a.68.68,0,0,1-.3.17c-.65.2-1.82-.34-2.84-1.36s-1.57-2.2-1.36-2.85a1,1,0,0,1,.16-.3C104.69,186.17,106.09,186.71,107.3,187.9Z" transform="translate(0 0.36)"/><path class="cls-4" d="M184.57,167.83c.67-.74,3.44-4.09,3.07-7.72s-3.8-6.33-4.6-6.91Z" transform="translate(0 0.36)"/><path class="cls-4" d="M183.53,168,182,153.33c-.67.74-3.44,4.1-3.07,7.73S182.73,167.39,183.53,168Z" transform="translate(0 0.36)"/><path class="cls-4" d="M29,176.55a1.49,1.49,0,0,1,1.49-1.49h.78a1.49,1.49,0,0,1,1.49,1.49h0A1.49,1.49,0,0,1,31.24,178h-.78A1.49,1.49,0,0,1,29,176.55Zm-3.76,0A1.49,1.49,0,0,0,26.7,178h.78A1.49,1.49,0,0,0,29,176.55h0a1.49,1.49,0,0,0-1.49-1.49H26.7a1.49,1.49,0,0,0-1.49,1.49Zm3.54,3.11a1.39,1.39,0,0,0,1.39,1.39h.75a1.4,1.4,0,0,0,1.4-1.39h0a1.41,1.41,0,0,0-1.4-1.4h-.75a1.38,1.38,0,0,0-1.39,1.4Zm-3.54,0a1.39,1.39,0,0,0,1.4,1.39h.74a1.4,1.4,0,0,0,1.4-1.39h0a1.41,1.41,0,0,0-1.4-1.4h-.74a1.38,1.38,0,0,0-1.4,1.4Zm3.3,2.86a1.29,1.29,0,0,0,1.3,1.31h.69a1.3,1.3,0,0,0,1.3-1.31h0a1.3,1.3,0,0,0-1.3-1.3h-.69a1.29,1.29,0,0,0-1.3,1.3Zm-3.3,0a1.3,1.3,0,0,0,1.3,1.31h.69a1.3,1.3,0,0,0,1.31-1.31h0a1.3,1.3,0,0,0-1.31-1.3h-.69a1.31,1.31,0,0,0-1.3,1.3Zm2.89,2.74a1.13,1.13,0,0,0,1.13,1.14h.6A1.13,1.13,0,0,0,31,185.26h0a1.12,1.12,0,0,0-1.13-1.13h-.6a1.14,1.14,0,0,0-1.13,1.13Zm-2.89,0a1.13,1.13,0,0,0,1.14,1.14h.59a1.14,1.14,0,0,0,1.14-1.14h0a1.13,1.13,0,0,0-1.14-1.13h-.59a1.14,1.14,0,0,0-1.14,1.13Zm2.27,2.31a.89.89,0,0,0,.9.89h.48a.89.89,0,0,0,.89-.89h0a.89.89,0,0,0-.89-.89h-.48a.89.89,0,0,0-.9.89Zm-2.27,0a.89.89,0,0,0,.89.89h.49a.89.89,0,0,0,.89-.89h0a.89.89,0,0,0-.89-.89H26.1a.89.89,0,0,0-.89.89Zm1.84,2a.73.73,0,0,0,.73.73h.39a.73.73,0,0,0,.73-.73h0a.73.73,0,0,0-.73-.72h-.39a.74.74,0,0,0-.73.72Zm-1.84,0a.73.73,0,0,0,.73.73h.39a.73.73,0,0,0,.72-.73h0a.72.72,0,0,0-.72-.72h-.39a.74.74,0,0,0-.73.72ZM29.29,156a1.62,1.62,0,0,0,1.62,1.62h.85A1.62,1.62,0,0,0,33.38,156h0a1.6,1.6,0,0,0-1.62-1.6h-.85a1.59,1.59,0,0,0-1.62,1.6Zm0,3.45a1.61,1.61,0,0,0,1.62,1.61h.85a1.61,1.61,0,0,0,1.62-1.61h0a1.61,1.61,0,0,0-1.62-1.62h-.85a1.61,1.61,0,0,0-1.62,1.62Zm0,3.44a1.62,1.62,0,0,0,1.62,1.62h.85a1.62,1.62,0,0,0,1.62-1.62h0a1.6,1.6,0,0,0-1.62-1.6h-.85a1.59,1.59,0,0,0-1.62,1.6Zm0,3.44A1.61,1.61,0,0,0,30.91,168h.85a1.61,1.61,0,0,0,1.62-1.62h0a1.62,1.62,0,0,0-1.62-1.62h-.85a1.62,1.62,0,0,0-1.62,1.62Zm0,3.45a1.62,1.62,0,0,0,1.62,1.62h.85a1.62,1.62,0,0,0,1.62-1.62h0a1.61,1.61,0,0,0-1.62-1.62h-.85a1.61,1.61,0,0,0-1.62,1.62Zm0,3.44a1.61,1.61,0,0,0,1.62,1.62h.85a1.61,1.61,0,0,0,1.62-1.62h0a1.62,1.62,0,0,0-1.62-1.62h-.85a1.62,1.62,0,0,0-1.62,1.62ZM25.21,156a1.63,1.63,0,0,0,1.62,1.62h.86A1.63,1.63,0,0,0,29.31,156h0a1.61,1.61,0,0,0-1.62-1.6h-.86a1.6,1.6,0,0,0-1.62,1.6Zm0,3.45a1.62,1.62,0,0,0,1.62,1.61h.86a1.62,1.62,0,0,0,1.62-1.61h0a1.62,1.62,0,0,0-1.62-1.62h-.86a1.62,1.62,0,0,0-1.62,1.62Zm0,3.44a1.63,1.63,0,0,0,1.62,1.62h.86a1.63,1.63,0,0,0,1.62-1.62h0a1.61,1.61,0,0,0-1.62-1.6h-.86a1.6,1.6,0,0,0-1.62,1.6Zm0,3.44A1.62,1.62,0,0,0,26.83,168h.86a1.62,1.62,0,0,0,1.62-1.62h0a1.63,1.63,0,0,0-1.62-1.62h-.86a1.63,1.63,0,0,0-1.62,1.62Zm0,3.45a1.63,1.63,0,0,0,1.62,1.62h.86a1.63,1.63,0,0,0,1.62-1.62h0a1.62,1.62,0,0,0-1.62-1.62h-.86a1.62,1.62,0,0,0-1.62,1.62Zm0,3.44a1.62,1.62,0,0,0,1.62,1.62h.86a1.62,1.62,0,0,0,1.62-1.62h0a1.63,1.63,0,0,0-1.62-1.62h-.86a1.63,1.63,0,0,0-1.62,1.62Zm0,19.31H26a1,1,0,1,0,0-1.94h-.74Z" transform="translate(0 0.36)"/><polygon class="cls-4" points="84.85 207.26 84.85 217.53 87.19 219.47 87.19 209.21 84.85 207.26"/><path class="cls-4" d="M76,211.74a10,10,0,0,0-3-1.38,1.38,1.38,0,1,0,0,2.75A9.92,9.92,0,0,0,76,211.74Z" transform="translate(0 0.36)"/><path class="cls-4" d="M83.9,206.36H53.68a1,1,0,0,0-1,1v9.55H83.9V206.36Zm-10.93,3c1.1,0,3.68,1.6,4.19,1.94a.49.49,0,0,1,0,.8c-.51.31-3.09,1.93-4.19,1.93a2.34,2.34,0,0,1,0-4.67Z" transform="translate(0 0.36)"/><path class="cls-4" d="M88.14,209.09v10.56h1.19a1,1,0,0,0,1-1v-8.56a1,1,0,0,0-1-1H88.14Z" transform="translate(0 0.36)"/><path class="cls-4" d="M84.19,217.86H52.67v3.52a1,1,0,0,0,1,1H84.21l2.72-2.27Z" transform="translate(0 0.36)"/><path class="cls-5" d="M132.53,210.9a.29.29,0,0,1-.37,0l-2.09-1.9.75,4,3,2.78a.22.22,0,0,1,0,.33.27.27,0,0,1-.37,0L131,213.82l.63,3.41a.26.26,0,0,1-.22.28.25.25,0,0,1-.3-.19l-.63-3.4-1.51,3a.3.3,0,0,1-.36.13.23.23,0,0,1-.13-.3l1.85-3.68-.75-4-1.25,2.52a.29.29,0,0,1-.35.13.22.22,0,0,1-.13-.3l1.58-3.17-.41-2.19a.26.26,0,0,1,.23-.28c.15,0,.28,0,.29.18l.41,2.2,2.61,2.38C132.64,210.68,132.64,210.82,132.53,210.9Z" transform="translate(0 0.36)"/><path class="cls-5" d="M139.19,212.15a.32.32,0,0,1-.35.13l-2.68-1,1.62,2.35a.22.22,0,0,1-.09.32.28.28,0,0,1-.36-.08l-1.62-2.35-.15,2.63a.25.25,0,0,1-.28.22c-.14,0-.26-.11-.24-.22l.19-3.33L133.31,208l-.11,2.16a.26.26,0,0,1-.28.23.22.22,0,0,1-.24-.23l.15-2.85-1.08-1.56a.21.21,0,0,1,.09-.32l.09,0a.25.25,0,0,1,.26.09l1.08,1.56,2.91,1.12a.23.23,0,0,1,.13.3.31.31,0,0,1-.35.13l-2.2-.84,1.92,2.78,3.38,1.3A.21.21,0,0,1,139.19,212.15Z" transform="translate(0 0.36)"/><path class="cls-5" d="M126.4,208.52l1.18,2.6a.23.23,0,0,1-.15.3.27.27,0,0,1-.34-.11l-.89-2-.78,3.27,1.37,3a.21.21,0,0,1-.14.29.27.27,0,0,1-.34-.11l-1.08-2.4-.67,2.78a.28.28,0,0,1-.32.18.23.23,0,0,1-.2-.26l.67-2.77-2.12,1.91a.3.3,0,0,1-.38,0,.24.24,0,0,1,0-.33l2.69-2.44.78-3.28-1.75,1.58a.29.29,0,0,1-.37,0,.22.22,0,0,1,0-.33l2.3-2.09.45-1.86a.27.27,0,0,1,.21-.19h.09a.23.23,0,0,1,.2.27Z" transform="translate(0 0.36)"/><path class="cls-5" d="M121.79,174.13a.39.39,0,0,0,.26-.17.38.38,0,0,0,.07-.3.43.43,0,0,0-.46-.35l-2.28.26c0-1.73.12-3.28.25-4.58l1.28-.24a.37.37,0,0,0,.26-.17.51.51,0,0,0,.08-.32.42.42,0,0,0-.49-.33l-1,.18c.45-3.61,1.21-4.28,1.62-4.37s1.38.28,3.09,3.48l-1,.19a.42.42,0,0,0-.34.48.39.39,0,0,0,.17.26.44.44,0,0,0,.32.07l1.28-.24c.6,1.18,1.23,2.57,1.88,4.19-1.13.32-1.9.52-2.2.58a.42.42,0,0,0-.31.48.38.38,0,0,0,.18.26.45.45,0,0,0,.32.06c.43-.09,1.58-.41,2.33-.61.52,1.28,1,2.7,1.58,4.18a25,25,0,0,1-3,1,.43.43,0,0,0-.31.49.37.37,0,0,0,.18.26.5.5,0,0,0,.32,0,27.58,27.58,0,0,0,3.07-1c.47,1.32,1,2.73,1.42,4.19a16.15,16.15,0,0,1-3.54,1.34.35.35,0,0,0-.26.18.45.45,0,0,0-.06.32.38.38,0,0,0,.19.26.47.47,0,0,0,.31.06,16,16,0,0,0,3.63-1.36c.45,1.37.88,2.79,1.31,4.19a12.34,12.34,0,0,1-4,1.69.42.42,0,0,0-.31.48.41.41,0,0,0,.48.32,12.19,12.19,0,0,0,4-1.68c.45,1.51.84,2.93,1.17,4.25a9.49,9.49,0,0,1-4.28,2,.37.37,0,0,0-.26.18.5.5,0,0,0,0,.32.41.41,0,0,0,.48.31,10.62,10.62,0,0,0,4.32-1.88c.3,1.18.52,2.16.65,2.89.11.56.19,1.12.24,1.64a9.28,9.28,0,0,1-4.28,1.9.44.44,0,0,0-.32.48.43.43,0,0,0,.49.32,11.36,11.36,0,0,0,4.15-1.7c.15,5.18-2.76,6.82-5.23,7.28s-5.77,0-7.52-4.89a11.2,11.2,0,0,0,4.48.07.42.42,0,0,0,.36-.46.43.43,0,0,0-.47-.36,9.28,9.28,0,0,1-4.67-.22c-.15-.5-.26-1-.37-1.6-.13-.73-.28-1.73-.43-2.93a10.53,10.53,0,0,0,4.71.19.41.41,0,0,0-.11-.82,9.6,9.6,0,0,1-4.7-.28c-.14-1.34-.29-2.81-.42-4.37a12.69,12.69,0,0,0,4.37.09.41.41,0,1,0-.11-.82,11.55,11.55,0,0,1-4.32-.15c-.11-1.43-.22-2.9-.32-4.37a17.49,17.49,0,0,0,3.88,0,.42.42,0,0,0,.35-.47.43.43,0,0,0-.47-.35,15.53,15.53,0,0,1-3.79,0c-.08-1.53-.15-3-.19-4.41a25,25,0,0,0,3.22-.19.37.37,0,0,0,.26-.17.34.34,0,0,0,.08-.3.44.44,0,0,0-.47-.35,23.36,23.36,0,0,1-3.13.17c0-1.58-.05-3.09,0-4.47.8-.06,2-.19,2.42-.24" transform="translate(0 0.36)"/><path class="cls-7" d="M189.22,152.42l.86-3.88c-1.47-1.37-6.09-5.49-7.34-9.38-2.19-6.94,6.37-8.42,7.66-6.09a12.51,12.51,0,0,0-1.14,3.13c-.89,3.71.34,9.44.93,11.8l0-.05c-.54-3-1.14-7.71-.35-11,1.23-5.06,3.37-6.22,5.56-5.75A108.92,108.92,0,0,1,191,152.83Z" transform="translate(0 0.36)"/><path class="cls-7" d="M114.64,29.66h-5a7.94,7.94,0,0,1-8-7.95V16.93Z" transform="translate(0 0.36)"/><path class="cls-4" d="M102.2,16.09h5.12a8,8,0,0,1,8,8V29Z" transform="translate(0 0.36)"/><path class="cls-5" d="M76.54,39.55h-2.7l0,4.86h2.7a1,1,0,0,0,1-1V40.57A1,1,0,0,0,76.54,39.55Z" transform="translate(0 0.36)"/><path class="cls-5" d="M73.06,39.55l-19.88,0h0c-.06,0-.08,0-.12.06v0l-4.21,2.12,0,0a.28.28,0,0,0-.17.24.27.27,0,0,0,.17.24l0,0L53,44.35l0,0s.07.06.11.06l19.88,0ZM52.88,43.63,50.33,42.3v-.74l2.57-1.3Z" transform="translate(0 0.36)"/><path class="cls-5" d="M76.54,193.94h-2.7l0,4.86h2.7a1,1,0,0,0,1-1V195A1,1,0,0,0,76.54,193.94Z" transform="translate(0 0.36)"/><path class="cls-5" d="M73.06,193.94l-19.88,0h0c-.06,0-.08,0-.12.06v0l-4.21,2.12,0,0a.25.25,0,0,0,0,.48l0,0L53,198.74l0,0s.07.06.11.06l19.88,0ZM52.88,198l-2.55-1.33v-.74l2.57-1.3Z" transform="translate(0 0.36)"/><path class="cls-3" d="M250.93,151.58H228V87.79h23c16.72,0,29.81,14,29.81,31.8C280.74,137.22,267.37,151.58,250.93,151.58Zm-12.05-9.11h12.05a17.31,17.31,0,0,0,12.51-5.25c4.26-4.28,6.68-10.7,6.63-17.61a25.48,25.48,0,0,0-5.51-16.09,17.51,17.51,0,0,0-13.63-6.62H238.88Z" transform="translate(0 0.36)"/><path class="cls-3" d="M296.6,151.58V87.79h41.87V98.11H307.53v22.77l20-.1V131.1l-20,.09v10.06h30.94v10.31l-41.87,0Z" transform="translate(0 0.36)"/><path class="cls-3" d="M356.05,151.58V87.87H367v53.38h31.11v10.31l-42,0Z" transform="translate(0 0.36)"/><path class="cls-3" d="M421.4,151.58H410.47V87.79H421.4Z" transform="translate(0 0.36)"/><path class="cls-3" d="M467.06,152c-17,0-30.5-14.23-30.69-32.4a32.43,32.43,0,0,1,9.33-23.35A29.88,29.88,0,0,1,493,102.33l1.42,2.37H482.19l-.46-.56a19,19,0,0,0-14.66-7.24A18.66,18.66,0,0,0,453,103.47a24.43,24.43,0,0,0-5.94,16.14c-.08,12.7,8.71,22.7,20,22.77a18.67,18.67,0,0,0,14.8-7.46l.47-.6H494.5l-1.38,2.35A30.12,30.12,0,0,1,467.06,152Z" transform="translate(0 0.36)"/><path class="cls-3" d="M511.13,151.58V87.79H553V98.11H522.06v22.77l20-.1V131.1l-20,.09v10.06H553v10.31l-41.87,0Z" transform="translate(0 0.36)"/></svg>