<?xml version="1.0" encoding="UTF-8" standalone="no"?>
<svg
   xmlns:dc="http://purl.org/dc/elements/1.1/"
   xmlns:cc="http://creativecommons.org/ns#"
   xmlns:rdf="http://www.w3.org/1999/02/22-rdf-syntax-ns#"
   xmlns:svg="http://www.w3.org/2000/svg"
   xmlns="http://www.w3.org/2000/svg"
   xmlns:sodipodi="http://sodipodi.sourceforge.net/DTD/sodipodi-0.dtd"
   xmlns:inkscape="http://www.inkscape.org/namespaces/inkscape"
   inkscape:version="1.0 (4035a4fb49, 2020-05-01)"
   sodipodi:docname="delorean-motor-company (1).svg"
   id="svg8"
   version="1.1"
   viewBox="0 0 77.1024 23.25439"
   height="301.60397"
   width="1000">
  <metadata
     id="metadata14">
    <rdf:RDF>
      <cc:Work
         rdf:about="">
        <dc:format>image/svg+xml</dc:format>
        <dc:type
           rdf:resource="http://purl.org/dc/dcmitype/StillImage" />
      </cc:Work>
    </rdf:RDF>
  </metadata>
  <defs
     id="defs12" />
  <sodipodi:namedview
     inkscape:current-layer="svg8"
     inkscape:window-maximized="1"
     inkscape:window-y="-11"
     inkscape:window-x="-11"
     inkscape:cy="362.1504"
     inkscape:cx="1296.6859"
     inkscape:zoom="0.31392458"
     showgrid="false"
     id="namedview10"
     inkscape:window-height="986"
     inkscape:window-width="1920"
     inkscape:pageshadow="2"
     inkscape:pageopacity="0"
     guidetolerance="10"
     gridtolerance="10"
     objecttolerance="10"
     borderopacity="1"
     bordercolor="#666666"
     pagecolor="#ffffff" />
  <path
     d="m 0,23.16182 c 0.03071,-0.30841 0.061858,-0.616825 0.061858,-0.98666 0.03071,-0.339124 0.03071,-0.740546 0.03071,-1.141529 0,-0.462842 0,-0.863825 -0.03071,-1.23366 0,-0.338686 -0.03071,-0.64754 -0.061858,-0.924806 h 1.1099425 c 0.277705,-0.03071 0.4935515,-0.03071 0.6479785,-0.03071 0.708959,0 1.233659,0.185137 1.572784,0.524262 0.369835,0.369834 0.55541,0.894096 0.55541,1.572784 0,0.709398 -0.215846,1.264808 -0.61683,1.634643 C 2.837592,22.97713 2.282182,23.16226 1.542074,23.16226 H 1.0178129 c -0.2465564,0 -0.4009832,-0.0307 -0.5242614,-0.0307 -0.09213,0 -0.1539881,0 -0.2465564,0.0307 z m 75.066774,0 c 0.03071,-0.15442 0.03071,-0.33912 0.06186,-0.555405 v -1.202511 c -0.214969,-0.462842 -0.461965,-0.863825 -0.677811,-1.295518 -0.246557,-0.400983 -0.462842,-0.771257 -0.709398,-1.171801 -0.03071,0.246556 -0.03071,0.61683 -0.06186,1.171801 0,0.58612 -0.03071,1.326228 -0.03071,2.189614 v 0.370273 c 0.03071,0.154427 0.03071,0.339127 0.03071,0.586117 H 73.463719 C 73.340441,23.06926 73.186014,22.85341 73.032026,22.637563 72.846889,22.452427 72.631043,22.17516 72.353338,21.866307 l -1.75836,-1.943058 v 1.696501 c 0,0.308415 0.03071,0.58612 0.03071,0.832238 0.03071,0.246556 0.03071,0.493552 0.06186,0.740542 -0.06186,-0.0307 -0.09257,-0.0307 -0.123278,-0.0307 h -0.245679 c -0.03071,0 -0.09257,0 -0.123278,0.0307 0.03071,-0.30841 0.06186,-0.740542 0.06186,-1.326223 0.03071,-0.585681 0.03071,-1.295079 0.03071,-2.128194 v -0.462842 -0.493113 h 0.214969 a 33.170611,33.170611 0 0 0 1.388087,1.665353 c 0.462841,0.55541 0.956393,1.110381 1.449944,1.665791 v -1.72765 -0.709398 c -0.03071,-0.246556 -0.03071,-0.523823 -0.06186,-0.801528 h 0.616391 c 0.06186,0.03071 0.123278,0.03071 0.215846,0.03071 0.06186,0 0.123279,0 0.185137,-0.03071 h 0.185137 c 0.06186,0.154427 0.123278,0.338687 0.215846,0.55541 0.09257,0.185137 0.215847,0.400545 0.338248,0.616391 l 0.493551,0.925245 a 15.218935,15.218935 0 0 0 0.55541,-1.017813 c 0.154427,-0.338686 0.339125,-0.709398 0.493552,-1.079233 h 0.123278 c 0.03071,0.03071 0.06186,0.03071 0.123278,0.03071 0.06142,0 0.09257,0 0.154427,-0.03071 H 77.1024 a 21.56535,21.56535 0 0 0 -0.431693,0.709399 8.1600519,8.1600519 0 0 0 -0.400983,0.708959 l -0.55541,0.956393 v 1.356938 c 0,0.185136 0.03071,0.370275 0.03071,0.555405 h -0.185137 c -0.06186,-0.0307 -0.09257,-0.0307 -0.154427,-0.0307 -0.06186,0 -0.09257,0 -0.154427,0.0307 z M 0.6782495,22.822261 c 0.1232782,0.03071 0.2465564,0.03071 0.3702733,0.06186 h 0.277705 c 0.6168302,0 1.1099422,-0.154427 1.4183572,-0.493552 0.308415,-0.307976 0.462842,-0.801527 0.462842,-1.418357 0,-0.61683 -0.154427,-1.079672 -0.431693,-1.387648 -0.308415,-0.308853 -0.770818,-0.462841 -1.3569379,-0.462841 -0.1232782,0 -0.2465564,0 -0.3702733,0.03071 H 0.6782495 v 0.955955 c -0.03071,0.524261 -0.03071,0.832676 -0.03071,0.925245 v 0.616829 c 0.03071,0.277705 0.03071,0.67825 0.03071,1.171801 z M 4.22524,23.16182 C 4.25595,22.85341 4.25595,22.544995 4.2871,22.17516 v -1.141529 -1.23366 C 4.25639,19.461285 4.25639,19.152431 4.22524,18.875165 h 2.190052 c -0.03115,0.03071 -0.03115,0.06186 -0.03115,0.09257 v 0.215407 c 0,0.03071 0,0.09257 0.03115,0.123279 -0.154426,-0.03071 -0.308414,-0.06186 -0.462841,-0.06186 -0.153988,-0.03071 -0.339125,-0.03071 -0.524262,-0.03071 H 4.873218 v 1.511803 h 0.987103 c 0.153988,-0.03071 0.308415,-0.03071 0.431693,-0.06186 v 0.431693 c -0.184698,0 -0.339125,-0.03071 -0.493551,-0.03071 -0.123279,-0.03071 -0.246557,-0.03071 -0.339125,-0.03071 H 4.873657 v 1.17224 c 0,0.215408 0.03071,0.400544 0.03071,0.616391 H 5.92218 c 0.185136,-0.03071 0.339124,-0.06186 0.493551,-0.09257 V 23.16226 H 4.811798 Z m 3.60841,0 c 0.03071,-0.30841 0.03071,-0.616825 0.06186,-0.98666 v -1.141529 -1.23366 C 7.8648,19.461285 7.8648,19.152431 7.83365,18.875165 h 0.154427 c 0.06186,0.03071 0.123278,0.03071 0.185136,0.03071 0.06142,0 0.123278,0 0.185137,-0.03071 h 0.184698 c -0.03071,0.246557 -0.03071,0.493552 -0.03071,0.771257 -0.03071,0.277266 -0.03071,0.585681 -0.03071,0.924806 v 1.418796 c 0.03071,0.369834 0.03071,0.647539 0.03071,0.832237 h 1.110381 c 0.154427,-0.03071 0.308415,-0.06186 0.493552,-0.09257 -0.03071,0.03071 -0.03071,0.06186 -0.03071,0.123278 v 0.215851 c 0,0.0307 0,0.0619 0.03071,0.0926 H 8.420208 Z m 4.163381,-4.101957 c -0.524261,0 -0.894535,0.184698 -1.171801,0.524262 -0.277705,0.307976 -0.400983,0.801527 -0.400983,1.418357 0,0.647978 0.123278,1.110381 0.400983,1.480216 0.277705,0.339125 0.64754,0.493552 1.171801,0.493552 0.493552,0 0.863825,-0.154427 1.141091,-0.493552 0.246557,-0.338686 0.400983,-0.832238 0.400983,-1.449506 0,-0.647978 -0.154426,-1.110381 -0.400983,-1.449506 -0.277266,-0.339125 -0.647539,-0.523823 -1.141091,-0.523823 z m 0,4.194527 c 0.678688,0 1.23366,-0.18513 1.634643,-0.586117 0.369834,-0.400983 0.585681,-0.955954 0.585681,-1.634642 0,-0.709399 -0.215847,-1.264809 -0.585681,-1.665353 -0.400983,-0.370273 -0.955955,-0.58612 -1.634643,-0.58612 -0.709398,0 -1.233659,0.215847 -1.634643,0.61683 -0.400983,0.400544 -0.616829,0.924806 -0.616829,1.634643 0,0.678688 0.215846,1.233659 0.616829,1.634642 0.400984,0.400987 0.925245,0.586117 1.634643,0.586117 z m 3.176717,-1.510923 v 0.616391 c 0,0.215847 0.03071,0.493552 0.03071,0.801962 h -0.154427 c -0.03071,-0.0307 -0.09257,-0.0307 -0.153988,-0.0307 -0.09257,0 -0.123278,0 -0.185137,0.0307 H 14.55648 c 0.03071,-0.431688 0.03071,-0.86382 0.06186,-1.295513 v -1.26437 -0.955954 c -0.03071,-0.277705 -0.03071,-0.524261 -0.06186,-0.771257 h 1.326227 c 0.431694,0 0.740108,0.06186 0.955955,0.246557 0.215846,0.153988 0.339125,0.400983 0.339125,0.740108 0,0.277705 -0.09213,0.524261 -0.308415,0.709398 -0.185137,0.215846 -0.493552,0.339125 -0.863825,0.400983 0.277705,0.370273 0.524261,0.740547 0.801966,1.110381 a 13.919469,13.919469 0 0 0 0.801967,1.079237 h -0.215847 c -0.09257,-0.0307 -0.154427,-0.0307 -0.216285,-0.0307 -0.06142,0 -0.123278,0 -0.215847,0.0307 h -0.215846 c -0.215847,-0.339129 -0.431693,-0.709402 -0.67825,-1.048527 -0.215846,-0.370273 -0.493551,-0.709398 -0.740546,-1.048961 h -0.153988 v 0.679565 z m 0,-0.894973 h 0.185137 c 0.400983,0 0.709398,-0.09257 0.894534,-0.246557 0.215847,-0.154426 0.308415,-0.370273 0.308415,-0.647978 0,-0.277705 -0.09257,-0.493113 -0.246556,-0.61683 -0.184698,-0.154426 -0.431693,-0.215407 -0.740108,-0.215407 h -0.369835 c 0,0.122839 -0.03071,0.215407 -0.03071,0.339124 v 1.387648 z m 2.745024,2.313326 c 0.03071,-0.30841 0.03071,-0.616825 0.06186,-0.98666 v -1.141529 -1.23366 c -0.03115,-0.338686 -0.03115,-0.64754 -0.06186,-0.924806 h 2.189614 c 0,0.03071 0,0.06186 -0.03071,0.09257 v 0.215407 c 0.03071,0.03071 0.03071,0.09257 0.03071,0.123279 -0.154427,-0.03071 -0.308415,-0.06186 -0.462842,-0.06186 -0.154427,-0.03071 -0.339124,-0.03071 -0.524261,-0.03071 h -0.55541 v 1.511803 h 1.017813 c 0.123278,-0.03071 0.277705,-0.03071 0.431693,-0.06186 -0.03071,0.06186 -0.03071,0.09257 -0.03071,0.123278 v 0.09257 c 0,0.03071 0,0.09257 0.03071,0.185137 v 0.03071 c -0.215847,0 -0.370273,-0.03071 -0.524262,-0.03071 -0.123278,-0.03071 -0.246556,-0.03071 -0.339124,-0.03071 h -0.58612 v 1.17224 c 0.03071,0.215408 0.03071,0.400544 0.03071,0.616391 h 1.018251 c 0.185137,-0.03071 0.339125,-0.06186 0.524262,-0.09257 -0.03071,0.03071 -0.03071,0.06186 -0.03071,0.09257 v 0.33956 h -1.604372 z m 3.361854,-1.943053 h 1.141091 l -0.554971,-1.572784 z m -1.17224,1.943053 h 0.153988 c 0.03071,-0.0307 0.06186,-0.0307 0.123278,-0.0307 0.03071,0 0.06186,0 0.123278,0.0307 h 0.123717 c 0.03071,-0.15442 0.09213,-0.33912 0.123279,-0.493547 0.06186,-0.154427 0.09257,-0.308415 0.153988,-0.462403 l 0.215846,-0.678688 h 1.449506 c 0.09257,0.246556 0.185137,0.524261 0.246557,0.801528 0.09257,0.246556 0.185136,0.55541 0.277705,0.83268 h 0.185136 c 0.06186,-0.0307 0.123278,-0.0307 0.184698,-0.0307 0.06186,0 0.123278,0 0.185137,0.0307 h 0.215846 c -0.308415,-0.709402 -0.585681,-1.44951 -0.863386,-2.158908 -0.308415,-0.740547 -0.55541,-1.480216 -0.832676,-2.220763 -0.03071,0 -0.06186,0.03071 -0.06186,0.03071 h -0.09257 -0.06186 c 0,0 -0.03071,-0.03071 -0.06186,-0.03071 -0.308415,0.832677 -0.616829,1.572785 -0.925244,2.312893 -0.276389,0.710275 -0.584804,1.419234 -0.862509,2.067208 z m 3.700978,0.0307 c 0.03071,-0.30841 0.06186,-0.740542 0.06186,-1.326223 0.03071,-0.585681 0.03071,-1.295079 0.03071,-2.128194 v -0.462842 -0.493113 h 0.215846 a 33.396109,33.396109 0 0 0 1.387648,1.665353 c 0.462841,0.55541 0.956393,1.110381 1.449506,1.665791 v -1.72765 -0.709398 c -0.03071,-0.246556 -0.03071,-0.523823 -0.06186,-0.801528 h 0.493552 c -0.03071,0.215847 -0.06186,0.61683 -0.09213,1.23366 0,0.58612 -0.03071,1.326228 -0.03071,2.189614 v 0.370273 c 0.03071,0.154427 0.03071,0.339127 0.03071,0.586117 H 27.109359 C 26.954933,23.06925 26.800945,22.8534 26.646518,22.637553 26.461381,22.452417 26.245535,22.17515 25.968268,21.866297 l -1.727211,-1.943058 v 2.528739 c 0.03071,0.246556 0.03071,0.493552 0.06186,0.740542 -0.03071,-0.0307 -0.09257,-0.0307 -0.123278,-0.0307 h -0.246557 c -0.03071,0 -0.09301,0 -0.123717,0.0307 z m 6.414854,-0.0307 0.370273,-2.220758 c 0.09257,-0.740546 0.154427,-1.449506 0.215847,-2.158904 h 0.215846 c 0.308415,0.678688 0.61683,1.264369 0.894535,1.850489 0.277266,0.55541 0.554971,1.079672 0.801967,1.573223 0.246556,-0.524261 0.524261,-1.048961 0.801966,-1.635081 a 33.687853,33.687853 0 0 0 0.832676,-1.788631 h 0.215847 c 0.06186,0.771257 0.154426,1.510926 0.215846,2.251473 0.09257,0.709398 0.185137,1.449506 0.277705,2.128189 -0.06142,0 -0.123278,-0.0307 -0.153988,-0.0307 h -0.339563 c -0.06186,0 -0.123279,0.0307 -0.184698,0.0307 l -0.09213,-1.572779 A 229.01449,229.01449 0 0 1 34.11121,19.953959 l -0.863386,1.78907 C 33.124546,22.020734 33.001268,22.298 32.9087,22.513846 32.785421,22.760403 32.723563,22.97669 32.662143,23.16182 h -0.153988 c -0.246556,-0.524257 -0.493551,-1.079228 -0.740108,-1.603489 -0.277705,-0.524262 -0.524261,-1.048962 -0.801966,-1.542513 l -0.154427,1.727649 c -0.03071,0.246557 -0.06186,0.493113 -0.06186,0.70896 -0.03071,0.246556 -0.03071,0.493553 -0.03071,0.709393 h -0.123279 c -0.06186,-0.0307 -0.09213,-0.0307 -0.123278,-0.0307 -0.03115,0 -0.09257,0 -0.123278,0.0307 z m 7.432667,-4.101957 c -0.493552,0 -0.894535,0.184698 -1.141091,0.524262 -0.277267,0.307976 -0.431694,0.801527 -0.431694,1.418357 0,0.647978 0.154427,1.110381 0.400984,1.480216 0.277266,0.339125 0.647539,0.493552 1.171801,0.493552 0.493551,0 0.863386,-0.154427 1.109942,-0.493552 0.277266,-0.338686 0.400983,-0.832238 0.400983,-1.449506 0,-0.647978 -0.123278,-1.110381 -0.400983,-1.449506 -0.246118,-0.339125 -0.616391,-0.523823 -1.109942,-0.523823 z m 0,4.194527 c -0.678689,0 -1.23366,-0.18513 -1.634643,-0.586117 -0.400983,-0.400983 -0.585681,-0.955954 -0.585681,-1.634642 0,-0.709399 0.185136,-1.23366 0.585681,-1.634643 0.400983,-0.400983 0.925245,-0.61683 1.634643,-0.61683 0.709398,0 1.202511,0.215847 1.603494,0.58612 0.400983,0.400544 0.58612,0.955954 0.58612,1.665353 0,0.678688 -0.185137,1.233659 -0.58612,1.634642 -0.400983,0.400987 -0.894096,0.586117 -1.603494,0.586117 z m 3.053438,-4.040539 c 0,0.154866 0,0.339564 0.03071,0.493552 v 0.709398 c 0,0.678688 0,1.233659 -0.03071,1.665791 0,0.462403 -0.03071,0.801528 -0.06186,1.079228 H 40.8336 c 0.03071,-0.0307 0.09257,-0.0307 0.185136,-0.0307 0.06186,0 0.123278,0 0.185137,0.0307 H 41.3583 a 9.8311077,9.8311077 0 0 1 -0.06186,-1.171796 c 0,-0.524262 -0.03071,-1.20295 -0.03071,-2.036065 0,-0.09257 0,-0.215846 0.03071,-0.307976 v -0.432132 h 0.339125 c 0.09257,0 0.215847,0 0.370273,0.03071 0.154427,0 0.339125,0.03071 0.524262,0.06186 v -0.123279 -0.09213 -0.09257 -0.123278 c -0.246557,0 -0.493552,0.03071 -0.740547,0.03071 H 40.24704 c -0.246556,0 -0.493551,-0.03071 -0.771256,-0.03071 v 0.09257 c 0.03071,0.03071 0.03071,0.06186 0.03071,0.123278 0,0.03071 0,0.06186 -0.03071,0.122839 v 0.09257 c 0.185136,-0.03071 0.370273,-0.06186 0.524261,-0.06186 0.154427,-0.03071 0.246556,-0.03071 0.339125,-0.03071 z m 3.731689,-0.153988 c -0.493552,0 -0.863825,0.184698 -1.14153,0.524262 -0.277705,0.307976 -0.400983,0.801527 -0.400983,1.418357 0,0.647978 0.123278,1.110381 0.400983,1.480216 0.277705,0.339125 0.647978,0.493552 1.14153,0.493552 0.524261,0 0.894534,-0.154427 1.172239,-0.493552 0.246557,-0.338686 0.400984,-0.832238 0.400984,-1.449506 0,-0.647978 -0.154427,-1.110381 -0.400984,-1.449506 -0.277705,-0.339125 -0.647978,-0.523823 -1.172239,-0.523823 z m 0.03071,4.194527 c -0.709399,0 -1.233221,-0.18513 -1.635082,-0.586117 -0.400106,-0.400983 -0.615952,-0.955954 -0.615952,-1.634642 0,-0.709399 0.215846,-1.23366 0.615952,-1.634643 0.371151,-0.400983 0.925245,-0.61683 1.603933,-0.61683 0.709398,0 1.264808,0.215847 1.665791,0.58612 0.370274,0.400544 0.55541,0.955954 0.55541,1.665353 0,0.678688 -0.185136,1.233659 -0.55541,1.634642 -0.400544,0.400987 -0.955954,0.586117 -1.634642,0.586117 z m 3.177155,-1.510923 v 0.616391 c 0,0.215847 0.03071,0.493552 0.03071,0.801962 h -0.155304 c -0.03071,-0.0307 -0.09257,-0.0307 -0.154427,-0.0307 -0.09257,0 -0.153549,0 -0.184259,0.0307 H 47.03217 c 0.03071,-0.431688 0.03071,-0.86382 0.06186,-1.295513 v -1.26437 -0.955954 c -0.03071,-0.277705 -0.03071,-0.524261 -0.06186,-0.771257 h 1.32535 c 0.400984,0 0.740547,0.06186 0.956394,0.246557 0.215846,0.153988 0.339124,0.400983 0.339124,0.740108 0,0.277705 -0.09257,0.524261 -0.308415,0.709398 -0.185136,0.215846 -0.493551,0.339125 -0.863824,0.400983 0.246556,0.370273 0.524261,0.740547 0.801966,1.110381 a 13.919469,13.919469 0 0 0 0.801966,1.079237 h -0.246556 c -0.06186,-0.0307 -0.123278,-0.0307 -0.185137,-0.0307 -0.06186,0 -0.154426,0 -0.215846,0.0307 H 49.221345 C 49.005499,22.822261 48.789652,22.451988 48.542657,22.112863 A 13.268859,13.268859 0 0 0 47.772278,21.063902 H 47.649 v 0.679565 z m 0,-0.894973 h 0.184259 c 0.400984,0 0.709399,-0.09257 0.894535,-0.246557 0.215847,-0.154426 0.308415,-0.370273 0.308415,-0.647978 0,-0.277705 -0.09257,-0.493113 -0.246556,-0.61683 -0.185137,-0.154426 -0.431693,-0.215407 -0.771257,-0.215407 h -0.338686 c 0,0.122839 -0.03071,0.215407 -0.03071,0.339124 z m 7.401518,-1.079233 h -0.06186 A 1.1674139,1.1674139 0 0 0 54.495985,19.245 c -0.185136,-0.12284 -0.431693,-0.153988 -0.709398,-0.153988 -0.462841,0 -0.832676,0.153988 -1.110381,0.493551 -0.277705,0.338686 -0.400106,0.801528 -0.400106,1.418358 0,0.58612 0.15355,1.048961 0.430816,1.418357 0.277705,0.339125 0.647978,0.524262 1.110381,0.524262 0.246556,0 0.462842,-0.06186 0.678688,-0.154427 0.215847,-0.123279 0.431693,-0.277705 0.61683,-0.493552 l 0.06186,0.03071 c -0.03071,0.09257 -0.03071,0.185137 -0.03071,0.246556 -0.03071,0.09257 -0.03071,0.185137 -0.03071,0.277705 a 2.3624666,2.3624666 0 0 1 -0.709398,0.308418 2.6230618,2.6230618 0 0 1 -0.709398,0.0926 c -0.647979,0 -1.17224,-0.18514 -1.541636,-0.586124 -0.371151,-0.400983 -0.55541,-0.955955 -0.55541,-1.634643 0,-0.709398 0.184259,-1.233659 0.58612,-1.634643 0.400106,-0.400983 0.924367,-0.586119 1.603055,-0.586119 0.246557,0 0.462842,0.03071 0.709398,0.06186 a 3.6448232,3.6448232 0 0 1 0.740547,0.277705 c -0.06186,0.06142 -0.09257,0.153988 -0.123278,0.277705 0,0.09345 -0.03071,0.216724 -0.06186,0.340002 z m 2.281744,-0.709398 c -0.492674,0 -0.863825,0.184698 -1.140653,0.524262 -0.277705,0.307976 -0.400983,0.801527 -0.400983,1.418357 0,0.647978 0.123278,1.110381 0.370274,1.480216 0.276827,0.339125 0.678688,0.493552 1.171362,0.493552 0.493551,0 0.894535,-0.154427 1.14153,-0.493552 0.277705,-0.338686 0.400983,-0.832238 0.400983,-1.449506 0,-0.647978 -0.123278,-1.110381 -0.400983,-1.449506 -0.246557,-0.339125 -0.647979,-0.523823 -1.14153,-0.523823 z m 0,4.194527 c 0.709398,0 1.233659,-0.18513 1.635081,-0.586117 0.401422,-0.400983 0.58612,-0.955954 0.58612,-1.634642 0,-0.709399 -0.185137,-1.264809 -0.58612,-1.665353 -0.400983,-0.370273 -0.925244,-0.58612 -1.635081,-0.58612 -0.677811,0 -1.233221,0.215847 -1.634204,0.61683 -0.400983,0.400544 -0.58612,0.924806 -0.58612,1.634643 0,0.678688 0.185137,1.233659 0.58612,1.634642 0.400983,0.400987 0.956832,0.586117 1.634204,0.586117 z m 2.159343,-0.0926 c 0.123278,-0.740542 0.246556,-1.480211 0.339124,-2.220758 0.123279,-0.740546 0.185137,-1.449506 0.246557,-2.158904 h 0.215846 c 0.308415,0.678688 0.61683,1.264369 0.894535,1.850489 0.276828,0.55541 0.523384,1.079672 0.801966,1.573223 0.246118,-0.524261 0.523384,-1.048961 0.801089,-1.635081 a 33.006094,33.006094 0 0 0 0.832677,-1.788631 h 0.215846 c 0.06186,0.771257 0.154427,1.510926 0.215847,2.251473 0.09257,0.709398 0.185136,1.449506 0.277705,2.128189 -0.06186,0 -0.123279,-0.0307 -0.185137,-0.0307 h -0.308854 c -0.06186,0 -0.123278,0.0307 -0.185136,0.0307 l -0.09257,-1.572779 C 63.50012,21.064779 63.4387,20.509369 63.376842,19.953959 l -0.86207,1.789508 c -0.123278,0.277705 -0.246557,0.554972 -0.370274,0.770818 -0.09257,0.246557 -0.153549,0.462845 -0.246117,0.647975 h -0.124156 c -0.246556,-0.524258 -0.492674,-1.079229 -0.739669,-1.603491 -0.277705,-0.524261 -0.524262,-1.048961 -0.801967,-1.542513 l -0.154426,1.72765 c -0.03071,0.246556 -0.06186,0.493113 -0.06186,0.708959 -0.03071,0.246557 -0.03071,0.493555 -0.03071,0.709395 h -0.123278 c -0.06186,-0.0307 -0.09257,-0.0307 -0.123278,-0.0307 -0.03071,0 -0.09257,0 -0.123278,0.0307 z m 5.613326,-2.189609 h 0.185136 c 0.400983,0 0.708521,-0.06186 0.893658,-0.246557 0.215846,-0.154426 0.309292,-0.400983 0.309292,-0.740546 0,-0.277705 -0.06186,-0.493113 -0.247434,-0.647979 -0.154427,-0.154426 -0.400106,-0.215407 -0.708521,-0.215407 h -0.154426 c -0.09257,0 -0.154427,0 -0.246557,0.03071 0,0.153989 -0.03071,0.308415 -0.03071,0.462842 v 1.356938 z m -0.61683,2.189609 c 0,-0.431688 0.03071,-0.86382 0.03071,-1.295513 0.03071,-0.431255 0.03071,-0.832238 0.03071,-1.26437 0,-0.339124 0,-0.678688 -0.03071,-0.955954 0,-0.277705 -0.03071,-0.55541 -0.03071,-0.771257 h 1.326228 c 0.430815,0 0.770379,0.09257 0.986225,0.277705 0.246557,0.184698 0.339125,0.462842 0.339125,0.832238 0,0.370273 -0.123278,0.678688 -0.431693,0.894535 -0.276828,0.246556 -0.678688,0.339124 -1.171362,0.339124 h -0.431693 v 1.233221 c 0,0.215847 0.03071,0.462841 0.03071,0.709401 h -0.154426 c -0.06186,-0.0307 -0.123279,-0.0307 -0.185137,-0.0307 -0.06186,0 -0.123278,0 -0.185137,0.0307 -0.03027,8.7e-4 -0.09213,8.7e-4 -0.122839,8.7e-4 z m 3.114858,-1.943053 h 1.141091 l -0.555409,-1.572784 z m -1.171362,1.943053 c 0.276828,-0.647974 0.585243,-1.356933 0.862948,-2.066331 0.308414,-0.740547 0.616829,-1.480216 0.925244,-2.312892 0.03071,0 0.06186,0.03071 0.06186,0.03071 h 0.154426 c 0,0 0.03071,-0.03071 0.06186,-0.03071 0.277705,0.740547 0.524261,1.480216 0.832676,2.220762 0.277705,0.709398 0.55541,1.449506 0.863825,2.158901 h -0.215847 c -0.06186,-0.0307 -0.123278,-0.0307 -0.185136,-0.0307 -0.06186,0 -0.123278,0 -0.185137,0.0307 h -0.185137 c -0.09257,-0.277702 -0.185136,-0.586116 -0.277705,-0.832673 a 6.1801425,6.1801425 0 0 0 -0.246556,-0.801528 h -1.449506 l -0.215847,0.678689 c -0.06186,0.153988 -0.09257,0.307976 -0.154426,0.462403 -0.03071,0.154426 -0.09257,0.339129 -0.123279,0.493549 h -0.123278 c -0.06186,-0.0307 -0.09257,-0.0307 -0.123278,-0.0307 -0.06186,0 -0.09257,0 -0.123278,0.0307 -0.06274,-8.8e-4 -0.09301,-8.8e-4 -0.154427,-8.8e-4 z M 57.394997,0 c -1.356499,0 -2.590158,0.524261 -3.484693,1.388086 -0.894535,0.863386 -1.449945,2.035626 -1.449945,3.361415 v 5.952012 c 0,1.264808 0.55541,2.467758 1.449945,3.331144 0.894535,0.832676 2.128633,1.387648 3.484693,1.387648 h 18.720739 c 0.308415,0 0.616829,-0.307977 0.616829,-0.61683 V 8.758894 c 0,-0.277266 -0.308414,-0.585681 -0.616829,-0.585681 H 61.46581 c -0.153549,0 -0.307537,-0.06186 -0.400106,-0.153988 -0.09257,-0.09257 -0.154426,-0.215846 -0.154426,-0.339563 0,-0.153988 0.06186,-0.277267 0.154426,-0.369835 C 61.158274,7.217257 61.312261,7.1554 61.46581,7.1554 h 14.649926 c 0.308415,0 0.616829,-0.277705 0.616829,-0.585681 V 0.58612 C 76.732565,0.277705 76.424151,0 76.115736,0 Z M 16.252981,7.679223 c 0,-0.153988 -0.06142,-0.277266 -0.153988,-0.369835 C 15.975276,7.216818 15.852436,7.154962 15.697571,7.154962 H 0.8019664 c -0.277705,0 -0.5861199,-0.277705 -0.5861199,-0.585682 V 0.58612 C 0.2158465,0.277705 0.5242614,0 0.8019664,0 H 19.738551 c 1.325789,0 2.559888,0.524261 3.454422,1.388086 0.925245,0.863386 1.480655,2.035626 1.480655,3.330705 v 5.982722 c 0,1.264808 -0.58612,2.467758 -1.480655,3.331144 -0.894534,0.832676 -2.128194,1.387648 -3.454422,1.387648 H 0.8019664 c -0.277705,0 -0.5861199,-0.307977 -0.5861199,-0.61683 V 8.758894 c 0,-0.277266 0.3084149,-0.585681 0.5861199,-0.585681 H 15.69801 c 0.154426,0 0.277704,-0.06186 0.401421,-0.153988 0.09213,-0.09301 0.15355,-0.216285 0.15355,-0.340002 z m 26.33898,0.03115 v 7.093103 c 0,0.308853 -0.308415,0.61683 -0.58612,0.61683 h -7.1554 c -0.277705,0 -0.585681,-0.307977 -0.585681,-0.61683 V 7.710373 c 0,-0.123279 -0.06186,-0.246557 -0.154427,-0.339125 -0.09257,-0.09257 -0.246556,-0.154427 -0.400983,-0.154427 -0.154427,0 -0.308415,0.06186 -0.400983,0.154427 -0.09257,0.09257 -0.154427,0.215846 -0.154427,0.339125 v 7.093103 c 0,0.308853 -0.277705,0.61683 -0.58612,0.61683 h -6.75354 c -0.308853,0 -0.585681,-0.307977 -0.585681,-0.61683 V 4.749501 c 0,-1.325789 0.554971,-2.498029 1.449506,-3.361415 C 27.57264,0.524261 28.775151,0 30.132088,0 h 16.870688 c 1.325351,0 2.559449,0.524261 3.453984,1.388086 0.894534,0.863386 1.449067,2.035626 1.449067,3.330705 v 10.084684 c 0,0.308853 -0.276828,0.61683 -0.585243,0.61683 h -7.032122 c -0.308415,0 -0.58612,-0.307977 -0.58612,-0.61683 V 7.710372 c 0,-0.123279 -0.06186,-0.246557 -0.154426,-0.339125 -0.09257,-0.09257 -0.246557,-0.154427 -0.400106,-0.154427 -0.155304,0 -0.309292,0.06186 -0.401861,0.154427 -0.09213,0.09257 -0.153988,0.215846 -0.153988,0.339126 z"
     id="path4"
     style="clip-rule:evenodd;fill-rule:evenodd;stroke-width:0.438712" />
</svg>
