<svg xmlns="http://www.w3.org/2000/svg" width="1785" height="2340" viewBox="0 0 1785 2340">
  <defs>
    <style>
      .cls-1, .cls-2, .cls-3, .cls-4 {
        fill-rule: evenodd;
      }

      .cls-2 {
        fill: #fff;
      }

      .cls-3 {
        fill: #da141e;
      }

      .cls-4 {
        fill: #040809;
      }
    </style>
  </defs>
  <path id="Text" class="cls-1" d="M34.833,1900.41q-10.5,0-17.208,6.12-6.713,6.135-6.708,16.05,0,14,17.5,20.41,9.912,4.68,12.833,10.5,2.912,5.835,2.917,19.84v59.5l0.583,76.41v72.92q0,7.59-.583,41.12-0.588,33.555-2.042,41.71-1.463,8.175-13.708,12.84-17.5,7.575-17.5,21.58,0,9.93,7,15.75a25.538,25.538,0,0,0,16.917,5.83h64.75q29.75,0,96.25-1.75t76.417-1.75q48.412-4.065,85.75-21.58,54.25-26.82,81.958-74.67,27.7-47.82,27.709-113.75,0-42-11.375-74.37t-36.459-61.54q-27.425-32.67-62.416-48.42a354.123,354.123,0,0,0-42-14.58q-22.75-6.42-39.667-6.42H213.333L99,1900.41H34.833Zm261.917,91.87q38.5,44.625,38.5,116.38,0,72.93-35.875,116.96Q263.5,2269.675,204,2269.66q-22.176,0-28.292-11.11t-6.125-51.47l0.584-25.16V2101.8c0-7.4.091-14.92,0.291-22.52s0.292-15.11.292-22.52v-23.88l2.333-60.88q0-24.33,22.167-24.34Q258.25,1947.66,296.75,1992.28ZM546.417,2213.5q-16.338-22.575-37.334-22.59-16.338,0-25.666,10.45-9.339,10.47-9.334,27.89,0,38.91,56,69.12t127.75,30.21q86.325,0,141.459-43.4t55.125-111.54q0-43.665-21.584-68.14-11.088-12.225-29.75-23.3a156.348,156.348,0,0,0-37.333-16.32L678.25,2042a259.134,259.134,0,0,1-27.125-8.14,113.876,113.876,0,0,1-16.917-8.16,51.566,51.566,0,0,1-14.291-12.82q-6.426-9.9-6.417-25.04,0-22.125,18.667-35.53t49-13.4q27.411,0,45.5,11.08a97.17,97.17,0,0,1,20.708,15.46q10.787,10.215,14.292,17.79l12.25,26.25q7,14.01,24.5,14,28,0,28-32.66a206.523,206.523,0,0,0-2.042-25.09A232.759,232.759,0,0,0,820,1940.66q-1.751-11.07-14.583-17.5-26.838-13.41-63.875-21.58a329.015,329.015,0,0,0-70.875-8.17q-80.5,0-131.834,39.61T487.5,2034.36q0,45.435,35.583,79.22t94.5,45.43l63,12.81q49.575,9.9,49.584,46.01,0,11.085-8.167,23.3a81.291,81.291,0,0,1-21.583,21.55q-20.427,13.98-58.334,13.98a106.774,106.774,0,0,1-44.041-8.98q-20.125-8.985-30.625-24.63Zm338.916-18.62q19.251,43.395,50.167,71.95,65.912,61.755,169.17,61.75t168.58-61.75a229.71,229.71,0,0,0,50.75-72.82q18.66-41.94,18.67-83.31,0-40.2-19.25-83.3t-50.17-72.82q-64.17-61.74-168.58-61.75-103.26,0-169.17,61.75-31.5,29.13-50.458,72.24t-18.959,83.88Q866.083,2151.485,885.333,2194.88Zm290.787-203.26q29.46,49.2,29.46,118.5,0,70.455-29.75,119.38t-71.16,48.91q-42,0-71.46-49.2t-29.46-119.09q0-69.285,29.46-118.5,29.445-49.2,71.46-49.21Q1146.67,1942.41,1176.12,1991.62Zm529.96,23.71a38.271,38.271,0,0,0,14.59,16.91,38.819,38.819,0,0,0,21.58,6.42q23.91,0,23.92-22.17l-1.75-26.83-1.75-27.42q0-13.995-14.59-27.41-19.245-17.5-63.29-30.34t-82.54-12.83q-100.335,0-171.79,65.04T1359,2113.33q0,91.575,67.67,154,67.65,62.415,167.41,62.41a270.157,270.157,0,0,0,49.88-4.66,260.985,260.985,0,0,0,44.62-12.25,276.527,276.527,0,0,0,33.54-18.09q17.79-11.07,27.13-20.41,25.665-24.51,25.67-46.09a28.534,28.534,0,0,0-7.88-20.12,25.659,25.659,0,0,0-19.54-8.46q-6.42,0-13.71,4.96t-21.29,19.54q-40.845,43.755-103.25,43.75-54.84,0-86.92-43.46-32.085-43.44-32.08-116.96,0-74.07,32.08-119.58,32.085-45.5,84.59-45.5,30.9,0,55.41,14.58,24.51,14.6,35,39.09Z"/>
  <path id="Whites" class="cls-2" d="M1113,723c29.88-.884,47.93-1.44,47,30-3.6,6.144-2.58,16.478-5,23-5.64,15.219-12.35,29.447-17,46-3.81,13.572-4.98,30.43-20,32-10.68,6.992-34.99.111-44-2-2.65-3.829-7.49-7.221-9-12-4.08-12.918,3.18-26.091,6-33,2.72-6.646,1.72-13.542,4-21,3.67-11.988,10.65-22.832,16-33,2.98-5.664,3.37-13.422,7-19C1101.39,728.8,1109.11,727.657,1113,723Zm-93,8c21.23-.48,21.12.509,31,11,0.92,32.524-9.21,53.451-18,77-3.91,10.47-6.47,25.413-17,29-3.19,2.564-8.3,2.957-14,3-19.884.15-30.611-14.766-25-38,4.9-20.3,12.739-39.373,20-57,1.662-4.035.853-8.246,3-12C1004.02,736.973,1014.17,736.254,1020,731Zm-206,2c16.786-.611,34.65,1.743,36,16,5.982,9.564-2.549,36.439,0,48,3.107,14.092,4.314,35.721,1,51q-0.5,48-1,96c0,33.882,3.072,55.009-14,73-10.155.4-22.425,0.98-34,1-3.649-5.31-9.468-6.47-10-15-3.953-6.268-3-45.1-3-57V840c0-16.729-3.306-34.73,0-50,4.266-19.7-2.357-46.834,15-53C806.6,735.046,811.312,734.951,814,733Zm387,15c16.98-.584,33.55,1.619,36,15,5.02,7.562-1.3,31.827-3,37-7.68,23.325-18.47,78.642-59,57-8.85-4.727-13.75-20.452-9-35,3.18-9.727,8.66-19.952,12-30,3.42-10.29,4.25-19.974,9-29C1190.32,756.7,1196.98,753.455,1201,748ZM605,765c12.068-.117,25.519-0.841,33,4,8.08,5.228,11.448,15.041,17,23,7,10.039,15.89,18.558,23,29,3.933,5.777,20.553,24.379,12,38-4.9,17.887-28.745,16.4-52,16-3.272-4.6-9.708-6.454-13-11-5.082-7.019-6.395-16.45-11-24-6.429-10.54-29.295-39.024-22-61C594.188,772.407,600.185,769.091,605,765Zm-79,4,23,1c3.815,5.879,10.244,9.943,14,16,13.612,21.954,20.64,48.2,21,83-4.432,3.035-7.523,9.395-13,11-8.476,2.484-20.053-1.1-25-3-19.979-7.66-33.112-26.059-45-42-9.885-13.256-21.331-12.5-21-37,8.606-10.892,9.46-17.879,24-24C510.134,771.418,520.211,772.646,526,769Zm406,2c22.013-.777,24.788,6.064,24,28-2.145,3.7-.746,9.2-2,14-2.959,11.319-7.383,24.3-16,30-12.891,8.529-49.782,4.751-55-7V822c2.748-3.438,3.4-8.4,6-12,2.965-4.111,16.867-17.886,21-21C917.308,783.494,926.9,778.638,932,771Zm338,18c31.17-.632,38.17,16.232,55,29,3.99,3.024,16.21,10.948,18,15v19c-0.75,1.073-.6.946-1,3-4.89,3.379-4.92,6.038-14,6-4.41,2.894-17.52,1-24,1-21.07,0-52.32,1.07-57-15-4.22-14.489,5.15-41.3,10-48C1260.2,794.581,1266.54,793.116,1270,789Zm-561,9c28.593-.637,39.115,13.37,49,31,2.415,4.308,9.309,17.792,4,26-1.394,4.417-6,9.114-11,10-3.494,2.28-13.648,1.131-19,1-9.317-13.746-22.234-19.6-28-38-1.354-4.321-2.6-18.861,0-23C705.167,801.534,707.19,800.7,709,798ZM431,832c26.5-.594,37.1,6.555,48,21l10,9v16h-1c-4.976,14.823-23.1,6.686-40,10-15.518,3.042-45.017,3.2-50-8V866c1.86-2.3,2.226-5.537,4-8C409.4,847.73,422.344,841.2,431,832Zm471,56c29.471-.873,41.914-1.943,41,29-0.693,1.008-1.287,4-2,5-2.859,8.821-14.286,7.433-26,7-11-8.838-21.421-10.046-21-31A74.471,74.471,0,0,0,902,888Zm183,4c20.62-.387,37.15-0.167,43,14q1.005,7.5,2,15c4.54,17.8,15.57,62.873-5,72h-16c-23.83-19.609-36.82-45.34-37-89C1076.13,901.348,1082.21,896.018,1085,892Zm85,3c12.29-.1,26.59-1.295,35,3,19.49,9.956,32.24,42.041,32,73q-4.995,5.5-10,11c-9.61,6.055-35.32,5.043-51,5-3.09-4.652-9.18-7.474-12-12l-3-19c-4.55-14.375-9.21-33.152-5-52,2.44-1.567,3.78-4.553,6-6C1164.46,896.4,1167.86,896.708,1170,895Zm96,0,73,3c5.83,7.9,11.24,6.668,11,22-0.75,1.073-.6.946-1,3-2.81,1.854-4.4,5.258-7,7-3.9,2.608-9.02,2.585-13,5-9.37,5.689-19.62,14.86-31,18-8.51,2.346-21.15-.7-27-2-5.79-8.539-23.45-24.526-17-44C1255.98,901.038,1262.47,899.343,1266,895Zm-272,3c40.25-.464,36.74,14.8,47,43,2.14,5.895,9.74,23.892,4,33-1.65,4.849-5.83,6.711-9,10-26.12,2.417-52.475-3.915-59-24-5.543-17.062-3.722-54.321,10-59C988.856,899.712,992.26,899.374,994,898Zm-279,6c32.441-.921,48.972-3.293,48,31-5.049,5.525-6.979,13.417-11,20-7.391,12.1-14.717,20.727-26,29-5.164,3.786-5.862,8.7-15,9-4.468,3.058-13.169-.006-17-1-2.394-3.521-6.767-5.646-9-9-10.1-15.173-18.545-67.381,3-75C693.877,903.708,709.2,908.394,715,904ZM607,915c5.753,0,13.8-1.039,18,1,10.581,5.139,12.594,14.424,18,25,11.52,22.536,17.043,44.481,17,80-4.75,3.23-7.542,8.7-12,12a112.236,112.236,0,0,1-38,18c-14.428,3.53-33.377-.89-37-9v-27q3-15.5,6-31c4.869-15.023,7.68-35.1,14-50C596.3,926.227,602.623,921.427,607,915Zm-201,7,51,1c8.931,13.075,11.31,6.542,11,31-3.882,5.143-4.6,12.434-8,18-4.633,7.594-11.068,12.79-17,19-23.6.355-29.463-10.835-39-24-3.1-4.275-10.049-9.132-12-14V932l10-9C404.328,922.805,404.826,922.807,406,922Zm120,1c4.485-.156,12.221-0.849,15,1,4.883,1.537,8.528,5.966,9,12,2.854,4.065,3.725,20.816,2,28-4.645,19.34-7.033,69.38-22,76H500c-13.491-10.07-23.547-7.84-23-33,3.481-5.44,3.051-13.317,6-19,3.479-6.7,9.116-13.626,13-20l10-24C511.377,935.1,519.877,930.641,526,923Zm487,90c58.62-.87,106.44,8.61,142,31,9.07,5.71,14.81,14.81,23,21,14.73,11.15,30.27,26.11,38,44,8.72,20.18,7.43,43.47,13,68,5.45,24,9.85,54.53,4,81v36c-0.12,15.91-1.97,33.67-5,47v24c-0.92,3.9-3.26,9.84-2,16,1.09,5.34,2.53,17.11,1,24-2.38,10.69.89,26.27-2,39-3.64,16.06-3.74,36.95-9,53-7.06,21.54-18.02,41.35-30,58-6.44,8.95-14.35,20.62-25,25-18.03,7.42-67.52-2.9-79-10-5.98-3.7-10.51-9.93-16-14-26.91-19.94-52.23-42.13-66-75-8.942-21.35-9.57-51.07-15-75-2.514-11.08,0-25.02-2-34v-21c0-15.65-.3-31.07-3-43v-22c1.112-5.12,2.89-12.22,4-17v-47c5.06-23.04,3.453-58.39-21-60-5.921,4.78-12.862,5.38-17,12-12.049,19.26-9.321,43.89-15,70v25c-1.62,7.46.97,19.32-1,28-3.5,15.44-4.624,41.42-1,58v44c0,42.33-3.741,90.08-21,115-13.706,19.79-33.947,28.31-61,35-6.652,1.65-23.414,2.71-30,0-8.474-3.49-21.89-15.24-25-24-3.349-9.43,1.743-22.85,0-32-2.533-13.29-3-30.82-3-48v-24c-2.68-12.75-2.494-32.47,0-45q-0.5-5.505-1-11a217.486,217.486,0,0,1,2-32q0.5-40.5,1-81c15.036-66.7,44.434-158.79,90-193,23.793-17.87,56.589-30.1,88-40C981.36,1015.1,1004.23,1020.71,1013,1013Zm-239,35c33.361-.83,50.865-2.87,50,32-3.624,5.51-4.215,18.53-7,25-7.5,17.41-23.446,35.34-38,46-18.388,13.47-44.917,15.57-68,25-57.351,23.44-119.427,41.03-183,58-42.664,11.39-128.342,32.18-146-15-15.585-41.64,25.93-61.98,48-74,29.273-15.94,65.831-27.41,101-38q13.5-1.995,27-4c42.161-14,88.07-28.69,132-42,17.269-5.23,37.027-7.02,54-11C753.516,1047.77,767.521,1052.98,774,1048ZM666,1258c27.622-.35,57.062-1.51,73,10,32.571,23.51,3.921,70.65-16,85-12.964,9.34-30.692,9.42-48,15-8.633,2.78-18.785,6.8-28,9-8.228,1.97-18.384.35-26,2H578c-28.586,6.6-69.233,10.74-102,11-35.076.28-87.528,3.66-99-19-2.277-4.5-1.99-10.63-2-17-0.037-23.03,6.789-32.8,18-44,13.228-13.21,22.119-15.12,44-20q13.5-1.005,27-2c30.344-7.48,67.324-11.27,98-19,11.421-2.88,26.574-.71,37-3h16c7.725-1.92,17.028-5.13,25-7C649.494,1256.77,660.183,1262.37,666,1258Zm652,52c23.76-.57,69.52-3.14,73,15,8.18,12.89-3.54,45.54-1,58,1.68,8.25.49,19.87-1,27q0.495,7.5,1,15c-0.14,12.82-.39,31.42-2,44-0.95,7.45,3.11,19.91,1,29-7.5,32.3-.14,73.1-8,107v19c0,20.29.85,53.69-16,57-4.55,2.99-11.5.66-18,2-14.68,3.02-35.61.64-48-2-3.46-.74-5.58.77-8,1-8.79.82-17.65-.56-24-2-11-2.49-23.15,2.09-31-3-6.24-4.05-6.21-11.3-6-22,2.62-4.14,2.47-9.93,5-14,4.59-7.37,11.32-14.33,16-22q8.505-18,17-36,1.5-9.495,3-19c3.6-9.48,9.66-20.03,13-31,6.05-19.88,7.28-42.39,12-62q0.495-16.995,1-34c5.48-23.98.76-58.59,6-81,2.26-9.65-2.14-21.68,1-30C1306.64,1319.01,1313.26,1314.97,1318,1310Zm-676,97c58.408-.9,83.933-2.8,83,58-8.768,5.66-12.932,17.31-22,23-15.181,9.53-34.307,11.7-52,19-6.7,2.76-12.661,8.58-19,11q-12.5,1.995-25,4c-15.672,5.08-33.44,11.3-49,16q-14,1.995-28,4c-9.954,3.38-19.263,8.31-31,11q-8,.495-16,1c-42.819,10.94-82.13,6.68-95-29-8.041-22.29,2.972-41.26,14-51,12.949-11.44,31.4-13.87,50-20,18.415-6.07,37.475-14.44,56-20l30-3c10.352-3.35,20.992-9.13,32-12q13.5-1.005,27-2c8.237-2.15,17.859-5.83,26-8C628.444,1407.55,637.607,1409.78,642,1407Zm51,135c41.392-.39,67.489-1.66,76,32,1.511,5.98,1.729,16.58,0,23a62.742,62.742,0,0,1-9,19c-9.5,13.06-38.35,26.97-55,33l-18,3c-10.117,3.76-20.032,10.84-30,15-8.67,3.62-19.092,2.03-29,5-7.345,2.2-15.884,6.82-23,9-8.012,2.45-15.977,1.08-23,4-8.91,3.7-18.262,8.49-29,11H534c-36.335,0-70.564-14.6-80-40q-0.5-7.5-1-15c0.008-31.03,26.362-37.44,49-46,7.662-2.9,14.726-7.77,23-10l24-3c26.6-8.08,55.5-18.42,82-27,15.313-4.96,32.349-5.93,47-10C683.3,1543.53,689.075,1544.68,693,1542Zm243,22h19c21.734,31.85,56.61,50.71,90,71,19.21,11.67,41.36,7.02,41,39-12.69,9.76-20.08,26.37-33,36-16.81,12.53-35.96,26.54-56,35-41.172,17.39-138.978,4.38-175-9-17.639-6.55-33.726-12.03-49-20-5.226-2.73-13.634-4.74-16-10v-13c6.821-8.04,11.591-17.65,20-24,3.362-2.54,8.5-4.72,11-8,10.583-13.85,16.477-33.29,31-43,10.429-6.97,30.183-.85,44-5C884.383,1606.58,925.113,1580.32,936,1564Z"/>
  <path id="Reds" class="cls-3" d="M933,68c53.9-.756,97.74,30.629,97,84-3,2-5.1,6.4-8,8l-16,3c-11.155,3.563-21.778,6.669-35,10-7.2,1.814-21.589,3.943-30,1-7.731-2.705-13.478-9.947-20-14-12.425-7.722-26.98-13.167-43-17-17.359-4.153-34.513,1.93-48,6-4.629,1.4-14.709,7.509-22,3-7.573-2.382-8.443-8.484-8-19,1.89-2.278,2.229-5.538,4-8,5.518-7.671,15.321-12.367,23-18,14.97-10.981,26.841-22.387,47-29,13.013-4.269,27.747-4.772,42-8C921.722,68.7,928.749,70.7,933,68ZM650,185c21.74-.584,59.045.532,65,14v18c-2.84,1.9-4.4,5.126-7,7-3.358,2.417-7.436,2.668-11,5-5.123,3.352-9.143,9.365-14,13-4.126,3.088-9.4,5.367-13,9-6.9,6.959-12.117,17.2-18,25-4.782,6.339-12.316,11.465-17,18-9.208,12.846-12.964,29.806-22,43-4.38,6.395-11.7,11.384-17,17-15.519,1.071-47.113,8.322-49-10-5.865-9.245,3.225-38.984,5-46,1.679-6.639-.191-12.152,2-18,10.635-28.392,41.817-66.806,65-83C627.336,191.177,641.688,191.292,650,185Zm182,8c18.515-.545,29.988,7.757,34,21,6.161,20.336-6.4,53.878-18,59H833c-13.993-10.847-29.225-20.32-23-48,1.717-7.635.447-12.7,4-18C818.345,200.52,826.216,198.113,832,193Zm212,7c65.79-.841,118.33,39.582,134,89,1.82,5.754,1.29,10.2,3,16,7.58,25.68,13.16,61.476,0,86-1.93,3.6-4.44,9.413-8,11h-14c-6.19-6.014-14.28-9.478-19-17-7.68-12.249-9.41-28.557-17-41-16.8-27.54-36.08-53.451-55-79-6.82-9.2-15.87-18.867-24-27l-12-11V210h1C1035.04,204.115,1040,203.719,1044,200ZM908,214h15c16.282,5.486,23.935,36.093,15,57-3.233,7.563-11.356,11.7-17,17-22.2.8-28.814-2.386-28-25,2.521-3.895,4.894-12.9,6-17V227C900.592,221.365,905.12,218.281,908,214ZM754,248h18c18,26.813,39.593,55.622,67,73a164.726,164.726,0,0,0,25,13c6.188,2.527,14.395,2.217,17,8v17c-12.722,8.57-38.5,9.984-55,3-28.818-12.2-59.324-46.174-75-72-2.062-3.4-7.525-27.263-4-35C748.057,252.679,752.383,250.4,754,248Zm236,35c4.9-.158,13.88-1.061,17,1,14.24,4.834,18.76,37.623,13,58-6.85,24.23-28.517,45.249-61,41-4.984-7.261-6.241-6.5-6-20,2.474-3.671,2.115-8.561,4-13,4.185-9.853,11.8-19.089,16-29s4.224-22.387,10-31C984.733,287.415,988.122,285.76,990,283ZM723,329h18c9.584,13.951,27.4,23.874,41,34,6.265,4.666,9.889,13.335,16,18,15.227,11.626,36.933,28.688,56,35l23,4,23,9c18.662,4.781,29.343-1.828,29,23a11.725,11.725,0,0,0-2,5c-3.72,2.444-6.238,6.744-10,9-35.774,21.451-112.966,35.294-153,9-24.218-15.907-29.746-38.885-39-70C717.856,380.981,708.2,351.346,723,329Zm339,32h19c2.67,4,7.29,6.273,10,10,5.92,8.149,10.67,19.8,14,30q3.495,14.5,7,29c12.98,57.645-7.68,98.05-29,133-4.61,7.556-5.94,16.954-11,24-8.36,11.649-21.16,20.656-31,31-15.07.717-35.94,3.56-51,0-27.193-6.427-56.689-18.374-81-29-16.684-7.292-36.506-13.233-36-38,3.487-3.541,5.558-8.414,10-11l14-3c9.96-3.628,20.615-8.472,31-13,26.217-11.43,47.738-26.928,69-43,14.39-10.879,35.41-43.8,43-62q6.495-23,13-46C1055.04,368.187,1059.29,365.082,1062,361Zm-419,7c5.109-.159,14.714-1.167,18,1,10.366,3.944,9.978,14.695,15,24,2.008,3.721,5.511,7.575,7,12q2,9.5,4,19,11,24,22,48c30.66,58.962,64.767,99.659,120,134,21.058,13.093,43.561,23.015,63,37,4.979,3.582,14.491,8.439,17,14v14l-10,9c-9.876,4.4-28.837,2-42,2-39.153,0-72.319-3.662-101-13-59.662-19.425-88.218-31.186-120-79-5.353-8.054-13.125-15.605-17-25-6.617-16.042-7.733-30.918-12-49-5.768-24.444-5.357-66.815,2-89,4.8-14.484,11.666-32.066,20-44C632.878,377.447,639.193,373.658,643,368ZM538,453h18l7,8c3.067,6.9-1.009,17.7,1,26,3.427,14.153,3.048,31.311,7,47,6.478,25.714,15.691,47.945,25,70,2.142,5.076,1.519,10.105,4,15,9.118,17.989,34.316,47.223,50,59,6.3,4.731,26.138,15.714,29,22v16h-1c-4.467,12.865-30.774,10-48,10-42.883,0-76.114-12.488-101-31-28.321-21.067-62.329-92.73-45-146,8.434-25.928,18.645-51.552,33-72C523.04,468.4,532.183,461.614,538,453Zm640,32h18c9.63,14.259,21.86,22.828,28,42,4.51,14.082,5.07,40.708,1,56-9.76,36.683-35.73,76.372-66,92l-18,6c-9.28,3.555-19.06,9.178-29,12-13.91,3.95-42.09,1.993-47-7-1.95-3.572-1.04-10.91-1-16,6.58-4.479,11.44-11.437,17-17,16.85-16.849,31.98-33.091,46-53,4.85-6.892,12.43-12.887,16-21,11.7-26.6,13.6-60,27-85C1171.79,490.662,1175.84,488.219,1178,485Z"/>
  <path id="Hand" class="cls-4" d="M914,10c79.9-.693,125.92,38.526,156,88,9.37,15.418,13.22,39.223,24,53,5.77,7.381,40.18,15.41,51,21,14.01,7.238,23.93,20.889,36,30,11,8.3,23.65,18.223,31,30,9.29,14.887,17.7,39.224,23,57,3.15,10.584,2.08,20.89,5,32,2.88,10.957,8.2,29.023,5,44-3.55,16.6-3.11,31.7-7,48-1.39,5.826-4.69,16.594-3,24,2.99,13.083,11.78,22.7,18,33,4.19,6.933,4.96,14.855,8,23,6.84,18.331,11.95,37.793,12,64q0.495,14.5,1,29c-3.49,15.92-4.19,33.795-10,48-5.88,14.367-17.67,26.392-18,45,4.13,2.655,7,7.324,11,10,10.8,7.218,23.16,10.787,34,18,16.39,10.908,30.52,25.526,46,37,15.79,11.707,31.48,22.3,47,34q6.495,7,13,14c3.92,3.843,8.56,6.648,13,10,10.66,8.055,18.12,21.05,29,29,19.24,14.057,44.69,24.16,68,34l18,5c5.5,3,9.61,9.678,14,14-0.02,5.256-1.07,7.932-2,12-5.7,2.776-9.2,8.486-15,11-16.3,7.072-34.76,7.2-49,16-37.11,22.947-71.44,51.268-111,72-26.24,13.75-67.34,20.18-87,40,3.7,19.97,16.6,40.78,24,59q5.505,26.49,11,53c3.84,16.45-1.53,54.04,12,59,7.73,7.04,21.46,3.28,34,6,4.95,1.08,13.8-.34,20,1,29.96,6.48,67.85.01,97,6,3.77,8.42,4.4,27.86,2,39-4.32,20.05,3.15,46.76-1,66v41c-1.48,6.86.75,17.9-1,26-5.81,26.82,1.81,62.05-4,89-1.82,8.42.55,19.82-1,27-1.95,9.06.68,21.19-1,29v18c0,17.18,1.35,36.49-2,52v18c0,15.79,1.12,34.53-2,49v27q-1.5,20.505-3,41c-2.72,12.61.79,25.41-3,35-15.8,7.81-56.86,2.75-79,2-20.05-.68-42.9,1.02-61-3h-19c-9.35-.19-21.44-1.1-30-3q-24.495-.495-49-1c-14.81-3.15-32.64,1.45-49-2-7.56-1.6-24.94-3.3-34-1-13.74,3.5-24.23,13.32-35,20-9.65,5.98-19.57,8.84-29,15-23.36,15.26-48.56,31.8-79,40-15.024,4.05-51.114,5.72-68,2-8.73-1.92-20.508.66-28-1-10.382-2.3-19.524.44-29-2q-13-4.005-26-8c-9.779-2.52-19.122-1.03-28-4-4.091-1.37-8.9-4.65-13-6q-12.5-1.995-25-4c-12.179-4.07-25.293-11.46-36-17-4.414-2.28-8.429-2-13-4l-15-9c-4.272-2.2-8.945-2.55-13-5-10.869-6.58-22.431-12.63-33-20-10.906-7.6-20.43-18.05-35-22-19.594-5.31-44.13,10.37-58,14-39.579,10.37-89.992,3.85-117-13-30.8-19.22-48.426-41.08-60-80-4.343-14.6,3.274-43.62-4-54-3.219-4.59-19.621-14.93-25-19-5.161-3.9-9.066-10.78-13-16-9.644-12.8-19.975-21.34-27-38-8.386-19.89-9.906-49.58-4-73,1.752-6.94,9.913-23.93,8-31-3.106-11.48-12.952-20.26-17-31-3.571-9.47-4.787-20.65-7-30v-15c-0.006-23.25,1.856-42.31,9-59,3.313-7.74,10.608-15.34,13-24,3.277-11.86-11.246-32.73-14-43-6.106-22.76,6.19-66.03,14-79,11.061-18.37,28.023-39.67,45-52,14.008-10.18,27.676-18.45,40-30v-6c-8.012-8.27-15.047-17.74-22-27-9.188-12.23-22.981-21.15-32-34-15.522-22.123-29.565-48.059-52-63-17.131-11.409-52.195-5.26-53-33a19.54,19.54,0,0,0,2-4c33.775-19.641,65.4-42.017,96-65l19-20c13.833-13.834,28.167-27.166,42-41,12.362-12.362,25.361-23.9,36-38l8-7V718c-4.216-4.562-5.647-11.569-9-17-16.695-27.045-26.678-58.95-35-95-2.371-10.273.1-33.364,2-42,3.665-16.631.812-30.539,5-46,5.283-19.5,16.01-42.029,26-58,1.673-2.674,5.217-4.545,7-7,9.218-12.69,17.777-24.364,27-37,7.807-10.7,19.958-17.163,24-32,2.546-9.346-1.422-22.135-3-29q0.5-18.5,1-37c14.548-64,29.942-110.956,69-150l14-15c25.319-18.83,62.648-26.261,98-35,11.986-2.963,40.489,1.794,48-3,12.188-4.075,18.477-18.8,28-26,24.269-18.343,45.333-41.127,72-57,13.883-8.264,28.246-12.779,46-17C888.147,12.588,906.57,14.778,914,10Zm28,68-42,5c-12.9,3.471-31.036,7.228-42,14-10.9,6.731-21.015,15.521-31,23-7.356,5.51-15.521,9.676-17,21,2.418,1.3,2.833,1.8,7,2,5.042-3.853,12.231-3.779,19-6,4.061-1.333,9.385-3.919,14-5h14c28.669-.006,46.047,8.916,64,20,6.371,3.933,11.534,9.884,20,12,14.777,3.693,44.279-7.78,55-11,6.36-1.91,14.53-1.567,17-7V135c-5.28-6.665-7.03-16.167-12-23C996.807,96.6,968.382,78.328,942,78ZM657,195l-26,8c-27.677,16.966-52.354,49.95-66,81-2.936,6.68-2.019,13.066-4,21-2.71,10.85-6.368,25.483-4,38,11.156,5.482,23.994,2.923,36,0l10-12c7.827-12.578,11.94-25.846,20-38,8.337-12.572,20.126-23.119,29-35,4.357-5.834,8.243-12.68,14-17,9.361-7.024,17.741-15.351,27-22,3.265-2.345,10.327-4.4,12-8v-7C693.086,196.611,676.6,195.022,657,195Zm181,8c-0.86.649-3.144,1.338-4,2-21.066,5.212-20.294,58.674,9,58C856.819,248.924,867.088,208.819,838,203Zm212,7c-0.86.649-3.14,1.338-4,2-4.24,1.406-4.21,3.317-4,9,34.96,34.435,64.8,75.987,91,119,8.66,14.219,14.67,51.766,35,52,14.97-22.334,12.64-47.378,5-76-4.36-16.35-7-32.865-15-46C1139.54,239.681,1095.61,213,1050,210ZM914,224c-1.565,1.8-1.966,1.281-3,4-3.705,4.968-.163,13.548-2,21-2.168,8.793-5.974,13.6-6,26l3,1c6.166,5.063,13.509.554,17-3,10.238-10.421,11.56-42.585-4-48C917.705,224.123,916.533,224.106,914,224ZM760,258a11.568,11.568,0,0,1-3,2c-2.294,18.733,5.263,26.235,13,37,16.57,23.055,41,49.092,71,58,8.966,2.662,22.349.666,30-1v-7c-42.225-9.317-84.564-55.721-104-89h-7Zm235,35c-6.419,9.4-7.99,22.474-13,34-5.566,12.806-18,29.575-19,45,2.95,1.588,5.721,2.075,11,2,3.386-2.95,8.027-3.5,12-6,13.667-8.587,24.94-21.613,25-44,0.03-11.434.05-26.691-8-30C1001.31,292.858,998.1,292.934,995,293ZM728,339c-6.037,14.482-.268,32.185,3,46,13.344,56.412,18.908,81.218,77,94,7.1,1.561,19.465.22,25-1,9.187-2.025,16.395.264,25-2,13.372-3.519,29.175-8.888,41-15,7.913-4.09,19.682-5.211,20-17l-3-1c-5.759-4.129-15.24-2.79-23-5-6.341-1.806-13.088-5.068-19-7-10.461-3.418-19.908-3.033-29-7-17.576-7.668-35.9-21.762-51-33-6.561-4.884-11.477-13.06-18-18-13.65-10.337-28.4-21.527-40-34h-8Zm339,32c-8.83,15.832-10.77,36.882-18,54-15.17,35.928-46.24,69.255-78,89-20.5,12.744-44.9,22.244-68,32-9.051,3.822-19.517,1.288-20,14,21.917,19.97,51.046,27.487,83,38,6.477,2.131,13.02,6.137,20,8,9.694,2.588,43.6,4.737,51,1,3.12-1.574,5.57-5.577,8-8,6.5-6.484,14.04-13.089,19-21,3.47-5.542,4.57-11.351,8-17,12.95-21.341,24.87-45.091,32-72,3.45-13.02,1.82-28.451-1-40q-1.005-9.5-2-19c-5.91-22.729-11.09-44.464-25-59h-9Zm-419,7c-13.238,13.752-19.552,29.955-27,50-12.4,33.377-7.558,87.544,4,116,2.424,5.968,2.512,11.245,5,17,3.449,7.977,9.618,15.052,14,22,29.217,46.325,63.665,61.291,122,78,29.02,8.312,52.635,11,92,11,12.253,0,31.564,1.651,39-4,1.65-1.79,1.746-2.512,2-6-21.849-20.075-51.11-31.913-77-48-34.161-21.226-68.827-49.791-91-83-20.576-30.818-38.193-64.962-53-101-3.261-7.936-3.589-15.95-7-24-1.692-3.992-5.237-8.835-7-13-2.245-5.305-2.061-11.468-7-14C655.162,377.762,651.3,377.911,648,378ZM543,463c-22.668,24.5-40.627,59.84-50,97-7.223,28.635,2.359,63.036,12,81,5.768,10.748,9.109,20.738,16,30,22.446,30.169,88.361,54.5,147,42a25.086,25.086,0,0,0,1-8c-31.325-20.754-59.895-49.231-79-82l-3-10c-7.193-16.651-14.967-36.406-21-55-6.541-20.161-6.278-41.279-11-63-2.956-13.6,2.209-21.95-4-32h-8Zm640,32c-14.9,24.769-18.86,62.736-31,90-2.77,6.231-8.28,11.708-12,17-19.67,27.96-41.51,50.125-66,73,0.33,2,.67,4,1,6,24.1,7.6,38.21-.287,57-8,9.94-4.079,17.75-5.794,26-11,32.05-20.216,74.85-82.42,53-137-4.41-11.008-12.41-21.838-20-30h-8Zm-64,238c-3.38,2.744-8.54,3.377-11,7q-1.995,5.5-4,11c-5.9,11.492-13.84,25.444-18,38q-1.995,9.5-4,19c-2.57,7.142-10.71,21.592-5,30,1.19,3.843,2.21,4.646,7,5,7.42,5.042,25.28,1.979,33,1q3.495-4,7-8,4.005-16.5,8-33c7.66-19,17.6-37.815,18-63C1141.83,734.649,1133.59,732.906,1119,733Zm-93,8c-5.11,3.642-12.49,3.871-16,9q-2,6-4,12a401.094,401.094,0,0,0-17,49c-2.8,10.182-3.313,22.954,4,28,5.612,4.589,14.77.509,20-1,11.59-19.936,16.54-45.468,25-69,2.31-6.424,5.88-21,0-26C1035.33,740.867,1031.05,740.88,1026,741Zm-206,2c-2.311,1.493-6.806,1.422-9,3-5.169,1.442-7.854,4.367-8,11-2.585,4.111-.733,10.389-2,16-3.67,16.248-2.647,36.371-2,55,2,57.456-3.423,120.855,3,175,2,1.67,4,3.33,6,5,9.763,0.56,17.255.05,25-2,8.339-14.574,7-41.217,7-64q0.5-47.495,1-95c1.927-13.148,2.767-29.887,0-42-4.34-19,4.334-40.013-2-56C833.341,745.6,829.641,743.079,820,743Zm386,15c-1.57,2.432-4.55,3.781-6,6-8.09,12.416-11.97,34.221-18,49-4.13,10.134-9,18.353-6,31,5.11,3.207,16.52,9.065,24,4,8.86-3.25,9.69-12.975,13-22,6.45-17.6,18.59-40.3,14-61C1220.39,760.518,1218.44,757.848,1206,758ZM611,775c-1.18.8-1.681,0.773-4,1-1.283,2.072-2.077,2.3-3,5-4.837,6.117.4,20.016,3,26,4.478,10.322,11.379,19.8,17,29,4.438,7.263,6.13,15.307,11,22,2.169,2.98,6.311,4.49,9,7,14.613,0.516,32.407.591,36-10,5.315-7.022-6.28-21.4-10-27-7.649-11.506-17.143-21.1-25-32-4.12-5.717-6.609-13.726-13-17C626.372,776.117,618.718,774.957,611,775Zm-79,4c-3.193,1.888-7.841.812-12,2-13.9,3.968-30.334,9.193-30,28,21.264,14.5,45.023,67.735,79,60l5-6c0.6-25.967-16.834-70.661-30-83Zm406,2c-11.429,10.874-44.683,31.118-45,50,1.766,0.961,1.68,1.257,4,2,4.8,3.891,27.172,5.309,33,1,11.236-4,16.114-33.318,16-50-1.766-.961-1.68-1.257-4-2C940.82,781.2,940.319,781.227,938,781Zm338,18c-2.81,2.249-6.97,3.024-9,6-6.62,9.71-11.55,27.9-9,40,18.09,8.907,50.19,7.61,73,6,1.75-3.261,2.11-7.256,2-13C1318.4,828.013,1296.68,800.106,1276,799Zm-562,9c-7.152,20.127,14.9,39.519,24,48,6.942,0.315,11.908-.425,14-5,3.78-5.747-1.2-12.656-3-16C742.967,823.768,731.164,807.705,714,808ZM437,842c-1.073.752-.946,0.6-3,1-6.448,8.9-25.513,17.8-26,31,0.8,1.021.355,0.274,1,2,11.333,5.623,31.2,2.016,46,2,7.984-.008,17.324.556,22-3,2-1.521,1.8-3.484,2-7C468.047,856.569,459.393,841.9,437,842Zm471,56c-1.565,1.8-1.966,1.281-3,4-0.8,1.18-.773,1.681-1,4,7.785,7.6,12.126,14.883,27,13a48.573,48.573,0,0,0,2-15c-0.8-1.021-.355-0.274-1-2C925.879,898.4,918.789,897.868,908,898Zm183,4c-3.22,2.588-6.1,4.293-9,7-0.76,25.5,9.84,45.538,20,61,4.6,7,5.14,12.962,17,13,1.02-.8.27-0.355,2-1,9.94-14.4,4.43-36.658,0-54-2.8-10.959-.71-21.885-12-24C1105.22,901.377,1097.36,901.869,1091,902Zm85,3-9,3c-7.67,12.53.26,31.731,4,45,1.8,6.384.78,13.044,4,18q3.495,3,7,6c14.5,0.591,27.79-1.756,40-5q2.505-3.5,5-7c0.57-18.663-16.67-57.8-33-58C1190.22,904.526,1181.85,904.9,1176,905Zm96,0c-3.13,2.4-5.44,1.733-7,6-4.49,6.664,7.96,27.441,12,30,3.23,2.631,13.35,2.915,18,1,11.08-4.569,21.84-12.6,32-18,5.71-3.031,12.2-2.924,13-11-2.33-1.667-4.67-3.333-7-5Zm-272,3c-2.316,1.493-7.567,2.04-10,3-5.662,9.464-6.653,40.059,0,50,4.069,6.079,12.02,8.591,20,11,6.58,1.988,17.84,4.812,24,0,0.8-1.021.35-.274,1-2,2.43-3.607.33-11.955-1-16-2.74-8.328-11.57-40.541-18-43C1013.05,908.368,1005.3,908.006,1000,908Zm-279,6c-10.939,6.321-28.847-4.015-34,10-2.222,2.4-3.242,11.7-2,17,2.468,10.535,6.583,38,15,41,3.634,2.531,6.981,1.3,12,1,5.377-6.894,14.7-10.953,20-18,5.928-7.876,9.677-16.25,15-25,3.753-6.169,7.721-10.534,6-20C744.7,914.711,735.959,913.875,721,914ZM612,925c-10.287,11.623-12.065,27.493-17,45-5.557,19.716-13.372,42.72-12,67,1,0.67,2,1.33,3,2,3.82,3.05,15.273,2.7,21,1,18.017-5.35,31.146-12.39,43-24,2.268-24.469-8-52.946-17-71-3.135-6.292-4.339-14.418-11-17C619.6,925.73,616.679,925.11,612,925Zm-200,7c-1.194.777-4.815,1.2-6,2-5.105,1.765-4.376,7.187-4,14,7.145,5.878,25.657,40.808,39,31,3.971-3.81,20.363-29.5,17-39-1.033-2.917-4.986-4.88-7-7C439,932.844,425.348,932.032,412,932Zm120,1-9,6c-8.747,11.323-12.367,25.411-20,38-6.5,10.721-15.555,24.11-16,40,11.237,11.88,15.8,14.8,38,13,11.187-17.04,10.856-44.145,16-68,1.843-8.546.721-25.168-4-28C535.705,933.123,534.533,933.106,532,933Zm487,90c-9.09,5.59-31.1,2.97-43,6-16.783,4.27-34.565,11.74-49,18-6.548,2.84-13.2,3.42-19,7-43.077,26.54-55.515,54.32-76,103a554.091,554.091,0,0,0-28,85c-5.836,24.53-2.556,54.39-4,80q-0.5,16.5-1,33c-1.679,7.82.92,19.92-1,29-2.91,13.77.977,28.02,1,42,0.029,17.69-1.517,42.8,2,59,2.655,12.23-2.14,26.1,2,36,2.679,6.41,11.925,14.01,18,17,10.088,4.97,26.169.88,34-2,26.49-9.75,38.586-15,51-39,5.626-10.88,4.523-24.31,8-39,4.854-20.5,5-45.58,5-71v-24c-3.166-15-3.248-53.03,0-68,1.9-8.74-.627-20.51,1-28,2.271-10.46.108-22.44,2-31q1-15,2-30c6.48-27.53,13.316-55.11,47-55,11.161,8.98,19.223,13.3,24,29,3.964,13.03,1.574,38.24-1,50v42c-1.9,8.86-5.46,22.67-3,34,4.647,21.4-.6,49.75,4,71v22c5.63,25.51,6.56,55.64,16,78,11.13,26.37,32.69,50.26,55,66,8.75,6.17,17.37,15.96,28,20,10.61,4.03,20.72,4.16,32,7,9.53,2.4,25.02,2.88,33-2,19.83-12.13,39.48-52.96,47-78,3.95-13.15,3.93-29.11,7-42,3.9-16.34.59-35.16,4-51,0.94-4.39-.39-11.17-1-14-1.77-8.25.64-18.71,2-25v-20c4.84-22.04,4.95-50.32,5-76,0.03-14.74,5.4-30.34,2-46-7.86-36.15-7.11-72.84-20-103-6.81-15.94-22.71-31.97-36-42-3.95-2.98-6.86-8.09-11-11C1122.9,1035.33,1078.93,1023.14,1019,1023Zm-239,35c-8.512,4.93-23.367.57-34,3-20.516,4.69-39.964,6.83-60,13-31.083,9.56-64.434,18.32-94,29l-15,3c-4.657,1.74-10.018,5.36-15,7q-12,1.995-24,4c-24.85,8.11-54.676,14.82-78,25-20.138,8.79-56.932,27.87-67,45-4.336,7.38-3.224,20.52,0,28,15.248,35.38,73.976,22.99,107,13q13-2.505,26-5c23.561-7.77,49.948-11.9,74-20,37.923-12.77,79.312-26.39,116-40,14.192-5.27,26.767-6.37,40-12,26.681-11.36,58.259-45.94,58-85-2.55-1.81-2.78-3.72-6-5C802.527,1056.74,789.563,1057.86,780,1058ZM672,1268c-7.538,4.42-20.306-.21-30,2-8.076,1.84-16.143,4.19-24,6H607c-12.526,2.83-28.164.84-42,4-27.672,6.32-61.414,9.21-89,16-21.222,5.22-44.121,2.56-61,11-15.254,7.63-24.507,17.73-29,36-3.053,12.42-.029,26.82,9,30,6.077,5.54,16.031,2.9,26,5,15.364,3.24,45.6,2.6,63,1,31.35-2.89,61.786-3.61,91-10h38c10.007-2.2,21.4-.44,32-3q13.5-4.005,27-8c18.118-4.81,32.111-5.69,45-15,14.061-10.15,41.185-46.82,16-65C718.724,1267.7,697.619,1267.66,672,1268Zm652,52c-1.07.75-.95,0.6-3,1-1.81,2.72-3.78,3.54-5,7-5.6,8.78-1.38,24.24-4,36-5.37,24.1.18,57.24-5,81q-0.495,14.505-1,29c-6.16,27.67-8.42,53.51-17,79-1.61,4.77-5.33,10.4-7,15-3.05,8.38-2.7,16.4-6,24a324.429,324.429,0,0,1-21,41c-6.65,10.7-14.71,15.29-15,33,10.73,6.1,20.61,1.93,35,5,8.77,1.87,21.98-1.14,32,1,15.53,3.31,41.82,1.83,56-1,12.3-19.23,4.37-54.88,10-81v-18c5.13-23.8-.16-52.04,5-76,2.36-10.97-1.09-25.28,1-35v-31c1.61-7.49-.88-19.26,1-28,2.02-9.4-1.29-23.35,1-34,2.69-12.51,2.26-29.73,0-41C1368.27,1319,1344.85,1319.94,1324,1320Zm-676,97c-4.414,2.55-12.6.6-18,2q-13,3.495-26,7c-10.992,2.75-20.387,1.24-31,4-11.712,3.04-21.3,8.1-32,11-10.193,2.77-20.52.89-30,4-18.094,5.93-37.824,13.85-56,19-25.782,7.3-70.245,18.27-56,57,11.974,32.55,45.26,32.19,81,23q9.5-1.005,19-2c9.834-2.5,18.605-7.16,28-10q12-1.995,24-4c16.056-5.26,36.576-10.97,53-16,8.466-2.59,16.408-1.78,24-5,3.832-1.63,8.167-5.38,12-7,20.846-8.83,42.417-12.26,60-24,6.4-4.27,9.664-11.66,15-17C718.492,1416.35,689.485,1416.43,648,1417Zm52,135q-31,6.495-62,13c-27.467,9.06-58.963,17.99-86,27q-12.5,1.995-25,4c-5.219,1.61-10.986,5.14-16,7-18.336,6.8-58,17.61-46,49,8.729,22.83,52.7,41.41,90,32,10.8-2.72,19.39-7.86,29-11q7-1.005,14-2c8.4-2.58,17.884-6.54,27-9l20-3c11.849-3.95,25.166-11.34,36-16,6.467-2.78,13.319-2.21,20-5,13.855-5.79,31.068-13.35,43-22,10.646-7.72,22.511-32.79,11-50C745.734,1552.15,723.741,1551.61,700,1552Zm241,22c-19.016,19.57-42.971,37.78-71,48-11.637,4.24-34.831-.73-45,6-9.634,6.37-19.662,27.13-27,37-7.1,9.55-30.484,22.85-31,36,26.57,14.74,63.171,27.65,95,36l44,3c20.094,4.42,61.152,2.98,79-3,20.1-6.74,45.89-24.9,62-37,11.09-8.33,19-21.44,29-31-1.14-16.26-21.84-16.47-33-23-20.31-11.88-41.61-23.21-60-37-12.377-9.29-22.5-23.66-33-35h-9Z"/>
</svg>
