<svg xmlns="http://www.w3.org/2000/svg" xmlns:xlink="http://www.w3.org/1999/xlink" width="398.746" height="348.942" viewBox="0 0 398.746 348.942"><defs><clipPath id="a"><path d="M683.386,404.925c-.806.014-1.619.014-2.435.011-1.629,0-3.262-.011-4.894.082a23.522,23.522,0,0,0-7.13,1.477,30.909,30.909,0,0,0-6.559,3.308,23.23,23.23,0,0,0-5.643,5.033.519.519,0,0,0-.1.259.5.5,0,0,0,.44.547h.025a44.338,44.338,0,0,0,7.286.039c2.321-.092,4.533-.373,6.733-.632l3.237-.575c1.075-.224,2.126-.568,3.187-.841a48.387,48.387,0,0,1,6.417-1.661l3.269-.483,3.283-.291,3.29-.142,3.269.124c4.355.28,8.671,1.445,12.149,4.383l.021.021a.461.461,0,0,0,.525.039.45.45,0,0,0,.138-.618c-2.6-4.167-7.347-6.665-11.986-8.163a48.944,48.944,0,0,0-14.254-1.92ZM450.957,394.156a10.808,10.808,0,0,0-3.546,4.955,13.069,13.069,0,0,0-.628,2.8,17.915,17.915,0,0,0,.146,2.917,9.036,9.036,0,0,0,2.889,5.182,15.31,15.31,0,0,0,2.442,1.846,24.366,24.366,0,0,0,2.516,1.512,15.97,15.97,0,0,0,2.541,1.189,17.074,17.074,0,0,0,2.584.809,22.474,22.474,0,0,0,14.293-1.643.7.7,0,0,0,.373-.447.682.682,0,0,0-.486-.841l-.036-.007a30.881,30.881,0,0,1-7.7-2.949,15.765,15.765,0,0,1-3-2.066,8.632,8.632,0,0,1-1.2-1.111,6.568,6.568,0,0,1-.969-1.185,3.607,3.607,0,0,1-.639-1.317,5.1,5.1,0,0,1-.284-1.4,3.7,3.7,0,0,0-1.154-2.247,58.138,58.138,0,0,0-6.843-6l-.053-.039a1.019,1.019,0,0,0-1.249.039m239.808-9.121a42.865,42.865,0,0,0-5.249.326,87.649,87.649,0,0,0-19.4,5.171c-12.216,4.6-23.524,10.367-35.283,14.939-11.663,4.735-23.865,8.291-36.571,8.816a.472.472,0,0,0-.44.43.465.465,0,0,0,.433.493c12.855.933,25.785-1.757,38.083-5.452,12.3-3.791,24.145-8.8,36.074-12.323a70.381,70.381,0,0,1,17.8-3.148c1.452,0,2.886-.025,4.291.092,1.409.089,2.953.277,4.422.415,2.96.309,5.856.777,8.71,1.345a45.046,45.046,0,0,1,8.241,2.527,39.31,39.31,0,0,1,3.918,1.785c1.225.745,2.5,1.441,3.681,2.3,4.845,3.276,8.905,7.989,13.121,12.962a.466.466,0,0,0,.493.146.472.472,0,0,0,.316-.589c-1.81-6.2-4.7-12.447-9.587-17.487-4.76-5.15-11.248-8.618-17.856-10.623-1.665-.394-3.336-.93-5.022-1.2-1.686-.22-3.375-.611-5.072-.685-1.54-.067-3.024-.245-4.607-.245h-.493m127.2-1.395c-2.46,3.091-4.312,6.453-6.612,8.8a19.724,19.724,0,0,1-3.563,3.109,15.944,15.944,0,0,1-1.881,1.285,17.007,17.007,0,0,1-2.026,1.114,19.936,19.936,0,0,1-4.565,1.484,10.18,10.18,0,0,0-4.255,2.222,25.975,25.975,0,0,0-3.716,4.082,23.966,23.966,0,0,0-3.393,6.158l-.025.05a1.122,1.122,0,0,0,.518,1.366,17.853,17.853,0,0,0,13.239,1.839,13.027,13.027,0,0,0,2.885-1.115,15.407,15.407,0,0,0,2.534-1.92c.781-.706,1.508-1.622,2.229-2.421l2.186-2.453a26.758,26.758,0,0,0,2.091-2.541,26.244,26.244,0,0,0,1.853-2.751,28.542,28.542,0,0,0,2.555-6.03c1.118-4.174,1.15-7.968,1.345-11.72v-.032a.784.784,0,0,0-1.395-.522M705.423,368.754A46.2,46.2,0,0,0,693.59,371.5c-1.874.713-3.691,1.583-5.48,2.435a59.15,59.15,0,0,0-5.061,3.187.4.4,0,0,0-.177.344.41.41,0,0,0,.422.412h.025c2.019-.028,3.94-.231,5.842-.412,1.917-.114,3.8-.27,5.65-.433,3.727-.181,7.361-.394,10.911-.227a87.8,87.8,0,0,1,10.435.784,30.058,30.058,0,0,1,9.991,2.907,41.845,41.845,0,0,1,15.808,14.335,65.377,65.377,0,0,1,9.146,20.5v.032a.4.4,0,0,0,.426.3.394.394,0,0,0,.366-.433,62.913,62.913,0,0,0-6.478-22.449A50.224,50.224,0,0,0,738.7,382.8a42.663,42.663,0,0,0-9.416-7.936,39.156,39.156,0,0,0-20.44-6.307,29.833,29.833,0,0,0-3.418.2m112.561-7.666c-4.291,4.483-8.231,9.193-12.493,13.342a66.927,66.927,0,0,1-6.513,5.835,43.5,43.5,0,0,1-6.85,4.706,24.111,24.111,0,0,1-7.333,2.559c-2.449.476-4.714.99-7.12,1.565a29.411,29.411,0,0,1-3.716.8c-.649.138-1.3.33-1.973.44-.674.06-1.363.156-2.062.263-2.843.646-5.81.66-9.338,1.572l-.089.014a.8.8,0,0,0-.28.149.755.755,0,0,0-.1,1.054,24.921,24.921,0,0,0,18.683,8.7,21.841,21.841,0,0,0,10.623-2.5,51.3,51.3,0,0,0,8.7-6.073,53.8,53.8,0,0,0,7.028-7.145,75.512,75.512,0,0,0,5.487-7.929,170.6,170.6,0,0,0,8.419-16.617.671.671,0,0,0-.142-.763.658.658,0,0,0-.458-.177.623.623,0,0,0-.468.2m-358.224-5.3a19.156,19.156,0,0,0-8.05,9.2,19.819,19.819,0,0,0-.958,12,45.164,45.164,0,0,0,4.071,10.268,52.741,52.741,0,0,0,5.7,8.621,62.944,62.944,0,0,0,7.06,7.1,65.408,65.408,0,0,0,16.447,10.232.674.674,0,0,0,.763-.174.653.653,0,0,0-.068-.93,81.794,81.794,0,0,1-12.362-13.569,55.213,55.213,0,0,1-4.646-7.517,42.742,42.742,0,0,1-3.265-7.8,21.886,21.886,0,0,1-.873-7.748c.16-2.424.351-4.483.564-6.531a19.976,19.976,0,0,1,1.913-6.421,44.233,44.233,0,0,1,5.051-7.6l.014-.007a.79.79,0,0,0,.142-.341.751.751,0,0,0-.625-.866,15.739,15.739,0,0,0-2.52-.206,17.01,17.01,0,0,0-8.359,2.279m28.007-5.938a17.482,17.482,0,0,0-6.694,5.249,33.485,33.485,0,0,0-4.08,6.541c-.55,1.121-1.022,2.247-1.48,3.375a24.95,24.95,0,0,0-1.21,3.858,33.662,33.662,0,0,0-.82,7.73,39.128,39.128,0,0,0,3.07,15.059,36.206,36.206,0,0,0,9.185,12.859,43.643,43.643,0,0,0,6.467,4.7,45.62,45.62,0,0,0,7.169,3.3,52.956,52.956,0,0,0,15,3,70.987,70.987,0,0,0,7.432-.057c2.46-.177,4.688-.4,7.024-.72,9.281-1.221,17.881-3.812,25.789-4.444a50.811,50.811,0,0,1,12.362.607c4.266.689,8.585,1.853,13.1,2.875h.018a.731.731,0,0,0,.692-.224.717.717,0,0,0-.06-1.008,60.2,60.2,0,0,0-11.553-8.075,45.36,45.36,0,0,0-14.048-4.635,70.51,70.51,0,0,0-14.537-.348c-4.628.263-9.015.717-13.356,1.043-2.144.146-4.383.426-6.417.515-2.048.17-4.057.259-6.062.266a48.077,48.077,0,0,1-11.613-1.082,24.567,24.567,0,0,1-17.132-12.941,29.42,29.42,0,0,1-3.113-11.042,28.537,28.537,0,0,1,.114-5.707,15.149,15.149,0,0,1,.571-2.651c.309-.983.635-1.963,1.012-2.889,1.43-3.716,3.585-7.2,6.137-8.529a5.39,5.39,0,0,1,4.053-.454,10.684,10.684,0,0,1,4.458,2.612c5.778,5.3,8.135,14.382,8.777,22.9a17.425,17.425,0,0,1-.486,6.027c-.3.866-.7,1.366-1.086,1.487a3.214,3.214,0,0,1-2.2-.483,22.493,22.493,0,0,1-4.948-4c-1.551-1.572-3-3.269-4.422-5a.715.715,0,0,0-.93-.146.707.707,0,0,0-.188.973c1.271,1.878,2.584,3.741,4.039,5.516a24.332,24.332,0,0,0,5.107,4.933,5.851,5.851,0,0,0,4.21,1.086,4.187,4.187,0,0,0,2.236-1.3,6.468,6.468,0,0,0,1.182-1.874,20.255,20.255,0,0,0,1.26-7.279A55.982,55.982,0,0,0,510.24,367.5a30.485,30.485,0,0,0-6.651-13.139,16.986,16.986,0,0,0-6.722-4.717,11.71,11.71,0,0,0-4.27-.777,12.01,12.01,0,0,0-4.831.983M459.3,335.108a14.429,14.429,0,0,0-1.576.149c-1.111.068-2.616.312-4.689.348h-.028a1.269,1.269,0,0,0-1.09.657,9.49,9.49,0,0,0-.88,2.829,9.29,9.29,0,0,0,.149,2.612,9.15,9.15,0,0,0,2.13,4.248,7.273,7.273,0,0,0,1.739,1.377,7.912,7.912,0,0,0,2.094.66l2.2.138c.728.011,1.441,0,2.115.071a27.535,27.535,0,0,0,4.064-.135,23.945,23.945,0,0,0,3.9-.983,13.629,13.629,0,0,0,6.282-4.437.709.709,0,0,0,.138-.451.72.72,0,0,0-.745-.678h-.05a14.789,14.789,0,0,1-6.041-.955,14.972,14.972,0,0,1-2.559-1.132,17.243,17.243,0,0,1-2.279-1.313,7.885,7.885,0,0,1-1.778-1.934,2.215,2.215,0,0,0-1.821-1.075c-.213-.011-.429-.025-.667-.025-.188,0-.387.007-.607.025m356.041-20.717-.039.057a34.463,34.463,0,0,0-3.248,5.739,40.051,40.051,0,0,0-2.58,5.324,40.214,40.214,0,0,0-2.31,5.129,18.71,18.71,0,0,0-1.867,5.26c-.572,1.8-.738,3.865-1.189,5.874a21.6,21.6,0,0,1-2.172,5.686,20.7,20.7,0,0,1-3.968,4.472,26.8,26.8,0,0,1-5.214,3.127c-3.808,1.594-7.414,3.067-10.8,4.791-1.782.71-3.493,1.5-5.249,2.2a55.129,55.129,0,0,0-5.168,2.243c-1.721.735-3.379,1.675-5.079,2.555-1.732.788-3.443,1.75-5.192,2.7-1.771.855-3.56,1.828-5.37,2.935a43.416,43.416,0,0,0-5.675,3.375l-.046.032a.728.728,0,0,0,.145,1.267,35.213,35.213,0,0,0,6.616,1.92,48.507,48.507,0,0,0,6.744.5,55.544,55.544,0,0,0,6.7-.671,51.227,51.227,0,0,0,6.506-1.739,39.864,39.864,0,0,0,6.048-2.953c1.941-1.139,3.7-2.58,5.516-3.883a44.12,44.12,0,0,0,5-4.493,52.917,52.917,0,0,0,4.039-5.43c1.256-1.846,2.318-3.83,3.677-5.466a36.031,36.031,0,0,1,4.092-4.9,41.272,41.272,0,0,1,4.944-4.429,42.257,42.257,0,0,0,4.855-4.9,23.469,23.469,0,0,0,3.013-6.1,49.558,49.558,0,0,0,1.278-6.708,41.853,41.853,0,0,0-.359-6.843,27.154,27.154,0,0,0-2.392-6.594.817.817,0,0,0-.216-.252.755.755,0,0,0-.437-.135.745.745,0,0,0-.607.312m-327.59-69.915a53.8,53.8,0,0,0-9.59,14.311A62.392,62.392,0,0,0,473,275.541c-.83,5.775-2.076,11.9-.447,17.714a35.062,35.062,0,0,0,7.982,15.826.462.462,0,0,0,.291.156.476.476,0,0,0,.532-.415v-.039a55.778,55.778,0,0,0,.163-8.653c.11-2.79-.27-5.43-.227-8.092q-.085-1.986-.312-3.936c-.067-1.306-.213-2.612-.387-3.925a30.7,30.7,0,0,1-.437-3.95,31.214,31.214,0,0,1-.131-3.989l.192-4,.5-3.989a62.69,62.69,0,0,1,1.586-7.94,57.938,57.938,0,0,1,6.119-15.262l.018-.039a.442.442,0,0,0-.075-.532.416.416,0,0,0-.3-.128.451.451,0,0,0-.32.128m-8.774-8.66c-7.571,5.153-13.565,12.539-18.062,20.664a73.938,73.938,0,0,0-8.373,26.7,79.878,79.878,0,0,0-.525,14.293,43.425,43.425,0,0,0,3.269,14.108c3.773,8.937,10.456,16.9,19.066,20.841a.48.48,0,0,0,.458-.036.463.463,0,0,0,.11-.642,95.585,95.585,0,0,1-6.779-11.407,72.962,72.962,0,0,1-4.518-11.748c-1.164-4-2.108-8.043-2.9-12.181a58.458,58.458,0,0,1-1.111-12.7,71.375,71.375,0,0,1,1.547-12.83,70.459,70.459,0,0,1,3.762-12.5A60.316,60.316,0,0,1,479.525,236.5a.447.447,0,0,0,.064-.575.441.441,0,0,0-.362-.192.411.411,0,0,0-.252.082m76.465-28.539a79.317,79.317,0,0,0-12.266,8.926,80.225,80.225,0,0,0-10.481,11.247c-1.572,2.055-3.216,4.1-4.7,6.3a24.245,24.245,0,0,0-3.326,7.216A27.513,27.513,0,0,0,523.609,249a23.668,23.668,0,0,0,.426,4.082,19.434,19.434,0,0,0,1.317,3.936.494.494,0,0,0,.855.043l.028-.043c.753-1.217,1.2-2.378,1.8-3.482s1.058-2.193,1.64-3.248l3.223-6.186a65.038,65.038,0,0,0,2.814-6.3,46.817,46.817,0,0,1,2.868-6.491c1.129-2.094,2.378-4.142,3.7-6.158,1.292-2.034,2.68-4.021,4.131-5.973a99.982,99.982,0,0,1,9.569-11.212.437.437,0,0,0,.06-.532.427.427,0,0,0-.38-.224.4.4,0,0,0-.22.057m-86.264-18.129a29.708,29.708,0,0,0-22.229,14.893.444.444,0,0,0,.749.476,28.721,28.721,0,0,1,13.533-10.254c5.253-1.9,11.315-2.208,16.014-.135a7.21,7.21,0,0,1,4.454,4.7,7.074,7.074,0,0,1-.078,3.223,24.411,24.411,0,0,1-1.111,3.847,33.743,33.743,0,0,1-9.118,13.217,30.034,30.034,0,0,1-6.5,4.468,16.105,16.105,0,0,1-3.358,1.235,5.023,5.023,0,0,1-2.488.092c-.447-.22-.067-.043-.142-.209a.14.14,0,0,0-.042-.082l-.082-.28a4.853,4.853,0,0,1-.142-.614,10.771,10.771,0,0,1-.135-1.377,17.346,17.346,0,0,1,1.4-6.634,22.272,22.272,0,0,1,3.713-6.374,10.5,10.5,0,0,1,2.264-2.158c.334-.209.6-.309.678-.383.043-.043.032-.071.032-.128,0,0-.011-.043.025-.053.06.028.121.053.192.082.493.174.841.39,1.082,1.334a7.641,7.641,0,0,1-.27,3.439,17.519,17.519,0,0,1-3.893,7.287l-.029.028a.448.448,0,0,0,.5.717,15.886,15.886,0,0,0,7.113-6.392,12.254,12.254,0,0,0,1.8-5.139,7.363,7.363,0,0,0-.479-3.336,5.67,5.67,0,0,0-.909-1.629,5.541,5.541,0,0,0-1.274-1.338l-.717-.568a10.039,10.039,0,0,0-.994-.515,6.786,6.786,0,0,0-2.147-.476,8.859,8.859,0,0,0-3.606.632,16.77,16.77,0,0,0-4.87,3.074,28.939,28.939,0,0,0-6.247,8.234,22.761,22.761,0,0,0-2.563,10.534,15.525,15.525,0,0,0,.38,3.031,13.283,13.283,0,0,0,.429,1.53l.273.774.447.923a8.784,8.784,0,0,0,2.918,3.258,9.49,9.49,0,0,0,3.893,1.448,13.664,13.664,0,0,0,6.282-.809,24.865,24.865,0,0,0,4.767-2.318,37.365,37.365,0,0,0,7.624-6.24A40.26,40.26,0,0,0,486.1,207.7a30.746,30.746,0,0,0,.962-4.788,12.57,12.57,0,0,0-.429-5.569,10.738,10.738,0,0,0-3.184-4.713,13.717,13.717,0,0,0-4.6-2.612,20.9,20.9,0,0,0-6.672-1.04,26.332,26.332,0,0,0-3,.174M549.37,314.7c-1.171-.689-1.828-1.707-.731-3.57,4.706-7.972,48.419-37.778,86.58-63.989,4.547,6.236,6.215,14.456,2.328,21.04-15.5,26.268-43.929,13.736-49.352,22.921-11.226,19.024-26.843,24.39-34.7,24.39a8.562,8.562,0,0,1-4.121-.791m104.993-37.668c8.969-15.2,4.021-30.523-4.72-39.815,6.066-4.192,11.812-8.192,17.026-11.872,14.367,14.875,19.219,38.154,5.274,61.778-33.316,56.472-109.9,66.711-132.507,53.37-8.266-4.877-5.775-21.927-14.1-26.839-2.13-1.256-5.505-1.235-8.579-1.207-2.573.018-4.933.035-6.165-.692-2.02-1.193-.678-2.793.4-3.2,38.449-14.662,70.559-87.872,111.968-70.537-34.186,24.319-72.071,51.521-78.612,62.616-7.585,12.848-2.282,20.88,5.107,25.239,6.786,4.007,32.213,5.31,40.724-9.118,4.944-8.376.227-15.7,4.973-16.93a33.562,33.562,0,0,1,6.2-.206c.955.014,1.984.021,3.081.021,13.53,0,37.466-1.473,49.934-22.6m26.012-82.786c-1.089,1.853-4.948,5.271-10.7,9.8-39.077-19.141-74.821,2.541-98.1,29.278-1.924,2.208-1.044,4.028,1.221,1.736,23.769-24.057,52.241-35.308,81.228-19.276-5.4,3.94-11.372,8.209-17.647,12.689-45.576-17.753-88.646,62.765-129.9,73.4-4.724,1.217-9.416,3.78-11.436,7.2-2.736,4.639-.738,10.534,4.362,13.544,5.249,3.1,9.97,2.662,14.385,2.218,3.95-.4,7.663-.784,11.29,1.356,7.425,4.376,1.04,21.735,13.611,29.153,34.3,20.238,117.991,3.113,155.375-60.23,19.716-33.423,7.357-65.789-10.566-81.994,5.306-4.05,8.774-7.017,9.629-8.472,3.436-5.828-1.6-18.871-4.671-20.685a1.772,1.772,0,0,0-.926-.277c-2.375,0-4.2,5.551-7.159,10.57m-141.533,65.37c-1.615,3.031-.248,4.007.923,1.771,21.877-41.8,90.463-119.212,159.492-78.484,39.957,23.578,51.567,73.884,23.123,122.09C679.262,378.1,576.043,397.8,530.038,370.662c-16.621-9.81-9.189-23.72-17.686-28.728-6.644-3.922-25.058-8.241-25.427-19.723-.082-2.5-1.225-3.567-2.786-.912-2.506,4.241-2.658,13.8,3.226,17.274s17.618,2.527,23.357,5.92c6.421,3.787-2.211,26.4,15.663,36.94,54.151,31.961,162.452,15.844,213.231-70.218,34.879-59.12,8.9-115.364-26.268-136.113a89.834,89.834,0,0,0-46.189-12.9c-48.067-.007-96.8,38.438-128.315,97.416M655.095,142.743a97.37,97.37,0,0,0-22.829,7.407,75.758,75.758,0,0,0-10.3,6.076,54.985,54.985,0,0,0-8.756,7.954,66.145,66.145,0,0,1,20.465-10.534,99.846,99.846,0,0,1,22.36-4.337,119.839,119.839,0,0,1,22.68.039,125.428,125.428,0,0,1,22.208,3.755c14.438,3.762,28.3,9.945,39.208,19.29,11.379,9.576,21.072,21.1,27.659,34.055a84.075,84.075,0,0,1,7.358,20.4,92.66,92.66,0,0,1,2.03,21.693c-.263,14.687-4.177,29.324-9.938,43.233a178.679,178.679,0,0,1-23.2,39.216,165.737,165.737,0,0,1-32.784,32.646c14.115-6.91,26.523-17.171,37.512-28.589a162.032,162.032,0,0,0,27.537-39.1,120.49,120.49,0,0,0,13.043-46.907,95.689,95.689,0,0,0-9.977-48.436c-7.51-14.964-18.7-27.5-31.244-37.863a91.041,91.041,0,0,0-21.469-12.7,109.422,109.422,0,0,0-23.432-7.152,128.857,128.857,0,0,0-24.575-2.378,124.691,124.691,0,0,0-23.556,2.232m-193.38-2.452a29.978,29.978,0,0,0-6.1,1.814c-1.959.834-4.543,1.228-5.8,3.4a8.419,8.419,0,0,0-1.338,3.51,6.8,6.8,0,0,0,.575,4.163.69.69,0,0,0,.745.373l.06-.014c1.6-.3,2.609-.568,3.61-.823a13.08,13.08,0,0,0,2.509-.88,4.436,4.436,0,0,0,1.8-1.6,11.514,11.514,0,0,1,1.629-2.161c.635-.639,1.32-1.267,2.023-1.881.685-.635,1.4-1.278,2.147-1.885,1.466-1.278,3.035-2.5,4.628-3.762h.014a.494.494,0,0,0,.177-.358.465.465,0,0,0-.454-.476h-.43a33.628,33.628,0,0,0-5.8.6M783.946,137a.7.7,0,0,0,0,.99c3.145,3.138,6.346,6.08,9.21,9.2,1.462,1.512,2.829,3.084,4.1,4.685a48.785,48.785,0,0,1,3.592,4.774,25.241,25.241,0,0,1,2.555,5.225c.422.848.724,1.739,1.21,2.509a23.6,23.6,0,0,0,1.59,2.264,52.014,52.014,0,0,0,9.679,9.2l.029.014a.4.4,0,0,0,.1.067.884.884,0,0,0,1.2-.358c2.747-5.065,2.555-10.342,1.082-15.127a15.155,15.155,0,0,0-3.872-6.3c-1.789-1.76-3.734-3.29-5.555-4.845a59.415,59.415,0,0,0-5.668-4.234,68.216,68.216,0,0,0-6.034-3.368,89.718,89.718,0,0,0-12.515-4.866.831.831,0,0,0-.209-.032.685.685,0,0,0-.493.206m-290.973-.415a50.43,50.43,0,0,0-8.848,2.939,33.827,33.827,0,0,0-8.284,4.98,23.083,23.083,0,0,0-6.339,8.067,22.257,22.257,0,0,0-1.473,4.305,15.365,15.365,0,0,0-2.889-.543,16.62,16.62,0,0,0-8.341,1.572,18.377,18.377,0,0,0-6.314,4.845,16.673,16.673,0,0,0-3.517,6.7.432.432,0,0,0,.035.323.477.477,0,0,0,.639.213l.039-.018c4.28-2.169,8.2-3.791,11.73-4.319a22.272,22.272,0,0,1,5.022-.149,23.839,23.839,0,0,1,5.118.884l1.221.362a3.6,3.6,0,0,0,1.941.035,3.673,3.673,0,0,0,2.644-4.465c-1.263-4.919.437-10,3.94-14.328a34.888,34.888,0,0,1,6.321-5.853,69.485,69.485,0,0,1,7.67-4.721.453.453,0,0,0,.22-.5.44.44,0,0,0-.43-.344.585.585,0,0,0-.107.014m33.537-.014a72.3,72.3,0,0,0-15.428,5.253,56.14,56.14,0,0,0-13.973,9,41.788,41.788,0,0,0-5.768,6.378,32.278,32.278,0,0,0-6,18.531,34.38,34.38,0,0,0-5.76-1.523,32.144,32.144,0,0,0-12.55.408,34.629,34.629,0,0,0-11.294,4.87,36.911,36.911,0,0,0-8.671,8.046.476.476,0,0,0-.071.437.457.457,0,0,0,.589.273c3.677-1.306,7.123-2.662,10.57-3.606a46.207,46.207,0,0,1,20.043-1.359,60.815,60.815,0,0,1,9.931,2.236l.554.177a3.826,3.826,0,0,0,4.873-4.657,26.341,26.341,0,0,1-.234-14.087,31.1,31.1,0,0,1,7.187-12.713,55.869,55.869,0,0,1,11.982-9.814,82.17,82.17,0,0,1,14.25-7h.028a.446.446,0,0,0,.273-.507.44.44,0,0,0-.433-.348l-.1.007m56.216.909a.442.442,0,1,0,.138.873,54.49,54.49,0,0,1,11.365-.49c3.727.3,7.542,1.182,10.353,3.436a10.6,10.6,0,0,1,3.656,9.53,27.806,27.806,0,0,1-3.361,10.47,56.359,56.359,0,0,1-14.4,17.058,111.3,111.3,0,0,1-19.233,11.872,76.124,76.124,0,0,1-21.175,6.864,41.468,41.468,0,0,1-10.815.266,20.166,20.166,0,0,1-9.452-3.326,10.293,10.293,0,0,1-4.39-7.606,18.9,18.9,0,0,1,2.083-9.547,43.465,43.465,0,0,1,5.832-8.944,48.579,48.579,0,0,1,7.68-7.5A45.328,45.328,0,0,1,560.22,151.7a36.968,36.968,0,0,1,10.36-.536,22.094,22.094,0,0,1,9.161,2.74,8.9,8.9,0,0,1,2.843,2.619,5.17,5.17,0,0,1,.933,2.953c.046,2.154-1.352,4.969-3.446,7.468A49.137,49.137,0,0,1,563.429,179.3a59.8,59.8,0,0,1-9.995,3.652,32.152,32.152,0,0,1-10.009,1.182,8.385,8.385,0,0,1-3.482-.884c-.3-.192-.359-.252-.43-.358-.074-.145-.149-.341-.064-1.033.334-2.683,2.14-5.615,4.419-8.135a31.372,31.372,0,0,1,8.252-6.417,21.217,21.217,0,0,1,4.71-1.945c1.537-.422,3.162-.4,3.727.007a2.665,2.665,0,0,1,.855,1.239,3.416,3.416,0,0,1,.025,1.86,9.967,9.967,0,0,1-2.637,4.16,21.782,21.782,0,0,1-4.3,3.382,17.511,17.511,0,0,1-5.054,2.254h-.025a.444.444,0,0,0,.142.873,21.356,21.356,0,0,0,11.017-4.515,13.005,13.005,0,0,0,4.128-5.008,7.207,7.207,0,0,0,.486-3.812,6.4,6.4,0,0,0-1.931-3.7,7.018,7.018,0,0,0-3.83-1.6,13.937,13.937,0,0,0-3.5.071,25.507,25.507,0,0,0-6.165,1.76,37.186,37.186,0,0,0-10.509,6.772,22.322,22.322,0,0,0-7.059,11.443,9.444,9.444,0,0,0,.128,4.66,8.531,8.531,0,0,0,2.925,4.206,14.712,14.712,0,0,0,7.3,2.733,40.225,40.225,0,0,0,12.847-.85,61.483,61.483,0,0,0,22.559-9.952,44.866,44.866,0,0,0,9.235-8.72,27.842,27.842,0,0,0,3.617-5.842,17.515,17.515,0,0,0,1.6-7.532,14.026,14.026,0,0,0-2.655-7.8,17.643,17.643,0,0,0-5.714-4.955,30.151,30.151,0,0,0-12.844-3.432,46.107,46.107,0,0,0-12.532,1.072,53,53,0,0,0-22.026,10.836,55.331,55.331,0,0,0-8.525,8.795,49.864,49.864,0,0,0-6.378,10.52,24.759,24.759,0,0,0-2.236,12.8,16.19,16.19,0,0,0,2.293,6.577,16.507,16.507,0,0,0,4.8,4.944,25.432,25.432,0,0,0,12.131,3.961c.756.067,1.5.085,2.243.11a61.918,61.918,0,0,0-17.441,10.949,81.587,81.587,0,0,0-18.382,24.241,87.632,87.632,0,0,0-5.909,14.449c-1.4,5.118-2.222,10.626-.752,16.681a15.3,15.3,0,0,0,5.5,8.742,11.136,11.136,0,0,0,5.32,2.051,13.464,13.464,0,0,0,4.958-.433,21.857,21.857,0,0,0,7.418-3.9,32.627,32.627,0,0,0,5.466-5.512.533.533,0,0,0,.075-.49.526.526,0,0,0-.664-.327c-4.731,1.622-9.473,3.322-13.349,3.255a7.857,7.857,0,0,1-2.35-.49,3.086,3.086,0,0,1-1.267-1.015,8.4,8.4,0,0,1-1.3-3.95,49.074,49.074,0,0,1,.632-12.454,60.38,60.38,0,0,1,3.528-13.313,83.246,83.246,0,0,1,6.268-12.578,74.737,74.737,0,0,1,8.348-11.411,56.6,56.6,0,0,1,19.531-14.7c1.43-.138,2.857-.327,4.255-.575a76.586,76.586,0,0,0,22.229-8.035,117.071,117.071,0,0,0,19.4-13.09,59.286,59.286,0,0,0,14.531-18.4,30.122,30.122,0,0,0,3.233-11.439,14.619,14.619,0,0,0-.919-6.041A11.311,11.311,0,0,0,605.59,140c-3.336-2.474-7.418-3.2-11.279-3.4-.6-.032-1.207-.039-1.814-.039a60.837,60.837,0,0,0-9.775.916m-21.48-1.061a66.908,66.908,0,0,0-23.766,5.324A62.4,62.4,0,0,0,516.8,155.481a48.589,48.589,0,0,0-12.554,22.158,52.686,52.686,0,0,0-.575,23.07,39.683,39.683,0,0,0-5.253,6.584,44.065,44.065,0,0,0-4.756,9.888,47.982,47.982,0,0,0-2.36,10.463,40.52,40.52,0,0,0,.085,10.57.461.461,0,0,0,.309.362.449.449,0,0,0,.568-.295c1.09-3.279,2.264-6.428,3.556-9.469a85.024,85.024,0,0,1,4.33-8.731,57.306,57.306,0,0,1,5.281-7.776,62.084,62.084,0,0,1,6.307-6.6l.043-.039a4.59,4.59,0,0,0,1.37-4.61c-1.892-7.148-3.191-14.584-1.839-21.892a42.677,42.677,0,0,1,9.558-19.993,61.245,61.245,0,0,1,18.041-14.41,69.13,69.13,0,0,1,22.4-7.46.461.461,0,0,0,.391-.454.449.449,0,0,0-.447-.429Zm176.212.5a.647.647,0,0,0,.479.791,92.146,92.146,0,0,1,29.611,12.948,79.924,79.924,0,0,1,22.136,22.758A101.468,101.468,0,0,1,802.45,202.4a127.358,127.358,0,0,1,3.229,15.563q.565,3.929.87,7.879c.192,2.577.319,5.345.277,7.688v.181l.007.2a125.981,125.981,0,0,1-4.11,38.946A154.974,154.974,0,0,1,787.942,308.7a161.832,161.832,0,0,1-23.528,31.443,252.8,252.8,0,0,1-30.442,26.648.663.663,0,0,0,.639,1.146,136.388,136.388,0,0,0,36.138-20.866,129.288,129.288,0,0,0,28.5-31.546,114.384,114.384,0,0,0,15.9-39.812,151.661,151.661,0,0,0,1.948-42.52l.014.383c-.11-3.159-.4-5.87-.76-8.752q-.559-4.259-1.377-8.451a129.484,129.484,0,0,0-4.369-16.486,107.79,107.79,0,0,0-15.688-30.165,85.377,85.377,0,0,0-25.26-22.435,86.584,86.584,0,0,0-15.29-6.939,102.23,102.23,0,0,0-16.178-3.925.423.423,0,0,0-.092-.007.657.657,0,0,0-.646.5" transform="translate(-446.772 -136.418)" fill="none"/></clipPath><linearGradient id="b" x1="-3.302" y1="3.86" x2="-3.294" y2="3.86" gradientUnits="objectBoundingBox"><stop offset="0" stop-color="#a37b25"/><stop offset="0.094" stop-color="#c5a75a"/><stop offset="0.227" stop-color="#f4e3a2"/><stop offset="0.23" stop-color="#edda93"/><stop offset="0.235" stop-color="#e8d387"/><stop offset="0.241" stop-color="#e5d080"/><stop offset="0.259" stop-color="#e5cf7f"/><stop offset="0.297" stop-color="#e3c76e"/><stop offset="0.389" stop-color="#e1b749"/><stop offset="0.439" stop-color="#e0b13c"/><stop offset="0.572" stop-color="#e9c86c"/><stop offset="0.73" stop-color="#f4e3a2"/><stop offset="0.75" stop-color="#f0dd9b"/><stop offset="0.778" stop-color="#e4cf8a"/><stop offset="0.809" stop-color="#d2b86e"/><stop offset="0.844" stop-color="#b99747"/><stop offset="0.869" stop-color="#a37b25"/><stop offset="1" stop-color="#e6bd55"/></linearGradient><clipPath id="c"><rect width="398.746" height="348.936" fill="none"/></clipPath></defs><g transform="translate(-446.72 -136.416)"><g transform="translate(446.904 136.418)"><g clip-path="url(#a)"><rect width="466.142" height="443.017" transform="matrix(0.82, -0.573, 0.573, 0.82, -131.333, 91.69)" fill="url(#b)"/></g></g><g transform="translate(446.72 136.422)"><g clip-path="url(#c)"><path d="M641.914,221.674l-21.5,46.342h6.6C630.6,256.541,637.6,253.5,650.4,255.835l5.2,12.181h13.267l-21.3-46.342ZM634.638,250.8l6.942-15.723,6.665,15.723ZM466.525,221.738h-19.8v46.278h17.153c18.715,0,30.7-9.8,30.7-24.231,0-14.9-11.507-22.048-28.046-22.048m-.273,40.632h-3.737a4.016,4.016,0,0,1-4.018-4.018V227.388h4.969c11.84,0,18.854,6.942,18.854,18.236,0,11.1-6.13,16.745-16.067,16.745m345.7-40.632L799.5,239.505l-11.638-17.767H774.041l16.88,24.5v21.778h11.844V245.624l16.813-23.886Zm-307.6,46.279h11.776V221.738H504.363ZM715.851,241.61c5.108-2.247,7.968-5.512,7.968-9.253,0-7.762-7.425-10.619-16.54-10.619H686.928v46.278h19.056c13.207,0,21.782-4.965,21.782-13.476,0-6.871-4.082-11.088-11.915-12.93M698.7,227.388h4.217c6.062,0,8.848,2.318,8.848,5.856,0,7.979-13.065,9.292-13.065,9.292Zm7.006,34.981h-2.988a4.014,4.014,0,0,1-4.018-4.018V248.187c7.528-2.658,17.079-1.622,17.079,5.118,0,5.242-4.014,9.065-10.073,9.065m-99.828-20.76c5.1-2.247,7.965-5.512,7.965-9.253,0-7.762-7.418-10.619-16.54-10.619H576.952v46.278h19.056c13.207,0,21.782-4.965,21.782-13.476,0-6.871-4.082-11.088-11.911-12.93m-17.15-14.222h4.217c6.062,0,8.852,2.318,8.852,5.856,0,7.979-13.068,9.292-13.068,9.292Zm7.01,34.981H592.75a4.019,4.019,0,0,1-4.021-4.018V248.187c7.528-2.658,17.083-1.622,17.083,5.118,0,5.242-4.014,9.065-10.073,9.065M752.7,221.67l-21.5,46.346h6.6c3.588-11.475,10.587-14.516,23.382-12.181l5.2,12.181h13.274l-21.3-46.342Zm-7.28,29.125,6.939-15.723,6.672,15.723ZM555.976,241.61c5.1-2.247,7.957-5.512,7.957-9.253,0-7.762-7.418-10.619-16.532-10.619H527.05v46.278H546.1c13.2,0,21.778-4.965,21.778-13.476,0-6.871-4.082-11.088-11.9-12.93m-17.157-14.222h4.22c6.059,0,8.852,2.318,8.852,5.856,0,7.979-13.072,9.292-13.072,9.292Zm7.013,34.981H542.84a4.017,4.017,0,0,1-4.021-4.018V248.187c7.531-2.658,17.086-1.622,17.086,5.118,0,5.242-4.014,9.065-10.073,9.065" transform="translate(-446.72 80.916)" fill="#fff"/><path d="M568.292,236.994a8.961,8.961,0,1,1,.012-12.673,8.942,8.942,0,0,1-.012,12.673M556.5,225.186a7.462,7.462,0,0,0-2.25,5.456,7.555,7.555,0,0,0,2.233,5.5,7.7,7.7,0,0,0,10.915,0,7.8,7.8,0,0,0,0-10.953,7.679,7.679,0,0,0-10.9,0m5.273.5a7.558,7.558,0,0,1,2.685.355,2.444,2.444,0,0,1,1.529,2.493,2.16,2.16,0,0,1-.961,1.945,3.721,3.721,0,0,1-1.422.476,2.379,2.379,0,0,1,1.689.964,2.713,2.713,0,0,1,.538,1.523v.718c0,.227.006.476.024.731a1.4,1.4,0,0,0,.083.515l.057.122h-1.624a.653.653,0,0,0-.023-.1c-.006-.033-.018-.068-.023-.109l-.038-.317v-.777a2.4,2.4,0,0,0-.926-2.25,4.233,4.233,0,0,0-1.928-.313H560.06v3.863h-1.735v-9.844Zm1.872,1.552a4.493,4.493,0,0,0-2.1-.367H560.06v3.566h1.567a4.69,4.69,0,0,0,1.656-.222,1.77,1.77,0,0,0,.357-2.978" transform="translate(-187.762 108.211)" fill="#fff"/></g></g></g></svg>