<?xml version="1.0" encoding="utf-8"?>
<!-- Generator: Adobe Illustrator 27.3.1, SVG Export Plug-In . SVG Version: 6.00 Build 0)  -->
<svg version="1.1" xmlns="http://www.w3.org/2000/svg" xmlns:xlink="http://www.w3.org/1999/xlink" x="0px" y="0px"
	 viewBox="0 0 108.4 47.7" style="enable-background:new 0 0 108.4 47.7;" xml:space="preserve">
<style type="text/css">
	.st0{fill:#E2061F;}
	.st1{display:none;}
	.st2{display:inline;fill:none;stroke:#81CCE0;stroke-width:0.25;stroke-miterlimit:10;}
</style>
<g id="Layer_1">
	<g>
		<g>
			<polygon class="st0" points="6.3,29.6 7.3,27.7 9.3,29.1 8.3,31 			"/>
			<polygon class="st0" points="9.5,29.1 10.5,27.2 12.5,28.6 11.5,30.6 			"/>
			<polygon class="st0" points="24.2,30 25.2,28.1 27.2,29.5 26.2,31.4 			"/>
			<polygon class="st0" points="27.4,29.6 28.4,27.7 30.4,29.1 29.4,31 			"/>
			<polygon class="st0" points="88,29.4 89,27.5 90.9,28.9 90,30.9 			"/>
			<polygon class="st0" points="47.4,17.3 48.3,15.4 50.3,16.8 49.4,18.8 			"/>
			<polygon class="st0" points="50.5,16.9 51.5,15 53.5,16.4 52.5,18.4 			"/>
			<polygon class="st0" points="40.6,17 41.6,15.1 43.6,16.5 42.6,18.5 			"/>
			<polygon class="st0" points="33.9,14.5 34.8,12.6 36.8,14 35.9,16 			"/>
			<polygon class="st0" points="20.7,7.4 21.6,5.5 23.6,6.9 22.6,8.9 			"/>
			<path class="st0" d="M89.9,12.2L89,13.7v0c0,0,2-0.1,2.7,0.1c0.3,0.1-0.1,0.4-0.1,0.4s-2,0.9-2.6,1.1c-0.1,0-0.2,0.2-0.2,0.2
				c2.4-0.2,2.3-0.3,2.7-0.5c0.7-0.5,1.6-1.9,1.7-2.1c0.1-0.2,0.1-0.2,0-0.3c-0.1,0-0.3-0.5-1.7-0.6C90.1,12.1,89.9,12.2,89.9,12.2"
				/>
			<path class="st0" d="M38,6l-0.8,1.5v0c0,0,2-0.1,2.7,0.1c0.2,0.1-0.1,0.4-0.1,0.4s-2,0.9-2.6,1.1c-0.1,0-0.2,0.2-0.2,0.2
				c2.4-0.2,2.3-0.3,2.7-0.5c0.7-0.5,1.6-1.9,1.7-2.1c0.1-0.2,0.1-0.2,0-0.3c-0.1,0-0.3-0.5-1.7-0.6C38.2,5.9,38,6,38,6"/>
			<path class="st0" d="M12.3,7.3c0.8-1.8,0.2-2.2,0-2.3C12,4.7,11.5,5,11.1,5.3c-0.5,0.4-0.7,0.8-0.7,1.4c0.1,0.5,1,1.1,1.1,1.2
				c0,0,0,0,0,0l0,0c-0.4,0.5-2,2-3.6,3.1c-1,0.7-3.7,2.5-3.7,2.5s0.6-0.2,0.7-0.3c0.4-0.2,2.1-1.2,3.6-2c1.5-0.9,3.2-3.1,3.2-3.1
				s0.1,0.1,0.1,0C12.2,8.3,12.6,9,12.6,9s0,0.1,0.1-0.1c0.1-0.1,0.2-0.9,0.2-1.1C12.8,7.6,12.3,7.3,12.3,7.3 M12,7
				c0,0-0.8-0.7-0.9-0.7C10.9,6.2,10.9,6,10.9,6c0.7-0.5,1-0.2,1.1,0C12.3,6.4,12,7,12,7"/>
			<path class="st0" d="M74.4,9.7c0.9-2,0.2-2.5,0-2.6C74,6.9,73.4,7.2,73,7.6c-0.5,0.4-0.8,0.9-0.7,1.5c0.1,0.6,1.1,1.2,1.3,1.3
				c0,0,0,0,0,0l0,0c-0.4,0.6-2.2,2.2-3.9,3.4c-1.1,0.7-4.2,2.8-4.2,2.8s0.7-0.3,0.8-0.3c0.4-0.2,2.4-1.3,4-2.2
				c1.6-1,3.6-3.4,3.6-3.4s0.1,0.1,0.1,0.1c0.3,0.2,0.7,0.9,0.7,0.9s0,0.1,0.1-0.1c0.1-0.1,0.2-1,0.2-1.2
				C74.9,10.2,74.4,9.7,74.4,9.7 M74,9.5c0,0-0.8-0.7-1-0.8c-0.2-0.1-0.2-0.3-0.2-0.3c0.8-0.6,1.1-0.2,1.3,0C74.3,8.8,74,9.5,74,9.5
				"/>
			<path class="st0" d="M28.1,8.3v0.3c0,0-0.4-0.3-0.8-0.4c0,0-0.1-0.1-0.1-0.1c0,0,0.1-0.9,0.2-0.9c0.1-0.1,0.2-0.2,0.3-0.2
				c0.1,0,1.1,0.4,1.5,2.3c0,0,0.2,0.9,0.2,0.9l0.1-0.5c0,0,0.2-2.1,0.3-2.2c0.1-0.3,0.3-0.7,0.6-0.7c0.3,0,0.9,0.5,0.9,0.5
				l-0.3,0.8c0,0-0.5-0.4-0.6-0.4c-0.4,0-0.5,0.6-0.5,1.7c-0.1,1.1-0.2,1.3-0.2,1.5c-0.1,0.2-0.1,0.3-0.1,0.3
				C28.9,9.1,28.1,8.3,28.1,8.3"/>
			<path class="st0" d="M6.6,17.3v0.3c0,0-0.4-0.3-0.8-0.4c0,0-0.1,0-0.1-0.1c0,0,0.1-0.9,0.2-0.9C5.9,16,6,15.9,6.1,15.9
				c0.1,0,1.1,0.4,1.5,2.3c0,0,0.2,0.9,0.2,0.9l0.1-0.5c0,0,0.2-2.1,0.3-2.2c0.1-0.3,0.3-0.7,0.6-0.7s0.9,0.5,0.9,0.5l-0.3,0.8
				c0,0-0.5-0.4-0.6-0.4c-0.4,0-0.5,0.6-0.5,1.7c-0.1,1.1-0.2,1.3-0.2,1.5c-0.1,0.2-0.1,0.3-0.1,0.3C7.4,18.1,6.6,17.3,6.6,17.3"/>
			<path class="st0" d="M20.5,16.2c0,0-0.2,0.1-0.3,0.2c-0.1,0.1-0.7,0.9-1,2.2c-0.3,1.4,0.4,1.7,0.4,1.7s0.5,0.2,1-0.9
				c0,0,0.2-0.4,0.2-0.6c0,0,0-0.2-0.1,0c-0.2,0.2-0.2,0.5-0.3,0.6c-0.2,0.2-0.2,0.2-0.2,0.2c-0.1,0-0.8,0-0.6-1.1
				c0.3-0.8,0.4-1.1,0.6-1.6C20.3,16.7,20.5,16.2,20.5,16.2"/>
			<path class="st0" d="M30,14.6c0,0-0.2,0.1-0.3,0.2c-0.1,0.1-0.7,0.9-1,2.2c-0.3,1.4,0.4,1.7,0.4,1.7s0.5,0.2,1-0.9
				c0,0,0.2-0.4,0.2-0.6c0,0,0-0.2-0.1,0c-0.2,0.2-0.2,0.5-0.3,0.6c-0.2,0.2-0.2,0.2-0.2,0.2c-0.1,0-0.8,0-0.6-1.1
				c0.3-0.9,0.4-1.1,0.6-1.6C29.8,15.2,30,14.6,30,14.6"/>
			<path class="st0" d="M74.4,15.1c0,0-0.2,0.1-0.3,0.2c-0.1,0.1-0.7,0.9-1,2.2c-0.3,1.4,0.4,1.7,0.4,1.7s0.5,0.2,1-0.9
				c0,0,0.2-0.4,0.2-0.6c0,0,0-0.2-0.1,0c-0.2,0.2-0.2,0.5-0.3,0.6c-0.2,0.2-0.2,0.2-0.2,0.2c-0.1,0-0.8,0-0.6-1.1
				c0.3-0.8,0.4-1.1,0.6-1.6C74.1,15.6,74.4,15.1,74.4,15.1"/>
			<path class="st0" d="M55.6,5.5c0,0-4.8,1.7-7,2.4c-2.1,0.8-8.4,3.2-8.4,3.2l-0.4,1c0,0,14.3-5.4,15.3-5.7
				C55.1,6.5,55.6,5.5,55.6,5.5"/>
			<path class="st0" d="M96.1,5.9c0,0-4.8,1.7-7,2.4C87,9.1,83,10.8,83,10.8l-0.4,1c0,0,11.8-4.6,12.7-4.8C95.3,7,96.1,5.9,96.1,5.9
				"/>
			<path class="st0" d="M81.3,27l-6.5,2.7l-0.7,1c0,0,5.4-2.4,6.4-2.6C80.5,28.2,81.3,27,81.3,27"/>
			<path class="st0" d="M23.5,27.5L17,30.3l-0.7,1c0,0,5.4-2.4,6.4-2.6C22.7,28.7,23.5,27.5,23.5,27.5"/>
			<path class="st0" d="M52,11.9c0,0.1,0,0.1,0,0.2l0,0c-0.1,0.4-0.2,0.9-0.7,0.9c-0.6,0-0.8-0.4-0.8-0.9c-0.1,0.5-0.3,1-0.9,1.1
				C49,13.2,49,12.5,49,12c0-0.3,0-0.6-0.2-0.9l0.2-0.6c0.2,0.4,0.1,0.8,0.1,1.2c0,0.4,0.2,0.9,0.6,0.8c0.4,0,0.6-0.4,0.6-0.8
				c0-0.3-0.1-0.6-0.2-0.9l0.2-0.7l0.1,0.2l0,0l0,0l0.1,0.1c0.1,0.2,0.1,0.3,0.1,0.5c0,0.5,0,1.4,0.8,1.3c0.1,0,0.2,0,0.3-0.1
				c-0.1-0.5-0.4-0.9-0.4-1.3c0,0,0.2-0.6,0.3-0.7C51.7,10.8,52,11.4,52,11.9"/>
		</g>
		<g>
			<path class="st0" d="M3.1,40.3c0-0.1,0-0.2,0-0.3c-0.1,0-0.2,0-0.3,0c-0.1,0-0.2,0-0.4,0c-0.1,0-0.3,0-0.4,0c-0.1,0-0.3,0-0.4,0
				c0-0.1,0-0.1,0-0.2c0-0.1,0-0.1,0-0.2c0-0.1,0-0.1,0-0.2c0-0.1,0-0.1,0-0.2c0.2,0,0.3,0,0.5,0c0.1,0,0.3,0,0.4,0
				c0.1,0,0.3,0,0.5,0c0.2,0,0.4,0,0.6,0c0.2,0,0.4,0,0.6,0c0.2,0,0.3,0,0.5,0c0.1,0,0.3,0,0.4,0c0.1,0,0.3,0,0.4,0
				c0,0.1,0,0.1,0,0.2c0,0.1,0,0.1,0,0.2c0,0.1,0,0.1,0,0.2c0,0.1,0,0.1,0,0.2c-0.1,0-0.2,0-0.3,0c-0.1,0-0.2,0-0.4,0
				c-0.1,0-0.2,0-0.4,0c-0.1,0-0.2,0-0.3,0c0,0,0,0.1,0,0.1c0,0,0,0.1,0,0.2v0.4v1.9c0,0.4,0,0.8,0,1.1c0,0.3,0,0.6,0,1
				c-0.1,0-0.2,0-0.3,0H3.7H3.3c-0.1,0-0.2,0-0.3,0c0-0.3,0-0.6,0-1c0-0.3,0-0.7,0-1.1v-1.9C3.1,40.6,3.1,40.4,3.1,40.3"/>
			<path class="st0" d="M10,42.2c-0.2,0-0.4,0-0.6,0c-0.2,0-0.4,0-0.6,0c-0.2,0-0.4,0-0.6,0v0.4c0,0.4,0,0.8,0,1.1c0,0.3,0,0.6,0,1
				c-0.1,0-0.2,0-0.3,0H7.8H7.4c-0.1,0-0.2,0-0.3,0c0-0.3,0-0.6,0-1c0-0.3,0-0.7,0-1.1v-1c0-0.4,0-0.8,0-1.1c0-0.3,0-0.6,0-1
				c0.1,0,0.2,0,0.3,0c0.1,0,0.2,0,0.3,0s0.2,0,0.3,0c0.1,0,0.2,0,0.3,0c0,0.3,0,0.6,0,1c0,0.3,0,0.7,0,1.1c0.1,0,0.3,0,0.5,0
				c0.2,0,0.4,0,0.7,0c0.3,0,0.5,0,0.7,0c0.2,0,0.3,0,0.5,0c0-0.4,0-0.8,0-1.1c0-0.3,0-0.6,0-1c0.1,0,0.2,0,0.3,0c0.1,0,0.2,0,0.3,0
				c0.1,0,0.2,0,0.3,0c0.1,0,0.2,0,0.3,0c0,0.3,0,0.6,0,1c0,0.3,0,0.7,0,1.1v1c0,0.4,0,0.8,0,1.1c0,0.3,0,0.6,0,1
				c-0.1,0-0.2,0-0.3,0h-0.3h-0.3c-0.1,0-0.2,0-0.3,0c0-0.3,0-0.6,0-1c0-0.3,0-0.7,0-1.1v-0.4C10.4,42.2,10.2,42.2,10,42.2"/>
			<path class="st0" d="M13.8,40.5c0-0.3,0-0.6,0-1c0.2,0,0.4,0,0.7,0c0.2,0,0.4,0,0.7,0c0.4,0,0.7,0,1,0c0.3,0,0.5,0,0.6,0
				c0,0.1,0,0.2,0,0.3c0,0.1,0,0.1,0,0.2c0,0,0,0.1,0,0.2c-0.1,0-0.3,0-0.5,0c-0.2,0-0.3,0-0.5,0c-0.2,0-0.3,0-0.4,0
				c-0.1,0-0.2,0-0.3,0c0,0.3,0,0.5,0,0.8c0,0.3,0,0.5,0,0.8c0.3,0,0.6,0,0.9,0c0.3,0,0.5,0,0.8,0c0,0.1,0,0.2,0,0.2
				c0,0,0,0.1,0,0.1c0,0,0,0.1,0,0.1c0,0,0,0.1,0,0.2c-0.6,0-1.1-0.1-1.7-0.1c0,0.2,0,0.3,0,0.5c0,0.2,0,0.3,0,0.5
				c0,0.3,0,0.6,0,0.9c0.3,0,0.6,0,0.9,0c0.3,0,0.6,0,0.9-0.1c0,0.1,0,0.1,0,0.2c0,0,0,0.1,0,0.2c0,0.1,0,0.1,0,0.2c0,0,0,0.1,0,0.1
				c-0.1,0-0.3,0-0.5,0c-0.2,0-0.5,0-0.8,0h-0.7h-0.4c-0.1,0-0.2,0-0.3,0c-0.1,0-0.1,0-0.1,0c0-0.3,0-0.6,0-1c0-0.3,0-0.7,0-1.1v-1
				C13.8,41.2,13.8,40.8,13.8,40.5"/>
			<path class="st0" d="M20.9,40.5c0-0.3,0-0.6,0-1c0.2,0,0.4,0,0.7,0c0.2,0,0.4,0,0.7,0c0.4,0,0.7,0,1,0c0.3,0,0.5,0,0.6,0
				c0,0.1,0,0.2,0,0.3c0,0.1,0,0.1,0,0.2c0,0,0,0.1,0,0.2c-0.1,0-0.3,0-0.5,0c-0.2,0-0.3,0-0.5,0c-0.2,0-0.3,0-0.4,0
				c-0.1,0-0.2,0-0.3,0c0,0.3,0,0.5,0,0.8c0,0.3,0,0.5,0,0.8c0.3,0,0.6,0,0.9,0c0.3,0,0.5,0,0.8,0c0,0.1,0,0.2,0,0.2
				c0,0,0,0.1,0,0.1c0,0,0,0.1,0,0.1c0,0,0,0.1,0,0.2c-0.6,0-1.1-0.1-1.7-0.1c0,0.2,0,0.3,0,0.5c0,0.2,0,0.3,0,0.5
				c0,0.3,0,0.6,0,0.9c0.3,0,0.6,0,0.9,0c0.3,0,0.6,0,0.9-0.1c0,0.1,0,0.1,0,0.2c0,0,0,0.1,0,0.2c0,0.1,0,0.1,0,0.2c0,0,0,0.1,0,0.1
				c-0.1,0-0.3,0-0.5,0c-0.2,0-0.5,0-0.8,0h-0.7h-0.4c-0.1,0-0.2,0-0.3,0c-0.1,0-0.1,0-0.1,0c0-0.3,0-0.6,0-1c0-0.3,0-0.7,0-1.1v-1
				C21,41.2,21,40.8,20.9,40.5"/>
			<path class="st0" d="M26.3,41.5c-0.2-0.3-0.3-0.6-0.5-0.8c-0.2-0.3-0.3-0.5-0.4-0.7c-0.1-0.2-0.2-0.4-0.3-0.5c0.1,0,0.2,0,0.3,0
				c0.1,0,0.2,0,0.3,0c0.1,0,0.2,0,0.3,0c0.1,0,0.2,0,0.3,0c0.1,0.3,0.3,0.6,0.5,0.9c0.2,0.3,0.3,0.6,0.5,0.9
				c0.2-0.3,0.4-0.6,0.6-0.9c0.2-0.3,0.4-0.6,0.5-0.9c0.1,0,0.1,0,0.2,0c0.1,0,0.1,0,0.2,0c0.1,0,0.1,0,0.2,0c0.1,0,0.1,0,0.2,0
				c-0.1,0.1-0.2,0.3-0.3,0.4c-0.1,0.2-0.3,0.4-0.4,0.6c-0.1,0.2-0.3,0.4-0.4,0.6c-0.1,0.2-0.3,0.4-0.4,0.6c0.1,0.2,0.3,0.5,0.4,0.8
				c0.2,0.3,0.3,0.6,0.4,0.8c0.1,0.3,0.3,0.5,0.4,0.7c0.1,0.2,0.2,0.4,0.3,0.5c-0.1,0-0.2,0-0.3,0h-0.3h-0.3c-0.1,0-0.2,0-0.3,0
				c-0.2-0.3-0.3-0.6-0.5-0.9c-0.2-0.3-0.3-0.6-0.5-1c-0.2,0.3-0.4,0.6-0.6,1c-0.2,0.3-0.4,0.6-0.5,0.9c-0.1,0-0.2,0-0.4,0h-0.2
				c-0.1,0-0.1,0-0.2,0c0.1-0.1,0.2-0.3,0.3-0.5c0.1-0.2,0.3-0.4,0.4-0.6c0.1-0.2,0.3-0.4,0.4-0.7c0.1-0.2,0.3-0.4,0.4-0.6
				C26.6,42.1,26.5,41.8,26.3,41.5"/>
			<path class="st0" d="M30.9,40.5c0-0.3,0-0.6,0-1c0.2,0,0.5,0,0.7,0c0.2,0,0.4,0,0.7,0c0.4,0,0.7,0,1,0c0.3,0,0.5,0,0.6,0
				c0,0.1,0,0.2,0,0.3c0,0.1,0,0.1,0,0.2c0,0,0,0.1,0,0.2c-0.1,0-0.3,0-0.5,0c-0.2,0-0.3,0-0.5,0c-0.2,0-0.3,0-0.4,0
				c-0.1,0-0.2,0-0.3,0c0,0.3,0,0.5,0,0.8c0,0.3,0,0.5,0,0.8c0.3,0,0.6,0,0.9,0c0.3,0,0.5,0,0.8,0c0,0.1,0,0.2,0,0.2
				c0,0,0,0.1,0,0.1c0,0,0,0.1,0,0.1c0,0,0,0.1,0,0.2c-0.6,0-1.1-0.1-1.7-0.1c0,0.2,0,0.3,0,0.5c0,0.2,0,0.3,0,0.5
				c0,0.3,0,0.6,0,0.9c0.3,0,0.6,0,0.9,0c0.3,0,0.6,0,0.9-0.1c0,0.1,0,0.1,0,0.2c0,0,0,0.1,0,0.2c0,0.1,0,0.1,0,0.2c0,0,0,0.1,0,0.1
				c-0.1,0-0.3,0-0.5,0c-0.2,0-0.5,0-0.8,0h-0.7h-0.4c-0.1,0-0.2,0-0.3,0c-0.1,0-0.1,0-0.1,0c0-0.3,0-0.6,0-1c0-0.3,0-0.7,0-1.1v-1
				C30.9,41.2,30.9,40.8,30.9,40.5"/>
			<path class="st0" d="M39.5,44.1c0,0.1-0.1,0.2-0.1,0.3c-0.4,0.2-0.9,0.3-1.5,0.3c-0.4,0-0.8-0.1-1.2-0.2
				c-0.3-0.1-0.6-0.3-0.9-0.5c-0.2-0.2-0.4-0.5-0.5-0.8c-0.1-0.3-0.2-0.6-0.2-1c0-0.5,0.1-1,0.2-1.3c0.2-0.4,0.4-0.7,0.7-0.9
				c0.3-0.2,0.6-0.4,1-0.5c0.4-0.1,0.7-0.2,1.1-0.2c0.1,0,0.3,0,0.4,0c0.1,0,0.3,0,0.4,0.1c0.1,0,0.3,0.1,0.4,0.1
				c0.1,0,0.2,0.1,0.3,0.1c-0.1,0.1-0.1,0.3-0.1,0.4c0,0.1,0,0.3-0.1,0.4h-0.1c-0.2-0.2-0.4-0.4-0.6-0.5c-0.2-0.1-0.4-0.2-0.7-0.2
				c-0.2,0-0.4,0-0.6,0.1c-0.2,0.1-0.4,0.2-0.6,0.4c-0.2,0.2-0.3,0.4-0.4,0.7c-0.1,0.3-0.2,0.6-0.2,1c0,0.4,0.1,0.7,0.2,1
				c0.1,0.3,0.2,0.5,0.4,0.7c0.2,0.2,0.4,0.3,0.6,0.4c0.2,0.1,0.4,0.1,0.6,0.1c0.1,0,0.2,0,0.4,0c0.1,0,0.2-0.1,0.4-0.1
				c0.1,0,0.2-0.1,0.3-0.2c0.1-0.1,0.2-0.1,0.3-0.2l0.1,0.1C39.6,43.9,39.5,44,39.5,44.1"/>
			<path class="st0" d="M42.7,44.7c-0.3-0.1-0.5-0.2-0.7-0.3c-0.2-0.2-0.4-0.4-0.5-0.6c-0.1-0.2-0.2-0.6-0.2-0.9c0-0.2,0-0.4,0-0.5
				c0-0.2,0-0.3,0-0.4c0-0.1,0-0.3,0-0.4c0-0.1,0-0.3,0-0.4c0-0.4,0-0.7,0-1c0-0.3,0-0.4,0-0.6c0.1,0,0.2,0,0.3,0c0.1,0,0.2,0,0.3,0
				c0.1,0,0.2,0,0.3,0c0.1,0,0.2,0,0.3,0c-0.1,0.5-0.1,0.9-0.1,1.4c0,0.4,0,0.8,0,1.3c0,0.5,0,0.8,0.1,1.1c0.1,0.3,0.2,0.5,0.3,0.7
				c0.1,0.2,0.3,0.3,0.5,0.3s0.4,0.1,0.6,0.1c0.3,0,0.5-0.1,0.7-0.2c0.2-0.2,0.3-0.4,0.4-0.6c0.1-0.3,0.1-0.5,0.2-0.9
				c0-0.3,0-0.7,0-1c0-0.3,0-0.7,0-1c0-0.3,0-0.7,0-1c0.1,0,0.1,0,0.2,0c0.1,0,0.1,0,0.2,0c0.1,0,0.1,0,0.2,0c0.1,0,0.1,0,0.2,0
				c0,0.1,0,0.3,0,0.4c0,0.2,0,0.4,0,0.6c0,0.2,0,0.5,0,0.8c0,0.3,0,0.6,0,0.9c0,0.9-0.2,1.5-0.6,1.9c-0.4,0.4-0.9,0.6-1.7,0.6
				C43.3,44.8,43,44.7,42.7,44.7"/>
			<path class="st0" d="M48.9,40.3c0-0.1,0-0.2,0-0.3c-0.1,0-0.2,0-0.3,0c-0.1,0-0.2,0-0.4,0c-0.1,0-0.3,0-0.4,0c-0.1,0-0.3,0-0.4,0
				c0-0.1,0-0.1,0-0.2s0-0.1,0-0.2c0-0.1,0-0.1,0-0.2c0-0.1,0-0.1,0-0.2c0.2,0,0.3,0,0.5,0c0.1,0,0.3,0,0.4,0c0.1,0,0.3,0,0.5,0
				c0.2,0,0.4,0,0.6,0c0.2,0,0.4,0,0.6,0c0.2,0,0.3,0,0.5,0c0.1,0,0.3,0,0.4,0c0.1,0,0.3,0,0.4,0c0,0.1,0,0.1,0,0.2
				c0,0.1,0,0.1,0,0.2c0,0.1,0,0.1,0,0.2s0,0.1,0,0.2c-0.1,0-0.2,0-0.3,0c-0.1,0-0.3,0-0.4,0c-0.1,0-0.2,0-0.4,0c-0.1,0-0.2,0-0.3,0
				c0,0,0,0.1,0,0.1c0,0,0,0.1,0,0.2v0.4v1.9c0,0.4,0,0.8,0,1.1c0,0.3,0,0.6,0,1c-0.1,0-0.2,0-0.3,0h-0.3h-0.3c-0.1,0-0.2,0-0.3,0
				c0-0.3,0-0.6,0-1c0-0.3,0-0.7,0-1.1v-1.9C48.9,40.6,48.9,40.4,48.9,40.3"/>
			<path class="st0" d="M53,40.5c0-0.3,0-0.6,0-1c0.1,0,0.2,0,0.3,0c0.1,0,0.2,0,0.3,0c0.1,0,0.2,0,0.3,0c0.1,0,0.2,0,0.3,0
				c0,0.3,0,0.7,0,1c0,0.3,0,0.7,0,1.1v1c0,0.4,0,0.8,0,1.1c0,0.3,0,0.6,0,1c-0.1,0-0.2,0-0.3,0h-0.3h-0.3c-0.1,0-0.2,0-0.3,0
				c0-0.3,0-0.6,0-1c0-0.3,0-0.7,0-1.1v-1C53,41.2,53,40.8,53,40.5"/>
			<path class="st0" d="M59.2,41.4c0.2-0.6,0.5-1.3,0.7-1.9c0.1,0,0.2,0,0.3,0c0.1,0,0.2,0,0.3,0c-0.1,0.3-0.3,0.7-0.5,1.1
				c-0.2,0.4-0.4,0.9-0.5,1.3c-0.2,0.5-0.4,0.9-0.6,1.4c-0.2,0.5-0.3,0.9-0.5,1.4c-0.1,0-0.2,0-0.3,0c-0.1,0-0.2,0-0.3,0
				c-0.1-0.2-0.2-0.4-0.3-0.7c-0.1-0.3-0.2-0.6-0.3-0.9c-0.1-0.3-0.3-0.7-0.4-1c-0.1-0.3-0.3-0.7-0.4-1c-0.1-0.3-0.2-0.6-0.4-0.9
				c-0.1-0.3-0.2-0.5-0.3-0.7c0.1,0,0.2,0,0.3,0c0.1,0,0.2,0,0.3,0c0.1,0,0.2,0,0.3,0c0.1,0,0.2,0,0.3,0c0.1,0.3,0.2,0.6,0.3,0.9
				c0.1,0.3,0.2,0.6,0.3,1c0.1,0.3,0.2,0.6,0.4,1c0.1,0.3,0.2,0.6,0.4,1C58.7,42.6,58.9,42,59.2,41.4"/>
			<path class="st0" d="M62,40.5c0-0.3,0-0.6,0-1c0.2,0,0.5,0,0.7,0c0.2,0,0.4,0,0.7,0c0.4,0,0.7,0,1,0c0.3,0,0.5,0,0.6,0
				c0,0.1,0,0.2,0,0.3c0,0.1,0,0.1,0,0.2c0,0,0,0.1,0,0.2c-0.1,0-0.3,0-0.5,0c-0.2,0-0.3,0-0.5,0c-0.2,0-0.3,0-0.4,0
				c-0.1,0-0.2,0-0.3,0c0,0.3,0,0.5,0,0.8c0,0.3,0,0.5,0,0.8c0.3,0,0.6,0,0.9,0c0.3,0,0.5,0,0.8,0c0,0.1,0,0.2,0,0.2
				c0,0,0,0.1,0,0.1c0,0,0,0.1,0,0.1c0,0,0,0.1,0,0.2c-0.6,0-1.1-0.1-1.7-0.1c0,0.2,0,0.3,0,0.5c0,0.2,0,0.3,0,0.5
				c0,0.3,0,0.6,0,0.9c0.3,0,0.6,0,0.9,0c0.3,0,0.6,0,0.9-0.1c0,0.1,0,0.1,0,0.2c0,0,0,0.1,0,0.2c0,0.1,0,0.1,0,0.2c0,0,0,0.1,0,0.1
				c-0.1,0-0.3,0-0.5,0c-0.2,0-0.5,0-0.8,0h-0.7h-0.4c-0.1,0-0.2,0-0.3,0c-0.1,0-0.1,0-0.1,0c0-0.3,0-0.6,0-1c0-0.3,0-0.7,0-1.1v-1
				C62,41.2,62,40.8,62,40.5"/>
			<path class="st0" d="M73.2,44.1c0,0.1-0.1,0.2-0.1,0.3c-0.4,0.2-0.9,0.3-1.5,0.3c-0.4,0-0.8-0.1-1.2-0.2
				c-0.3-0.1-0.6-0.3-0.9-0.5c-0.2-0.2-0.4-0.5-0.5-0.8c-0.1-0.3-0.2-0.6-0.2-1c0-0.5,0.1-1,0.2-1.3c0.2-0.4,0.4-0.7,0.7-0.9
				c0.3-0.2,0.6-0.4,1-0.5c0.4-0.1,0.7-0.2,1.1-0.2c0.1,0,0.3,0,0.4,0c0.1,0,0.3,0,0.4,0.1c0.1,0,0.3,0.1,0.4,0.1
				c0.1,0,0.2,0.1,0.3,0.1c-0.1,0.1-0.1,0.3-0.1,0.4c0,0.1,0,0.3-0.1,0.4h-0.1c-0.2-0.2-0.4-0.4-0.6-0.5s-0.4-0.2-0.7-0.2
				c-0.2,0-0.4,0-0.6,0.1c-0.2,0.1-0.4,0.2-0.6,0.4c-0.2,0.2-0.3,0.4-0.4,0.7c-0.1,0.3-0.2,0.6-0.2,1c0,0.4,0.1,0.7,0.2,1
				c0.1,0.3,0.2,0.5,0.4,0.7c0.2,0.2,0.4,0.3,0.6,0.4c0.2,0.1,0.4,0.1,0.6,0.1c0.1,0,0.2,0,0.4,0c0.1,0,0.2-0.1,0.4-0.1
				c0.1,0,0.2-0.1,0.3-0.2c0.1-0.1,0.2-0.1,0.3-0.2l0.1,0.1C73.3,43.9,73.2,44,73.2,44.1"/>
			<path class="st0" d="M74.9,41c0.1-0.3,0.3-0.6,0.6-0.9c0.3-0.2,0.6-0.4,0.9-0.6c0.4-0.1,0.8-0.2,1.2-0.2c0.4,0,0.8,0.1,1.1,0.2
				c0.3,0.1,0.6,0.3,0.9,0.5c0.3,0.2,0.5,0.5,0.6,0.8c0.1,0.3,0.2,0.7,0.2,1.2c0,0.4-0.1,0.7-0.2,1.1c-0.1,0.3-0.3,0.6-0.6,0.9
				c-0.3,0.2-0.6,0.4-0.9,0.6c-0.4,0.1-0.7,0.2-1.2,0.2c-0.4,0-0.8,0-1.1-0.1c-0.3-0.1-0.7-0.3-0.9-0.5c-0.3-0.2-0.5-0.5-0.6-0.8
				c-0.2-0.3-0.2-0.7-0.2-1.2C74.7,41.7,74.7,41.4,74.9,41 M79,41.1c-0.1-0.3-0.2-0.5-0.3-0.7c-0.1-0.2-0.3-0.3-0.5-0.4
				c-0.2-0.1-0.4-0.1-0.7-0.1c-0.3,0-0.5,0.1-0.7,0.2c-0.2,0.1-0.4,0.3-0.5,0.5c-0.1,0.2-0.2,0.5-0.3,0.7c-0.1,0.3-0.1,0.6-0.1,0.9
				c0,0.4,0,0.7,0.1,1c0.1,0.3,0.2,0.5,0.3,0.7c0.1,0.2,0.3,0.3,0.5,0.4c0.2,0.1,0.4,0.1,0.6,0.1c0.2,0,0.4,0,0.6-0.1
				c0.2-0.1,0.4-0.2,0.5-0.4c0.2-0.2,0.3-0.4,0.4-0.7c0.1-0.3,0.1-0.7,0.1-1.1C79.2,41.6,79.1,41.3,79,41.1"/>
			<path class="st0" d="M83.5,44.7c-0.3-0.1-0.5-0.2-0.7-0.3c-0.2-0.2-0.4-0.4-0.5-0.6c-0.1-0.2-0.2-0.6-0.2-0.9c0-0.2,0-0.4,0-0.5
				c0-0.2,0-0.3,0-0.4c0-0.1,0-0.3,0-0.4c0-0.1,0-0.3,0-0.4c0-0.4,0-0.7,0-1c0-0.3,0-0.4,0-0.6c0.1,0,0.2,0,0.3,0c0.1,0,0.2,0,0.3,0
				c0.1,0,0.2,0,0.3,0c0.1,0,0.2,0,0.3,0c-0.1,0.5-0.1,0.9-0.1,1.4c0,0.4,0,0.8,0,1.3c0,0.5,0,0.8,0.1,1.1c0.1,0.3,0.2,0.5,0.3,0.7
				c0.1,0.2,0.3,0.3,0.5,0.3c0.2,0.1,0.4,0.1,0.6,0.1c0.3,0,0.5-0.1,0.7-0.2c0.2-0.2,0.3-0.4,0.4-0.6c0.1-0.3,0.1-0.5,0.2-0.9
				c0-0.3,0-0.7,0-1c0-0.3,0-0.7,0-1c0-0.3,0-0.7,0-1c0.1,0,0.1,0,0.2,0c0.1,0,0.1,0,0.2,0c0.1,0,0.1,0,0.2,0c0.1,0,0.1,0,0.2,0
				c0,0.1,0,0.3,0,0.4c0,0.2,0,0.4,0,0.6c0,0.2,0,0.5,0,0.8c0,0.3,0,0.6,0,0.9c0,0.9-0.2,1.5-0.6,1.9c-0.4,0.4-0.9,0.6-1.7,0.6
				C84.1,44.8,83.8,44.7,83.5,44.7"/>
			<path class="st0" d="M88.8,40.1c0-0.2,0-0.4,0-0.6c0.1,0,0.3,0,0.3,0c0.1,0,0.2,0,0.3,0c0.5,0.6,1.1,1.2,1.6,1.8
				c0.5,0.6,1.1,1.2,1.6,1.8v-0.7v-0.7c0-0.2,0-0.5,0-0.7c0-0.2,0-0.5,0-0.7c0-0.2,0-0.4,0-0.5c0-0.1,0-0.2,0-0.3c0.1,0,0.3,0,0.3,0
				c0.1,0,0.2,0,0.3,0c0,0.5,0,0.9-0.1,1.2c0,0.4,0,0.7,0,1c0,0.3,0,0.6,0,1c0,0.3,0,0.7,0,1v0.9c-0.1,0-0.2,0-0.3,0
				c-0.1,0-0.2,0-0.3,0c-1-1.2-2.1-2.4-3.3-3.6c0,0.1,0,0.3,0,0.4c0,0.1,0,0.3,0,0.4v0.9c0,0.3,0,0.6,0,0.8c0,0.2,0,0.4,0,0.5
				c0,0.1,0,0.3,0,0.4c0,0.1,0,0.2,0,0.2c-0.1,0-0.1,0-0.2,0H89c-0.1,0-0.2,0-0.3,0c0,0,0-0.2,0-0.4c0-0.2,0-0.5,0-0.9
				c0-0.4,0-0.7,0-1.2c0-0.4,0-0.8,0-1.2C88.8,40.6,88.8,40.4,88.8,40.1"/>
			<path class="st0" d="M99.4,44.1c0,0.1,0,0.2-0.1,0.3c-0.4,0.2-0.9,0.3-1.5,0.3c-0.4,0-0.8-0.1-1.2-0.2c-0.3-0.1-0.6-0.3-0.9-0.5
				c-0.2-0.2-0.4-0.5-0.5-0.8c-0.1-0.3-0.2-0.6-0.2-1c0-0.5,0.1-1,0.2-1.3c0.2-0.4,0.4-0.7,0.7-0.9c0.3-0.2,0.6-0.4,1-0.5
				c0.4-0.1,0.7-0.2,1.1-0.2c0.1,0,0.3,0,0.4,0c0.1,0,0.3,0,0.4,0.1c0.1,0,0.3,0.1,0.4,0.1c0.1,0,0.2,0.1,0.3,0.1
				c-0.1,0.1-0.1,0.3-0.1,0.4c0,0.1,0,0.3-0.1,0.4h-0.1c-0.2-0.2-0.4-0.4-0.6-0.5s-0.4-0.2-0.7-0.2c-0.2,0-0.4,0-0.6,0.1
				c-0.2,0.1-0.4,0.2-0.6,0.4c-0.2,0.2-0.3,0.4-0.4,0.7c-0.1,0.3-0.2,0.6-0.2,1c0,0.4,0.1,0.7,0.2,1c0.1,0.3,0.2,0.5,0.4,0.7
				c0.2,0.2,0.4,0.3,0.6,0.4c0.2,0.1,0.4,0.1,0.6,0.1c0.1,0,0.2,0,0.4,0c0.1,0,0.2-0.1,0.4-0.1c0.1,0,0.2-0.1,0.3-0.2
				c0.1-0.1,0.2-0.1,0.3-0.2l0.1,0.1C99.4,43.9,99.4,44,99.4,44.1"/>
			<path class="st0" d="M101.2,40.5c0-0.3,0-0.6,0-1c0.1,0,0.2,0,0.3,0c0.1,0,0.2,0,0.3,0c0.1,0,0.2,0,0.3,0c0.1,0,0.2,0,0.3,0
				c0,0.3,0,0.7,0,1c0,0.3,0,0.7,0,1.1v1c0,0.4,0,0.8,0,1.1c0,0.3,0,0.6,0,1c-0.1,0-0.2,0-0.3,0h-0.3h-0.3c-0.1,0-0.2,0-0.3,0
				c0-0.3,0-0.6,0-1c0-0.3,0-0.7,0-1.1v-1C101.2,41.2,101.2,40.8,101.2,40.5"/>
			<path class="st0" d="M104.5,40.5c0-0.3,0-0.6,0-1c0.1,0,0.2,0,0.3,0c0.1,0,0.2,0,0.3,0c0.1,0,0.2,0,0.3,0c0.1,0,0.2,0,0.3,0
				c0,0.3,0,0.7,0,1c0,0.3,0,0.7,0,1.1v1c0,0.3,0,0.6,0,0.8c0,0.3,0,0.5,0,0.7c0.3,0,0.6,0,0.9,0c0.3,0,0.6,0,0.9-0.1
				c0,0.1,0,0.1,0,0.2c0,0,0,0.1,0,0.2c0,0.1,0,0.1,0,0.2c0,0,0,0.1,0,0.1c-0.1,0-0.3,0-0.5,0c-0.2,0-0.5,0-0.8,0h-0.7h-0.5
				c-0.1,0-0.2,0-0.3,0c-0.1,0-0.1,0-0.1,0c0-0.3,0-0.6,0-1c0-0.3,0-0.7,0-1.1v-1C104.5,41.2,104.5,40.8,104.5,40.5"/>
		</g>
		<path class="st0" d="M105.4,5.3l-1.2,1.7c0.1,0.2,0.2,0.4,0.3,0.5c0.4,6.8,1.5,16.6,1.5,18.8h0.1c0.2,0,0.3-0.1,0.4-0.2
			c0.6-0.8,0.7-3,0.7-3.7c0-4.5-0.8-11.3-0.8-11.3s-0.1-1-0.2-1.2c0-0.1,0-0.1,0-0.2c0.2,0.2,0.6,0.5,0.7,0.6c0,0,0.1,0.1,0.2,0.1
			c0.1-0.1,0.1-0.3,0.1-0.3C107.2,9.5,105.7,6.1,105.4,5.3z"/>
		<path class="st0" d="M62.7,5.3l-1.2,1.7c0.1,0.2,0.2,0.4,0.3,0.5c0.4,6.8,1.5,16.6,1.5,18.8h0.1c0.2,0,0.3-0.1,0.4-0.2
			c0.6-0.8,0.7-3,0.7-3.7c0-4.5-0.8-11.3-0.8-11.3s-0.1-1-0.2-1.2c0-0.1,0-0.1,0-0.2c0.2,0.2,0.6,0.5,0.7,0.6c0,0,0.1,0.1,0.2,0.1
			c0.1-0.1,0.1-0.3,0.1-0.3C64.5,9.5,63,6.1,62.7,5.3z"/>
		<path class="st0" d="M99.1,5.7l-1.2,1.7c0.1,0.2,0.2,0.4,0.3,0.5c0.3,4.1,0.5,6.7,0.7,8.8c0.1,1.9,0.4,4.4,0.9,6.4
			c0,0-2,1.3-2.9,1.5c-0.1,0-0.3,0-0.4,0c-1.6-0.1-1.7-1.7-1.8-2c0,0-0.1,0.1-0.2,0.3c0-0.1,0-0.2,0-0.3c0,0,0,0-0.1,0.1
			c0,0.1,0,0.2,0,0.3c-0.1,0.2-0.2,0.3-0.2,0.6c0,1.4,0.6,2.4,1.7,2.6c0,0,0.5,0.1,1,0.1c1.3-0.1,3-1.3,3.6-1.7c0.6,1.2,1.3,2,2.4,2
			c0.1,0,0.2,0,0.3,0c1.3,0,1.8-1.8,1.7-2.9c-0.1-0.9-0.8-1.5-1.7-1.5c-0.1,0-0.1,0-0.2,0c0,0-0.1,0-0.1,0c-0.5,0-0.9,0.1-1.3,0.2
			c-0.3-0.9-0.4-2.2-0.6-3.1c-0.2-1-0.8-8-0.9-8.8c0-0.2,0-0.3,0-0.5c0.2,0.3,0.5,0.6,0.6,0.7c0,0,0.2,0.1,0.3,0
			c0,0,0.1-0.2,0.1-0.2C100.9,9.9,99.4,6.5,99.1,5.7z M103.4,25.1c-0.5-0.1-1-0.5-1.3-1c0.3-0.1,0.6-0.1,0.9-0.1
			c0.5,0,1.1,0.2,1.1,0.8c0,0.1-0.1,0.2-0.1,0.2C103.9,25,103.7,25.1,103.4,25.1z"/>
		<path class="st0" d="M79.7,5.9c-0.1,0.2-1.1,2.1-1.1,2.1c0.2,1.9,1,11.1,1.2,14.2c-0.1,0.7-0.4,1.3-1.2,1.4
			c-0.8-0.1-1.7-1.1-2-1.9c0.1-0.2,0.1-0.5,0.2-0.7c-0.8,0.6-1.1,2-1.8,2.7c-0.2,0.1-0.4,0.2-0.7,0.3C74.3,24,74.2,24,74,24
			c-1.1-0.1-1.5-1-1.5-1.9c0.1-0.3,0.1-0.4,0.1-0.7c-0.1,0.1-0.4,0.3-0.4,0.3c-0.6,1.1-1.3,2.4-2.4,2.6c-0.1,0-0.3,0-0.5,0
			c-1.1-0.1-1.6-0.8-2-1.7c-0.4-0.8-0.4-1.1-0.6-1.5l-0.9,1.7c0.1,0.1,0.2,0.4,0.2,0.4c0.4,0.9,1.2,2.9,1.5,4.4
			c-0.1,0.1-0.1,0.2-0.2,0.3c-0.8,0.8-2.6,1.7-5.2,2.6c-3.8,1.3-7.9,1.8-10.6,1.9c-0.2,0-0.4,0-0.6,0c-8.2,0-14.9-2.6-18.9-5.1
			l-0.8-0.7l0.4,0.5l-0.7-0.5l1.9,2.6c2.9,3.9,13.2,5.1,17.9,5.1c0,0,0.1,0,0.1,0c0.1,0,0.1,0,0.2,0c4.4,0,12.8-1.7,15.9-4.4
			c0.4-0.4,0.7-1,0.9-1.5c0.3-0.6,0.4-1.5,0.4-2c0-0.1,0-0.3,0-0.4C68.4,26,68.7,26,69,26c0.1,0,0.2,0,0.3,0c0.9,0,1.7-0.5,2.3-1.6
			c0.3,0.8,1.1,1.3,2,1.3c0,0,0.1,0,0.1,0c0.1,0,0.1,0,0.2,0c1.1,0,1.8-0.9,2.2-2c0.5,0.8,1.4,1.6,2.1,1.6c0.1,0,0.1,0,0.2,0
			c0,0,0.1,0,0.1,0c1.4,0,1.9-1.2,1.9-2.4c0.6,1.7,2,3.1,3.8,3.2c0.1,0.4,0.1,1,0.1,1.1c0.3-0.2,0.4-0.7,0.4-1.1
			c3.6,0,8.3-3,11.2-3.6c0.5,0,0.7,0.1,0.7,0.1l0,0c0.2,0,0.3,0,0.3,0l0.8-1.8c-1.5-0.1-3-0.7-4.8-1.5c-2.2-0.9-4.2-1.9-6-1.9
			c0,0-0.1,0-0.1,0c-0.1,0-0.1,0-0.2,0c-1.1,0-1.8,0.4-2.6,1c-0.3,0.3-1.1,0.9-1,3c0,0.4,0.4,1.6,0.7,2.7c-0.2,0-0.2,0-0.4-0.1
			c-1.2-0.4-1.8-1.9-2.2-4.2C80.7,16.6,80.2,8.7,79.7,5.9z M91.3,21c0.6,0.2,1.3,0.5,1.9,0.8c-2.6,1-5.8,2.6-8.4,2.7c0,0,0,0-0.1,0
			c-0.3-1.3-0.6-2.6-0.8-3.8l0-0.2c0.7-0.6,1.3-1,2.2-1C87.9,19.5,89.6,20.3,91.3,21z"/>
		<path class="st0" d="M22.9,11l-0.6,2.3c0,0,1.5,4.9,2,7c-0.3,0.6-0.9,1.2-1.3,1.7c-1.6,1.7-3.9,3.8-5.7,3.9c0,0-0.1,0-0.1,0
			c-0.8-0.1-1.3-0.7-1.4-1.5c-0.1-1.2,0.4-2,0.5-3.1l-0.1-0.1c-0.8,0.8-1.1,3.1-1,4.3c0.1,1,0.5,2,1.5,2.3c0,0,0.3,0.1,0.4,0.1
			c0,0,0,0,0,0c0.1,0,0.2,0,0.3,0c2.1-0.1,5.8-3.3,7-5.3c0.2-0.3,0.3-0.5,0.3-0.8c0.3,2.1,1.2,4.3,3.4,4.3c0,0,0.2,0,0.3,0
			c1.9,0,2.7-1.6,3.3-2.5c0.3,2.3,2.3,2.4,2.3,2.4c0.1,0,0.3,0,0.4,0c0.8,0,1.7-0.3,2.4-0.8c0.8,0.5,1.6,0.8,2.3,0.8
			c0,0,0.1,0,0.1,0c0,0,0.1,0,0.1,0c1.7,0,2.4-1.4,3.1-2.2c0,0.2,0.1,0.4,0.2,0.6c0.6,1.4,2.5,1.9,3.9,1.9c0,0,0.1,0,0.1,0
			c0.1,0,0.1,0,0.2,0c2.9,0,5.2-2.2,7.2-2.8c0.2,1.2,0.6,2.7,2.1,2.7c0.1,0,0.1,0,0.2,0c0,0,0.1,0,0.1,0c0.9,0,2.3-0.6,2.8-1.4
			c0.1-0.1,1-1.7,0.9-4.1c-0.2-4.5-0.8-9.5-0.8-9.5s-0.1-1-0.2-1.2c0-0.1,0-0.1,0-0.2c0.2,0.2,0.6,0.5,0.7,0.6c0,0,0.2,0.1,0.3,0
			c0.1-0.1,0.1-0.2,0.1-0.2c0-0.6-1.5-4-1.8-4.8l-1.2,1.7c0.1,0.2,0.2,0.4,0.3,0.5c0.2,3.8,0.7,6.7,1,10.6c0.2,2.2,0.3,4,0.4,5.3
			c-0.6,0.5-1.5,0.9-2.2,0.9c-1.4-0.2-1.5-2.6-1.5-2.6c-2.3,0.4-4.6,2.6-7.7,2.6c0,0,0,0-0.1,0c0,0,0,0,0,0c0,0-0.1,0-0.1,0
			c-2.6,0-3.6-0.9-3.8-2.8l-0.2,0.1c-1.2,0.8-1.9,2.6-3.4,2.6c-0.4,0-1-0.2-1.6-0.4c0.7-0.9,1.2-2.1,1.2-3.2c0-0.7-0.3-2.4-1.3-2.4
			c-0.1,0-0.1,0-0.2,0c0,0-0.1,0-0.1,0c-1.4,0-3,3-3,4.2c0,0.6,0.2,1.1,0.6,1.6c-0.3,0.1-0.5,0.2-0.8,0.2c-1.6-0.1-2.1-1.9-2.1-3.1
			c0,0,0,0,0,0c-1.2,0.1-1.4,3.3-4,3.3c-2,0-2.6-1.9-2.8-3.8C25.5,17,24.4,13.9,22.9,11z M36,21.4c0-0.6,0.8-1.3,1.5-1.4
			c0.5,0.1,0.9,1.1,0.9,1.5c0,0.5-0.5,1.1-1.2,1.6C36.5,22.6,36,22,36,21.4z"/>
		<path class="st0" d="M16.6,13.5c0.2-0.6,0.6-1.2,0.6-1.9c-0.3-0.4-0.5-0.7-1-0.7c-0.1,0-0.2,0-0.3,0c-2.4,0-4.8,4-4.8,6.1
			c0,2.5,3.9,1.3,5.2,2.8c-2,1.7-5.9,3.7-8.7,3.8c-3.1-0.1-5-2.2-5-5.3c0-1.1,0.5-2.7,1-3.8c-1-0.1-1.9,3.8-1.8,5.3
			c0.1,3.1,1.9,5.2,4.6,5.6c0,0,0,0,0.1,0c0.2,0,0.3,0,0.5,0c0.1,0,0.2,0,0.3,0c0,0,0,0,0,0c3.5,0.1,10.1-2.8,10.1-6.6
			c0-2.2-4.5-1-5.3-2.8c0.4-1.3,2.1-3.2,3.6-3.4C16,12.8,16.4,13.2,16.6,13.5z"/>
	</g>
</g>
<g id="Layer_2" class="st1">
	<line class="st2" x1="-68.7" y1="89.6" x2="511.6" y2="89.6"/>
	<line class="st2" x1="-68.7" y1="83.9" x2="511.6" y2="83.9"/>
	<line class="st2" x1="-68.7" y1="46.1" x2="511.6" y2="46.1"/>
</g>
</svg>
