<?xml version="1.0" encoding="utf-8"?>
<!-- Generator: Adobe Illustrator 23.1.1, SVG Export Plug-In . SVG Version: 6.00 Build 0)  -->
<svg version="1.1" id="ARTWORK" xmlns="http://www.w3.org/2000/svg" xmlns:xlink="http://www.w3.org/1999/xlink" x="0px" y="0px"
	 viewBox="0 0 343.23 164.59" style="enable-background:new 0 0 343.23 164.59;" xml:space="preserve">
<style type="text/css">
	.st0{fill:#22234A;}
	.st1{fill:#2955A2;}
	.st2{fill:#50BCBD;}
</style>
<g>
	<path class="st0" d="M148.78,106.21c-2.24-0.77-4.21-1.31-4.21-2.47v-0.08c0-0.81,0.73-1.43,2.16-1.43c1.51,0,3.55,0.73,5.6,1.93
		l2.24-4.05c-2.24-1.51-5.1-2.39-7.72-2.39c-4.17,0-7.57,2.36-7.57,6.56v0.08c0,4.01,3.28,5.37,6.18,6.21
		c2.28,0.7,4.28,1.12,4.28,2.39v0.08c0,0.93-0.77,1.54-2.47,1.54c-1.93,0-4.28-0.85-6.52-2.47l-2.51,3.86
		c2.74,2.16,5.98,3.13,8.88,3.13c4.48,0,7.91-2.09,7.91-6.68v-0.08C155.03,108.56,151.68,107.17,148.78,106.21z"/>
	<path class="st0" d="M182.87,97.64c-2.82,0-4.98,1.16-6.79,3.28c-1.08-2.08-3.13-3.28-5.83-3.28c-2.97,0-4.75,1.58-6.1,3.32v-2.93
		h-5.87v20.69h5.87v-11.54c0-2.78,1.35-4.21,3.55-4.21c2.2,0,3.44,1.43,3.44,4.21v11.54H177v-11.54c0-2.78,1.35-4.21,3.55-4.21
		c2.2,0,3.44,1.43,3.44,4.21v11.54h5.87v-13.47C189.86,100.26,187.23,97.64,182.87,97.64z"/>
	<path class="st0" d="M202.56,97.79c-3.51,0-5.75,0.66-8.03,1.66l1.47,4.48c1.89-0.69,3.47-1.12,5.71-1.12
		c2.93,0,4.44,1.35,4.44,3.78v0.35c-1.47-0.5-2.97-0.85-5.06-0.85c-4.9,0-8.34,2.08-8.34,6.6v0.08c0,4.09,3.2,6.33,7.1,6.33
		c2.86,0,4.83-1.04,6.25-2.63v2.24h5.67v-12.01c0-2.78-0.69-5.06-2.24-6.6C208.08,98.64,205.76,97.79,202.56,97.79z M206.23,111.42
		c0,2.12-1.85,3.63-4.59,3.63c-1.89,0-3.2-0.93-3.2-2.51v-0.08c0-1.85,1.54-2.86,4.05-2.86c1.43,0,2.74,0.31,3.74,0.77V111.42z"/>
	<path class="st0" d="M220.97,102.19v-4.17h-5.87v20.69h5.87v-7.64c0-4.94,2.39-7.29,6.29-7.29h0.31v-6.14
		C224.1,97.48,222.17,99.34,220.97,102.19z"/>
	<path class="st0" d="M237.88,92.74h-5.87v5.29h-2.47v5.02h2.47v9.8c0,4.79,2.43,6.21,6.02,6.21c1.97,0,3.4-0.46,4.63-1.2v-4.71
		c-0.85,0.46-1.81,0.73-2.89,0.73c-1.31,0-1.89-0.66-1.89-2.01v-8.84h4.86v-5.02h-4.86V92.74z"/>
	<path class="st0" d="M257.79,98.91c-3.56,0-5.85,1.99-7.43,4.31v-3.9h-2.89v25.39h2.89V115c1.5,2.17,3.83,4.13,7.43,4.13
		c4.69,0,9.26-3.75,9.26-10.09v-0.07C267.06,102.58,262.44,98.91,257.79,98.91z M264.1,109.07c0,4.69-3.08,7.46-6.83,7.46
		c-3.6,0-7.02-3-7.02-7.5v-0.07c0-4.43,3.41-7.46,7.02-7.46c3.68,0,6.83,2.93,6.83,7.5V109.07z"/>
	<path class="st0" d="M278.76,99.02c-2.85,0-4.91,0.68-7.05,1.65l0.86,2.36c1.8-0.82,3.6-1.39,5.89-1.39c3.64,0,5.74,1.8,5.74,5.25
		v0.6c-1.72-0.49-3.45-0.83-5.93-0.83c-4.91,0-8.29,2.18-8.29,6.34v0.07c0,3.98,3.6,6.04,7.24,6.04c3.41,0,5.63-1.58,6.98-3.3v2.89
		h2.85v-11.85c0-2.48-0.67-4.35-2.03-5.7C283.64,99.77,281.5,99.02,278.76,99.02z M284.24,111.59c0,3.08-2.89,5.21-6.45,5.21
		c-2.63,0-4.88-1.43-4.88-3.86v-0.07c0-2.33,2.06-3.9,5.66-3.9c2.36,0,4.24,0.41,5.66,0.82V111.59z"/>
	<path class="st0" d="M295.95,93.47h-2.89v5.85h-2.7v2.55h2.7v11.7c0,3.94,2.36,5.48,5.48,5.48c1.39,0,2.48-0.3,3.49-0.83v-2.48
		c-1.01,0.49-1.84,0.68-2.81,0.68c-1.95,0-3.26-0.86-3.26-3.23v-11.33h6.15v-2.55h-6.15V93.47z"/>
	<path class="st0" d="M315.79,98.91c-3.34,0-5.36,1.69-6.64,3.79V91.33h-2.89v27.38h2.89v-11.1c0-3.64,2.48-6.08,5.81-6.08
		c3.41,0,5.36,2.25,5.36,5.85v11.33h2.89v-12.04C323.22,102.06,320.48,98.91,315.79,98.91z"/>
	<rect x="150.68" y="90.74" class="st0" width="2.42" height="2.9"/>
	<rect x="146.21" y="90.74" class="st0" width="2.42" height="2.9"/>
	<path class="st0" d="M165.48,82.55v0.08h1.1h0.51h22.03v-3.45c0-3.48-0.99-6.28-3-8.39c-2.05-2.15-4.81-3.21-8.26-3.21h-3.04
		l4.06-6.99h-2.83c-2.25,4.03-3.99,7.13-5.22,9.35h7.03c2.9,0,5.08,0.92,6.55,2.76c1.26,1.57,1.88,3.68,1.88,6.31
		c0,0.41-0.03,0.82-0.07,1.23h-19.13h-0.72c-2.56,0-3.68-1.09-4.95-4.37c-1.06-2.73-3.92-4.88-6-4.88c-1.23,0-1.84,0.03-1.84,0.07
		h0.03v2.15c2.8,0,4.43,1.57,4.43,4.64c0,4.09-3.99,7.92-8.56,7.92c-5.42,0-8.73-4.06-8.73-10.2v-2.97h-2.42v3.41
		c0,6.82,4.78,12.15,11.05,12.15c5.8,0,10.85-4.54,10.85-10.24C160.93,80.5,162.88,82.18,165.48,82.55z"/>
	<rect x="196.28" y="61.78" class="st0" width="2.42" height="2.9"/>
	<path class="st0" d="M219.44,76.62V60.55h-2.39v15.01c0,1.57-0.17,2.66-0.51,3.28c-0.48,0.96-1.43,1.43-2.9,1.43h-1.46v-0.03h-5.42
		c-0.38-8.77-4.16-13.14-11.36-13.14v2.25h0.92c2.83,0.17,4.95,1.33,6.31,3.55c1.13,1.84,1.67,4.3,1.67,7.34h-12.62v2.39h19.78h0.72
		h2.25C217.77,82.62,219.44,80.61,219.44,76.62z"/>
	<rect x="224.01" y="60.55" class="st0" width="2.39" height="22.07"/>
	<path class="st0" d="M242.57,79.72V67.14h-2.39v13.03c0,4.02-1.6,5.77-4.78,5.77v2.29C240.42,87.95,242.57,85.29,242.57,79.72z"/>
	<path class="st0" d="M307.41,82.62h2.25c3.34,0,5.02-2.01,5.02-6V60.55h-2.39v15.01c0,1.57-0.17,2.66-0.51,3.28
		c-0.48,0.96-1.43,1.43-2.9,1.43h-1.46v-0.03h-4.16c0.2-0.75,0.31-1.53,0.31-2.39c0-2.25-0.61-4.09-1.81-5.49
		c-1.26-1.47-3.04-2.22-5.25-2.22c-2.22,0-3.99,0.72-5.29,2.18c-1.26,1.47-1.91,3.31-1.91,5.56c0,0.85,0.1,1.64,0.27,2.35h-3.3
		h-0.72h-4.77c0.44-0.92,0.68-2.15,0.68-3.62v-9.48h-2.39v8.43c0,3.62-0.85,4.67-3.41,4.67h-4.09c0.44-0.92,0.65-2.15,0.65-3.62
		v-9.48h-2.39v8.43c0,3.62-0.72,4.67-2.9,4.67h-4.47V80.1c0.38-0.92,0.58-2.08,0.58-3.48v-9.48h-2.42v8.73c0,2.9-1.4,4.37-3.58,4.37
		h-2.38c-1.67,0-1.95,0-2.18-0.03c-0.92-0.14-1.57-0.48-1.95-1.06c-0.44-0.68-0.68-1.81-0.68-3.38V60.55h-2.46V77.2
		c0,1.81,0.48,3.17,1.47,4.13c0.85,0.85,1.88,1.3,3.1,1.3h1.91h0.79h30.9h0.72h4.32c1.26,1.98,3.24,2.97,5.87,2.97
		c2.52,0,4.43-0.99,5.73-2.97h4.5H307.41z M296.46,83.44c-1.47,0-2.59-0.55-3.38-1.67c-0.65-0.96-0.95-2.22-0.95-3.75
		c0-1.67,0.31-2.97,0.95-3.96c0.79-1.19,1.98-1.81,3.51-1.81c1.47,0,2.52,0.55,3.24,1.67c0.61,0.92,0.92,2.15,0.92,3.68
		C300.76,81.5,299.32,83.44,296.46,83.44z"/>
	<rect x="319.24" y="60.55" class="st0" width="2.39" height="22.07"/>
</g>
<g>
	<g>
		<path class="st1" d="M84.32,140.13h-9.44v-22.87c0-3.5-4.01-6.45-8.75-6.45s-8.75,2.95-8.75,6.45v22.87h-9.44v-22.87
			c0-8.76,8.16-15.89,18.19-15.89c10.03,0,18.19,7.13,18.19,15.89V140.13z"/>
	</g>
	<g>
		<path class="st1" d="M66.12,96.54c-8.55,0-15.51-6.96-15.51-15.51s6.96-15.51,15.51-15.51s15.51,6.96,15.51,15.51
			S74.67,96.54,66.12,96.54z M66.12,74.49c-3.61,0-6.54,2.93-6.54,6.54s2.93,6.54,6.54,6.54s6.54-2.93,6.54-6.54
			S69.73,74.49,66.12,74.49z"/>
	</g>
	<g>
		<path class="st1" d="M41.9,104.24c-6.12-6.32-9.49-14.65-9.49-23.45c0-18.59,15.12-33.71,33.71-33.71
			c18.59,0,33.71,15.12,33.71,33.71c0,3.34-0.49,6.65-1.45,9.82L89.81,88c0.71-2.33,1.07-4.75,1.07-7.21
			c0-13.65-11.1-24.75-24.75-24.75c-13.65,0-24.75,11.1-24.75,24.75c0,6.46,2.47,12.57,6.97,17.21L41.9,104.24z"/>
	</g>
	<g>
		<path class="st2" d="M98.6,120.68l-5.73-6.9c9.64-8,15.16-19.76,15.16-32.26c0-23.11-18.8-41.91-41.91-41.91
			c-23.11,0-41.91,18.8-41.91,41.91c0,2.86,0.29,5.71,0.86,8.48l-8.78,1.8c-0.69-3.36-1.04-6.82-1.04-10.28
			c0-28.05,22.82-50.87,50.87-50.87c28.05,0,50.87,22.82,50.87,50.87C117,96.7,110.29,110.97,98.6,120.68z"/>
	</g>
</g>
</svg>
