<?xml version="1.0" encoding="utf-8"?>
<!-- Generator: Adobe Illustrator 19.2.1, SVG Export Plug-In . SVG Version: 6.00 Build 0)  -->
<svg version="1.1" id="layer" xmlns="http://www.w3.org/2000/svg" xmlns:xlink="http://www.w3.org/1999/xlink" x="0px" y="0px"
	 viewBox="0 0 652 652" style="enable-background:new 0 0 652 652;" xml:space="preserve">
<path d="M288.6,289.3c-4.9-4.1-11.1-6.2-17.5-5.9h-40.6V360h11.3v-28.7h26.5c3.3,3.1,5.9,6.8,7.6,10.9l8,17.8h11.2l-9.2-21
	c-1.2-3.4-3-6.6-5.4-9.3c0.8-0.2,1.5-0.5,2.2-0.7c3.7-1.5,6.9-4.1,9.1-7.5c2.3-3.5,3.5-7.6,3.4-11.8v-5.4
	C295.2,298.7,292.8,293.1,288.6,289.3z M283.7,309.8c0.2,3.3-1.1,6.5-3.6,8.7c-3,2.2-6.6,3.3-10.3,3h-28v-28.4h27.5
	c9.6,0,14.5,3.8,14.6,11.4L283.7,309.8z"/>
<path d="M205,288c-7.8-3.5-16.3-5-24.8-4.7h-25.8V360h24.2c4.6,0.1,9.2-0.1,13.8-0.6c2.7-0.5,5.4-1.2,8-2.3c4.9-1.8,9.3-4.5,13-8.1
	c3.6-3.5,6.5-7.6,8.4-12.3c4.7-11.4,3.8-24.3-2.4-34.9C216.1,296,211.1,291.1,205,288z M205.4,342.1c-1.7,1.7-3.5,3.1-5.6,4.2
	c-2.4,1.3-5,2.2-7.6,2.8c-4.2,0.9-8.5,1.2-12.8,1.1h-13.8v-57.2h13.5c3.8-0.1,7.7,0.1,11.5,0.6c2.6,0.5,5.2,1.3,7.6,2.4
	c2.6,1.2,4.9,2.7,7,4.6c5.6,5.5,8.6,13,8.3,20.8C213.8,329.2,210.8,336.7,205.4,342.1z"/>
<path d="M413.7,331.4h14.8v16.6l-1.1,0.3c-5.1,1.8-10.4,2.8-15.7,3c-8.2,0.3-16.2-2.6-22.2-8.2c-5.8-5.5-8.9-13.2-8.6-21.1
	c-0.2-7.9,3-15.4,8.6-20.9c5.6-5.6,13.2-8.7,21.1-8.5c9.6,0.2,19,2.9,27.2,7.9v-11.2c-4.7-2.1-9.5-3.8-14.5-5.1
	c-4-0.9-8.2-1.4-12.3-1.4c-11-0.3-21.6,3.7-29.6,11.3c-7.8,7.4-12.1,17.7-11.8,28.4c-0.2,10.3,3.9,20.1,11.4,27.2
	c7.6,7.4,17.8,11,30.5,11c9.8-0.1,19.4-2.2,28.4-6.2v-32.8h-26L413.7,331.4z"/>
<path d="M486.4,282.8c-10.9-0.4-21.5,3.7-29.4,11.2c-7.7,7.3-11.9,17.6-11.6,28.2c-0.3,10.5,3.9,20.5,11.6,27.7
	c7.8,7.4,18.2,11.4,28.9,11c11.1,0.4,22-3.5,30.2-11c7.9-7.1,12.3-17.3,12.1-27.9c0.3-10.6-4-20.8-11.8-28
	C508.2,286.4,497.5,282.4,486.4,282.8z M507.9,342.5c-12.1,11-30.5,11.1-42.7,0.2c-5.6-5.3-8.7-12.8-8.5-20.5
	c-0.3-7.8,2.8-15.4,8.5-20.9c5.8-5.5,13.6-8.5,21.6-8.2c7.9-0.2,15.5,2.8,21.1,8.3c5.6,5.3,8.8,12.7,8.6,20.5
	C516.7,329.7,513.6,337.2,507.9,342.5z"/>
<path d="M298.2,360h11.2l8.6-18.9h37.1l8.6,18.9H375l-34.4-76.6h-7.9L298.2,360z M322.4,331.4l14.1-31.2l14.3,31.2L322.4,331.4z"/>
<polygon points="593.2,283.4 593.2,342.1 542.3,283.4 533.4,283.4 533.4,360 544.7,360 544.7,302.4 595,360 604.5,360 604.5,283.4 
	"/>
<path d="M619.4,349.9c2.3,2.2,2.4,5.9,0.2,8.2c-0.1,0.1-0.1,0.1-0.2,0.2c-1.1,1.1-2.6,1.7-4.2,1.8c-1.6,0-3.1-0.7-4.2-1.9
	c-1.1-1.1-1.7-2.6-1.7-4.2c0-1.6,0.6-3.1,1.8-4.3c2.3-2.3,6.1-2.3,8.4,0V349.9z M618.9,350.4c-1-1-2.4-1.6-3.8-1.6
	c-1.4,0-2.7,0.5-3.7,1.5c-1,1-1.6,2.3-1.6,3.7c0,1.4,0.6,2.7,1.6,3.7c1,1,2.3,1.6,3.7,1.6c1.4,0,2.8-0.6,3.8-1.6
	c1-0.9,1.5-2.3,1.5-3.6C620.5,352.7,619.9,351.4,618.9,350.4z M618.2,352.4c0,0.9-0.7,1.7-1.6,1.8l1.5,3h-1.4l-1.4-3h-1.5v3h-1.1
	v-6.7h2.5C617.3,350.6,618.2,351.2,618.2,352.4z M614,351.3v2.4h1.2c1.3,0,1.9-0.3,1.9-1.1c0-0.9-0.6-1.2-1.9-1.2H614z"/>
<path d="M70.2,271.6c-27,0-49,21.9-49,49s21.9,49,49,49s49-21.9,49-49C119.1,293.5,97.2,271.6,70.2,271.6z M70.2,365
	c-24.6,0-44.5-19.9-44.5-44.5s19.9-44.5,44.5-44.5s44.5,19.9,44.5,44.5l0,0C114.6,345.1,94.7,365,70.2,365z"/>
<path d="M102.9,307.1c2,1.4,3.7,3.1,5.1,5.1c-3-13.7-13.2-24.7-26.6-28.8l-8.5,8l7.9-3.2c7.4,3.4,12.7,10.1,14.3,18.1
	c0.9,4.4,0.5,9-1,13.3c0,0-0.8,2.1-4.4,1.4c-3.6-0.7-5.7-0.9-11.7,2.4l-0.5,0.3c0.6,5.9,2.6,11.5,5.8,16.4
	c-0.5-0.5-11.6-12.3-10.2-25.6c0-0.8,0.2-1.8,0.4-2.8c0,0,0.9,1,1.8,1.9c3.2-9.3,5.3-7.4,5.3-7.4c0.4-1.1,0.4-2.3,0-3.4
	c-2.8,1-5.4,2.7-7.5,4.9l0,0c0.8-2.3,2.5-4.1,4.7-5c5-1.6,5.2-3.5,5.4-4.6c0.1-1,0-2.1-0.4-3c-0.5,2.4-2.1,4.5-4.2,5.7
	c-1,0.4-1.9,0.7-2.7,0.9c0.9-1.8,1.5-2.7,1.5-2.7c0.3-0.4,0.7-0.5,1.2-0.4c0.3,0.1,0.5,0.3,0.6,0.6c0.2-1.5-0.3-3-1.2-4.2
	c-2.9,1.9-5.5,4.3-7.5,7.2c-0.9,0.2-1.8,0.6-2.6,1.1c-0.2,0.2-0.4,0.5-0.6,0.7l-0.6,0.8c-1.7,0.6-3.4,1.4-5,2.2l2.5,1.7l-0.6,1.2
	c-1.2,0.7-2.7,1.7-4.4,2.8l2.7,1.3l-0.4,1.2c-1.1,0.9-2.5,2-3.9,3.4l3,1c0,0.6-0.2,1.3-0.2,1.9v0.7c-2.9-1.6-6.3-2.1-9.5-1.2
	c-3.6,0.7-4.4-1.4-4.4-1.4c-1.6-4.3-1.9-8.9-1-13.4c1.6-8,6.9-14.7,14.3-18.1l7.9,3.2l-8.5-8c-13.5,4-23.7,15-26.6,28.8
	c1.4-2,3.1-3.7,5.1-5.1c-6.1,8.9-7,20.5-2.3,30.2c-1.8-13,3.2-19.9,3.2-19.9c-5,14,0.4,29.5,12.9,37.4c-4.3-4.7-7.1-10.7-7.9-17.1
	c1.9,2.9,4.3,5.6,7.1,7.7c0.7,3.3,4.3,14.1,19.7,14.6c5.1,0,10.1-1.7,14-5c0.4,0.2,0.9,0.3,1.3,0.3c2.2-2.2,4.1-4.7,5.6-7.5
	c-2.6,2-5.5,3.6-8.6,4.8c0.1,0.4,0.3,0.8,0.5,1.2c-3.3,1.9-7,2.8-10.8,2.7c-4,0.5-7.8-1.7-9.3-5.3c2.4,0.5,4.9,0.8,7.3,0.8
	c10.8,0.1,21-5.4,26.9-14.5c-0.8,6.4-3.5,12.4-7.9,17.1c12.5-7.9,17.9-23.5,12.9-37.4c0,0,5.1,6.9,3.2,19.9
	C110,327.4,109,316,102.9,307.1z"/>
</svg>
