<?xml version="1.0" encoding="utf-8"?>
<!-- Generator: Adobe Illustrator 24.2.1, SVG Export Plug-In . SVG Version: 6.00 Build 0)  -->
<svg version="1.1" id="HAMAD_x5F_2" xmlns="http://www.w3.org/2000/svg" xmlns:xlink="http://www.w3.org/1999/xlink" x="0px" y="0px" viewBox="0 0 246 243.3" style="enable-background:new 0 0 246 243.3;" xml:space="preserve">
  <style type="text/css">
	.st0{fill:#1A2A54;}
	.st1{clip-path:url(#SVGID_2_);}
	.st2{clip-path:url(#SVGID_4_);fill:url(#SVGID_5_);}
	.st3{clip-path:url(#SVGID_7_);}
	.st4{clip-path:url(#SVGID_9_);fill:url(#SVGID_10_);}
	.st5{clip-path:url(#SVGID_12_);}
	.st6{clip-path:url(#SVGID_14_);fill:url(#SVGID_15_);}
	.st7{fill:url(#SVGID_16_);}
	.st8{fill:url(#SVGID_17_);}
	.st9{fill:url(#SVGID_18_);}
	.st10{fill:url(#SVGID_19_);}
	.st11{fill:url(#SVGID_20_);}
	.st12{fill:url(#SVGID_21_);}
</style>
  <g>
    <linearGradient id="SVGID_2_" gradientUnits="userSpaceOnUse" x1="54.2639" y1="118.3334" x2="188.3195" y2="118.3334">
      <stop offset="0" style="stop-color:#215EAC" />
      <stop offset="0.5205" style="stop-color:#27AAE1" />
      <stop offset="1" style="stop-color:#46C1BE" />
    </linearGradient>
    <path style="fill:url(#SVGID_2_);" d="M176,168.3H66.5c-6.8,0-12.3-5.5-12.3-12.3V80.6c0-6.8,5.5-12.3,12.3-12.3H176
		c6.8,0,12.3,5.5,12.3,12.3v75.5C188.3,162.8,182.8,168.3,176,168.3z M69.3,153.3h104.1v-70H69.3V153.3z" />
    <linearGradient id="SVGID_4_" gradientUnits="userSpaceOnUse" x1="54.5275" y1="105.0472" x2="188.1613" y2="105.0472">
      <stop offset="0" style="stop-color:#215EAC" />
      <stop offset="0.5205" style="stop-color:#27AAE1" />
      <stop offset="1" style="stop-color:#46C1BE" />
    </linearGradient>
    <rect x="54.5" y="97.5" style="fill:url(#SVGID_4_);" width="133.6" height="15" />
    <linearGradient id="SVGID_5_" gradientUnits="userSpaceOnUse" x1="159.5399" y1="118.8889" x2="112.7283" y2="144.5597">
      <stop offset="0" style="stop-color:#46C1BE" />
      <stop offset="0.4795" style="stop-color:#27AAE1" />
      <stop offset="1" style="stop-color:#215EAC" />
    </linearGradient>
    <path style="fill:url(#SVGID_5_);" d="M106.8,132.5c0-3.9,3.1-7,7-7s7,3.1,7,7c0,3.9-3.1,7-7,7S106.8,136.4,106.8,132.5z
		 M135.4,139.5c3.9,0,7-3.1,7-7c0-3.9-3.1-7-7-7s-7,3.1-7,7C128.4,136.4,131.5,139.5,135.4,139.5z M155.6,139.5c3.9,0,7-3.1,7-7
		c0-3.9-3.1-7-7-7c-3.9,0-7,3.1-7,7C148.6,136.4,151.7,139.5,155.6,139.5z" />
  </g>
</svg>