<?xml version="1.0" encoding="UTF-8"?> <svg xmlns="http://www.w3.org/2000/svg" id="Layer_2" data-name="Layer 2" viewBox="0 0 446.47 132.75"><defs><style> .cls-1 { fill: #010202; } </style></defs><g id="Layer_1-2" data-name="Layer 1"><g id="Layer_1-3" data-name="Layer 1"><g><g><path class="cls-1" d="m195.88,132.48h-5.88v-17.28h5.88c4.98,0,8.22,3.54,8.22,8.64s-3.24,8.64-8.22,8.64Zm-.07-15.96h-4.38v14.64h4.38c4.36,0,6.8-3.16,6.8-7.32s-2.44-7.32-6.8-7.32Z"></path><path class="cls-1" d="m210.75,126.03v-10.83h1.44v10.81c0,3.41,2.07,5.45,5.18,5.45s5.15-2.04,5.15-5.45v-10.81h1.44v10.83c0,4.48-2.89,6.72-6.6,6.72s-6.61-2.24-6.61-6.72Z"></path><path class="cls-1" d="m231.69,115.2h6.5c3.26,0,5.43,1.49,5.43,4.51,0,1.64-1,3.11-2.44,3.69,1.77.37,3.39,1.92,3.39,4.28,0,2.91-1.99,4.81-5.73,4.81h-7.15v-17.29Zm6.5,1.32h-5.06v6.4h5.06c2.29,0,3.96-1.02,3.96-3.21s-1.67-3.19-3.96-3.19Zm.62,7.69h-5.68v6.97h5.65c2.49,0,4.28-1.1,4.28-3.51.01-2.41-1.78-3.46-4.25-3.46Z"></path><path class="cls-1" d="m262.37,127.03h-8.52l-2.24,5.45h-1.49l7.2-17.28h1.67l7.22,17.28h-1.57l-2.27-5.45Zm-7.97-1.3h7.45l-3.71-9.01-3.74,9.01Z"></path><path class="cls-1" d="m272.65,115.2h1.44v17.28h-1.44v-17.28Z"></path></g><g><path class="cls-1" d="m24.32,70.08c-2.16,0-4.88,1.12-6.48,2.24h-.56c1.52-5.92,2.24-11.68,2.24-19.28v-6.96c0-6.08-.4-10.24-.88-14.8v-.48l14.96-1.44v.48c-.64,5.52-1.12,11.12-1.12,17.6,0,12.64,1.84,17.28,7.92,17.28,7.44,0,12.56-7.6,12.56-19.6,0-15.52-6.72-20.96-18.16-20.96-5.84,0-12.4,1.84-18.08,1.84C5.52,26,0,19.52,0,7.84h.8c2.88,5.92,8.4,7.84,13.84,7.84,7.76,0,15.2-3.28,23.76-3.28,14.96,0,28.24,10.08,28.24,30.88,0,18.48-9.68,29.84-24.48,29.84-7.12,0-13.68-3.04-17.84-3.04Z"></path><path class="cls-1" d="m70,53.68c0-12.88,10-20.32,10-32.96,0-4.4-.64-8.48-1.6-11.36h.8c5.28,4.48,9.28,13.2,9.28,22,0,13.68-5.2,18.08-5.2,24.72,0,5.2,3.2,8.16,8.08,8.16,5.76,0,9.52-4.16,9.52-12.24,0-5.52-.4-16.56-.96-26v-.4h13.12v.4c-.16,4.56-.4,11.44-.4,16.08v11.36c0,6.56.4,14.48.88,18.88h-.56c-2.56-1.36-5.12-2.24-7.68-2.24-4.72,0-8,3.04-15.44,3.04-11.92,0-19.84-7.76-19.84-19.44Z"></path><path class="cls-1" d="m128.64,60.88c4.8,0,8.88,2.56,12.56,2.56s5.76-2.08,5.76-5.12c0-10.16-28.24-.16-28.24-19.92,0-9.44,6.8-14.16,15.84-14.16,6.56,0,11.76,2.56,16.48,2.56,2.8,0,4.88-.88,5.84-2.64h.56c1.04,6.64-1.84,11.76-9.12,11.76-4.24,0-8.72-2.08-11.84-2.08-3.28,0-5.12,1.76-5.12,4.48,0,10,28.4.16,28.4,19.84,0,9.84-7.2,14.8-16.32,14.8-6.88,0-12.72-2.88-18.16-2.88-2.72,0-5.44.72-7.44,2.24h-.56c.32-7.84,4.8-11.44,11.36-11.44Z"></path><path class="cls-1" d="m163.51,10.96c0-4.24,3.44-7.04,8.48-7.04s8.4,2.8,8.4,7.04-3.36,6.96-8.4,6.96-8.48-2.8-8.48-6.96Zm1.12,14.64h14.64v.32c-.72,7.36-1.36,14.96-1.36,22.64s.64,15.28,1.36,22.64v.32h-14.64v-.32c.72-7.36,1.28-14.96,1.28-22.64s-.56-15.28-1.28-22.64v-.32Z"></path><path class="cls-1" d="m201.59,23.12c0,1.84.72,2.48,3.12,2.48h12.32v2.64l-1.68.16c-10.4.96-13.52,3.44-13.52,10.8v17.2c0,4.88,2.72,8.08,6.56,8.08,3.04,0,6.48-1.84,9.44-4.4h.32c-4.16,9.28-9.28,13.04-15.84,13.04-8.4,0-13.04-5.12-12.96-14.24l.16-21.36c.08-6.32-1.28-8.48-5.92-10.56v-.56c8.96-.8,12.64-6.24,17.04-17.76h1.12l-.16,14.48Z"></path><path class="cls-1" d="m242.23,10.64c10.08,0,24.96,6,32.8,6,3.92,0,6.48-1.52,7.68-3.36h.56c0,12.16-5.92,14.4-12.96,14.4-9.36,0-22.16-5.28-31.44-5.28-6.72,0-10.88,3.52-13.76,7.68h-.56c0-11.04,5.84-19.44,17.68-19.44Zm5.84,39.28c0-7.2-.56-14.4-1.2-20.72v-.72l15.44,3.28v.4c-.48,5.84-.72,12.16-.72,17.76,0,7.2.24,13.92.88,21.28v.32h-15.28v-.32c.64-7.36.88-14.08.88-21.28Z"></path><path class="cls-1" d="m317.67,78c0,4.4.64,8.48,1.6,11.36h-.8c-5.28-4.48-9.28-13.2-9.28-22,0-13.68,5.2-19.68,5.2-26.32,0-4.88-3.28-8.16-7.92-8.16-6,0-10,3.76-10,12.24,0,5.52.4,16.56.96,26v.4h-13.12v-.4c.56-19.36,1.12-44.64,1.12-49.76,0-7.84-.64-15.68-2.24-21.36h.24c9.28,6,13.76,15.28,13.76,21.92,0,2.08-.16,3.92-1.36,7.12,4.8-3.76,8.64-5.04,12-5.04,11.92,0,19.84,7.92,19.84,19.84,0,12-10,21.76-10,34.16Z"></path><path class="cls-1" d="m374.31,72.32c-2.4-1.76-5.68-2.88-8.4-2.88-5.04,0-9.28,3.68-17.6,3.68-10.96,0-18.4-6.48-18.4-16.24,0-8.72,6.08-14.56,14.96-14.56,5.76,0,11.36,2.24,14.96,8v.96c-2.56-1.2-5.84-1.92-8.96-1.92-5.68,0-8.48,3.68-8.48,8,0,4.96,4.16,7.36,9.52,7.36,6.4,0,10.56-4.16,10.56-12.4v-8.48c0-6.08-3.28-9.52-9.04-9.52-2.8,0-6.4.8-9.52.8-7.76,0-11.04-4.8-10-10.96h.16c1.12,1.44,3.76,2.32,6.48,2.32,4.64,0,10.56-2.48,16.56-2.48,10.08,0,17.12,7.04,17.12,17.6v11.04c0,8.4.24,14.16.88,19.68h-.8Z"></path><path class="cls-1" d="m425.03,43.44c0,12.88-10,20.32-10,34.56,0,2.8.64,6.88,1.6,9.76h-.8c-5.28-4.48-9.28-13.2-9.28-22,0-13.68,5.2-18.08,5.2-24.72,0-5.2-3.2-8.16-8.08-8.16-5.76,0-9.04,4.16-9.04,12.24,0,5.52.4,16.56.96,25.2v1.2h-13.6v-1.2c.16-3.76.4-10.64.4-15.28v-11.36c0-6.56-.4-14.48-.88-18.88h.56c2.56,1.36,5.12,2.24,7.6,2.24,4.88,0,8.08-3.04,15.52-3.04,11.92,0,19.84,7.76,19.84,19.44Z"></path><path class="cls-1" d="m429.59,10.96c0-4.24,3.44-7.04,8.48-7.04s8.4,2.8,8.4,7.04-3.36,6.96-8.4,6.96-8.48-2.8-8.48-6.96Zm1.12,14.64h14.64v.32c-.72,7.36-1.36,14.96-1.36,22.64s.64,15.28,1.36,22.64v.32h-14.64v-.32c.72-7.36,1.28-14.96,1.28-22.64s-.56-15.28-1.28-22.64v-.32Z"></path></g></g></g></g></svg> 