<?xml version="1.0" encoding="UTF-8"?>
<svg id="Layer_1" data-name="Layer 1" xmlns="http://www.w3.org/2000/svg" version="1.1" viewBox="0 0 487.56 127.56">
  <defs>
    <style>
      .cls-1 {
        fill: #be1f2d;
        stroke-width: 0px;
      }
    </style>
  </defs>
  <g>
    <path class="cls-1" d="M169.64,59.42c-.36,0-.65,0-.94,0-6.52,0-13.04,0-19.56,0-.58,0-1.05-.13-1.54-.47-1.1-.78-2.32-1.32-3.59-1.78-.73-.26-1.46-.03-2.2-.03-.13,0-.26.19-.51.38.38.18.63.34.9.42,4.66,1.54,7.62,4.7,8.98,9.39.39,1.34.54,2.71.54,4.1-.01,5.06,0,10.12,0,15.18,0,.14,0,.28,0,.42-.03.45-.19.66-.62.67-1.11.02-2.22.02-3.33,0-.44,0-.6-.22-.62-.67-.01-.16,0-.32,0-.49,0-4.76,0-9.52,0-14.28,0-1.58-.18-3.13-.79-4.61-.93-2.25-2.51-3.91-4.64-5.04-1.76-.94-3.66-1.41-5.66-1.43-1.85-.02-3.7-.04-5.55-.05-.22,0-.45.03-.75.06v.81c0,8.13,0,16.26,0,24.4,0,.12,0,.23,0,.35,0,.78-.17.95-.92.96-.92,0-1.85,0-2.77,0-.75,0-.88-.15-.88-.91,0-2.91,0-5.82,0-8.73,0-5.91,0-11.83,0-17.74,0-.27-.02-.54-.04-.87-.31-.02-.55-.04-.8-.04-5.39,0-10.78,0-16.16,0-.09,0-.19,0-.28,0-.52.03-.59.09-.63.61-.13,1.73-.24,3.45-.4,5.18-.23,2.46-.46,4.92-.74,7.37-.29,2.5-.6,5-.97,7.48-.28,1.85-.64,3.69-1,5.52-.41,2.06-.83,4.12-1.31,6.16-.5,2.16-1.06,4.3-1.62,6.44-.48,1.83-.97,3.66-1.51,5.47-.79,2.65-1.6,5.3-2.43,7.94-.72,2.26-1.46,4.52-2.23,6.77-.54,1.58-1.15,3.12-2.26,4.41-.84.97-1.88,1.58-3.11,1.97-.94.3-1.87.35-2.8.21-.81-.12-1.6-.42-2.38-.71-1.8-.68-3.43-1.7-5.09-2.67-5.71-3.33-11.25-6.93-16.73-10.62-7.32-4.94-14.48-10.09-21.48-15.48-4.38-3.37-8.71-6.8-12.87-10.43-2.71-2.37-5.4-4.77-8.04-7.23-3.64-3.39-7.11-6.94-10.23-10.82-1.73-2.14-3.35-4.36-4.69-6.77-.88-1.6-1.64-3.26-2.12-5.03-.37-1.35-.51-2.73-.36-4.12.14-1.3.61-2.51,1.35-3.6,2.38-3.53,5.04-6.84,7.96-9.95,5.68-6.06,12.14-11.15,19.19-15.51,4.43-2.74,9.04-5.13,13.78-7.27,3.7-1.67,7.47-3.18,11.33-4.47,2.83-.94,5.65-1.9,8.51-2.74,2.7-.79,5.44-1.47,8.17-2.15,2.33-.58,4.67-1.12,7.02-1.6,2.01-.41,4.05-.71,6.07-1.06.75-.13,1.49-.26,2.26-.23,1.65.08,3.25.42,4.77,1.04,1.81.74,3.19,2.01,4.32,3.58,1.13,1.56,1.95,3.3,2.63,5.09.96,2.55,1.93,5.09,2.78,7.68.7,2.1,1.3,4.24,1.81,6.39.64,2.69,1.2,5.41,1.67,8.14.36,2.11.57,4.26.79,6.39.15,1.51.25,3.04.3,4.56.07,2.45.08,4.89.1,7.34,0,.51-.08,1.01-.09,1.52,0,.49.08.56.56.59.16.01.32,0,.49,0,5.18,0,10.36,0,15.54,0h.9c.03-.33.06-.59.06-.86,0-7.39,0-14.79,0-22.18,0-1.22.02-1.23,1.25-1.22.14,0,.28,0,.42.01.39.05.57.23.6.63.02.28,0,.55,0,.83,0,8.09,0,16.17,0,24.26v.65c.55.22,3.88.25,4.65.05v-2.1c.34-.03.61-.07.87-.07,1.53,0,3.05-.02,4.58,0,.55.01.81-.19,1.02-.7,1.69-4.14,3.41-8.28,5.13-12.41,1.19-2.88,2.39-5.75,3.59-8.63.25-.6.5-1.19.74-1.79.2-.51.55-.76,1.11-.75.83.02,1.66,0,2.5,0,.68,0,.87.28.61.92-.58,1.41-1.17,2.81-1.75,4.22-1.13,2.73-2.26,5.46-3.4,8.18-1.4,3.37-2.8,6.73-4.2,10.1-.09.21-.16.42-.26.71.23.05.4.12.57.12.55.01,1.11,0,1.66,0,7.91,0,15.82,0,23.72,0,.32,0,.64,0,1.04,0,.03-.32.06-.59.07-.85,0-3.23-.1-6.47.02-9.7.19-5.22,2.34-9.4,6.97-12.09,2.17-1.26,4.56-1.89,7.07-1.95,1.11-.03,2.22-.05,3.32.05,3.46.32,6.56,1.53,9.11,3.95,1.5,1.42,2.57,3.14,3.25,5.09.61,1.74.87,3.52.86,5.37-.02,10,.08,20.01-.04,30.01-.06,5.47-2.6,9.62-7.56,12.15-1.86.94-3.85,1.38-5.92,1.58-2.78.26-5.5-.02-8.11-1.01-3.66-1.38-6.3-3.87-7.81-7.5-.8-1.92-1.17-3.93-1.17-6.01.01-4.53,0-9.06,0-13.58,0-.27-.02-.54-.04-.91ZM104.4,50.7c0-3.35-.21-6.69-.61-10.02-.27-2.18-.56-4.35-.96-6.51-.39-2.11-.88-4.2-1.41-6.28-.45-1.79-.97-3.57-1.56-5.31-.78-2.29-1.63-4.56-2.5-6.82-.58-1.51-1.24-2.99-2.24-4.28-.87-1.11-1.92-1.87-3.37-2.11-1.57-.26-3.09-.02-4.61.25-1.62.28-3.22.62-4.82.98-2.68.6-5.38,1.16-8.03,1.86-3.19.85-6.36,1.78-9.51,2.78-2.62.83-5.21,1.74-7.77,2.72-5.66,2.16-11.14,4.72-16.39,7.73-4.6,2.64-8.98,5.6-13.06,8.98-2.88,2.39-5.62,4.94-8.13,7.73-2.35,2.62-4.56,5.34-6.52,8.26-.23.34-.41.72-.55,1.11-.44,1.24-.19,2.47.17,3.67.62,2.05,1.66,3.9,2.84,5.68,2.36,3.55,5.19,6.73,8.14,9.79,1.36,1.41,2.78,2.78,4.21,4.12,1.95,1.83,3.9,3.68,5.94,5.42,3.07,2.63,6.17,5.23,9.34,7.74,4.16,3.28,8.36,6.49,12.61,9.64,5.29,3.92,10.72,7.66,16.21,11.28,4.59,3.03,9.22,5.99,14.01,8.7,1.08.61,2.16,1.25,3.36,1.61.65.2,1.18.12,1.62-.41.19-.23.39-.47.52-.73.3-.65.61-1.3.83-1.98,1.13-3.42,2.26-6.84,3.34-10.27.69-2.18,1.3-4.38,1.92-6.58.44-1.55.85-3.12,1.24-4.68.45-1.79.9-3.58,1.31-5.38.36-1.6.7-3.2.99-4.82.46-2.52.95-5.04,1.3-7.57.39-2.86.69-5.73.95-8.6.37-4.07.69-8.14.98-12.21.13-1.82.13-3.64.19-5.47ZM195.65,54.83c.02-.3.05-.5.05-.7,0-2.89,0-5.78,0-8.66,0-1.27-.13-2.53-.53-3.75-1.12-3.38-3.31-5.77-6.61-7.11-2.26-.92-4.59-.94-6.94-.37-3.48.85-5.82,2.97-7.09,6.3-.65,1.71-.84,3.5-.84,5.31,0,9.4.03,18.8.05,28.2,0,1.49.3,2.94.84,4.33.97,2.47,2.62,4.32,5.06,5.43,1.6.73,3.29,1.05,5.05,1.03,3.51-.04,6.33-1.5,8.53-4.18,1.76-2.14,2.49-4.65,2.48-7.4,0-4.39,0-8.78,0-13.17,0-.2-.04-.39-.07-.66-.36,0-.66,0-.95,0-5.13,0-10.27,0-15.4,0-.29,0-.58-.04-.87-.05v-4.51c1.47,0,2.9,0,4.32-.01,1.43,0,2.87,0,4.3,0s2.87,0,4.3,0c1.43,0,2.85,0,4.32-.01Z"/>
    <path class="cls-1" d="M344.32,59.24c.98-1.16,1.93-2.33,2.47-3.76-.04-.03-.09-.07-.13-.1-.15.18-.3.36-.44.55-.89,1.27-1.99,2.3-3.36,3.04-.47.26-.94.48-1.5.47-.21,0-.45.1-.63.23-1.3.95-2.71,1.67-4.26,2.11-.48.14-.52.3-.25.84.77,1.55,1.55,3.09,2.32,4.64,1.92,3.86,3.85,7.73,5.77,11.59.87,1.76,1.74,3.52,2.61,5.28.06.12.13.24.18.37.21.6.01.83-.62.9-.85.1-1.34-.22-1.76-.99-2.7-4.97-5.45-9.91-8.18-14.87-1.03-1.86-2.05-3.72-3.07-5.58-.2-.37-.45-.52-.88-.52-3.42.01-6.84,0-10.27.01-.18,0-.36.03-.61.06-.02.29-.05.56-.05.83,0,6.61,0,13.21,0,19.82,0,.12,0,.23,0,.35,0,.74-.14.88-.9.89-.88,0-1.76,0-2.64,0-.93,0-1.04-.12-1.04-1.03,0-7.99,0-15.99,0-23.98q0-.97-.99-.98c-4.35,0-8.69,0-13.04,0-.29,0-.59,0-.96,0-.08-1.53-.02-2.97-.04-4.5.33-.03.62-.07.91-.07,4.37,0,8.74,0,13.11,0,.29,0,.59,0,.96,0,.02-.35.06-.61.06-.88,0-3.77-.06-7.53.02-11.3.11-5.45,2.54-9.54,7.46-12.03,2.01-1.02,4.18-1.44,6.42-1.51,1.7-.05,3.37.11,5.01.57,4.39,1.26,7.52,3.92,9.12,8.26.6,1.64.87,3.34.84,5.09-.04,2.06-.02,4.11,0,6.17.01,1.76-.38,3.43-1.03,5.05-.05.12-.08.26-.14.48.26.03.48.08.69.08.94,0,1.88,0,2.82,0,4.88,0,9.76,0,14.64,0,.29,0,.59-.03.94-.04.02-.32.05-.59.05-.86,0-3.14-.03-6.28,0-9.43.04-3.41,1.04-6.51,3.21-9.17,1.63-2,3.71-3.36,6.15-4.22,1.86-.65,3.77-.94,5.72-.95,3.54-.02,6.88.71,9.84,2.78,2.33,1.63,3.93,3.81,4.86,6.49.57,1.63.83,3.3.83,5.03-.01,10.07.07,20.15-.04,30.22-.06,5.47-2.58,9.63-7.54,12.16-1.75.89-3.62,1.34-5.57,1.56-2.9.32-5.73.06-8.45-.97-4.38-1.67-7.2-4.8-8.44-9.32-.4-1.46-.57-2.94-.56-4.45.02-4.44,0-8.87,0-13.31v-.88c-.38-.02-.67-.05-.96-.05-5.92,0-11.84,0-17.76,0-.27,0-.54,0-.81,0-.03-.06-.05-.12-.08-.18ZM389.89,54.83c.02-.31.05-.49.05-.67,0-2.91,0-5.82,0-8.73,0-1.25-.13-2.49-.52-3.69-1.13-3.43-3.36-5.85-6.72-7.18-2.22-.88-4.5-.9-6.81-.34-3.53.85-5.9,3.01-7.16,6.4-.64,1.71-.8,3.5-.8,5.31,0,8.92,0,17.83,0,26.75,0,1.55.12,3.08.54,4.59.61,2.19,1.76,4,3.55,5.4,1.73,1.35,3.75,1.96,5.91,2.13,1.25.1,2.5.03,3.71-.31,2.16-.61,4.02-1.75,5.49-3.45,1.3-1.49,2.16-3.2,2.56-5.15.21-1.03.24-2.06.25-3.1.01-4.13,0-8.27,0-12.4q0-.97-.99-.97c-5.13,0-10.27,0-15.4,0-.29,0-.59-.03-.93-.05-.02-1.53-.06-2.99.03-4.54h17.25ZM326.4,54.84c.39,0,.68,0,.98,0,4.14,0,8.27,0,12.41,0,.21,0,.42,0,.62,0,.36.01.57-.17.62-.52.11-.68.27-1.37.29-2.05.05-1.85.05-3.69.06-5.54,0-1.18-.04-2.35-.27-3.51-.57-2.83-1.96-5.13-4.51-6.58-2.7-1.54-5.57-1.72-8.5-.76-2.5.82-4.26,2.51-5.37,4.89-.82,1.76-1.05,3.62-1.06,5.53,0,4.9,0,9.79,0,14.69,0,.22.02.45.03.74.3.02.55.05.79.05,2.77,0,5.55.03,8.32-.01,1.03-.02,2.07-.13,3.09-.31,1.29-.22,2.46-.78,3.52-1.55.11-.08.18-.22.37-.44-.39-.02-.63-.04-.87-.04-3.24,0-6.47,0-9.71,0-.27,0-.54-.03-.83-.05v-4.53Z"/>
    <path class="cls-1" d="M398.66,59.42v-4.54c.31-.02.58-.04.84-.04,3.49,0,6.98,0,10.47,0,.18,0,.37,0,.55,0,.29,0,.46-.12.56-.41.23-.67.49-1.34.76-2,.79-1.97,1.92-3.73,3.17-5.43,1.79-2.4,3.88-4.52,6.11-6.51,4.81-4.29,10.16-7.84,15.72-11.09,3.39-1.98,6.86-3.82,10.39-5.53,3.66-1.77,7.35-3.46,11.14-4.93,2.65-1.03,5.29-2.07,7.96-3.01,3.24-1.14,6.53-2.16,9.9-2.88,1.62-.35,3.26-.69,4.94-.67,1.16.01,1.99.58,2.39,1.65.79,2.07,1.16,4.2,1.16,6.43,0,3-.64,5.86-1.65,8.65-1.6,4.45-4.01,8.46-6.75,12.28-2.88,4-6.09,7.72-9.51,11.27-3.07,3.18-6.3,6.18-9.65,9.05-.63.54-.64.55-.06,1.1,2.1,2.01,3.94,4.22,5.44,6.71,1.72,2.85,2.96,5.88,3.71,9.13.61,2.65.89,5.33.86,8.04-.02,2.59-.31,5.16-.8,7.7-.7,3.62-1.78,7.11-3.29,10.48-.11.25-.23.5-.36.75-.75,1.48-2.19,1.97-3.73,1.31-2.34-1-4.58-2.2-6.79-3.45-5.24-2.95-10.3-6.18-15.18-9.69-3.9-2.81-7.67-5.78-11.24-9.02-2.47-2.24-4.81-4.59-6.98-7.12-2.46-2.87-4.64-5.93-6.26-9.36-1.24-2.63-2.08-5.38-2.19-8.31-.02-.45-.09-.52-.52-.55-.18-.01-.37,0-.55,0-3.24,0-6.47,0-9.71,0-.27,0-.54,0-.88,0ZM476.52,22.1c-.14-.89-.26-1.78-.41-2.66-.08-.43-.19-.49-.62-.44-.09.01-.18.04-.27.05-2.61.51-5.17,1.21-7.69,2.06-2.95,1-5.89,2.04-8.79,3.18-3.63,1.42-7.2,2.99-10.71,4.69-4.59,2.23-9.1,4.61-13.44,7.31-5.25,3.27-10.28,6.82-14.56,11.33-1.77,1.87-3.37,3.87-4.53,6.18-.68,1.35-1.4,2.72-1.3,4.32.01.17-.1.35-.15.53-.06.22-.15.44-.17.66-.21,1.85.17,3.63.76,5.37.87,2.58,2.23,4.91,3.78,7.13,2.36,3.37,5.2,6.3,8.17,9.12,2.54,2.4,5.23,4.62,8,6.74,5.4,4.13,11.07,7.87,16.98,11.23,1.36.78,2.76,1.5,4.15,2.23.45.24.56.2.72-.26.58-1.73,1.21-3.44,1.67-5.2.88-3.36,1.31-6.79,1.21-10.28-.09-2.98-.57-5.88-1.57-8.68-1.54-4.33-4.09-7.99-7.53-11.04-.5-.44-1.01-.88-1.52-1.32-.48-.42-.71-.92-.72-1.58-.02-.85.46-1.37,1.06-1.84,2.62-2.06,5.11-4.27,7.5-6.58,3.71-3.58,7.27-7.3,10.45-11.37,3.12-4,5.93-8.2,7.81-12.94,1.01-2.55,1.74-5.16,1.72-7.96Z"/>
    <path class="cls-1" d="M266.81,59.42c-.43,0-.72,0-1.02,0-6.52,0-13.04,0-19.56,0-.56,0-1.01-.13-1.48-.45-1.25-.85-2.59-1.51-4.05-1.91-.59-.16-.67-.41-.37-.96.16-.28.29-.57.4-.88.1-.28.28-.4.57-.39.21,0,.42,0,.62,0,7.93,0,15.86,0,23.79,0h1.02c.02-.35.05-.62.05-.88,0-3.14-.03-6.28,0-9.43.04-3.33.99-6.37,3.07-9.01,1.66-2.1,3.8-3.53,6.33-4.41,1.86-.65,3.77-.93,5.72-.93,3.54-.01,6.88.73,9.83,2.81,2.3,1.63,3.88,3.79,4.81,6.44.58,1.65.84,3.34.83,5.1-.02,10.07.08,20.15-.04,30.22-.07,5.45-2.6,9.58-7.53,12.1-1.75.89-3.62,1.35-5.57,1.56-2.9.32-5.73.07-8.45-.97-4.38-1.67-7.2-4.79-8.45-9.31-.41-1.48-.57-2.98-.56-4.52.02-4.41,0-8.83,0-13.24v-.95ZM292.77,54.84c.02-.31.05-.49.05-.67,0-2.91,0-5.82,0-8.73,0-1.27-.13-2.53-.54-3.75-1.13-3.38-3.33-5.77-6.63-7.1-2.24-.9-4.54-.93-6.87-.37-3.53.85-5.9,3-7.16,6.4-.64,1.71-.8,3.5-.81,5.31,0,8.92,0,17.83,0,26.75,0,1.57.12,3.13.55,4.66.6,2.11,1.71,3.87,3.42,5.25,1.75,1.41,3.81,2.04,6.02,2.22,1.27.1,2.55.03,3.78-.33,2.04-.59,3.81-1.65,5.24-3.22,1.38-1.52,2.3-3.27,2.73-5.29.22-1.03.26-2.06.26-3.1.01-4.16,0-8.32,0-12.47q0-.98-.99-.98c-5.13,0-10.27,0-15.4,0-.29,0-.59-.03-.94-.05-.02-1.53-.06-2.99.02-4.53h17.25Z"/>
    <path class="cls-1" d="M219.98,59.42c-5.07,0-10,0-14.98,0v-4.51c.31-.02.6-.06.89-.06,4.37,0,8.74,0,13.11,0,.29,0,.59-.03.94-.04.01-.3.04-.55.04-.8,0-7.42,0-14.83,0-22.25,0-.07,0-.14,0-.21,0-.86.1-.95.96-.96.9,0,1.8,0,2.71,0,.78,0,.92.16.92.94,0,8.27,0,16.54,0,24.81,0,.23.02.45.03.66.55.18,3.74.22,4.61.05.02-.68.04-1.38.06-2.14.29-.02.54-.06.78-.06,1.57,0,3.15-.01,4.72,0,.46,0,.7-.16.88-.6,1.71-4.16,3.43-8.32,5.16-12.47,1.43-3.45,2.88-6.9,4.3-10.36.24-.59.61-.87,1.26-.85.78.03,1.57,0,2.36,0,.73,0,.91.27.63.95-.69,1.66-1.39,3.32-2.08,4.98-1.02,2.45-2.03,4.9-3.05,7.35-1.29,3.11-2.59,6.22-3.88,9.33-.19.47-.38.93-.59,1.43.2.13.37.24.53.34.01.05.04.1.03.14-.11.5-.24.99-.33,1.48-.07.36-.25.52-.62.51-.31,0-.67-.06-.8.48.24.12.49.28.75.36,3.78,1.2,6.51,3.6,8.19,7.18.88,1.88,1.33,3.88,1.33,5.97,0,5.18,0,10.35,0,15.53,0,.16.01.32,0,.48-.04.4-.21.6-.61.61-1.11.02-2.22.02-3.33,0-.44,0-.6-.21-.63-.66-.01-.16,0-.32,0-.49,0-4.76,0-9.52,0-14.28,0-1.58-.18-3.13-.79-4.61-.93-2.25-2.51-3.91-4.64-5.05-1.76-.94-3.66-1.41-5.66-1.43-2.59-.02-5.18-.04-7.77-.05-.85,0-.85,0-.85.84,0,8.16,0,16.31,0,24.47,0,1.21-.06,1.27-1.24,1.27-.79,0-1.57,0-2.36,0-.88,0-.98-.12-.98-1.01,0-8.78,0-17.56,0-26.34v-.94Z"/>
    <path class="cls-1" d="M69.16,32.84c.14-.31.24-.56.35-.81.76-1.75,2.1-2.84,3.89-3.39,2.12-.66,4.16-.47,6.06.7,2.14,1.32,2.98,3.31,2.92,5.75-.05,1.9-.63,3.67-1.43,5.37-1,2.12-2.21,4.1-3.78,5.85-.42.46-.87.89-1.3,1.34-.38.39-.85.57-1.38.48-1.16-.21-2.33-.38-3.46-.68-2.44-.63-4.78-1.54-7-2.76-1.49-.82-2.84-1.81-3.97-3.09-1.04-1.18-1.68-2.52-1.67-4.14.01-1.6.67-2.9,1.8-3.98,2.14-2.06,5.66-2.34,8.13-1.04.26.14.53.25.85.39Z"/>
  </g>
  <g>
    <path class="cls-1" d="M125.14,104.75h1.78v3.2h3.28v-3.2h1.78v8.09h-1.78v-3.25h-3.28v3.25h-1.78v-8.09Z"/>
    <path class="cls-1" d="M142.47,104.69h1.64l3.47,8.14h-1.86l-.74-1.81h-3.42l-.74,1.81h-1.81l3.47-8.14ZM144.34,109.45l-1.07-2.62-1.07,2.62h2.15Z"/>
    <path class="cls-1" d="M154.6,104.75h1.64l3.79,4.98v-4.98h1.76v8.09h-1.51l-3.92-5.14v5.14h-1.76v-8.09Z"/>
    <path class="cls-1" d="M169.5,104.75h3.15c2.54,0,4.3,1.74,4.3,4.02v.02c0,2.28-1.76,4.04-4.3,4.04h-3.15v-8.09ZM171.28,106.35v4.88h1.37c1.46,0,2.44-.98,2.44-2.41v-.02c0-1.43-.98-2.44-2.44-2.44h-1.37Z"/>
    <path class="cls-1" d="M193.56,104.75h3.7c1.03,0,1.83.29,2.36.82.45.45.69,1.09.69,1.85v.02c0,1.31-.7,2.13-1.73,2.51l1.98,2.89h-2.08l-1.73-2.59h-1.4v2.59h-1.78v-8.09ZM197.14,108.68c.87,0,1.36-.46,1.36-1.14v-.02c0-.76-.53-1.16-1.4-1.16h-1.77v2.32h1.8Z"/>
    <path class="cls-1" d="M207.33,108.81v-.02c0-2.3,1.81-4.18,4.31-4.18s4.29,1.86,4.29,4.16v.02c0,2.3-1.81,4.18-4.31,4.18s-4.29-1.86-4.29-4.16ZM214.06,108.81v-.02c0-1.39-1.02-2.54-2.45-2.54s-2.43,1.13-2.43,2.52v.02c0,1.39,1.02,2.54,2.45,2.54s2.43-1.13,2.43-2.52Z"/>
    <path class="cls-1" d="M223.28,104.75h1.78v6.47h4.03v1.62h-5.81v-8.09Z"/>
    <path class="cls-1" d="M236.21,104.75h1.78v6.47h4.03v1.62h-5.81v-8.09Z"/>
    <path class="cls-1" d="M262.89,112.05c-.66.54-1.43.9-2.37.9-1.55,0-2.71-.9-2.71-2.33v-.02c0-1.03.55-1.76,1.57-2.22-.39-.55-.57-1.06-.57-1.62v-.02c0-1.11.89-2.13,2.45-2.13,1.37,0,2.28.9,2.28,2.03v.02c0,1.09-.69,1.72-1.7,2.11l1.07,1.07c.27-.42.53-.89.79-1.39l1.3.72c-.31.57-.66,1.17-1.06,1.71l1.19,1.19-1.3.91-.94-.95ZM261.89,111.03l-1.55-1.57c-.53.28-.75.67-.75,1.06v.02c0,.57.47.95,1.13.95.4,0,.8-.17,1.17-.46ZM261.98,106.77v-.02c0-.46-.31-.75-.76-.75-.47,0-.79.33-.79.82v.02c0,.36.14.62.47,1,.7-.27,1.07-.57,1.07-1.07Z"/>
    <path class="cls-1" d="M280.89,111.66l1.05-1.26c.73.6,1.49.98,2.41.98.73,0,1.17-.29,1.17-.76v-.02c0-.45-.28-.68-1.63-1.03-1.63-.42-2.68-.87-2.68-2.47v-.02c0-1.47,1.18-2.44,2.83-2.44,1.18,0,2.18.37,3,1.03l-.92,1.34c-.72-.5-1.42-.8-2.1-.8s-1.04.31-1.04.7v.02c0,.53.35.7,1.74,1.06,1.64.43,2.56,1.02,2.56,2.43v.02c0,1.61-1.22,2.51-2.97,2.51-1.22,0-2.46-.43-3.43-1.29Z"/>
    <path class="cls-1" d="M294.48,109.37v-4.62h1.78v4.57c0,1.32.66,2,1.74,2s1.74-.66,1.74-1.94v-4.63h1.78v4.56c0,2.45-1.38,3.65-3.55,3.65s-3.5-1.21-3.5-3.59Z"/>
    <path class="cls-1" d="M308.57,111.66l1.05-1.26c.73.6,1.49.98,2.41.98.73,0,1.17-.29,1.17-.76v-.02c0-.45-.28-.68-1.63-1.03-1.63-.42-2.68-.87-2.68-2.47v-.02c0-1.47,1.18-2.44,2.83-2.44,1.18,0,2.18.37,3,1.03l-.92,1.34c-.72-.5-1.42-.8-2.1-.8s-1.04.31-1.04.7v.02c0,.53.35.7,1.74,1.06,1.64.43,2.56,1.02,2.56,2.43v.02c0,1.61-1.22,2.51-2.97,2.51-1.22,0-2.46-.43-3.43-1.29Z"/>
    <path class="cls-1" d="M322.29,104.75h1.78v3.2h3.28v-3.2h1.78v8.09h-1.78v-3.25h-3.28v3.25h-1.78v-8.09Z"/>
    <path class="cls-1" d="M336.93,104.75h1.78v8.09h-1.78v-8.09Z"/>
    <path class="cls-1" d="M355.75,104.75h3.75c.92,0,1.65.25,2.11.72.37.37.55.82.55,1.37v.02c0,.91-.49,1.42-1.06,1.74.94.36,1.51.9,1.51,1.99v.02c0,1.48-1.2,2.22-3.03,2.22h-3.85v-8.09ZM360.4,107.14c0-.53-.42-.83-1.17-.83h-1.76v1.71h1.64c.79,0,1.28-.25,1.28-.86v-.02ZM359.54,109.5h-2.06v1.78h2.11c.79,0,1.26-.28,1.26-.88v-.02c0-.54-.4-.88-1.32-.88Z"/>
    <path class="cls-1" d="M372.64,104.69h1.64l3.46,8.14h-1.86l-.74-1.81h-3.42l-.74,1.81h-1.81l3.46-8.14ZM374.51,109.45l-1.07-2.62-1.07,2.62h2.15Z"/>
    <path class="cls-1" d="M384.77,104.75h3.7c1.03,0,1.82.29,2.36.82.45.45.69,1.09.69,1.85v.02c0,1.31-.7,2.13-1.73,2.51l1.98,2.89h-2.08l-1.73-2.59h-1.4v2.59h-1.78v-8.09ZM388.35,108.68c.87,0,1.36-.46,1.36-1.14v-.02c0-.76-.53-1.16-1.4-1.16h-1.77v2.32h1.8Z"/>
  </g>
</svg>