<?xml version="1.0" encoding="utf-8"?>
<!-- Generator: Adobe Illustrator 21.0.2, SVG Export Plug-In . SVG Version: 6.00 Build 0)  -->
<svg version="1.1" id="Layer_1" xmlns="http://www.w3.org/2000/svg" xmlns:xlink="http://www.w3.org/1999/xlink" x="0px" y="0px"
	 viewBox="0 0 512 512" style="enable-background:new 0 0 512 512;" xml:space="preserve">
<style type="text/css">
	.st0{fill:#437EC1;}
	.st1{fill:#929395;}
	.st2{fill:#FFFFFF;}
</style>
<g id="Layer_2">
	<rect class="st0" width="512" height="512"/>
</g>
<g id="Layer_3">
	<g id="_x23_929395ff">
		<path class="st1" d="M218,133h4.8c29.4,0.9,58.3,13.4,78.8,34.5c5.9,6.2,11.4,12.9,15.9,20.2c-4.2-0.7-8.4-1.4-12.6-2.1
			c-20-28.4-55-45.3-89.7-43.4c-22.9,0.7-45.6,9.4-63.1,24.2c-4.5,4.6-11.6,2.5-17.3,3.9C155.7,147,186.8,133.5,218,133z"/>
		<path class="st1" d="M117.3,301.4c5.7,3.2,13.4,4.1,16.9,10.2c10.6,14.4,24.7,26.3,41,33.7c23.8,11.4,51.7,12.6,76.8,4.8
			c4.3,1.6,8.6,3.3,13,4.9c-11.8,4.9-24.3,7.9-37,8.8c-23.6,2.2-47.5-4.3-67.8-16.3C142,336.4,127,320.3,117.3,301.4z"/>
	</g>
	<g id="_x23_ffffffff">
		<path class="st2" d="M103.6,180.5c24.9-3.5,50.1-6,75.3-5.2c42.2,0.8,84.4,4.1,126.1,10.3c4.2,0.7,8.4,1.4,12.6,2.1
			c16,2.7,31.9,6.1,47.6,10.2c-14.3-1.7-28.6-4.1-43-4.2c-32.2-1.4-64.6,1.7-95.9,9.4c-17.6,4.5-35.2,10.6-50.4,20.8
			c-8.9,6.1-17.2,14-20.7,24.5c-3,8.7-1.4,18.5,3.3,26.2c7.1,11.8,18.7,20,30.4,26.7c22,12.4,46.1,20.5,70.2,27.6
			c-10.4,1.7-20.9,3.3-31.4,5c13.8,6,27.7,11.4,41.6,17.2c25.1,10.2,50.1,20.8,75.4,30.9c-27-7.7-53.4-17.5-79.7-27.1
			c-4.3-1.6-8.6-3.2-13-4.9c-40.5-15.3-80.6-31.7-120.4-48.6c-17.1-7.3-34.7-15.2-47.7-28.9c-11.5-11.5-17.5-27.6-18.2-43.7
			c-14.2-7.3-29.6-12.4-45.4-14.9c-0.3,0.6-1,1.9-1.3,2.5c-0.3-1-1-3-1.4-4.1v-3.2c1-5.9,6.6-8.7,11.6-10.7
			c4.4-7.6,13.8-10.4,22.1-9.7c22.5,2.1,44.6,7.6,66.6,12.6c-10.4-6.1-21.7-10.7-31.8-17.4C91.6,181.9,97.7,181.5,103.6,180.5
			 M34.3,199.3c4.4-1.3,8.9-2,13.4-3.1C43.1,196,37.2,194.7,34.3,199.3z"/>
		<path class="st2" d="M231.7,226.1c-2.7-1.1-1.2-5.4,1.1-6.1c2-1.3,3.7,0.6,4.9,1.9c1.3-1.5,3.3-3.3,5.3-1.7
			c2.7,1.2,1.3,5.3-1.1,6.1c-1.8,1.4-3.7-0.6-4.8-2C235.7,225.7,233.7,227.7,231.7,226.1z"/>
		<path class="st2" d="M257.4,250.8c1.7-10.4,3.5-20.8,5.3-31.1c1.8,0,3.6,0,5.5,0c-1.8,10.4-3.5,20.7-5.3,31.1
			C261.1,250.8,259.3,250.8,257.4,250.8z"/>
		<path class="st2" d="M286.4,219.7c1.8,0,3.7,0,5.5,0c-1.2,7.2-2.4,14.4-3.7,21.7c-0.4,1.9-0.5,3.9,0,5.8c8.1,0.3,16.2,0,24.4,0.1
			c0.7-3.8,1.2-7.6,2-11.3c1.5-5.8,7.9-10.1,13.8-8.4c3.9,0.9,6.2,5.2,5.7,9c-0.4,3.5-1,7-1.7,10.4c-0.9,3.9-5.1,6.5-8.9,6.4
			c-3.9-0.5-7.6-2.5-11.7-2.3c-7.7,0-15.4,0.1-23.1,0c-3.4,0.1-7-2.6-6.4-6.3C283.5,236.4,285.1,228.1,286.4,219.7 M323.3,231.6
			c-5.1,3.6-3.9,10.9-5.3,16.3c2.5,0.7,5,1.2,7.6,1.6c2.2-4,2.2-8.6,3-13C329.2,233.7,326.4,229.4,323.3,231.6z"/>
		<path class="st2" d="M344.4,219.7c1.8,0,3.6,0,5.5,0c-1.6,9.2-3.1,18.5-4.7,27.7c2.6-0.2,5.6,0.7,8-0.9c0.9-1.1,1.1-2.5,1.3-3.9
			c1.3-7.5,2.4-15.1,3.9-22.5c1.7-0.4,3.5-0.5,5.4-0.3c-1.3,8-2.7,16.1-4.1,24.1c-0.5,4.1-4.4,7.2-8.4,7.3c-5.3,0.2-10.7,0.1-16,0
			c0.2-0.9,0.5-2.8,0.7-3.7c1.3,0,2.5,0,3.8,0C341.2,238.1,342.8,228.9,344.4,219.7z"/>
		<path class="st2" d="M368,219.9c1.7-0.5,3.7-0.2,5.5-0.3c-1.8,10.4-3.5,20.8-5.3,31.2c-1.8,0-3.6,0-5.5,0
			C364.5,240.5,366.1,230.2,368,219.9z"/>
		<path class="st2" d="M387.4,230.8c0.7-1.3,1.5-2.5,2.2-3.8c3.3,0.5,7.1,1.1,9.1,4.1c3.3,4.7,2,10.9,1,16.2
			c3.6-0.7,8.8,1.6,11.3-1.9c1.2-5.2,1.8-10.6,2.9-15.8c1.8,0,3.6,0,5.5,0c-1,5.1-1.6,10.3-2.7,15.3c-1,4.1-5.5,6.4-9.5,6.2
			c-8.6,0-17.3,0-25.9,0c0.2-0.9,0.5-2.8,0.6-3.8c4.2,0,8.3,0,12.5,0c0.7-4.3,2-8.9,0.2-13.1C393.2,231.5,390,231.2,387.4,230.8z"/>
		<path class="st2" d="M243.4,247.3c3.5-5.1,2.8-11.9,4.3-17.7c1.8,0,3.7,0,5.5,0c-0.9,5-1.6,10.1-2.6,15c-0.8,3.8-4.7,6.4-8.5,6.4
			c-5.5,0.1-10.9,0.1-16.4,0c-3,0.1-6.4-1.8-6.6-5.1c0-3.8,1-7.5,1.6-11.2c1.8,0,3.7,0,5.5,0c-0.5,3.7-1.5,7.3-1.5,11.1
			c0.3,0.3,0.9,0.9,1.2,1.3C231.6,247.5,237.5,247.2,243.4,247.3z"/>
		<path class="st2" d="M269.7,253.7c2.2-7.9,2.9-16.1,4.5-24.2c1.8,0,3.6,0,5.5,0c-1.1,6.9-2.3,13.9-3.5,20.8
			c-0.7,3.8-2.5,7.7-5.9,9.8c-4,2.5-8.9,2.5-13.4,2.7c0.2-1,0.5-2.9,0.7-3.8C262,259,268,258.8,269.7,253.7z"/>
		<path class="st2" d="M428.3,229.6c1.8,0,3.6,0,5.5,0c-1,5.9-1.9,11.8-3,17.8c3.6-0.6,8.6,1.5,11.3-1.6c1.9-5.2,1.7-10.9,3.3-16.1
			c1.8-0.1,3.5-0.1,5.3-0.1c-0.9,5-1.6,10.1-2.7,15.2c-0.7,3.3-3.9,5.6-7.1,6.2c-3.5,0.5-7.1,0.2-10.6,0.2c-1.1,3.3-2.4,6.9-5.6,8.8
			c-4,2.8-9.1,2.7-13.7,3c0.2-0.9,0.6-2.8,0.8-3.7c4.3-0.4,10.1-0.1,11.9-5C426.1,246.1,426.6,237.7,428.3,229.6z"/>
		<path class="st2" d="M339.4,256.7c-0.3-2.8,3.8-4.8,5.4-2.2c-0.9,0.2-2.8,0.7-3.7,0.9c1.1,1.2,2.8,1.7,3.8,3.1
			c-2.2,0.2-4.4,0.4-6.6,0.4C338.6,258.3,339.1,257.2,339.4,256.7z"/>
		<path class="st2" d="M390.9,259.7c0.1-3.9,5.6-5,7.3-1.4c1.2-1.8,3.2-2.9,5.3-2c3.2,2.2,0.2,7.7-3.4,6.5c-1.4-0.1-1.9-1.6-2.8-2.4
			C396.6,263.8,390.2,263.7,390.9,259.7z"/>
		<path class="st2" d="M434.3,256.7c1.5-1.3,4.2-1,5.1,0.9c1.5,2.9-2.6,6.6-5.3,4.8C431.7,261.4,432.5,257.9,434.3,256.7z"/>
		<path class="st2" d="M286.7,266.1c1.3-1.5,3.9-1.6,5.4-0.4c2.3,2.9-1.2,7.7-4.7,6.2C284.7,271.4,285,267.6,286.7,266.1z"/>
		<path class="st2" d="M340.1,267.6c1.2,0,3.7,0,5,0.1c-0.1,2.2-0.3,4.4-0.4,6.7c1.6,0,3.3,0,4.9-0.1c-0.2,1.7-0.4,3.4-0.7,5
			c-1.7,0-3.3-0.1-5-0.1c-0.5,4.8-1.8,9.5-1.8,14.3c0.3,2.4,3.5,2.1,5.2,2.6c-0.3,1.6-0.5,3.2-0.7,4.8c-2.9-0.1-6.4,0.1-8.4-2.4
			c-2.2-2.4-1.7-5.8-1.3-8.8C337.9,282.4,338.9,275,340.1,267.6z"/>
		<path class="st2" d="M481.3,294.6c0.6-8.9,2.5-17.8,3.6-26.7c1.7,0,3.3,0,5,0c-0.2,2.2-0.3,4.4-0.5,6.6c1.7,0,3.3,0.1,5,0.1
			c-0.2,1.6-0.4,3.3-0.6,4.9c-1.7,0-3.4,0-5,0c-0.5,4.7-1.7,9.3-1.8,14.1c0.1,2.5,3.4,2.3,5.2,2.7c-0.3,1.6-0.5,3.2-0.8,4.9
			C487,301.7,481.3,299.9,481.3,294.6z"/>
		<path class="st2" d="M222.8,277.7c3.7-4,10.5-5.1,15.1-2.1c4.8,3.2,3.6,11.3-1.6,13.4c-3.7,1.9-7.9,1.2-11.7,0.4
			c0,1.1-0.1,3.2-0.1,4.3c2.7,3.4,7.3,2.1,10.2-0.3c1.1,0.8,2.2,1.7,3.4,2.6c-2.8,2.6-6.1,5.1-10.1,4.8c-4.7,0.4-9.7-3.6-8.9-8.6
			C219.9,287.4,219.4,281.7,222.8,277.7 M225.2,285.2c3.1,0.5,7.5,1.9,9.6-1.3c1.6-2.3-0.8-5-3.3-4.8
			C227.9,278.5,225.5,281.9,225.2,285.2z"/>
		<path class="st2" d="M246.2,276.4c5.1-2.5,12.5-4.3,16.5,1c2.1-1.7,4.4-3.5,7.2-3.4c4.5-0.6,9.2,3.2,8.8,7.9
			c-0.6,6.4-1.8,12.8-2.5,19.2c-1.8,0-3.7,0-5.5,0c0.8-6.8,2.4-13.6,2.4-20.5c-2.7-1.8-6.9-1.4-8.3,1.9c-1.2,6.2-1.7,12.4-2.7,18.6
			c-1.8,0-3.6,0-5.4,0c0.7-6.4,2-12.8,2.5-19.2c-0.8-3.3-5.7-3.2-7.9-1.5c-1.3,6.7-1.9,13.6-3,20.4c-1.8,0-3.6,0-5.4,0
			C243.9,292.7,245,284.6,246.2,276.4z"/>
		<path class="st2" d="M285.5,273.8c1.8,0,3.7,0,5.5,0c-1.2,9.1-2.5,18.3-3.7,27.4c-1.9,0-3.7,0-5.6-0.1
			C283,292,284.2,282.9,285.5,273.8z"/>
		<path class="st2" d="M296.1,280.7c1.8-5.5,8.2-7.3,13.4-6.7c-0.1,1.6-0.2,3.3-0.3,4.9c-3-0.2-7.2,0.4-8,3.9
			c-1.1,5.9-1.7,12-2.6,17.9c-1.8,0-3.7,0-5.5,0C294,294.1,294.5,287.3,296.1,280.7z"/>
		<path class="st2" d="M314.9,276.9c5.2-4.3,12.6-3.2,18.4-0.7c-1.1,8.2-2.3,16.5-3.4,24.7c-1.9-0.3-4.9,0.8-5-2
			c-3.5,3-9.3,3.6-12.6,0c-2.7-2.7-1.9-6.7-1.4-10.1C311.6,284.7,311.4,279.8,314.9,276.9 M317.6,281.9c-1,3.8-1.4,7.7-1.7,11.6
			c1.4,4,6.5,2.6,9.4,1.1c0.5-5.1,1.7-10.1,2-15.3C324,278,319.3,278.6,317.6,281.9z"/>
		<path class="st2" d="M352.6,281.8c1.9-7.6,12.8-10.7,18.4-5.3c3.3,3.6,2,10.1-2.3,12.3c-3.7,2-8.2,1.3-12.2,0.6c0,1,0,3,0,4.1
			c2.1,3.9,7.4,2.2,10-0.2c1.2,0.9,2.3,1.7,3.5,2.6c-3,3.2-7.3,5.6-11.8,4.8c-4.1-0.4-7.9-4.1-7.3-8.4
			C351.5,288.8,351.9,285.3,352.6,281.8 M357.4,285.2c3.2,0.8,8.4,1.8,9.9-2.1c0.9-3.6-4-5-6.6-3.5
			C358.3,280.3,357.8,283,357.4,285.2z"/>
		<path class="st2" d="M382.1,274.5c4.5-1.8,9.5-0.3,13,2.7c-1.8,1.2-3.4,4.5-5.9,2.6c-2.7-1.8-8.3-1.2-7.2,3.2
			c2.9,2.4,7.4,1.7,10.1,4.4c2.7,2.8,2,7.6-0.6,10.2c-4.8,5.2-15.1,4.1-17.7-2.9c1.5-0.9,3-1.7,4.5-2.6c2,3.1,5.9,4.3,9.3,2.8
			c0.4-1.1,0.6-2.2,0.6-3.4c-2.8-2.3-7.1-1.7-9.7-4.4C374.2,283.5,377.1,276,382.1,274.5z"/>
		<path class="st2" d="M410.7,275.8c5.5-1.8,12.3-3.4,17.5,0.2c3.2,2.7,2.1,7.2,1.6,10.7c-0.7,3.7-0.5,8-3.5,10.8
			c-3.5,3.6-9,3.9-13.5,2.7c-0.4,2.9-0.8,5.8-1.2,8.7c-1.8,0-3.7,0-5.5,0C407.6,297.9,409.1,286.9,410.7,275.8 M415.7,279.3
			c-0.7,5.5-1.8,11-2.2,16.6c3.1,0.2,7.1,0.8,9.2-2.1c1.4-3.8,1.6-7.9,2.1-11.9C424.2,277.6,418.8,278.6,415.7,279.3z"/>
		<path class="st2" d="M442.6,274.5c5.2-1.9,13.2,0.8,12.8,7.4c-1.1,6-0.2,14.2-6.5,17.5c-5.3,3.4-15.4,1.6-15.5-6
			C434.2,286.5,434,276.5,442.6,274.5 M440.7,281.8c-0.9,3.8-1.6,7.7-1.4,11.6c1.8,4,8.9,2.4,9.3-1.9c0.5-3.2,0.8-6.5,1.4-9.7
			C447.9,278.5,442.8,278.5,440.7,281.8z"/>
		<path class="st2" d="M463.6,275.5c4.7-2.8,10.7-1.5,14.8,1.8c-1.3,1.2-2.6,2.4-3.9,3.6c-2.2-0.9-4.5-2.4-6.9-1.7
			c-1.8,0.4-2.8,2.1-2.3,3.9c3,2.9,8.3,1.6,10.8,5.4c3.1,4.8-1,11.2-6.1,12.2c-5,1.6-10.7-0.8-13-5.6c1.5-0.9,3-1.8,4.5-2.7
			c2.1,3.6,9.3,5.6,10.2,0.1c-2.1-2.9-6.4-2.1-9.2-4.2C458,285.3,459.4,278,463.6,275.5z"/>
	</g>
</g>
</svg>
