<?xml version="1.0" encoding="utf-8"?>
<!-- Generator: Adobe Illustrator 26.2.1, SVG Export Plug-In . SVG Version: 6.00 Build 0)  -->
<svg version="1.1" id="Layer_1" xmlns="http://www.w3.org/2000/svg" xmlns:xlink="http://www.w3.org/1999/xlink" x="0px" y="0px"
	 viewBox="0 0 200 200" style="enable-background:new 0 0 200 200;" xml:space="preserve">
<style type="text/css">
	.st0{fill:#222519;}
</style>
<g>
	<g>
		<g>
			<path class="st0" d="M91.8,88.7c0.1-3.5,1-6.6,2.3-9.5c-4.3-3.7-6.2-8.8-6.1-12.8c0.2-11.9,11.8-18.9,11.9-27.5
				c0-1.5-0.4-3-1.5-4.5C80,35.1,65.3,50.2,65.3,68.8s14.7,33.7,33.1,34.4C93.7,98.9,91.7,93.2,91.8,88.7"/>
		</g>
		<g>
			<path class="st0" d="M103.8,51.5c-2.5,9.2-11.1,15.3-11.2,22.7c0,1.6,0.4,3.1,1.7,4.7c3.9-8.4,11.2-14.7,11.4-22.1
				C105.6,55.1,105.1,53.3,103.8,51.5"/>
		</g>
		<g>
			<path class="st0" d="M99.7,34.4c-0.3,0-0.5,0-0.8,0c4,3.6,5.7,8.5,5.6,12.4c0,1.6-0.3,3-0.6,4.4c5,4.2,7.1,10.1,7,14.8
				c-0.3,13.8-13.6,21.8-13.8,31.8c0,1.8,0.5,3.6,1.8,5.4c0.3,0,0.5,0,0.8,0c19,0,34.4-15.4,34.4-34.4S118.7,34.4,99.7,34.4"/>
		</g>
		<g>
			<path class="st0" d="M68.1,152.1c0.4-2.8,2.5-4.6,5.5-4.6c2.4,0,4.6,1.5,5.1,4.6H68.1z M73.6,144.9c-4.9,0-8.3,3.6-8.3,8.3
				s3.4,8.3,8.5,8.3c3.2,0,5.6-1.4,6.9-3.6l-2.3-1.3c-0.8,1.3-2.4,2.3-4.6,2.3c-2.9,0-5.2-1.6-5.7-4.5h13.2c0.1-0.4,0.1-0.8,0.1-1.2
				C81.4,148.8,78.3,144.9,73.6,144.9"/>
		</g>
		<g>
			<path class="st0" d="M91.8,144.9c-2.2,0-3.9,0.8-5.1,2.7v-2.3H84v15.8h2.7v-8.4c0-3.7,2.1-5.2,4.6-5.2c2.4,0,3.9,1.5,3.9,4.1v9.6
				h2.7v-9.7C97.9,147.4,95.5,144.9,91.8,144.9"/>
		</g>
		<g>
			<path class="st0" d="M108.6,158.9c-3.1,0-5.6-2.4-5.6-5.6s2.4-5.6,5.6-5.6s5.6,2.4,5.6,5.6S111.7,158.9,108.6,158.9 M108.6,144.9
				c-4.6,0-8.3,3.6-8.3,8.3s3.7,8.3,8.3,8.3c4.6,0,8.3-3.6,8.3-8.3C116.9,148.6,113.2,144.9,108.6,144.9"/>
		</g>
		<g>
			<path class="st0" d="M126.9,158.8c-3.2,0-5.6-2.4-5.6-5.6c0-3.2,2.4-5.6,5.6-5.6c2.1,0,3.9,1.1,4.7,2.8l2.3-1.3
				c-1.2-2.5-3.9-4.1-7-4.1c-4.8,0-8.3,3.6-8.3,8.3s3.5,8.3,8.3,8.3c3.1,0,5.8-1.6,7.1-4.1l-2.3-1.4
				C130.8,157.7,129.1,158.8,126.9,158.8"/>
		</g>
	</g>
	<rect x="130.9" y="113.7" class="st0" width="2.7" height="21.1"/>
	<g>
		<g>
			<path class="st0" d="M73.2,134.8h17.7v-21.1h-2.7V132h-15c-2.8,0-5.2-2.3-5.2-5.2c0-2.8,2.3-5.2,5.2-5.2h1.7V119h-1.7
				c-4.4,0-7.9,3.5-7.9,7.9C65.3,131.2,68.8,134.8,73.2,134.8"/>
		</g>
		<g>
			<path class="st0" d="M96.5,126.9c0-2.8,2.3-5.2,5.2-5.2h3.7V132l0,0h-3.7C98.8,132,96.5,129.7,96.5,126.9 M120.7,134.8h2
				c2.9,0,5.2-2.4,5.2-5.3V119h-2.8v10.6c0,1.4-1.1,2.5-2.5,2.5h-2c-1.4,0-2.5-1.1-2.5-2.4c0,0,0,0,0-0.1V119h-2.8l0,0v10.6
				c0,0,0,0,0,0.1c0,1.4-1.1,2.4-2.5,2.4H108V119h-6.5c-4.4,0-7.9,3.5-7.9,7.9s3.5,7.9,7.9,7.9h3.7c-0.1,1.3-1.1,2.4-2.5,2.4h-4.4
				v2.8h4.4c2.9,0,5.2-2.3,5.2-5.2l0,0l0,0h4.8c1.5,0,2.9-0.7,3.9-1.7C117.8,134.1,119.2,134.8,120.7,134.8"/>
		</g>
		<g>
			<path class="st0" d="M116.8,116.9c0.9,0,1.6-0.7,1.6-1.6s-0.7-1.6-1.6-1.6s-1.6,0.7-1.6,1.6C115.3,116.2,116,116.9,116.8,116.9"
				/>
		</g>
		<g>
			<path class="st0" d="M120.6,138.3c0,0.9,0.7,1.6,1.6,1.6s1.6-0.7,1.6-1.6c0-0.9-0.7-1.6-1.6-1.6
				C121.3,136.8,120.6,137.5,120.6,138.3"/>
		</g>
		<g>
			<path class="st0" d="M124.8,138.3c0,0.9,0.7,1.6,1.6,1.6s1.6-0.7,1.6-1.6c0-0.9-0.7-1.6-1.6-1.6
				C125.5,136.8,124.8,137.5,124.8,138.3"/>
		</g>
		<g>
			<path class="st0" d="M84.6,123.1h-2.3c-0.6,0-1.1-0.5-1.1-1.1s0.5-1.1,1.1-1.1h1.3V119h-1.3c-1.6,0-3,1.3-3,3
				c0,0.4,0.1,0.8,0.2,1.1h-1.1v1.8h6.2C84.6,124.9,84.6,123.1,84.6,123.1z"/>
		</g>
	</g>
</g>
</svg>
