<?xml version="1.0" encoding="UTF-8"?>
<svg id="Layer_1" data-name="Layer 1" xmlns="http://www.w3.org/2000/svg" viewBox="0 0 1200 1200">
  <path d="m351.6,810.58c69.63,0,122.3-25.25,158.76-60.9,37.16,37.77,92.86,61,161.03,61,84.08,0,152.35-33.28,204.86-84.93l67.41,73.52h142.55l-146.18-158.15c33.43-59.31,54.3-124.87,61.3-192.59h-105.03c-2.32,40.38-10.59,80.2-24.54,118.16-12.42,34.45-30.79,66.44-54.28,94.53-34.13,39.39-77.86,64.78-127.8,64.78-58.93,0-99.37-25.25-114.73-67.46h-112.25c-18.38,43.78-61.25,65.65-115.53,65.65-59.53,0-120.83-42.87-127.8-130.43h351.29c8.99-43.07,43.07-75.39,98.16-96.24,0,0,50.95-18.79,101.55-40.4,70.04-32.37,122.55-90.14,122.55-163.71,0-104.17-89.28-140.02-169.81-140.02-101.55,0-176.73,53.38-176.73,138.31,0,49.89,27.17,97.15,67.41,144.42-21.2,7.47-41.52,17.24-60.59,29.13-32.42-89.43-107.05-147.39-208.55-147.39-133.96,0-231.12,100.68-231.12,242.37s86.65,250.35,238.09,250.35ZM723.85,232.46v-.35c38.48,0,69.99,21.86,69.99,64.78,0,39.38-23.63,77.92-77.01,101.55l-.86-.91c-31.56-33.28-61.3-71.75-61.3-108.51s32.37-56.55,69.18-56.55Zm-379.32,166.93v-.2c61.25,0,117.3,44.69,119.93,118.21h-245.1c8.74-89.07,76.15-118.01,125.18-118.01Z" style="fill: #f20519; stroke-width: 0px;"/>
  <path d="m163.72,951.68c-29.05,0-50.12,21.7-50.12,52.76,0,29.31,18.95,54.42,51.78,54.42,21.23.93,40.36-12.74,46.34-33.14h-22.21c-3.99,9.52-13.31,14.29-25.06,14.29-12.89,0-26.2-9.32-27.75-28.38h76.01c1.92-34.43-17.91-59.96-48.98-59.96Zm-26.93,43.39c.42-14.63,12.56-26.18,27.18-25.89,14.3,0,25.89,11.59,25.89,25.89h-53.07Z" style="fill: #f20519; stroke-width: 0px;"/>
  <path d="m252.52,926.93h-22.63v27.03h-15.17v16.41h15.17v59.18c0,20.92,4.4,26.82,26.25,26.82h16.72v-17.29h-8.18c-9.68,0-12.17-2.59-12.17-12.95v-55.76h20.71v-16.41h-20.71v-27.03Z" style="fill: #f20519; stroke-width: 0px;"/>
  <rect x="286.54" y="953.96" width="22.63" height="102.42" style="fill: #f20519; stroke-width: 0px;"/>
  <rect x="286.54" y="918.39" width="22.63" height="22.83" style="fill: #f20519; stroke-width: 0px;"/>
  <path d="m375.24,995.28l-14.45-2.85c-8.49-1.82-13.67-5.28-13.67-12.17s9.11-11.23,19-11.23c11.39,0,19.93,3.62,22.42,12.95h20.66c-4.19-20.56-22.42-30.29-42.36-30.29-22,0-41.42,11.08-41.42,29.72s13.77,26.46,31.07,29.88l15.54,3.05c10.05,1.87,17.66,5.95,17.66,14.08s-8.96,13.31-20.71,13.31c-13.31,0-20.92-6.21-22.99-16.57h-22.06c2.49,19.42,19.21,33.71,44.27,33.71,23.2,0,43.29-11.81,43.29-33.14,0-20.09-15.53-26.46-36.24-30.45Z" style="fill: #f20519; stroke-width: 0px;"/>
  <path d="m512.09,994.92c.57-32.72-18.38-43.96-43.08-43.96s-41.99,14.24-43.49,35.21h22.21c.78-12.38,9.53-18.49,20.71-18.49s21.28,5.33,21.28,22.83v1.92c-37.44,3.83-68.76,10.25-68.97,35.78,0,18.64,15.58,30.65,37.8,30.65,15.02,0,27.13-5.33,33.61-16.36.24,4.67.88,9.31,1.91,13.88h20.71c-2.16-11.54-3.19-23.26-3.05-35,0-9.32.36-21.28.36-26.46Zm-21.8,21.13c0,17.29-9.89,25.89-26.62,25.89-11.36,0-18.76-5.31-18.79-14.23.03-11.88,13.14-16.43,45.41-19.48v7.82Z" style="fill: #f20519; stroke-width: 0px;"/>
  <rect x="531.41" y="918.39" width="22.83" height="137.99" style="fill: #f20519; stroke-width: 0px;"/>
  <path d="m659.82,994.92c.57-32.72-18.38-43.96-43.08-43.96s-41.99,14.24-43.5,35.21h22.21c.78-12.38,9.53-18.49,20.71-18.49s21.28,5.33,21.28,22.83v1.92c-37.44,3.83-68.76,10.25-68.76,35.73,0,18.64,15.59,30.65,37.8,30.65,15.07,0,27.19-5.18,33.4-16.31.27,4.67.91,9.31,1.92,13.88h20.71c-2.17-11.54-3.19-23.26-3.06-35,0-9.32.36-21.28.36-26.46Zm-21.8,21.13c0,17.29-9.89,25.89-26.62,25.89-11.36,0-18.76-5.31-18.79-14.23.03-11.88,13.14-16.43,45.41-19.48v7.82Z" style="fill: #f20519; stroke-width: 0px;"/>
  <path d="m704.4,926.93h-22.21v27.03h-15.22v16.41h15.22v59.18c0,20.92,4.35,26.82,26.2,26.82h16.72v-17.29h-8.54c-9.68,0-12.17-2.59-12.17-12.95v-55.76h20.71v-16.41h-20.71v-27.03Z" style="fill: #f20519; stroke-width: 0px;"/>
  <path d="m867.71,994.92c.57-32.72-18.49-43.96-43.13-43.96s-41.94,14.24-43.49,35.21h22.26c.78-12.38,9.53-18.49,20.71-18.49s21.28,5.33,21.28,22.83v1.92c-37.39,3.83-68.76,10.25-69.02,35.78,0,18.64,15.59,30.65,37.8,30.65,14.96,0,27.13-5.33,33.6-16.36.24,4.67.89,9.31,1.92,13.88h20.71c-2.12-11.54-3.12-23.27-3-35,0-9.32.36-21.28.36-26.46Zm-21.8,21.13c0,17.29-9.89,25.89-26.62,25.89-11.36,0-18.76-5.31-18.79-14.23.03-11.88,13.14-16.43,45.41-19.48v7.82Z" style="fill: #f20519; stroke-width: 0px;"/>
  <path d="m940.67,951.68c-12.6-.78-24.55,5.64-30.86,16.57v-14.29h-22.58v102.42h22.58v-54.42c0-18.49,6.47-31.79,23.77-31.79s19.37,13.52,19.37,27.39v58.82h22.47v-64.31c0-24.39-10.05-40.39-34.75-40.39Z" style="fill: #f20519; stroke-width: 0px;"/>
  <path d="m1063.91,967.68c-6.48-10.46-18.11-16.58-30.39-16-24.13,0-44.43,20.51-44.43,53.49s20.3,53.7,44.43,53.7c12.28.58,23.92-5.54,30.39-16v13.52h22.57v-137.99h-22.57v49.29Zm-25.42,72.7c-15.07,0-25.89-13.51-25.89-35.21s11.08-35,25.89-35,26.41,11.39,26.41,35-11.34,35.21-26.41,35.21Z" style="fill: #f20519; stroke-width: 0px;"/>
</svg>