<svg xmlns="http://www.w3.org/2000/svg" width="120.972" height="68.759" viewBox="0 0 120.972 68.759"><path d="M226.365,472.943a1.891,1.891,0,0,1-2.073-1.8,10.532,10.532,0,0,1,.945-3.686c1.551-3.629,4.441-9.539,6.043-12.717h-6.866a105.769,105.769,0,0,0-6.59,13.808c-.172.251-.341.5-.367.539-1.278,2.076-6.155,6.217-10.333,6.217-2.751,0-3.109-2.082-3.109-3.955,12.9-9.228,20.589-23.107,20.589-30.081,0-3.032-1.111-4.807-3.6-4.807-6.119,0-20.98,19.774-22.515,33.071-1.267,2.038-6.209,5.773-10.031,5.773-2.752,0-3.109-2.082-3.109-3.955,12.9-9.228,20.587-23.107,20.587-30.081,0-3.032-1.11-4.807-3.6-4.807-6.244,0-21.591,20.589-22.593,33.876-2,1.562-4.014,2.606-5.424,2.606a1.891,1.891,0,0,1-2.072-1.8,10.547,10.547,0,0,1,.945-3.686c1.552-3.629,4.442-9.539,6.043-12.717h-6.866c-1.874,3.448-7.868,14.2-7.868,19.544,0,3.762,2.037,5.282,4.6,5.282,4.109,0,8.825-4.417,10.693-6.351.61,4.5,3.923,6.159,7.527,6.159,4.076,0,8.467-3.128,11.172-5.54.018-.015.041-.037.063-.06.8,4.074,3.983,5.6,7.434,5.6,3.784,0,7.827-2.68,10.564-5.011.03,3.7,2.054,5.2,4.6,5.2,5.26,0,11.516-7.239,11.516-7.239l-.415-2.354c-2.15,1.763-4.363,2.97-5.88,2.97m-13.571-21.367c4.632-6.961,8.252-10.64,8.783-10.64.137,0,.209.222.209.379,0,3-1.606,7.149-4.847,12.243-2.753,4.326-9.217,11.364-12.223,13.6a77.238,77.238,0,0,1,8.079-15.577m-18.668,0c4.632-6.961,8.252-10.64,8.783-10.64.137,0,.208.222.208.379,0,3-1.606,7.149-4.847,12.243-2.753,4.326-9.217,11.364-12.223,13.6a77.21,77.21,0,0,1,8.079-15.577" transform="translate(-123.838 -416.064)" fill="#fc5007"/><path d="M189.495,449.824c1.2-2.986.2-4.751-2.084-4.751s-4.71,1.766-5.913,4.751-.2,4.751,2.084,4.751,4.71-1.766,5.913-4.751" transform="translate(-129.724 -419.138)" fill="#fc5007"/><path d="M268.082,445.073c-2.28,0-4.71,1.766-5.913,4.751s-.2,4.751,2.084,4.751,4.71-1.766,5.912-4.751.2-4.751-2.083-4.751" transform="translate(-158.521 -419.138)" fill="#fc5007"/><path d="M220.112,404.741c0,.421-2.959,8.545-16.769,8.545-23.41,0-39.425-6.286-61.04-6.286-25.824,0-41.035,14.169-41.035,27.315,0,6.309,3.389,11.274,7.857,11.274,2.775,0,3.744-1.564,3.744-1.564-2.55-.72-3.406-4.134-3.406-6.327,0-9.219,8.359-24.511,27.088-24.511A108.23,108.23,0,0,1,152.48,414.6c-7.857,2.512-12.964,10.2-18.188,19.522-8.059.053-11.456,5.533-11.6,7.889a1.614,1.614,0,0,0,.222,1.048c1.168-.857,2.873-2.138,7.556-2-.072.129-.143.259-.214.389-4.806,8.72-11.334,19.664-17.086,25.223-2.66,2.572-5.218,3.194-8.736,3.194a11.292,11.292,0,0,0,8.081,3.636c13.809,0,19.555-17.1,26.606-32.167,5.511-.6,10.1-5.168,10.3-8.585a12.336,12.336,0,0,1-7.067,1.741l-.1-.006c3.537-7.482,8.061-15.394,15.056-18.536a3.273,3.273,0,0,1,1.922-.223c15.713,2.831,27.3,7.017,40.643,7.017,13.243,0,22.357-3.638,22.357-12.913a7.108,7.108,0,0,0-2.128-5.088" transform="translate(-101.268 -404.741)" fill="#fc5007"/></svg>