<svg version="1.2" xmlns="http://www.w3.org/2000/svg" viewBox="0 0 1670 1026" width="1670" height="1026">
	<defs>
		<radialGradient id="g1" cx="0" cy="0" r="1" gradientUnits="userSpaceOnUse" gradientTransform="matrix(-182.759,51.543,-51.543,-182.759,1011.599,861.297)">
			<stop offset="0" stop-color="#ff005f"/>
			<stop offset="1" stop-color="#fc01d8"/>
		</radialGradient>
		<radialGradient id="g2" cx="0" cy="0" r="1" gradientUnits="userSpaceOnUse" gradientTransform="matrix(0,-237.223,237.223,0,802.942,1042.081)">
			<stop offset="0" stop-color="#ffcc00" stop-opacity="1"/>
			<stop offset=".124" stop-color="#ffcc00" stop-opacity="1"/>
			<stop offset=".567" stop-color="#fe4a05" stop-opacity="1"/>
			<stop offset=".694" stop-color="#ff0f3f" stop-opacity="1"/>
			<stop offset="1" stop-color="#fe0657" stop-opacity="0"/>
		</radialGradient>
		<radialGradient id="g3" cx="0" cy="0" r="1" gradientUnits="userSpaceOnUse" gradientTransform="matrix(-179.298,55.808,-55.808,-179.298,764.321,734.102)">
			<stop offset="0" stop-color="#780cff" stop-opacity="1"/>
			<stop offset=".194" stop-color="#780cff" stop-opacity="1"/>
			<stop offset="1" stop-color="#820bff" stop-opacity="0"/>
		</radialGradient>
		<radialGradient id="g4" cx="0" cy="0" r="1" gradientUnits="userSpaceOnUse" gradientTransform="matrix(49.241,-84.839,84.839,49.241,880.108,1015.003)">
			<stop offset="0" stop-color="#ffcc00" stop-opacity="1"/>
			<stop offset="1" stop-color="#ffcc00" stop-opacity="0"/>
		</radialGradient>
		<linearGradient id="g5" x2="1" gradientUnits="userSpaceOnUse" gradientTransform="matrix(0,260.92,-260.92,0,1184.391,638)">
			<stop offset="0" stop-color="#2aabee"/>
			<stop offset="1" stop-color="#229ed9"/>
		</linearGradient>
	</defs>
	<style>
		.s0 { fill: url(#g1) } 
		.s1 { fill: url(#g2) } 
		.s2 { fill: url(#g3) } 
		.s3 { fill: url(#g4) } 
		.s4 { fill: #000000 } 
		.s5 { fill: #f26522 } 
		.s6 { fill: #ff0033 } 
		.s7 { fill: #ffffff } 
		.s8 { fill: #e60023 } 
		.s9 { fill: #ff004f } 
		.s10 { fill: #00f2ea } 
		.s11 { fill: #007ebb } 
		.s12 { fill: #e61a2f } 
		.s13 { fill: #f39800 } 
		.s14 { fill: #0866ff } 
		.s15 { fill: #1ed760 } 
		.s16 { fill: #0077ff } 
		.s17 { fill: #ff5500 } 
		.s18 { fill: #02e677 } 
		.s19 { fill: #f6fefa } 
		.s20 { fill: #5638cc } 
		.s21 { fill: #f06a35 } 
		.s22 { fill: #737373 } 
		.s23 { fill: #f1680d } 
		.s24 { fill: url(#g5) } 
		.s25 { fill: #ff4500 } 
		.s26 { fill: #b92b27 } 
		.s27 { fill: #06c755 } 
		.s28 { fill: #35465c } 
	</style>
	<g id="INSTAGRAM">
		<g id="layer1">
			<g id="g1111">
				<path id="path1092" class="s0" d="m872.61 722c-40.36 0-45.42 0.18-61.27 0.9-15.82 0.72-26.62 3.22-36.07 6.9-9.77 3.79-18.06 8.86-26.32 17.12-8.27 8.25-13.34 16.54-17.15 26.3-3.69 9.44-6.19 20.24-6.91 36.04-0.7 15.84-0.89 20.9-0.89 61.23 0 40.32 0.18 45.37 0.9 61.21 0.73 15.8 3.23 26.59 6.9 36.04 3.8 9.76 8.88 18.05 17.14 26.3 8.26 8.26 16.55 13.35 26.31 17.14 9.46 3.67 20.26 6.17 36.08 6.9 15.85 0.72 20.91 0.89 61.26 0.89 40.36 0 45.41-0.17 61.26-0.89 15.82-0.73 26.63-3.23 36.08-6.9 9.77-3.79 18.05-8.88 26.31-17.14 8.26-8.25 13.34-16.54 17.15-26.3 3.65-9.45 6.16-20.24 6.9-36.04 0.72-15.84 0.9-20.89 0.9-61.21 0-40.33-0.18-45.39-0.9-61.23-0.74-15.81-3.25-26.6-6.9-36.04-3.81-9.76-8.89-18.05-17.15-26.3-8.27-8.26-16.53-13.33-26.32-17.12-9.47-3.68-20.27-6.18-36.09-6.9-15.85-0.72-20.9-0.9-61.27-0.9zm-13.33 26.76c3.96-0.01 8.37 0 13.33 0 39.68 0 44.38 0.14 60.05 0.85 14.49 0.66 22.35 3.08 27.59 5.12 6.93 2.69 11.88 5.9 17.07 11.1 5.21 5.2 8.42 10.15 11.12 17.08 2.04 5.23 4.46 13.08 5.12 27.56 0.71 15.65 0.87 20.36 0.87 59.98 0 39.63-0.16 44.33-0.87 59.99-0.66 14.47-3.08 22.33-5.12 27.56-2.69 6.93-5.91 11.86-11.12 17.06-5.2 5.19-10.13 8.41-17.07 11.1-5.23 2.04-13.1 4.46-27.59 5.12-15.67 0.71-20.37 0.86-60.05 0.86-39.68 0-44.38-0.15-60.04-0.86-14.49-0.67-22.35-3.09-27.6-5.12-6.93-2.69-11.88-5.91-17.08-11.11-5.2-5.19-8.42-10.13-11.12-17.06-2.04-5.23-4.46-13.09-5.12-27.57-0.71-15.65-0.86-20.35-0.86-60 0-39.66 0.15-44.33 0.86-59.99 0.66-14.47 3.08-22.33 5.12-27.57 2.69-6.93 5.92-11.87 11.12-17.07 5.2-5.2 10.15-8.42 17.08-11.11 5.24-2.05 13.11-4.46 27.6-5.12 13.71-0.62 19.02-0.81 46.71-0.84zm92.65 24.66c-9.84 0-17.83 7.97-17.83 17.81 0 9.84 7.99 17.82 17.83 17.82 9.85 0 17.83-7.98 17.83-17.82 0-9.84-7.98-17.82-17.83-17.81zm-79.32 20.82c-42.14 0-76.31 34.14-76.31 76.25 0 42.11 34.17 76.24 76.31 76.24 42.15 0 76.3-34.13 76.3-76.24 0-42.11-34.16-76.25-76.3-76.25zm0 26.75c27.36 0 49.54 22.16 49.54 49.5 0 27.33-22.18 49.5-49.54 49.5-27.35 0-49.53-22.17-49.53-49.5 0-27.34 22.18-49.5 49.53-49.5z"/>
				<path id="path1068" class="s1" d="m872.61 722c-40.36 0-45.42 0.18-61.27 0.9-15.82 0.72-26.62 3.22-36.07 6.9-9.77 3.79-18.06 8.86-26.32 17.12-8.27 8.25-13.34 16.54-17.15 26.3-3.69 9.44-6.19 20.24-6.91 36.04-0.7 15.84-0.89 20.9-0.89 61.23 0 40.32 0.18 45.37 0.9 61.21 0.73 15.8 3.23 26.59 6.9 36.04 3.8 9.76 8.88 18.05 17.14 26.3 8.26 8.26 16.55 13.35 26.31 17.14 9.46 3.67 20.26 6.17 36.08 6.9 15.85 0.72 20.91 0.89 61.26 0.89 40.36 0 45.41-0.17 61.26-0.89 15.82-0.73 26.63-3.23 36.08-6.9 9.77-3.79 18.05-8.88 26.31-17.14 8.26-8.25 13.34-16.54 17.15-26.3 3.65-9.45 6.16-20.24 6.9-36.04 0.72-15.84 0.9-20.89 0.9-61.21 0-40.33-0.18-45.39-0.9-61.23-0.74-15.81-3.25-26.6-6.9-36.04-3.81-9.76-8.89-18.05-17.15-26.3-8.27-8.26-16.53-13.33-26.32-17.12-9.47-3.68-20.27-6.18-36.09-6.9-15.85-0.72-20.9-0.9-61.27-0.9zm-13.33 26.76c3.96-0.01 8.37 0 13.33 0 39.68 0 44.38 0.14 60.05 0.85 14.49 0.66 22.35 3.08 27.59 5.12 6.93 2.69 11.88 5.9 17.07 11.1 5.21 5.2 8.42 10.15 11.12 17.08 2.04 5.23 4.46 13.08 5.12 27.56 0.71 15.65 0.87 20.36 0.87 59.98 0 39.63-0.16 44.33-0.87 59.99-0.66 14.47-3.08 22.33-5.12 27.56-2.69 6.93-5.91 11.86-11.12 17.06-5.2 5.19-10.13 8.41-17.07 11.1-5.23 2.04-13.1 4.46-27.59 5.12-15.67 0.71-20.37 0.86-60.05 0.86-39.68 0-44.38-0.15-60.04-0.86-14.49-0.67-22.35-3.09-27.6-5.12-6.93-2.69-11.88-5.91-17.08-11.11-5.2-5.19-8.42-10.13-11.12-17.06-2.04-5.23-4.46-13.09-5.12-27.57-0.71-15.65-0.86-20.35-0.86-60 0-39.66 0.15-44.33 0.86-59.99 0.66-14.47 3.08-22.33 5.12-27.57 2.69-6.93 5.92-11.87 11.12-17.07 5.2-5.2 10.15-8.42 17.08-11.11 5.24-2.05 13.11-4.46 27.6-5.12 13.71-0.62 19.02-0.81 46.71-0.84zm92.65 24.66c-9.84 0-17.83 7.97-17.83 17.81 0 9.84 7.99 17.82 17.83 17.82 9.85 0 17.83-7.98 17.83-17.82 0-9.84-7.98-17.82-17.83-17.81zm-79.32 20.82c-42.14 0-76.31 34.14-76.31 76.25 0 42.11 34.17 76.24 76.31 76.24 42.15 0 76.3-34.13 76.3-76.24 0-42.11-34.16-76.25-76.3-76.25zm0 26.75c27.36 0 49.54 22.16 49.54 49.5 0 27.33-22.18 49.5-49.54 49.5-27.35 0-49.53-22.17-49.53-49.5 0-27.34 22.18-49.5 49.53-49.5z"/>
				<path id="path28" class="s2" d="m872.61 722c-40.36 0-45.42 0.18-61.27 0.9-15.82 0.72-26.62 3.22-36.07 6.9-9.77 3.79-18.06 8.86-26.32 17.12-8.27 8.25-13.34 16.54-17.15 26.3-3.69 9.44-6.19 20.24-6.91 36.04-0.7 15.84-0.89 20.9-0.89 61.23 0 40.32 0.18 45.37 0.9 61.21 0.73 15.8 3.23 26.59 6.9 36.04 3.8 9.76 8.88 18.05 17.14 26.3 8.26 8.26 16.55 13.35 26.31 17.14 9.46 3.67 20.26 6.17 36.08 6.9 15.85 0.72 20.91 0.89 61.26 0.89 40.36 0 45.41-0.17 61.26-0.89 15.82-0.73 26.63-3.23 36.08-6.9 9.77-3.79 18.05-8.88 26.31-17.14 8.26-8.25 13.34-16.54 17.15-26.3 3.65-9.45 6.16-20.24 6.9-36.04 0.72-15.84 0.9-20.89 0.9-61.21 0-40.33-0.18-45.39-0.9-61.23-0.74-15.81-3.25-26.6-6.9-36.04-3.81-9.76-8.89-18.05-17.15-26.3-8.27-8.26-16.53-13.33-26.32-17.12-9.47-3.68-20.27-6.18-36.09-6.9-15.85-0.72-20.9-0.9-61.27-0.9zm-13.33 26.76c3.96-0.01 8.37 0 13.33 0 39.68 0 44.38 0.14 60.05 0.85 14.49 0.66 22.35 3.08 27.59 5.12 6.93 2.69 11.88 5.9 17.07 11.1 5.21 5.2 8.42 10.15 11.12 17.08 2.04 5.23 4.46 13.08 5.12 27.56 0.71 15.65 0.87 20.36 0.87 59.98 0 39.63-0.16 44.33-0.87 59.99-0.66 14.47-3.08 22.33-5.12 27.56-2.69 6.93-5.91 11.86-11.12 17.06-5.2 5.19-10.13 8.41-17.07 11.1-5.23 2.04-13.1 4.46-27.59 5.12-15.67 0.71-20.37 0.86-60.05 0.86-39.68 0-44.38-0.15-60.04-0.86-14.49-0.67-22.35-3.09-27.6-5.12-6.93-2.69-11.88-5.91-17.08-11.11-5.2-5.19-8.42-10.13-11.12-17.06-2.04-5.23-4.46-13.09-5.12-27.57-0.71-15.65-0.86-20.35-0.86-60 0-39.66 0.15-44.33 0.86-59.99 0.66-14.47 3.08-22.33 5.12-27.57 2.69-6.93 5.92-11.87 11.12-17.07 5.2-5.2 10.15-8.42 17.08-11.11 5.24-2.05 13.11-4.46 27.6-5.12 13.71-0.62 19.02-0.81 46.71-0.84zm92.65 24.66c-9.84 0-17.83 7.97-17.83 17.81 0 9.84 7.99 17.82 17.83 17.82 9.85 0 17.83-7.98 17.83-17.82 0-9.84-7.98-17.82-17.83-17.81zm-79.32 20.82c-42.14 0-76.31 34.14-76.31 76.25 0 42.11 34.17 76.24 76.31 76.24 42.15 0 76.3-34.13 76.3-76.24 0-42.11-34.16-76.25-76.3-76.25zm0 26.75c27.36 0 49.54 22.16 49.54 49.5 0 27.33-22.18 49.5-49.54 49.5-27.35 0-49.53-22.17-49.53-49.5 0-27.34 22.18-49.5 49.53-49.5z"/>
				<path id="path1165" class="s3" d="m872.61 722c-40.36 0-45.42 0.18-61.27 0.9-15.82 0.72-26.62 3.22-36.07 6.9-9.77 3.79-18.06 8.86-26.32 17.12-8.27 8.25-13.34 16.54-17.15 26.3-3.69 9.44-6.19 20.24-6.91 36.04-0.7 15.84-0.89 20.9-0.89 61.23 0 40.32 0.18 45.37 0.9 61.21 0.73 15.8 3.23 26.59 6.9 36.04 3.8 9.76 8.88 18.05 17.14 26.3 8.26 8.26 16.55 13.35 26.31 17.14 9.46 3.67 20.26 6.17 36.08 6.9 15.85 0.72 20.91 0.89 61.26 0.89 40.36 0 45.41-0.17 61.26-0.89 15.82-0.73 26.63-3.23 36.08-6.9 9.77-3.79 18.05-8.88 26.31-17.14 8.26-8.25 13.34-16.54 17.15-26.3 3.65-9.45 6.16-20.24 6.9-36.04 0.72-15.84 0.9-20.89 0.9-61.21 0-40.33-0.18-45.39-0.9-61.23-0.74-15.81-3.25-26.6-6.9-36.04-3.81-9.76-8.89-18.05-17.15-26.3-8.27-8.26-16.53-13.33-26.32-17.12-9.47-3.68-20.27-6.18-36.09-6.9-15.85-0.72-20.9-0.9-61.27-0.9zm-13.33 26.76c3.96-0.01 8.37 0 13.33 0 39.68 0 44.38 0.14 60.05 0.85 14.49 0.66 22.35 3.08 27.59 5.12 6.93 2.69 11.88 5.9 17.07 11.1 5.21 5.2 8.42 10.15 11.12 17.08 2.04 5.23 4.46 13.08 5.12 27.56 0.71 15.65 0.87 20.36 0.87 59.98 0 39.63-0.16 44.33-0.87 59.99-0.66 14.47-3.08 22.33-5.12 27.56-2.69 6.93-5.91 11.86-11.12 17.06-5.2 5.19-10.13 8.41-17.07 11.1-5.23 2.04-13.1 4.46-27.59 5.12-15.67 0.71-20.37 0.86-60.05 0.86-39.68 0-44.38-0.15-60.04-0.86-14.49-0.67-22.35-3.09-27.6-5.12-6.93-2.69-11.88-5.91-17.08-11.11-5.2-5.19-8.42-10.13-11.12-17.06-2.04-5.23-4.46-13.09-5.12-27.57-0.71-15.65-0.86-20.35-0.86-60 0-39.66 0.15-44.33 0.86-59.99 0.66-14.47 3.08-22.33 5.12-27.57 2.69-6.93 5.92-11.87 11.12-17.07 5.2-5.2 10.15-8.42 17.08-11.11 5.24-2.05 13.11-4.46 27.6-5.12 13.71-0.62 19.02-0.81 46.71-0.84zm92.65 24.66c-9.84 0-17.83 7.97-17.83 17.81 0 9.84 7.99 17.82 17.83 17.82 9.85 0 17.83-7.98 17.83-17.82 0-9.84-7.98-17.82-17.83-17.81zm-79.32 20.82c-42.14 0-76.31 34.14-76.31 76.25 0 42.11 34.17 76.24 76.31 76.24 42.15 0 76.3-34.13 76.3-76.24 0-42.11-34.16-76.25-76.3-76.25zm0 26.75c27.36 0 49.54 22.16 49.54 49.5 0 27.33-22.18 49.5-49.54 49.5-27.35 0-49.53-22.17-49.53-49.5 0-27.34 22.18-49.5 49.53-49.5z"/>
			</g>
		</g>
	</g>
	<g id="X">
		<path class="s4" d="m520 21h46l-101 115 118 156h-92.6l-72.5-94.8-83 94.8h-46l107-123-113-148h94.9l65.5 86.6zm-16.1 244h25.5l-165-218h-27.4z"/>
	</g>
	<g id="RSS">
		<path class="s5" d="m74.5 53c-3.61 0-7.19 0.71-10.52 2.09-3.34 1.39-6.37 3.41-8.92 5.97-2.56 2.55-4.58 5.58-5.97 8.92-1.38 3.33-2.09 6.91-2.09 10.52v165c0 3.61 0.71 7.19 2.09 10.52 1.39 3.34 3.41 6.37 5.97 8.92 2.55 2.56 5.58 4.58 8.92 5.97 3.33 1.38 6.91 2.09 10.52 2.09h165c3.61 0 7.19-0.71 10.52-2.09 3.34-1.39 6.37-3.41 8.92-5.97 2.56-2.55 4.58-5.58 5.97-8.92 1.38-3.33 2.09-6.91 2.09-10.52v-165c0-3.61-0.71-7.19-2.09-10.52-1.39-3.34-3.41-6.37-5.97-8.92-2.55-2.56-5.58-4.58-8.92-5.97-3.33-1.38-6.91-2.09-10.52-2.09zm20.63 34.38c75.94 0 137.5 61.55 137.5 137.5-0.01 3.64-1.45 7.14-4.03 9.72-2.58 2.58-6.08 4.03-9.73 4.03-3.64 0-7.14-1.45-9.72-4.03-2.58-2.58-4.03-6.08-4.03-9.72 0-14.45-2.84-28.75-8.37-42.1-5.53-13.35-13.63-25.47-23.84-35.69-10.22-10.21-22.34-18.31-35.69-23.84-13.35-5.53-27.65-8.37-42.1-8.37-3.64 0-7.14-1.45-9.72-4.03-2.58-2.58-4.03-6.08-4.03-9.72 0-3.65 1.45-7.15 4.03-9.73 2.58-2.58 6.08-4.02 9.72-4.02zm0 55c10.84 0 21.57 2.13 31.58 6.28 10.01 4.14 19.1 10.22 26.76 17.88 7.66 7.66 13.74 16.75 17.88 26.76 4.15 10.01 6.28 20.74 6.28 31.58 0 3.64-1.44 7.14-4.02 9.72-2.58 2.58-6.08 4.03-9.73 4.03-3.64 0-7.14-1.45-9.72-4.03-2.58-2.58-4.03-6.08-4.03-9.72 0-7.23-1.42-14.38-4.18-21.05-2.76-6.68-6.82-12.74-11.93-17.84-5.1-5.11-11.16-9.17-17.84-11.93-6.67-2.76-13.82-4.18-21.05-4.18-3.64 0-7.14-1.45-9.72-4.03-2.58-2.58-4.03-6.08-4.03-9.72 0-3.65 1.45-7.15 4.03-9.73 2.58-2.58 6.08-4.02 9.72-4.02zm6.88 96.25c-5.47 0-10.71-2.18-14.59-6.04-3.86-3.88-6.04-9.12-6.04-14.59 0-5.47 2.18-10.71 6.04-14.59 3.88-3.86 9.12-6.03 14.59-6.03 5.47 0 10.71 2.17 14.59 6.03 3.86 3.88 6.03 9.12 6.03 14.59 0 5.47-2.17 10.71-6.03 14.59-3.88 3.86-9.12 6.04-14.59 6.04z"/>
	</g>
	<g id="YOUTUBE">
		<g id="layer1">
			<g id="g2366">
				<path id="path1412" class="s6" d="m670.1 211.3c0 0 72.81 0 90.87-4.81 10.17-2.72 17.82-10.58 20.51-20.27 4.96-17.8 4.96-55.23 4.96-55.23 0 0 0-37.19-4.96-54.82-2.69-9.94-10.34-17.64-20.51-20.28-18.06-4.89-90.87-4.89-90.87-4.89 0 0-72.65 0-90.63 4.89-10.01 2.64-17.82 10.34-20.67 20.28-4.8 17.63-4.8 54.82-4.8 54.82 0 0 0 37.43 4.8 55.23 2.85 9.69 10.66 17.55 20.67 20.27 17.98 4.81 90.63 4.81 90.63 4.81z"/>
				<path id="path1414" class="s7" d="m706.29 131.15l-60.12-34.06v68.13z"/>
			</g>
			<g id="g2362">
				<path id="path1418" class="s4" d="m851.67 202.49v-43.77l27.81-90.89h-20.76l-10.58 41.28c-2.4 9.46-4.57 19.32-6.17 28.45h-1.28c-0.88-8.01-3.45-18.51-6.01-28.61l-10.26-41.12h-20.76l27.41 90.89v43.77z"/>
				<path id="path1420" class="s4" d="m907.47 101.49c-24.29 0-32.62 14.03-32.62 44.25v14.35c0 27.09 5.21 44.08 32.14 44.08 26.53 0 32.22-16.19 32.22-44.08v-14.35c0-27.01-5.45-44.25-31.74-44.25zm10.34 67.49c0 13.15-2.32 21.4-10.74 21.4-8.26 0-10.58-8.33-10.58-21.4v-32.38c0-11.22 1.6-21.24 10.58-21.24 9.46 0 10.74 10.58 10.74 21.24z"/>
				<path id="path1422" class="s4" d="m972.96 204.01c11.7 0 19-4.89 25.01-13.71h0.88l0.88 12.19h15.95v-99.07h-21.16v79.59c-2.24 3.93-7.45 6.81-12.34 6.81-6.17 0-8.1-4.89-8.1-13.06v-73.34h-21.08v74.3c0 16.11 4.65 26.29 19.96 26.29z"/>
				<path id="path1424" class="s4" d="m1057.56 202.49v-118.23h24.37v-16.43h-69.65v16.43h24.36v118.23z"/>
				<path id="path1426" class="s4" d="m1098.01 204.01c11.7 0 19-4.89 25.01-13.71h0.88l0.88 12.19h15.95v-99.07h-21.16v79.59c-2.24 3.93-7.45 6.81-12.34 6.81-6.17 0-8.1-4.89-8.1-13.06v-73.34h-21.08v74.3c0 16.11 4.65 26.29 19.96 26.29z"/>
				<path id="path1428" class="s4" d="m1200.62 101.25c-10.26 0-17.64 4.49-22.53 11.79h-1.04c0.64-9.62 1.13-17.8 1.13-24.29v-26.21h-20.44l-0.08 86.08 0.08 53.87h17.79l1.52-9.62h0.56c4.73 6.49 12.03 10.58 21.73 10.58 16.11 0 23-13.87 23-43.36v-15.31c0-27.58-3.13-43.53-21.72-43.53zm0.72 58.84c0 18.43-2.73 29.41-11.3 29.41-4.01 0-9.54-1.92-12.03-5.53v-58.91c2.17-5.61 6.98-9.7 12.35-9.7 8.65 0 10.98 10.5 10.98 29.66z"/>
				<path id="path1430" class="s4" d="m1296.62 143.17c0-23.88-2.41-41.59-29.9-41.59-25.89 0-31.66 17.23-31.66 42.56v17.39c0 24.68 5.29 42.64 31.02 42.64 20.36 0 30.86-10.18 29.66-29.9l-18.04-0.96c-0.24 12.18-3.04 17.15-11.14 17.15-10.18 0-10.66-9.7-10.66-24.12v-6.74h40.72zm-30.38-28.29c9.78 0 10.5 9.22 10.5 24.85v8.09h-20.84v-8.09c0-15.47 0.64-24.85 10.34-24.85z"/>
			</g>
		</g>
	</g>
	<g id="PINTEREST">
		<path id="path2" fill-rule="evenodd" class="s7" d="m138.5 912.72c-76.59 0-138.5-61.54-138.5-137.68 0-76.14 61.91-137.69 138.5-137.69 76.59 0 138.5 61.55 138.5 137.69 0 76.14-61.91 137.68-138.5 137.68z"/>
		<path id="path4" class="s8" d="m87.11 902.76c-1.72-15.63-0.5-30.6 2.93-45.08l13.86-59.33c-2.28-7.21-3.99-15.47-3.99-23.73 0-19.26 9.36-33.02 24.04-33.02 10.2 0 17.68 7.04 17.68 20.64 0 4.29-0.89 9.14-2.6 14.64l-6.04 19.76c-1.22 3.8-1.72 7.38-1.72 10.51 0 13.76 10.58 21.53 24.05 21.53 24.05 0 41.22-24.77 41.22-56.92 0-35.77-23.55-58.67-58.34-58.67-38.79 0-63.39 25.1-63.39 60.05 0 14.09 4.32 27.19 12.8 36.11-2.78 4.62-5.71 5.5-10.2 5.5-13.85 0-27.04-19.43-27.04-45.9 0-45.74 36.9-82.24 88.66-82.24 54.36 0 88.49 37.65 88.49 84.11 0 46.78-33.25 81.9-69.1 81.9-14.18 0-26.65-6-35.35-16.84l-7.09 28.56c-3.83 14.81-9.54 28.74-18.73 42.16 12.96 3.97 25.82 6.22 41.22 6.22 76.52 0 138.53-61.59 138.53-137.6 0-76.01-61.95-137.77-138.47-137.77-76.52 0-138.53 61.59-138.53 137.6 0 57.63 35.68 107.34 87.11 127.81z"/>
	</g>
	<g id="TIKTOK">
		<g>
			<path class="s9" d="m1592.32 203.25c17.75 12.68 39.5 20.15 62.99 20.15v-45.18c-4.44 0-8.88-0.46-13.23-1.39v35.57c-23.48 0-45.23-7.47-62.99-20.15v92.19c0 46.12-37.4 83.5-83.54 83.5-17.22 0-33.22-5.2-46.51-14.12 15.17 15.5 36.33 25.12 59.73 25.12 46.15 0 83.55-37.38 83.55-83.5v-92.19zm16.32-45.58c-9.07-9.9-15.03-22.71-16.32-36.86v-5.81h-12.53c3.15 17.99 13.92 33.36 28.85 42.67zm-130.42 160.76c-5.07-6.64-7.8-14.77-7.79-23.12 0-21.1 17.11-38.2 38.22-38.2 3.93 0 7.84 0.6 11.59 1.79v-46.18q-6.58-0.91-13.23-0.77v35.95c-3.75-1.19-7.66-1.79-11.59-1.79-21.11 0-38.22 17.11-38.22 38.2 0 14.92 8.55 27.83 21.02 34.12z"/>
			<path class="s4" d="m1579.09 192.25c17.76 12.68 39.51 20.15 62.99 20.15v-35.57c-13.11-2.79-24.71-9.63-33.44-19.16-14.94-9.31-25.7-24.68-28.85-42.67h-32.93v180.44c-0.07 21.03-17.16 38.06-38.22 38.06-12.41 0-23.44-5.91-30.42-15.07-12.47-6.29-21.02-19.2-21.02-34.12 0-21.09 17.11-38.2 38.21-38.2 4.05 0 7.95 0.63 11.6 1.79v-35.95c-45.33 0.94-81.78 37.96-81.78 83.49 0 22.73 9.08 43.33 23.81 58.38 13.29 8.92 29.29 14.13 46.51 14.13 46.14 0 83.54-37.39 83.54-83.51v-92.19z"/>
			<path class="s10" d="m1642.08 176.83v-9.61c-11.82 0.02-23.41-3.29-33.44-9.55 8.88 9.72 20.57 16.42 33.44 19.16zm-62.29-61.83q-0.46-2.58-0.7-5.19v-5.81h-45.46v180.44c-0.07 21.03-17.15 38.07-38.22 38.07-6.18 0-12.02-1.47-17.19-4.08 6.98 9.16 18.01 15.07 30.42 15.07 21.06 0 38.15-17.03 38.22-38.06v-180.44zm-72.77 96.95v-10.23q-5.71-0.78-11.47-0.78c-46.14 0-83.55 37.39-83.55 83.5 0 28.91 14.7 54.39 37.04 69.38-14.73-15.05-23.81-35.66-23.81-58.38 0-45.53 36.46-82.55 81.79-83.49z"/>
		</g>
	</g>
	<g id="LINKEDIN">
		<g>
			<path fill-rule="evenodd" class="s11" d="m366.5 489.5h171.5c13.53 0 24.5-10.97 24.5-24.5v-171.5c0-13.53-10.97-24.5-24.5-24.5h-171.5c-13.53 0-24.5 10.97-24.5 24.5v171.5c0 13.53 10.97 24.5 24.5 24.5z"/>
			<path fill-rule="evenodd" class="s7" d="m531.87 458.88h-32.72v-55.74c0-15.28-5.8-23.81-17.9-23.81-13.15 0-20.03 8.88-20.03 23.81v55.74h-31.53v-106.17h31.53v14.3c0 0 9.48-17.55 32.01-17.55 22.52 0 38.64 13.76 38.64 42.2zm-139.8-120.07c-10.75 0-19.45-8.76-19.45-19.59 0-10.84 8.7-19.59 19.45-19.59 10.75 0 19.44 8.75 19.44 19.59 0 10.83-8.69 19.59-19.44 19.59zm16.6 13.9v106.17h-32.88v-106.17z"/>
		</g>
	</g>
	<g id="WEIBO">
		<path fill-rule="evenodd" class="s7" d="m1530.28 555.82c-38.73 0-70.04-19.49-70.04-43.61 0-24.13 31.31-43.62 70.04-43.62 38.74 0 70.05 19.49 70.05 43.62 0 24.12-31.31 43.61-70.05 43.61z"/>
		<path class="s12" d="m1602.9 476.93c-2.86-0.88-4.86-1.46-3.32-5.27 3.28-8.22 3.61-15.31 0.04-20.41-6.64-9.5-24.85-8.96-45.71-0.25 0 0-6.56 2.86-4.86-2.32 3.2-10.33 2.7-18.96-2.28-23.94-11.32-11.32-41.44 0.42-67.24 26.22-19.33 19.33-30.53 39.82-30.53 57.53 0 33.89 43.43 54.51 85.95 54.51 55.75 0 92.8-32.4 92.8-58.12 0-15.51-13.07-24.3-24.85-27.95zm-67.83 73.92c-33.93 3.36-63.21-11.99-65.41-34.27-2.2-22.27 23.52-43.01 57.45-46.37 33.93-3.36 63.18 11.98 65.42 34.22 2.2 22.27-23.52 43.06-57.46 46.42z"/>
		<path class="s13" d="m1639.94 414.91c-13.48-14.93-33.31-20.62-51.64-16.72-4.24 0.92-6.97 5.06-6.06 9.29 0.91 4.24 5.1 6.97 9.33 6.06 13.03-2.78 27.13 1.29 36.71 11.86 9.55 10.62 12.16 25.06 8.05 37.75-1.33 4.11 0.91 8.55 5.06 9.88 4.11 1.32 8.55-0.92 9.88-5.06 5.76-17.84 2.11-38.17-11.33-53.06z"/>
		<path class="s13" d="m1619.24 433.54c-6.55-7.26-16.22-10-25.14-8.14-3.65 0.79-5.97 4.4-5.18 8.05 0.79 3.61 4.35 5.98 8 5.19 4.36-0.92 9.09 0.41 12.28 3.94 3.24 3.57 4.11 8.42 2.7 12.65-1.12 3.57 0.83 7.38 4.35 8.5 3.57 1.17 7.39-0.78 8.51-4.35 2.82-8.67 1.08-18.59-5.52-25.84z"/>
		<path class="s4" d="m1538.43 487.34c-16.13-4.19-34.38 3.81-41.35 18.08-7.18 14.48-0.25 30.58 16.05 35.89 16.88 5.43 36.8-2.91 43.72-18.59 6.85-15.31-1.7-31.07-18.42-35.38zm-12.32 37.04c-3.27 5.23-10.28 7.55-15.59 5.1-5.19-2.36-6.76-8.42-3.45-13.56 3.24-5.06 10-7.34 15.27-5.15 5.31 2.29 7.01 8.34 3.77 13.61zm10.83-13.9c-1.2 2.08-3.81 3.03-5.85 2.16-2.03-0.83-2.65-3.07-1.53-5.06 1.2-1.99 3.73-2.94 5.72-2.16 2.03 0.75 2.78 3.03 1.66 5.06z"/>
	</g>
	<g id="FACEBOOK">
		<path id="path17" class="s14" d="m1109.12 436.25c72.98 0 132.13-59.15 132.13-132.13 0-72.97-59.15-132.12-132.13-132.12-72.97 0-132.12 59.15-132.12 132.12 0 72.98 59.15 132.13 132.12 132.13z"/>
		<path id="path4" class="s7" d="m1077.2 432.37v-87.87h-27.27v-40.38h27.27v-17.38c0-44.98 20.35-65.8 64.48-65.8 8.35 0 22.78 1.64 28.7 3.27v36.58c-3.12-0.32-8.56-0.48-15.28-0.48-21.66 0-30.01 8.19-30.01 29.54v14.27h43.18l-7.41 40.38h-35.72v90.79q-7.88 0.96-16.02 0.96c-11 0-21.69-1.35-31.92-3.88z"/>
	</g>
	<g id="VIMEO">
		<path id="path935" fill-rule="evenodd" class="s4" d="m692.33 244.37c-7.77 0-14.05-6.12-14.05-13.69 0-7.56 6.28-13.68 14.05-13.68 7.76 0 14.04 6.12 14.04 13.68 0 7.57-6.28 13.69-14.04 13.69z"/>
		<path id="path937" class="s4" d="m711.78 312.61c-7.88 8.69-19.74 18.39-33.5 18.39-7.8 0-12.48-6.81-12.48-13.68 0-12.54 7.81-31.92 7.81-37.62 0-2.28-1.57-4.57-4.69-4.57-4.68 0-6.77 1.8-6.77 1.8l-1.88-3.92c0 0 15.63-18.39 27.66-18.39 6.24 0 9.09 3.42 9.09 11.39 0 8.45-6.24 34.2-6.24 42.18 0 3.48 2.41 4.56 5.79 4.56 4.06 0 8.69-2.37 12.79-5.23l2.43 5.07z"/>
		<path id="path939" class="s4" d="m872.29 315.9c15.9 0 26.84-5.43 35.16-12.39l3.07 5.52c-6.01 6.94-25.5 21.97-50.13 21.97-21.85 0-34.3-10.2-34.3-27.36 0-23.93 20.25-50.15 51.76-50.15 13.22 0 21.55 7.69 21.55 18.23 0 26.23-26.46 38.77-51.43 36.48v-4.57c10.92 0 28.09-13.68 28.09-27.35 0-3.42-1.62-6.85-6.3-6.85-9.36 0-18.66 14.26-18.66 29.64 0 10.92 4.63 16.81 21.2 16.81z"/>
		<path id="path941" class="s4" d="m981.72 285.24c0-20-12.37-31.77-32.76-31.77-28.37 0-46.81 19.94-46.81 49.02 0 18.24 14.83 28.5 32.76 28.5 31.21 0 46.81-19.54 46.81-45.75zm-43.69 29.8c-6.24 0-10.92-4.57-10.92-15.96 0-14.19 8.29-29.63 18.73-29.63 7.29 0 10.92 5.69 10.92 15.96 0 14.19-7.58 29.63-18.73 29.63z"/>
		<path id="path943" class="s4" d="m651.98 253.76c-15.87 0-23.39 20.53-23.39 20.53l1.23 1.78c1.41-0.84 3.1-1.78 5.05-1.78 2.12 0 3.88 1.57 3.88 5.7 0 6.84-7.82 23.65-14.84 23.65-3.12 0-4.52-5.05-6.54-14.2q-1.03-4.01-3.64-20.54c-1.63-10.2-2.78-14.28-8.54-14.28-13.22 0-26.19 18.4-26.19 18.4l1.88 3.92c1.41-0.84 3.08-1.8 5.54-1.8 4.69 0 5.16 5.21 7.84 14.84 2.42 8.85 4.81 17.53 7.27 26.53 2.46 9 7.54 14.49 13.78 14.49 9.36 0 18.37-7.94 30.6-23.78 5.7-7.3 11.7-17.1 14.84-24 3.18-6.97 3.71-12.89 3.71-15.62 0-7.9-3.12-13.84-12.48-13.84z"/>
		<path id="path945" class="s4" d="m828.96 308.79c-3.6 2.28-7.3 3.97-10.24 3.97-2.56 0-4.68-1.14-4.68-6.84 0-7.97 7.02-19.54 7.02-35.34 0-12.54-6.24-15.96-15.6-15.96-9.36 0-21.85 7.97-29.08 20.51q0.2-2.3 0.21-4.56c0-10.27-3.12-15.96-14.05-15.96-10.93 0-20.54 9.48-27.19 20.51 0.41-3.08 0.65-6.08 0.65-9.12 0-7.97-3.9-11.39-10.14-11.39-10.05 0-26.28 18.39-26.28 18.39l1.88 3.92c0 0 2.63-1.8 6.45-1.8 3.12 0 4.69 2.28 4.69 4.57 0 6.84-6.24 19.38-6.24 28.5 0 15.96 7.8 22.8 24.97 22.8-1.24-2.95-3.12-7.88-3.12-15.96 0-21.66 10.93-36.48 17.95-36.48 3.91 0 5.45 2.86 5.45 7.98 0 7.97-4.68 15.96-4.68 25.08 0 14.81 6.24 19.38 24.97 19.38-1.57-2.28-3.12-8.11-3.12-13.69 0-19.27 9.38-38.76 19.5-38.76 3.25 0 5.6 2.94 5.46 8.04 0 7.92-6.24 21.59-6.24 31.86 0 5.69 3.12 12.54 12.48 12.54 9.36 0 18.62-4.27 27.67-12.04q2.63-2.29 4.96-4.73l-3.66-5.45z"/>
	</g>
	<g id="SPOTIFY">
		<path fill-rule="evenodd" class="s15" d="m520 762c-79.08 0-143-63.92-143-143 0-79.08 63.92-143 143-143 79.08 0 143 63.92 143 143 0 79.08-63.92 143-143 143z"/>
		<path class="s4" d="m611.45 604.64c-3 0-4.84-0.75-7.44-2.25-41.05-24.5-114.46-30.38-161.97-17.12-2.07 0.57-4.67 1.5-7.44 1.5-7.61 0-13.43-5.94-13.43-13.61 0-7.84 4.84-12.28 10.03-13.78 20.3-5.94 43.02-8.77 67.75-8.77 42.1 0 86.21 8.77 118.44 27.57 4.5 2.59 7.44 6.17 7.44 13.03 0 7.84-6.34 13.43-13.38 13.43zm-17.87 43.94c-3 0-5.02-1.33-7.1-2.42-36.03-21.34-89.78-29.93-137.58-16.95-2.76 0.75-4.26 1.5-6.86 1.5-6.17 0-11.18-5.02-11.18-11.19 0-6.17 2.99-10.26 8.93-11.94 16.03-4.49 32.41-7.84 56.4-7.84 37.42 0 73.57 9.28 102.06 26.24 4.67 2.76 6.51 6.34 6.51 11.36-0.06 6.22-4.9 11.24-11.18 11.24zm-15.52 37.83c-2.42 0-3.92-0.75-6.16-2.08-35.99-21.68-77.85-22.6-119.19-14.13-2.25 0.58-5.19 1.5-6.86 1.5-5.6 0-9.11-4.44-9.11-9.11 0-5.94 3.51-8.76 7.84-9.69 47.22-10.43 95.49-9.51 136.66 15.11 3.51 2.25 5.59 4.27 5.59 9.52 0 5.24-4.09 8.88-8.77 8.88z"/>
	</g>
	<g id="VK">
		<path class="s16" d="m492 868.56c0-50.24 0-75.35 15.6-90.96 15.61-15.6 40.72-15.6 90.96-15.6h8.88c50.24 0 75.35 0 90.96 15.6 15.6 15.61 15.6 40.72 15.6 90.96v8.88c0 50.24 0 75.35-15.6 90.96-15.61 15.6-40.72 15.6-90.96 15.6h-8.88c-50.24 0-75.35 0-90.96-15.6-15.6-15.61-15.6-40.72-15.6-90.96z"/>
		<path class="s7" d="m610.1 921.97c-50.55 0-79.41-34.7-80.61-92.42h25.3c0.83 42.37 19.54 60.26 34.32 64v-64h23.91v36.54c14.59-1.59 29.94-18.27 35.14-36.54h23.85c-4 22.52-20.61 39.2-32.48 46.05 11.87 5.52 30.83 20.04 38 46.37h-26.26c-5.65-17.64-19.66-31.21-38.25-33.05v33.05z"/>
	</g>
	<g id="SOUNDCLOUD">
		<g id="A">
			<g>
				<path class="s17" d="m698 528.88c0-17.66 14.22-31.88 31.88-31.88h148.75c17.65 0 31.87 14.22 31.87 31.88v148.75c0 17.65-14.22 31.87-31.88 31.87h-148.75c-17.65 0-31.87-14.22-31.87-31.87z"/>
				<path class="s7" d="m722.49 609.06l-1.25 9.13 1.25 9.13c0 0.83 1.24 0.83 1.24 0l1.25-9.13-1.25-9.13c0-1.25-1.24-1.25-1.24 0zm7.47-5.81c0-1.25-1.25-1.25-1.25 0l-2.07 14.94 1.66 14.53c0 1.24 1.66 1.24 1.66 0l1.66-14.53zm24.48-12.45l-1.24 27.39 0.83 16.61c0 3.32 2.91 3.32 2.91 0l1.66-16.61-1.66-27.39c0-2.07-2.5-2.07-2.5 0zm-12.86 9.13l-1.66 18.26 1.24 16.61c0 2.49 2.08 2.49 2.08 0l1.66-16.61-1.66-18.26c0-1.24-1.66-1.24-1.66 0zm29.05 34.86l1.25-16.6-1.25-36.52c0-2.49-2.9-2.49-2.9 0l-1.25 36.52 0.83 16.6c0 3.32 3.32 3.32 3.32 0zm28.22 0l0.83-16.6-0.83-42.33c0-2.91-4.15-2.91-4.15 0l-0.83 42.33 0.83 16.6c0 3.32 4.15 3.32 4.15 0zm-14.11 0l1.25-16.6-1.25-36.94c0-2.49-3.73-2.49-3.73 0l-0.83 36.94 0.83 16.6c0 3.32 3.73 3.32 3.73 0zm-34.44 0l1.24-16.6-1.24-17.02c0-1.24-2.5-1.24-2.5 0l-1.24 17.02 1.24 16.6c0 2.91 2.5 2.91 2.5 0zm-13.7 0l1.66-16.6-1.66-17.85c0-1.24-1.66-1.24-1.66 0l-1.66 17.85 1.66 16.6c0 1.66 1.66 1.66 1.66 0zm51.46-51.88l-0.83 35.28 0.42 16.6c0 3.32 4.15 3.32 4.15 0l0.83-16.6-0.83-35.28c0-2.9-3.74-2.9-3.74 0zm-24.07 51.88l1.25-16.6-1.25-33.62c0-2.49-2.9-2.49-2.9 0l-1.25 33.62 0.83 16.61c0 3.32 3.32 3.32 3.32-0.01zm13.7 0l1.24-16.6-1.24-37.77c0-2.49-3.32-2.49-3.32 0l-1.25 37.77 1.25 16.6c0 3.32 3.32 3.32 3.32 0zm81.35-36.93c-2.08-23.66-26.57-39.02-48.98-30.3-1.66 0.83-2.07 1.24-2.07 2.49v64.74c0 1.25 0.83 2.49 2.07 2.49h56.86c11.21 0 20.34-9.13 20.34-20.33 0-15.36-14.53-23.66-28.22-19.09zm-57.28-25.74l-1.25 46.07 1.25 16.61c0 3.32 4.15 3.32 4.15 0l1.25-16.61-1.25-46.07c0-2.9-4.15-2.9-4.15 0z"/>
			</g>
		</g>
	</g>
	<g id="MESSENGER">
		<g id="g2">
			<path id="path1" class="s14" d="m1509 761c0 46.54-36.46 80.99-83.5 80.99-8.45 0-16.55-1.11-24.17-3.21-1.48-0.41-3.06-0.29-4.46 0.33l-16.57 7.31c-4.34 1.92-9.23-1.16-9.38-5.9l-0.45-14.86c-0.06-1.83-0.88-3.54-2.25-4.76-16.25-14.53-26.22-35.56-26.22-59.9 0-46.54 36.46-81 83.5-81 47.04 0 83.5 34.46 83.5 81z"/>
			<path id="path2" class="s7" d="m1448.17 784.31l29.07-44.93c2.93-4.51-2.49-9.77-6.91-6.72l-30.35 20.94c-1.02 0.7-2.37 0.72-3.41 0.05l-26.94-17.43c-2.28-1.47-5.32-0.82-6.8 1.46l-29.07 44.93c-2.92 4.51 2.49 9.77 6.92 6.72l30.35-20.94c1.02-0.7 2.37-0.72 3.42-0.05l26.93 17.43c2.28 1.47 5.32 0.82 6.8-1.46z"/>
		</g>
	</g>
	<g id="WHATSAPP">
		<g id="layer101">
		</g>
		<g id="layer102">
			<path class="s18" d="m155.29 635.16c-19.85-1.28-40.49-7.12-58.85-16.65-17.36-9.11-17.5-9.11-20.42-8.33-1.42 0.36-6.33 1.71-10.82 2.99-12.31 3.42-23.98 6.41-29.17 7.47-2.56 0.57-6.48 1.64-8.68 2.42-2.28 0.86-4.91 1.5-5.84 1.5-1 0-2.56 0.28-3.56 0.71-1.56 0.57-1.99 0.42-2.99-1.07-0.99-1.56-0.99-2.13 0.36-7.26 0.78-3.06 1.64-6.33 1.92-7.33 0.71-2.99 3.56-13.16 7.76-27.96 5.48-19.14 5.48-19.36-0.71-29.68-10.25-17.29-17.87-36.29-21.42-53.37-3.56-17.22-3.85-45.04-0.64-62.26 1.7-9.39 7.75-30.81 10.81-38.35 7.83-19.29 19.71-36.94 35.8-53.16 14.01-14.09 29.81-25.47 47.25-34.09 16.58-8.18 28.6-12.09 48.45-15.72 10.61-1.92 33.45-2.63 44.41-1.42 12.88 1.49 35.15 6.61 42.34 9.67 1.21 0.5 4.77 2 7.9 3.35 12.45 5.12 26.97 14.02 39.13 23.84 38.43 30.95 61.27 75.64 64.33 125.81 2.28 37.07-6.62 71.37-26.26 100.76-18.71 27.96-41.13 48.1-68.66 61.48-29.82 14.51-54.94 19-92.44 16.65z"/>
		</g>
		<g id="layer103">
			<path class="s19" d="m220.68 560.8c-0.78-0.14-3.27-0.78-5.55-1.43-2.2-0.56-5.83-1.35-7.97-1.7-2.13-0.36-4.91-1.14-6.19-1.71-1.28-0.57-3.91-1.42-5.9-1.92-1.92-0.43-4.2-1.21-4.98-1.71-0.79-0.43-2.71-1.28-4.27-1.78-1.57-0.5-4.27-1.64-6.05-2.56-1.78-0.93-3.7-1.71-4.41-1.71-0.64 0-1.71-0.5-2.35-1.14-0.64-0.64-2.21-1.56-3.42-1.99-1.92-0.71-6.62-3.13-10.46-5.48-0.57-0.35-2.2-1.28-3.63-1.99-1.35-0.78-2.91-1.92-3.41-2.49-0.57-0.64-1.43-1.14-1.92-1.14-0.57 0-1.57-0.57-2.28-1.21-0.71-0.71-3.2-2.56-5.55-4.13-6.76-4.48-11.88-9.03-25.9-23.12-15.59-15.52-22.99-24.13-29.25-33.8-1-1.57-2.42-3.78-3.2-4.91-3.84-5.7-10.96-19.15-10.96-20.64 0-0.57-0.5-1.35-1.07-1.85-0.57-0.5-1.28-1.99-1.49-3.49-0.29-1.42-1.28-4.62-2.28-7.18-1.56-4.2-1.78-5.63-1.78-15.66-0.07-10.67 0.07-11.24 2.28-17.79 1.28-3.7 2.77-7.26 3.34-7.9 0.57-0.57 1-1.35 1-1.71 0-1.13 6.48-10.31 9.54-13.52 2.63-2.77 4.55-4.12 10.38-7.25 2.57-1.36 17.22-1.29 19.86 0.14 2.7 1.35 5.26 4.48 7.11 8.68 0.93 1.85 2.35 5.05 3.28 6.97 0.92 2 2.49 5.34 3.48 7.47 1 2.14 1.85 4.35 1.85 4.84 0 0.5 0.64 2.14 1.43 3.56 3.63 6.83 5.26 11.89 5.55 17.79 0.21 5.91 0.21 5.98-2.49 9.96-1.5 2.21-3.28 4.56-3.92 5.27-0.71 0.71-1.28 1.49-1.28 1.85 0 0.28-1.42 2.06-3.2 3.91-6.76 7.05-6.4 11.74 1.78 23.63 7.61 10.96 17.65 21.77 27.68 29.88 2.85 2.35 5.98 4.99 6.97 5.91 0.93 0.85 2 1.57 2.28 1.57 0.29 0 1.14 0.64 1.78 1.35 0.71 0.78 2.28 1.78 3.49 2.28 1.28 0.49 2.77 1.28 3.34 1.77 1.5 1.21 9.96 5.7 12.1 6.34 0.99 0.28 2.2 0.85 2.7 1.28 0.57 0.43 3.06 1.49 5.62 2.42 4.34 1.49 4.7 1.49 6.48 0.42 2.13-1.28 11.24-10.6 15.94-16.29 4.55-5.41 6.97-6.9 11.53-6.83 2.84 0 4.84 0.57 7.9 2.2 2.27 1.21 4.48 2.21 4.98 2.21 0.49 0 1.28 0.5 1.78 1.07 0.49 0.64 2.27 1.42 3.98 1.85 1.71 0.42 3.49 1.21 3.91 1.78 0.43 0.57 2.14 1.35 3.78 1.78 1.56 0.42 3.7 1.35 4.69 2.06 1 0.71 2.78 1.49 4.06 1.71 1.28 0.28 2.99 1.06 3.91 1.78 0.93 0.71 2.63 1.49 3.77 1.77 1.21 0.29 2.99 1.36 4.13 2.42 1.71 1.64 1.92 2.35 1.92 6.55 0 3.2-0.57 6.33-1.78 9.82-0.99 2.78-1.78 5.55-1.78 6.12 0 1.71-5.9 8.4-11.45 12.95-9.61 7.9-20.35 12.24-31.53 12.74-3.55 0.14-7.11 0.14-7.9-0.07z"/>
		</g>
	</g>
	<g id="MASTODON">
		<path class="s20" d="m1134.84 544.14c-3.13-22.86-23.24-40.89-47.1-44.39-4.02-0.62-19.26-2.75-54.57-2.75h-0.29c-35.31 0-42.88 2.13-46.91 2.75-23.19 3.4-44.4 19.59-49.51 42.74-2.46 11.4-2.74 24.04-2.27 35.64 0.66 16.66 0.76 33.28 2.32 49.79 1.04 11.03 2.89 21.97 5.49 32.66 4.88 19.88 24.66 36.4 44.02 43.13 20.73 7.05 43.03 8.18 64.37 3.36q3.55-0.81 7.01-1.9c5.16-1.61 11.27-3.45 15.71-6.67q0.05 0 0.1-0.05 0.05-0.05 0.05-0.09 0.04-0.05 0.04-0.15 0.05-0.04 0.05-0.09v-16.05q0-0.04-0.05-0.09 0-0.05 0-0.1-0.04-0.04-0.09-0.09 0-0.05-0.05-0.09-0.05 0-0.09-0.05-0.05 0-0.1-0.05-0.04 0-0.09 0-0.1 0-0.14 0-5.12 1.23-10.32 2.13-5.21 0.95-10.42 1.52-5.25 0.61-10.5 0.89-5.26 0.34-10.56 0.34c-24.23 0-30.72-11.41-32.61-16.14q-0.52-1.57-1-3.13-0.47-1.56-0.8-3.17-0.38-1.56-0.62-3.17-0.23-1.66-0.38-3.27 0-0.09 0-0.23 0.05-0.1 0.15-0.15 0.09-0.09 0.19-0.09 0.14-0.05 0.23 0c13.45 3.22 27.27 4.83 41.14 4.83 3.31 0 6.62 0 9.94-0.1 13.96-0.38 28.63-1.09 42.31-3.74 0.38-0.04 0.71-0.14 1-0.19 21.63-4.11 42.17-17.04 44.3-49.74 0.05-1.28 0.24-13.49 0.24-14.82 0.04-4.54 1.46-32.23-0.19-49.23zm-33.28 81.61h-22.72v-55.19c0-11.6-4.87-17.52-14.81-17.52-10.94 0-16.43 7.01-16.43 20.88v30.2h-22.58v-30.25c0-13.82-5.49-20.83-16.37-20.83-9.9 0-14.82 5.92-14.87 17.52v55.19h-22.67v-56.85q0-17.42 8.99-27.69c6.16-6.82 14.25-10.32 24.29-10.32 11.64 0 20.44 4.45 26.31 13.3l5.64 9.42 5.68-9.42c5.87-8.9 14.62-13.3 26.27-13.3 10.03 0 18.13 3.5 24.33 10.32q8.99 10.27 8.94 27.69z"/>
	</g>
	<g id="BLOGGER">
		<path class="s21" d="m272.57 929.01c-4.01-1.05-7.47-2.6-10.66-4.78-2.69-1.84-6.63-5.63-8.13-7.84-1.83-2.69-3.93-7.3-4.79-10.5-0.87-3.26-0.89-4.56-0.9-82.84-0.02-77.89 0-79.61 0.86-82.95 3.03-11.84 12.41-20.85 24.5-23.54 3.48-0.77 158.88-0.9 162.63-0.14 10.16 2.08 18.15 8.18 22.77 17.39 3.67 7.32 3.34-0.74 3.51 86.23 0.11 55.34 0.01 78.57-0.34 81.46-1.66 13.55-11 24.05-24.44 27.48-3.44 0.88-4.63 0.89-82.7 0.87-75.49-0.02-79.37-0.06-82.31-0.84z"/>
		<path class="s7" d="m385.57 888.82c9.63-1.31 17.17-5.17 24.25-12.4 5.12-5.23 8.33-10.89 10.42-18.41 0.87-3.12 0.94-4.64 1.1-22.97 0.12-13.83 0.02-20.31-0.34-21.95-0.52-2.37-2-4.57-3.69-5.49-0.52-0.28-3.85-0.64-7.4-0.8-5.95-0.26-6.61-0.38-8.49-1.48-2.98-1.75-3.8-3.63-3.8-8.75-0.02-9.77-4.09-18.85-12.13-27.04-5.73-5.84-12.11-9.79-19.41-12-1.74-0.53-5.65-0.71-18.74-0.87-20.55-0.24-25.1 0.18-32.1 2.96-12.89 5.14-22.16 15.96-25.54 29.84-0.63 2.61-0.75 6.78-0.9 30.77-0.19 30.06 0.02 34.48 1.89 40.43 1.56 4.93 3.12 7.94 6.35 12.22 6.14 8.16 15.35 14.05 24.56 15.71 4.38 0.79 58.43 0.99 63.97 0.23z"/>
		<path class="s21" d="m328.76 806.31c-4.92-1.36-6.76-8.42-3.15-12.07 2.32-2.34 2.96-2.43 17.43-2.43 12.99 0 13.43 0.03 15.34 1 2.76 1.39 3.95 3.35 3.95 6.48 0 2.83-1.12 4.81-3.63 6.4-1.35 0.85-2.16 0.9-14.89 0.98-7.86 0.04-14.12-0.11-15.05-0.36zm-0.62 47.52c-2.11-0.92-4.08-3.48-4.42-5.74-0.32-2.16 0.76-5.13 2.43-6.64 2.09-1.9 3.02-1.96 28.81-1.98 26.54-0.02 26.4-0.03 28.91 2.32 3.56 3.32 2.81 9.22-1.47 11.65l-4.41 0.71-22.93 0.27c-20.16 0.24-25.87-0.13-26.92-0.59z"/>
	</g>
	<g id="SNAPCHAT">
		<g id="surface1">
			<path class="s7" d="m1429.31 423.22c-41.39-20.07-47.98-51.06-48.28-53.36-0.35-2.78-0.76-4.97 2.31-7.8 2.96-2.74 16.08-10.87 19.72-13.42 6.01-4.21 8.66-8.42 6.71-13.59-1.37-3.57-4.69-4.92-8.19-4.92q-1.67 0-3.29 0.37c-6.61 1.43-13.03 4.75-16.74 5.65q-0.68 0.17-1.37 0.18c-1.98 0-2.73-0.88-2.54-3.27 0.46-7.23 1.45-21.36 0.31-34.56-1.57-18.15-7.41-27.15-14.34-35.1-3.36-3.86-18.93-20.43-48.97-20.43-30.05 0-45.6 16.57-48.93 20.38-6.95 7.96-12.79 16.95-14.34 35.11-1.14 13.19-0.12 27.31 0.3 34.55 0.14 2.28-0.56 3.27-2.54 3.27q-0.69-0.01-1.36-0.18c-3.71-0.9-10.13-4.21-16.74-5.65q-1.62-0.36-3.28-0.37c-3.52 0-6.83 1.37-8.2 4.93-1.95 5.17 0.68 9.37 6.72 13.59 3.64 2.54 16.76 10.67 19.72 13.41 3.05 2.83 2.66 5.02 2.3 7.81-0.29 2.33-6.89 33.32-48.28 53.35-2.42 1.18-6.55 3.67 0.73 7.69 11.42 6.32 19.02 5.64 24.92 9.46 5.01 3.23 2.05 10.21 5.7 12.72 4.48 3.1 17.72-0.21 34.83 5.44 14.34 4.74 23.05 18.11 48.48 18.11 25.43 0 34.4-13.43 48.49-18.11 17.07-5.65 30.34-2.34 34.82-5.44 3.64-2.51 0.68-9.49 5.7-12.72 5.91-3.82 13.5-3.14 24.92-9.46 7.26-3.97 3.14-6.46 0.71-7.64z"/>
			<path class="s4" d="m1447.32 420.86c-1.86-5.06-5.39-7.77-9.42-10.01q-1-0.59-2.05-1.08c-1.2-0.62-2.43-1.22-3.65-1.86-12.56-6.67-22.37-15.08-29.17-25.06q-2.9-4.22-5.01-8.89c-0.58-1.66-0.55-2.6-0.13-3.47q0.62-1 1.6-1.67c2.16-1.43 4.39-2.88 5.9-3.86 2.69-1.74 4.82-3.13 6.19-4.1 5.15-3.62 8.76-7.45 11.01-11.74 3.18-6 3.61-13.08 1.16-19.42-3.42-9-11.9-14.59-22.19-14.59q-3.26 0-6.45 0.69-0.86 0.18-1.69 0.39c0.1-6.15-0.04-12.65-0.59-19.05-1.94-22.48-9.8-34.27-17.99-43.67-5.25-5.89-11.43-10.87-18.3-14.74-12.43-7.12-26.53-10.73-41.9-10.73-15.38 0-29.41 3.61-41.86 10.73-6.88 3.87-13.07 8.87-18.33 14.77-8.19 9.4-16.05 21.21-17.99 43.67-0.55 6.4-0.68 12.93-0.59 19.05q-0.83-0.21-1.69-0.39-3.18-0.69-6.45-0.69c-10.29 0-18.79 5.59-22.19 14.59-2.46 6.34-2.05 13.43 1.13 19.43 2.26 4.29 5.86 8.13 11.02 11.74 1.36 0.96 3.5 2.34 6.19 4.11 1.45 0.94 3.58 2.32 5.66 3.71 0.73 0.47 1.35 1.09 1.82 1.82 0.44 0.9 0.45 1.86-0.2 3.64q-2.07 4.57-4.92 8.71c-6.66 9.75-16.17 18.01-28.33 24.62-6.44 3.43-13.13 5.71-15.96 13.41-2.13 5.8-0.74 12.41 4.68 17.98 1.99 2.08 4.29 3.82 6.83 5.18 5.27 2.9 10.89 5.15 16.71 6.69q1.81 0.47 3.37 1.52c1.98 1.73 1.7 4.33 4.33 8.15 1.31 1.97 2.99 3.68 4.94 5.03 5.52 3.82 11.72 4.06 18.29 4.31 5.93 0.23 12.66 0.49 20.34 3.03 3.18 1.05 6.49 3.09 10.32 5.47 9.2 5.66 21.79 13.41 42.86 13.41 21.08 0 33.76-7.79 43.02-13.47 3.81-2.34 7.09-4.36 10.19-5.39 7.68-2.54 14.4-2.79 20.34-3.02 6.57-0.25 12.77-0.49 18.29-4.31 2.3-1.61 4.22-3.71 5.62-6.15 1.9-3.23 1.85-5.48 3.62-7.05q1.47-0.99 3.17-1.45c5.9-1.55 11.59-3.82 16.94-6.76 2.69-1.45 5.12-3.35 7.17-5.62l0.07-0.08c5.08-5.45 6.35-11.87 4.27-17.53zm-18.73 10.08c-11.43 6.32-19.02 5.65-24.93 9.46-5.02 3.23-2.04 10.21-5.69 12.73-4.48 3.09-17.72-0.22-34.83 5.43-14.11 4.68-23.11 18.11-48.48 18.11-25.38 0-34.17-13.41-48.51-18.14-17.07-5.66-30.34-2.34-34.82-5.44-3.65-2.52-0.69-9.49-5.7-12.73-5.91-3.81-13.51-3.13-24.93-9.42-7.27-4.02-3.14-6.51-0.72-7.69 41.38-20.07 47.99-51.05 48.28-53.35 0.36-2.79 0.75-4.97-2.31-7.81-2.96-2.73-16.07-10.87-19.71-13.41-6.03-4.21-8.68-8.42-6.72-13.59 1.36-3.58 4.69-4.93 8.19-4.93q1.66 0.01 3.29 0.37c6.61 1.44 13.03 4.76 16.73 5.65q0.68 0.17 1.37 0.19c1.98 0 2.68-1 2.54-3.27-0.42-7.25-1.45-21.37-0.31-34.56 1.57-18.16 7.4-27.15 14.34-35.11 3.34-3.82 18.99-20.4 48.94-20.4 29.94 0 45.64 16.51 48.98 20.32 6.94 7.96 12.79 16.95 14.34 35.11 1.14 13.19 0.15 27.32-0.31 34.55-0.16 2.39 0.56 3.27 2.54 3.27q0.69-0.01 1.36-0.18c3.72-0.9 10.14-4.21 16.75-5.65q1.62-0.36 3.28-0.37c3.52 0 6.83 1.37 8.2 4.93 1.95 5.17-0.68 9.37-6.71 13.59-3.64 2.54-16.76 10.67-19.72 13.41-3.07 2.83-2.66 5.02-2.31 7.81 0.3 2.33 6.89 33.32 48.28 53.35 2.45 1.23 6.57 3.72-0.7 7.77z"/>
		</g>
	</g>
	<g id="PEERTUBE">
		<g id="Peertube_V3_logo-Copy">
			<g id="Group">
				<path id="PeerTube" class="s4" d="m780.17 467.01l5.36-22.44h2.73q7.35 0 13.45-1.55 6.1-1.55 10.51-4.75 4.41-3.21 6.88-8.17 2.47-4.97 2.47-11.7 0-3.95-1.2-7.32-1.21-3.37-3.89-5.82-2.68-2.46-6.83-3.8-4.16-1.33-9.94-1.33-3.36 0-7.72 0.37-4.36 0.38-9.3 1.23l-15.45 65.28zm11.96-32.76h-3.15l5.04-22.86q1.47-0.23 2.41-0.28 0.95-0.06 2.42-0.06 6.09 0 8.3 2.51 2.2 2.52 2.2 6.86 0 6.52-4.36 10.17-4.36 3.66-12.86 3.66zm49 34.12q4.96 0 9.14-1.04 4.18-1.05 6.51-2.24l-0.78-9.25q-1.65 0.8-5.15 1.64-3.5 0.85-7.39 0.85-3.31 0-5.49-0.55-2.19-0.55-3.51-1.54-1.31-1-1.89-2.44-0.59-1.44-0.59-3.23 6.71 0 12.5-1 5.79-0.99 10.07-3.18 4.27-2.19 6.71-5.72 2.43-3.53 2.43-8.6 0-6.07-4.28-9.45-4.28-3.38-10.99-3.38-6.71 0-11.91 2.48-5.21 2.49-8.85 6.57-3.65 4.08-5.55 9.5-1.89 5.42-1.89 11.19 0 4.27 1.17 7.81 1.16 3.53 3.69 6.11 2.53 2.59 6.52 4.03 3.98 1.44 9.53 1.44zm-10.04-25.93q1.56-7.13 5.63-10.39 4.06-3.26 8.57-3.26 2.94 0 4.55 1.29 1.62 1.3 1.62 3.67 0 1.35-0.88 2.9-0.88 1.55-3.14 2.84-2.25 1.3-6.22 2.12-3.96 0.83-10.13 0.83zm56.22 25.93q4.96 0 9.14-1.04 4.18-1.05 6.52-2.24l-0.78-9.25q-1.65 0.8-5.15 1.64-3.51 0.85-7.4 0.85-3.3 0-5.49-0.55-2.19-0.55-3.5-1.54-1.31-1-1.9-2.44-0.58-1.44-0.58-3.23 6.71 0 12.5-1 5.78-0.99 10.06-3.18 4.28-2.19 6.71-5.72 2.43-3.53 2.43-8.6 0-6.07-4.28-9.45-4.28-3.38-10.99-3.38-6.71 0-11.91 2.48-5.2 2.49-8.85 6.57-3.64 4.08-5.54 9.5-1.9 5.42-1.9 11.19 0 4.27 1.17 7.81 1.17 3.53 3.7 6.11 2.52 2.59 6.51 4.03 3.99 1.44 9.53 1.44zm-8.68-25.93q1.57-7.13 5.63-10.39 4.07-3.26 8.57-3.26 2.94 0 4.56 1.29 1.61 1.3 1.61 3.67 0 1.35-0.88 2.9-0.88 1.55-3.13 2.84-2.26 1.3-6.22 2.12-3.97 0.83-10.14 0.83zm46.15 24.57l8.22-34.71q2.28-0.8 5.01-1.14 2.72-0.35 5.3-0.35 3.77 0 6.34 0.4 2.58 0.39 4.46 1.09l4.66-11.27q-2.97-0.8-6.49-1.29-3.52-0.5-9.07-0.5-4.75 0-10.16 1.04-5.4 1.05-10.06 2.95l-10.4 43.78zm57.11 0v-56.89h20.35v-9.99h-52.98v9.99h20.35v56.89zm34.76 1.36q5.52 0 10.21-0.89 4.69-0.9 7.99-1.79v-45.09h-12v36.65q-2.71 0.5-5.42 0.5-4.36 0-5.86-3.13-1.5-3.13-1.5-9.59v-24.43h-11.9v26.02q0 4.77 0.77 8.74 0.78 3.97 2.86 6.9 2.08 2.93 5.66 4.52 3.58 1.59 9.19 1.59zm45.88 0q5.4 0 9.59-1.73 4.2-1.72 7.09-4.88 2.9-3.16 4.4-7.65 1.49-4.5 1.49-10.03 0-5.43-1.19-9.87-1.2-4.44-3.55-7.65-2.35-3.21-5.84-4.94-3.5-1.73-8.09-1.73-2.4 0-4.8 0.45-2.39 0.44-4.99 1.63v-23.21l-12.29 2.08v65.06q3.4 1.09 8.39 1.78 5 0.69 9.79 0.69zm-0.25-10.92q-1.12 0-2.7-0.09-1.57-0.1-3-0.4v-24.94q1.43-0.79 3.41-1.33 1.99-0.53 4.03-0.53 4.48 0 6.67 3.42 2.19 3.43 2.19 9.88 0 7.63-2.85 10.81-2.86 3.18-7.75 3.18zm54.65 10.92q4.37 0 7.86-0.74 3.49-0.75 6.6-1.85l-1.65-10.46q-2.23 0.79-5.48 1.59-3.26 0.8-6.85 0.8-5.82 0-9.5-2.64-3.69-2.64-3.69-7.23h29.59q0.1-0.8 0.15-2.09 0.05-1.3 0.05-2.49 0-11.76-5.24-17.89-5.24-6.13-15.33-6.13-4.08 0-7.96 1.59-3.88 1.6-6.89 4.74-3.01 3.14-4.85 7.82-1.84 4.68-1.84 10.86 0 5.98 1.74 10.47 1.75 4.48 5 7.52 3.25 3.04 7.86 4.59 4.61 1.54 10.43 1.54zm6.21-28.66h-19.02q0.2-1.83 0.86-3.57 0.66-1.74 1.82-3.09 1.17-1.35 2.94-2.12 1.77-0.77 4.19-0.77 2.53 0 4.25 0.82 1.72 0.82 2.84 2.17 1.11 1.35 1.61 3.04 0.51 1.69 0.51 3.52z"/>
				<path id="Triangle" fill-rule="evenodd" class="s4" d="m678 437v-50l38 25z"/>
				<path id="Triangle-Copy" fill-rule="evenodd" class="s22" d="m678 487v-50l38 25z"/>
				<path id="Triangle-Copy-2" fill-rule="evenodd" class="s23" d="m716 462v-50l38 25z"/>
			</g>
		</g>
	</g>
	<g id="DRIBBBLE">
		<path fill-rule="evenodd" class="s4" d="m1652.48 71.71c0.68-0.8 1.89-0.76 2.52 0.09h-0.01l2.37 3.24c0.45 0.63 0.45 1.48-0.02 2.09-4.12 5.34-11.33 10.48-20.04 10.98-6.87 0.39-12.53-2.21-15.62-7.13-0.61-0.98-1.96-1.03-2.64-0.11-3.66 4.91-8.09 8.75-12.7 9.02-8.22 0.47-10.54-5.05-8.51-17.2 0.2-1.21-0.86-2.23-2-1.93-1.7 0.45-3.51 0.65-5.35 0.49-0.76-0.06-1.48 0.4-1.71 1.16-3.04 9.99-10.28 19.28-19.64 19.82-5.99 0.34-14.92-3.08-14.03-17.4 0.08-1.17-0.97-2.08-2.04-1.76-1.88 0.57-3.9 0.84-5.95 0.67-0.77-0.07-1.48 0.4-1.71 1.16-3.04 9.98-10.28 19.28-19.65 19.81-5.98 0.35-14.91-3.08-14.02-17.39 0.08-1.17-0.97-2.09-2.04-1.76-1.88 0.57-3.9 0.84-5.96 0.66-0.76-0.06-1.47 0.4-1.7 1.16-3.04 9.99-10.28 19.28-19.65 19.82-4.25 0.24-10.01-1.42-12.65-7.56-0.51-1.18-2.04-1.36-2.79-0.33-3.7 5.05-8.21 9.03-12.91 9.3-4.82 0.28-7.46-1.66-8.61-5.11-0.41-1.22-1.93-1.51-2.75-0.54-3.29 3.87-7.04 6.7-10.84 6.92-5.84 0.34-9.21-4-9.49-9.25-0.32-6.12 2.33-13.3 5.29-21.13 0.41-1.09-0.33-2.26-1.46-2.31-1.7-0.08-3.65-0.26-5.48-0.6-0.83-0.16-1.63 0.36-1.87 1.2-3.5 12.49-8.86 24.74-13.38 31.98-0.5 0.81-1.55 1.02-2.31 0.46l-3.45-2.54c-0.71-0.52-0.9-1.53-0.43-2.29 6.54-10.47 12.34-26.86 14.34-38.98 0.12-0.77 0.75-1.34 1.51-1.39l4.59-0.26c1.05-0.07 1.88 0.92 1.69 2l-0.02 0.11c-0.17 0.96 0.47 1.87 1.4 1.99 4.12 0.57 10.27 0.64 14.45 0.48 1.17-0.05 2 1.16 1.58 2.3-3.35 8.91-7.84 21.27-7.59 26.16 0.12 2.2 1.1 3.41 2.81 3.31 3.28-0.19 8.33-6.78 12.15-14.13q0.11-0.19 0.15-0.42c1.29-5.75 3.2-12.16 5.14-18.64l0.12-0.4c0.2-0.68 0.78-1.15 1.46-1.19l5.5-0.32c1.14-0.06 1.99 1.08 1.64 2.21q-0.42 1.4-0.84 2.77c-4.84 15.86-8.91 29.18-3.43 28.87 3.57-0.2 8.64-6.27 13-14.91q0.11-0.22 0.16-0.46 0.32-1.69 0.81-3.54c2.54-10.16 5.42-20.22 8.31-30.29q1.34-4.66 2.66-9.33c0.2-0.69 0.79-1.17 1.47-1.21l5.65-0.33c1.15-0.06 2 1.09 1.64 2.23-2.26 7.07-4.62 14.6-6.85 21.86-0.47 1.52 1.16 2.79 2.45 1.91 2.23-1.52 4.81-2.53 7.3-2.67 6.35-0.36 10.68 4.86 11.09 12.74q0.04 0.63 0.06 1.32c0.03 0.87 0.68 1.57 1.51 1.65 2.99 0.26 6.05-0.63 8.41-2.73q0.37-0.34 0.49-0.83c2.34-9.09 4.93-18.11 7.51-27.14q1.33-4.64 2.65-9.29c0.19-0.69 0.78-1.17 1.47-1.21l5.64-0.32c1.15-0.07 2 1.08 1.64 2.22-2.25 7.07-4.61 14.61-6.85 21.86-0.47 1.52 1.17 2.8 2.46 1.92 2.23-1.53 4.8-2.54 7.3-2.68 6.35-0.36 10.67 4.86 11.09 12.74q0.04 0.63 0.06 1.32c0.02 0.87 0.68 1.57 1.51 1.65 2.99 0.26 6.05-0.63 8.41-2.73q0.36-0.34 0.49-0.83c2.34-9.09 4.92-18.11 7.51-27.14q1.33-4.64 2.64-9.29c0.2-0.69 0.79-1.17 1.48-1.21l5.64-0.32c1.15-0.07 2 1.08 1.64 2.22-2.26 7.07-4.61 14.61-6.85 21.86-0.47 1.53 1.16 2.8 2.46 1.92 2.22-1.53 4.8-2.54 7.29-2.68 6.36-0.36 10.68 4.86 11.1 12.74q0.03 0.63 0.05 1.32c0.03 0.87 0.68 1.58 1.51 1.65 2.89 0.26 5.85-0.57 8.18-2.53q0.39-0.34 0.52-0.85c2.67-10.28 6.58-23.74 10.36-36.62 0.2-0.68 0.78-1.15 1.47-1.19l5.59-0.32c1.13-0.07 1.98 1.06 1.64 2.19-5.19 17.25-9.43 32.34-11.76 41.24-3.11 12.08-3.23 15.56 0.3 15.36 2.97-0.17 6.96-4.38 10.72-10.73q0.23-0.39 0.24-0.83c0.5-12.72 8.3-24.29 19.89-24.96 7.77-0.44 12.02 5.42 12.33 11.2 0.58 11.02-10.32 18.06-20.87 17.41-1.23-0.08-2.13 1.24-1.59 2.39 1.48 3.15 4.58 4.91 9.88 4.61 5.05-0.29 10.33-4.64 13.67-8.52zm-174.52 3.09c-2.5 10.04 0.54 13.97 4.47 13.75 6.46-0.37 12.71-12.2 12.23-21.34-0.21-3.99-2.55-6.06-5.27-5.91-4.54 0.26-9.42 5.49-11.43 13.5zm43.38-2.48c-2.51 10.04 0.53 13.97 4.47 13.75h-0.01c6.46-0.37 12.71-12.21 12.23-21.34-0.2-3.99-2.54-6.07-5.27-5.91-4.53 0.26-9.42 5.48-11.42 13.5zm43.37-2.49c-2.5 10.04 0.54 13.97 4.47 13.75 6.45-0.37 12.71-12.2 12.23-21.34-0.21-3.99-2.55-6.06-5.27-5.91-4.54 0.26-9.42 5.49-11.43 13.5zm78.43-13.12c-0.04-2.64-1.66-4.54-4.28-4.39-5.15 0.29-9.19 5.87-10.47 12.64-0.2 1.07 0.58 2.08 1.64 2.05 6.65-0.16 13.32-4.56 13.11-10.3zm-241.56 4.89c0.79 22.59-13.84 50.17-43.7 51.88-9.07 0.52-18.1-1.41-24.05-4.78-0.76-0.43-1.05-1.43-0.66-2.24l2.62-5.48c0.42-0.87 1.44-1.2 2.25-0.73 1.68 0.98 3.66 1.82 5.82 2.56 0.89 0.3 1.84-0.24 2.08-1.17 4.15-16.23 8.76-33.52 13.36-49.47 0.2-0.68 0.79-1.16 1.48-1.2l6.1-0.35c1.13-0.07 1.98 1.06 1.65 2.19-4.8 16.22-9.5 33.66-13.53 49.92-0.26 1.07 0.52 2.11 1.59 2.11q1.15 0.01 2.25-0.05c20.88-1.2 33.87-23.32 33.15-42.65-0.57-16.61-10.44-25.2-23.86-24.65-7.24 0.32-14.76 3.32-20.27 7.9-0.77 0.64-1.88 0.46-2.41-0.39l-3.07-5.01c-0.46-0.75-0.29-1.73 0.39-2.27 7.25-5.7 16.87-8.89 25.28-9.28 19.6-0.7 32.85 12.76 33.53 33.15zm57.81-11.89c-3.19 0-5.77-2.94-5.77-6.59 0-3.64 2.58-6.59 5.77-6.59 3.19 0 5.77 2.95 5.77 6.59 0 3.65-2.58 6.59-5.77 6.59z"/>
	</g>
	<g id="BEHANCE">
		<path class="s4" d="m63.25 917c4.09 0 7.86 0.31 11.33 1.25 3.46 0.62 6.3 1.9 8.83 3.46 2.53 1.56 4.4 3.77 5.68 6.61 1.25 2.85 1.91 6.31 1.91 10.08 0 4.4-0.94 8.18-3.15 11.02-1.91 2.84-5.02 5.37-8.84 7.24 5.37 1.55 9.46 4.39 11.95 8.17 2.49 3.77 4.09 8.48 4.09 13.85 0 4.4-0.94 8.17-2.53 11.33-1.56 3.15-4.09 5.99-6.93 7.86-2.84 1.9-6.31 3.46-10.08 4.39-3.78 0.94-7.55 1.56-11.33 1.56l-42.18 0.08v-86.9zm-2.53 35.26c3.46 0 6.3-0.94 8.48-2.53 2.18-1.6 3.16-4.4 3.16-7.86 0-1.91-0.31-3.78-0.94-5.02-0.62-1.25-1.55-2.22-2.84-3.16-1.24-0.62-2.53-1.24-4.08-1.55-1.56-0.31-3.16-0.31-5.02-0.31h-18.26v20.47c0-0.04 19.5-0.04 19.5-0.04zm0.93 37.16c1.91 0 3.78-0.31 5.37-0.62 1.56-0.31 3.16-0.93 4.4-1.91 1.25-0.97 2.22-1.9 3.15-3.46 0.63-1.56 1.25-3.46 1.25-5.68 0-4.4-1.25-7.55-3.77-9.77-2.53-1.91-6-2.84-10.08-2.84h-20.75v24.24h20.43z"/>
		<path class="s4" d="m122.44 989.11q3.8 3.79 11.33 3.78c3.46 0 6.61-0.94 9.14-2.53 2.53-1.91 4.09-3.78 4.71-5.69h15.41c-2.53 7.55-6.3 12.93-11.32 16.39-5.02 3.15-11.02 5.02-18.25 5.02-5.02 0-9.46-0.94-13.55-2.53-4.08-1.56-7.24-3.78-10.08-6.93-2.84-2.84-5.02-6.3-6.3-10.39-1.56-4.08-2.22-8.48-2.22-13.54 0-4.71 0.62-9.15 2.22-13.23 1.59-4.09 3.77-7.55 6.61-10.7 2.85-2.85 6.31-5.37 10.08-6.93 4.09-1.56 8.18-2.53 13.24-2.53 5.37 0 10.07 0.93 14.16 3.15 4.09 2.22 7.24 4.71 9.77 8.48 2.53 3.47 4.4 7.55 5.68 11.95 0.62 4.4 0.93 8.84 0.62 13.86h-45.65c0 5.13 1.87 9.84 4.4 12.37zm19.85-33.08c-2.22-2.22-5.68-3.46-9.77-3.46-2.84 0-5.02 0.62-6.93 1.56-1.9 0.93-3.15 2.21-4.39 3.46-1.25 1.24-1.91 2.84-2.22 4.4-0.31 1.55-0.62 2.84-0.62 4.08h28.33c-0.63-4.67-2.22-7.82-4.4-10.04zm-27.71-33.04h35.26v8.49h-35.26z"/>
		<path class="s4" d="m188.25 917v32.73h0.31c2.22-3.78 5.02-6.31 8.48-7.86 3.47-1.56 6.62-2.53 10.08-2.53q7.07-0.01 11.33 1.9c2.84 1.25 5.37 3.16 6.93 5.38 1.55 2.21 2.84 5.02 3.46 8.17 0.62 3.15 0.93 6.61 0.93 10.7v38.72h-17.32v-35.57c0-5.37-0.93-9.14-2.52-11.63-1.6-2.49-4.36-3.82-8.45-3.82-4.71 0-8.17 1.56-10.08 4.09-2.22 2.84-3.15 7.55-3.15 13.85v33.08h-17.32v-87.21z"/>
		<path class="s4" d="m242.42 950.39c1.91-2.84 4.09-4.71 6.93-6.62 2.84-1.55 5.99-2.84 9.45-3.46q5.2-0.93 10.39-0.93c3.16 0 6.31 0.31 9.77 0.62 3.15 0.31 6.31 1.24 8.84 2.53 2.84 1.24 4.71 3.15 6.61 5.37 1.56 2.22 2.53 5.37 2.53 9.14v33.08c0 2.84 0.31 5.68 0.62 8.18 0.32 2.53 1.25 4.7 2.22 5.99h-17.63c-0.62-0.62-0.93-1.91-1.24-2.84-0.31-0.94-0.31-2.22-0.31-3.15-2.84 2.84-6 4.7-9.77 5.99-3.78 1.24-7.55 1.56-11.33 1.56-3.15 0-5.68-0.32-8.48-1.25-2.53-0.62-4.71-1.91-6.93-3.46-1.9-1.56-3.46-3.47-4.71-6-0.93-2.53-1.55-5.02-1.55-8.48 0-3.46 0.62-6.62 1.91-8.83 1.24-2.22 2.84-4.09 4.7-5.69 1.91-1.24 4.4-2.53 6.93-3.15 2.53-0.62 5.02-1.24 7.86-1.55 2.53-0.32 5.02-0.63 7.55-0.94 2.53-0.31 4.71-0.62 6.62-0.93 1.9-0.63 3.46-1.25 4.71-2.22 1.24-0.94 1.55-2.22 1.55-4.09 0-1.9-0.31-3.46-0.93-4.39-0.62-0.94-1.56-1.91-2.53-2.53-0.93-0.63-2.22-0.94-3.46-1.25-1.25-0.31-2.85-0.31-4.4-0.31-3.47 0-5.99 0.62-7.86 2.22-1.91 1.55-3.15 4.08-3.47 7.24h-17.31c-0.12-3.9 1.12-7.36 2.72-9.85zm34.32 24.56c-0.93 0.31-2.21 0.62-3.46 0.93-1.24 0.31-2.53 0.31-4.09 0.62-1.24 0.31-2.84 0.31-4.08 0.63-1.25 0.31-2.53 0.62-3.78 0.93-1.24 0.31-2.53 0.93-3.15 1.56-0.93 0.62-1.56 1.55-2.22 2.53-0.93 1.24-0.93 2.52-0.93 4.08 0 1.56 0.31 2.84 0.93 3.78 0.63 0.93 1.25 1.9 2.22 2.53 0.94 0.62 2.22 0.93 3.46 1.24 1.25 0.31 2.53 0.31 4.09 0.31 3.46 0 5.99-0.62 7.86-1.55 1.91-1.25 3.15-2.53 4.09-4.09 0.93-1.56 1.55-3.15 1.55-4.71 0.32-1.56 0.32-2.84 0.32-3.77v-6.62c-0.94 0.62-1.87 1.28-2.81 1.6z"/>
		<path class="s4" d="m323.02 940.93v8.84h0.31c2.21-3.78 5.02-6.31 8.48-7.86 3.46-1.56 7.24-2.53 10.7-2.53q7.07-0.01 11.33 1.9c3.15 1.25 5.37 3.16 6.92 5.37 1.56 2.22 2.84 5.02 3.78 8.18 0.62 3.15 0.93 6.61 0.93 10.7v38.72h-17.32v-35.57c0-5.37-0.93-9.14-2.52-11.64-1.56-2.52-4.4-4.08-8.84-4.08-4.71 0-8.17 1.91-10.39 4.71-2.22 2.84-3.15 7.55-3.15 13.85v33.08h-17.32v-63.67c0.08 0 17.09 0 17.09 0z"/>
		<path class="s4" d="m404.27 952.26c-2.84 0-5.02 0.62-6.93 1.9-1.9 1.25-3.46 2.85-4.7 5.02-1.25 1.91-1.91 4.09-2.53 6.62-0.63 2.53-0.63 4.71-0.63 7.24 0 2.22 0.32 4.71 0.63 6.93 0.62 2.53 1.24 4.39 2.53 6.3 1.24 1.91 2.53 3.46 4.39 4.71 1.91 1.24 4.09 1.91 6.93 1.91 4.09 0 7.24-1.25 9.77-3.47 2.22-2.22 3.77-5.37 4.08-9.45h16.7c-1.25 8.48-4.4 14.78-9.77 19.22q-8.05 6.61-20.78 6.62c-4.71 0-9.14-0.94-12.92-2.53-4.09-1.56-7.24-3.78-10.08-6.62-2.84-2.84-5.02-6.3-6.61-10.08-1.56-4.08-2.22-8.17-2.22-12.92 0-5.02 0.62-9.45 2.22-13.54 1.55-4.09 3.46-7.86 6.3-11.01 2.84-3.16 6.3-5.37 10.08-7.24 4.09-1.56 8.48-2.53 13.54-2.53 3.78 0 7.24 0.62 10.7 1.55 3.47 0.94 6.62 2.53 9.15 4.4 2.84 1.91 5.02 4.4 6.61 7.55 1.56 2.84 2.53 6.62 2.85 10.7h-17.01q-0.98-11.27-12.3-11.28z"/>
		<path class="s4" d="m460.62 989.11c2.53 2.53 6.62 3.78 11.33 3.78 3.46 0 6.61-0.94 9.14-2.53 2.53-1.91 4.09-3.78 4.71-5.69h15.1c-2.53 7.55-6.3 12.93-11.32 16.39-5.02 3.15-11.02 5.02-18.26 5.02-5.02 0-9.45-0.94-13.54-2.53-4.08-1.56-7.24-3.78-10.08-6.93-2.84-2.84-5.02-6.3-6.3-10.39-1.56-4.08-2.22-8.48-2.22-13.54 0-4.71 0.62-9.15 2.22-13.23 1.55-4.09 3.77-7.55 6.61-10.7 2.84-2.85 6.31-5.37 10.08-6.93 4.09-1.56 8.49-2.53 13.23-2.53 5.37 0 10.08 0.93 13.86 3.15 4.08 2.22 7.24 4.71 9.77 8.48 2.53 3.47 4.39 7.55 5.68 11.95 1.24 4.4 1.55 9.15 1.24 14.17h-45.65c0 4.82 1.87 9.53 4.4 12.06zm20.16-33.08c-2.22-2.22-5.68-3.46-9.77-3.46-2.84 0-5.02 0.62-6.92 1.56-1.91 0.93-3.47 2.21-4.4 3.46-0.94 1.24-1.91 2.84-2.22 4.4-0.31 1.55-0.62 2.84-0.62 4.08h28.33c-0.94-4.67-2.53-7.82-4.4-10.04z"/>
	</g>
	<g id="TELEGRAM">
		<path fill-rule="evenodd" class="s24" d="m1184.5 901c-72.72 0-131.5-58.78-131.5-131.5 0-72.72 58.78-131.5 131.5-131.5 72.72 0 131.5 58.78 131.5 131.5 0 72.72-58.78 131.5-131.5 131.5z"/>
		<path fill-rule="evenodd" class="s7" d="m1112.45 768.08c38.33-16.65 63.84-27.7 76.65-33.07 36.46-15.22 44.12-17.85 49.05-17.96 1.1 0 3.5 0.22 5.15 1.54 1.31 1.09 1.64 2.51 1.86 3.61 0.22 1.09 0.44 3.39 0.22 5.15-1.97 20.8-10.51 71.27-14.89 94.49-1.86 9.85-5.48 13.14-8.98 13.46-7.67 0.66-13.47-5.03-20.81-9.85-11.6-7.55-18.06-12.26-29.34-19.71-13.03-8.54-4.6-13.25 2.85-20.91 1.97-1.97 35.58-32.63 36.24-35.37 0.11-0.33 0.11-1.64-0.66-2.3-0.76-0.65-1.86-0.43-2.73-0.22-1.21 0.22-19.6 12.49-55.41 36.68-5.25 3.62-9.96 5.37-14.23 5.26-4.71-0.11-13.69-2.63-20.48-4.82-8.21-2.63-14.78-4.05-14.23-8.65 0.33-2.41 3.61-4.82 9.74-7.33z"/>
	</g>
	<g id="REDDIT">
		<g>
			<path class="s25" d="m1120.56 922.93l-10.62 25.25c-1.34-0.67-4.52-1.42-7.53-1.42-3 0-6.02 0.75-8.95 2.17-5.77 2.93-10.03 8.78-10.03 17.23v46.24h-26.43v-89.98h25.68v12.62h0.5c6.02-8.03 15.22-13.96 27.18-13.96 4.35 0 8.53 0.84 10.2 1.84z"/>
			<path class="s25" d="m1115.45 967.67c0-26 17.81-46.58 44.49-46.58 24.16 0 41.48 17.65 41.48 42.49 0 4.35-0.42 8.44-1.34 12.37h-60.55c2.76 9.46 10.96 16.81 23.25 16.81 6.77 0 16.39-2.42 21.57-6.43l8.2 19.73c-7.62 5.18-19.23 7.69-29.44 7.69-28.51 0-47.66-18.4-47.66-46.08zm23.58-8.28h38.04c0-11.54-7.86-17.64-17.48-17.64-10.87 0-18.23 7.02-20.56 17.64z"/>
			<path class="s25" d="m1428.18 882c8.87 0 16.13 7.28 16.13 16.14 0 8.86-7.27 16.13-16.13 16.13-8.86 0-16.14-7.27-16.14-16.13 0-8.86 7.28-16.14 16.14-16.14zm13.21 130.41h-26.43v-89.98h26.43z"/>
			<path class="s25" d="m1274.74 883.63l-0.08 47.33h-0.5c-7.28-6.94-15.14-9.79-25.42-9.79-25.34 0-42.15 20.41-42.15 46.24 0 25.84 15.72 46.34 41.31 46.34 10.71 0 20.82-3.68 27.35-12.05h0.75v10.71h25.17v-128.78zm1.26 107.33h-0.88l-5.9-6.13c-3.83 3.83-9.09 6.13-15.22 6.13-12.95 0-22-10.24-22-23.52 0-13.28 9.05-23.52 22-23.52 12.94 0 22 10.24 22 23.52z"/>
			<path class="s25" d="m1375.67 883.63l-0.08 47.33h-0.5c-7.28-6.94-15.14-9.79-25.42-9.79-25.34 0-42.15 20.41-42.15 46.24 0 25.84 15.72 46.34 41.31 46.34 10.71 0 20.82-3.68 27.35-12.05h0.75v10.71h25.17v-128.78zm1.13 107.33h-0.87l-5.9-6.13c-3.84 3.83-9.09 6.13-15.23 6.13-12.94 0-21.99-10.24-21.99-23.52 0-13.28 9.05-23.52 21.99-23.52 12.95 0 22 10.24 22 23.52z"/>
			<path class="s25" d="m1492.64 922.43h19.32v22.49h-19.32v67.49h-26.43v-67.49h-19.23v-22.49h19.23v-24.46h26.43z"/>
		</g>
	</g>
	<g id="QUORA">
		<path fill-rule="evenodd" class="s26" d="m1434 569c0 23.99-8.44 46-22.52 63.23l19.52 19.52c0 0 3 2.75 3 7.25 0 4.5-4 10-10 10h-90c-55.23 0-100-44.77-100-100 0-55.23 44.77-100 100-100 55.23 0 100 44.77 100 100zm-100 60c33.14 0 60-26.86 60-60 0-33.14-26.86-60-60-60-33.14 0-60 26.86-60 60 0 33.14 26.86 60 60 60z"/>
	</g>
	<g id="LINE">
		<g id="g262">
			<path id="rect1" class="s27" d="m1479 636.46v55.61q0 0.49 0.19 0.94 0.19 0.46 0.53 0.8 0.35 0.35 0.8 0.54 0.45 0.18 0.94 0.18h35.72q0.49 0 0.94-0.18 0.46-0.19 0.8-0.54 0.35-0.34 0.54-0.8 0.18-0.45 0.18-0.94v-9.08q0-0.49-0.18-0.94-0.19-0.46-0.54-0.8-0.34-0.35-0.8-0.54-0.45-0.18-0.94-0.19h-24.17v-44.06q0-0.49-0.19-0.94-0.19-0.45-0.53-0.8-0.35-0.34-0.8-0.53-0.46-0.19-0.95-0.19h-9.08q-0.49 0-0.94 0.19-0.45 0.19-0.8 0.53-0.34 0.35-0.53 0.8-0.19 0.45-0.19 0.94zm48.25 0v55.61q0.01 0.49 0.19 0.94 0.19 0.46 0.54 0.8 0.34 0.35 0.8 0.54 0.45 0.18 0.94 0.18h9.08q0.49 0 0.94-0.18 0.45-0.19 0.8-0.54 0.35-0.34 0.54-0.8 0.18-0.45 0.18-0.94v-55.61q0-0.49-0.18-0.94-0.19-0.45-0.54-0.8-0.35-0.34-0.8-0.53-0.45-0.19-0.94-0.19h-9.08q-0.49 0-0.94 0.19-0.46 0.19-0.8 0.53-0.35 0.35-0.54 0.8-0.18 0.45-0.19 0.94zm22.58 0v55.61q0 0.49 0.18 0.94 0.19 0.46 0.54 0.8 0.34 0.35 0.8 0.54 0.45 0.18 0.94 0.18h8.95q0.49 0 0.94-0.18 0.46-0.19 0.8-0.54 0.35-0.34 0.54-0.8 0.18-0.45 0.18-0.94v-32.98l25.45 34.3q0.19 0.26 0.45 0.48 0.25 0.21 0.55 0.36 0.3 0.15 0.62 0.23 0.33 0.07 0.66 0.07h8.73q0.49 0 0.94-0.18 0.45-0.19 0.8-0.54 0.34-0.34 0.53-0.8 0.19-0.45 0.19-0.94v-55.61q0-0.49-0.19-0.94-0.19-0.45-0.53-0.8-0.35-0.34-0.8-0.53-0.45-0.19-0.94-0.19h-8.96q-0.49 0-0.94 0.19-0.45 0.19-0.8 0.53-0.34 0.35-0.53 0.8-0.19 0.45-0.19 0.94v33.08l-25.34-34.33q-0.2-0.28-0.47-0.51-0.27-0.22-0.58-0.38-0.32-0.16-0.66-0.24-0.34-0.08-0.69-0.08h-8.71q-0.49 0-0.94 0.19-0.46 0.19-0.8 0.53-0.35 0.35-0.54 0.8-0.18 0.45-0.18 0.94zm61.48 0v55.61q0 0.49 0.19 0.94 0.19 0.46 0.53 0.8 0.35 0.35 0.8 0.54 0.46 0.18 0.95 0.18h35.71q0.49 0 0.94-0.18 0.46-0.19 0.8-0.54 0.35-0.34 0.54-0.8 0.18-0.45 0.19-0.94v-8.95q-0.01-0.49-0.19-0.94-0.19-0.46-0.54-0.8-0.34-0.35-0.8-0.54-0.45-0.18-0.94-0.19h-24.3v-9.42h24.3q0.49 0 0.94-0.19 0.46-0.19 0.8-0.53 0.35-0.35 0.54-0.8 0.18-0.46 0.19-0.95v-8.95q-0.01-0.49-0.19-0.94-0.19-0.45-0.54-0.8-0.34-0.35-0.8-0.53-0.45-0.19-0.94-0.19h-24.3v-9.47h24.3q0.49 0 0.94-0.19 0.46-0.19 0.8-0.53 0.35-0.35 0.54-0.8 0.18-0.45 0.19-0.94v-8.96q-0.01-0.49-0.19-0.94-0.19-0.45-0.54-0.8-0.34-0.34-0.8-0.53-0.45-0.19-0.94-0.19h-35.71q-0.49 0-0.95 0.19-0.45 0.19-0.8 0.53-0.34 0.35-0.53 0.8-0.19 0.45-0.19 0.94z"/>
		</g>
	</g>
	<g id="TUMBLR">
		<path class="s28" d="m1647.73 882.81c-5.62 0-10.18 4.47-10.18 9.97 0 5.51 4.56 9.97 10.18 9.97 5.63 0 10.19-4.46 10.19-9.97-0.01-5.5-4.56-9.97-10.19-9.97zm-55.76 5.67l0.02-58.48h-6.16c0 0-10.22 3.7-17.58 4.48v11.05h4.65c1.49 0 2.12 0.64 2.14 2.03v40.92c0 1.44-0.84 2.23-2.21 2.32-1.18 0.08-3.81 0.25-3.81 0.25v11.05h28.98v-11.05c0 0-2.64-0.17-3.81-0.25-1.38-0.09-2.22-0.88-2.22-2.32zm58.56-29.02c-0.56-12.33-17.25-12.89-25.98-4.57l-1.59-4.77h-20.17v11.29h4.23c1.5 0 2.05 0.63 2.07 2.03v25.04c0 1.44-0.84 2.23-2.22 2.32-1.17 0.08-3.53 0.25-3.53 0.25v11.05h28.4v-11.05c0 0-2.35-0.17-3.52-0.25-1.38-0.09-2.23-0.88-2.23-2.32v-16.98c0-3.18 0.73-8.49 6.34-9.85 0.69 5.31 5.83 6.9 8.33 6.9 6.32 0 9.87-4.73 9.87-9.09zm-107-10.03c-4.3 0.19-8.84 1.83-12.13 4.7v-24.13h-6.09c0 0-9.96 3.54-17.66 4.49l-0.25 11.04 4.87 0.01c1.49 0 2.14 0.64 2.16 2.03v54.53l13.92-0.01 1.99-4.47c0.42 0.23 6.81 6.24 17.01 5.04 12.84-1.52 19.59-11.68 19.59-27.11 0.01-8.09-2.48-27.03-23.41-26.12zm-2.57 40.62c-2.36 0.17-6.74-0.23-9.55-5.17v-7.24-8.37c0-3.62 3.34-6.79 8.51-6.98 5.24-0.2 9.87 3.38 9.87 13.47-0.01 13.63-5.98 14.07-8.83 14.29zm-37.51-1.52c0 0 0-12.84 0-15.77 0-5.62-0.07-11.43-3.79-16.17-3.41-4.34-9.06-7.52-17.64-7.1-5.7 0.27-11.78 2.92-15.14 7.45l-0.52 0.67-0.33-0.38c-3.45-4.99-8.96-8.16-17.54-7.74-5.7 0.27-11.78 2.92-15.13 7.45l-0.5-6.76h-21.03v11.29l4.84 0.07c1.49 0 2.13 0.64 2.15 2.04v22.1 2.85c0 1.44-0.85 2.23-2.22 2.32-1.18 0.08-3.55 0.25-3.55 0.25v11.04l28.43 0.01v-11.05c0 0-2.24-0.16-3.55-0.25-1.37-0.09-2.22-0.88-2.22-2.32 0 0 0.03-14.11 0.03-16.94 0-2.82 2.33-8.61 9.75-8.61 5.98 0 7.2 3.65 7.2 7.89 0 4.24 0.01 17.66 0.01 17.66 0 1.44-0.85 2.23-2.22 2.32-1.17 0.08-3.55 0.25-3.55 0.25v11.04h28.41v-11.04c0 0-2.24-0.16-3.56-0.25-1.37-0.09-2.2-0.88-2.2-2.32h-0.04c0 0 0.02-14.11 0.02-16.94 0-2.82 2.08-8.61 9.5-8.61 5.98 0 7.47 3.64 7.47 7.89v14.81 2.85c0 1.44-0.85 2.23-2.22 2.32-1.17 0.08-3.55 0.25-3.55 0.25v11.04h28.44v-11.05c0 0-2.24-0.15-3.55-0.24-1.35-0.09-2.19-0.88-2.19-2.33zm-100.85 0.11v-38.46h-23.64v11.3h4.56c1.49 0 2.12 0.63 2.14 2.03l-0.02 17.54c0 1.72-1.24 8.18-9.85 8.34-5.87 0.12-7.1-3.34-7.1-7.88v-31.32h-17.4v32.22c0 8.15 3.72 20.97 21.09 20.51 5.71-0.16 12.24-3.03 15.64-7.24l0.14 6.48h19.39v-11.05c0 0-1.57-0.12-2.74-0.2-1.38-0.08-2.21-0.82-2.21-2.26zm-64.43 1.28c-5.77 0.15-6.89-3.97-6.94-6.96v-20.75h13.46v-12.03h-13.41v-17.88h-10.56c-0.18 0-0.48 0.15-0.52 0.53-0.62 5.51-3.25 15.17-14.19 19.03v10.35h8.32v21.84c0 7.9 4.93 19.12 20.64 18.85 5.3-0.08 11.19-2.26 12.49-4.13l-3.47-10.07c-1.34 0.62-3.9 1.17-5.82 1.22z"/>
	</g>
</svg>