<svg xmlns="http://www.w3.org/2000/svg" xmlns:xlink="http://www.w3.org/1999/xlink" width="1000" viewBox="0 0 750 562.499983" height="750" preserveAspectRatio="xMidYMid meet"><defs><g></g><clipPath id="debf3fcf84"><path d="M 173.855469 33.710938 L 652.679688 33.710938 L 652.679688 512.535156 L 173.855469 512.535156 Z M 173.855469 33.710938 " clip-rule="nonzero"></path></clipPath><clipPath id="c1e86aa5b3"><path d="M 173.855469 108.644531 L 173.855469 437.539062 C 173.855469 478.921875 207.402344 512.472656 248.789062 512.472656 L 577.679688 512.472656 C 619.066406 512.472656 652.613281 478.921875 652.613281 437.539062 L 652.613281 108.644531 C 652.613281 67.261719 619.066406 33.710938 577.679688 33.710938 L 248.789062 33.710938 C 207.402344 33.710938 173.855469 67.261719 173.855469 108.644531 Z M 173.855469 108.644531 " clip-rule="nonzero"></path></clipPath><clipPath id="5c2310c583"><path d="M 0.332031 7 L 415 7 L 415 484 L 0.332031 484 Z M 0.332031 7 " clip-rule="nonzero"></path></clipPath><clipPath id="9df2240fd1"><path d="M 124 210 L 735 210 L 735 307 L 124 307 Z M 124 210 " clip-rule="nonzero"></path></clipPath><clipPath id="3f1a74f9a6"><path d="M 119.15625 207.503906 L 728.5 166.714844 L 736.910156 292.320312 L 127.566406 333.109375 Z M 119.15625 207.503906 " clip-rule="nonzero"></path></clipPath><clipPath id="fe9195f912"><path d="M 127.574219 333.203125 L 736.914062 292.414062 L 728.507812 166.808594 L 119.164062 207.597656 Z M 127.574219 333.203125 " clip-rule="nonzero"></path></clipPath><clipPath id="e93df45798"><path d="M 494 178 L 749.664062 178 L 749.664062 435 L 494 435 Z M 494 178 " clip-rule="nonzero"></path></clipPath></defs><g clip-path="url(#debf3fcf84)"><g clip-path="url(#c1e86aa5b3)"><path fill="#122620" d="M 413.230469 512.464844 C 280.984375 512.464844 173.855469 404.597656 173.855469 273.089844 C 173.855469 141.578125 280.984375 33.710938 413.230469 33.710938 C 545.480469 33.710938 652.609375 140.839844 652.609375 273.089844 C 652.609375 405.335938 544.742188 512.464844 413.230469 512.464844 Z M 413.230469 48.488281 C 289.109375 48.488281 188.632812 148.96875 188.632812 273.089844 C 188.632812 397.210938 289.109375 497.6875 413.230469 497.6875 C 537.351562 497.6875 637.832031 397.210938 637.832031 273.089844 C 637.832031 148.96875 536.613281 48.488281 413.230469 48.488281 Z M 413.230469 48.488281 " fill-opacity="1" fill-rule="nonzero"></path></g></g><g clip-path="url(#5c2310c583)"><path stroke-linecap="butt" transform="matrix(2.32825, 0, 0, 2.32825, -182.809639, 175.780234)" fill="none" stroke-linejoin="miter" d="M 225.852445 50.900395 C 226.642671 51.034616 227.082244 51.497678 227.172844 52.287904 C 227.172844 52.784522 227.025201 53.12343 226.73327 53.30295 C 226.439661 53.484149 226.122564 53.574748 225.785334 53.574748 C 222.850927 53.777757 219.916521 53.947211 216.983792 54.081432 C 216.576096 54.081432 216.181822 54.104921 215.797614 54.150221 C 215.143287 54.150221 214.500704 54.183776 213.868187 54.250886 C 212.920251 54.250886 211.995804 54.296186 211.093168 54.386785 C 210.393541 54.386785 209.918734 54.510939 209.670425 54.759248 C 209.422117 55.007557 209.276151 55.480686 209.230852 56.180313 C 208.937243 60.356264 208.643635 64.52047 208.350026 68.672932 C 207.898708 76.617138 207.131971 84.516044 206.048136 92.36965 C 205.845127 93.609516 205.665606 94.85106 205.506219 96.092605 C 205.371998 97.582458 205.202544 99.048822 204.999535 100.493376 C 204.751226 102.073828 203.858656 102.795266 202.325181 102.661045 C 201.083637 102.546957 200.42931 101.926185 200.360521 100.798728 C 200.474609 97.751912 200.632319 94.716839 200.835328 91.691834 C 201.083637 88.217188 201.331946 84.740864 201.580255 81.266218 C 202.076872 74.561879 202.516446 67.837407 202.900654 61.089446 C 202.945953 60.25392 203.00132 59.508994 203.070108 58.854666 C 203.204329 57.410113 203.21104 56.378289 203.086885 55.757517 C 202.962731 55.136745 202.528191 54.776026 201.783264 54.673682 C 201.038338 54.573017 199.820282 54.601539 198.12742 54.759248 C 197.585502 54.804548 197.021774 54.826359 196.434557 54.826359 C 189.077569 55.232377 181.730647 55.334721 174.397147 55.131712 C 172.162368 55.041112 171.135577 54.522684 171.315097 53.574748 C 171.519785 52.964042 171.846948 52.59829 172.298266 52.474136 C 172.749584 52.349981 173.222713 52.321459 173.719331 52.38857 C 173.92234 52.38857 174.091794 52.38857 174.227693 52.38857 C 178.063058 52.185561 181.888357 52.027851 185.703588 51.915441 C 186.200206 51.870141 186.696824 51.84833 187.193442 51.84833 C 189.178235 51.803031 191.164705 51.757731 193.151176 51.712432 C 195.791974 51.667132 198.421028 51.588277 201.038338 51.475867 C 201.940974 51.475867 202.550002 51.328224 202.867099 51.034616 C 203.182518 50.741007 203.373783 50.121913 203.442571 49.173977 C 203.531493 48.338451 203.600281 47.491181 203.64558 46.633845 C 203.80329 43.565217 203.949255 40.5184 204.085154 37.493395 C 204.400574 32.032278 204.632105 26.571161 204.779748 21.110044 C 204.925713 15.647249 204.897191 10.186133 204.694182 4.725016 C 204.491173 -0.105262 204.152265 -4.912052 203.679136 -9.697031 C 203.204329 -14.480331 202.471147 -19.26531 201.477911 -24.050289 C 200.981294 -26.28339 200.338711 -28.484615 199.548484 -30.650606 C 198.421028 -33.585013 196.749977 -35.796304 194.538686 -37.286157 C 192.327395 -38.77601 189.674852 -39.599791 186.582736 -39.757501 C 184.552643 -39.8934 182.532617 -39.836356 180.524336 -39.588047 C 178.514376 -39.339738 176.53965 -39.024319 174.600156 -38.640111 C 165.956324 -36.901949 157.589323 -34.482616 149.497474 -31.378755 C 141.407304 -28.276572 133.513431 -24.614017 125.817535 -20.394444 C 117.173702 -15.721876 109.10702 -10.181904 101.614133 -3.772851 C 97.753602 -0.499537 94.300767 3.168052 91.25395 7.229915 C 89.517466 9.531805 88.185322 12.07026 87.259197 14.846957 C 85.861621 19.157129 87.124976 22.452254 91.050941 24.732333 C 94.866172 26.920136 98.961591 28.139869 103.340551 28.388178 C 105.325344 28.500588 107.311815 28.557632 109.298285 28.557632 C 110.33682 28.557632 111.373677 28.557632 112.412212 28.557632 C 113.405448 28.557632 114.398683 28.624742 115.391919 28.760641 C 115.594928 28.805941 115.769415 28.918351 115.915381 29.097871 C 116.063024 29.27907 116.158656 29.470334 116.203956 29.673344 C 116.203956 29.854542 116.141878 30.045807 116.017724 30.248816 C 115.89357 30.453503 115.764382 30.599469 115.628483 30.690068 C 114.974156 31.005487 114.29634 31.186685 113.596713 31.231985 C 113.214183 31.231985 112.818231 31.231985 112.412212 31.231985 C 109.591894 31.320906 106.764864 31.315873 103.932801 31.215207 C 101.100738 31.112864 98.295519 30.768923 95.5205 30.181706 C 92.247185 29.482079 89.190302 28.240535 86.346495 26.458751 C 81.583327 23.388445 80.095152 19.168873 81.876935 13.796677 C 82.779572 11.021658 84.099971 8.459715 85.838133 6.112525 C 89.562765 1.102727 93.849448 -3.3316 98.701537 -7.190453 C 104.525051 -11.975432 110.65224 -16.275537 117.084781 -20.089091 C 123.515645 -23.902645 130.173006 -27.300114 137.056865 -30.278143 C 147.641869 -35.063121 158.564103 -38.6636 169.826922 -41.0779 C 173.053259 -41.822826 176.319863 -42.358033 179.626733 -42.685196 C 182.933603 -43.01236 186.245506 -43.007327 189.562442 -42.668419 C 193.738393 -42.2624 197.201295 -40.992334 199.954503 -38.859898 C 202.707711 -36.727462 204.76297 -33.652123 206.116925 -29.63556 C 206.905473 -27.085361 207.537989 -24.494896 208.012796 -21.865842 C 208.485925 -19.236788 208.870133 -16.612767 209.163741 -13.995458 C 209.997589 -7.473995 210.517696 -0.922333 210.720705 5.656174 C 210.923714 12.234681 210.900225 18.841709 210.651917 25.47726 C 210.606617 26.220509 210.584806 26.99899 210.584806 27.812705 C 210.224087 34.515366 209.873435 41.285138 209.536204 48.123698 C 209.536204 48.281407 209.536204 48.42905 209.536204 48.563271 C 209.490905 48.722659 209.467416 48.880369 209.467416 49.038078 C 209.422117 50.324922 209.987523 50.967505 211.160279 50.967505 C 213.146749 50.922205 215.131542 50.865162 217.118013 50.798051 C 217.43511 50.752751 217.762274 50.730941 218.099504 50.730941 C 218.753832 50.730941 219.398092 50.707452 220.028931 50.662152 C 221.136254 50.616853 222.208344 50.573231 223.245202 50.527931 C 224.126027 50.573231 224.995108 50.697385 225.852445 50.900395 Z M 225.852445 50.900395 " stroke="#fffef9" stroke-width="5.19999" stroke-opacity="1" stroke-miterlimit="4"></path></g><g fill="#122620" fill-opacity="1"><g transform="translate(1.595014, 355.055461)"><g><path d="M 341.4375 -60.765625 C 343.28125 -60.453125 344.304688 -59.375 344.515625 -57.53125 C 344.515625 -56.375 344.171875 -55.585938 343.484375 -55.171875 C 342.804688 -54.753906 342.070312 -54.546875 341.28125 -54.546875 C 334.457031 -54.066406 327.628906 -53.671875 320.796875 -53.359375 C 319.847656 -53.359375 318.925781 -53.304688 318.03125 -53.203125 C 316.507812 -53.203125 315.015625 -53.125 313.546875 -52.96875 C 311.335938 -52.96875 309.179688 -52.863281 307.078125 -52.65625 C 305.453125 -52.65625 304.347656 -52.363281 303.765625 -51.78125 C 303.191406 -51.207031 302.851562 -50.101562 302.75 -48.46875 C 302.0625 -38.75 301.378906 -29.054688 300.703125 -19.390625 C 299.648438 -0.890625 297.859375 17.5 295.328125 35.78125 C 294.859375 38.675781 294.441406 41.566406 294.078125 44.453125 C 293.765625 47.921875 293.367188 51.335938 292.890625 54.703125 C 292.316406 58.378906 290.242188 60.0625 286.671875 59.75 C 283.773438 59.476562 282.25 58.03125 282.09375 55.40625 C 282.351562 48.3125 282.722656 41.242188 283.203125 34.203125 C 283.773438 26.109375 284.351562 18.019531 284.9375 9.9375 C 286.09375 -5.675781 287.113281 -21.335938 288 -37.046875 C 288.101562 -38.992188 288.238281 -40.726562 288.40625 -42.25 C 288.71875 -45.613281 288.726562 -48.015625 288.4375 -49.453125 C 288.144531 -50.898438 287.128906 -51.742188 285.390625 -51.984375 C 283.660156 -52.222656 280.828125 -52.15625 276.890625 -51.78125 C 275.628906 -51.675781 274.316406 -51.625 272.953125 -51.625 C 255.816406 -50.675781 238.710938 -50.441406 221.640625 -50.921875 C 216.441406 -51.128906 214.050781 -52.335938 214.46875 -54.546875 C 214.9375 -55.960938 215.695312 -56.8125 216.75 -57.09375 C 217.800781 -57.382812 218.90625 -57.453125 220.0625 -57.296875 C 220.53125 -57.296875 220.925781 -57.296875 221.25 -57.296875 C 230.175781 -57.773438 239.082031 -58.144531 247.96875 -58.40625 C 249.125 -58.507812 250.28125 -58.5625 251.4375 -58.5625 C 256.0625 -58.664062 260.6875 -58.769531 265.3125 -58.875 C 271.457031 -58.976562 277.578125 -59.164062 283.671875 -59.4375 C 285.773438 -59.4375 287.191406 -59.773438 287.921875 -60.453125 C 288.660156 -61.140625 289.109375 -62.585938 289.265625 -64.796875 C 289.472656 -66.734375 289.628906 -68.703125 289.734375 -70.703125 C 290.109375 -77.847656 290.453125 -84.941406 290.765625 -91.984375 C 291.503906 -104.703125 292.039062 -117.414062 292.375 -130.125 C 292.71875 -142.84375 292.65625 -155.5625 292.1875 -168.28125 C 291.707031 -179.519531 290.914062 -190.707031 289.8125 -201.84375 C 288.707031 -212.988281 287 -224.132812 284.6875 -235.28125 C 283.539062 -240.476562 282.046875 -245.597656 280.203125 -250.640625 C 277.578125 -257.472656 273.6875 -262.625 268.53125 -266.09375 C 263.382812 -269.5625 257.210938 -271.476562 250.015625 -271.84375 C 245.285156 -272.164062 240.582031 -272.035156 235.90625 -271.453125 C 231.226562 -270.878906 226.628906 -270.144531 222.109375 -269.25 C 201.984375 -265.195312 182.5 -259.554688 163.65625 -252.328125 C 144.820312 -245.109375 126.445312 -236.585938 108.53125 -226.765625 C 88.40625 -215.890625 69.617188 -202.988281 52.171875 -188.0625 C 43.191406 -180.445312 35.15625 -171.910156 28.0625 -162.453125 C 24.007812 -157.085938 20.910156 -151.175781 18.765625 -144.71875 C 15.503906 -134.675781 18.445312 -127.003906 27.59375 -121.703125 C 36.46875 -116.597656 46.003906 -113.757812 56.203125 -113.1875 C 60.828125 -112.925781 65.453125 -112.796875 70.078125 -112.796875 C 72.492188 -112.796875 74.910156 -112.796875 77.328125 -112.796875 C 79.640625 -112.796875 81.945312 -112.632812 84.25 -112.3125 C 84.726562 -112.207031 85.132812 -111.945312 85.46875 -111.53125 C 85.8125 -111.113281 86.039062 -110.664062 86.15625 -110.1875 C 86.15625 -109.769531 86.007812 -109.320312 85.71875 -108.84375 C 85.425781 -108.375 85.125 -108.035156 84.8125 -107.828125 C 83.289062 -107.085938 81.710938 -106.664062 80.078125 -106.5625 C 79.179688 -106.5625 78.265625 -106.5625 77.328125 -106.5625 C 70.753906 -106.351562 64.171875 -106.363281 57.578125 -106.59375 C 50.984375 -106.832031 44.453125 -107.632812 37.984375 -109 C 30.367188 -110.632812 23.25 -113.523438 16.625 -117.671875 C 5.539062 -124.816406 2.078125 -134.644531 6.234375 -147.15625 C 8.328125 -153.613281 11.398438 -159.578125 15.453125 -165.046875 C 24.117188 -176.710938 34.101562 -187.039062 45.40625 -196.03125 C 58.957031 -207.164062 73.21875 -217.171875 88.1875 -226.046875 C 103.164062 -234.929688 118.671875 -242.84375 134.703125 -249.78125 C 159.347656 -260.914062 184.78125 -269.296875 211 -274.921875 C 218.507812 -276.648438 226.113281 -277.894531 233.8125 -278.65625 C 241.507812 -279.425781 249.222656 -279.414062 256.953125 -278.625 C 266.671875 -277.675781 274.734375 -274.71875 281.140625 -269.75 C 287.554688 -264.789062 292.34375 -257.632812 295.5 -248.28125 C 297.332031 -242.34375 298.800781 -236.3125 299.90625 -230.1875 C 301.007812 -224.070312 301.90625 -217.960938 302.59375 -211.859375 C 304.53125 -196.679688 305.734375 -181.429688 306.203125 -166.109375 C 306.679688 -150.796875 306.632812 -135.414062 306.0625 -119.96875 C 305.945312 -118.226562 305.890625 -116.414062 305.890625 -114.53125 C 305.054688 -98.914062 304.242188 -83.148438 303.453125 -67.234375 C 303.453125 -66.867188 303.453125 -66.523438 303.453125 -66.203125 C 303.347656 -65.835938 303.296875 -65.472656 303.296875 -65.109375 C 303.191406 -62.109375 304.503906 -60.609375 307.234375 -60.609375 C 311.859375 -60.710938 316.484375 -60.84375 321.109375 -61 C 321.847656 -61.101562 322.609375 -61.15625 323.390625 -61.15625 C 324.921875 -61.15625 326.421875 -61.210938 327.890625 -61.328125 C 330.460938 -61.429688 332.957031 -61.535156 335.375 -61.640625 C 337.425781 -61.535156 339.445312 -61.242188 341.4375 -60.765625 Z M 341.4375 -60.765625 "></path></g></g></g><path stroke-linecap="butt" transform="matrix(3.106045, 0, 0, 3.106045, -42.563261, 124.419895)" fill="none" stroke-linejoin="miter" d="M 139.207101 60.784319 C 139.635952 59.90398 139.928979 59.497766 140.08744 59.565678 C 140.245901 59.63359 140.284888 59.989498 140.205657 60.632146 C 140.126427 61.276052 139.985572 62.002961 139.783094 62.815389 C 139.488809 64.056668 138.981985 65.495394 138.258849 67.131568 C 137.53697 68.767743 136.735861 70.251744 135.855522 71.583572 C 134.546331 73.434801 132.927763 74.828252 130.998562 75.763928 C 129.068103 76.700861 127.32 76.932264 125.75048 76.458139 C 124.182218 75.984013 123.27421 74.5063 123.0252 72.023742 C 122.981183 69.947398 123.161023 67.668576 123.567237 65.186018 C 123.703061 64.147217 123.848946 63.132311 124.007407 62.138785 C 124.007407 61.777846 123.916858 61.501167 123.737017 61.30875 C 123.555919 61.117591 123.319485 61.044648 123.0252 61.089923 C 122.822722 61.089923 122.597606 61.089923 122.348596 61.089923 C 121.107317 61.292401 119.843401 61.269764 118.556847 61.022011 C 117.022541 60.570523 116.130882 59.8084 115.88313 58.736901 C 115.634119 57.664144 115.656757 56.259373 115.951042 54.521331 C 116.108245 53.280052 116.571052 52.349408 117.338205 51.729397 C 118.105358 51.108129 119.008335 50.854088 120.047136 50.967274 C 121.490893 51.103098 122.190135 51.655197 122.146118 52.626086 C 122.100843 53.596975 121.829195 54.634518 121.33369 55.741231 C 120.882201 56.665587 120.64451 57.439029 120.621872 58.059039 C 120.599235 58.680308 121.129954 58.900392 122.212772 58.719294 C 122.461782 58.651382 122.732172 58.573409 123.0252 58.48286 C 123.431414 58.324399 123.894221 58.183544 124.413621 58.059039 C 124.933022 57.935792 125.609625 57.906866 126.44469 57.974778 C 127.438217 58.020053 128.098471 58.476572 128.425455 59.345593 C 128.752438 60.214614 128.893292 61.30372 128.848018 62.612911 C 128.802743 63.922102 128.679496 65.252672 128.47576 66.607138 C 128.228007 68.299905 128.103502 69.74995 128.103502 70.957273 C 128.103502 72.164596 128.453123 72.870126 129.153621 73.072604 C 130.077978 73.321614 131.460111 72.480261 133.300021 70.551059 C 135.139931 68.621858 137.108119 65.365859 139.207101 60.784319 Z M 164.325707 58.48286 C 164.664009 58.144558 164.84385 58.555802 164.866487 59.717851 C 164.889124 60.881157 163.833974 62.506012 161.702295 64.593675 C 159.569357 66.68008 157.363478 67.668576 155.083398 67.555389 C 154.586635 67.510115 154.164072 67.549101 153.814451 67.673606 C 153.46483 67.798111 153.165515 68.086108 152.916505 68.536339 C 152.668752 68.942553 152.375725 69.316068 152.037423 69.65437 C 152.037423 69.65437 152.014785 69.677008 151.969511 69.722282 C 150.569771 71.211314 148.928566 72.193522 147.043381 72.66639 C 145.159454 73.140516 143.371107 72.994631 141.67834 72.22622 C 139.985572 71.459067 138.766931 70.003991 138.022415 67.859735 C 137.480377 65.919215 137.435103 63.988756 137.886591 62.070873 C 138.270168 60.378105 138.890178 58.787206 139.747881 57.298174 C 140.786681 55.312379 142.134859 53.906351 143.79367 53.082605 C 145.452482 52.258858 147.331378 51.802339 149.430359 51.71179 C 152.544247 51.554587 154.508662 53.020981 155.32109 56.113489 C 155.816595 57.895548 155.9411 59.701502 155.693347 61.528835 C 155.625436 61.935049 155.546205 62.3639 155.455656 62.815389 C 155.365107 63.109674 155.287134 63.402701 155.219222 63.695728 C 155.128672 64.689255 155.557524 65.140743 156.505775 65.050194 C 159.122899 64.598705 161.729962 62.409175 164.325707 58.48286 Z M 145.909001 70.026628 C 147.512477 69.282113 148.62925 68.018196 149.26058 66.23488 C 146.598181 64.542112 144.814864 62.104829 143.911887 58.92303 C 143.076822 60.412061 142.569998 62.150104 142.3889 64.135898 C 142.207801 66.121693 142.405249 67.764155 142.981243 69.062028 C 143.557236 70.358642 144.533156 70.680595 145.909001 70.026628 Z M 150.479221 62.714779 C 150.908073 62.082192 151.162113 61.30372 151.241344 60.378105 C 151.320575 59.452491 151.2753 58.533165 151.10552 57.618869 C 150.936998 56.705831 150.699306 55.988983 150.39496 55.469583 C 150.090614 54.950183 149.768661 54.792979 149.430359 54.995457 C 148.82041 55.537495 148.482108 56.315967 148.414196 57.33213 C 148.347542 58.347036 148.499715 59.3632 148.871973 60.378105 C 149.244231 61.394269 149.77998 62.172741 150.479221 62.714779 Z M 189.917181 60.412061 C 190.300758 60.209583 190.616422 60.124065 190.865433 60.158021 C 191.113186 60.191977 191.299315 60.293844 191.42382 60.463624 C 191.548325 60.632146 191.609949 60.801926 191.609949 60.970448 C 191.609949 61.140228 191.587311 61.258445 191.542037 61.326357 C 190.593785 62.319883 189.556242 63.380064 188.42815 64.508156 C 186.892586 65.998446 185.364567 67.526464 183.840322 69.095984 C 182.317335 70.664246 181.037069 72.136928 179.998268 73.512773 C 179.456231 74.167998 179.478868 74.788008 180.06618 75.375321 C 181.059706 76.480776 181.990351 77.987414 182.859372 79.893979 C 183.728393 81.8018 184.348404 83.8379 184.720662 86.004794 C 185.09292 88.171687 185.047645 90.134844 184.584838 91.895524 C 184.123289 93.654945 183.022864 94.907543 181.284822 95.653316 C 178.598528 96.60031 176.161245 96.391544 173.972972 95.027018 C 171.783442 93.661233 170.519525 91.557222 170.181223 88.712467 C 170.022762 86.095343 170.542163 83.590148 171.738167 81.198139 C 172.189655 80.249887 172.686419 79.335592 173.228456 78.455252 C 173.521484 77.891835 173.791874 77.361116 174.040884 76.864352 C 174.581664 75.984013 174.390505 75.341365 173.46489 74.935151 C 171.658936 74.100086 169.820284 73.807058 167.946418 74.054811 C 166.750414 74.302564 165.577047 74.247228 164.426317 73.885031 C 164.088015 73.705191 163.86793 73.45115 163.766062 73.124166 C 163.664194 72.797183 163.738394 72.486549 163.986147 72.193522 C 164.84385 71.335819 165.712871 70.512073 166.59321 69.722282 C 168.781483 67.893691 170.807522 65.710449 172.668812 63.171298 C 174.531359 60.632146 175.93613 57.974778 176.884381 55.199193 C 176.973673 54.860891 176.946005 54.52762 176.798862 54.200636 C 176.652978 53.873653 176.432893 53.608293 176.138608 53.404558 C 175.348817 52.818503 174.458417 52.546855 173.46489 52.59213 C 171.772123 52.705316 170.249135 53.258673 168.89467 54.250941 C 168.01433 54.883528 167.637042 55.48719 167.760289 56.061926 C 167.884794 56.637919 168.195429 57.218944 168.692192 57.804998 C 169.075768 58.301761 169.425389 58.821162 169.741053 59.3632 C 169.786328 59.565678 169.707098 59.792051 169.504619 60.039804 C 169.300884 60.287556 169.053131 60.502611 168.758846 60.682451 C 168.465819 60.86355 168.195429 60.976736 167.946418 61.022011 C 166.999424 61.224489 166.130403 60.999374 165.340613 60.34415 C 164.2339 59.351881 163.659164 58.172226 163.613889 56.806442 C 163.568615 55.441915 164.065378 54.239623 165.102921 53.202079 C 165.847437 52.546855 166.649804 52.028712 167.506248 51.643878 C 168.996538 50.899362 170.508207 50.465481 172.042513 50.340976 C 173.578077 50.21647 175.168976 50.279352 176.816469 50.527104 C 177.696809 50.708203 178.56583 51.046505 179.422275 51.543268 C 181.296141 52.648723 181.916151 54.26226 181.284822 56.383879 C 180.540306 58.528135 179.37197 60.779289 177.78107 63.137342 C 176.19017 65.495394 174.626939 67.442203 173.092632 68.976509 C 172.888897 69.180245 172.709056 69.327387 172.550595 69.416679 C 172.212293 69.777618 171.941903 70.083222 171.738167 70.330974 C 171.535689 70.578727 171.456458 70.827737 171.501733 71.07549 C 172.607188 70.963561 173.55544 71.047822 174.34523 71.329531 C 175.13502 71.61124 175.879536 72.001104 176.578778 72.497868 C 177.075541 72.384681 177.831375 71.842643 178.847539 70.873012 C 179.862445 69.902123 181.014432 68.751393 182.299728 67.419565 C 183.654193 65.975808 185.002371 64.610024 186.345517 63.323471 C 187.688664 62.036917 188.879638 61.067286 189.917181 60.412061 Z M 176.884381 93.620989 C 178.328138 94.230939 179.258783 93.999535 179.676316 92.928036 C 180.093848 91.855279 180.218353 90.388885 180.048573 88.526338 C 179.880051 86.665048 179.580736 84.89305 179.151885 83.211601 C 178.723033 81.530153 178.362094 80.363074 178.069067 79.70785 C 177.910606 79.460097 177.747114 79.222405 177.577334 78.99729 C 177.408812 78.772174 177.120815 78.591076 176.714601 78.455252 C 174.841993 80.93781 173.757918 83.736032 173.46489 86.851177 C 173.306429 88.340209 173.549151 89.694674 174.193057 90.913316 C 174.835705 92.131958 175.732394 93.034935 176.884381 93.620989 Z M 176.884381 93.620989 " stroke="#fffef9" stroke-width="7.539986" stroke-opacity="1" stroke-miterlimit="4"></path><g fill="#122620" fill-opacity="1"><g transform="translate(322.736797, 363.58539)"><g><path d="M 67.078125 -50.359375 C 68.410156 -53.097656 69.320312 -54.363281 69.8125 -54.15625 C 70.300781 -53.945312 70.421875 -52.84375 70.171875 -50.84375 C 69.929688 -48.84375 69.5 -46.582031 68.875 -44.0625 C 67.957031 -40.207031 66.378906 -35.738281 64.140625 -30.65625 C 61.898438 -25.570312 59.410156 -20.960938 56.671875 -16.828125 C 52.609375 -11.078125 47.578125 -6.742188 41.578125 -3.828125 C 35.585938 -0.921875 30.15625 -0.203125 25.28125 -1.671875 C 20.414062 -3.148438 17.597656 -7.742188 16.828125 -15.453125 C 16.679688 -21.898438 17.238281 -28.984375 18.5 -36.703125 C 18.925781 -39.921875 19.382812 -43.070312 19.875 -46.15625 C 19.875 -47.28125 19.59375 -48.140625 19.03125 -48.734375 C 18.46875 -49.328125 17.734375 -49.554688 16.828125 -49.421875 C 16.191406 -49.421875 15.488281 -49.421875 14.71875 -49.421875 C 10.863281 -48.785156 6.9375 -48.851562 2.9375 -49.625 C -1.820312 -51.03125 -4.585938 -53.394531 -5.359375 -56.71875 C -6.128906 -60.050781 -6.0625 -64.414062 -5.15625 -69.8125 C -4.664062 -73.675781 -3.226562 -76.570312 -0.84375 -78.5 C 1.539062 -80.425781 4.347656 -81.210938 7.578125 -80.859375 C 12.054688 -80.441406 14.222656 -78.722656 14.078125 -75.703125 C 13.941406 -72.691406 13.101562 -69.46875 11.5625 -66.03125 C 10.164062 -63.15625 9.429688 -60.753906 9.359375 -58.828125 C 9.285156 -56.898438 10.929688 -56.21875 14.296875 -56.78125 C 15.066406 -56.988281 15.910156 -57.234375 16.828125 -57.515625 C 18.085938 -58.003906 19.519531 -58.441406 21.125 -58.828125 C 22.738281 -59.210938 24.84375 -59.300781 27.4375 -59.09375 C 30.519531 -58.957031 32.570312 -57.535156 33.59375 -54.828125 C 34.613281 -52.128906 35.050781 -48.75 34.90625 -44.6875 C 34.769531 -40.625 34.382812 -36.488281 33.75 -32.28125 C 32.976562 -27.019531 32.59375 -22.515625 32.59375 -18.765625 C 32.59375 -15.015625 33.679688 -12.828125 35.859375 -12.203125 C 38.734375 -11.429688 43.023438 -14.039062 48.734375 -20.03125 C 54.453125 -26.019531 60.566406 -36.128906 67.078125 -50.359375 Z M 67.078125 -50.359375 "></path></g></g></g><g fill="#122620" fill-opacity="1"><g transform="translate(387.085342, 363.58539)"><g><path d="M 80.75 -57.515625 C 81.800781 -58.566406 82.363281 -57.285156 82.4375 -53.671875 C 82.507812 -50.066406 79.234375 -45.019531 72.609375 -38.53125 C 65.984375 -32.050781 59.128906 -28.988281 52.046875 -29.34375 C 50.503906 -29.476562 49.1875 -29.351562 48.09375 -28.96875 C 47.007812 -28.582031 46.082031 -27.6875 45.3125 -26.28125 C 44.539062 -25.019531 43.628906 -23.863281 42.578125 -22.8125 C 42.578125 -22.8125 42.507812 -22.742188 42.375 -22.609375 C 38.03125 -17.984375 32.929688 -14.929688 27.078125 -13.453125 C 21.222656 -11.984375 15.664062 -12.441406 10.40625 -14.828125 C 5.15625 -17.210938 1.367188 -21.734375 -0.953125 -28.390625 C -2.628906 -34.421875 -2.765625 -40.414062 -1.359375 -46.375 C -0.171875 -51.625 1.753906 -56.566406 4.421875 -61.203125 C 7.640625 -67.367188 11.820312 -71.726562 16.96875 -74.28125 C 22.125 -76.84375 27.960938 -78.265625 34.484375 -78.546875 C 44.160156 -79.035156 50.257812 -74.476562 52.78125 -64.875 C 54.320312 -59.332031 54.707031 -53.722656 53.9375 -48.046875 C 53.726562 -46.785156 53.484375 -45.457031 53.203125 -44.0625 C 52.921875 -43.144531 52.675781 -42.234375 52.46875 -41.328125 C 52.1875 -38.242188 53.519531 -36.84375 56.46875 -37.125 C 64.59375 -38.519531 72.6875 -45.316406 80.75 -57.515625 Z M 23.546875 -21.65625 C 28.523438 -23.96875 32 -27.894531 33.96875 -33.4375 C 25.695312 -38.695312 20.15625 -46.269531 17.34375 -56.15625 C 14.75 -51.519531 13.171875 -46.117188 12.609375 -39.953125 C 12.054688 -33.785156 12.671875 -28.6875 14.453125 -24.65625 C 16.242188 -20.625 19.273438 -19.625 23.546875 -21.65625 Z M 37.75 -44.375 C 39.082031 -46.332031 39.867188 -48.75 40.109375 -51.625 C 40.359375 -54.5 40.21875 -57.351562 39.6875 -60.1875 C 39.164062 -63.03125 38.429688 -65.257812 37.484375 -66.875 C 36.535156 -68.488281 35.535156 -68.976562 34.484375 -68.34375 C 32.597656 -66.664062 31.546875 -64.25 31.328125 -61.09375 C 31.117188 -57.9375 31.59375 -54.78125 32.75 -51.625 C 33.90625 -48.46875 35.570312 -46.050781 37.75 -44.375 Z M 37.75 -44.375 "></path></g></g></g><g fill="#122620" fill-opacity="1"><g transform="translate(465.418151, 363.58539)"><g><path d="M 81.90625 -51.515625 C 83.101562 -52.148438 84.085938 -52.414062 84.859375 -52.3125 C 85.628906 -52.207031 86.207031 -51.890625 86.59375 -51.359375 C 86.976562 -50.835938 87.171875 -50.3125 87.171875 -49.78125 C 87.171875 -49.257812 87.097656 -48.894531 86.953125 -48.6875 C 84.015625 -45.601562 80.789062 -42.304688 77.28125 -38.796875 C 72.519531 -34.171875 67.769531 -29.421875 63.03125 -24.546875 C 58.300781 -19.679688 54.328125 -15.109375 51.109375 -10.828125 C 49.421875 -8.796875 49.488281 -6.867188 51.3125 -5.046875 C 54.394531 -1.609375 57.285156 3.066406 59.984375 8.984375 C 62.679688 14.910156 64.609375 21.238281 65.765625 27.96875 C 66.921875 34.695312 66.78125 40.796875 65.34375 46.265625 C 63.90625 51.734375 60.488281 55.625 55.09375 57.9375 C 46.75 60.882812 39.175781 60.234375 32.375 55.984375 C 25.582031 51.742188 21.660156 45.207031 20.609375 36.375 C 20.117188 28.25 21.734375 20.46875 25.453125 13.03125 C 26.847656 10.09375 28.390625 7.253906 30.078125 4.515625 C 30.984375 2.765625 31.820312 1.117188 32.59375 -0.421875 C 34.28125 -3.148438 33.6875 -5.144531 30.8125 -6.40625 C 25.195312 -9 19.484375 -9.910156 13.671875 -9.140625 C 9.953125 -8.367188 6.304688 -8.546875 2.734375 -9.671875 C 1.679688 -10.234375 0.992188 -11.019531 0.671875 -12.03125 C 0.359375 -13.050781 0.585938 -14.019531 1.359375 -14.9375 C 4.023438 -17.59375 6.726562 -20.148438 9.46875 -22.609375 C 16.257812 -28.285156 22.546875 -35.066406 28.328125 -42.953125 C 34.117188 -50.835938 38.484375 -59.09375 41.421875 -67.71875 C 41.703125 -68.769531 41.613281 -69.800781 41.15625 -70.8125 C 40.707031 -71.832031 40.023438 -72.65625 39.109375 -73.28125 C 36.660156 -75.101562 33.894531 -75.945312 30.8125 -75.8125 C 25.550781 -75.457031 20.816406 -73.738281 16.609375 -70.65625 C 13.878906 -68.695312 12.707031 -66.820312 13.09375 -65.03125 C 13.476562 -63.25 14.441406 -61.445312 15.984375 -59.625 C 17.171875 -58.082031 18.253906 -56.46875 19.234375 -54.78125 C 19.378906 -54.15625 19.132812 -53.453125 18.5 -52.671875 C 17.875 -51.898438 17.101562 -51.234375 16.1875 -50.671875 C 15.28125 -50.117188 14.441406 -49.769531 13.671875 -49.625 C 10.722656 -49 8.023438 -49.703125 5.578125 -51.734375 C 2.140625 -54.816406 0.347656 -58.476562 0.203125 -62.71875 C 0.0664062 -66.957031 1.613281 -70.691406 4.84375 -73.921875 C 7.15625 -75.953125 9.640625 -77.5625 12.296875 -78.75 C 16.921875 -81.0625 21.617188 -82.410156 26.390625 -82.796875 C 31.160156 -83.179688 36.101562 -82.988281 41.21875 -82.21875 C 43.945312 -81.664062 46.644531 -80.617188 49.3125 -79.078125 C 55.132812 -75.640625 57.0625 -70.625 55.09375 -64.03125 C 52.78125 -57.375 49.148438 -50.378906 44.203125 -43.046875 C 39.265625 -35.722656 34.414062 -29.679688 29.65625 -24.921875 C 29.019531 -24.285156 28.457031 -23.828125 27.96875 -23.546875 C 26.914062 -22.429688 26.070312 -21.488281 25.4375 -20.71875 C 24.8125 -19.945312 24.566406 -19.175781 24.703125 -18.40625 C 28.140625 -18.75 31.082031 -18.484375 33.53125 -17.609375 C 35.988281 -16.734375 38.304688 -15.523438 40.484375 -13.984375 C 42.023438 -14.335938 44.375 -16.019531 47.53125 -19.03125 C 50.6875 -22.039062 54.257812 -25.613281 58.25 -29.75 C 62.457031 -34.238281 66.644531 -38.476562 70.8125 -42.46875 C 74.988281 -46.46875 78.6875 -49.484375 81.90625 -51.515625 Z M 41.421875 51.625 C 45.910156 53.519531 48.800781 52.800781 50.09375 49.46875 C 51.394531 46.144531 51.78125 41.585938 51.25 35.796875 C 50.726562 30.015625 49.800781 24.515625 48.46875 19.296875 C 47.132812 14.078125 46.015625 10.445312 45.109375 8.40625 C 44.617188 7.632812 44.109375 6.898438 43.578125 6.203125 C 43.054688 5.503906 42.164062 4.941406 40.90625 4.515625 C 35.082031 12.234375 31.71875 20.925781 30.8125 30.59375 C 30.320312 35.21875 31.070312 39.421875 33.0625 43.203125 C 35.0625 46.992188 37.847656 49.800781 41.421875 51.625 Z M 41.421875 51.625 "></path></g></g></g><g clip-path="url(#9df2240fd1)"><g clip-path="url(#3f1a74f9a6)"><g clip-path="url(#fe9195f912)"><path fill="#122620" d="M 131.410156 255.753906 C 129.933594 254.183594 127.472656 254.097656 125.898438 255.574219 C 124.328125 257.050781 124.242188 259.511719 125.71875 261.085938 C 134.890625 270.878906 142.980469 278.375 151.597656 284.355469 L 151.84375 284.515625 C 160.429688 290.445312 169.460938 294.8125 180.464844 298.363281 C 251.007812 321.152344 344.121094 290.527344 434.894531 260.667969 C 561.085938 219.152344 682.675781 179.15625 727.15625 289.867188 C 727.949219 291.855469 730.222656 292.839844 732.226562 292.03125 C 734.226562 291.238281 735.199219 288.964844 734.390625 286.964844 C 687.191406 169.492188 562.207031 210.601562 432.480469 253.277344 C 342.878906 282.757812 250.984375 312.988281 182.824219 290.976562 C 172.570312 287.664062 164.183594 283.613281 156.253906 278.136719 L 156.027344 277.964844 C 147.964844 272.359375 140.242188 265.199219 131.421875 255.765625 Z M 131.410156 255.753906 " fill-opacity="1" fill-rule="evenodd"></path></g></g></g><path fill="#fffef9" d="M 564.230469 485.117188 C 561.511719 487.046875 558.753906 488.925781 555.960938 490.753906 C 553.167969 492.578125 550.339844 494.347656 547.476562 496.066406 C 544.617188 497.785156 541.722656 499.445312 538.800781 501.050781 C 535.875 502.65625 532.917969 504.207031 529.933594 505.699219 C 526.949219 507.191406 523.9375 508.628906 520.898438 510.003906 C 517.859375 511.382812 514.792969 512.699219 511.703125 513.960938 C 508.613281 515.21875 505.5 516.417969 502.363281 517.558594 C 499.226562 518.699219 496.070312 519.777344 492.894531 520.796875 C 489.714844 521.816406 486.519531 522.773438 483.304688 523.671875 C 480.089844 524.566406 476.859375 525.402344 473.613281 526.171875 C 470.367188 526.945312 467.109375 527.65625 463.835938 528.304688 C 460.5625 528.949219 457.277344 529.535156 453.980469 530.054688 C 450.683594 530.578125 447.378906 531.035156 444.066406 531.429688 C 440.753906 531.824219 437.433594 532.152344 434.105469 532.421875 C 430.78125 532.6875 427.449219 532.890625 424.117188 533.03125 C 420.78125 533.167969 417.445312 533.246094 414.109375 533.257812 C 410.773438 533.265625 407.4375 533.214844 404.101562 533.097656 C 400.765625 532.980469 397.433594 532.800781 394.105469 532.554688 C 390.777344 532.3125 387.457031 532.003906 384.140625 531.628906 C 380.824219 531.257812 377.515625 530.824219 374.21875 530.324219 C 370.917969 529.824219 367.628906 529.261719 364.351562 528.636719 C 361.074219 528.011719 357.808594 527.324219 354.558594 526.574219 C 351.304688 525.824219 348.070312 525.011719 344.847656 524.136719 C 341.628906 523.261719 338.425781 522.324219 335.242188 521.328125 C 332.058594 520.328125 328.894531 519.273438 325.75 518.152344 C 322.605469 517.035156 319.484375 515.855469 316.386719 514.617188 C 313.289062 513.378906 310.214844 512.078125 307.164062 510.722656 C 304.117188 509.367188 301.09375 507.953125 298.101562 506.480469 C 295.105469 505.007812 292.140625 503.476562 289.207031 501.890625 C 286.269531 500.304688 283.367188 498.660156 280.492188 496.964844 C 277.621094 495.265625 274.78125 493.511719 271.976562 491.707031 C 269.167969 489.898438 266.398438 488.039062 263.664062 486.128906 L 297.007812 438.476562 C 299.132812 439.964844 301.285156 441.410156 303.464844 442.8125 C 305.644531 444.21875 307.851562 445.578125 310.082031 446.898438 C 312.316406 448.21875 314.570312 449.496094 316.851562 450.726562 C 319.132812 451.960938 321.4375 453.148438 323.765625 454.292969 C 326.09375 455.4375 328.441406 456.535156 330.808594 457.589844 C 333.179688 458.644531 335.566406 459.652344 337.976562 460.617188 C 340.382812 461.578125 342.808594 462.496094 345.25 463.363281 C 347.695312 464.234375 350.152344 465.054688 352.628906 465.832031 C 355.101562 466.605469 357.589844 467.335938 360.09375 468.015625 C 362.59375 468.695312 365.109375 469.324219 367.636719 469.90625 C 370.164062 470.492188 372.699219 471.027344 375.246094 471.511719 C 377.792969 471.996094 380.351562 472.433594 382.914062 472.820312 C 385.476562 473.210938 388.046875 473.546875 390.625 473.835938 C 393.203125 474.125 395.785156 474.367188 398.371094 474.554688 C 400.957031 474.746094 403.546875 474.886719 406.136719 474.976562 C 408.726562 475.070312 411.320312 475.109375 413.914062 475.101562 C 416.507812 475.09375 419.097656 475.035156 421.691406 474.925781 C 424.28125 474.816406 426.867188 474.660156 429.453125 474.453125 C 432.039062 474.246094 434.617188 473.988281 437.191406 473.679688 C 439.769531 473.375 442.335938 473.019531 444.898438 472.613281 C 447.457031 472.207031 450.011719 471.753906 452.554688 471.25 C 455.097656 470.75 457.632812 470.199219 460.15625 469.597656 C 462.675781 468.996094 465.1875 468.347656 467.683594 467.652344 C 470.183594 466.957031 472.667969 466.210938 475.136719 465.417969 C 477.605469 464.628906 480.058594 463.789062 482.496094 462.902344 C 484.933594 462.015625 487.351562 461.085938 489.753906 460.105469 C 492.15625 459.128906 494.535156 458.101562 496.898438 457.03125 C 499.261719 455.960938 501.601562 454.847656 503.917969 453.6875 C 506.238281 452.527344 508.535156 451.324219 510.808594 450.074219 C 513.082031 448.828125 515.328125 447.535156 517.554688 446.203125 C 519.777344 444.867188 521.972656 443.492188 524.144531 442.070312 C 526.316406 440.652344 528.457031 439.195312 530.570312 437.691406 Z M 564.230469 485.117188 " fill-opacity="1" fill-rule="nonzero"></path><g fill="#122620" fill-opacity="1"><g transform="translate(281.732261, 479.718548)"><g><path d="M 31.40625 -9.5 L 19.1875 -16.5 L 15.15625 -9.453125 L 26.21875 -3.109375 L 24.125 0.546875 L 13.0625 -5.796875 L 7.328125 4.203125 L 3.203125 1.828125 L 17.1875 -22.5625 L 33.5625 -13.171875 Z M 31.40625 -9.5 "></path></g></g></g><g fill="#122620" fill-opacity="1"><g transform="translate(326.732878, 502.454127)"><g><path d="M 20.546875 6.4375 L 18.1875 -3.234375 C 17.914062 -3.273438 17.5 -3.382812 16.9375 -3.5625 L 10.578125 -5.5625 L 8.046875 2.515625 L 3.515625 1.109375 L 11.921875 -25.71875 L 22.8125 -22.3125 C 26.238281 -21.238281 28.644531 -19.609375 30.03125 -17.421875 C 31.425781 -15.234375 31.664062 -12.6875 30.75 -9.78125 C 30.082031 -7.632812 29.035156 -5.96875 27.609375 -4.78125 C 26.179688 -3.59375 24.46875 -2.9375 22.46875 -2.8125 L 25.671875 8.046875 Z M 11.859375 -9.640625 L 18.21875 -7.640625 C 22.5625 -6.285156 25.296875 -7.40625 26.421875 -11 C 27.503906 -14.476562 25.875 -16.894531 21.53125 -18.25 L 15.171875 -20.25 Z M 11.859375 -9.640625 "></path></g></g></g><g fill="#122620" fill-opacity="1"><g transform="translate(381.581467, 516.356633)"><g><path d="M 29.5 -26.109375 L 28.34375 -9.671875 C 28.09375 -6.015625 26.804688 -3.207031 24.484375 -1.25 C 22.171875 0.695312 19.113281 1.535156 15.3125 1.265625 C 11.519531 1.003906 8.613281 -0.253906 6.59375 -2.515625 C 4.570312 -4.773438 3.6875 -7.734375 3.9375 -11.390625 L 5.09375 -27.828125 L 9.828125 -27.5 L 8.671875 -11.0625 C 8.503906 -8.71875 9.046875 -6.820312 10.296875 -5.375 C 11.546875 -3.9375 13.335938 -3.132812 15.671875 -2.96875 C 17.960938 -2.800781 19.8125 -3.34375 21.21875 -4.59375 C 22.632812 -5.84375 23.425781 -7.648438 23.59375 -10.015625 L 24.75 -26.453125 Z M 29.5 -26.109375 "></path></g></g></g><g fill="#122620" fill-opacity="1"><g transform="translate(439.221017, 516.824311)"><g><path d="M 8.375 -1.0625 L 3.65625 -0.46875 L 0.09375 -28.359375 L 4.8125 -28.953125 Z M 8.375 -1.0625 "></path></g></g></g><g fill="#122620" fill-opacity="1"><g transform="translate(477.568212, 509.995335)"><g><path d="M 14.578125 -29.671875 L 6.078125 -26.96875 L 13.3125 -4.234375 L 8.796875 -2.796875 L 1.5625 -25.53125 L -6.890625 -22.84375 L -8.171875 -26.890625 L 13.296875 -33.71875 Z M 14.578125 -29.671875 "></path></g></g></g><g fill="#122620" fill-opacity="1"><g transform="translate(524.735889, 492.115924)"><g><path d="M -2.734375 -31.015625 C 0.429688 -32.804688 3.757812 -33.582031 7.25 -33.34375 L 7.59375 -28.75 C 4.238281 -28.84375 1.421875 -28.242188 -0.859375 -26.953125 C -2.085938 -26.253906 -2.929688 -25.476562 -3.390625 -24.625 C -3.847656 -23.78125 -3.847656 -22.945312 -3.390625 -22.125 C -2.929688 -21.3125 -2.207031 -20.804688 -1.21875 -20.609375 C -0.238281 -20.410156 0.8125 -20.453125 1.9375 -20.734375 C 3.0625 -21.023438 4.3125 -21.289062 5.6875 -21.53125 C 7.0625 -21.769531 8.363281 -21.941406 9.59375 -22.046875 C 10.832031 -22.148438 12.046875 -21.898438 13.234375 -21.296875 C 14.421875 -20.691406 15.40625 -19.707031 16.1875 -18.34375 C 17.40625 -16.195312 17.519531 -14 16.53125 -11.75 C 15.550781 -9.5 13.695312 -7.597656 10.96875 -6.046875 C 9.101562 -4.984375 7.097656 -4.304688 4.953125 -4.015625 C 2.816406 -3.722656 0.757812 -3.800781 -1.21875 -4.25 L -1.453125 -8.828125 C 0.421875 -8.378906 2.269531 -8.265625 4.09375 -8.484375 C 5.925781 -8.710938 7.507812 -9.203125 8.84375 -9.953125 C 10.28125 -10.773438 11.253906 -11.675781 11.765625 -12.65625 C 12.273438 -13.644531 12.269531 -14.601562 11.75 -15.53125 C 11.269531 -16.375 10.539062 -16.894531 9.5625 -17.09375 C 8.582031 -17.289062 7.523438 -17.242188 6.390625 -16.953125 C 5.265625 -16.660156 4.019531 -16.382812 2.65625 -16.125 C 1.300781 -15.863281 0.015625 -15.671875 -1.203125 -15.546875 C -2.429688 -15.421875 -3.640625 -15.648438 -4.828125 -16.234375 C -6.023438 -16.828125 -7.003906 -17.796875 -7.765625 -19.140625 C -8.941406 -21.203125 -9.066406 -23.316406 -8.140625 -25.484375 C -7.210938 -27.648438 -5.410156 -29.492188 -2.734375 -31.015625 Z M -2.734375 -31.015625 "></path></g></g></g><g clip-path="url(#e93df45798)"><path stroke-linecap="butt" transform="matrix(1.918282, 0, 0, 1.918282, 205.353153, 116.188336)" fill="none" stroke-linejoin="miter" d="M 243.613089 103.897029 C 246.427293 99.437474 248.099117 96.606979 248.628562 95.399438 C 249.158007 94.193932 249.577491 94.248913 249.889049 95.56438 C 250.200607 96.879847 249.294441 99.848812 247.176661 104.471273 C 245.056845 109.093735 242.425911 112.657307 239.281822 115.159953 C 236.13977 117.664635 233.20746 118.587091 230.484891 117.929357 C 227.762322 117.271624 225.815593 115.379876 224.646742 112.256151 C 223.47789 109.130389 223.129678 105.194169 223.606179 100.443419 C 223.606179 100.370111 223.642833 100.168515 223.71614 99.840666 C 223.787412 99.036317 223.925882 97.849139 224.125442 96.277094 C 224.327038 94.70505 224.473654 93.080061 224.565289 91.398055 C 224.656923 89.718086 224.601943 88.329311 224.400346 87.233767 C 224.19875 86.136187 223.697813 85.753358 222.893464 86.081206 C 220.956918 87.142132 219.06517 89.215113 217.220258 92.302184 C 215.37331 95.391292 213.701485 98.624979 212.204785 102.005282 C 210.706049 105.385584 209.645122 108.116298 209.024043 110.199461 C 208.769502 110.857194 208.531252 111.551582 208.311328 112.282623 C 207.98348 113.233587 207.618977 114.182516 207.215785 115.13348 C 206.156895 117.874376 204.309946 118.933266 201.679012 118.312186 C 200.218966 117.984338 199.359636 117.088354 199.103059 115.626271 C 199.029751 114.494074 198.993097 113.416857 198.993097 112.392585 C 198.993097 111.734851 198.956443 111.132098 198.885172 110.584326 C 198.738556 102.4716 198.53696 94.303894 198.280383 86.081206 C 198.35369 85.132278 198.77521 84.474544 199.542905 84.108005 C 200.308564 83.743503 201.222875 83.560234 202.281765 83.560234 C 203.086114 83.560234 203.845664 83.780157 204.558378 84.217967 C 205.271092 84.655777 205.717048 85.570088 205.900317 86.958863 C 205.973625 87.433327 206.010279 87.909828 206.010279 88.384292 C 206.083587 88.638833 206.120241 88.877083 206.120241 89.097006 C 206.266856 90.229204 206.338128 91.198495 206.338128 92.000808 C 206.338128 93.20835 206.421617 94.02899 206.58656 94.468836 C 206.749466 94.906646 207.097678 94.888319 207.627123 94.413855 C 208.156567 93.939391 209.024043 92.805157 210.231584 91.015226 C 212.314747 87.799866 214.8907 85.077297 217.959445 82.847519 C 220.773648 80.837665 223.86072 79.996662 227.222695 80.326547 C 230.110207 80.617741 232.046753 82.134805 233.034372 84.875701 C 233.435528 86.264476 233.637125 87.661396 233.637125 89.068498 C 233.637125 90.475599 233.54549 91.892883 233.36222 93.316275 C 233.288913 94.778358 233.178951 96.277094 233.034372 97.812485 C 232.92441 98.286949 232.832775 98.761413 232.759468 99.237914 C 232.285004 104.463128 232.449946 107.961537 233.252259 109.735178 C 234.056608 111.506782 235.28044 112.091208 236.925792 111.488455 C 238.569108 110.885703 240.798886 108.354549 243.613089 103.897029 Z M 243.613089 103.897029 " stroke="#fffef9" stroke-width="8.420025" stroke-opacity="1" stroke-miterlimit="4"></path></g><g fill="#122620" fill-opacity="1"><g transform="translate(585.712601, 355.973647)"><g><path d="M 86.953125 -40.484375 C 92.347656 -49.035156 95.554688 -54.46875 96.578125 -56.78125 C 97.597656 -59.09375 98.40625 -58.984375 99 -56.453125 C 99.59375 -53.929688 97.851562 -48.238281 93.78125 -39.375 C 89.71875 -30.507812 84.671875 -23.675781 78.640625 -18.875 C 72.617188 -14.070312 66.992188 -12.300781 61.765625 -13.5625 C 56.546875 -14.820312 52.816406 -18.445312 50.578125 -24.4375 C 48.335938 -30.4375 47.671875 -37.992188 48.578125 -47.109375 C 48.578125 -47.242188 48.644531 -47.628906 48.78125 -48.265625 C 48.925781 -49.804688 49.191406 -52.082031 49.578125 -55.09375 C 49.960938 -58.113281 50.242188 -61.234375 50.421875 -64.453125 C 50.597656 -67.679688 50.492188 -70.347656 50.109375 -72.453125 C 49.722656 -74.554688 48.757812 -75.289062 47.21875 -74.65625 C 43.5 -72.625 39.867188 -68.644531 36.328125 -62.71875 C 32.785156 -56.800781 29.578125 -50.597656 26.703125 -44.109375 C 23.828125 -37.628906 21.796875 -32.390625 20.609375 -28.390625 C 20.117188 -27.128906 19.660156 -25.796875 19.234375 -24.390625 C 18.609375 -22.566406 17.910156 -20.742188 17.140625 -18.921875 C 15.109375 -13.671875 11.566406 -11.640625 6.515625 -12.828125 C 3.710938 -13.460938 2.066406 -15.179688 1.578125 -17.984375 C 1.429688 -20.148438 1.359375 -22.21875 1.359375 -24.1875 C 1.359375 -25.445312 1.289062 -26.601562 1.15625 -27.65625 C 0.875 -43.21875 0.488281 -58.882812 0 -74.65625 C 0.132812 -76.476562 0.9375 -77.738281 2.40625 -78.4375 C 3.882812 -79.132812 5.640625 -79.484375 7.671875 -79.484375 C 9.210938 -79.484375 10.664062 -79.0625 12.03125 -78.21875 C 13.40625 -77.382812 14.265625 -75.632812 14.609375 -72.96875 C 14.753906 -72.0625 14.828125 -71.148438 14.828125 -70.234375 C 14.960938 -69.742188 15.03125 -69.289062 15.03125 -68.875 C 15.3125 -66.695312 15.453125 -64.835938 15.453125 -63.296875 C 15.453125 -60.984375 15.609375 -59.40625 15.921875 -58.5625 C 16.242188 -57.726562 16.910156 -57.765625 17.921875 -58.671875 C 18.941406 -59.585938 20.609375 -61.757812 22.921875 -65.1875 C 26.921875 -71.351562 31.863281 -76.578125 37.75 -80.859375 C 43.144531 -84.710938 49.066406 -86.328125 55.515625 -85.703125 C 61.054688 -85.140625 64.769531 -82.226562 66.65625 -76.96875 C 67.4375 -74.300781 67.828125 -71.617188 67.828125 -68.921875 C 67.828125 -66.222656 67.648438 -63.507812 67.296875 -60.78125 C 67.148438 -57.96875 66.9375 -55.09375 66.65625 -52.15625 C 66.445312 -51.238281 66.273438 -50.328125 66.140625 -49.421875 C 65.222656 -39.398438 65.535156 -32.6875 67.078125 -29.28125 C 68.617188 -25.882812 70.96875 -24.765625 74.125 -25.921875 C 77.28125 -27.078125 81.554688 -31.929688 86.953125 -40.484375 Z M 86.953125 -40.484375 "></path></g></g></g><path stroke-linecap="butt" transform="matrix(1.918282, 0, 0, 1.918282, 188.473308, 223.205589)" fill="none" stroke-linejoin="miter" d="M 189.502267 10.408418 C 190.817734 10.107042 191.695391 10.654814 192.133201 12.051734 C 192.59952 13.31222 192.831661 14.57067 192.831661 15.831156 C 192.831661 16.981681 192.619883 17.995772 192.194291 18.871392 C 191.770735 19.749049 191.255544 20.543217 190.652792 21.255931 C 190.298471 21.665233 189.907496 21.891265 189.481904 21.934028 C 189.058348 21.974754 188.640901 21.870902 188.229563 21.624506 C 187.62681 21.32313 187.653282 20.803866 188.311016 20.06468 C 189.351579 17.845084 189.373979 16.118279 188.374142 14.886301 C 187.374306 13.654323 187.072929 12.646341 187.470013 11.866428 C 187.867097 11.086515 188.545194 10.599833 189.502267 10.408418 Z M 189.502267 10.408418 " stroke="#fffef9" stroke-width="6.31131" stroke-opacity="1" stroke-miterlimit="4"></path><g fill="#122620" fill-opacity="1"><g transform="translate(523.30353, 361.321927)"><g><path d="M 28.6875 -118.15625 C 31.207031 -118.726562 32.890625 -117.675781 33.734375 -115 C 34.628906 -112.582031 35.078125 -110.164062 35.078125 -107.75 C 35.078125 -105.539062 34.664062 -103.59375 33.84375 -101.90625 C 33.03125 -100.226562 32.046875 -98.707031 30.890625 -97.34375 C 30.210938 -96.550781 29.460938 -96.113281 28.640625 -96.03125 C 27.828125 -95.957031 27.03125 -96.15625 26.25 -96.625 C 25.09375 -97.207031 25.144531 -98.207031 26.40625 -99.625 C 28.40625 -103.882812 28.441406 -107.195312 26.515625 -109.5625 C 24.597656 -111.925781 24.019531 -113.851562 24.78125 -115.34375 C 25.550781 -116.84375 26.851562 -117.78125 28.6875 -118.15625 Z M 28.6875 -118.15625 "></path></g></g></g></svg>