<svg width="1440" height="982" viewBox="0 0 1440 982" fill="none" xmlns="http://www.w3.org/2000/svg">
<rect width="1440" height="981.818" fill="white"/>
<g clip-path="url(#clip0_9960_18894)">
<rect width="1171.64" height="268.364" transform="translate(134.182 356.727)" fill="white"/>
<path d="M937.516 572.27C931.919 572.27 929.121 569.5 929.121 563.751C929.121 558.426 931.919 555.656 937.516 555.656C942.897 555.656 945.48 558.426 945.48 563.751C945.48 569.5 942.897 572.27 937.516 572.27Z" fill="#2C3B4B"/>
<path d="M960.763 572.27C955.166 572.27 952.368 569.5 952.368 563.751C952.368 558.426 955.166 555.656 960.763 555.656C966.145 555.656 968.728 558.426 968.728 563.751C968.512 569.5 965.929 572.27 960.763 572.27Z" fill="#2C3B4B"/>
<path d="M836.13 404.436C830.534 404.436 827.735 401.667 827.735 395.916C827.735 390.592 830.534 387.823 836.13 387.823C841.727 387.823 844.095 390.592 844.095 395.916C844.095 401.88 841.512 404.649 836.13 404.436Z" fill="#2C3B4B"/>
<path d="M859.378 404.436C853.781 404.436 850.983 401.667 850.983 395.916C850.983 390.592 853.781 387.823 859.378 387.823C864.975 387.823 867.342 390.592 867.342 395.916C867.127 401.88 864.544 404.649 859.378 404.436Z" fill="#2C3B4B"/>
<path d="M1278.48 421.475C1272.88 421.475 1270.09 418.705 1270.09 412.955C1270.09 407.63 1272.88 404.862 1278.48 404.862C1284.08 404.862 1286.44 407.63 1286.44 412.955C1286.44 418.705 1283.65 421.475 1278.48 421.475Z" fill="#2C3B4B"/>
<path d="M1008.55 448.736L1006.83 447.884V501.131C1006.83 515.613 1000.15 523.282 986.594 523.92H904.151C892.097 522.641 886.069 515.613 886.069 503.048L885.854 462.793C885.854 462.793 886.069 442.772 886.069 442.346C886.069 439.577 885.639 436.808 885.208 434.04C883.271 427.65 878.751 422.325 872.508 419.344V459.598C872.508 459.811 872.508 503.26 872.508 503.26C872.508 513.698 875.737 521.79 882.41 527.542C883.486 528.392 884.563 529.245 885.639 529.884H885.854L886.715 530.31C890.805 532.44 895.325 534.144 900.061 534.996C903.29 535.634 906.519 536.061 909.748 536.273H986.163C996.28 536.273 1004.46 533.291 1010.49 527.542C1017.16 521.152 1020.39 512.418 1020.39 501.131V462.58C1018.45 456.403 1014.15 451.505 1008.55 448.736Z" fill="#2C3B4B"/>
<path d="M1304.96 534.145C1302.37 529.458 1298.5 525.625 1293.55 523.495H1191.09H1066.24H1063.44C1048.59 523.495 1041.05 515.829 1041.05 500.493V362.051C1040.41 362.264 1039.98 362.69 1039.33 362.903C1033.73 365.672 1029.43 370.571 1027.49 376.534V376.747V501.132C1027.06 509.651 1029.86 518.171 1035.24 524.986C1041.48 532.441 1050.31 536.062 1061.93 536.062H1305.82L1304.96 534.145Z" fill="#2C3B4B"/>
<path d="M715.156 397.619V362.05C709.129 365.032 704.609 370.569 702.887 376.959C702.456 378.45 702.241 379.941 702.026 381.432V388.46V427.223V562.258V579.51C708.053 576.528 712.573 570.99 714.295 564.6C714.726 563.109 714.941 561.62 715.156 560.128V553.1V470.673C715.156 470.247 715.156 469.821 715.156 469.395V427.437V402.944C715.156 401.24 715.156 399.536 715.156 397.619Z" fill="#42ACB9"/>
<path d="M629.054 513.272H629.271V513.484H629.054V513.272Z" fill="#2C3B4B"/>
<path d="M629.054 513.272H629.271V513.484H629.054V513.272Z" fill="#2C3B4B"/>
<path d="M629.054 513.272H629.271V513.484H629.054V513.272Z" fill="#2C3B4B"/>
<path d="M629.054 513.272H629.271V513.484H629.054V513.272Z" fill="#2C3B4B"/>
<path d="M629.054 513.272H629.271V513.484H629.054V513.272Z" fill="#2C3B4B"/>
<path d="M629.054 513.272H629.271V513.484H629.054V513.272Z" fill="#2C3B4B"/>
<path d="M455.344 515.613V515.828L455.128 515.613H455.344Z" fill="#2C3B4B"/>
<path d="M455.344 515.613V515.828L455.128 515.613H455.344Z" fill="#2C3B4B"/>
<path d="M292.61 570.992L293.471 571.631V570.992H292.61Z" fill="#2C3B4B"/>
<path d="M352.021 468.332H353.312V467.906L352.021 468.332Z" fill="#2C3B4B"/>
<path d="M269.148 462.581V519.447L267.209 517.317C261.183 511.354 257.093 503.049 255.156 491.973C254.294 487.074 253.864 481.962 253.864 477.064V451.079H209.09C214.471 441.708 223.513 435.957 237.72 435.957H250.635C255.586 435.743 260.106 437.873 262.904 441.921C264.843 444.263 266.133 447.033 267.209 450.014C268.501 454.061 269.148 458.321 269.148 462.581Z" fill="#2C3B4B"/>
<path d="M353.527 467.692V468.332H352.021L353.527 467.692Z" fill="#2C3B4B"/>
<path d="M620.659 492.824H620.875V493.037H620.659V492.824Z" fill="white"/>
<path d="M609.251 494.953C609.466 496.232 609.896 497.509 610.327 498.789C609.896 497.724 609.466 496.232 609.251 494.953ZM620.013 448.736C617.861 442.985 613.986 438.087 608.82 434.892C608.174 434.466 607.744 434.253 607.098 433.827L606.883 433.613V476.21C606.883 481.11 607.313 486.222 608.174 491.12C608.39 492.184 608.605 493.249 608.82 494.314C609.466 497.509 610.542 500.492 611.834 503.473C612.049 503.899 612.264 504.326 612.264 504.752C614.417 509.65 617.43 514.122 621.305 517.743L622.166 518.596V462.58C622.596 457.894 621.735 452.996 620.013 448.736Z" fill="#2C3B4B"/>
<path d="M136.55 571.844H134.397V550.119H147.528V552.037H136.55V559.491H146.882V561.407H136.55V571.844Z" fill="#42ACB9"/>
<path d="M153.123 571.844H150.971V557.361H153.123V571.844ZM153.555 551.822C153.555 552.249 153.339 552.675 153.123 552.887C152.91 553.102 152.478 553.314 152.047 553.314C151.617 553.314 151.187 553.102 150.971 552.887C150.757 552.675 150.541 552.249 150.541 551.822C150.541 551.396 150.757 550.972 150.971 550.757C151.187 550.545 151.617 550.331 152.047 550.331C152.478 550.331 152.694 550.545 153.123 550.757C153.339 551.184 153.555 551.396 153.555 551.822Z" fill="#42ACB9"/>
<path d="M160.657 557.362V559.916C161.089 559.065 161.734 558.212 162.596 557.786C163.456 557.362 164.533 556.935 165.609 556.935C167.115 556.721 168.623 557.362 169.699 558.639C170.56 559.916 171.206 561.407 170.99 562.898V571.631H168.838V563.537C168.838 562.898 168.838 562.046 168.623 561.407C168.407 560.769 168.407 560.342 167.978 559.916C167.762 559.491 167.331 559.065 166.685 558.851C166.039 558.639 165.394 558.427 164.749 558.427C164.102 558.427 163.673 558.639 163.026 558.851C162.38 559.065 161.95 559.491 161.52 559.916C161.089 560.342 160.657 560.981 160.444 561.621C160.228 562.472 160.012 563.324 160.012 564.175V571.631H157.86V559.065C157.86 558.427 157.86 558 157.645 557.362H160.657Z" fill="#42ACB9"/>
<path d="M185.198 564.601C184.335 564.601 183.475 564.601 182.614 564.601C181.753 564.601 181.106 564.816 180.246 565.028C179.6 565.24 178.954 565.454 178.524 565.881C178.094 566.305 177.877 566.946 177.877 567.584C177.877 568.01 177.877 568.435 178.094 568.861C178.309 569.288 178.524 569.5 178.954 569.713C179.385 569.926 179.6 570.139 180.03 570.139C180.461 570.139 180.893 570.352 181.322 570.352C181.969 570.352 182.614 570.139 183.259 569.926C183.906 569.713 184.335 569.288 184.767 568.861C185.198 568.435 185.411 568.01 185.628 567.37C185.843 566.731 186.058 566.093 185.843 565.454V564.389L185.198 564.601ZM185.843 562.471C185.843 561.406 185.628 560.341 184.767 559.703C183.906 559.064 182.829 558.638 181.969 558.85C181.106 558.85 180.246 559.064 179.6 559.491C178.954 559.703 178.309 560.129 177.664 560.768L176.372 559.491C177.017 558.85 177.877 558.426 178.74 557.999C179.817 557.573 180.893 557.361 181.969 557.361C182.614 557.361 183.475 557.361 184.122 557.573C184.767 557.785 185.411 557.999 185.843 558.638C186.274 559.064 186.704 559.703 187.134 560.341C187.35 560.98 187.564 561.833 187.564 562.686V570.778C187.564 571.204 187.564 571.843 187.78 572.269H185.843C185.843 571.843 185.628 571.63 185.628 571.204C185.628 570.778 185.628 570.352 185.628 569.926C185.198 570.778 184.335 571.63 183.475 572.056C182.614 572.482 181.538 572.695 180.461 572.695C179.817 572.695 179.385 572.695 178.74 572.482C176.801 572.056 175.295 570.352 175.511 568.223C175.511 567.37 175.725 566.305 176.372 565.666C177.017 565.028 177.664 564.389 178.74 564.175C179.817 563.751 180.893 563.536 181.969 563.536C183.259 563.536 184.551 563.324 185.843 563.324V562.471Z" fill="#42ACB9"/>
<path d="M195.098 557.362C195.098 557.786 195.098 558.212 195.314 558.639C195.314 559.065 195.314 559.492 195.314 559.704C195.745 558.851 196.39 558 197.251 557.574C198.113 557.147 199.19 556.721 200.266 556.721C201.772 556.509 203.279 557.147 204.355 558.427C205.216 559.704 205.861 561.195 205.647 562.686V571.418H203.495V563.324C203.495 562.686 203.495 561.834 203.279 561.195C203.063 560.556 202.848 560.13 202.632 559.704C202.418 559.277 201.987 558.851 201.342 558.639C200.696 558.427 200.05 558.212 199.403 558.212C198.758 558.212 198.327 558.427 197.682 558.639C197.251 558.851 196.606 559.277 196.39 559.704C195.961 560.13 195.529 560.769 195.314 561.407C195.098 562.26 194.884 563.111 194.884 563.963V571.418H192.732V557.147L195.098 557.362Z" fill="#42ACB9"/>
<path d="M221.575 560.768C221.145 560.129 220.715 559.703 220.069 559.491C219.423 559.064 218.563 559.064 217.916 559.064C217.055 559.064 216.41 559.276 215.547 559.491C214.903 559.703 214.258 560.129 213.826 560.768C213.395 561.406 212.965 562.045 212.75 562.686C212.319 564.175 212.319 565.881 212.75 567.158C212.965 567.796 213.395 568.435 213.826 569.075C214.258 569.5 214.903 569.926 215.547 570.352C216.194 570.565 217.055 570.778 217.916 570.778C218.776 570.778 219.639 570.778 220.284 570.352C220.929 569.926 221.36 569.5 221.792 569.075L223.298 570.139C222.005 571.843 219.853 572.695 217.7 572.695C216.624 572.695 215.547 572.482 214.471 572.056C213.611 571.63 212.75 571.204 212.105 570.352C211.458 569.713 210.813 568.861 210.597 568.01C209.953 566.093 209.953 563.963 210.597 562.045C211.029 561.194 211.458 560.341 212.105 559.703C212.75 559.064 213.611 558.426 214.471 557.999C215.547 557.573 216.624 557.361 217.7 557.361C218.776 557.361 219.639 557.573 220.715 557.999C221.575 558.426 222.437 559.064 223.081 559.915L221.575 560.768Z" fill="#42ACB9"/>
<path d="M228.679 571.844H226.526V557.361H228.679V571.844ZM229.325 551.822C229.325 552.675 228.463 553.314 227.818 553.314C227.602 553.314 227.173 553.102 226.957 553.102C226.31 552.461 226.31 551.61 226.957 551.184V550.972C227.602 550.331 228.463 550.331 228.894 550.972C229.109 551.184 229.325 551.61 229.325 551.822Z" fill="#42ACB9"/>
<path d="M242.886 564.6C242.025 564.6 241.164 564.6 240.302 564.6C239.442 564.6 238.796 564.815 237.936 565.027C237.289 565.239 236.643 565.453 236.213 565.88C235.783 566.304 235.567 566.945 235.567 567.583C235.567 568.01 235.567 568.434 235.783 568.86C235.997 569.287 236.213 569.499 236.643 569.713C237.073 569.926 237.289 570.139 237.72 570.139C238.149 570.139 238.581 570.352 239.012 570.352C239.657 570.352 240.302 570.139 240.948 569.926C241.594 569.713 242.025 569.287 242.454 568.86C242.886 568.434 243.101 568.01 243.317 567.369C243.531 566.73 243.531 566.092 243.531 565.453V564.388L242.886 564.6ZM243.531 562.47C243.531 561.406 243.317 560.341 242.454 559.702C241.809 559.064 240.733 558.85 239.657 558.85C238.796 558.85 237.936 559.064 237.289 559.276C236.643 559.49 235.997 559.915 235.352 560.555L234.275 559.064C234.92 558.425 235.783 557.785 236.643 557.573C237.72 557.146 238.796 556.934 239.872 556.934C240.518 556.934 241.378 556.934 242.025 557.146C242.67 557.36 243.317 557.573 243.747 558.211C244.177 558.638 244.607 559.276 245.038 559.915C245.253 560.555 245.47 561.406 245.47 562.258V570.352C245.47 570.778 245.47 571.417 245.683 571.843H243.747C243.747 571.417 243.531 570.991 243.531 570.778C243.531 570.352 243.531 569.926 243.531 569.499C243.101 570.352 242.241 571.204 241.378 571.63C239.872 572.269 238.149 572.482 236.643 572.056C235.997 571.843 235.567 571.63 234.92 571.204C234.491 570.778 234.06 570.352 233.631 569.926C233.199 569.287 232.984 568.434 233.199 567.795C233.199 566.945 233.414 565.88 234.06 565.239C234.707 564.6 235.567 563.962 236.428 563.75C237.504 563.323 238.581 563.109 239.657 563.109C240.948 563.109 242.241 562.897 243.531 562.897V562.47Z" fill="#42ACB9"/>
<path d="M253.004 571.844H250.851V548.627H253.004V571.844Z" fill="#42ACB9"/>
<path d="M268.716 569.927H278.834V571.844H266.349V550.119H268.501L268.716 569.927Z" fill="#42ACB9"/>
<path d="M284.429 571.844H282.277V557.361H284.429V571.844ZM284.861 551.822C284.861 552.249 284.645 552.675 284.429 552.887C284.216 553.102 283.784 553.314 283.353 553.314C282.493 553.314 281.847 552.675 281.847 551.822C281.847 551.396 282.063 551.184 282.277 550.972L282.493 550.757C282.708 550.545 283.14 550.331 283.569 550.331C284 550.331 284.216 550.545 284.645 550.757C284.645 551.184 284.861 551.396 284.861 551.822Z" fill="#42ACB9"/>
<path d="M296.484 559.277H292.395V567.584C292.395 568.011 292.395 568.435 292.61 568.861C292.61 569.076 292.826 569.5 293.039 569.714C293.256 569.927 293.471 570.14 293.686 570.14C294.332 570.353 294.979 570.353 295.408 570.14C295.623 570.14 296.055 569.927 296.268 569.714V571.631L295.192 571.844C294.762 571.844 294.332 571.844 293.902 571.844C293.471 571.844 293.039 571.844 292.61 571.631C291.75 571.418 290.887 570.779 290.457 569.927C290.242 569.288 290.027 568.649 290.027 568.011V559.065H287.013V557.361H290.027V553.314H292.179V557.361H296.268L296.484 559.277Z" fill="#42ACB9"/>
<path d="M310.906 563.535C310.906 562.258 310.476 561.193 309.615 560.128C308.754 559.275 307.462 558.637 306.171 558.849C305.525 558.849 304.878 559.063 304.233 559.275C303.157 559.702 302.081 560.767 301.649 561.832C301.436 562.47 301.22 562.897 301.22 563.535H310.906ZM313.059 564.174V565.239H301.005C301.005 565.88 301.22 566.518 301.436 567.369C301.649 568.009 302.081 568.648 302.512 569.074C302.942 569.499 303.588 569.925 304.233 570.138C305.955 570.777 307.677 570.777 309.183 569.713C309.83 569.287 310.476 568.648 310.906 568.009L312.412 569.287C310.26 572.055 306.386 573.12 303.157 571.842C302.296 571.416 301.436 570.99 300.789 570.138C300.144 569.499 299.497 568.648 299.283 567.795C298.852 566.945 298.637 565.88 298.637 564.815C298.637 563.75 298.852 562.685 299.283 561.832C299.713 560.979 300.144 560.128 300.789 559.49C301.436 558.849 302.296 558.21 303.157 557.784C304.018 557.36 305.094 557.145 305.955 557.145C307.031 557.145 307.894 557.36 308.97 557.784C309.83 558.21 310.476 558.637 311.122 559.275C311.767 559.914 312.199 560.767 312.412 561.62C312.844 562.47 313.059 563.323 313.059 564.174Z" fill="#42ACB9"/>
<path d="M317.58 559.064V557.361H319.517V559.916C320.378 558.212 322.099 557.147 324.251 557.147H324.898L325.544 557.361L325.328 559.277L324.683 559.064H323.607C322.962 559.064 322.53 559.277 321.885 559.277C321.454 559.491 320.809 559.916 320.593 560.342C320.163 560.768 319.946 561.406 319.733 562.045C319.517 562.898 319.301 563.751 319.301 564.601V572.057H317.149V560.768C317.364 560.129 317.58 559.491 317.58 559.064Z" fill="#42ACB9"/>
<path d="M336.737 564.601C335.877 564.601 335.014 564.601 334.154 564.601C333.293 564.601 332.648 564.816 331.785 565.028C331.14 565.24 330.495 565.454 330.064 565.881C329.633 566.305 329.419 566.946 329.419 567.584C329.419 568.011 329.419 568.435 329.633 568.861C329.849 569.288 330.064 569.5 330.495 569.714C330.925 569.927 331.14 570.14 331.572 570.14C332.001 570.14 332.432 570.353 332.862 570.353C333.508 570.353 334.154 570.14 334.801 569.927C335.445 569.714 335.877 569.288 336.307 568.861C336.737 568.435 336.953 568.011 337.167 567.37C337.383 566.731 337.598 566.093 337.383 565.454V564.389L336.737 564.601ZM337.383 562.471C337.383 561.406 337.167 560.341 336.307 559.703C335.445 559.064 334.369 558.638 333.508 558.85C332.648 558.85 331.785 559.064 331.14 559.276C330.495 559.491 329.849 559.915 329.203 560.556L328.127 559.064C328.773 558.426 329.633 557.999 330.495 557.573C331.572 557.147 332.648 556.934 333.938 556.934C334.584 556.934 335.445 556.934 336.09 557.147C336.737 557.361 337.383 557.573 337.813 558.212C338.243 558.638 338.674 559.276 339.106 559.915C339.319 560.556 339.535 561.406 339.535 562.259V570.353C339.535 570.779 339.535 571.418 339.751 571.844H337.813C337.813 571.418 337.598 571.205 337.598 570.779C337.598 570.353 337.598 569.927 337.598 569.5C337.167 570.353 336.307 571.205 335.445 571.631C334.584 572.057 333.508 572.27 332.432 572.27C331.785 572.27 331.356 572.27 330.709 572.057C328.773 571.631 327.267 569.927 327.48 567.796C327.48 566.946 327.696 565.881 328.343 565.24C328.988 564.601 329.633 563.963 330.709 563.751C331.785 563.324 332.862 563.11 333.938 563.11C335.23 563.11 336.522 562.898 337.813 562.898L337.383 562.471Z" fill="#42ACB9"/>
<path d="M355.249 560.768C354.819 560.129 354.388 559.703 353.742 559.491C353.097 559.064 352.236 559.064 351.59 559.064C350.729 559.064 350.083 559.276 349.222 559.491C348.576 559.703 347.93 560.129 347.5 560.768C347.07 561.406 346.64 561.833 346.424 562.686C345.993 564.175 345.993 565.881 346.424 567.158C346.64 567.796 347.07 568.435 347.5 569.075C347.93 569.5 348.576 569.926 349.222 570.352C349.868 570.565 350.729 570.778 351.59 570.778C352.236 570.778 353.097 570.565 353.742 570.352C354.388 569.926 354.819 569.5 355.249 569.075L356.756 570.139C355.464 571.843 353.312 572.695 351.159 572.695C350.083 572.695 349.006 572.482 347.93 572.056C347.07 571.63 346.209 571.204 345.564 570.352C344.917 569.713 344.271 568.861 344.056 568.01C343.411 566.093 343.411 563.963 344.056 562.045C344.487 561.194 344.917 560.341 345.564 559.703C346.209 559.064 347.07 558.426 347.93 557.999C349.006 557.573 350.083 557.361 351.159 557.361C352.236 557.361 353.097 557.573 354.173 557.999C355.249 558.426 355.895 559.064 356.541 559.915L355.249 560.768Z" fill="#42ACB9"/>
<path d="M365.366 569.712L369.887 557.572H372.255L364.936 575.676C364.505 576.741 364.075 577.593 363.214 578.232C362.353 578.871 361.277 579.297 360.2 579.297C359.554 579.297 358.909 579.297 358.263 579.084L358.478 577.167C358.909 577.38 359.554 577.38 359.985 577.38C360.631 577.38 361.277 577.167 361.707 576.741C362.138 576.102 362.568 575.463 362.783 574.824L363.86 571.842L357.617 557.36H359.985L365.366 569.712Z" fill="#42ACB9"/>
<path d="M385.385 559.915H389.26C390.766 559.915 392.058 559.703 393.349 558.85C394.21 558.212 394.856 556.934 394.641 555.87C394.641 554.805 394.21 553.526 393.349 552.887C392.058 552.249 390.766 551.822 389.475 551.822H385.6L385.385 559.915ZM383.232 550.119H389.475C390.551 550.119 391.412 550.119 392.488 550.545C393.349 550.757 394.21 551.184 394.856 551.61C395.502 552.037 395.933 552.675 396.363 553.526C396.794 554.379 397.009 555.231 396.794 556.082C396.794 556.934 396.578 557.786 396.363 558.638C395.933 559.276 395.502 559.915 394.856 560.556C394.21 560.98 393.349 561.406 392.488 561.621C391.412 561.833 390.551 562.045 389.475 562.045H385.6V572.27H383.448L383.232 550.119Z" fill="#42ACB9"/>
<path d="M399.592 559.065V557.361H401.529V559.916C401.96 559.065 402.605 558.212 403.466 557.786C404.327 557.147 405.188 556.935 406.265 556.935H406.91L407.556 557.147L407.341 559.065L406.695 558.851H405.834C405.188 558.851 404.758 559.065 404.112 559.065C403.682 559.277 403.036 559.703 402.821 560.129C402.39 560.556 402.175 561.194 401.96 561.833C401.744 562.686 401.529 563.536 401.529 564.389V571.844H399.376V560.556C399.592 560.129 399.592 559.491 399.592 559.065Z" fill="#42ACB9"/>
<path d="M422.409 564.601C422.409 563.75 422.194 563.11 421.979 562.259C421.763 561.621 421.333 560.98 420.902 560.341C420.472 559.915 419.826 559.491 419.18 559.064C417.673 558.426 416.167 558.426 414.66 559.064C414.014 559.276 413.368 559.703 412.938 560.341C412.507 560.98 412.077 561.621 411.862 562.259C411.431 563.75 411.431 565.24 411.862 566.731C412.077 567.37 412.507 568.01 412.938 568.648C413.368 569.075 414.014 569.499 414.66 569.926C416.167 570.565 417.673 570.565 419.18 569.926C419.826 569.713 420.472 569.287 420.902 568.648C421.333 568.01 421.763 567.583 421.979 566.731C422.194 566.092 422.409 565.454 422.409 564.601ZM424.562 564.601C424.562 565.666 424.346 566.731 423.916 567.583C423.485 568.434 423.055 569.287 422.409 569.926C421.763 570.565 420.902 571.204 420.041 571.63C418.104 572.269 415.736 572.269 413.799 571.63C412.938 571.204 412.077 570.778 411.431 569.926C410.785 569.287 410.14 568.434 409.924 567.583C409.278 565.666 409.278 563.536 409.924 561.621C410.355 560.768 410.785 559.915 411.431 559.276C412.077 558.638 412.938 557.999 413.799 557.573C415.736 556.934 418.104 556.934 420.041 557.573C420.902 557.999 421.763 558.426 422.409 559.276C423.055 559.915 423.701 560.768 423.916 561.621C424.346 562.686 424.562 563.536 424.562 564.601Z" fill="#42ACB9"/>
<path d="M430.373 564.388C430.373 565.027 430.589 565.88 430.804 566.518C431.019 567.157 431.45 567.795 431.88 568.222C432.311 568.648 432.957 569.075 433.602 569.499C434.248 569.713 435.109 569.926 435.97 569.926C436.616 569.926 437.477 569.713 438.123 569.499C438.768 569.287 439.414 568.86 439.845 568.434C440.275 568.01 440.706 567.369 440.921 566.73C441.136 566.092 441.351 565.239 441.351 564.388C441.351 563.75 441.136 562.897 440.921 562.258C440.706 561.62 440.275 560.979 439.845 560.555C439.414 560.128 438.768 559.702 438.123 559.275C437.477 559.063 436.616 558.849 435.97 558.849C435.109 558.849 434.463 559.063 433.602 559.49C432.957 559.702 432.311 560.128 431.88 560.767C431.45 561.193 431.019 561.832 430.804 562.47C430.373 563.109 430.373 563.75 430.373 564.388ZM429.943 574.824C431.88 577.167 435.109 578.019 438.123 576.954C438.768 576.741 439.414 576.315 439.845 575.676C440.275 575.25 440.706 574.611 440.921 573.972C441.136 573.333 441.136 572.481 441.136 571.843V569.075C440.49 569.926 439.845 570.778 438.768 571.204C437.907 571.63 436.831 572.056 435.755 572.056C434.679 572.056 433.602 571.843 432.741 571.417C431.88 570.991 431.019 570.565 430.373 569.926C429.728 569.287 429.082 568.434 428.867 567.583C428.221 565.665 428.221 563.75 428.867 561.832C429.297 560.979 429.728 560.128 430.373 559.49C431.019 558.849 431.88 558.211 432.741 557.785C433.818 557.36 434.894 557.36 435.755 557.36C436.831 557.36 437.907 557.572 438.768 557.998C439.845 558.425 440.49 559.275 441.136 560.128V557.572H443.289V571.843C443.289 572.694 443.289 573.546 443.074 574.398C442.858 575.25 442.428 576.102 441.782 576.741C441.136 577.593 440.275 578.232 439.414 578.658C438.123 579.297 436.831 579.51 435.54 579.297C434.248 579.297 432.957 579.084 431.665 578.445C430.589 578.019 429.512 577.167 428.436 576.315L429.943 574.824Z" fill="#42ACB9"/>
<path d="M448.67 559.065V557.361H450.823V559.916C451.684 558.212 453.406 556.935 455.343 556.935H455.989C456.204 556.935 456.42 556.935 456.635 557.147L456.42 559.065L455.774 558.851H454.913C454.267 558.851 453.836 559.065 453.191 559.065C452.76 559.277 452.114 559.703 451.899 560.129C451.469 560.556 451.253 561.194 451.038 561.833C450.823 562.686 450.608 563.536 450.608 564.389V571.844H448.455V560.556C448.67 560.129 448.67 559.491 448.67 559.065Z" fill="#42ACB9"/>
<path d="M468.043 564.6C467.182 564.6 466.321 564.6 465.46 564.6C464.599 564.6 463.953 564.815 463.092 565.027C462.446 565.239 461.8 565.453 461.37 565.88C460.939 566.304 460.724 566.945 460.724 567.583C460.724 568.01 460.724 568.434 460.939 568.86C461.155 569.287 461.37 569.499 461.8 569.713C462.231 569.926 462.446 570.139 462.877 570.139C463.307 570.139 463.738 570.352 464.168 570.352C464.814 570.352 465.46 570.139 466.106 569.926C466.751 569.713 467.182 569.287 467.612 568.86C468.043 568.434 468.258 568.01 468.473 567.369C468.689 566.73 468.689 566.092 468.689 565.453V564.388L468.043 564.6ZM468.473 562.47C468.473 561.406 468.258 560.341 467.397 559.702C466.536 559.064 465.46 558.638 464.599 558.85C463.738 558.85 462.877 559.064 462.231 559.276C461.585 559.49 460.939 559.915 460.294 560.555L459.217 559.064C459.863 558.425 460.724 557.785 461.585 557.573C462.661 557.146 463.738 556.934 464.814 556.934C465.46 556.934 466.321 556.934 466.967 557.146C467.612 557.36 468.258 557.573 468.689 558.211C469.119 558.638 469.55 559.276 469.98 559.915C470.195 560.555 470.411 561.406 470.411 562.258V570.352C470.411 570.778 470.411 571.417 470.626 571.843H468.689C468.689 571.417 468.689 571.204 468.473 570.778C468.473 570.352 468.473 569.926 468.473 569.499C468.043 570.352 467.182 571.204 466.321 571.63C464.814 572.269 463.092 572.482 461.585 572.056C460.939 571.843 460.509 571.63 459.863 571.204C459.433 570.778 459.002 570.352 458.572 569.926C458.141 569.287 457.926 568.434 458.141 567.795C458.141 566.945 458.356 565.88 459.002 565.239C459.648 564.6 460.509 563.962 461.37 563.75C462.446 563.323 463.522 563.109 464.599 563.109C465.89 563.109 467.182 562.897 468.473 562.897V562.47Z" fill="#42ACB9"/>
<path d="M479.882 557.786C480.743 557.147 481.82 556.935 482.681 556.935C483.111 556.935 483.542 556.935 483.972 556.935C484.403 556.935 484.833 557.147 485.264 557.362C485.694 557.574 486.125 558 486.34 558.212C486.77 558.639 486.986 559.277 487.201 559.704C487.631 558.851 488.277 558 489.138 557.362C489.999 556.721 491.076 556.509 492.152 556.509C493.659 556.297 495.165 556.935 496.242 558.212C497.103 559.492 497.748 560.981 497.533 562.472V571.205H495.381V563.111C495.381 561.834 495.165 560.556 494.52 559.492C493.874 558.639 492.798 558 491.721 558.212C491.076 558.212 490.43 558.427 489.784 558.639C489.354 558.851 488.923 559.277 488.492 559.916C488.062 560.342 487.847 560.981 487.847 561.621C487.631 562.26 487.631 562.898 487.631 563.537V571.205H485.479V562.686C485.479 562.046 485.479 561.407 485.264 560.769C485.264 560.342 485.048 559.704 484.833 559.277C484.618 558.851 484.187 558.639 483.757 558.427C483.111 558.212 482.681 558 482.035 558.212C481.604 558.212 480.959 558.427 480.528 558.639C480.098 558.851 479.452 559.277 479.236 559.704C478.806 560.13 478.375 560.769 478.16 561.407C477.945 562.26 477.73 563.111 477.73 563.963V571.418H475.577V556.935H477.514C477.514 557.362 477.514 557.786 477.514 558.212C477.514 558.639 477.514 559.065 477.514 559.277C478.375 559.065 479.021 558.212 479.882 557.786Z" fill="#42ACB9"/>
<path d="M439.199 517.744C432.526 520.089 425.423 520.939 418.319 520.513C403.036 520.513 389.905 510.29 386.031 495.808C383.663 487.501 383.233 478.982 385.17 470.462C389.26 452.358 402.39 442.134 421.118 442.561C426.929 442.774 432.741 443.626 439.199 444.264C439.199 443.626 439.199 442.774 439.199 442.134V432.976L436.401 432.763H435.54C428.221 432.55 421.118 431.272 414.014 432.124C394.426 434.254 380.865 444.478 374.622 463.221C370.748 474.722 370.532 487.288 374.192 499.002C379.143 515.188 389.905 525.838 406.48 530.098C415.951 532.227 425.638 532.441 435.109 530.524C436.401 530.311 437.907 530.098 439.199 529.673V517.744Z" fill="#2C3B4B"/>
<path d="M604.085 517.959C597.412 520.301 590.308 521.154 583.205 520.727C567.922 520.727 554.791 510.504 550.917 496.02C548.549 487.714 548.118 479.195 550.056 470.675C554.145 452.571 567.276 442.348 586.003 442.774C591.815 442.987 597.627 443.839 604.085 444.478C604.085 443.839 604.085 442.987 604.085 442.348V433.189L601.286 432.976C601.071 432.976 585.788 431.272 578.9 432.124C559.527 434.254 545.75 444.691 539.508 463.221C535.633 474.722 535.418 487.288 539.078 499.002C544.028 515.188 554.791 525.838 571.581 530.098C581.052 532.227 590.739 532.441 600.21 530.524C601.502 530.311 603.008 530.098 604.3 529.673L604.085 517.959Z" fill="#2C3B4B"/>
<path d="M869.279 510.928V501.77C865.19 502.835 861.745 503.9 858.086 504.539C854.427 505.179 850.552 505.391 846.893 505.391C828.381 505.179 815.465 494.742 812.021 476.851C810.945 471.101 810.73 465.35 811.16 459.599C812.667 442.986 822.999 430.846 838.498 427.864C847.323 426.159 856.364 426.586 864.974 429.354C866.266 429.781 867.342 429.994 869.064 430.419V418.919C867.773 418.494 866.481 417.854 865.19 417.64C854.212 415.299 843.018 414.659 832.04 417.854C817.618 421.688 805.994 432.337 801.474 446.393C798.03 455.978 797.169 466.202 798.891 475.999C801.904 496.019 814.604 510.077 834.193 514.764C841.296 516.467 848.615 516.679 855.718 515.829C859.378 515.402 867.127 513.484 867.342 513.484C868.418 513.272 869.064 512.846 869.064 512.846L869.279 510.928Z" fill="#2C3B4B"/>
<path d="M1300.65 436.383C1292.26 434.678 1283.43 434.253 1275.04 435.531C1262.55 437.448 1251.79 442.772 1244.25 453.209C1235.86 464.923 1233.28 477.915 1234.78 491.972C1235.43 499.639 1237.8 507.094 1241.67 513.698C1241.67 513.698 1243.18 516.04 1243.82 517.105C1244.25 517.743 1244.69 518.17 1245.12 518.808L1246.41 520.512H1264.7C1263.2 519.235 1262.77 518.596 1262.12 518.382C1255.66 513.91 1250.93 507.094 1248.99 499.427C1247.05 492.184 1246.41 484.518 1247.7 477.063C1250.28 457.894 1264.27 446.18 1283.65 445.967C1290.53 445.967 1297.42 446.819 1304.1 448.949V437.661C1302.8 437.235 1301.73 436.808 1300.65 436.383Z" fill="#2C3B4B"/>
<path d="M266.564 521.576L265.056 519.66C264.627 519.234 264.411 518.808 263.98 518.169L258.815 511.353C258.385 511.568 258.169 511.78 257.738 511.992C249.343 516.252 237.289 518.382 221.145 518.382C206.292 518.382 193.808 515.187 183.259 509.011C180.03 507.093 177.018 504.963 174.219 502.408C172.496 500.918 170.99 499.427 169.484 497.724C165.394 493.249 161.95 488.138 159.581 482.814C153.986 470.886 151.187 457.681 151.402 444.476C151.187 431.271 153.986 418.492 159.581 406.564C164.749 395.702 173.143 386.543 183.69 380.367C195.098 373.977 208.23 370.569 221.36 370.995C228.463 370.995 235.352 371.634 242.241 372.699C248.267 373.551 254.293 375.468 259.675 378.237L260.106 370.995V370.143L260.538 363.115C255.586 360.772 250.42 359.281 245.038 358.642L243.101 358.429C235.783 357.364 228.463 356.725 221.145 356.725H215.979C205.431 357.151 194.885 359.281 184.982 363.115C174.649 367.162 165.178 373.338 157.428 381.219C149.681 389.312 143.868 398.897 139.994 409.333C136.119 420.622 134.182 432.762 134.182 444.689C134.182 457.041 136.119 468.969 140.208 480.684C143.868 491.119 149.894 500.704 157.428 508.797C158.291 509.65 159.151 510.715 160.012 511.353C167.115 517.957 175.725 523.282 184.982 526.689C196.606 530.949 208.876 533.079 221.145 532.866C228.249 532.866 235.352 532.226 242.454 531.161C248.698 530.522 254.94 528.607 260.538 525.624C260.538 525.624 263.98 523.494 266.564 521.576Z" fill="#2C3B4B"/>
<path d="M367.734 480.046C367.734 476.211 367.303 472.165 366.658 468.332C366.658 467.906 366.442 467.267 366.442 466.841C366.442 466.415 366.227 465.776 366.012 465.35L365.797 464.072C365.581 463.646 365.581 463.22 365.366 462.794C363.429 454.913 359.339 447.672 353.527 442.133C348.361 437.448 342.118 434.254 335.445 432.549C332.217 431.911 328.773 431.698 325.544 431.698C321.239 431.698 316.717 432.124 312.412 433.189C307.031 434.679 301.866 437.022 297.131 440.003C296.484 440.43 295.623 441.068 294.978 441.708V422.326C295.192 420.197 295.192 417.854 295.192 415.299V372.7C289.166 375.682 284.429 380.794 281.847 386.758C281.632 386.971 281.632 387.184 281.416 387.397C280.124 390.378 279.479 395.916 279.479 395.916V503.687C279.479 506.244 280.124 508.798 281.2 511.142C282.063 513.484 283.139 515.614 284.429 517.744C286.798 521.791 290.242 524.986 294.332 527.328H295.192V483.028C295.192 480.898 295.192 478.768 295.408 476.638C296.699 460.451 302.726 450.867 312.412 446.607C316.288 444.903 320.593 444.051 324.898 444.263C327.696 444.263 330.495 444.69 333.293 445.328C342.335 447.885 349.222 455.339 352.02 468.332V468.757C352.02 468.757 352.451 479.62 352.451 484.306C352.451 484.519 352.451 484.731 352.451 484.731V498.79C352.451 512.846 358.263 521.791 367.734 527.116V484.519C367.949 483.028 367.949 481.536 367.734 480.046Z" fill="#2C3B4B"/>
<path d="M515.83 434.253L514.969 433.827V480.259C514.969 481.963 514.969 483.453 514.753 484.944C513.677 498.363 509.372 507.309 502.269 512.419C500.977 513.272 499.686 513.911 498.394 514.549L497.748 514.976C493.874 516.679 489.569 517.318 485.263 517.318C482.465 517.318 479.667 517.105 476.868 516.253C472.994 515.188 469.335 512.846 466.536 510.077C465.029 508.586 463.738 506.668 462.446 504.752C458.141 497.51 457.495 489.63 457.495 481.324V464.072C457.495 460.877 456.204 453.635 456.204 453.209C455.989 452.782 455.989 452.357 455.989 451.931C455.989 451.505 455.989 451.505 455.773 451.292C454.697 447.458 452.76 443.838 450.177 440.643C448.455 438.513 446.302 436.808 444.15 435.318C443.719 435.105 443.289 434.679 442.858 434.466C442.643 434.466 442.643 434.253 442.428 434.253L442.212 434.04L441.997 433.827L442.212 436.808L442.428 440.43L442.643 445.968V477.916C442.643 482.601 443.073 487.287 443.719 491.76L443.934 492.399V492.825C444.15 493.464 444.15 494.315 444.365 494.954C444.365 495.38 444.58 495.595 444.58 496.019V496.233C446.302 504.964 450.607 512.846 457.065 519.235C462.231 523.921 468.474 527.116 475.146 528.82C478.375 529.458 481.819 529.673 485.048 529.673C489.353 529.673 493.874 529.246 498.179 528.181C499.686 527.755 501.192 527.328 502.699 526.902C507.22 525.413 511.525 523.068 515.184 520.088C515.184 520.088 515.399 574.399 515.399 575.677V614.866V625.09C522.503 621.469 527.669 615.079 529.821 607.412C529.821 607.412 530.252 603.365 530.252 602.087V483.24C530.252 482.815 530.252 482.389 530.252 481.963V461.942C530.252 448.311 524.655 439.365 515.83 434.253Z" fill="#2C3B4B"/>
<path d="M1028.84 555.255C1028.08 555.255 1027.7 554.866 1027.7 554.09C1027.7 553.337 1028.08 552.96 1028.84 552.96C1029.58 552.96 1029.95 553.337 1029.95 554.09C1029.95 554.866 1029.58 555.255 1028.84 555.255ZM1025.24 555.255C1024.48 555.255 1024.1 554.866 1024.1 554.09C1024.1 553.337 1024.48 552.96 1025.24 552.96C1025.98 552.96 1026.35 553.337 1026.35 554.09C1026.35 554.866 1025.98 555.255 1025.24 555.255ZM1029.95 563.655C1028.78 562.152 1027.32 561.395 1025.56 561.395C1024.23 561.395 1023.14 561.922 1022.31 562.967C1021.48 564.016 1021.07 565.374 1021.07 567.044C1021.07 568.74 1021.47 570.098 1022.29 571.122C1023.12 572.147 1024.21 572.657 1025.56 572.657C1027.32 572.657 1028.81 571.883 1030.02 570.328C1029.97 569.857 1029.95 569.494 1029.95 569.232V563.655ZM1036.05 573.717H1037.58V575.199H1035.8C1033.11 575.199 1031.32 574.106 1030.41 571.915C1029.15 573.399 1027.53 574.138 1025.56 574.138C1023.56 574.138 1021.99 573.386 1020.85 571.883C1019.87 570.611 1019.39 568.999 1019.39 567.044C1019.39 564.808 1020.02 563.021 1021.28 561.679C1022.4 560.503 1023.82 559.914 1025.56 559.914C1027.37 559.914 1028.83 560.49 1029.95 561.642V559.313L1031.62 558.431V569.199C1031.62 572.212 1033.1 573.717 1036.05 573.717Z" fill="#41ABB8"/>
<path d="M1043.36 579.085C1044.1 579.085 1044.47 579.472 1044.47 580.248C1044.47 581.002 1044.1 581.377 1043.36 581.377C1042.6 581.377 1042.22 581.002 1042.22 580.248C1042.22 579.472 1042.6 579.085 1043.36 579.085ZM1039.76 579.085C1040.5 579.085 1040.86 579.472 1040.86 580.248C1040.86 581.002 1040.5 581.377 1039.76 581.377C1039 581.377 1038.62 581.002 1038.62 580.248C1038.62 579.472 1039 579.085 1039.76 579.085ZM1047.5 573.718H1049.04V575.2H1047.25C1044.9 575.2 1043.23 574.342 1042.25 572.623C1041.26 574.342 1039.58 575.2 1037.23 575.2H1035.44V573.718H1036.98C1039.92 573.718 1041.4 572.213 1041.4 569.2V561.151L1043.08 560.269V569.2C1043.08 572.213 1044.55 573.718 1047.5 573.718Z" fill="#41ABB8"/>
<path d="M1046.89 575.199V573.717H1048.43C1051.38 573.717 1052.85 572.212 1052.85 569.199V553.312L1054.53 552.43V569.232C1054.53 571.139 1053.97 572.634 1052.85 573.717C1051.8 574.705 1050.41 575.199 1048.68 575.199H1046.89Z" fill="#41ABB8"/>
<path d="M1066.8 575.199C1064.99 575.199 1063.57 574.664 1062.52 573.593C1061.47 572.523 1060.95 571.069 1060.95 569.232V553.312L1062.62 552.43V569.199C1062.62 572.212 1064.1 573.717 1067.05 573.717H1068.59V575.199H1066.8Z" fill="#41ABB8"/>
<path d="M1078.86 574.424C1080.31 574.424 1081.47 573.836 1082.34 572.658C1083.21 571.483 1083.64 569.907 1083.64 567.928C1083.64 565.764 1083.19 564.106 1082.28 562.952C1081.48 561.916 1080.33 561.396 1078.86 561.396C1077.33 561.396 1076.16 561.963 1075.33 563.09C1074.49 564.22 1074.08 565.834 1074.08 567.928C1074.08 572.258 1075.67 574.424 1078.86 574.424ZM1089.74 573.717H1091.27V575.2H1089.49C1087.07 575.2 1085.38 574.305 1084.43 572.518C1083.33 574.778 1081.48 575.906 1078.86 575.906C1076.24 575.906 1074.39 574.778 1073.29 572.518C1072.34 574.305 1070.65 575.2 1068.23 575.2H1066.44V573.717H1067.98C1070.93 573.717 1072.4 572.213 1072.4 569.2V567.928C1072.4 565.245 1073.04 563.197 1074.33 561.787C1075.44 560.539 1076.96 559.915 1078.86 559.915C1081.02 559.915 1082.68 560.716 1083.82 562.315C1084.82 563.727 1085.32 565.599 1085.32 567.928V569.2C1085.32 572.213 1086.79 573.717 1089.74 573.717Z" fill="#41ABB8"/>
<path d="M1089.13 575.199V573.717H1090.67C1093.62 573.717 1095.09 572.212 1095.09 569.199V553.312L1096.77 552.43V569.232C1096.77 571.139 1096.21 572.634 1095.09 573.717C1094.04 574.705 1092.65 575.199 1090.92 575.199H1089.13Z" fill="#41ABB8"/>
<path d="M1103.19 575.199V553.312L1104.87 552.43V575.199H1103.19Z" fill="#41ABB8"/>
<path d="M1126.45 555.255C1125.69 555.255 1125.31 554.866 1125.31 554.09C1125.31 553.337 1125.69 552.96 1126.45 552.96C1127.19 552.96 1127.55 553.337 1127.55 554.09C1127.55 554.866 1127.19 555.255 1126.45 555.255ZM1122.85 555.255C1122.08 555.255 1121.71 554.866 1121.71 554.09C1121.71 553.337 1122.08 552.96 1122.85 552.96C1123.58 552.96 1123.95 553.337 1123.95 554.09C1123.95 554.866 1123.58 555.255 1122.85 555.255ZM1127.55 563.655C1126.39 562.152 1124.93 561.395 1123.16 561.395C1121.84 561.395 1120.75 561.922 1119.92 562.967C1119.09 564.016 1118.67 565.374 1118.67 567.044C1118.67 568.74 1119.08 570.098 1119.9 571.122C1120.73 572.147 1121.81 572.657 1123.16 572.657C1124.93 572.657 1126.42 571.883 1127.63 570.328C1127.58 569.857 1127.55 569.494 1127.55 569.232V563.655ZM1133.65 573.717H1135.19V575.199H1133.41C1130.72 575.199 1128.92 574.106 1128.02 571.915C1126.76 573.399 1125.14 574.138 1123.16 574.138C1121.17 574.138 1119.6 573.386 1118.46 571.883C1117.48 570.611 1117 568.999 1117 567.044C1117 564.808 1117.63 563.021 1118.89 561.679C1120 560.503 1121.43 559.914 1123.16 559.914C1124.98 559.914 1126.44 560.49 1127.55 561.642V559.313L1129.23 558.431V569.199C1129.23 572.212 1130.71 573.717 1133.65 573.717Z" fill="#41ABB8"/>
<path d="M1144.5 555.219C1143.74 555.219 1143.36 554.833 1143.36 554.053C1143.36 553.3 1143.74 552.924 1144.5 552.924C1145.24 552.924 1145.61 553.3 1145.61 554.053C1145.61 554.833 1145.24 555.219 1144.5 555.219ZM1148.5 566.126C1148.5 562.973 1147.13 561.395 1144.4 561.395C1142.9 561.395 1141.72 561.944 1140.88 563.041C1140.04 564.134 1139.61 565.644 1139.61 567.575C1139.61 569.457 1140.04 570.963 1140.9 572.093C1141.71 573.178 1142.77 573.717 1144.07 573.717C1147.02 573.717 1148.5 572.212 1148.5 569.199V566.126ZM1133.05 575.199V573.717H1140.19C1138.69 572.375 1137.94 570.328 1137.94 567.575C1137.94 565.056 1138.58 563.113 1139.86 561.748C1141.01 560.525 1142.52 559.914 1144.4 559.914C1146.18 559.914 1147.59 560.444 1148.62 561.503C1149.66 562.562 1150.18 564.009 1150.18 565.846V569.338C1150.15 571.222 1149.58 572.697 1148.46 573.752C1147.44 574.717 1146.06 575.199 1144.32 575.199H1133.05Z" fill="#41ABB8"/>
<path d="M1162.09 575.199C1160.28 575.199 1158.85 574.664 1157.81 573.593C1156.76 572.523 1156.24 571.069 1156.24 569.232V553.312L1157.91 552.43V569.199C1157.91 572.212 1159.39 573.717 1162.34 573.717H1163.87V575.199H1162.09Z" fill="#41ABB8"/>
<path d="M1174.43 555.255C1173.67 555.255 1173.29 554.866 1173.29 554.09C1173.29 553.337 1173.67 552.96 1174.43 552.96C1175.17 552.96 1175.54 553.337 1175.54 554.09C1175.54 554.866 1175.17 555.255 1174.43 555.255ZM1170.83 555.255C1170.07 555.255 1169.69 554.866 1169.69 554.09C1169.69 553.337 1170.07 552.96 1170.83 552.96C1171.57 552.96 1171.94 553.337 1171.94 554.09C1171.94 554.866 1171.57 555.255 1170.83 555.255ZM1172.61 573.471L1172.93 573.363C1174.24 572.918 1175.31 572.1 1176.15 570.911C1176.98 569.721 1177.4 568.433 1177.4 567.044C1177.4 565.328 1176.96 563.956 1176.09 562.932C1175.22 561.911 1174.06 561.395 1172.61 561.395C1171.16 561.395 1170 561.911 1169.13 562.932C1168.27 563.956 1167.83 565.328 1167.83 567.044C1167.83 568.433 1168.25 569.721 1169.08 570.911C1169.91 572.1 1170.98 572.918 1172.29 573.363L1172.61 573.471ZM1175.43 573.717H1183.49V575.199H1174.61C1173.92 575.199 1173.25 575.116 1172.61 574.952C1171.97 575.116 1171.31 575.199 1170.62 575.199H1161.73V573.717H1169.79C1168.72 572.965 1167.87 571.983 1167.23 570.769C1166.58 569.557 1166.26 568.317 1166.26 567.044C1166.26 564.763 1166.88 562.973 1168.12 561.679C1169.26 560.503 1170.76 559.914 1172.61 559.914C1174.73 559.914 1176.37 560.669 1177.54 562.174C1178.49 563.443 1178.96 565.068 1178.96 567.044C1178.96 568.317 1178.64 569.557 1178 570.769C1177.36 571.983 1176.51 572.965 1175.43 573.717Z" fill="#41ABB8"/>
<path d="M1188.6 554.09C1188.6 553.337 1188.98 552.96 1189.74 552.96C1190.48 552.96 1190.84 553.337 1190.84 554.09C1190.84 554.866 1190.48 555.255 1189.74 555.255C1188.98 555.255 1188.6 554.866 1188.6 554.09ZM1187.92 552.077C1187.16 552.077 1186.77 551.69 1186.77 550.914C1186.77 550.161 1187.16 549.785 1187.92 549.785C1188.65 549.785 1189.02 550.161 1189.02 550.914C1189.02 551.69 1188.65 552.077 1187.92 552.077ZM1186.13 555.255C1185.37 555.255 1184.99 554.866 1184.99 554.09C1184.99 553.337 1185.37 552.96 1186.13 552.96C1186.87 552.96 1187.24 553.337 1187.24 554.09C1187.24 554.866 1186.87 555.255 1186.13 555.255ZM1193.41 573.717H1194.95V575.199H1193.16C1190.81 575.199 1189.14 574.34 1188.17 572.622C1187.17 574.34 1185.49 575.199 1183.14 575.199H1181.35V573.717H1182.89C1185.84 573.717 1187.31 572.212 1187.31 569.199V561.15L1188.99 560.268V569.199C1188.99 572.212 1190.46 573.717 1193.41 573.717Z" fill="#41ABB8"/>
<path d="M1192.81 575.199V573.717H1194.34C1197.29 573.717 1198.76 572.212 1198.76 569.199V553.312L1200.44 552.43V569.232C1200.44 571.139 1199.88 572.634 1198.76 573.717C1197.72 574.705 1196.33 575.199 1194.59 575.199H1192.81Z" fill="#41ABB8"/>
<path d="M1206.86 575.199V553.312L1208.54 552.43V575.199H1206.86Z" fill="#41ABB8"/>
<path d="M1228.94 580.214C1228.94 579.461 1229.32 579.085 1230.09 579.085C1230.82 579.085 1231.2 579.461 1231.2 580.214C1231.2 580.99 1230.82 581.377 1230.09 581.377C1229.32 581.377 1228.94 580.99 1228.94 580.214ZM1243.75 573.718H1244.64V575.201H1243.71C1241.62 575.201 1239.96 574.947 1238.74 574.442C1237.51 573.937 1236.38 573.037 1235.33 571.741C1234.47 572.073 1233.02 572.423 1230.98 572.798C1228.27 573.32 1226.41 574.084 1225.41 575.096C1224.2 576.342 1223.59 578.048 1223.59 580.214C1223.59 582.308 1224.32 584.003 1225.77 585.296C1227.01 586.402 1228.56 586.957 1230.44 586.957C1233.27 586.957 1235.45 586.357 1236.97 585.155V586.635C1235.07 587.839 1232.89 588.438 1230.44 588.438C1227.85 588.438 1225.76 587.556 1224.17 585.79C1222.79 584.261 1222.09 582.376 1222.09 580.144C1222.09 577.717 1222.86 575.72 1224.38 574.14C1225.19 573.32 1226.02 572.742 1226.88 572.413C1227.73 572.082 1229.44 571.671 1232.01 571.177C1235.03 570.612 1237.13 569.554 1238.29 567.998C1236.06 563.597 1233.26 561.396 1229.91 561.396C1227.89 561.396 1225.96 562.412 1224.13 564.433V562.669C1226.05 560.835 1228.04 559.916 1230.09 559.916C1233.75 559.916 1236.94 562.387 1239.65 567.33V568.672C1238.79 569.729 1237.74 570.587 1236.51 571.25C1237.34 572.166 1238.29 572.806 1239.36 573.171C1240.43 573.537 1241.9 573.718 1243.75 573.718Z" fill="#41ABB8"/>
<path d="M1250.14 569.199C1250.14 572.212 1251.61 573.717 1254.56 573.717C1255.94 573.717 1257.03 573.169 1257.83 572.078C1258.62 570.982 1259.02 569.479 1259.02 567.575C1259.02 565.576 1258.57 564.021 1257.67 562.916C1256.83 561.905 1255.69 561.395 1254.24 561.395C1251.5 561.395 1250.14 562.973 1250.14 566.126V569.199ZM1248.46 565.846C1248.46 563.87 1249.04 562.35 1250.21 561.294C1251.23 560.373 1252.58 559.914 1254.24 559.914C1256.4 559.914 1258.06 560.704 1259.2 562.281C1260.2 563.622 1260.7 565.386 1260.7 567.575C1260.7 570.068 1260.07 572.01 1258.81 573.399C1257.69 574.598 1256.23 575.199 1254.42 575.199C1252.02 575.199 1250.32 574.34 1249.32 572.622C1248.32 574.34 1246.64 575.199 1244.29 575.199H1242.5V573.717H1244.04C1246.99 573.717 1248.46 572.212 1248.46 569.199V565.846Z" fill="#41ABB8"/>
<path d="M1272.43 575.199C1270.62 575.199 1269.2 574.664 1268.15 573.593C1267.1 572.523 1266.58 571.069 1266.58 569.232V553.312L1268.26 552.43V569.199C1268.26 572.212 1269.73 573.717 1272.68 573.717H1274.22V575.199H1272.43Z" fill="#41ABB8"/>
<path d="M1278.61 555.255C1277.85 555.255 1277.46 554.866 1277.46 554.09C1277.46 553.337 1277.85 552.96 1278.61 552.96C1279.34 552.96 1279.71 553.337 1279.71 554.09C1279.71 554.866 1279.34 555.255 1278.61 555.255ZM1272.08 575.199V573.717H1273.61C1276.56 573.717 1278.03 572.212 1278.03 569.199V561.15L1279.71 560.268V569.232C1279.71 571.139 1279.15 572.634 1278.03 573.717C1276.99 574.705 1275.6 575.199 1273.86 575.199H1272.08Z" fill="#41ABB8"/>
<path d="M1294.66 573.718H1296.19V575.201H1294.41C1292.67 575.201 1291.28 574.707 1290.24 573.718C1290.24 576.261 1289.58 578.272 1288.27 579.755C1287.04 581.192 1285.36 581.91 1283.24 581.91C1281.89 581.91 1280.59 581.601 1279.35 580.99V579.507C1280.59 580.144 1281.83 580.462 1283.06 580.462C1285.02 580.462 1286.48 579.71 1287.46 578.202C1288.19 577.026 1288.56 575.544 1288.56 573.754V561.151L1290.24 560.269V569.201C1290.24 572.214 1291.71 573.718 1294.66 573.718Z" fill="#41ABB8"/>
<path d="M1299.87 581.377C1299.11 581.377 1298.72 580.989 1298.72 580.214C1298.72 579.46 1299.11 579.085 1299.87 579.085C1300.6 579.085 1300.97 579.46 1300.97 580.214C1300.97 580.989 1300.6 581.377 1299.87 581.377ZM1294.05 575.2V573.718H1295.59C1298.53 573.718 1300.01 572.213 1300.01 569.2V561.151L1301.69 560.269V569.233C1301.69 571.14 1301.13 572.635 1300.01 573.718C1298.96 574.706 1297.57 575.2 1295.84 575.2H1294.05Z" fill="#41ABB8"/>
</g>
<defs>
<clipPath id="clip0_9960_18894">
<rect width="1171.64" height="268.364" fill="white" transform="translate(134.182 356.727)"/>
</clipPath>
</defs>
</svg>
