<?xml version="1.0" encoding="utf-8"?>
<!-- Generator: Adobe Illustrator 25.4.1, SVG Export Plug-In . SVG Version: 6.00 Build 0)  -->
<svg version="1.1" id="Calque_1" xmlns="http://www.w3.org/2000/svg" xmlns:xlink="http://www.w3.org/1999/xlink" x="0px" y="0px"
	 viewBox="0 0 250 250" style="enable-background:new 0 0 250 250;" xml:space="preserve">
<path d="M140.8,107.2c-1-4.1-4.4-7-8.7-7c-4.5,0-9.1,0-13.7,0c-1.5,0-1.8-0.4-1.5-2c-1.6,0.4-2.2,1.4-1.6,2.9c0.1,0.3,0.2,0.8,0,1.1
	c-0.6,1.5,0,2.6,1.6,3c-0.4-1.6-0.1-2,1.5-1.8v4.5h-5.1c0-4,0-7.9,0-11.8c0-1.9,0.7-2.3,2.4-1.7c0-2.3-2-3.1-4.3-1.8
	c-2.3-1.3-4.1-0.6-4.3,1.8c1.8-0.7,2.5-0.2,2.5,1.7c0,9.1,0,18.3,0,27.4c0,0.6-0.2,1.5-0.6,1.9c-0.3,0.3-1.2,0.1-1.8,0.1
	c0.3,2.2,2,2.9,4.4,1.7c1.4,0.8,2.2,0.9,3.1,0.3c0.8-0.5,1.3-1.1,1.2-2.2c-1.7,0.7-2.4,0.3-2.4-1.5c0-3,0-6.1,0-9.1v-2.8h5.1v3.5
	c-0.6-0.2-1.2-0.2-1.4-0.5c-0.2-0.4-0.2-1-0.2-1.5c-1.6,0.4-2.1,1.4-1.5,3c0.1,0.3,0,0.8-0.1,1.2c-0.5,1.4,0.2,2.5,1.7,2.7
	c-0.4-1.5,0-1.9,1.6-1.8v1.3c0,2.9,0,5.8,0,8.7c0,0.7-0.2,1.5-0.6,1.9c-0.3,0.3-1.2,0.1-1.8,0.1c0.2,1.9,1.7,2.9,3.5,2.1
	c0.6-0.2,1.1-0.3,1.7,0c1.7,0.8,3.5-0.5,3.4-2.3c-1.6,0.9-2.4,0.4-2.4-1.4c0-1.5,0-3,0-4.4v-6h5c0,1.8,0.1,3.6,0,5.3
	c0,0.6-0.2,1.4-0.6,1.8c-0.4,0.3-1.2,0.1-1.8,0.1c0.2,2.2,2,3,4.3,1.7c2.3,1.3,4.3,0.5,4.3-1.8c-1.4,0.6-2.3,0.3-2.3-0.8
	c-0.1-2,0-4.1,0-6.2c0.6,0,1,0,1.4-0.1c3.9-0.3,6.8-2.6,8-6c0.3-1,0.8-2,1.2-3.1C141.5,108.6,141,107.9,140.8,107.2z M138,109.8
	c-0.1,2.8-2.4,5.1-5.2,5.3c-0.5,0-1,0-1.6,0v-10.5h-3.8v3.3h-3.6v3.8h3.5v3.5h-4.8v-11.8c3.7,0,7.3-0.2,10.8,0.1
	C136.2,103.6,138.1,106.4,138,109.8z"/>
<path d="M65,143.8c-1.8,0-3.7,0-5.8,0c2.2,0.9,2.2,0.9,2.2,3.2c0,2.4,0,4.9,0,7.3c0,2.3,0,2.3-2,3.3c2,0,3.9,0,5.5,0
	c-0.5-0.5-1.5-0.9-1.6-1.4c-0.2-1.8-0.1-3.5-0.1-5.4c2.6,0,5.1,0,7.6,0c0.1,0.2,0.1,0.2,0.1,0.3c0,1,0,2.1,0,3.1
	c0,2.4,0,2.4-2.1,3.4c2.1,0,4,0,6.1,0c-2.1-0.9-2.1-0.9-2.1-3.3c0-2.6,0-5.1,0-7.7c0-1.9,0-1.9,1.8-2.6c0,0,0-0.1,0.1-0.2
	c-1.9,0-3.7,0-5.5,0c0.3,0.3,0.7,0.3,0.9,0.5c0.3,0.2,0.8,0.6,0.8,0.9c0.1,1.5,0,3.1,0,4.6c-2.6,0-5.2,0-7.8,0c0-1,0-1.9,0-2.7
	C63.3,145.7,62.9,144.1,65,143.8z"/>
<path d="M163.5,143.8c-2.4-0.2-4.8,0-7.5,0c1.8,0.9,1.8,0.9,1.8,3c0,2.7,0,5.3,0,8c0,1.9,0,1.9-1.8,2.5c0,0,0,0.1,0,0.2h5.6
	c-0.6-0.4-1.7-0.8-1.8-1.4c-0.3-1.4-0.1-3-0.1-4.4c1,0.1,2,0.3,2.8,0.2c2.4-0.2,4-1.9,4.1-4C166.8,145.6,165.7,144,163.5,143.8z
	 M161,151.2c-1,0.1-1.4-0.3-1.3-1.6c0.1-1.4,0-2.8,0-4.2c0-0.9,0.4-1.3,1.3-1.3c2.2-0.1,3.6,1.2,3.7,3.4
	C164.7,149.9,163.4,151.3,161,151.2z"/>
<path d="M38.7,152.1c-1-2.4-1.8-4.8-2.7-7.2c-0.2-0.4-0.5-0.7-0.7-1.1c-0.3,0.4-0.7,0.7-0.9,1.1c-1.4,3.3-2.8,6.7-4.1,10
	c-0.4,1-0.9,1.9-2.1,2.1c-0.1,0-0.2,0.3-0.3,0.5h4.7c0-0.1,0-0.2,0.1-0.3c-0.3-0.1-0.6-0.1-0.9-0.3c-0.3-0.2-0.7-0.5-0.7-0.7
	c0.3-1.1,0.5-2.3,1.1-3.2c0.2-0.3,1.2-0.2,1.9-0.2c2.7,0,2.7,0,3.6,2.5c0.3,0.8,0.5,1.6-0.7,1.7c-0.1,0-0.2,0.3-0.3,0.6H42
	c0.1-0.1,0.1-0.2,0.2-0.3C39.5,156.5,39.6,154,38.7,152.1z M32.6,151.7c0.6-1.7,1.2-3.2,2-5.1c0.7,1.9,1.2,3.4,1.8,5.1H32.6z"/>
<path d="M130.5,146.1c-3.5,0-6.1,2.6-6.1,6c0,3.3,2.6,5.8,6,5.8c3.5,0,6.1-2.6,6-6.1C136.4,148.6,133.9,146.1,130.5,146.1z
	 M134.1,154.7c-1,2.7-4.1,3.4-6.2,1.3c-1-1-1.6-2.6-1.6-4.4c0.1-0.6,0.1-1.3,0.3-1.9c0.5-1.7,1.7-2.8,3.2-2.9c1.7-0.1,3.2,0.7,4,2.3
	C134.6,151,134.8,152.8,134.1,154.7z"/>
<path d="M144,152.4c0.3-0.2,0.4-0.3,0.5-0.4c1.5-1,2.1-2.2,1.6-3.6c-0.4-1.2-1.5-1.9-3.2-2c-1.5,0-3,0-4.4,0c-0.2,0-0.5,0.1-0.7,0.2
	c1.5,0.4,1.5,1.4,1.5,2.5c-0.1,1.8,0,3.5,0,5.2c0,1.3,0.5,2.8-1.9,2.9c0.1,0.1,0.2,0.2,0.3,0.3h4.8c-1.7-1.1-2.1-2.3-1.5-4.7
	c1-0.2,1.6,0.2,2.1,1c0.5,0.9,1.1,1.8,1.7,2.6c0.8,1.1,2,1.5,3.2,1.2C146.7,155.9,145.4,154.1,144,152.4z M142.6,152.1
	c-0.5,0.1-0.9,0.1-1.6,0.1c0-1.6,0-3.1,0-4.6c0-0.2,0.5-0.5,0.8-0.5c1.4-0.2,2.5,0.7,2.7,2.1C144.8,150.6,144,151.8,142.6,152.1z"/>
<path d="M98.1,153.9c-0.1-1.1-0.9-1.7-1.9-2.1c-0.3-0.1-0.6-0.2-0.9-0.3c1.9-1.2,2.4-2,2-3.3c-0.3-1.3-1.4-1.9-3.5-1.9
	c-1.4,0-2.7,0-4.1,0c-0.2,0-0.5,0.1-0.7,0.2c-0.1,0.1-0.2,0.2-0.3,0.3c2-0.1,1.7,1.1,1.7,2.2c0,1.9,0,3.8,0,5.7c0,1.2,0,2.2-1.5,2.5
	c0,0,0,0.1,0,0.4c2-0.1,4-0.1,6-0.3c0.6,0,1.2-0.4,1.8-0.7C97.8,156.1,98.3,155.1,98.1,153.9z M92.2,147.8c0-0.3,0.5-0.7,0.9-0.7
	c1.2-0.2,2.3,0.5,2.5,1.8c0.2,1.3-0.4,2.2-1.8,2.5c-0.5,0.1-1,0.1-1.7,0.1C92.2,150.1,92.2,148.9,92.2,147.8z M96.1,155.4
	c-0.4,1.1-2,2-3.1,1.5c-0.3-0.2-0.7-0.7-0.7-1.1c-0.1-1.2,0-2.5,0-3.9c0.9,0.1,1.6,0.1,2.3,0.3C95.9,152.5,96.6,153.9,96.1,155.4z"
	/>
<path d="M116.6,146.1c-3.5,0-6.2,2.5-6.2,5.9c-0.1,3.3,2.6,5.8,6,5.9c3.5,0,6.1-2.5,6.2-6C122.5,148.7,120,146.2,116.6,146.1z
	 M120.6,152.3c-0.1,0.8-0.2,1.6-0.5,2.3c-1,2.8-4.2,3.4-6.2,1.3c-1.7-1.8-2-5.3-0.8-7.4c1.5-2.4,4.8-2.4,6.3,0
	c0.7,1.1,0.9,2.4,1.3,3.6C120.7,152.3,120.6,152.3,120.6,152.3z"/>
<path d="M220,149c0.1,0,0.2,0,0.2-0.1c0-0.8,0-1.6,0-2.4c-2.7,0-5.3,0-7.9,0c-0.1,0.1-0.2,0.2-0.3,0.3c2,0,1.8,1.3,1.8,2.5
	c0,1.8,0,3.6,0,5.4c0,1.3,0,2.4-1.7,2.6c0,0,0,0.1,0,0.4c2.7,0,5.5,0,8.2,0c0.1,0,0.4-0.2,0.4-0.3c0.2-0.8,0.3-1.6,0.5-2.4
	c-0.1,0-0.2-0.1-0.3-0.1c-0.2,0.2-0.3,0.5-0.5,0.7c-0.8,1.4-3.1,2.1-4.4,1.4c-0.2-0.1-0.5-0.5-0.5-0.7c-0.1-1.3,0-2.5,0-3.9
	c1.4,0.2,3-0.7,3.8,1.3c0-1.1,0-2.2,0-3.5c-1,1.6-1.8,1.8-3.9,1.3c0-0.6,0-1.2,0-1.8c0-2.6,0-2.6,2.6-2.4c0.8,0.1,1.3,0.4,1.6,1.2
	C219.7,148.5,219.9,148.8,220,149z"/>
<path d="M124.9,94.3c1.8-0.7,2.4-0.2,2.4,1.7c0,0.9,0,1.9,0,2.9c1.3,0,2.5,0,3.8,0c0-1,0-2,0-3c0-1.9,0.7-2.3,2.4-1.7
	c-0.1-2.3-2-3.1-4.3-1.8C126.9,91.2,125.1,92,124.9,94.3z"/>
<path d="M175.2,154.3c-0.9-2.2-1.7-4.4-2.5-6.6c-0.2-0.5-0.4-1.1-0.7-1.9c-0.4,0.6-0.7,0.9-0.8,1.3c-0.9,2.2-1.8,4.4-2.7,6.5
	c-0.6,1.4-0.8,3.2-2.6,3.9h3.6c-0.3-0.5-1-1-0.9-1.4c0.3-2.2,0.7-2.5,2.9-2.5h1.7c0.4,1.1,0.8,2.1,1.1,3c-0.5,0.3-0.8,0.5-1.2,0.7
	c0,0.1,0,0.1,0.1,0.2h4.3c0.1-0.1,0.2-0.2,0.2-0.3C175.7,157.1,175.6,155.5,175.2,154.3z M169.7,152.8c0.5-1.4,1-2.7,1.6-4.3
	c0.6,1.6,1,2.9,1.5,4.3H169.7z"/>
<path d="M197.1,153.8c-1-2.5-1.9-5-2.9-7.5c-0.1,0-0.2-0.1-0.4-0.1c-0.2,0.4-0.5,0.8-0.7,1.1c-1.8,3.4-2.1,7.5-5.2,10.3h3.7
	c0-0.3-0.1-0.3-0.2-0.4c-0.3-0.3-1-0.6-0.9-0.8c0.2-0.9,0.4-2.3,1.1-2.6c0.9-0.4,2.2-0.3,3.3,0c0.4,0.1,0.6,1.2,1,1.8
	c0.7,1-0.2,1.5-0.9,2.1h4.5c0.1-0.1,0.2-0.2,0.2-0.3C197.7,156.9,197.7,155.1,197.1,153.8z M191.8,152.8c0.5-1.4,1-2.7,1.6-4.3
	c0.6,1.6,1,2.9,1.5,4.3H191.8z"/>
<path d="M83.5,157.5h4.5c-1.4-0.5-1.7-1.6-2.1-2.8c-0.7-1.8-1.4-3.7-2.1-5.5c-0.4-1-0.8-2-1.3-3.4c-0.4,0.6-0.7,1-0.9,1.4
	c-0.9,2.2-1.8,4.4-2.7,6.5c-0.6,1.4-0.8,3.1-2.6,3.8H80c-0.4-0.5-1-1-1-1.4c0.1-2,0.8-2.5,2.8-2.5c0.4,0,0.8,0,1.2,0
	c0.2,0,0.6,0,0.6,0.2c0.4,0.9,0.8,1.8,0.9,2.7C84.6,156.7,83.9,157.1,83.5,157.5z M80.2,152.7c0.5-1.4,1-2.6,1.6-4.2
	c0.6,1.6,1,2.8,1.5,4.2H80.2z"/>
<path d="M211,154.2c-0.4,0.5-0.6,0.7-0.7,1c-1.8,3.1-5.6,2.2-7,0.1c-1.3-1.8-1.4-4.6-0.3-6.5c1-1.5,2.4-2.1,4.2-2.1
	c1.6,0.1,2.6,0.8,3.1,2.3c0.1,0.2,0.1,0.3,0.1,0.5c0.2-0.1,0.3-0.2,0.5-0.3c-0.1-0.8-0.2-1.7-0.3-2.5c0-0.1-0.3-0.3-0.5-0.3
	c-2.5-0.6-4.9-0.6-7.2,0.8c-2,1.3-2.9,3.2-2.6,5.5c0.3,2.2,1.5,4,3.7,4.6c1.5,0.4,3.1,0.4,4.7,0.3
	C210.4,157.6,211.1,156.5,211,154.2z"/>
<path d="M107.2,157.5c-2.1-1.1-2.1-1.1-2.1-3.2c0-0.5,0-1,0-1.6c0-1.9,0-3.7,0-5.5c2-0.5,3.4-0.1,3.9,2.2c0.1-0.1,0.2-0.2,0.4-0.3
	c-0.1-1-0.2-2-0.2-2.9c-3.3,0.4-6.5,0.4-9.8,0c0,1,0,2,0,3.1c0.6-0.8,0.9-1.7,1.6-2c0.7-0.3,1.6-0.1,2.5-0.2c0,2.5,0,4.8,0,7.1
	c0,1.4,0.5,3-1.7,3.4C103.4,157.5,105.1,157.5,107.2,157.5z"/>
<path d="M51.8,154.9c-0.2-0.1-0.3-0.2-0.5-0.3c0,0.2-0.1,0.3-0.1,0.5c-0.5,1.7-1.8,2.1-3.4,1.9c-1-0.1-1.5-0.4-1.4-1.5
	c0-1.9,0-3.8,0-5.7c0-1.3-0.5-2.8,1.4-3.3c-1.5,0-3.1,0-4.4,0c0.4,0.5,1.2,1,1.3,1.6c0.1,2.6,0.1,5.2,0,7.8c0,0.4-0.6,0.8-0.9,1.1
	c-0.2,0.2-0.4,0.2-0.8,0.3c0.2,0.1,0.3,0.2,0.4,0.2c2.4,0,4.9,0,7.3,0c0.2,0,0.6-0.2,0.6-0.4C51.5,156.5,51.6,155.7,51.8,154.9z"/>
<path d="M178.5,157.6c2.7,0,5.3,0,8.1,0c0.2-0.9,0.4-1.8,0.6-2.7c-0.1,0-0.2-0.1-0.3-0.1c-0.1,0.1-0.3,0.2-0.3,0.4
	c-0.6,1.7-1.9,1.9-3.4,1.8c-0.9-0.1-1.3-0.4-1.3-1.3c0-2.1,0-4.1,0-6.2c0-1.2-0.4-2.6,1.5-2.9c-1.6,0-3.1,0-4.8,0
	c1.7,1.1,1.7,1.1,1.7,3.1c0,1.6,0,3.3,0,4.9C180.1,156.5,180.1,156.5,178.5,157.6z"/>
<path d="M140.8,107.2c-1-4.1-4.4-7-8.7-7c-4.5,0-9.1,0-13.7,0c-1.5,0-1.8-0.4-1.5-2c-1.6,0.4-2.2,1.4-1.6,2.9c0.1,0.3,0.2,0.8,0,1.1
	c-0.6,1.5,0,2.6,1.6,3c-0.4-1.6-0.1-2,1.5-1.8v4.5h-5.1c0-4,0-7.9,0-11.8c0-1.9,0.7-2.3,2.4-1.7c0-2.3-2-3.1-4.3-1.8
	c-2.3-1.3-4.1-0.6-4.3,1.8c1.8-0.7,2.5-0.2,2.5,1.7c0,9.1,0,18.3,0,27.4c0,0.6-0.2,1.5-0.6,1.9c-0.3,0.3-1.2,0.1-1.8,0.1
	c0.3,2.2,2,2.9,4.4,1.7c1.4,0.8,2.2,0.9,3.1,0.3c0.8-0.5,1.3-1.1,1.2-2.2c-1.7,0.7-2.4,0.3-2.4-1.5c0-3,0-6.1,0-9.1v-2.8h5.1v3.5
	c-0.6-0.2-1.2-0.2-1.4-0.5c-0.2-0.4-0.2-1-0.2-1.5c-1.6,0.4-2.1,1.4-1.5,3c0.1,0.3,0,0.8-0.1,1.2c-0.5,1.4,0.2,2.5,1.7,2.7
	c-0.4-1.5,0-1.9,1.6-1.8v1.3c0,2.9,0,5.8,0,8.7c0,0.7-0.2,1.5-0.6,1.9c-0.3,0.3-1.2,0.1-1.8,0.1c0.2,1.9,1.7,2.9,3.5,2.1
	c0.6-0.2,1.1-0.3,1.7,0c1.7,0.8,3.5-0.5,3.4-2.3c-1.6,0.9-2.4,0.4-2.4-1.4c0-1.5,0-3,0-4.4v-6h5c0,1.8,0.1,3.6,0,5.3
	c0,0.6-0.2,1.4-0.6,1.8c-0.4,0.3-1.2,0.1-1.8,0.1c0.2,2.2,2,3,4.3,1.7c2.3,1.3,4.3,0.5,4.3-1.8c-1.4,0.6-2.3,0.3-2.3-0.8
	c-0.1-2,0-4.1,0-6.2c0.6,0,1,0,1.4-0.1c3.9-0.3,6.8-2.6,8-6c0.3-1,0.8-2,1.2-3.1C141.5,108.6,141,107.9,140.8,107.2z M138,109.8
	c-0.1,2.8-2.4,5.1-5.2,5.3c-0.5,0-1,0-1.6,0v-10.5h-3.8v3.3h-3.6v3.8h3.5v3.5h-4.8v-11.8c3.7,0,7.3-0.2,10.8,0.1
	C136.2,103.6,138.1,106.4,138,109.8z"/>
<path d="M65,143.8c-2.1,0.3-1.8,1.9-1.8,3.2c0,0.9,0,1.7,0,2.7c2.6,0,5.1,0,7.8,0c0-1.5,0-3.1,0-4.6c0-0.3-0.5-0.7-0.8-0.9
	c-0.3-0.2-0.6-0.2-0.9-0.5c1.8,0,3.7,0,5.5,0c0,0.1,0,0.2-0.1,0.2c-1.8,0.7-1.8,0.7-1.8,2.6c0,2.6,0,5.1,0,7.7c0,2.3,0,2.3,2.1,3.3
	c-2.1,0-4,0-6.1,0c2.1-1,2.1-1,2.1-3.4c0-1,0-2.1,0-3.1c0-0.1-0.1-0.1-0.1-0.3c-2.5,0-5,0-7.6,0c0,1.8-0.1,3.6,0.1,5.4
	c0.1,0.6,1.1,1,1.6,1.4c-1.7,0-3.5,0-5.5,0c2-1,2-1,2-3.3c0-2.4,0-4.9,0-7.3c0-2.2,0-2.2-2.2-3.2C61.4,143.8,63.2,143.8,65,143.8z"
	/>
<path d="M163.5,143.8c-2.4-0.2-4.8,0-7.5,0c1.8,0.9,1.8,0.9,1.8,3c0,2.7,0,5.3,0,8c0,1.9,0,1.9-1.8,2.5c0,0,0,0.1,0,0.2h5.6
	c-0.6-0.4-1.7-0.8-1.8-1.4c-0.3-1.4-0.1-3-0.1-4.4c1,0.1,2,0.3,2.8,0.2c2.4-0.2,4-1.9,4.1-4C166.8,145.6,165.7,144,163.5,143.8z
	 M161,151.2c-1,0.1-1.4-0.3-1.3-1.6c0.1-1.4,0-2.8,0-4.2c0-0.9,0.4-1.3,1.3-1.3c2.2-0.1,3.6,1.2,3.7,3.4
	C164.7,149.9,163.4,151.3,161,151.2z"/>
<path d="M38.7,152.1c-1-2.4-1.8-4.8-2.7-7.2c-0.2-0.4-0.5-0.7-0.7-1.1c-0.3,0.4-0.7,0.7-0.9,1.1c-1.4,3.3-2.8,6.7-4.1,10
	c-0.4,1-0.9,1.9-2.1,2.1c-0.1,0-0.2,0.3-0.3,0.5h4.7c0-0.1,0-0.2,0.1-0.3c-0.3-0.1-0.6-0.1-0.9-0.3c-0.3-0.2-0.7-0.5-0.7-0.7
	c0.3-1.1,0.5-2.3,1.1-3.2c0.2-0.3,1.2-0.2,1.9-0.2c2.7,0,2.7,0,3.6,2.5c0.3,0.8,0.5,1.6-0.7,1.7c-0.1,0-0.2,0.3-0.3,0.6H42
	c0.1-0.1,0.1-0.2,0.2-0.3C39.5,156.5,39.6,154,38.7,152.1z M32.6,151.7c0.6-1.7,1.2-3.2,2-5.1c0.7,1.9,1.2,3.4,1.8,5.1H32.6z"/>
<path d="M130.5,146.1c-3.5,0-6.1,2.6-6.1,6c0,3.3,2.6,5.8,6,5.8c3.5,0,6.1-2.6,6-6.1C136.4,148.6,133.9,146.1,130.5,146.1z
	 M134.1,154.7c-1,2.7-4.1,3.4-6.2,1.3c-1-1-1.6-2.6-1.6-4.4c0.1-0.6,0.1-1.3,0.3-1.9c0.5-1.7,1.7-2.8,3.2-2.9c1.7-0.1,3.2,0.7,4,2.3
	C134.6,151,134.8,152.8,134.1,154.7z"/>
<path d="M144,152.4c0.3-0.2,0.4-0.3,0.5-0.4c1.5-1,2.1-2.2,1.6-3.6c-0.4-1.2-1.5-1.9-3.2-2c-1.5,0-3,0-4.4,0c-0.2,0-0.5,0.1-0.7,0.2
	c1.5,0.4,1.5,1.4,1.5,2.5c-0.1,1.8,0,3.5,0,5.2c0,1.3,0.5,2.8-1.9,2.9c0.1,0.1,0.2,0.2,0.3,0.3h4.8c-1.7-1.1-2.1-2.3-1.5-4.7
	c1-0.2,1.6,0.2,2.1,1c0.5,0.9,1.1,1.8,1.7,2.6c0.8,1.1,2,1.5,3.2,1.2C146.7,155.9,145.4,154.1,144,152.4z M142.6,152.1
	c-0.5,0.1-0.9,0.1-1.6,0.1c0-1.6,0-3.1,0-4.6c0-0.2,0.5-0.5,0.8-0.5c1.4-0.2,2.5,0.7,2.7,2.1C144.8,150.6,144,151.8,142.6,152.1z"/>
<path d="M98.1,153.9c-0.1-1.1-0.9-1.7-1.9-2.1c-0.3-0.1-0.6-0.2-0.9-0.3c1.9-1.2,2.4-2,2-3.3c-0.3-1.3-1.4-1.9-3.5-1.9
	c-1.4,0-2.7,0-4.1,0c-0.2,0-0.5,0.1-0.7,0.2c-0.1,0.1-0.2,0.2-0.3,0.3c2-0.1,1.7,1.1,1.7,2.2c0,1.9,0,3.8,0,5.7c0,1.2,0,2.2-1.5,2.5
	c0,0,0,0.1,0,0.4c2-0.1,4-0.1,6-0.3c0.6,0,1.2-0.4,1.8-0.7C97.8,156.1,98.3,155.1,98.1,153.9z M92.2,147.8c0-0.3,0.5-0.7,0.9-0.7
	c1.2-0.2,2.3,0.5,2.5,1.8c0.2,1.3-0.4,2.2-1.8,2.5c-0.5,0.1-1,0.1-1.7,0.1C92.2,150.1,92.2,148.9,92.2,147.8z M96.1,155.4
	c-0.4,1.1-2,2-3.1,1.5c-0.3-0.2-0.7-0.7-0.7-1.1c-0.1-1.2,0-2.5,0-3.9c0.9,0.1,1.6,0.1,2.3,0.3C95.9,152.5,96.6,153.9,96.1,155.4z"
	/>
<path d="M116.6,146.1c-3.5,0-6.2,2.5-6.2,5.9c-0.1,3.3,2.6,5.8,6,5.9c3.5,0,6.1-2.5,6.2-6C122.5,148.7,120,146.2,116.6,146.1z
	 M120.6,152.3c-0.1,0.8-0.2,1.6-0.5,2.3c-1,2.8-4.2,3.4-6.2,1.3c-1.7-1.8-2-5.3-0.8-7.4c1.5-2.4,4.8-2.4,6.3,0
	c0.7,1.1,0.9,2.4,1.3,3.6C120.7,152.3,120.6,152.3,120.6,152.3z"/>
<path d="M220,149c-0.1-0.3-0.3-0.5-0.4-0.8c-0.3-0.8-0.8-1.1-1.6-1.2c-2.6-0.2-2.6-0.2-2.6,2.4c0,0.6,0,1.2,0,1.8
	c2.1,0.5,2.9,0.3,3.9-1.3c0,1.3,0,2.4,0,3.5c-0.8-2-2.4-1.2-3.8-1.3c0,1.4,0,2.6,0,3.9c0,0.3,0.3,0.6,0.5,0.7c1.3,0.7,3.7,0,4.4-1.4
	c0.1-0.2,0.3-0.5,0.5-0.7c0.1,0,0.2,0.1,0.3,0.1c-0.2,0.8-0.3,1.6-0.5,2.4c0,0.1-0.3,0.3-0.4,0.3c-2.7,0-5.5,0-8.2,0
	c0-0.2,0-0.4,0-0.4c1.6-0.2,1.7-1.3,1.7-2.6c-0.1-1.8,0-3.6,0-5.4c0-1.1,0.3-2.5-1.8-2.5c0.1-0.1,0.2-0.2,0.3-0.3c2.6,0,5.2,0,7.9,0
	c0,0.8,0,1.6,0,2.4C220.2,149,220.1,149,220,149z"/>
<path d="M124.9,94.3c0.2-2.3,2-3.1,4.3-1.8c2.3-1.3,4.3-0.5,4.3,1.8c-1.7-0.7-2.4-0.2-2.4,1.7c0,1,0,1.9,0,3c-1.3,0-2.5,0-3.8,0
	c0-1,0-1.9,0-2.9C127.3,94.1,126.7,93.7,124.9,94.3z"/>
<path d="M175.2,154.3c-0.9-2.2-1.7-4.4-2.5-6.6c-0.2-0.5-0.4-1.1-0.7-1.9c-0.4,0.6-0.7,0.9-0.8,1.3c-0.9,2.2-1.8,4.4-2.7,6.5
	c-0.6,1.4-0.8,3.2-2.6,3.9h3.6c-0.3-0.5-1-1-0.9-1.4c0.3-2.2,0.7-2.5,2.9-2.5h1.7c0.4,1.1,0.8,2.1,1.1,3c-0.5,0.3-0.8,0.5-1.2,0.7
	c0,0.1,0,0.1,0.1,0.2h4.3c0.1-0.1,0.2-0.2,0.2-0.3C175.7,157.1,175.6,155.5,175.2,154.3z M169.7,152.8c0.5-1.4,1-2.7,1.6-4.3
	c0.6,1.6,1,2.9,1.5,4.3H169.7z"/>
<path d="M197.1,153.8c-1-2.5-1.9-5-2.9-7.5c-0.1,0-0.2-0.1-0.4-0.1c-0.2,0.4-0.5,0.8-0.7,1.1c-1.8,3.4-2.1,7.5-5.2,10.3h3.7
	c0-0.3-0.1-0.3-0.2-0.4c-0.3-0.3-1-0.6-0.9-0.8c0.2-0.9,0.4-2.3,1.1-2.6c0.9-0.4,2.2-0.3,3.3,0c0.4,0.1,0.6,1.2,1,1.8
	c0.7,1-0.2,1.5-0.9,2.1h4.5c0.1-0.1,0.2-0.2,0.2-0.3C197.7,156.9,197.7,155.1,197.1,153.8z M191.8,152.8c0.5-1.4,1-2.7,1.6-4.3
	c0.6,1.6,1,2.9,1.5,4.3H191.8z"/>
<path d="M83.5,157.5h4.5c-1.4-0.5-1.7-1.6-2.1-2.8c-0.7-1.8-1.4-3.7-2.1-5.5c-0.4-1-0.8-2-1.3-3.4c-0.4,0.6-0.7,1-0.9,1.4
	c-0.9,2.2-1.8,4.4-2.7,6.5c-0.6,1.4-0.8,3.1-2.6,3.8H80c-0.4-0.5-1-1-1-1.4c0.1-2,0.8-2.5,2.8-2.5c0.4,0,0.8,0,1.2,0
	c0.2,0,0.6,0,0.6,0.2c0.4,0.9,0.8,1.8,0.9,2.7C84.6,156.7,83.9,157.1,83.5,157.5z M80.2,152.7c0.5-1.4,1-2.6,1.6-4.2
	c0.6,1.6,1,2.8,1.5,4.2H80.2z"/>
<path d="M211,154.2c0.1,2.3-0.6,3.3-2.3,3.4c-1.6,0.1-3.2,0.1-4.7-0.3c-2.2-0.6-3.4-2.3-3.7-4.6c-0.3-2.3,0.6-4.2,2.6-5.5
	c2.2-1.4,4.7-1.4,7.2-0.8c0.2,0,0.4,0.2,0.5,0.3c0.1,0.8,0.2,1.7,0.3,2.5c-0.2,0.1-0.3,0.2-0.5,0.3c0-0.2,0-0.3-0.1-0.5
	c-0.5-1.5-1.5-2.2-3.1-2.3c-1.8-0.1-3.2,0.5-4.2,2.1c-1.2,1.9-1,4.6,0.3,6.5c1.4,2,5.2,3,7-0.1C210.4,154.9,210.6,154.7,211,154.2z"
	/>
<path d="M107.2,157.5c-2,0-3.7,0-5.4,0c2.1-0.4,1.7-2,1.7-3.4c0-2.3,0-4.6,0-7.1c-0.9,0-1.9-0.1-2.5,0.2c-0.6,0.3-1,1.2-1.6,2
	c0-1.1,0-2.1,0-3.1c3.3,0.4,6.5,0.4,9.8,0c0.1,0.9,0.1,1.9,0.2,2.9c-0.1,0.1-0.2,0.2-0.4,0.3c-0.5-2.3-1.9-2.6-3.9-2.2
	c0,1.8,0,3.7,0,5.5c0,0.5,0,1,0,1.6C105.1,156.5,105.1,156.5,107.2,157.5z"/>
<path d="M51.8,154.9c-0.2,0.8-0.3,1.6-0.5,2.4c-0.1,0.2-0.4,0.4-0.6,0.4c-2.4,0-4.9,0-7.3,0c-0.1,0-0.2-0.1-0.4-0.2
	c0.3-0.1,0.6-0.2,0.8-0.3c0.4-0.3,0.9-0.7,0.9-1.1c0.1-2.6,0.1-5.2,0-7.8c0-0.6-0.8-1.1-1.3-1.6c1.4,0,2.9,0,4.4,0
	c-1.9,0.5-1.4,2-1.4,3.3c0,1.9,0,3.8,0,5.7c0,1,0.4,1.4,1.4,1.5c1.6,0.1,2.9-0.2,3.4-1.9c0-0.2,0.1-0.3,0.1-0.5
	C51.4,154.7,51.6,154.8,51.8,154.9z"/>
<path d="M178.5,157.6c1.6-1,1.6-1,1.6-3.1c0-1.6,0-3.3,0-4.9c0-2,0-2-1.7-3.1c1.7,0,3.2,0,4.8,0c-1.8,0.4-1.5,1.8-1.5,2.9
	c0,2.1,0,4.1,0,6.2c0,0.9,0.4,1.2,1.3,1.3c1.6,0.1,2.9-0.1,3.4-1.8c0.1-0.2,0.2-0.3,0.3-0.4c0.1,0,0.2,0.1,0.3,0.1
	c-0.2,0.9-0.4,1.8-0.6,2.7C183.8,157.6,181.2,157.6,178.5,157.6z"/>
</svg>
