<?xml version="1.0" encoding="UTF-8" standalone="no"?>
<!DOCTYPE svg PUBLIC "-//W3C//DTD SVG 1.1//EN" "http://www.w3.org/Graphics/SVG/1.1/DTD/svg11.dtd">
<svg width="100%" height="100%" viewBox="0 0 2484 709" version="1.1" xmlns="http://www.w3.org/2000/svg" xmlns:xlink="http://www.w3.org/1999/xlink" xml:space="preserve" xmlns:serif="http://www.serif.com/" style="fill-rule:evenodd;clip-rule:evenodd;stroke-linejoin:round;stroke-miterlimit:2;">
    <g transform="matrix(4.16667,0,0,4.16667,0,0)">
        <path d="M577.45,52.412L577.45,91.408L593.12,91.408L593.12,48.778C593.12,34.61 583.592,25.331 569.551,25.331C560.395,25.331 552.999,29.719 548.734,36.366L548.734,26.334L532.937,26.334L532.937,91.408L548.734,91.408L548.734,62.821C548.734,48.152 554.628,39.373 564.909,39.373C572.559,39.373 577.45,44.767 577.45,52.412ZM491.813,38.999C501.845,38.999 508.991,47.021 508.991,58.808C508.991,70.594 501.968,78.743 491.813,78.743C481.406,78.743 474.759,70.594 474.759,58.808C474.759,47.148 481.406,38.999 491.813,38.999ZM491.813,92.414C510.996,92.414 525.038,78.244 525.038,58.808C525.038,39.498 510.996,25.33 491.813,25.33C472.504,25.33 458.586,39.498 458.586,58.808C458.586,78.244 472.504,92.414 491.813,92.414ZM454.323,71.847C454.323,58.559 445.799,54.294 434.764,52.039L424.606,49.907C420.345,49.026 417.587,47.148 417.587,44.013C417.587,40.252 421.221,37.997 426.239,37.997C431.502,37.997 436.897,40.751 437.65,46.018L453.071,46.018C451.442,33.107 440.409,25.33 426.239,25.33C411.189,25.33 401.912,33.855 401.912,44.013C401.912,56.803 411.068,61.694 421.099,63.822L431.253,65.954C435.64,66.835 438.276,68.839 438.276,72.224C438.276,76.234 433.884,78.998 427.619,78.998C419.842,78.998 414.701,73.73 414.326,68.839L398.904,68.839C399.53,82.759 410.814,92.414 427.619,92.414C443.666,92.414 454.323,83.131 454.323,71.847ZM359.91,78.743C349.503,78.743 342.607,70.722 342.607,58.808C342.607,46.898 349.503,38.999 359.91,38.999C370.319,38.999 377.215,46.898 377.215,58.808C377.215,70.844 370.319,78.743 359.91,78.743ZM376.212,33.731C372.451,28.714 365.427,25.33 357.401,25.33C338.346,25.33 326.559,38.999 326.559,58.808C326.559,78.621 338.219,92.414 357.655,92.414C366.054,92.414 373.204,88.648 376.212,83.761L376.212,91.406L392.011,91.406L392.011,0.003L376.212,0.003L376.212,33.731ZM302.739,54.921C302.739,69.59 296.845,78.369 286.565,78.369C278.915,78.369 274.024,72.975 274.024,65.33L274.024,26.334L258.353,26.334L258.353,68.964C258.353,83.132 267.881,92.411 281.923,92.411C291.078,92.411 298.474,88.023 302.739,81.376L302.739,91.408L318.537,91.408L318.537,26.334L302.739,26.334L302.739,54.921ZM230.518,36.994L190.143,36.994L190.143,1.006L173.342,1.006L173.342,91.41L190.143,91.41L190.143,51.661L230.518,51.661L230.518,91.41L247.318,91.41L247.318,1.006L230.518,1.006L230.518,36.994ZM459.731,152.741L453.901,137.225L447.518,137.225L456.836,160.314L456.746,160.499C456.074,162.178 455.375,163.349 454.659,164.011C453.937,164.67 452.953,164.996 451.696,164.996C450.807,164.996 449.953,164.841 449.128,164.538L449.128,169.497C450.135,169.833 451.238,170 452.431,170C454.94,170 456.914,169.324 458.351,167.981C459.79,166.633 460.925,164.86 461.75,162.655L471.572,137.225L465.742,137.225L459.731,152.741ZM434.39,155.632L428.333,155.632L428.333,146.178L434.39,146.178C436.472,146.178 438.024,146.581 439.049,147.394C440.075,148.205 440.588,149.39 440.588,150.95C440.588,154.072 438.523,155.632 434.39,155.632ZM428.333,132.956L433.977,132.956C435.661,132.956 436.931,133.301 437.789,133.991C438.646,134.676 439.072,135.666 439.072,136.949C439.072,138.206 438.65,139.176 437.811,139.867C436.967,140.552 435.724,140.896 434.068,140.896L428.333,140.896L428.333,132.956ZM441.232,142.966C442.426,142.38 443.396,141.518 444.144,140.37C444.893,139.222 445.269,137.916 445.269,136.446C445.269,133.723 444.331,131.627 442.448,130.158C440.565,128.688 438.046,127.952 434.894,127.952L422.18,127.952L422.18,161.049L435.356,161.049C438.873,161.049 441.668,160.202 443.731,158.499C445.796,156.803 446.83,154.376 446.83,151.227C446.83,149.208 446.327,147.485 445.315,146.06C444.304,144.64 442.942,143.605 441.232,142.966ZM522.302,137.767L516.375,137.767C514.145,143.584 512.425,149.132 511.168,153.705C509.907,149.132 508.187,143.584 505.955,137.767L500.03,137.767C502.965,144.759 506.287,153.633 508.242,160.937L508.264,161.002L514.067,161.002L514.09,160.937C516.044,153.633 519.366,144.759 522.302,137.767ZM482.497,148.544C484.148,143.744 486.271,138.386 488.291,134.666C490.31,138.386 492.438,143.744 494.084,148.544L482.497,148.544ZM485.336,127.951C478.549,140.74 474.389,154.311 472.605,161.003L478.89,161.003C479.293,159.139 480.219,155.699 480.895,153.49L495.686,153.49C496.361,155.699 497.292,159.139 497.695,161.003L503.979,161.003C502.192,154.311 498.035,140.74 491.244,127.951L485.336,127.951ZM533.738,156.459C530.022,156.459 527.649,153.551 527.649,149.341C527.649,145.175 530.022,142.267 533.738,142.267C537.317,142.267 539.872,145.131 539.872,149.341C539.872,153.551 537.363,156.459 533.738,156.459ZM533.738,137.386C526.843,137.386 521.875,142.444 521.875,149.341C521.875,156.278 526.843,161.341 533.738,161.341C540.589,161.341 545.602,156.278 545.602,149.341C545.602,142.444 540.589,137.386 533.738,137.386ZM565.685,138.068L565.685,130.895L560.045,130.895L560.045,138.046C557.519,137.941 556.103,137.746 556.103,137.746L556.103,142.27C556.103,142.27 557.519,142.465 560.045,142.565L560.045,153.639C560.045,158.834 563.449,161.339 568.235,161.339C569.492,161.339 570.567,161.161 571.102,161.025L571.102,156.148C570.653,156.28 569.76,156.46 568.906,156.46C567.028,156.46 565.685,155.25 565.685,153.058L565.685,142.587C567.323,142.542 569.134,142.441 571.102,142.27L571.102,137.746C569.134,137.919 567.323,138.019 565.685,138.068ZM588.099,150.95C588.099,154.444 585.993,157.04 582.37,157.04C580.309,157.04 578.966,155.923 578.966,154.353C578.966,152.652 580.082,151.576 582.37,151.218L588.099,150.278L588.099,150.95ZM595.041,156.458C594.101,156.458 593.607,155.877 593.607,154.576L593.607,146.382C593.607,140.874 589.71,137.381 583.575,137.381C577.755,137.381 573.994,140.515 573.458,145.488L573.367,146.313C574.529,146.073 576.303,145.76 578.527,145.528C578.654,145.514 578.784,145.502 578.921,145.488C579.098,143.115 581.026,141.772 583.575,141.772C586.307,141.772 587.964,143.201 587.964,144.907C587.964,145.938 587.336,146.564 586.084,146.74L581.425,147.366C576.275,148.037 573.322,150.547 573.322,154.62C573.322,158.518 576.725,161.341 581.425,161.341C584.873,161.341 587.695,159.998 588.725,157.937C588.993,160.128 590.74,161.25 593.112,161.25C594.46,161.25 595.802,160.982 595.802,160.982L595.802,156.368C595.802,156.368 595.353,156.458 595.041,156.458ZM548.242,160.983L553.882,160.983L553.882,127.953L548.242,127.953L548.242,160.983ZM17.013,47.479C17.013,38.758 21.178,14.654 46.925,3.815L22.235,3.815C22.235,3.815 0,18.456 0,47.479C0,76.501 22.235,91.142 22.235,91.142L46.925,91.142C21.178,80.303 17.013,56.199 17.013,47.479ZM70.968,91.146L90.917,91.146L90.917,3.813L70.968,3.813L70.968,91.146ZM68.945,3.813L49.032,3.813L49.032,3.822C40.139,15.219 34.599,31.362 34.599,47.482C34.591,63.602 40.135,79.749 49.032,91.146L68.945,91.146C63.191,85.756 59.553,77.957 57.258,70.434C52.702,55.489 52.702,39.46 57.258,24.525C59.553,16.997 63.191,9.203 68.945,3.813ZM139.648,3.815L114.957,3.815C140.704,14.654 144.87,38.758 144.87,47.479C144.87,56.199 140.704,80.303 114.957,91.142L139.648,91.142C139.648,91.142 161.883,76.501 161.883,47.479C161.883,18.456 139.648,3.815 139.648,3.815ZM112.851,3.822L112.851,3.813L92.937,3.813C98.691,9.203 102.33,16.997 104.625,24.525C109.181,39.46 109.181,55.489 104.625,70.434C102.33,77.957 98.691,85.756 92.937,91.146L112.851,91.146C121.748,79.749 127.292,63.602 127.283,47.482C127.283,31.362 121.744,15.219 112.851,3.822Z" style="fill:rgb(45,87,158);fill-rule:nonzero;"/>
    </g>
</svg>
