<?xml version="1.0" encoding="UTF-8"?>
<!DOCTYPE svg PUBLIC "-//W3C//DTD SVG 1.1//EN" "http://www.w3.org/Graphics/SVG/1.1/DTD/svg11.dtd">
<svg xmlns="http://www.w3.org/2000/svg" version="1.1" width="687px" height="1012px" style="shape-rendering:geometricPrecision; text-rendering:geometricPrecision; image-rendering:optimizeQuality; fill-rule:evenodd; clip-rule:evenodd" xmlns:xlink="http://www.w3.org/1999/xlink">
<g><path style="opacity:0.987" fill="#000000" d="M 448.5,46.5 C 505.405,46.169 562.238,46.5024 619,47.5C 619.667,73.8333 619.667,100.167 619,126.5C 600.167,145.333 581.333,164.167 562.5,183C 581.407,183.173 600.24,183.673 619,184.5C 619.828,210.739 619.661,236.906 618.5,263C 561.596,263.831 504.763,263.664 448,262.5C 447.333,236.5 447.333,210.5 448,184.5C 466.471,165.028 485.305,145.862 504.5,127C 485.593,126.827 466.76,126.327 448,125.5C 447.177,99.0945 447.343,72.7612 448.5,46.5 Z"/></g>
<g><path style="opacity:0.984" fill="#000000" d="M 73.5,47.5 C 106.073,47.1709 138.573,47.5042 171,48.5C 171.831,120.07 171.665,191.57 170.5,263C 137.928,263.829 105.428,263.662 73,262.5C 72.1703,190.763 72.3369,119.096 73.5,47.5 Z"/></g>
<g><path style="opacity:0.994" fill="#000000" d="M 73.5,467.5 C 160.071,467.168 246.571,467.502 333,468.5C 333.333,571.167 333.667,673.833 334,776.5C 337.737,786.117 344.237,788.617 353.5,784C 355.894,782.048 357.394,779.548 358,776.5C 358.333,673.833 358.667,571.167 359,468.5C 445.43,467.335 531.93,467.168 618.5,468C 619.665,554.097 619.832,640.263 619,726.5C 609.523,818.873 566.023,890.04 488.5,940C 411.929,983.789 331.929,991.122 248.5,962C 159.631,925.459 103.131,860.626 79,767.5C 75.9739,753.984 73.9739,740.318 73,726.5C 72.1697,640.097 72.3363,553.763 73.5,467.5 Z"/></g>
<g><path style="opacity:1" fill="#fafafa" d="M 402.5,499.5 C 405.777,499.216 408.943,499.549 412,500.5C 412.719,504.145 413.219,507.812 413.5,511.5C 430.028,509.899 435.528,516.899 430,532.5C 428.457,534.378 426.624,535.878 424.5,537C 419.575,537.069 414.741,537.236 410,537.5C 409,536.833 408,536.167 407,535.5C 406.832,525.483 406.332,515.483 405.5,505.5C 403.077,504.288 402.077,502.288 402.5,499.5 Z"/></g>
<g><path style="opacity:1" fill="#f8f8f8" d="M 513.5,533.5 C 511.307,532.203 508.973,532.203 506.5,533.5C 508.743,534.474 511.076,534.808 513.5,534.5C 517.229,535.013 520.896,535.846 524.5,537C 530.223,543.134 529.223,548.134 521.5,552C 514.03,553.787 507.53,552.287 502,547.5C 501.62,542.653 501.12,537.82 500.5,533C 501.861,528.625 502.694,524.125 503,519.5C 503.45,517.481 504.283,515.648 505.5,514C 512.337,512.285 519.003,510.618 525.5,509C 527.784,510.363 527.951,511.863 526,513.5C 527.774,520.177 526.274,526.01 521.5,531C 518.978,532.341 516.311,533.174 513.5,533.5 Z"/></g>
<g><path style="opacity:1" fill="#f6f6f6" d="M 445.5,511.5 C 446.126,517.268 446.793,522.934 447.5,528.5C 450.194,532.439 453.028,532.439 456,528.5C 458.295,525.168 458.961,521.501 458,517.5C 454.925,516.531 453.925,514.531 455,511.5C 458.565,509.947 461.899,510.28 465,512.5C 465.5,518.825 465.666,525.158 465.5,531.5C 466.5,531.5 467.5,531.5 468.5,531.5C 469.833,533.5 469.833,535.5 468.5,537.5C 464.575,537.888 460.908,537.221 457.5,535.5C 451.553,537.668 446.386,536.668 442,532.5C 440.268,527.65 439.268,522.65 439,517.5C 435.651,516.259 434.818,514.092 436.5,511C 439.696,510.195 442.696,510.362 445.5,511.5 Z"/></g>
<g><path style="opacity:1" fill="#f6f6f6" d="M 474.5,510.5 C 480.84,510.849 487.173,511.349 493.5,512C 497.075,513.8 498.075,516.467 496.5,520C 495.5,520.667 494.5,520.667 493.5,520C 489.99,516.418 487.157,516.918 485,521.5C 484.333,524.5 484.333,527.5 485,530.5C 489.104,531.823 489.938,533.989 487.5,537C 482.913,537.799 478.413,537.632 474,536.5C 472.895,532.93 474.229,530.93 478,530.5C 478.667,526.167 478.667,521.833 478,517.5C 474.106,516.379 472.939,514.046 474.5,510.5 Z"/></g>
<g><path style="opacity:1" fill="#f8f8f8" d="M 539.5,511.5 C 547.904,510.03 553.571,513.197 556.5,521C 556.385,522.895 555.718,524.562 554.5,526C 549.177,526.499 543.844,526.666 538.5,526.5C 538.137,528.911 539.137,530.411 541.5,531C 546.172,530.842 550.839,530.342 555.5,529.5C 555.57,533.601 553.57,536.101 549.5,537C 536.281,538.448 530.448,532.614 532,519.5C 533.396,515.639 535.896,512.972 539.5,511.5 Z"/></g>
<g><path style="opacity:1" fill="#f8f8f8" d="M 561.5,510.5 C 567.502,510.909 573.502,511.409 579.5,512C 582.821,513.812 584.155,516.645 583.5,520.5C 580.194,519.318 576.86,518.485 573.5,518C 573,518.5 572.5,519 572,519.5C 570.661,524.85 571.661,529.517 575,533.5C 575.507,534.996 575.007,536.163 573.5,537C 569.179,537.499 564.846,537.666 560.5,537.5C 559.789,534.136 560.956,531.803 564,530.5C 564.667,526.167 564.667,521.833 564,517.5C 560.564,516.086 559.73,513.753 561.5,510.5 Z"/></g>
<g><path style="opacity:1" fill="#626262" d="M 445.5,511.5 C 447.45,516.735 448.117,522.402 447.5,528.5C 446.793,522.934 446.126,517.268 445.5,511.5 Z"/></g>
<g><path style="opacity:1" fill="#151515" d="M 416.5,517.5 C 426.88,517.47 429.213,521.803 423.5,530.5C 413.951,532.773 410.784,529.107 414,519.5C 414.995,518.934 415.828,518.267 416.5,517.5 Z"/></g>
<g><path style="opacity:1" fill="#262626" d="M 547.5,518.5 C 545.393,519.468 543.059,519.802 540.5,519.5C 541.152,518.275 542.319,517.608 544,517.5C 545.385,517.514 546.551,517.848 547.5,518.5 Z"/></g>
<g><path style="opacity:1" fill="#181818" d="M 511.5,517.5 C 518.203,516.53 520.536,519.197 518.5,525.5C 515.634,526.795 512.801,526.795 510,525.5C 507.899,522.312 508.399,519.645 511.5,517.5 Z"/></g>
<g><path style="opacity:1" fill="#6b6b6b" d="M 547.5,518.5 C 548.043,518.56 548.376,518.893 548.5,519.5C 545.691,520.8 543.024,520.8 540.5,519.5C 543.059,519.802 545.393,519.468 547.5,518.5 Z"/></g>
<g><path style="opacity:1" fill="#525252" d="M 468.5,531.5 C 469.693,531.97 470.36,532.97 470.5,534.5C 470.36,536.03 469.693,537.03 468.5,537.5C 469.833,535.5 469.833,533.5 468.5,531.5 Z"/></g>
<g><path style="opacity:1" fill="#606060" d="M 513.5,533.5 C 513.5,533.833 513.5,534.167 513.5,534.5C 511.076,534.808 508.743,534.474 506.5,533.5C 508.973,532.203 511.307,532.203 513.5,533.5 Z"/></g>
<g><path style="opacity:1" fill="#5f5f5f" d="M 520.5,542.5 C 516.774,542.177 513.107,542.511 509.5,543.5C 509.863,544.183 510.196,544.85 510.5,545.5C 507.827,545.316 507.16,544.149 508.5,542C 512.689,541.188 516.689,541.355 520.5,542.5 Z"/></g>
<g><path style="opacity:1" fill="#030303" d="M 520.5,542.5 C 521.692,543.566 521.359,544.399 519.5,545C 516.518,545.498 513.518,545.665 510.5,545.5C 510.196,544.85 509.863,544.183 509.5,543.5C 513.107,542.511 516.774,542.177 520.5,542.5 Z"/></g>
</svg>
