<?xml version="1.0" encoding="UTF-8"?>
<svg xmlns="http://www.w3.org/2000/svg" xmlns:xlink="http://www.w3.org/1999/xlink" width="566.4pt" height="567pt" viewBox="0 0 566.4 567" version="1.1">
<defs>
<clipPath id="clip1">
  <path d="M 0 0 L 566.398438 0 L 566.398438 567 L 0 567 Z M 0 0 "/>
</clipPath>
</defs>
<g id="surface1">
<g clip-path="url(#clip1)" clip-rule="nonzero">
<path style=" stroke:none;fill-rule:evenodd;fill:rgb(97.65625%,80.46875%,35.693359%);fill-opacity:1;" d="M 283.238281 -0.0195313 C 439.636719 -0.0195313 566.472656 126.917969 566.472656 283.445313 C 566.472656 439.972656 439.636719 566.910156 283.238281 566.910156 C 126.839844 566.910156 0.0078125 439.972656 0.0078125 283.445313 C 0.0078125 126.917969 126.839844 -0.0195313 283.238281 -0.0195313 Z M 283.238281 -0.0195313 "/>
</g>
<path style=" stroke:none;fill-rule:evenodd;fill:rgb(100%,100%,100%);fill-opacity:1;" d="M 283.238281 11.140625 C 433.476563 11.140625 555.3125 133.082031 555.3125 283.445313 C 555.3125 433.808594 433.476563 555.75 283.238281 555.75 C 133.003906 555.75 11.164063 433.808594 11.164063 283.445313 C 11.164063 133.082031 133.003906 11.140625 283.238281 11.140625 Z M 283.238281 11.140625 "/>
<path style=" stroke:none;fill-rule:evenodd;fill:rgb(12.547302%,19.604492%,35.301208%);fill-opacity:1;" d="M 283.238281 11.140625 C 433.351563 11.140625 555.109375 132.882813 555.308594 283.078125 L 471.8125 283.078125 C 471.8125 283.183594 471.816406 283.292969 471.816406 283.398438 C 471.816406 387.175781 387.554688 471.335938 283.652344 471.335938 C 179.746094 471.335938 95.488281 387.175781 95.488281 283.398438 C 95.488281 283.292969 95.492188 283.183594 95.492188 283.078125 L 11.167969 283.078125 C 11.371094 132.882813 133.121094 11.140625 283.238281 11.140625 Z M 412.929688 283.078125 L 350.203125 283.078125 C 350.753906 286.3125 350.644531 289.746094 350.414063 293.207031 C 349.554688 306.355469 334.863281 333.542969 326.785156 344.859375 C 334.882813 352.675781 342.335938 361.167969 348.730469 369.195313 C 355.632813 377.863281 362.160156 387.074219 368.113281 396.597656 C 386.050781 396.257813 406.949219 389.519531 418.695313 379.945313 L 418.910156 380.21875 C 433.722656 362.589844 443.164063 340.441406 445.753906 317.5625 C 437.902344 305.242188 429.617188 297.046875 412.929688 283.078125 Z M 215.878906 283.078125 L 152.628906 283.078125 C 135.492188 298.023438 128.628906 304.835938 120.914063 317.175781 C 124.378906 339.449219 133.632813 361.832031 148.039063 379.324219 C 162.421875 389.507813 180.941406 395.609375 198.636719 395.855469 C 201.558594 391.25 204.59375 386.726563 207.710938 382.3125 C 210.945313 377.730469 214.300781 373.226563 217.789063 368.839844 C 224.601563 360.292969 231.988281 351.984375 239.9375 344.273438 C 231.074219 331.289063 221.109375 312.371094 217.496094 297.769531 C 216.238281 292.691406 215.628906 288.011719 215.878906 283.078125 Z M 462.5625 320.941406 C 456.929688 347.824219 445.378906 372.539063 429.328125 393.660156 L 422.015625 384.226563 C 437.226563 366.457031 447.136719 344.175781 450.324219 321.003906 Z M 343.621094 455.890625 C 324.835938 462.410156 304.660156 465.960938 283.652344 465.960938 C 262.257813 465.960938 241.726563 462.277344 222.648438 455.527344 L 230.621094 444.730469 C 245.796875 450.929688 263.789063 453.855469 279.753906 454.347656 C 298.628906 454.929688 318.15625 452.292969 335.871094 445.386719 Z M 137.316406 392.796875 C 121.425781 371.628906 110.03125 346.902344 104.546875 320.03125 L 116.363281 320.085938 C 120.265625 342.820313 129.949219 365.445313 144.78125 383.167969 Z M 243.242188 347.976563 C 250.6875 351.730469 270.121094 351.222656 281.761719 351.328125 C 295.722656 351.460938 315.84375 351.652344 323.21875 348.304688 C 331.214844 356.015625 338.578125 364.410156 344.851563 372.289063 C 351.800781 381.011719 358.367188 390.304688 364.335938 399.914063 C 357.972656 417.113281 348.921875 430.421875 333.734375 440.894531 C 316.734375 447.460938 297.984375 449.949219 279.90625 449.390625 C 264.824219 448.925781 247.730469 446.207031 233.273438 440.453125 C 217.871094 429.972656 208.714844 416.632813 202.289063 399.355469 C 205.328125 394.523438 208.503906 389.785156 211.761719 385.171875 C 214.941406 380.667969 218.238281 376.242188 221.675781 371.929688 C 228.304688 363.605469 235.496094 355.503906 243.242188 347.976563 Z M 243.242188 347.976563 "/>
<path style=" stroke:none;fill-rule:evenodd;fill:rgb(97.65625%,80.46875%,35.693359%);fill-opacity:1;" d="M 180.070313 73.789063 C 186.863281 73.789063 192.371094 79.296875 192.371094 86.089844 C 192.371094 92.886719 186.863281 98.394531 180.070313 98.394531 C 173.277344 98.394531 167.765625 92.886719 167.765625 86.089844 C 167.765625 79.296875 173.277344 73.789063 180.070313 73.789063 Z M 180.070313 73.789063 "/>
<path style=" stroke:none;fill-rule:evenodd;fill:rgb(97.65625%,80.46875%,35.693359%);fill-opacity:1;" d="M 386.9375 75.046875 C 393.734375 75.046875 399.242188 80.554688 399.242188 87.351563 C 399.242188 94.144531 393.734375 99.65625 386.9375 99.65625 C 380.144531 99.65625 374.636719 94.144531 374.636719 87.351563 C 374.636719 80.554688 380.144531 75.046875 386.9375 75.046875 Z M 386.9375 75.046875 "/>
<path style=" stroke:none;fill-rule:evenodd;fill:rgb(100%,100%,100%);fill-opacity:1;" d="M 170.898438 251.769531 C 174.101563 251.769531 176.953125 247.710938 176.953125 244.507813 L 176.953125 193.898438 C 176.953125 191.921875 178.214844 191.5625 179.0625 193.039063 L 208.929688 245.171875 C 211.105469 248.972656 213.574219 251.335938 218.359375 251.460938 C 222.636719 251.570313 225.378906 249.695313 227.503906 246.207031 L 259.527344 193.59375 C 260.464844 192.046875 261.359375 192.402344 261.359375 194.417969 L 261.359375 244.507813 C 261.359375 247.714844 264.199219 251.769531 267.414063 251.769531 C 270.617188 251.769531 273.472656 247.710938 273.472656 244.507813 L 273.472656 183.386719 C 273.472656 176.636719 270.511719 167.21875 263.621094 166.804688 C 259.59375 166.5625 256.574219 167.589844 252.621094 174.351563 L 221.921875 226.886719 C 219.828125 230.457031 217.304688 229.460938 215.84375 226.914063 L 184.933594 173.054688 C 181.066406 166.316406 176.265625 165.628906 173.136719 166.78125 C 166.054688 169.390625 164.84375 177.769531 164.84375 184.222656 L 164.84375 244.507813 C 164.84375 247.71875 167.679688 251.769531 170.898438 251.769531 Z M 170.898438 251.769531 "/>
<path style=" stroke:none;fill-rule:evenodd;fill:rgb(100%,100%,100%);fill-opacity:1;" d="M 411.46875 252.59375 C 414.671875 252.59375 417.523438 248.535156 417.523438 245.332031 L 417.523438 222.742188 C 417.523438 220.648438 418.210938 219.636719 420.203125 219.636719 L 499.320313 219.636719 C 504.605469 219.636719 506.722656 215.417969 506.722656 210.316406 C 506.722656 205.195313 504.84375 201 499.527344 201 L 413.785156 201 C 409.230469 201 405.617188 202.882813 405.617188 208.074219 L 405.617188 245.332031 C 405.617188 248.535156 408.246094 252.59375 411.46875 252.59375 Z M 411.46875 252.59375 "/>
<path style=" stroke:none;fill-rule:evenodd;fill:rgb(100%,100%,100%);fill-opacity:1;" d="M 58.488281 251.769531 L 132.710938 251.769531 C 136.121094 251.769531 139.988281 250.328125 142.929688 247.664063 C 147.519531 243.511719 150.453125 236.382813 150.453125 227.105469 L 150.453125 221.371094 C 150.453125 214.164063 147.144531 211.5625 147.144531 209.371094 C 147.144531 206.335938 150.660156 203.976563 150.660156 195.097656 L 150.660156 192.226563 C 150.660156 184.996094 148.96875 178.347656 145.859375 173.722656 C 143.148438 169.695313 139.308594 167.203125 135.203125 167.203125 L 58.285156 167.203125 C 54.476563 167.203125 50.757813 168.65625 50.757813 173.347656 L 50.757813 244.507813 C 50.757813 250.558594 53.914063 251.769531 58.488281 251.769531 Z M 62.871094 233.132813 L 62.871094 218.90625 L 133.710938 218.90625 C 137.640625 218.90625 138.96875 222.242188 139.101563 225.507813 C 139.261719 229.46875 137.378906 233.132813 132.996094 233.132813 Z M 62.871094 199.445313 L 62.871094 185.839844 L 132.753906 185.839844 C 136.890625 185.839844 138.929688 188.292969 138.871094 192.328125 C 138.828125 195.574219 137.660156 199.445313 133.710938 199.445313 Z M 62.871094 199.445313 "/>
<path style=" stroke:none;fill-rule:evenodd;fill:rgb(100%,100%,100%);fill-opacity:1;" d="M 502.121094 167.617188 C 507.441406 167.617188 509.730469 171.808594 509.730469 176.933594 C 509.730469 182.035156 507.40625 186.253906 502.121094 186.253906 L 412.9375 186.253906 C 407.652344 186.253906 405.328125 182.035156 405.328125 176.933594 C 405.328125 171.808594 407.617188 167.617188 412.9375 167.617188 Z M 502.121094 167.617188 "/>
<path style=" stroke:none;fill-rule:evenodd;fill:rgb(100%,100%,100%);fill-opacity:1;" d="M 381.214844 167.203125 C 386.539063 167.203125 388.824219 171.394531 388.824219 176.519531 C 388.824219 181.621094 386.496094 185.839844 381.214844 185.839844 L 304.363281 185.839844 C 300.539063 185.839844 298.507813 189.261719 298.285156 192.679688 C 298.03125 196.550781 300.09375 200.683594 304.480469 200.683594 L 374.394531 200.683594 C 380.921875 200.683594 385.019531 204.078125 387.789063 208.433594 C 391.410156 214.125 392.460938 221.644531 392.347656 226.269531 C 392.203125 231.894531 391.230469 240.121094 386.992188 245.875 C 384.089844 249.8125 379.328125 252.59375 373.570313 252.59375 L 298.027344 252.59375 C 292.746094 252.59375 290.414063 248.378906 290.414063 243.277344 C 290.414063 238.152344 292.703125 233.960938 298.027344 233.960938 L 374.808594 233.960938 C 378.738281 233.960938 380.996094 230.300781 381.011719 226.640625 C 381.027344 222.980469 378.800781 219.320313 373.777344 219.320313 L 305.464844 219.320313 C 293.554688 219.320313 287.933594 208.550781 287.222656 194.421875 C 286.636719 182.71875 291.195313 167.203125 304.839844 167.203125 Z M 381.214844 167.203125 "/>
<path style=" stroke:none;fill-rule:evenodd;fill:rgb(12.547302%,19.604492%,35.301208%);fill-opacity:1;" d="M 76.347656 294.390625 L 77.667969 303.351563 C 78.390625 308.21875 77.722656 312 75.648438 314.667969 C 73.558594 317.335938 69.960938 319.050781 64.820313 319.808594 C 57.539063 320.882813 52.519531 318.828125 49.753906 313.609375 C 49.40625 319.769531 45.074219 323.457031 36.746094 324.683594 C 32.179688 325.359375 28.496094 324.800781 25.699219 322.992188 C 22.902344 321.195313 21.199219 318.292969 20.609375 314.277344 L 18.917969 302.871094 Z M 71.574219 302.835938 L 51.601563 305.785156 C 52.121094 308.691406 53.191406 310.695313 54.832031 311.804688 C 56.472656 312.914063 59.078125 313.199219 62.648438 312.671875 C 66.527344 312.097656 69.105469 311.125 70.382813 309.773438 C 71.660156 308.417969 72.058594 306.105469 71.574219 302.835938 Z M 45.878906 306.632813 L 25.859375 309.585938 C 26.367188 312.605469 27.347656 314.667969 28.816406 315.769531 C 30.285156 316.875 32.890625 317.15625 36.613281 316.609375 C 40.582031 316.023438 43.226563 314.964844 44.523438 313.433594 C 45.839844 311.90625 46.289063 309.632813 45.878906 306.632813 Z M 45.878906 306.632813 "/>
<path style=" stroke:none;fill-rule:evenodd;fill:rgb(12.547302%,19.604492%,35.301208%);fill-opacity:1;" d="M 29.394531 354.449219 L 24.019531 334.386719 L 80.089844 319.363281 L 82.09375 326.847656 L 32.320313 340.183594 L 35.6875 352.761719 Z M 29.394531 354.449219 "/>
<path style=" stroke:none;fill-rule:evenodd;fill:rgb(12.547302%,19.604492%,35.301208%);fill-opacity:1;" d="M 42.347656 388.660156 L 39.539063 381.738281 L 49.371094 375.453125 L 44.816406 364.230469 L 33.382813 366.582031 L 30.605469 359.746094 L 89.046875 349.386719 L 91.441406 355.269531 Z M 54.433594 372.289063 L 78.0625 357.300781 L 77.992188 357.128906 L 50.6875 363.058594 Z M 54.433594 372.289063 "/>
<path style=" stroke:none;fill-rule:evenodd;fill:rgb(12.547302%,19.604492%,35.301208%);fill-opacity:1;" d="M 57.832031 418.105469 L 54.839844 412.804688 L 82.347656 380.488281 L 82.257813 380.328125 L 47.558594 399.894531 L 44.152344 393.855469 L 94.714844 365.339844 L 97.746094 370.722656 L 70.238281 403.09375 L 70.324219 403.242188 L 105.046875 383.660156 L 108.390625 389.589844 Z M 57.832031 418.105469 "/>
<path style=" stroke:none;fill-rule:evenodd;fill:rgb(12.547302%,19.604492%,35.301208%);fill-opacity:1;" d="M 77.851563 444.238281 C 75.570313 443.070313 73.726563 441.554688 72.339844 439.710938 C 69.554688 436.015625 68.589844 431.738281 69.449219 426.855469 C 70.289063 421.984375 75.3125 416.105469 84.492188 409.1875 C 94.429688 401.699219 102.144531 397.984375 107.621094 398.089844 C 113.097656 398.199219 117.285156 400.164063 120.171875 403.992188 C 121.265625 405.441406 122.347656 407.398438 123.453125 409.875 L 117.777344 414.152344 C 117.289063 412.34375 116.585938 410.816406 115.671875 409.601563 C 113.859375 407.191406 111.078125 406.070313 107.328125 406.238281 C 103.589844 406.386719 98.09375 409.199219 90.839844 414.664063 C 86.515625 417.921875 83.273438 420.652344 81.117188 422.855469 C 78.960938 425.058594 77.660156 427.386719 77.234375 429.824219 C 76.796875 432.25 77.359375 434.484375 78.894531 436.523438 C 79.789063 437.714844 81.273438 438.90625 83.355469 440.09375 Z M 77.851563 444.238281 "/>
<path style=" stroke:none;fill-rule:evenodd;fill:rgb(12.547302%,19.604492%,35.301208%);fill-opacity:1;" d="M 120.15625 488.234375 L 114.824219 483.449219 L 137.492188 453.882813 L 137.351563 453.757813 L 106.710938 476.167969 L 103.128906 472.957031 L 122.398438 440.339844 L 122.238281 440.195313 L 95.171875 465.820313 L 89.820313 461.015625 L 132.777344 421.566406 L 137.730469 426.011719 L 116.53125 461.660156 L 116.664063 461.78125 L 149.941406 436.96875 L 154.894531 441.414063 Z M 120.15625 488.234375 "/>
<path style=" stroke:none;fill-rule:evenodd;fill:rgb(12.547302%,19.604492%,35.301208%);fill-opacity:1;" d="M 142.09375 502.921875 L 124.976563 491.15625 L 157.855469 443.316406 L 174.664063 454.875 L 170.90625 460.347656 L 160.402344 453.128906 L 149.996094 468.265625 L 159.730469 474.953125 L 155.984375 480.402344 L 146.253906 473.714844 L 134.925781 490.199219 L 145.734375 497.628906 Z M 142.09375 502.921875 "/>
<path style=" stroke:none;fill-rule:evenodd;fill:rgb(12.547302%,19.604492%,35.301208%);fill-opacity:1;" d="M 197.597656 529.769531 L 191.921875 527.554688 L 192.757813 485.125 L 192.585938 485.058594 L 178.113281 522.171875 L 171.65625 519.652344 L 192.742188 465.570313 L 198.496094 467.816406 L 197.699219 510.292969 L 197.855469 510.351563 L 212.335938 473.210938 L 218.679688 475.683594 Z M 197.597656 529.769531 "/>
<path style=" stroke:none;fill-rule:evenodd;fill:rgb(12.547302%,19.604492%,35.301208%);fill-opacity:1;" d="M 222.898438 477.257813 L 230.355469 479.355469 L 214.648438 535.238281 L 207.191406 533.140625 Z M 222.898438 477.257813 "/>
<path style=" stroke:none;fill-rule:evenodd;fill:rgb(12.547302%,19.604492%,35.301208%);fill-opacity:1;" d="M 244.757813 541.550781 L 224.371094 537.585938 L 235.445313 480.605469 L 243.050781 482.082031 L 233.21875 532.667969 L 246.003906 535.152344 Z M 244.757813 541.550781 "/>
<path style=" stroke:none;fill-rule:evenodd;fill:rgb(12.547302%,19.604492%,35.301208%);fill-opacity:1;" d="M 286.796875 493.695313 C 284.324219 492.277344 282.078125 491.546875 280.078125 491.507813 C 278.097656 491.472656 276.378906 492.167969 274.929688 493.605469 C 273.484375 495.042969 272.746094 496.789063 272.710938 498.863281 C 272.683594 500.3125 273.066406 501.890625 273.871094 503.558594 C 274.679688 505.226563 276.519531 507.910156 279.410156 511.613281 C 282.3125 515.300781 284.511719 518.507813 286.03125 521.21875 C 287.535156 523.929688 288.269531 527.011719 288.203125 530.46875 C 288.121094 534.800781 286.773438 538.28125 284.175781 540.925781 C 281.578125 543.574219 278.226563 544.847656 274.109375 544.769531 C 271.851563 544.722656 269.089844 543.984375 265.835938 542.550781 L 265.96875 535.570313 C 266.0625 535.605469 266.152344 535.652344 266.242188 535.71875 C 266.679688 536.054688 267.613281 536.585938 269.019531 537.296875 C 270.441406 538.011719 271.835938 538.382813 273.210938 538.410156 C 275.4375 538.453125 277.296875 537.722656 278.773438 536.226563 C 280.234375 534.742188 281.003906 532.808594 281.050781 530.425781 C 281.078125 528.789063 280.746094 527.253906 280.039063 525.839844 C 279.328125 524.421875 278.039063 522.496094 276.152344 520.058594 L 271.132813 513.527344 C 269.183594 510.996094 267.746094 508.675781 266.839844 506.601563 C 265.921875 504.511719 265.496094 502.042969 265.550781 499.175781 C 265.628906 494.9375 266.898438 491.535156 269.359375 488.933594 C 271.835938 486.332031 274.988281 485.066406 278.828125 485.140625 C 281.496094 485.195313 284.199219 485.933594 286.914063 487.355469 Z M 286.796875 493.695313 "/>
<path style=" stroke:none;fill-rule:evenodd;fill:rgb(12.547302%,19.604492%,35.301208%);fill-opacity:1;" d="M 188.328125 470.910156 C 186.738281 468.539063 185.050781 466.894531 183.277344 465.972656 C 181.515625 465.058594 179.664063 464.921875 177.730469 465.570313 C 175.796875 466.21875 174.363281 467.457031 173.410156 469.296875 C 172.742188 470.585938 172.386719 472.171875 172.371094 474.023438 C 172.355469 475.875 172.816406 479.097656 173.765625 483.699219 C 174.734375 488.292969 175.285156 492.140625 175.445313 495.242188 C 175.59375 498.335938 174.886719 501.429688 173.289063 504.5 C 171.300781 508.34375 168.550781 510.867188 165.046875 512.089844 C 161.546875 513.308594 157.976563 512.964844 154.324219 511.070313 C 152.320313 510.03125 150.171875 508.144531 147.890625 505.417969 L 151.101563 499.21875 C 151.164063 499.289063 151.226563 499.371094 151.28125 499.46875 C 151.523438 499.964844 152.121094 500.855469 153.070313 502.117188 C 154.027344 503.386719 155.113281 504.339844 156.328125 504.96875 C 158.308594 505.996094 160.300781 506.167969 162.289063 505.480469 C 164.257813 504.796875 165.804688 503.40625 166.898438 501.289063 C 167.652344 499.835938 168.03125 498.3125 168.027344 496.730469 C 168.019531 495.148438 167.71875 492.847656 167.101563 489.824219 L 165.496094 481.746094 C 164.871094 478.613281 164.613281 475.898438 164.71875 473.636719 C 164.820313 471.355469 165.535156 468.949219 166.851563 466.40625 C 168.800781 462.640625 171.449219 460.152344 174.808594 458.910156 C 178.179688 457.675781 181.5625 457.941406 184.976563 459.710938 C 187.34375 460.941406 189.441406 462.796875 191.246094 465.28125 Z M 188.328125 470.910156 "/>
<path style=" stroke:none;fill-rule:evenodd;fill:rgb(12.547302%,19.604492%,35.301208%);fill-opacity:1;" d="M 288.921875 486.28125 L 301.527344 485.179688 C 309.71875 484.460938 314.300781 489.558594 315.257813 500.480469 C 315.640625 504.835938 315.203125 508.339844 313.984375 510.960938 C 312.746094 513.582031 311.078125 515.304688 308.953125 516.148438 C 306.855469 516.988281 303.6875 517.621094 299.480469 518.054688 L 301.699219 543.433594 L 293.980469 544.109375 Z M 298.953125 512.027344 C 302.214844 511.738281 304.484375 510.871094 305.777344 509.414063 C 307.070313 507.957031 307.523438 505.21875 307.171875 501.1875 C 306.816406 497.128906 305.964844 494.441406 304.609375 493.089844 C 303.257813 491.742188 300.773438 491.226563 297.160156 491.539063 Z M 298.953125 512.027344 "/>
<path style=" stroke:none;fill-rule:evenodd;fill:rgb(12.547302%,19.604492%,35.301208%);fill-opacity:1;" d="M 318.570313 512.5 C 316.035156 500.160156 315.578125 491.914063 317.246094 487.796875 C 318.898438 483.675781 322.46875 481.039063 327.964844 479.910156 C 334.261719 478.617188 338.867188 479.800781 341.777344 483.425781 C 344.675781 487.070313 347.214844 494.171875 349.382813 504.730469 C 351.324219 514.191406 352.203125 520.855469 352.039063 524.703125 C 351.855469 528.550781 350.8125 531.574219 348.894531 533.777344 C 346.960938 535.96875 344.046875 537.457031 340.132813 538.257813 C 336.097656 539.089844 332.847656 538.929688 330.382813 537.785156 C 327.898438 536.625 325.777344 534.378906 323.996094 531.011719 C 322.214844 527.664063 320.414063 521.492188 318.570313 512.5 Z M 341.777344 508.199219 C 339.558594 497.394531 337.558594 490.851563 335.785156 488.5625 C 334.011719 486.277344 331.886719 485.394531 329.386719 485.90625 C 326.449219 486.511719 324.742188 488.449219 324.285156 491.71875 C 323.8125 494.992188 324.324219 500.253906 325.808594 507.472656 L 326.449219 510.597656 C 328.105469 518.671875 329.746094 524.464844 331.398438 527.984375 C 333.046875 531.503906 335.539063 532.929688 338.894531 532.242188 C 340.960938 531.816406 342.507813 530.421875 343.539063 528.03125 C 344.589844 525.640625 344.144531 519.730469 342.203125 510.300781 Z M 341.777344 508.199219 "/>
<path style=" stroke:none;fill-rule:evenodd;fill:rgb(12.547302%,19.604492%,35.301208%);fill-opacity:1;" d="M 387.210938 523.304688 L 379.664063 526.035156 L 361.914063 503.476563 L 361.28125 503.707031 L 370.558594 529.332031 L 363.269531 531.96875 L 343.511719 477.386719 L 353.601563 473.734375 C 361.8125 470.761719 367.601563 473.925781 370.976563 483.242188 C 372.503906 487.46875 373.046875 490.863281 372.609375 493.453125 C 372.164063 496.027344 370.777344 498.367188 368.4375 500.441406 Z M 359.464844 498.691406 C 362.277344 497.605469 364.074219 496.195313 364.859375 494.441406 C 365.644531 492.683594 365.414063 490.101563 364.164063 486.667969 C 362.984375 483.390625 361.554688 481.246094 359.910156 480.269531 C 358.257813 479.277344 356.050781 479.28125 353.289063 480.28125 L 352.859375 480.4375 Z M 359.464844 498.691406 "/>
<path style=" stroke:none;fill-rule:evenodd;fill:rgb(12.547302%,19.604492%,35.301208%);fill-opacity:1;" d="M 388.953125 464.863281 L 381.039063 468.65625 L 403.253906 515.015625 L 396.265625 518.363281 L 374.054688 472.003906 L 366.164063 475.785156 L 363.289063 469.792969 L 386.085938 458.875 Z M 388.953125 464.863281 "/>
<path style=" stroke:none;fill-rule:evenodd;fill:rgb(12.547302%,19.604492%,35.301208%);fill-opacity:1;" d="M 417.078125 445.550781 L 406.164063 452.992188 L 416.464844 468.089844 L 426.21875 461.4375 L 429.945313 466.898438 L 420.191406 473.550781 L 435.136719 495.460938 L 428.8125 499.773438 L 396.097656 451.820313 L 413.328125 440.0625 Z M 417.078125 445.550781 "/>
<path style=" stroke:none;fill-rule:evenodd;fill:rgb(12.547302%,19.604492%,35.301208%);fill-opacity:1;" d="M 431.328125 462.03125 C 422.96875 452.609375 418.453125 445.695313 417.835938 441.296875 C 417.203125 436.902344 418.980469 432.832031 423.175781 429.109375 C 427.980469 424.84375 432.558594 423.5625 436.894531 425.246094 C 441.226563 426.957031 446.976563 431.835938 454.132813 439.894531 C 460.546875 447.117188 464.640625 452.449219 466.414063 455.863281 C 468.183594 459.285156 468.789063 462.425781 468.234375 465.292969 C 467.652344 468.160156 465.871094 470.902344 462.886719 473.558594 C 459.804688 476.292969 456.910156 477.78125 454.203125 478.019531 C 451.476563 478.257813 448.511719 477.375 445.289063 475.34375 C 442.070313 473.339844 437.425781 468.894531 431.328125 462.03125 Z M 449.277344 446.699219 C 441.953125 438.453125 436.953125 433.789063 434.273438 432.691406 C 431.59375 431.597656 429.3125 431.898438 427.402344 433.59375 C 425.160156 435.582031 424.652344 438.113281 425.890625 441.175781 C 427.117188 444.246094 430.195313 448.542969 435.089844 454.058594 L 437.203125 456.441406 C 442.679688 462.605469 446.996094 466.800781 450.183594 469.023438 C 453.371094 471.25 456.242188 471.238281 458.808594 468.960938 C 460.382813 467.566406 461.023438 465.578125 460.726563 462.996094 C 460.4375 460.402344 457.097656 455.503906 450.703125 448.304688 Z M 449.277344 446.699219 "/>
<path style=" stroke:none;fill-rule:evenodd;fill:rgb(12.547302%,19.604492%,35.301208%);fill-opacity:1;" d="M 456.441406 437.574219 C 446.816406 429.441406 441.363281 423.242188 440.121094 418.972656 C 438.871094 414.71875 440.046875 410.4375 443.671875 406.152344 C 447.816406 401.242188 452.164063 399.324219 456.699219 400.375 C 461.230469 401.445313 467.617188 405.453125 475.851563 412.410156 C 483.226563 418.644531 488.039063 423.335938 490.285156 426.464844 C 492.523438 429.601563 493.574219 432.621094 493.429688 435.539063 C 493.261719 438.457031 491.894531 441.429688 489.3125 444.480469 C 486.65625 447.628906 484.003906 449.515625 481.359375 450.136719 C 478.691406 450.761719 475.632813 450.308594 472.15625 448.761719 C 468.679688 447.234375 463.449219 443.496094 456.441406 437.574219 Z M 472.015625 419.839844 C 463.59375 412.722656 457.972656 408.816406 455.164063 408.117188 C 452.359375 407.414063 450.140625 408.035156 448.492188 409.984375 C 446.558594 412.273438 446.414063 414.851563 448.078125 417.707031 C 449.730469 420.570313 453.390625 424.386719 459.019531 429.144531 L 461.453125 431.203125 C 467.753906 436.527344 472.621094 440.058594 476.097656 441.808594 C 479.570313 443.554688 482.410156 443.136719 484.621094 440.515625 C 485.980469 438.90625 486.335938 436.851563 485.664063 434.335938 C 485.015625 431.808594 481.007813 427.441406 473.65625 421.226563 Z M 472.015625 419.839844 "/>
<path style=" stroke:none;fill-rule:evenodd;fill:rgb(12.547302%,19.604492%,35.301208%);fill-opacity:1;" d="M 470.730469 379.277344 L 466.078125 386.722656 L 509.671875 413.964844 L 505.566406 420.535156 L 461.972656 393.292969 L 457.335938 400.710938 L 451.703125 397.191406 L 465.097656 375.757813 Z M 470.730469 379.277344 "/>
<path style=" stroke:none;fill-rule:evenodd;fill:rgb(12.547302%,19.604492%,35.301208%);fill-opacity:1;" d="M 465.078125 375.453125 L 469.144531 367.363281 C 471.355469 362.96875 474.078125 360.257813 477.308594 359.269531 C 480.554688 358.285156 484.484375 358.953125 489.121094 361.289063 C 495.695313 364.59375 498.621094 369.164063 497.886719 375.023438 C 501.710938 370.183594 507.371094 369.660156 514.890625 373.441406 C 519.019531 375.515625 521.710938 378.089844 522.960938 381.179688 C 524.214844 384.253906 523.941406 387.609375 522.117188 391.234375 L 516.933594 401.535156 Z M 473.839844 371.289063 L 491.871094 380.363281 C 493.117188 377.683594 493.398438 375.433594 492.691406 373.582031 C 491.988281 371.726563 490.019531 370 486.796875 368.378906 C 483.289063 366.617188 480.628906 365.929688 478.804688 366.300781 C 476.976563 366.675781 475.324219 368.339844 473.839844 371.289063 Z M 497.039063 382.960938 L 515.121094 392.054688 C 516.441406 389.292969 516.824219 387.042969 516.257813 385.296875 C 515.691406 383.546875 513.726563 381.820313 510.363281 380.128906 C 506.777344 378.324219 504.007813 377.671875 502.066406 378.171875 C 500.109375 378.671875 498.433594 380.269531 497.039063 382.960938 Z M 497.039063 382.960938 "/>
<path style=" stroke:none;fill-rule:evenodd;fill:rgb(12.547302%,19.604492%,35.301208%);fill-opacity:1;" d="M 538.371094 346.722656 L 535.902344 353.773438 L 524.367188 351.984375 L 520.363281 363.417969 L 530.496094 369.214844 L 528.054688 376.179688 L 477.367188 345.296875 L 479.464844 339.304688 Z M 518.476563 351.011719 L 490.839844 346.628906 L 490.78125 346.804688 L 515.183594 360.414063 Z M 518.476563 351.011719 "/>
<path style=" stroke:none;fill-rule:evenodd;fill:rgb(12.547302%,19.604492%,35.301208%);fill-opacity:1;" d="M 544.136719 319.589844 L 539.640625 339.871094 L 482.96875 327.304688 L 484.644531 319.742188 L 534.953125 330.894531 L 537.773438 318.179688 Z M 544.136719 319.589844 "/>
<path style=" stroke:none;fill-rule:evenodd;fill:rgb(12.547302%,19.604492%,35.301208%);fill-opacity:1;" d="M 546.90625 291.179688 L 544.699219 311.832031 L 486.976563 305.664063 L 487.800781 297.957031 L 539.039063 303.433594 L 540.425781 290.488281 Z M 546.90625 291.179688 "/>
<path style=" stroke:none;fill-rule:evenodd;fill:rgb(97.65625%,80.46875%,35.693359%);fill-opacity:1;" d="M 226.28125 116.144531 L 218.933594 116.144531 L 218.933594 64.824219 L 213.984375 64.824219 L 213.984375 58.65625 L 226.28125 58.65625 Z M 226.28125 116.144531 "/>
<path style=" stroke:none;fill-rule:evenodd;fill:rgb(97.65625%,80.46875%,35.693359%);fill-opacity:1;" d="M 259.617188 93.613281 C 257.519531 94.367188 255.871094 94.738281 254.664063 94.738281 C 251.652344 94.738281 249.222656 93.519531 247.367188 91.078125 C 245.511719 88.617188 244.589844 84.15625 244.589844 77.667969 C 244.589844 72.621094 244.9375 68.824219 245.648438 66.269531 C 246.355469 63.71875 247.664063 61.6875 249.601563 60.179688 C 251.53125 58.6875 254.097656 57.933594 257.28125 57.933594 C 261.609375 57.933594 264.761719 59.304688 266.722656 62.058594 C 268.699219 64.808594 269.695313 70.191406 269.695313 78.203125 C 269.695313 83.617188 269.152344 88.277344 268.078125 92.214844 C 267.011719 96.152344 265.15625 100.75 262.527344 105.976563 C 259.90625 111.222656 258.273438 114.605469 257.621094 116.144531 L 249.3125 116.144531 L 250.6875 113.296875 C 255.695313 102.765625 258.664063 96.199219 259.617188 93.613281 Z M 261.820313 76.265625 L 261.820313 75.097656 C 261.820313 68.191406 260.246094 64.734375 257.097656 64.734375 L 256.914063 64.734375 C 255.328125 64.734375 254.1875 65.457031 253.507813 66.902344 C 252.84375 68.347656 252.496094 70.667969 252.496094 73.882813 C 252.496094 78.988281 252.769531 82.570313 253.296875 84.632813 C 253.824219 86.679688 255.089844 87.707031 257.097656 87.707031 C 259.359375 87.707031 260.71875 86.832031 261.15625 85.0625 C 261.609375 83.28125 261.820313 80.355469 261.820313 76.265625 Z M 261.820313 76.265625 "/>
<path style=" stroke:none;fill-rule:evenodd;fill:rgb(97.65625%,80.46875%,35.693359%);fill-opacity:1;" d="M 293.914063 93.613281 C 291.816406 94.367188 290.171875 94.738281 288.964844 94.738281 C 285.945313 94.738281 283.519531 93.519531 281.664063 91.078125 C 279.808594 88.617188 278.886719 84.15625 278.886719 77.667969 C 278.886719 72.621094 279.234375 68.824219 279.941406 66.269531 C 280.652344 63.71875 281.964844 61.6875 283.894531 60.179688 C 285.828125 58.6875 288.390625 57.933594 291.574219 57.933594 C 295.90625 57.933594 299.058594 59.304688 301.019531 62.058594 C 302.996094 64.808594 303.992188 70.191406 303.992188 78.203125 C 303.992188 83.617188 303.449219 88.277344 302.378906 92.214844 C 301.304688 96.152344 299.449219 100.75 296.824219 105.976563 C 294.199219 111.222656 292.570313 114.605469 291.921875 116.144531 L 283.609375 116.144531 L 284.980469 113.296875 C 289.992188 102.765625 292.964844 96.199219 293.914063 93.613281 Z M 296.117188 76.265625 L 296.117188 75.097656 C 296.117188 68.191406 294.546875 64.734375 291.394531 64.734375 L 291.210938 64.734375 C 289.628906 64.734375 288.480469 65.457031 287.804688 66.902344 C 287.140625 68.347656 286.789063 70.667969 286.789063 73.882813 C 286.789063 78.988281 287.0625 82.570313 287.59375 84.632813 C 288.121094 86.679688 289.386719 87.707031 291.394531 87.707031 C 293.65625 87.707031 295.015625 86.832031 295.453125 85.0625 C 295.90625 83.28125 296.117188 80.355469 296.117188 76.265625 Z M 296.117188 76.265625 "/>
<path style=" stroke:none;fill-rule:evenodd;fill:rgb(97.65625%,80.46875%,35.693359%);fill-opacity:1;" d="M 340.394531 58.75 L 324.175781 116.144531 L 316.738281 116.050781 L 330.980469 65.855469 L 315.863281 65.855469 L 315.863281 58.75 Z M 340.394531 58.75 "/>
</g>
</svg>
