<?xml version="1.0" encoding="UTF-8"?> <svg xmlns="http://www.w3.org/2000/svg" width="2306" height="866" viewBox="0 0 2306 866" fill="none"><g clip-path="url(#clip0_453_61)"><path d="M158.505 158.513C202.196 158.513 237.759 122.951 237.759 79.259C237.759 35.5673 202.196 0.000610352 158.505 0.000610352C114.813 0.000610352 79.2503 35.5673 79.2503 79.259C79.2503 122.951 114.813 158.513 158.505 158.513ZM95.5087 724.476C95.5087 846.41 -0.00390625 827.101 -0.00390625 827.101V856.568C-0.00390625 856.568 32.5087 865.714 73.1545 865.714C137.167 865.714 221.505 842.343 221.505 721.426V215.413H95.5087V724.476Z" fill="#2B51A3"></path><path d="M685.871 215.413V410.505C685.871 556.822 597.471 617.784 522.279 617.784C467.408 617.784 419.654 585.272 419.654 527.355V215.413H293.658V570.03C293.658 673.672 375.962 731.589 469.442 731.589C548.696 731.589 636.079 687.897 685.871 593.401V721.426H812.879V215.413H685.871Z" fill="#2B51A3"></path><path d="M1024.23 10.1632H898.23V721.426H1024.23V10.1632Z" fill="#2B51A3"></path><path d="M1173.59 158.513C1217.28 158.513 1252.85 122.951 1252.85 79.259C1252.85 35.5673 1217.28 0.000610352 1173.59 0.000610352C1129.9 0.000610352 1094.34 35.5673 1094.34 79.259C1094.34 122.951 1129.9 158.513 1173.59 158.513ZM1236.59 721.426V215.413H1110.6V721.426H1236.59Z" fill="#2B51A3"></path><path d="M1574.94 332.263H1728.37V215.413H1511.94C1572.91 185.947 1609.49 135.142 1609.49 69.0964H1482.48C1482.48 164.609 1440.82 215.413 1368.68 215.413H1295.52V332.263H1426.59C1256.91 440.984 1286.37 731.589 1585.1 731.589C1621.68 731.589 1663.34 727.526 1708.05 717.364V591.368C1665.38 602.547 1628.8 607.626 1596.28 607.626C1356.48 607.626 1379.85 332.263 1574.94 332.263Z" fill="#2B51A3"></path><path d="M1912.28 10.1632H1786.28V721.426H1912.28V527.355C1912.28 381.038 2000.68 319.055 2075.87 319.055C2130.74 319.055 2178.49 352.584 2178.49 409.489V721.426H2305.51V366.814C2305.51 264.184 2223.2 205.251 2130.74 205.251C2050.47 205.251 1962.07 248.947 1912.28 344.459V10.1632Z" fill="#2B51A3"></path></g><defs><clipPath id="clip0_453_61"><rect width="2306" height="866" fill="white"></rect></clipPath></defs></svg> 