<?xml version="1.0" encoding="UTF-8"?> <svg xmlns="http://www.w3.org/2000/svg" width="326" height="125" viewBox="0 0 326 125" fill="none"><path d="M22.4131 22.7856C28.5912 22.7856 33.6197 17.6736 33.6197 11.3931C33.6197 5.11257 28.5912 0 22.4131 0C16.2351 0 11.2066 5.11257 11.2066 11.3931C11.2066 17.6736 16.2351 22.7856 22.4131 22.7856ZM13.5055 104.14C13.5055 121.668 0 118.892 0 118.892V123.128C0 123.128 4.59729 124.443 10.3446 124.443C19.396 124.443 31.3214 121.083 31.3214 103.702V30.9647H13.5055V104.14Z" fill="#D6D6D6"></path><path d="M96.9831 30.9648V59.0085C96.9831 80.041 84.4833 88.8047 73.8512 88.8047C66.0924 88.8047 59.34 84.1305 59.34 75.8052V30.9648H41.5241V81.9396C41.5241 96.8377 53.162 105.163 66.3799 105.163C77.5865 105.163 89.9426 98.8825 96.9831 85.2991V103.702H114.942V30.9648H96.9831Z" fill="#D6D6D6"></path><path d="M144.827 1.46094H127.011V103.702H144.827V1.46094Z" fill="#D6D6D6"></path><path d="M165.947 22.7855C172.125 22.7855 177.154 17.6736 177.154 11.3931C177.154 5.11257 172.125 0 165.947 0C159.769 0 154.74 5.11257 154.74 11.3931C154.74 17.6736 159.769 22.7855 165.947 22.7855ZM174.855 103.702V30.9647H157.039V103.702H174.855Z" fill="#D6D6D6"></path><path d="M222.698 47.7613H244.393V30.9646H213.79C222.411 26.7289 227.583 19.426 227.583 9.93213H209.623C209.623 23.6617 203.733 30.9646 193.532 30.9646H183.187V47.7613H201.721C177.727 63.3901 181.894 105.163 224.135 105.163C229.307 105.163 235.198 104.579 241.52 103.118V85.0065C235.485 86.6135 230.313 87.3436 225.715 87.3436C191.808 87.3436 195.112 47.7613 222.698 47.7613Z" fill="#D6D6D6"></path><path d="M270.397 1.46094H252.581V103.702H270.397V75.8052C270.397 54.7728 282.897 45.8629 293.529 45.8629C301.288 45.8629 308.04 50.6832 308.04 58.8623V103.702H326V52.728C326 37.9761 314.362 29.5046 301.288 29.5046C289.938 29.5046 277.438 35.7851 270.397 49.5146V1.46094Z" fill="#D6D6D6"></path></svg> 