<?xml version="1.0" encoding="UTF-8" standalone="no"?>
<!-- Created with Inkscape (http://www.inkscape.org/) -->

<svg
   xmlns:dc="http://purl.org/dc/elements/1.1/"
   xmlns:cc="http://creativecommons.org/ns#"
   xmlns:rdf="http://www.w3.org/1999/02/22-rdf-syntax-ns#"
   xmlns:svg="http://www.w3.org/2000/svg"
   xmlns="http://www.w3.org/2000/svg"
   xmlns:sodipodi="http://sodipodi.sourceforge.net/DTD/sodipodi-0.dtd"
   xmlns:inkscape="http://www.inkscape.org/namespaces/inkscape"
   width="46.567169mm"
   height="79.375mm"
   viewBox="0 0 46.567169 79.375"
   version="1.1"
   id="svg3050"
   inkscape:version="0.92.4 (5da689c313, 2019-01-14)"
   sodipodi:docname="Coupe de la Ligue logo.svg">
  <defs
     id="defs3044">
    <linearGradient
       gradientTransform="matrix(0.44647334,0,0,0.44647334,28.277364,58.352894)"
       y2="107.2707"
       x2="127.9333"
       y1="107.2707"
       x1="105.8676"
       gradientUnits="userSpaceOnUse"
       id="SVGID_8_">
      <stop
         id="stop2859"
         style="stop-color:#FEBE2A"
         offset="0.3637" />
      <stop
         id="stop2861"
         style="stop-color:#FBAC30"
         offset="0.6734" />
      <stop
         id="stop2863"
         style="stop-color:#F79437"
         offset="1" />
    </linearGradient>
    <linearGradient
       gradientTransform="matrix(0.44647334,0,0,0.44647334,28.277364,58.352894)"
       y2="99.038399"
       x2="153.75"
       y1="99.038399"
       x1="51.324299"
       gradientUnits="userSpaceOnUse"
       id="SVGID_6_">
      <stop
         id="stop2837"
         style="stop-color:#FEBE2A"
         offset="0.3637" />
      <stop
         id="stop2839"
         style="stop-color:#FBAC30"
         offset="0.6734" />
      <stop
         id="stop2841"
         style="stop-color:#F79437"
         offset="1" />
    </linearGradient>
    <linearGradient
       gradientTransform="matrix(0.44647334,0,0,0.44647334,28.277364,58.352894)"
       y2="94.848701"
       x2="153.75"
       y1="94.848701"
       x1="51.324299"
       gradientUnits="userSpaceOnUse"
       id="SVGID_5_">
      <stop
         id="stop2828"
         style="stop-color:#FEBE2A"
         offset="0.3637" />
      <stop
         id="stop2830"
         style="stop-color:#FBAC30"
         offset="0.6734" />
      <stop
         id="stop2832"
         style="stop-color:#F79437"
         offset="1" />
    </linearGradient>
    <linearGradient
       gradientTransform="matrix(0.44647334,0,0,0.44647334,28.277364,58.352894)"
       y2="99.840103"
       x2="153.75"
       y1="99.840103"
       x1="51.324299"
       gradientUnits="userSpaceOnUse"
       id="SVGID_4_">
      <stop
         id="stop2819"
         style="stop-color:#FEBE2A"
         offset="0.3637" />
      <stop
         id="stop2821"
         style="stop-color:#FBAC30"
         offset="0.6734" />
      <stop
         id="stop2823"
         style="stop-color:#F79437"
         offset="1" />
    </linearGradient>
    <linearGradient
       gradientTransform="matrix(0.44647334,0,0,0.44647334,28.277364,58.352894)"
       y2="100.2585"
       x2="153.75"
       y1="100.2585"
       x1="51.324299"
       gradientUnits="userSpaceOnUse"
       id="SVGID_3_">
      <stop
         id="stop2810"
         style="stop-color:#FEBE2A"
         offset="0.3637" />
      <stop
         id="stop2812"
         style="stop-color:#FBAC30"
         offset="0.6734" />
      <stop
         id="stop2814"
         style="stop-color:#F79437"
         offset="1" />
    </linearGradient>
    <linearGradient
       gradientTransform="matrix(0.44647334,0,0,0.44647334,28.277364,58.352894)"
       y2="110.9945"
       x2="153.75"
       y1="110.9945"
       x1="51.324299"
       gradientUnits="userSpaceOnUse"
       id="SVGID_2_">
      <stop
         id="stop2801"
         style="stop-color:#FEBE2A"
         offset="0.3637" />
      <stop
         id="stop2803"
         style="stop-color:#FBAC30"
         offset="0.6734" />
      <stop
         id="stop2805"
         style="stop-color:#F79437"
         offset="1" />
    </linearGradient>
    <linearGradient
       gradientTransform="matrix(0.44647334,0,0,0.44647334,28.277364,58.352894)"
       id="SVGID_1_"
       gradientUnits="userSpaceOnUse"
       x1="62.4146"
       y1="65.837097"
       x2="171.7261"
       y2="65.837097">
      <stop
         offset="0.3637"
         style="stop-color:#FEBE2A"
         id="stop2792" />
      <stop
         offset="0.6734"
         style="stop-color:#FBAC30"
         id="stop2794" />
      <stop
         offset="1"
         style="stop-color:#F79437"
         id="stop2796" />
    </linearGradient>
  </defs>
  <sodipodi:namedview
     id="base"
     pagecolor="#ffffff"
     bordercolor="#666666"
     borderopacity="1.0"
     inkscape:pageopacity="0.0"
     inkscape:pageshadow="2"
     inkscape:zoom="0.98994949"
     inkscape:cx="167.86429"
     inkscape:cy="-22.537487"
     inkscape:document-units="mm"
     inkscape:current-layer="layer1"
     showgrid="false"
     inkscape:window-width="1366"
     inkscape:window-height="705"
     inkscape:window-x="-8"
     inkscape:window-y="-8"
     inkscape:window-maximized="1" />
  <metadata
     id="metadata3047">
    <rdf:RDF>
      <cc:Work
         rdf:about="">
        <dc:format>image/svg+xml</dc:format>
        <dc:type
           rdf:resource="http://purl.org/dc/dcmitype/StillImage" />
        <dc:title></dc:title>
      </cc:Work>
    </rdf:RDF>
  </metadata>
  <g
     inkscape:label="Layer 1"
     inkscape:groupmode="layer"
     id="layer1"
     transform="translate(-48.190074,-63.49529)">
    <path
       inkscape:connector-curvature="0"
       id="TEXT"
       class="st0"
       d="m 56.62842,120.0555 -2.946724,6.92033 h 1.562657 l 0.625063,-1.56265 h 2.902076 l 0.625063,1.56265 h 1.562657 l -2.946724,-6.92033 z m -0.223236,4.06291 0.892946,-2.14307 c 0.04465,0 0.04465,0 0.0893,0 v 0 l -0.04465,-0.0893 -0.04465,0.0893 v 0 l 0.04465,-0.0893 0.892947,2.23237 z m 10.090297,1.518 h 3.437844 v 1.38407 h -4.955853 v -5.08979 0 -1.78589 c 0.848299,0 1.518009,0.6697 1.518009,1.518 v 0.26789 0 z m 6.161332,-5.49161 v 6.87568 h -1.51801 v -5.35768 c 0,-0.8483 0.66971,-1.518 1.51801,-1.518 z m 5.000501,2.90207 h 2.991371 v 2.99138 c -0.714357,0.58042 -1.696598,1.07153 -2.946724,1.07153 -2.143072,0 -3.616434,-1.518 -3.616434,-3.52714 v 0 c 0,-1.96449 1.51801,-3.57179 3.616434,-3.57179 1.250126,0 1.964483,0.31253 2.723488,0.9376 l -0.937594,1.16084 c -0.535768,-0.44649 -0.982242,-0.71437 -1.785894,-0.71437 -1.116183,0 -1.964482,0.98225 -1.964482,2.14307 v 0 c 0,1.25014 0.848299,2.18772 2.098424,2.18772 0.535768,0 1.026889,-0.13398 1.428715,-0.40181 v -0.98226 h -0.223237 c -0.803652,0 -1.384067,-0.58041 -1.384067,-1.29477 z m 10.313534,-2.90207 v 3.88431 c 0,0.0447 0,0.0893 0,0.13398 0,0 0,0 0,0 0,0.0447 0,0.0447 0,0.0893 0,0.0893 0,0.13398 0,0.22325 0,0.0447 0,0.0893 0,0.13399 0,0.0893 0,0.13398 -0.04465,0.17858 0,0.0447 0,0.0893 -0.04465,0.13398 0,0.0447 -0.04465,0.13399 -0.04465,0.17859 0,0.0447 -0.04465,0.0893 -0.04465,0.13398 0,0.0447 -0.04465,0.13399 -0.04465,0.1786 0,0.0447 -0.04465,0.0893 -0.04465,0.13399 -0.04465,0.0447 -0.04465,0.0893 -0.0893,0.13398 0,0.0447 -0.04465,0.0893 -0.04465,0.0893 -0.04465,0.0447 -0.04465,0.0893 -0.0893,0.13398 0,0.0447 -0.04465,0.0447 -0.0893,0.0893 -0.04465,0.0447 -0.04465,0.0893 -0.0893,0.13398 -0.04465,0.0447 -0.04465,0.0447 -0.0893,0.0893 -0.04465,0.0447 -0.0893,0.0893 -0.0893,0.0893 -0.04465,0.0447 -0.04465,0.0447 -0.0893,0.0893 -0.04465,0.0447 -0.0893,0.0447 -0.133951,0.0893 -0.04465,0.0447 -0.0893,0.0447 -0.0893,0.0893 -0.04465,0.0447 -0.0893,0.0447 -0.13395,0.0893 -0.04465,0.0447 -0.0893,0.0447 -0.133934,0.0447 -0.04465,0 -0.0893,0.0447 -0.133933,0.0447 -0.04465,0 -0.0893,0.0447 -0.133951,0.0447 -0.04465,0 -0.0893,0.0447 -0.133933,0.0447 -0.04465,0 -0.0893,0.0447 -0.133934,0.0447 -0.04465,0 -0.0893,0.0447 -0.13395,0.0447 -0.04465,0 -0.133934,0.0447 -0.178589,0.0447 -0.04465,0 -0.0893,0 -0.133951,0.0447 -0.0893,0 -0.133933,0 -0.223237,0.0447 -0.04465,0 -0.0893,0 -0.0893,0 -0.0893,0 -0.223237,0 -0.312533,0 -0.0893,0 -0.223235,0 -0.31253,0 -0.04465,0 -0.04465,0 -0.0893,0 -0.0893,0 -0.133933,0 -0.223235,-0.0447 -0.04465,0 -0.0893,0 -0.0893,0 -0.04465,0 -0.133933,-0.0447 -0.178588,-0.0447 -0.04465,0 -0.0893,0 -0.0893,-0.0447 -0.04465,0 -0.133933,-0.0447 -0.178588,-0.0447 -0.04465,0 -0.04465,0 -0.0893,-0.0447 -0.0893,-0.0447 -0.178588,-0.0447 -0.223237,-0.0893 0,0 -0.04465,0 -0.04465,-0.0447 -0.04465,-0.0447 -0.0893,-0.0447 -0.178589,-0.0893 -0.04465,0 -0.04465,-0.0447 -0.0893,-0.0447 -0.04465,-0.0447 -0.0893,-0.0447 -0.133951,-0.0893 -0.04465,0 -0.04465,-0.0447 -0.0893,-0.0893 -0.04465,-0.0447 -0.0893,-0.0447 -0.0893,-0.0893 -0.04465,-0.0447 -0.04465,-0.0447 -0.0893,-0.0893 -0.04465,-0.0447 -0.0893,-0.0893 -0.0893,-0.0893 0,-0.0447 -0.04465,-0.0447 -0.04465,-0.0893 -0.04465,-0.0447 -0.0893,-0.13398 -0.133933,-0.1786 0,-0.0447 -0.04465,-0.0893 -0.04465,-0.0893 -0.04465,-0.0447 -0.04465,-0.0893 -0.0893,-0.13399 0,-0.0447 -0.04465,-0.0893 -0.04465,-0.13398 0,-0.0447 -0.04465,-0.0893 -0.04465,-0.13399 0,-0.0447 -0.04465,-0.0893 -0.04465,-0.13398 0,-0.0447 -0.04465,-0.0893 -0.04465,-0.13398 0,-0.0447 -0.04465,-0.0893 -0.04465,-0.13399 0,0 0,0 0,0 0,0 0,0 0,0 -0.0893,-0.31253 -0.0893,-0.62505 -0.0893,-0.98223 v -3.92895 h 1.518171 v 3.88433 c 0,0.31253 0.04465,0.53577 0.0893,0.759 v 0 c 0.04465,0.0893 0.04465,0.13399 0.0893,0.22324 0,0 0,0 0,0 0.04465,0.13398 0.133951,0.22323 0.223238,0.31253 0,0 0,0 0,0 0.04465,0.0447 0.0893,0.0893 0.13395,0.13398 0,0 0,0 0,0 0.04465,0.0447 0.0893,0.0447 0.178589,0.0893 0,0 0.04465,0 0.04465,0 0.04465,0.0447 0.133934,0.0447 0.178589,0.0893 0,0 0,0 0,0 0.04465,0 0.133933,0.0447 0.178589,0.0447 0,0 0.04465,0 0.04465,0 0.0893,0 0.133933,0 0.223235,0 0.04465,0 0.0893,0 0.178591,0 0,0 0.04465,0 0.04465,0 0.04465,0 0.04465,0 0.0893,0 0,0 0.04465,0 0.04465,0 0.04465,0 0.04465,0 0.0893,0 0.04465,0 0.04465,0 0.0893,0 0.04465,0 0.04465,0 0.0893,0 0.04465,0 0.04465,0 0.0893,-0.0447 0,0 0.04465,0 0.04465,-0.0447 0.04465,0 0.04465,-0.0447 0.0893,-0.0447 0,0 0.04465,0 0.04465,-0.0447 0.04465,0 0.04465,-0.0447 0.0893,-0.0447 0,0 0,0 0.04465,-0.0447 0.04465,0 0.04465,-0.0447 0.0893,-0.0447 0,0 0,0 0,0 0.223235,-0.17858 0.357177,-0.49112 0.401826,-0.8483 0,0 0,0 0,0 0,-0.0447 0,-0.0893 0.04465,-0.17859 v 0 c 0,-0.0893 0,-0.1786 0,-0.31253 v -2.41096 c -0.04465,-0.71435 0.625063,-1.38407 1.473362,-1.38407 z m 6.786395,5.49161 v 1.33942 h -5.223738 v -5.40231 0 0 0 -1.47337 h 5.17909 c 0,0.759 -0.580415,1.33942 -1.33942,1.33942 h -2.321661 v 0.0893 0 1.29477 h 3.259255 v 1.33942 h -3.259255 v 1.42872 h 3.705729 z m -43.843681,0 h 2.232366 v 1.38407 h -4.955854 v -6.87568 c 0.8483,0 1.51801,0.6697 1.51801,1.518 v 3.97361 z m 5.580916,-7.05426 c -1.33942,0 -2.366308,-1.02689 -2.366308,-2.36631 v 0 c 0,-0.0447 0,-0.0893 0,-0.1786 0,0 0,0 0,0 0,0 0,-0.0447 0,-0.0447 0,-0.0447 0,-0.0893 0,-0.0893 0,-0.0447 0,-0.0893 0,-0.0893 0,-0.0447 0,-0.0893 0,-0.0893 0,0 0,0 0,-0.0447 0,0 0,0 0,0 0,0 0,0 0,0 0.223236,-1.02689 1.116183,-1.83054 2.321661,-1.83054 0.848299,0 1.384067,0.26788 1.785893,0.71435 l -0.625062,0.75903 c -0.357179,-0.31253 -0.714358,-0.53576 -1.160831,-0.53576 -0.580415,0 -0.982241,0.35718 -1.205478,0.80365 0,0.0447 -0.04465,0.0447 -0.04465,0.0893 0,0 0,0.0447 0,0.0447 0,0.0447 0,0.0447 -0.04465,0.0893 0,0 0,0.0447 0,0.0447 0,0.0447 0,0.0447 0,0.0893 0,0 0,0.0447 0,0.0447 0,0.0447 0,0.0447 0,0.0893 0,0.0447 0,0.0893 0,0.0893 v 0 c 0,0.80366 0.535768,1.42872 1.33942,1.42872 0.535768,0 0.848299,-0.22325 1.205478,-0.53576 l 0.625061,0.66966 c -0.446472,0.53577 -0.98224,0.84831 -1.830541,0.84831 z m 7.188221,-2.67884 c 0,-0.0447 0,-0.0893 0,-0.13399 0,-0.0447 0,-0.0447 0,-0.0893 0,-0.0447 0,-0.0893 -0.04465,-0.13399 0,-0.0447 0,-0.0447 0,-0.0893 0,-0.0447 -0.04465,-0.0893 -0.04465,-0.1786 0,0 0,-0.0447 0,-0.0447 -0.04465,-0.0447 -0.04465,-0.13399 -0.0893,-0.17859 0,0 0,-0.0447 -0.04465,-0.0447 -0.04465,-0.0447 -0.04465,-0.0893 -0.0893,-0.13399 0,0 -0.04465,-0.0447 -0.04465,-0.0447 0,0 -0.04465,-0.0447 -0.04465,-0.0447 v 0 c 0,0 0,0 0,0 -0.446475,-0.58041 -1.116185,-0.93759 -1.964485,-0.93759 -1.026888,0 -1.83054,0.58042 -2.232366,1.33942 0,0 0,0 0,0 v 0 c 0,0 0,0.0447 0,0.0447 0,0.0447 -0.04465,0.0893 -0.04465,0.13398 0,0.0447 0,0.0447 -0.04465,0.0893 0,0.0447 -0.04465,0.0893 -0.04465,0.13398 0,0.0447 0,0.0447 0,0.0893 0,0.0447 0,0.13398 -0.04465,0.1786 0,0.0447 0,0.0447 0,0.0893 0,0.0893 0,0.17858 0,0.26788 0,0 0,0 0,0 v 0 c 0,0.0893 0,0.13398 0,0.22323 0,0 0,0.0447 0,0.0447 0,0.0447 0,0.13399 0.04465,0.17859 0,0 0,0.0447 0,0.0447 0,0 0,0.0447 0,0.0447 0,0 0,0 0,0 0.223236,1.02689 1.16083,1.78589 2.366308,1.78589 0.982242,0 1.741246,-0.49112 2.143072,-1.20547 0,0 0,0 0,0 0,0 0,0 0,0 0,0 0,-0.0447 0.04465,-0.0447 0.04465,-0.0447 0.04465,-0.0893 0.0893,-0.13398 0,0 0,-0.0447 0.04465,-0.0447 0.04465,-0.0447 0.04465,-0.13398 0.04465,-0.17858 0,0 0,-0.0447 0,-0.0447 0,-0.0447 0.04465,-0.0893 0.04465,-0.1786 0,0 0,-0.0447 0,-0.0447 0,-0.0447 0.04465,-0.13398 0.04465,-0.22323 0,0 0,-0.0447 0,-0.0447 0,-0.0893 0,-0.13399 0,-0.22324 v 0 c 0,-0.0893 0,-0.13398 0,-0.22323 -0.0893,0 -0.0893,0 -0.0893,-0.0447 z m -3.571787,1.11618 c 0,0 0,0 0,0 -0.04465,-0.0447 -0.04465,-0.0893 -0.0893,-0.13398 0,0 0,0 0,-0.0447 0,-0.0447 -0.04465,-0.0893 -0.04465,-0.13398 0,0 0,0 0,-0.0447 0,-0.0447 -0.04465,-0.0447 -0.04465,-0.0893 0,0 0,-0.0447 0,-0.0447 0,-0.0447 0,-0.0447 0,-0.0893 0,0 0,-0.0447 0,-0.0447 0,-0.0447 0,-0.0447 0,-0.0893 0,0 0,-0.0447 0,-0.0447 0,-0.0447 0,-0.0893 0,-0.13399 v 0 c 0,-0.0447 0,-0.0893 0,-0.1786 0,0 0,-0.0447 0,-0.0447 0,-0.0447 0,-0.0893 0,-0.0893 0,0 0,-0.0447 0,-0.0447 0,-0.0447 0,-0.0447 0.04465,-0.0893 0,0 0,-0.0447 0,-0.0447 0,-0.0447 0.04465,-0.0447 0.04465,-0.0893 0,0 0,-0.0447 0,-0.0447 0,-0.0447 0.04465,-0.0893 0.04465,-0.0893 0,0 0,0 0,-0.0447 0.04465,-0.0893 0.133933,-0.17859 0.17859,-0.22324 0,0 0,0 0.04465,-0.0447 0.04465,-0.0447 0.04465,-0.0447 0.0893,-0.0893 0.223235,-0.17858 0.535768,-0.31254 0.848298,-0.31254 0.223238,0 0.446473,0.0447 0.625064,0.17861 0.0893,0.0447 0.178588,0.13398 0.267884,0.22323 0,0 0,0 0.04465,0.0447 0.04465,0.0447 0.0893,0.0893 0.0893,0.13398 0,0 0,0 0,0 0.04465,0.0447 0.0893,0.0893 0.0893,0.13399 0,0 0,0.0447 0,0.0447 0.04465,0.0447 0.04465,0.0893 0.04465,0.13399 0,0 0,0.0447 0,0.0447 0,0.0447 0.04465,0.0893 0.04465,0.17859 0,0 0,0 0,0.0447 0,0.0447 0,0.0893 0.04465,0.13398 0,0 0,0.0447 0,0.0447 0,0.0447 0,0.13398 0,0.1786 v 0 0 c 0,0.0447 0,0.0893 0,0.17858 0,0 0,0.0447 0,0.0447 0,0.0447 0,0.0893 0,0.0893 0,0 0,0.0447 0,0.0447 0,0.0447 0,0.0447 -0.04465,0.0893 0,0 0,0.0447 0,0.0447 0,0.0447 0,0.0447 -0.04465,0.0893 0,0 0,0.0447 0,0.0447 0,0.0447 -0.04465,0.0447 -0.04465,0.0893 0,0 0,0.0447 0,0.0447 0,0.0447 -0.04465,0.0447 -0.04465,0.0893 0,0 0,0 0,0 -0.04465,0.0893 -0.133933,0.13399 -0.17859,0.22324 -0.223236,0.17858 -0.535768,0.31251 -0.892946,0.31251 -0.446474,0.0447 -0.892947,-0.17858 -1.116184,-0.5804 z m 6.384569,1.56266 c -0.982242,0 -1.651951,-0.44649 -1.875188,-1.29477 0,0 0,0 0,0 0,0 0,0 0,0 0,-0.0447 0,-0.0447 0,-0.0893 0,-0.0447 0,-0.0893 0,-0.0893 0,-0.0447 0,-0.0447 0,-0.0893 0,-0.0447 0,-0.0893 0,-0.13399 0,-0.0447 0,-0.0447 0,-0.0893 0,-0.0893 0,-0.13399 0,-0.22325 v -1.87519 0 -0.759 h 1.026888 v 2.58955 c 0,0 0,0 0,0 0,0.0447 0,0.0893 0,0.17859 0,0 0,0.0447 0,0.0447 0,0.0447 0,0.0893 0,0.13399 0,0 0,0 0,0.0447 0,0.0893 0.04465,0.17858 0.0893,0.26788 0.133934,0.35718 0.446473,0.49112 0.848299,0.49112 0.491121,0 0.8483,-0.26789 0.937594,-0.759 0,-0.0447 0,-0.0893 0,-0.13399 0,0 0,0 0,-0.0447 0,-0.0447 0,-0.0893 0,-0.17858 v -1.6073 c 0,-0.0447 0,-0.0893 0,-0.13399 0,0 0,0 0,-0.0447 0,-0.0447 0,-0.0893 0,-0.0893 0,0 0,0 0,0 0.04465,-0.0893 0.04465,-0.1786 0.0893,-0.22325 v 0 0 c 0.178589,-0.31252 0.491121,-0.49112 0.848299,-0.49112 v 0.44648 0 2.14308 c 0,0.0893 0,0.13398 0,0.22323 0,0.0447 0,0.0447 0,0.0893 0,0 0,0.0447 0,0.0447 0,0 0,0 0,0 -0.0893,1.07154 -0.848299,1.65196 -1.964482,1.65196 z m 10.893949,-0.0893 h -3.482492 v -4.59868 h 3.437845 c 0,0.49112 -0.401826,0.89295 -0.892947,0.89295 h -1.562657 v 0.93759 h 2.143072 v 0.89295 h -2.143072 v 0.98224 h 2.500251 z m 7.054279,-2.27702 v 0 c 0,-1.29477 -0.982242,-2.27701 -2.410956,-2.27701 h -1.785894 v 4.59868 h 1.785894 c 1.428714,-0.0447 2.410956,-1.0269 2.410956,-2.32167 z m -3.214608,-1.38407 h 0.759004 c 0.803652,0 1.384068,0.58042 1.384068,1.38407 v 0 c 0,0.80365 -0.535768,1.38407 -1.384068,1.38407 h -0.759004 z m 4.107554,3.66109 v 0 -4.59868 0 H 88.7745 c 0,0.49112 -0.401826,0.89295 -0.892947,0.89295 h -1.562656 v 0.93759 h 2.143072 v 0.89295 h -2.143072 v 0.98224 h 2.50025 v 0 0.89295 0 z m -14.822914,-1.07154 v -0.31253 h 0.759004 c 1.026889,0 1.830541,-0.53577 1.830541,-1.6073 v 0 c 0,-0.93761 -0.66971,-1.56266 -1.741246,-1.56266 h -1.875188 v 0.35717 0 2.76814 1.47337 h 1.026889 z m 1.607304,-1.87518 v 0 c 0,0.40181 -0.312532,0.71435 -0.803652,0.71435 h -0.803652 v -1.38407 h 0.759004 c 0.535768,-0.0447 0.8483,0.22323 0.8483,0.66972 z"
       style="stroke-width:0.4464733" />
    <path
       style="fill:#8bc53f;stroke-width:0.4464733"
       inkscape:connector-curvature="0"
       id="path2779"
       d="m 60.735975,142.87029 c 2.187719,0 3.616434,-1.33942 3.928965,-3.48249 l 1.473362,-9.55453 h -8.304404 c -2.187719,0 -3.616434,1.33942 -3.928965,3.4825 l -1.473362,9.55452 z"
       class="st1" />
    <path
       style="fill:#ffffff;stroke-width:0.4464733"
       inkscape:connector-curvature="0"
       id="path2781"
       d="m 55.244353,132.51211 h 5.491622 c 2.321661,0 3.259255,0.58042 3.393197,1.69659 0.133934,0.98225 -0.49112,1.60731 -1.741246,1.83056 v 0 0 c 1.026889,0.13398 1.741246,0.84828 1.830541,1.518 0.223237,1.83054 -1.741246,2.58954 -4.107555,2.58954 H 53.94958 Z m 2.232367,5.8488 h 2.098424 c 0.580416,0 1.384068,-0.13398 1.294773,-0.759 -0.0893,-0.58042 -0.66971,-0.66972 -1.33942,-0.66972 h -1.785893 z m 0.49112,-2.85742 h 1.875188 c 0.535768,0 1.160831,-0.13399 1.116184,-0.62507 -0.04465,-0.44647 -0.491121,-0.53577 -1.071536,-0.53577 h -1.696599 z"
       class="st2" />
    <path
       style="fill:#0db04b;stroke-width:0.4464733"
       inkscape:connector-curvature="0"
       id="path2783"
       d="m 72.924697,142.87029 c 2.187719,0 3.616434,-1.33942 3.928965,-3.48249 l 1.473362,-9.55453 H 70.02262 c -2.187719,0 -3.616434,1.33942 -3.928965,3.4825 l -1.473362,9.55452 z"
       class="st3" />
    <path
       inkscape:connector-curvature="0"
       style="fill:#ffffff;stroke-width:0.4464733"
       d="m 69.799383,135.057 h 0.04465 l 3.259255,-2.54489 h 4.196848 l -4.643321,3.16996 3.571785,4.50938 h -3.616434 l -2.277014,-2.94672 -1.026887,0.71435 -0.357179,2.23237 h -3.214608 l 1.250124,-7.67934 h 3.214608 z"
       id="polygon2785" />
    <path
       style="fill:#00844a;stroke-width:0.4464733"
       inkscape:connector-curvature="0"
       id="path2787"
       d="m 85.113419,142.87029 c 2.187719,0 3.616434,-1.33942 3.928965,-3.48249 l 1.473362,-9.55453 h -8.304404 c -2.187719,0 -3.616434,1.33942 -3.928965,3.4825 l -1.473362,9.55452 z"
       class="st4" />
    <path
       inkscape:connector-curvature="0"
       style="fill:#ffffff;stroke-width:0.4464733"
       d="M 79.532502,132.51211 H 88.7745 l -0.312531,1.96448 h -2.991372 l -0.937594,5.71486 h -3.303902 l 0.937594,-5.71486 h -2.946724 z"
       id="polygon2789" />
    <path
       class="st5"
       d="m 54.351406,72.773982 c 1.160831,-0.491117 2.902077,-0.937602 3.437845,-0.982252 0.491121,-0.08927 2.634193,-0.312517 2.634193,-0.312517 0,0 4.375438,-0.491135 4.50938,-0.491135 0.133934,0 1.160831,-0.178584 1.160831,-0.178584 h -0.312532 l 0.04465,-0.223234 5.000501,-0.133933 c 0,0 0.714356,-0.133934 0.446472,0.04465 -0.267884,0.178595 -17.099927,2.500251 -17.099927,2.500251 0,0 -0.446473,0 0.178589,-0.223234 z m 17.055281,-2.232372 0.892947,-0.133933 -0.04465,-0.133934 -0.892947,0.133934 z m 20.403832,-2.991369 c -4.152202,-5.313033 -23.216614,-3.928965 -26.654458,-3.795023 -3.437845,0.133934 -8.929467,1.250125 -8.929467,1.250125 l -0.04465,0.133934 c 0,0 -0.759004,0.133933 -0.892946,0.178588 -0.133933,0.04465 -0.223237,0 -0.357179,0 -2.187719,0.535768 -3.973613,1.473362 -3.973613,1.473362 0,0 0,-0.0893 -0.0893,0 -0.0893,0.0893 -0.04465,1.294774 -0.04465,1.294774 0,0 0.04465,1.071536 0.0893,1.250124 0,0.133951 0.0893,1.294777 0.0893,1.294777 l 0.357178,-0.267887 0.0893,0.178587 0.223235,-0.178587 c 0,0 -0.267884,0.401821 -0.04465,0.312537 0.223237,-0.08927 3.973613,-0.625068 3.973613,-0.625068 0,0 -0.937594,0.178589 -1.160831,0.267884 -0.223235,0.0893 0.04465,0.178589 0.04465,0.178589 0,0 2.00913,-0.312531 2.321663,-0.35718 0.312531,-0.04465 5.179089,-0.446472 5.179089,-0.446472 l 7.456106,-0.491122 c 0,0 0.31253,-0.04465 0.04465,-0.133933 -0.759006,-0.267884 -6.116684,0.446474 -6.116684,0.446474 0,0 -0.312532,-0.0893 -0.357179,-0.0893 -0.04465,0 -3.393197,0.401826 -3.661081,0.357178 -0.267884,-0.04465 -1.071536,-0.0893 -1.071536,-0.0893 l 0.535768,-0.0893 0.04465,-0.178589 c 2.589545,-0.267884 2.812782,-0.17859 4.464733,-0.312532 4.821912,-0.401826 10.536771,-0.714357 12.635195,-0.66971 11.295776,0.491121 12.144075,2.321659 12.144075,2.321659 0,0 -8.527641,-0.714355 -8.929467,-0.714355 -0.401826,0 -2.768134,0.0893 -2.768134,0.0893 l -0.446474,0.267884 v -0.267884 l -2.143072,0.0893 -2.991371,0.491115 -0.312531,0.133984 -0.312532,-0.04472 c 0,0 -3.616434,0.535768 -3.795023,0.535768 -0.178589,0 -0.937594,0.133985 -1.428715,0.133985 -0.49112,0 -0.49112,0.178583 -0.49112,0.178583 0,0 -6.518511,0.982236 -7.322163,1.160837 -0.803652,0.133984 -3.750376,0.446467 -3.750376,0.446467 l -0.267884,0.267884 c 0,0 -0.491121,0.267884 -1.026889,0.714352 -0.535768,0.446485 -0.49112,0.982253 -0.49112,0.982253 l 0.535768,2.67884 1.741246,0.669701 c 0,0 -0.0893,-0.357184 0.04465,-0.446468 4.68797,-2.67884 11.295774,-2.410956 12.36731,-2.544906 1.116184,-0.133984 9.55453,-0.446468 15.090799,-0.759002 5.536268,-0.312534 8.259757,0.133984 8.259757,0.133984 l -0.04465,0.178584 1.51801,-0.982236 0.892946,-4.95586 z m -36.744755,13.081661 3.750376,-0.580401 0.133934,0.08927 5.045148,-0.803652 0.267884,0.04472 c 0,0 2.143072,-0.267884 2.277014,-0.357184 0.133933,-0.08927 3.125312,-0.401818 3.125312,-0.401818 0,0 4.420086,-0.669718 4.554028,-0.759002 0.133951,-0.08927 -1.33942,0 -1.33942,0 l -0.937594,0.178584 -0.133933,-0.133984 -3.83967,0.267884 c 0,0 -1.875188,0.133984 -2.634193,0.178583 -0.803652,0.08927 -4.911206,0.491118 -7.143573,0.982236 -2.232367,0.535768 -2.67884,0.892952 -2.67884,0.892952 z m 1.83054,1.38407 0.04465,0.133984 6.607807,-1.071536 z m 33.217616,-3.169958 -0.0893,0.312534 -0.0893,0.357185 c 0,0 -1.116184,1.785887 -1.562657,1.696587 -1.919835,-0.312534 -6.920337,0.178601 -6.920337,0.178601 v 0.178583 l 2.098437,-0.223234 c 0,0 -0.446473,0.178584 0.535768,0.08927 1.026889,-0.133984 2.857429,-0.223234 2.857429,-0.223234 l 0.04465,0.223234 c -0.625063,-0.133984 -3.169961,0.223234 -3.169961,0.223234 l -4.152202,0.357184 -0.401826,-0.08927 0.535768,-0.267884 -2.991371,0.401817 c 0,0 -1.651953,-0.178584 -1.919837,-0.08927 -0.267884,0.08927 -1.518008,0.491117 -1.518008,0.491117 l -0.178589,-0.223233 -0.491121,0.08927 v 0.133984 c 0,0 -3.437846,0.312534 -3.571788,0.357185 -0.13395,0.04472 -2.902075,0.08927 -3.616434,0.312534 -0.759005,0.178583 -2.321662,0.357184 -2.321662,0.357184 0,0 -2.589545,0.267884 -3.482492,0.446468 -0.892946,0.133984 -1.607304,0.401834 -1.964482,0.535768 -0.357179,0.133984 -0.267884,0.133984 -0.267884,0.133984 l -0.491121,0.178584 -0.401826,0.357184 -1.116183,-0.312534 -1.116184,-2.277023 2.500251,-0.357167 -0.04465,-0.178601 -1.250126,0.133985 -0.133934,-0.133985 -1.384067,0.312535 0.133951,-0.848303 4.464732,-0.625051 0.35718,0.08927 7.411456,-1.20547 c 0,0 7.411457,-0.982253 7.36681,-1.071536 -0.04465,-0.133984 0.178589,-0.357184 0.178589,-0.357184 0,0 1.919837,0.04472 2.544898,0.04472 0.625063,0 2.723489,-0.491118 3.125315,-0.357184 0.357177,0.133984 3.66108,0.08927 3.66108,0.08927 l -0.178588,-0.223234 1.562655,0.178583 0.0893,0.08927 c 0.04465,-0.04472 0.312531,-0.04472 1.205478,-0.04472 1.651951,0.04472 3.750376,0.669719 3.750376,0.669719 z m -32.726495,2.366306 -0.66971,0.267884 c 0,0 1.205478,-0.178584 1.33942,-0.133984 0.133934,0.04472 0.357179,-0.223234 0.803652,-0.267884 0.446473,-0.04472 -1.473362,0.133984 -1.473362,0.133984 z m 15.135446,0.982253 -2.85743,0.357167 1.428715,0.04472 z m 1.696598,-2.723491 -1.473362,0.04472 -0.312531,0.178584 -0.892947,0.178584 z m -6.473863,6.6078 0.937594,-0.223234 -1.384067,0.178584 z m 20.493126,-0.178584 c -0.357179,0.892936 -0.625063,0.982236 -0.625063,0.982236 l -2.053777,0.267884 0.04465,-0.178584 1.294773,-0.223233 0.178589,-0.223251 -2.902075,0.848302 -5.759506,0.982253 -0.267884,-0.401835 c 0,0 -0.892948,0.267884 -1.116185,0.267884 -0.178589,0.04472 -0.714357,-0.04472 -0.937594,0.08927 -0.535768,0.401834 -4.107553,0.580418 -4.107553,0.580418 l -0.178591,-0.133984 -5.313031,0.803652 -0.848301,0.133984 c 0,0 -0.178589,0.08927 -0.357177,0.08927 -0.133951,-0.04472 -0.491125,-0.08927 -0.491125,-0.08927 l -0.04465,-0.133984 -1.562657,0.267884 -1.518009,0.178583 v 0.178601 l -0.580415,0.312534 -0.13395,-0.04472 -1.33942,0.223234 -1.875188,-2.143072 0.446472,-0.580418 v -0.08927 c 0,0 0.892948,-0.535768 1.294774,-0.669702 0.446472,-0.133984 0.937594,-0.178601 0.937594,-0.178601 l 0.98224,-0.267884 c 0,0 1.294774,-0.133984 1.651951,-0.133984 0.357179,0 0.401826,-0.04472 0.759005,-0.08927 0.35718,-0.04472 1.294772,-0.312534 1.294772,-0.312534 l 0.17859,0.133984 0.312531,-0.08927 0.0893,-0.133984 c 0,0 3.83967,-0.491118 4.955854,-0.535768 1.116183,-0.04472 1.384067,-0.133984 1.384067,-0.133984 0,0 1.607304,-0.357168 3.616434,-0.491118 2.00913,-0.133984 3.661081,-0.178584 4.107555,-0.267884 0.446473,-0.04472 7.18822,-0.357167 7.18822,-0.357167 l 0.133933,-0.08927 c 0,0 1.02689,0.267884 1.160832,0.491118 0.0893,0.267884 0.357179,0.267884 0,1.160819 z m -28.574293,5.134447 1.607304,-0.312535 -0.178589,0.178584 z m 0.0893,-0.178601 -1.33942,-1.25012 V 89.33814 c 0,0 -0.714356,-0.580418 -0.714356,-0.669718 0,-0.08927 -0.133934,-0.312517 0,-0.491118 0.178588,-0.178584 0.714356,-0.580418 0.714356,-0.580418 l 1.384067,-0.580401 0.267884,-0.08927 c 0,0 -0.04465,-0.08927 -0.13395,-0.08927 -0.0893,0 -1.026888,0 -1.741246,0.535767 -0.714357,0.535768 -0.803652,0.892936 -0.803652,0.892936 l 0.0893,0.446484 2.00913,2.321656 z m 13.88532,-1.29477 c 0.312531,0.08927 2.500251,0.04472 4.509381,-0.133984 2.00913,-0.178584 6.51851,-0.446468 6.51851,-0.446468 v -0.1786 l 1.741246,-0.267884 0.759005,-1.38407 -2.812782,0.669718 v 0.133984 l -0.357179,0.04472 -0.04465,-0.133984 h -0.625069 l -3.34855,0.580401 -0.223235,-0.04472 -1.33942,0.223251 c 0,0 -1.562657,-0.08927 -2.00913,-0.04472 -0.446471,0.04472 -0.357176,0.446468 -0.357176,0.446468 l -2.634193,0.312534 c -0.04465,0 -0.0893,0.133984 0.223237,0.223234 z m 11.295775,-0.580418 h 0.8483 l 0.357178,0.04472 0.17859,-0.312535 -1.473362,0.178601 z m -1.116183,3.036024 c 0,0 0.04465,-0.267884 0.133934,-0.580418 0.13395,-0.312534 -0.267884,-0.357184 -0.267884,-0.357184 0,0 -0.625064,0.08927 -1.33942,0.223251 -0.714357,0.133984 -5.04515,0.357167 -5.04515,0.357167 l -6.116675,0.982253 -7.188221,1.116169 -0.267884,-0.04455 -2.67884,0.491118 v 0.267884 c 0,0 0.312532,0.625051 0.803652,1.160819 0.491121,0.491135 1.562657,0.803652 1.562657,0.803652 l 0.312531,0.04472 0.267884,0.312534 1.116183,-0.312534 h 0.223237 c 0,0 0.0893,-0.04472 0.803652,-0.267884 0.491121,-0.133984 -0.223237,-0.08927 0.580415,-0.223234 1.205478,-0.223234 1.964483,-0.223234 1.964483,-0.223234 l -0.0893,0.133984 v 0.08927 l 0.446474,0.04472 0.0893,-0.178584 -0.223235,-0.08927 0.580415,-0.04472 0.0893,0.178583 0.714357,-0.133984 v -0.133984 h -0.669717 c 0,0 0.312531,-0.04472 0.446473,-0.04472 0.401826,-0.04472 1.116184,-0.08927 1.428715,-0.133984 0.401826,-0.04472 0.446473,0 0.446473,0 l 3.036019,-0.312534 0.223237,-0.08927 0.580415,0.04472 c 0,0 1.607304,-0.223234 1.785893,-0.267884 0.133933,-0.04472 0.04465,0.08927 0.803652,-0.04472 0.759005,-0.133984 2.723488,-0.178583 3.571787,-0.446467 0.714357,-0.223234 1.696599,-1.964489 1.696599,-1.964489 l 0.446473,-0.446467 z M 73.95159,91.793746 c -2.00913,0 -9.822413,0.759002 -10.134944,0.803652 -0.312531,0.04472 -2.187719,0.446468 -2.187719,0.446468 l 0.04465,-0.267884 -0.133951,0.04472 -0.446474,1.116186 2.723488,-0.357184 c 0,0 1.294772,-0.223234 1.384067,-0.223234 0.0893,0 4.330791,-0.625069 4.330791,-0.625069 0,0 5.313033,-0.759001 5.402328,-0.803652 0.0893,-0.04472 0.0893,-0.133984 0.0893,-0.133984 0,0 -0.401826,0 -1.071536,0 z m 1.875188,5.893448 c 0,0 0,0 0,0 z m 1.919836,1.33942 0.178589,-0.1786 h 0.04465 z m 0.49112,-0.446484 -0.312531,0.267884 -0.178589,0.08927 -1.651952,0.133985 1.250126,-0.223234 h 0.04465 l 0.491122,-0.267884 -0.0893,-0.133984 -0.0893,0.133984 -0.49112,0.08927 c 0,0 -0.535768,0.04472 -0.66971,0.08927 -0.133933,0.04472 -1.428715,0.1786 -1.428715,0.1786 l -8.259757,1.339419 3.169961,3.48249 c -6.831042,1.60731 -8.259755,8.25976 -8.259755,8.25976 0,-6.60782 5.313031,-8.57229 5.313031,-8.57229 -0.401819,-0.71437 -1.518002,-1.78591 -1.518002,-1.78591 l -1.384067,-1.785883 c 0,0 -0.04465,-0.08927 -0.04465,-0.133984 0,-0.04472 -0.17859,-0.312534 -0.17859,-0.312534 l 0.133933,-0.267884 0.892948,-0.223234 0.133933,0.04472 c 0,0 0.580417,-0.1786 0.803652,-0.1786 0.223237,0 1.384069,-0.223234 1.384069,-0.223234 l -0.04465,0.08927 c 0,0 1.51801,-0.178583 2.455604,-0.357184 0.937594,-0.178584 0.580415,-0.08927 0.580415,-0.08927 l 0.714357,-0.08927 c 0,0 -0.178589,0.08927 -0.133951,0.08927 0.04465,0 0.803652,-0.04472 0.803652,-0.04472 0,0 -0.223235,0.133984 -0.13395,0.133984 0.13395,0 0.714358,-0.133984 0.714358,-0.133984 h 0.357178 v -0.04472 c 0,0 1.964483,-0.08927 2.098425,-0.178583 0.133933,-0.08927 0.491121,-0.267884 0.535768,-0.223234 0.04465,0.04472 0.714357,0.04472 0.803652,-0.04472 0.04465,-0.04472 -0.178589,-0.04472 -0.267884,-0.04472 l 2.455603,-0.357185 v -0.133984 l 0.401826,0.803652 z m -8.349051,4.73263 -0.580415,-0.71437 0.66971,0.62507 z m -5.982742,-3.16996 -0.223237,-0.267883 0.04465,-0.08927 0.178591,0.178584 z m 0.892946,0.98224 c -0.04465,-0.0447 -0.223236,-0.31254 -0.223236,-0.31254 l 0.357178,0.35719 c 0,0.0447 -0.0893,0 -0.13395,-0.0447 z m 7.634694,-1.607308 2.723487,-0.446467 -1.651951,0.401817 z m -0.580415,-1.38407 -0.223237,-0.133984 1.428715,-0.223234 z m 4.911206,4.152208 c 0,0 0,0 0,0 v 0 c 0,0 0,0 0,0 z"
       id="path2799"
       style="fill:url(#SVGID_1_);stroke-width:0.4464733"
       inkscape:connector-curvature="0" />
    <path
       inkscape:connector-curvature="0"
       style="fill:url(#SVGID_2_);stroke-width:0.4464733"
       id="path2808"
       d="m 81.854163,107.82214 c 0.04465,0.0447 0.04465,0.0893 0.0893,0.13398 0,0.0447 0,-0.0447 -0.0893,-0.13398 z"
       class="st6" />
    <path
       inkscape:connector-curvature="0"
       style="fill:url(#SVGID_3_);stroke-width:0.4464733"
       d="m 74.71059,103.49134 0.625063,-0.71435 -0.66971,0.58042 z"
       id="polygon2817" />
    <path
       inkscape:connector-curvature="0"
       style="fill:url(#SVGID_4_);stroke-width:0.4464733"
       d="m 77.568019,102.73234 -0.178589,0.22323 v 0.13399 l 0.223237,-0.26789 z"
       id="polygon2826" />
    <path
       inkscape:connector-curvature="0"
       style="fill:url(#SVGID_5_);stroke-width:0.4464733"
       id="path2835"
       d="m 77.969845,100.8125 c 0.04465,-0.0447 0.223237,-0.31253 0.223237,-0.31253 l -0.357179,0.35718 c 0,0 0.0893,0 0.13395,-0.0447 z"
       class="st9" />
    <path
       inkscape:connector-curvature="0"
       style="fill:url(#SVGID_6_);stroke-width:0.4464733"
       id="path2844"
       d="m 75.871421,102.19657 -0.66971,0.71435 c 0,0 0.625062,-0.53576 0.66971,-0.71435 z"
       class="st10" />
    <path
       inkscape:connector-curvature="0"
       style="fill:url(#SVGID_8_);stroke-width:0.4464733"
       id="path2866"
       d="m 82.791757,112.15293 c 0,-1.74125 -0.401826,-3.16996 -0.937594,-4.33079 0,0 0,0 0,0.0447 0,0 0,-0.0447 -0.04465,-0.0447 -0.803652,-1.69661 -2.00913,-2.76814 -2.946724,-3.43785 -0.982241,-0.80365 -1.6966,-1.20548 -1.6966,-1.20548 v -0.0447 l 0.178591,-0.44647 0.401826,-1.65195 -0.491121,1.518 0.31253,-1.65194 0.133934,-0.1786 -0.0893,-0.35716 -0.04465,0.0893 -0.178588,0.31252 0.31253,-0.40182 -0.401826,0.49112 -0.133933,0.13399 -0.0893,0.0893 -0.312533,0.35719 -0.223235,0.26788 h -0.04465 l -0.223235,0.22323 c 0,0 -0.312533,0.22324 -0.357179,0.26789 -0.04465,0.0447 0,0.13398 0,0.13398 l -0.223238,0.26789 -0.178588,0.17858 c 0,0 0,0 0,0 l -0.982241,1.07154 h -0.04465 c 0.04465,0 0.0893,0.0447 0.17859,0.0447 0.803652,0.26789 1.518009,0.53577 2.143072,0.75901 4.866559,2.41095 5.982742,7.50075 5.982742,7.50075 z"
       class="st12" />
  </g>
</svg>
