<?xml version="1.0" encoding="utf-8"?>
<!-- Generator: Adobe Illustrator 22.1.0, SVG Export Plug-In . SVG Version: 6.00 Build 0)  -->
<svg version="1.1" baseProfile="tiny" id="Calque_1"
	 xmlns="http://www.w3.org/2000/svg" xmlns:xlink="http://www.w3.org/1999/xlink" x="0px" y="0px" viewBox="0 0 195.6 258"
	 xml:space="preserve">
<g>
	<path fill="#D2091E" d="M97.6,67.8c0-10.7,0.9-16.2,6-20.3c-6.8,1.2-13.6,4.9-13.6,20.3v85.6h7.6C97.6,153.4,97.6,68.7,97.6,67.8"
		/>
	<path fill="#D2091E" d="M88.7,58.9c0-10.7,0.9-16.2,6-20.3c-6.8,1.2-13.6,4.9-13.6,20.3v85.6h7.6C88.7,144.5,88.7,59.8,88.7,58.9"
		/>
</g>
<polygon fill="#D2091E" points="129.9,67.7 127.2,67.6 98.1,95.6 124.6,122.4 135.5,122.4 104.6,91.9 "/>
<path fill="#D2091E" d="M120.6,104.7v-1.2l2.4-2.5c7.2-7.1,10.4-10.8,10.4-15.2c0-3-1.2-5.9-5.6-5.9c-2.5,0-4.4,1.3-5.5,2.2
	l-0.8-1.3c1.7-1.5,4-2.6,6.6-2.6c5.4,0,7.2,4.1,7.2,7.2c0,5.1-3.7,9.2-10.2,15.7l-1.8,1.9v0.1h12.8v1.6H120.6z"/>
<path fill="#D2091E" d="M81.6,94.3c0-2.6-1.1-8-6.9-8c-4.6,0-8,3.7-8,9.6c0,3.2,1.2,5.8,3.2,7.3l-7.3,0V78.8h-1.9v26l13.2,0
	c0.3,0,0.7,0.1,1.1,0.1c1.3,0,2.4-0.1,3.5-0.3V103c-1.1,0.2-2.1,0.3-3.3,0.3c-3.7,0-6.8-2.3-6.8-7.9h13.1
	C81.6,95.1,81.6,94.8,81.6,94.3 M79.7,94H68.5c0.3-2.7,2-6.2,5.9-6.2C78.7,87.7,79.7,91.5,79.7,94"/>
<path fill="#D2091E" d="M42.2,45.9c-0.2,0-0.3-0.1-0.4-0.2c-0.3-0.2-0.3-0.7-0.1-0.9c7.4-8.3,12.8-11.6,14.6-12.5L47.2,19
	c-0.2-0.3-0.1-0.7,0.2-0.9c8.1-5.9,19.2-9.6,19.3-9.7c0.3-0.1,0.7,0.1,0.8,0.4c0.1,0.3-0.1,0.7-0.4,0.8c-0.1,0-10.6,3.5-18.5,9.1
	l9.2,13.4c0.1,0.2,0.1,0.4,0.1,0.6c-0.1,0.2-0.2,0.3-0.4,0.4c-0.1,0-6,2.6-14.9,12.6C42.5,45.9,42.4,45.9,42.2,45.9"/>
<path fill="#D2091E" d="M61.3,30.8c-0.2,0-0.4-0.1-0.5-0.3L54,21.2c-0.2-0.3-0.2-0.7,0.1-0.9c0.3-0.2,0.7-0.1,0.9,0.1l6.8,9.3
	c0.2,0.3,0.2,0.7-0.1,0.9C61.6,30.8,61.5,30.8,61.3,30.8"/>
<path fill="#D2091E" d="M56.4,24c-0.2,0-0.5-0.1-0.6-0.4c-0.2-0.3,0-0.7,0.3-0.9c0,0,2.1-1,5-2.5c0.3-0.2,0.7,0,0.9,0.3
	c0.2,0.3,0,0.7-0.3,0.9c-2.9,1.5-5,2.5-5,2.5C56.5,23.9,56.4,24,56.4,24"/>
<path fill="#D2091E" d="M62.4,17c-0.2,0-0.5-0.1-0.6-0.4l-2.2-4.7c-0.2-0.3,0-0.7,0.3-0.9c0.3-0.2,0.7,0,0.9,0.3L63,16
	c0.2,0.3,0,0.7-0.3,0.9C62.6,17,62.5,17,62.4,17"/>
<path fill="#D2091E" d="M46.5,41.4c-0.2,0-0.3-0.1-0.5-0.2l-4.4-4.1c-0.3-0.2-0.3-0.7,0-0.9c0.3-0.3,0.7-0.3,0.9,0l4.4,4.1
	c0.3,0.2,0.3,0.7,0,0.9C46.9,41.3,46.7,41.4,46.5,41.4"/>
<path fill="#D2091E" d="M50.5,30.8c-0.2,0-0.4-0.1-0.6-0.3l-8.4-12.8c-0.2-0.3-0.1-0.7,0.2-0.9c0.3-0.2,0.7-0.1,0.9,0.2l8.4,12.8
	c0.2,0.3,0.1,0.7-0.2,0.9C50.8,30.8,50.7,30.8,50.5,30.8"/>
<path fill="#D2091E" d="M41.5,32.3c-0.1,0-0.3,0-0.4-0.1c-0.3-0.2-0.3-0.6-0.1-0.9c1.4-1.7,6.4-5.4,6.6-5.6c0.3-0.2,0.7-0.2,0.9,0.1
	c0.2,0.3,0.2,0.7-0.1,0.9c-0.1,0-5.1,3.8-6.4,5.4C41.8,32.3,41.7,32.3,41.5,32.3"/>
<path fill="#D2091E" d="M65.9,28.2c-0.3,0-0.5-0.1-0.6-0.4c-0.1-0.3,0-0.7,0.3-0.9c10.2-4.5,16.4-5.3,18.5-5.4L81.3,5.7
	C81.3,5.4,81.5,5,81.8,5c9.8-2.1,21.5-0.9,21.6-0.8c0.4,0,0.6,0.4,0.6,0.7c0,0.4-0.3,0.6-0.7,0.6c-0.1,0-11.1-1.2-20.6,0.7l2.9,16
	c0,0.2,0,0.4-0.1,0.5c-0.1,0.1-0.3,0.2-0.5,0.2c0,0,0,0,0,0c-0.4,0-6.9,0.1-18.7,5.3C66.1,28.2,66,28.2,65.9,28.2"/>
<path fill="#D2091E" d="M89.6,22.4c-0.3,0-0.6-0.2-0.6-0.5l-2.3-11.3c-0.1-0.4,0.2-0.7,0.5-0.8c0.4-0.1,0.7,0.2,0.8,0.5l2.3,11.3
	c0.1,0.4-0.2,0.7-0.5,0.8C89.7,22.4,89.6,22.4,89.6,22.4"/>
<path fill="#D2091E" d="M87.9,14.1c-0.4,0-0.7-0.3-0.7-0.7c0-0.4,0.3-0.7,0.7-0.7c0,0,2.3,0,5.5-0.2c0.4,0,0.7,0.3,0.7,0.6
	s-0.3,0.7-0.6,0.7C90.2,14,87.9,14.1,87.9,14.1L87.9,14.1z"/>
<path fill="#D2091E" d="M96.3,10.2c-0.4,0-0.7-0.3-0.7-0.7l-0.1-5.1c0-0.4,0.3-0.7,0.7-0.7c0.4-0.1,0.7,0.3,0.7,0.7L97,9.5
	C97,9.9,96.7,10.2,96.3,10.2L96.3,10.2z"/>
<path fill="#D2091E" d="M71.8,25.9c-0.3,0-0.5-0.2-0.6-0.4L68.9,20c-0.1-0.3,0-0.7,0.4-0.9c0.3-0.1,0.7,0,0.9,0.4l2.3,5.5
	c0.1,0.3,0,0.7-0.4,0.9C71.9,25.9,71.9,25.9,71.8,25.9"/>
<path fill="#D2091E" d="M79.8,17.9c-0.3,0-0.6-0.2-0.7-0.6L76.8,2.2c-0.1-0.4,0.2-0.7,0.6-0.8c0.4-0.1,0.7,0.2,0.8,0.6l2.3,15.1
	c0.1,0.4-0.2,0.7-0.6,0.8C79.8,17.9,79.8,17.9,79.8,17.9"/>
<path fill="#D2091E" d="M70.9,15.6c-0.2,0-0.5-0.1-0.6-0.4c-0.2-0.3,0-0.7,0.3-0.9c1.9-1,8.1-2.3,8.3-2.4c0.4-0.1,0.7,0.2,0.8,0.5
	c0.1,0.4-0.1,0.7-0.5,0.8c-0.1,0-6.2,1.4-8,2.3C71.1,15.5,71,15.6,70.9,15.6"/>
<path fill="#D2091E" d="M115.2,23.3c-0.1,0-0.2,0-0.3-0.1c-0.1,0-6.1-2.5-19.4-2.1h0c-0.4,0-0.6-0.3-0.7-0.6c0-0.4,0.3-0.7,0.6-0.7
	c11.1-0.3,17.2,1.3,19.2,2L118,6c0.1-0.3,0.4-0.6,0.8-0.5c9.9,1.8,20.2,7.3,20.3,7.4c0.3,0.2,0.4,0.6,0.3,0.9
	c-0.2,0.3-0.6,0.4-0.9,0.3c-0.1-0.1-9.8-5.3-19.3-7.1l-3.4,15.9c0,0.2-0.2,0.4-0.3,0.4C115.4,23.3,115.3,23.3,115.2,23.3"/>
<path fill="#D2091E" d="M119.7,24.6c0,0-0.1,0-0.1,0c-0.4-0.1-0.6-0.4-0.5-0.8l2.1-11.4c0.1-0.4,0.4-0.6,0.8-0.5
	c0.4,0.1,0.6,0.4,0.5,0.8l-2.1,11.4C120.3,24.4,120,24.6,119.7,24.6"/>
<path fill="#D2091E" d="M126.5,18.2c-0.1,0-0.1,0-0.2,0c-3.1-1.1-5.2-1.9-5.3-1.9c-0.3-0.1-0.5-0.5-0.4-0.9c0.1-0.3,0.5-0.5,0.9-0.4
	c0,0,2.1,0.8,5.2,1.9c0.3,0.1,0.5,0.5,0.4,0.8C127,18,126.7,18.2,126.5,18.2"/>
<path fill="#D2091E" d="M130.5,15.9c-0.1,0-0.2,0-0.2,0c-0.3-0.1-0.5-0.5-0.4-0.9l1.9-4.8c0.1-0.3,0.5-0.5,0.9-0.4
	c0.3,0.1,0.5,0.5,0.4,0.9l-1.9,4.8C131,15.7,130.8,15.9,130.5,15.9"/>
<path fill="#D2091E" d="M101.9,21.2c-0.4,0-0.7-0.3-0.7-0.7l0-6c0-0.4,0.3-0.7,0.7-0.7h0c0.4,0,0.7,0.3,0.7,0.7l0,6
	C102.5,20.9,102.3,21.1,101.9,21.2"/>
<path fill="#D2091E" d="M112.3,16.8c-0.1,0-0.1,0-0.2,0c-0.4-0.1-0.6-0.4-0.5-0.8l3.5-14.9c0.1-0.4,0.4-0.6,0.8-0.5
	c0.4,0.1,0.6,0.4,0.5,0.8l-3.5,14.9C112.9,16.6,112.6,16.8,112.3,16.8"/>
<path fill="#D2091E" d="M113.4,12.2c0,0-0.1,0-0.1,0c-0.1,0-6.3-1.1-8.3-0.9c-0.4,0-0.7-0.2-0.7-0.6c0-0.4,0.2-0.7,0.6-0.7
	c2.2-0.2,8.4,0.9,8.6,0.9c0.4,0.1,0.6,0.4,0.5,0.8C114,12,113.7,12.2,113.4,12.2"/>
<path fill="#D2091E" d="M32.3,134.6c-0.2,0-0.4-0.1-0.6-0.3c-5.6-9.6-7.1-15.7-7.5-17.8l-15.4,4.6c-0.3,0.1-0.7-0.1-0.8-0.4
	c-3.2-9.5-3.3-21.3-3.3-21.4c0-0.4,0.3-0.7,0.7-0.7h0C5.7,98.7,6,99,6,99.3c0,0.1,0.1,11.2,3,20.3l15.5-4.7c0.2-0.1,0.4,0,0.6,0.1
	c0.2,0.1,0.3,0.3,0.3,0.5c0,0.1,0.7,6.5,7.4,18c0.2,0.3,0.1,0.7-0.2,0.9C32.5,134.6,32.4,134.6,32.3,134.6"/>
<path fill="#D2091E" d="M12.8,115.4c-0.3,0-0.5-0.2-0.6-0.5c-0.1-0.3,0.1-0.7,0.4-0.8l11-3.6c0.3-0.1,0.7,0.1,0.8,0.4
	c0.1,0.3-0.1,0.7-0.4,0.8l-11,3.6C12.9,115.3,12.9,115.4,12.8,115.4"/>
<path fill="#D2091E" d="M15.7,114.4c-0.3,0-0.6-0.2-0.7-0.6c0,0-0.3-2.3-0.8-5.5c-0.1-0.4,0.2-0.7,0.5-0.8c0.4-0.1,0.7,0.2,0.8,0.5
	c0.6,3.2,0.9,5.5,0.9,5.5C16.4,114,16.2,114.3,15.7,114.4C15.8,114.4,15.7,114.4,15.7,114.4"/>
<path fill="#D2091E" d="M5.8,107.1c-0.3,0-0.6-0.2-0.7-0.6c0-0.4,0.2-0.7,0.6-0.7l5.1-0.7c0.4,0,0.7,0.2,0.7,0.6
	c0,0.4-0.2,0.7-0.6,0.7L5.8,107.1C5.9,107.1,5.8,107.1,5.8,107.1"/>
<path fill="#D2091E" d="M24.1,131.9c-0.2,0-0.5-0.1-0.6-0.3c-0.2-0.3-0.1-0.7,0.3-0.9l5.2-2.9c0.3-0.2,0.7-0.1,0.9,0.3
	c0.2,0.3,0.1,0.7-0.3,0.9l-5.2,2.9C24.3,131.9,24.2,131.9,24.1,131.9"/>
<path fill="#D2091E" d="M5.7,126c-0.3,0-0.6-0.2-0.6-0.5c-0.1-0.4,0.1-0.7,0.5-0.8l14.8-4c0.4-0.1,0.7,0.1,0.8,0.5
	c0.1,0.4-0.1,0.7-0.5,0.8l-14.8,4C5.8,126,5.7,126,5.7,126"/>
<path fill="#D2091E" d="M19.1,131.1c-0.2,0-0.4-0.1-0.6-0.3c-1.2-1.8-3.2-7.8-3.3-8c-0.1-0.3,0.1-0.7,0.4-0.8
	c0.3-0.1,0.7,0.1,0.8,0.4c0,0.1,2.1,6,3.2,7.7c0.2,0.3,0.1,0.7-0.2,0.9C19.4,131.1,19.3,131.1,19.1,131.1"/>
<path fill="#D2091E" d="M23.7,105.8c-0.3,0-0.6-0.2-0.7-0.6c-1.6-11-0.7-17.2-0.2-19.3L6.8,84.5c-0.4,0-0.6-0.3-0.6-0.7
	c0.6-10,5-20.9,5-21c0.1-0.3,0.5-0.5,0.9-0.4c0.3,0.1,0.5,0.5,0.4,0.9c0,0.1-4.1,10.4-4.9,20l16.2,1.5c0.2,0,0.4,0.1,0.5,0.3
	c0.1,0.2,0.1,0.4,0.1,0.6c0,0.1-1.8,6.3,0.1,19.5C24.4,105.4,24.2,105.8,23.7,105.8C23.8,105.8,23.7,105.8,23.7,105.8"/>
<path fill="#D2091E" d="M24.4,81.5C24.4,81.5,24.4,81.5,24.4,81.5l-11.6-0.8c-0.4,0-0.6-0.3-0.6-0.7c0-0.4,0.4-0.6,0.7-0.6l11.5,0.8
	c0.4,0,0.6,0.3,0.6,0.7C25,81.2,24.7,81.5,24.4,81.5"/>
<path fill="#D2091E" d="M16,80.9c-0.1,0-0.1,0-0.2,0c-0.4-0.1-0.6-0.5-0.5-0.8c0,0,0.6-2.2,1.3-5.4c0.1-0.4,0.4-0.6,0.8-0.5
	c0.4,0.1,0.6,0.4,0.5,0.8c-0.7,3.2-1.3,5.4-1.3,5.4C16.5,80.7,16.2,80.9,16,80.9"/>
<path fill="#D2091E" d="M14.5,71.7c-0.1,0-0.1,0-0.2,0l-5-1.3c-0.4-0.1-0.6-0.5-0.5-0.8C9,69.2,9.3,69,9.7,69.1l5,1.3
	c0.4,0.1,0.6,0.5,0.5,0.8C15.1,71.5,14.8,71.7,14.5,71.7"/>
<path fill="#D2091E" d="M17.1,100.3c-0.3,0-0.6-0.2-0.7-0.6c0-0.4,0.2-0.7,0.6-0.7l5.9-0.7c0.4,0,0.7,0.2,0.7,0.6
	c0,0.4-0.2,0.7-0.6,0.7L17.1,100.3C17.1,100.3,17.1,100.3,17.1,100.3"/>
<path fill="#D2091E" d="M17.5,89.7C17.4,89.7,17.4,89.7,17.5,89.7L2.2,87.9c-0.4,0-0.6-0.4-0.6-0.7s0.4-0.6,0.7-0.6l15.2,1.8
	c0.4,0,0.6,0.4,0.6,0.7C18.1,89.5,17.8,89.7,17.5,89.7"/>
<path fill="#D2091E" d="M12.8,97.7c-0.3,0-0.6-0.2-0.6-0.5c-0.4-2.1-0.1-8.4,0-8.7c0-0.4,0.3-0.6,0.7-0.6c0.4,0,0.6,0.3,0.6,0.7
	c0,0.1-0.4,6.4,0,8.3c0.1,0.4-0.2,0.7-0.5,0.8C12.9,97.7,12.9,97.7,12.8,97.7"/>
<path fill="#D2091E" d="M26.4,73.5c-0.1,0-0.1,0-0.2,0c-0.3-0.1-0.5-0.5-0.4-0.8C29.4,62.1,33,57,34.4,55.3l-13.6-8.7
	c-0.3-0.2-0.4-0.6-0.2-0.9c5.1-8.6,14-16.4,14.1-16.4c0.3-0.2,0.7-0.2,0.9,0.1c0.2,0.3,0.2,0.7-0.1,0.9c-0.1,0.1-8.4,7.4-13.5,15.6
	l13.7,8.7c0.2,0.1,0.3,0.3,0.3,0.5c0,0.2,0,0.4-0.2,0.5c0,0-4.5,4.8-8.8,17.4C26.9,73.3,26.7,73.5,26.4,73.5"/>
<path fill="#D2091E" d="M38.2,52.1c-0.1,0-0.2,0-0.3-0.1l-9.9-6c-0.3-0.2-0.4-0.6-0.2-0.9c0.2-0.3,0.6-0.4,0.9-0.2l9.9,6
	c0.3,0.2,0.4,0.6,0.2,0.9C38.6,52,38.4,52.1,38.2,52.1"/>
<path fill="#D2091E" d="M30.9,47.7c-0.2,0-0.3-0.1-0.4-0.2c-0.3-0.2-0.3-0.7-0.1-0.9c0,0,1.5-1.7,3.6-4.2c0.2-0.3,0.6-0.3,0.9-0.1
	c0.3,0.2,0.3,0.6,0.1,0.9c-2.1,2.5-3.6,4.2-3.6,4.3C31.3,47.6,31.1,47.7,30.9,47.7"/>
<path fill="#D2091E" d="M33.8,38.9c-0.2,0-0.3-0.1-0.4-0.2l-3.8-3.4c-0.3-0.2-0.3-0.7-0.1-0.9c0.2-0.3,0.7-0.3,0.9,0l3.8,3.4
	c0.3,0.2,0.3,0.7,0.1,0.9C34.2,38.8,34,38.9,33.8,38.9"/>
<path fill="#D2091E" d="M28.6,67.6c-0.1,0-0.2,0-0.2,0l-5.6-2.1c-0.3-0.1-0.5-0.5-0.4-0.8c0.1-0.3,0.5-0.5,0.8-0.4l5.6,2.1
	c0.3,0.1,0.5,0.5,0.4,0.8C29.2,67.4,28.9,67.6,28.6,67.6"/>
<path fill="#D2091E" d="M28.2,56.3c-0.1,0-0.3,0-0.4-0.1l-12.7-8.6c-0.3-0.2-0.4-0.6-0.2-0.9c0.2-0.3,0.6-0.4,0.9-0.2l12.7,8.6
	c0.3,0.2,0.4,0.6,0.2,0.9C28.6,56.2,28.4,56.3,28.2,56.3"/>
<path fill="#D2091E" d="M20.4,61.2c-0.1,0-0.1,0-0.2,0c-0.4-0.1-0.6-0.5-0.5-0.8c0.6-2.1,3.8-7.5,3.9-7.7c0.2-0.3,0.6-0.4,0.9-0.2
	c0.3,0.2,0.4,0.6,0.2,0.9c0,0.1-3.2,5.5-3.8,7.4C21,61,20.7,61.2,20.4,61.2"/>
<path fill="#D2091E" d="M168.7,37.9c-0.2,0-0.4-0.1-0.5-0.3c-0.1-0.1-6.9-8.8-14.8-14.3l-9.5,13.2c-0.1,0.2-0.3,0.3-0.5,0.3
	c-0.2,0-0.4-0.1-0.5-0.2c0,0-4.5-4.8-16.8-9.8c-0.3-0.1-0.5-0.5-0.4-0.9c0.1-0.3,0.5-0.5,0.9-0.4c10.3,4.2,15.2,8.2,16.7,9.6
	l9.4-13.1c0.2-0.3,0.6-0.4,0.9-0.2c8.3,5.6,15.5,14.9,15.6,15c0.2,0.3,0.2,0.7-0.1,0.9C169,37.8,168.8,37.9,168.7,37.9"/>
<path fill="#D2091E" d="M146.9,39.7c-0.1,0-0.3,0-0.4-0.1c-0.3-0.2-0.4-0.6-0.2-0.9l6.5-9.5c0.2-0.3,0.6-0.4,0.9-0.2
	c0.3,0.2,0.4,0.6,0.2,0.9l-6.5,9.5C147.3,39.6,147.1,39.7,146.9,39.7"/>
<path fill="#D2091E" d="M155.7,36.6c-0.2,0-0.3-0.1-0.4-0.2c-2.4-2.2-4-3.9-4-3.9c-0.3-0.3-0.3-0.7,0-0.9c0.3-0.3,0.7-0.3,0.9,0
	c0,0,1.6,1.6,4,3.8c0.3,0.2,0.3,0.7,0,0.9C156.1,36.5,155.9,36.6,155.7,36.6"/>
<path fill="#D2091E" d="M160.3,36.1c-0.2,0-0.3-0.1-0.5-0.2c-0.3-0.3-0.3-0.7,0-0.9l3.7-3.6c0.3-0.3,0.7-0.3,0.9,0
	c0.3,0.3,0.3,0.7,0,0.9l-3.7,3.6C160.7,36,160.5,36.1,160.3,36.1"/>
<path fill="#D2091E" d="M132,29.3c-0.1,0-0.2,0-0.3-0.1c-0.3-0.1-0.5-0.5-0.3-0.9l2.4-5.5c0.1-0.3,0.5-0.5,0.9-0.3
	c0.3,0.1,0.5,0.5,0.3,0.9l-2.4,5.5C132.5,29.2,132.2,29.3,132,29.3"/>
<path fill="#D2091E" d="M143.3,29.5c-0.1,0-0.3,0-0.4-0.1c-0.3-0.2-0.3-0.6-0.1-0.9l9.3-12.2c0.2-0.3,0.6-0.3,0.9-0.1
	c0.3,0.2,0.3,0.6,0.1,0.9l-9.3,12.2C143.7,29.5,143.5,29.5,143.3,29.5"/>
<path fill="#D2091E" d="M146.2,25.8c-0.1,0-0.3,0-0.4-0.1c-0.1,0-5.3-3.6-7.2-4.2c-0.3-0.1-0.5-0.5-0.4-0.8c0.1-0.3,0.5-0.5,0.8-0.4
	c2.1,0.7,7.3,4.2,7.5,4.4c0.3,0.2,0.4,0.6,0.2,0.9C146.6,25.7,146.4,25.8,146.2,25.8"/>
<path fill="#D2091E" d="M185.5,71.3c-0.3,0-0.6-0.2-0.6-0.5c0-0.1-2.6-10.8-7.6-19.1l-14.1,8.1c-0.2,0.1-0.4,0.1-0.6,0
	c-0.2-0.1-0.3-0.2-0.4-0.4c0-0.1-2.1-6.2-11.3-15.9c-0.2-0.3-0.2-0.7,0-0.9c0.3-0.3,0.7-0.2,0.9,0c7.6,8.1,10.5,13.7,11.3,15.6l14-8
	c0.3-0.2,0.7-0.1,0.9,0.2c5.2,8.5,8,20,8,20.1c0.1,0.4-0.1,0.7-0.5,0.8C185.6,71.3,185.6,71.3,185.5,71.3"/>
<path fill="#D2091E" d="M165,64c-0.2,0-0.4-0.1-0.6-0.3c-0.2-0.3-0.1-0.7,0.2-0.9l9.9-6c0.3-0.2,0.7-0.1,0.9,0.2
	c0.2,0.3,0.1,0.7-0.2,0.9l-9.9,6C165.2,64,165.1,64,165,64"/>
<path fill="#D2091E" d="M174.3,64.8c-0.3,0-0.5-0.2-0.6-0.4c-1.3-3-2.1-5.2-2.1-5.2c-0.1-0.3,0-0.7,0.4-0.8c0.3-0.1,0.7,0,0.8,0.4
	c0,0,0.8,2.2,2.1,5.1c0.1,0.3,0,0.7-0.3,0.9C174.4,64.8,174.3,64.8,174.3,64.8"/>
<path fill="#D2091E" d="M178.6,66.3c-0.3,0-0.5-0.2-0.6-0.4c-0.1-0.3,0-0.7,0.4-0.8l4.8-1.8c0.3-0.1,0.7,0,0.9,0.4
	c0.1,0.3,0,0.7-0.4,0.8l-4.8,1.8C178.8,66.2,178.7,66.3,178.6,66.3"/>
<path fill="#D2091E" d="M155.6,48.4c-0.2,0-0.4-0.1-0.5-0.2c-0.2-0.3-0.2-0.7,0-0.9l4.4-4c0.3-0.2,0.7-0.2,0.9,0
	c0.2,0.3,0.2,0.7,0,0.9l-4.4,4C155.9,48.4,155.8,48.4,155.6,48.4"/>
<path fill="#D2091E" d="M165.8,53.3c-0.2,0-0.5-0.1-0.6-0.3c-0.2-0.3-0.1-0.7,0.3-0.9l13.5-7.3c0.3-0.2,0.7-0.1,0.9,0.3
	c0.2,0.3,0.1,0.7-0.3,0.9l-13.5,7.3C166.1,53.2,165.9,53.3,165.8,53.3"/>
<path fill="#D2091E" d="M170,51c-0.2,0-0.4-0.1-0.6-0.3c0-0.1-3.4-5.4-4.8-6.8c-0.3-0.2-0.3-0.7,0-0.9c0.3-0.3,0.7-0.3,0.9,0
	c1.6,1.5,4.9,6.8,5,7.1c0.2,0.3,0.1,0.7-0.2,0.9C170.2,51,170.1,51,170,51"/>
<path fill="#D2091E" d="M188,109.9c0,0-0.1,0-0.1,0c-0.4-0.1-0.6-0.4-0.5-0.8c0-0.1,1.9-11,0.6-20.6l-16.1,1.9c-0.2,0-0.4,0-0.5-0.2
	c-0.1-0.1-0.2-0.3-0.2-0.5c0-0.1,0.5-6.5-4.1-19.1c-0.1-0.3,0.1-0.7,0.4-0.8c0.3-0.1,0.7,0.1,0.8,0.4c3.8,10.5,4.2,16.7,4.2,18.8
	l16-1.8c0.4,0,0.7,0.2,0.7,0.6c1.5,9.9-0.5,21.5-0.5,21.6C188.6,109.7,188.3,109.9,188,109.9"/>
<path fill="#D2091E" d="M172,95.1c-0.3,0-0.6-0.2-0.7-0.6c-0.1-0.4,0.2-0.7,0.6-0.7l11.4-1.6c0.4,0,0.7,0.2,0.7,0.6
	c0.1,0.4-0.2,0.7-0.6,0.7L172,95.1C172.1,95.1,172,95.1,172,95.1"/>
<path fill="#D2091E" d="M180.2,99.5L180.2,99.5c-0.4,0-0.7-0.3-0.7-0.7c0-3.3,0.1-5.6,0.1-5.6c0-0.4,0.3-0.6,0.7-0.6
	c0.4,0,0.6,0.3,0.6,0.7c0,0-0.1,2.3-0.1,5.5C180.9,99.2,180.6,99.5,180.2,99.5"/>
<path fill="#D2091E" d="M188.8,102.8L188.8,102.8l-5.2-0.3c-0.4,0-0.6-0.3-0.6-0.7c0-0.4,0.3-0.6,0.7-0.6l5.1,0.3
	c0.4,0,0.6,0.3,0.6,0.7C189.5,102.5,189.2,102.8,188.8,102.8"/>
<path fill="#D2091E" d="M169.6,77c-0.3,0-0.5-0.2-0.6-0.4c-0.1-0.3,0.1-0.7,0.4-0.8l5.7-1.9c0.3-0.1,0.7,0.1,0.8,0.4
	c0.1,0.3-0.1,0.7-0.4,0.8l-5.7,1.9C169.7,77,169.7,77,169.6,77"/>
<path fill="#D2091E" d="M177.1,85.5c-0.3,0-0.6-0.3-0.7-0.6c0-0.4,0.2-0.7,0.6-0.7l15.3-1.4c0.3,0,0.7,0.2,0.7,0.6
	c0,0.4-0.2,0.7-0.6,0.7L177.1,85.5C177.1,85.5,177.1,85.5,177.1,85.5"/>
<path fill="#D2091E" d="M181.8,85.1c-0.3,0-0.6-0.2-0.7-0.6c0-0.1-1-6.3-1.7-8.2c-0.1-0.3,0-0.7,0.3-0.9c0.3-0.1,0.7,0,0.9,0.3
	c0.9,2,1.8,8.2,1.8,8.5C182.5,84.7,182.2,85.1,181.8,85.1C181.8,85.1,181.8,85.1,181.8,85.1"/>
<path fill="#D2091E" d="M173.7,145.9c-0.1,0-0.3,0-0.4-0.1c-0.3-0.2-0.4-0.6-0.1-0.9c0.1-0.1,6.5-9.1,9.6-18.2l-15.3-5.4
	c-0.2-0.1-0.3-0.2-0.4-0.4c-0.1-0.2,0-0.4,0.1-0.6c0-0.1,3.3-5.7,4.7-18.9c0-0.4,0.4-0.6,0.7-0.6c0.4,0,0.6,0.4,0.6,0.7
	c-1.2,11.1-3.6,16.9-4.5,18.8l15.2,5.4c0.3,0.1,0.5,0.5,0.4,0.8c-3.1,9.5-9.9,19.1-10,19.2C174.1,145.8,173.9,145.9,173.7,145.9"/>
<path fill="#D2091E" d="M176.8,129.2c-0.1,0-0.1,0-0.2,0l-11-3.6c-0.3-0.1-0.5-0.5-0.4-0.8c0.1-0.3,0.5-0.5,0.8-0.4l11,3.6
	c0.3,0.1,0.5,0.5,0.4,0.8C177.3,129,177.1,129.2,176.8,129.2"/>
<path fill="#D2091E" d="M171.3,133.1c-0.1,0-0.2,0-0.3-0.1c-0.3-0.2-0.5-0.6-0.3-0.9c1.5-2.9,2.6-4.9,2.6-5c0.2-0.3,0.6-0.4,0.9-0.3
	c0.3,0.2,0.4,0.6,0.3,0.9c0,0-1.1,2-2.6,4.9C171.7,133,171.5,133.1,171.3,133.1"/>
<path fill="#D2091E" d="M177.5,139.9c-0.1,0-0.2,0-0.3-0.1l-4.5-2.5c-0.3-0.2-0.4-0.6-0.3-0.9c0.2-0.3,0.6-0.4,0.9-0.3l4.5,2.5
	c0.3,0.2,0.4,0.6,0.3,0.9C178,139.8,177.7,139.9,177.5,139.9"/>
<path fill="#D2091E" d="M177.5,109.1C177.5,109.1,177.5,109.1,177.5,109.1l-6-0.8c-0.4,0-0.6-0.4-0.6-0.7c0-0.4,0.4-0.6,0.7-0.6
	l5.9,0.8c0.4,0,0.6,0.4,0.6,0.7C178.1,108.9,177.9,109.1,177.5,109.1"/>
<path fill="#D2091E" d="M188.8,124.8c-0.1,0-0.2,0-0.2,0l-14.3-5.5c-0.3-0.1-0.5-0.5-0.4-0.9c0.1-0.3,0.5-0.5,0.9-0.4l14.3,5.5
	c0.3,0.1,0.5,0.5,0.4,0.9C189.4,124.6,189.1,124.8,188.8,124.8"/>
<path fill="#D2091E" d="M179,121c-0.1,0-0.1,0-0.2,0c-0.3-0.1-0.5-0.5-0.4-0.8c0-0.1,1.9-6.1,2-8.1c0-0.4,0.3-0.7,0.7-0.6
	c0.4,0,0.6,0.3,0.6,0.7c-0.1,2.2-2,8.2-2.1,8.4C179.5,120.8,179.2,121,179,121"/>
<path fill="#D2091E" d="M148.3,172.8c-0.2,0-0.4-0.1-0.6-0.3c-0.2-0.3-0.1-0.7,0.2-0.9c0.1-0.1,9.4-6,15.7-13.3l-12.2-10.7
	c-0.1-0.1-0.2-0.3-0.2-0.5c0-0.2,0.1-0.4,0.3-0.5c0.1,0,5.2-4,11.4-15.8c0.2-0.3,0.6-0.4,0.9-0.3c0.3,0.2,0.4,0.6,0.3,0.9
	c-5.2,9.8-9.6,14.3-11.2,15.7l12.1,10.7c0.3,0.2,0.3,0.6,0.1,0.9c-6.4,7.7-16.3,14-16.4,14.1C148.5,172.8,148.4,172.8,148.3,172.8"
	/>
<path fill="#D2091E" d="M157.4,158.4c-0.2,0-0.3-0.1-0.4-0.2l-8.9-7.4c-0.3-0.2-0.3-0.7-0.1-0.9c0.2-0.3,0.6-0.3,0.9-0.1l8.9,7.4
	c0.3,0.2,0.3,0.7,0.1,0.9C157.8,158.3,157.6,158.4,157.4,158.4"/>
<path fill="#D2091E" d="M150.9,160.1c-0.2,0-0.4-0.1-0.5-0.2c-0.2-0.3-0.2-0.7,0.1-0.9c2.4-2.2,4.2-3.6,4.2-3.6
	c0.3-0.2,0.7-0.2,0.9,0.1c0.2,0.3,0.2,0.7-0.1,0.9c0,0-1.8,1.5-4.2,3.6C151.2,160,151,160.1,150.9,160.1"/>
<path fill="#D2091E" d="M154.1,168.7c-0.2,0-0.4-0.1-0.5-0.2l-3.3-4c-0.2-0.3-0.2-0.7,0.1-0.9c0.3-0.2,0.7-0.2,0.9,0.1l3.3,4
	c0.2,0.3,0.2,0.7-0.1,0.9C154.4,168.6,154.3,168.7,154.1,168.7"/>
<path fill="#D2091E" d="M165.6,140.1c-0.1,0-0.2,0-0.3-0.1l-5.2-2.9c-0.3-0.2-0.4-0.6-0.3-0.9c0.2-0.3,0.6-0.4,0.9-0.3l5.2,2.9
	c0.3,0.2,0.4,0.6,0.3,0.9C166.1,140,165.8,140.1,165.6,140.1"/>
<path fill="#D2091E" d="M170.3,158.8c-0.2,0-0.3-0.1-0.4-0.2l-11.2-10.4c-0.3-0.2-0.3-0.7,0-0.9c0.3-0.3,0.7-0.3,0.9,0l11.2,10.4
	c0.3,0.2,0.3,0.7,0,0.9C170.6,158.8,170.5,158.8,170.3,158.8"/>
<path fill="#D2091E" d="M162.5,151.6c-0.1,0-0.3,0-0.4-0.1c-0.3-0.2-0.3-0.6-0.1-0.9c0,0,4.1-4.9,4.9-6.8c0.2-0.3,0.5-0.5,0.9-0.3
	c0.3,0.2,0.5,0.5,0.3,0.9c-0.9,2-4.9,6.8-5.1,7C162.9,151.5,162.7,151.6,162.5,151.6"/>
<path fill="#D2091E" d="M112.1,186.2c-0.3,0-0.6-0.2-0.7-0.6c0-0.4,0.2-0.7,0.6-0.7c0.1,0,11.1-1.5,19.8-5.6l-6.6-14.8
	c-0.1-0.2-0.1-0.4,0-0.6c0.1-0.2,0.3-0.3,0.4-0.3c0.1,0,6.4-1.5,17-9.6c0.3-0.2,0.7-0.2,0.9,0.1c0.2,0.3,0.2,0.7-0.1,0.9
	c-8.8,6.8-14.7,9-16.7,9.6l6.6,14.7c0.1,0.3,0,0.7-0.3,0.9C124,184.6,112.3,186.2,112.1,186.2C112.2,186.2,112.1,186.2,112.1,186.2"
	/>
<path fill="#D2091E" d="M126.4,176.9c-0.2,0-0.5-0.1-0.6-0.4l-5-10.4c-0.2-0.3,0-0.7,0.3-0.9c0.3-0.2,0.7,0,0.9,0.3l5,10.4
	c0.2,0.3,0,0.7-0.3,0.9C126.6,176.9,126.5,176.9,126.4,176.9"/>
<path fill="#D2091E" d="M119.7,175.7c-0.3,0-0.5-0.2-0.6-0.5c-0.1-0.3,0.1-0.7,0.4-0.8c3.1-1,5.4-1.5,5.4-1.5
	c0.4-0.1,0.7,0.1,0.8,0.5c0.1,0.4-0.1,0.7-0.5,0.8c0,0-2.2,0.6-5.3,1.5C119.9,175.7,119.8,175.7,119.7,175.7"/>
<path fill="#D2091E" d="M119.1,184.9c-0.3,0-0.6-0.2-0.6-0.5l-1.3-5c-0.1-0.4,0.1-0.7,0.5-0.8c0.4-0.1,0.7,0.1,0.8,0.5l1.3,5
	c0.1,0.4-0.1,0.7-0.5,0.8C119.2,184.9,119.2,184.9,119.1,184.9"/>
<path fill="#D2091E" d="M141.5,163.6c-0.2,0-0.4-0.1-0.5-0.3l-3.5-4.8c-0.2-0.3-0.2-0.7,0.1-0.9c0.3-0.2,0.7-0.2,0.9,0.1l3.5,4.8
	c0.2,0.3,0.2,0.7-0.1,0.9C141.7,163.6,141.6,163.6,141.5,163.6"/>
<path fill="#D2091E" d="M137.9,182.6c-0.3,0-0.5-0.2-0.6-0.4l-5.9-14.2c-0.1-0.3,0-0.7,0.4-0.9c0.3-0.1,0.7,0,0.9,0.4l5.9,14.2
	c0.1,0.3,0,0.7-0.4,0.9C138.1,182.6,138,182.6,137.9,182.6"/>
<path fill="#D2091E" d="M133.9,172.8c-0.2,0-0.5-0.1-0.6-0.4c-0.2-0.3,0-0.7,0.3-0.9c0.1,0,5.7-2.8,7.3-4.1c0.3-0.2,0.7-0.2,0.9,0.1
	c0.2,0.3,0.2,0.7-0.1,0.9c-1.7,1.4-7.3,4.2-7.5,4.3C134.1,172.8,134,172.8,133.9,172.8"/>
<path fill="#D2091E" d="M93.8,187.4c-9.6,0-19.9-3-20-3c-0.4-0.1-0.6-0.5-0.4-0.8c0.1-0.4,0.5-0.6,0.8-0.4c0.1,0,10.7,3,20.4,2.9
	l0-16.2c0-0.2,0.1-0.4,0.2-0.5c0.2-0.1,0.3-0.2,0.5-0.1c0.1,0,6.4,1.2,19.4-1.9c0.4-0.1,0.7,0.1,0.8,0.5c0.1,0.4-0.1,0.7-0.5,0.8
	c-10.8,2.6-17.1,2.3-19.2,2l0,16.1c0,0.4-0.3,0.6-0.6,0.7C94.8,187.4,94.3,187.4,93.8,187.4"/>
<path fill="#D2091E" d="M90.9,181.7c-0.4,0-0.7-0.3-0.7-0.6l-0.3-11.5c0-0.4,0.3-0.7,0.6-0.7c0.4,0,0.7,0.3,0.7,0.6l0.3,11.5
	C91.5,181.4,91.2,181.7,90.9,181.7L90.9,181.7z"/>
<path fill="#D2091E" d="M90.8,178.7c0,0-0.1,0-0.1,0c0,0-2.3-0.4-5.5-0.8c-0.4,0-0.6-0.4-0.6-0.7c0-0.4,0.4-0.6,0.7-0.6
	c3.2,0.4,5.5,0.8,5.5,0.8c0.4,0.1,0.6,0.4,0.5,0.8C91.4,178.4,91.1,178.7,90.8,178.7"/>
<path fill="#D2091E" d="M81,186.1c0,0-0.1,0-0.1,0c-0.4-0.1-0.6-0.4-0.5-0.8l0.8-5.1c0.1-0.4,0.4-0.6,0.8-0.5
	c0.4,0.1,0.6,0.4,0.5,0.8l-0.8,5.1C81.6,185.8,81.3,186.1,81,186.1"/>
<path fill="#D2091E" d="M110,175.7c-0.3,0-0.6-0.2-0.6-0.5l-1.3-5.8c-0.1-0.4,0.2-0.7,0.5-0.8c0.4-0.1,0.7,0.1,0.8,0.5l1.3,5.8
	c0.1,0.4-0.1,0.7-0.5,0.8C110.1,175.7,110,175.7,110,175.7"/>
<path fill="#D2091E" d="M99.1,191.6L99.1,191.6c-0.4,0-0.7-0.3-0.7-0.7l0.4-15.3c0-0.4,0.3-0.7,0.7-0.6c0.4,0,0.7,0.3,0.6,0.7
	L99.7,191C99.7,191.4,99.4,191.6,99.1,191.6"/>
<path fill="#D2091E" d="M99.3,181c-0.4,0-0.6-0.3-0.7-0.6c0-0.4,0.3-0.7,0.6-0.7c0.1,0,6.4-0.2,8.3-0.8c0.4-0.1,0.7,0.1,0.8,0.4
	c0.1,0.3-0.1,0.7-0.4,0.8C105.9,180.8,99.6,181,99.3,181L99.3,181z"/>
<path fill="#D2091E" d="M59.6,178.7c-0.1,0-0.2,0-0.3-0.1c-9.3-3.8-18.2-11.5-18.3-11.5c-0.3-0.2-0.3-0.7-0.1-0.9
	c0.2-0.3,0.7-0.3,0.9-0.1c0.1,0.1,8.5,7.2,17.3,11.1l6.7-14.8c0.1-0.2,0.2-0.3,0.4-0.4c0.2,0,0.4,0,0.6,0.1c0.1,0,5.4,3.8,18.5,6.2
	c0.4,0.1,0.6,0.4,0.5,0.8c-0.1,0.4-0.4,0.6-0.8,0.5c-10.9-2.1-16.5-5-18.3-6l-6.6,14.7C60.1,178.6,59.9,178.7,59.6,178.7"/>
<path fill="#D2091E" d="M58,171.8c-0.1,0-0.2,0-0.3-0.1c-0.3-0.1-0.5-0.5-0.4-0.9l4.5-10.6c0.1-0.3,0.5-0.5,0.9-0.4
	c0.3,0.1,0.5,0.5,0.4,0.9l-4.5,10.6C58.5,171.6,58.3,171.8,58,171.8"/>
<path fill="#D2091E" d="M59.2,169c-0.1,0-0.3,0-0.4-0.1c0,0-1.9-1.3-4.7-3c-0.3-0.2-0.4-0.6-0.2-0.9c0.2-0.3,0.6-0.4,0.9-0.2
	c2.8,1.7,4.7,3,4.7,3c0.3,0.2,0.4,0.6,0.2,0.9C59.6,168.9,59.4,169,59.2,169"/>
<path fill="#D2091E" d="M47.2,171.6c-0.1,0-0.3,0-0.4-0.1c-0.3-0.2-0.4-0.6-0.2-0.9l2.9-4.3c0.2-0.3,0.6-0.4,0.9-0.2
	c0.3,0.2,0.4,0.6,0.2,0.9l-2.9,4.3C47.6,171.5,47.4,171.6,47.2,171.6"/>
<path fill="#D2091E" d="M77.9,174.2c0,0-0.1,0-0.1,0c-0.4-0.1-0.6-0.4-0.5-0.8l1.3-5.8c0.1-0.4,0.4-0.6,0.8-0.5
	c0.4,0.1,0.6,0.4,0.5,0.8l-1.3,5.9C78.5,174,78.2,174.2,77.9,174.2"/>
<path fill="#D2091E" d="M61.4,184.2c-0.1,0-0.2,0-0.3-0.1c-0.3-0.2-0.5-0.6-0.3-0.9l6.7-13.8c0.2-0.3,0.6-0.5,0.9-0.3
	c0.3,0.2,0.5,0.6,0.3,0.9L62,183.8C61.9,184,61.6,184.2,61.4,184.2"/>
<path fill="#D2091E" d="M74,177.4C74,177.4,74,177.4,74,177.4c-2.2-0.3-8.1-2.7-8.3-2.8c-0.3-0.1-0.5-0.5-0.4-0.9
	c0.1-0.3,0.5-0.5,0.9-0.4c0.1,0,5.9,2.4,7.9,2.7c0.4,0,0.6,0.4,0.6,0.7C74.7,177.1,74.4,177.4,74,177.4"/>
<path fill="#D2091E" d="M54.9,157.7c-0.1,0-0.3,0-0.4-0.1c-9.2-6.3-13.1-11.2-14.3-12.9l-12,10.8c-0.3,0.2-0.7,0.2-0.9,0
	c-6.9-7.2-12-17.8-12.1-17.9c-0.2-0.3,0-0.7,0.3-0.9c0.3-0.2,0.7,0,0.9,0.3c0,0.1,4.9,10,11.4,17.1l12.1-10.9
	c0.1-0.1,0.3-0.2,0.5-0.2c0.2,0,0.4,0.1,0.5,0.3c0,0.1,3.4,5.6,14.4,13.2c0.3,0.2,0.4,0.6,0.2,0.9C55.4,157.6,55.1,157.7,54.9,157.7
	"/>
<path fill="#D2091E" d="M29.1,148.6c-0.2,0-0.3-0.1-0.5-0.2c-0.2-0.3-0.2-0.7,0-0.9l8.4-7.9c0.3-0.3,0.7-0.2,0.9,0
	c0.2,0.3,0.2,0.7,0,0.9l-8.4,7.9C29.4,148.6,29.3,148.6,29.1,148.6"/>
<path fill="#D2091E" d="M31.3,146.5c-0.2,0-0.4-0.1-0.6-0.3c0,0-1.2-1.9-3.1-4.6c-0.2-0.3-0.1-0.7,0.2-0.9c0.3-0.2,0.7-0.1,0.9,0.2
	c1.9,2.7,3.1,4.6,3.1,4.6c0.2,0.3,0.1,0.7-0.2,0.9C31.6,146.5,31.4,146.5,31.3,146.5"/>
<path fill="#D2091E" d="M19.3,144.2c-0.2,0-0.4-0.1-0.6-0.3c-0.2-0.3-0.1-0.7,0.2-0.9l4.3-2.8c0.3-0.2,0.7-0.1,0.9,0.2
	c0.2,0.3,0.1,0.7-0.2,0.9l-4.3,2.8C19.5,144.1,19.4,144.2,19.3,144.2"/>
<path fill="#D2091E" d="M46.4,158.8c-0.1,0-0.3,0-0.4-0.1c-0.3-0.2-0.4-0.6-0.1-0.9l3.5-4.9c0.2-0.3,0.6-0.4,0.9-0.1
	c0.3,0.2,0.4,0.6,0.1,0.9l-3.5,4.9C46.8,158.8,46.6,158.8,46.4,158.8"/>
<path fill="#D2091E" d="M27.2,161.4c-0.2,0-0.4-0.1-0.5-0.2c-0.2-0.3-0.2-0.7,0.1-0.9l11.7-10c0.3-0.2,0.7-0.2,0.9,0.1
	c0.2,0.3,0.2,0.7-0.1,0.9l-11.7,10C27.5,161.3,27.4,161.4,27.2,161.4"/>
<path fill="#D2091E" d="M41.5,160.2c-0.1,0-0.2,0-0.3-0.1c-1.9-1.1-6.2-5.6-6.4-5.8c-0.3-0.3-0.2-0.7,0-0.9c0.3-0.3,0.7-0.2,0.9,0
	c0,0,4.4,4.6,6.2,5.6c0.3,0.2,0.4,0.6,0.2,0.9C42,160.1,41.8,160.2,41.5,160.2"/>
<path fill="#878787" d="M132.3,239.6L97,239.3l-35.1,0.3c0,0-0.1,0-0.1,0.1c0,0,0,0.1,0.1,0.1l35.1,0.3h0l35.3-0.3
	C132.3,239.8,132.4,239.8,132.3,239.6C132.4,239.7,132.3,239.6,132.3,239.6"/>
<path fill="#878787" d="M53.3,249.9c-0.2-1.5-1.2-2.2-2.3-2.2c-2,0-2.8,2-2.8,4.2c0,2.4,0.8,4.3,2.8,4.3c1.4,0,2.3-1.3,2.4-3h1.1
	c-0.2,2.6-1.5,4.1-3.6,4.1c-2.6,0-3.8-2.4-3.8-5.4c0-3,1.4-5.5,3.9-5.5c1.7,0,3.2,1.2,3.4,3.4H53.3z"/>
<path fill="#878787" d="M61.6,256.2c2,0,2.9-2.2,2.9-4.3c0-2.1-0.8-4.3-2.9-4.3c-2,0-2.9,2.2-2.9,4.3
	C58.8,254.1,59.6,256.2,61.6,256.2 M61.6,246.6c2.6,0,4,2.6,4,5.4c0,2.8-1.3,5.4-4,5.4c-2.6,0-4-2.6-4-5.4
	C57.7,249.2,59,246.6,61.6,246.6"/>
<path fill="#878787" d="M75.9,253.4c0,2.6-1.2,4-3.3,4c-2.1,0-3.4-1.2-3.4-4v-6.6h1.1v6.6c0,1.8,0.8,2.8,2.3,2.8
	c1.4,0,2.2-1,2.2-2.8v-6.6h1.1V253.4z"/>
<path fill="#878787" d="M83.4,251.6c1,0,1.9-0.3,1.9-1.8c0-1-0.4-1.8-1.5-1.8h-2.7v3.6H83.4z M80,246.8h3.9c1.6,0,2.5,1.1,2.5,2.7
	c0,1.2-0.4,2.3-1.4,2.6v0c1,0.2,1.2,1.1,1.2,2.1c0.1,1,0,2.1,0.5,2.9h-1.2c-0.3-0.4-0.1-1.5-0.3-2.6c-0.1-1-0.3-1.9-1.4-1.9h-2.7
	v4.4H80V246.8z"/>
<path fill="#878787" d="M96,249.9c-0.2-1.5-1.2-2.2-2.3-2.2c-2,0-2.8,2-2.8,4.2c0,2.4,0.8,4.3,2.8,4.3c1.4,0,2.3-1.3,2.4-3h1.1
	c-0.2,2.6-1.5,4.1-3.6,4.1c-2.6,0-3.8-2.4-3.8-5.4c0-3,1.4-5.5,3.9-5.5c1.7,0,3.2,1.2,3.4,3.4H96z"/>
<polygon fill="#878787" points="100.9,246.8 102,246.8 102,251.3 106.4,251.3 106.4,246.8 107.5,246.8 107.5,257.2 106.4,257.2 
	106.4,252.4 102,252.4 102,257.2 100.9,257.2 "/>
<polygon fill="#878787" points="111.6,246.8 117.3,246.8 117.3,248 112.7,248 112.7,251.3 117,251.3 117,252.4 112.7,252.4 
	112.7,256 117.3,256 117.3,257.2 111.6,257.2 "/>
<polygon fill="#878787" points="124.3,257.2 123,257.2 120.1,246.8 121.3,246.8 123.6,255.8 123.7,255.8 126,246.8 127.2,246.8 "/>
<polygon fill="#878787" points="130.4,246.8 136.1,246.8 136.1,248 131.5,248 131.5,251.3 135.8,251.3 135.8,252.4 131.5,252.4 
	131.5,256 136.1,256 136.1,257.2 130.4,257.2 "/>
<polygon fill="#878787" points="139.8,246.8 140.9,246.8 140.9,256 145.3,256 145.3,257.2 139.8,257.2 "/>
<path fill="#878787" d="M35.4,223.9h6.2l-3.2-7.9L35.4,223.9z M34.4,226.1l-1,2.7c-0.1,0.4-0.4,1-0.4,1.2c0,0.2,0.1,0.4,0.5,0.4v0.4
	H30v-0.4c0.5,0,0.6-0.1,1.2-1.6l5.2-13.6c0.3-0.8,0.5-1.1,0.5-1.3c0-0.2-0.2-0.4-0.5-0.4v-0.4h4.2v0.4c-0.3,0-0.5,0.1-0.5,0.4
	s0.2,0.6,0.5,1.4l5.5,13.4c0.7,1.6,0.7,1.7,1.3,1.7v0.4h-4v-0.4c0.5,0,0.6-0.2,0.6-0.5c0-0.2-0.1-0.3-0.4-1.1l-1.1-2.7H34.4z"/>
<path fill="#878787" d="M64.9,231.6h-0.3c0-0.5-0.1-0.7-0.7-0.7H52.4v-0.4c0.6,0,0.7-0.2,0.7-0.9v-12.1c0-0.8-0.1-0.9-0.7-0.9V216
	h3.2v0.4c-0.6,0-0.7,0.2-0.7,0.9V229h9c0.6,0,0.7-0.2,0.7-1h0.3V231.6z"/>
<path fill="#878787" d="M80.6,218.7h-0.3c0-0.6-0.1-0.8-0.7-0.8h-4.4v11.6c0,0.8,0.1,0.9,0.7,0.9v0.4h-3.3v-0.4
	c0.6,0,0.7-0.2,0.7-0.9v-11.6h-4.4c-0.6,0-0.7,0.2-0.7,0.8h-0.3v-3.5H68c0,0.6,0.1,0.8,0.7,0.8h10.7c0.6,0,0.7-0.2,0.7-0.8h0.3
	V218.7z"/>
<path fill="#878787" d="M85.8,230.8v-0.4c0.6,0,0.7-0.2,0.7-0.9v-12.1c0-0.8-0.1-0.9-0.7-0.9V216H89v0.4c-0.6,0-0.7,0.2-0.7,0.9
	v12.1c0,0.8,0.1,0.9,0.7,0.9v0.4H85.8z"/>
<path fill="#878787" d="M107.2,218.7h-0.3c0-0.6-0.1-0.8-0.7-0.8h-4.4v11.6c0,0.8,0.1,0.9,0.7,0.9v0.4h-3.3v-0.4
	c0.6,0,0.7-0.2,0.7-0.9v-11.6h-4.4c-0.6,0-0.7,0.2-0.7,0.8h-0.3v-3.5h0.3c0,0.6,0.1,0.8,0.7,0.8h10.7c0.6,0,0.7-0.2,0.7-0.8h0.3
	V218.7z"/>
<path fill="#878787" d="M125.2,226.1c0,3.8-3.4,4.9-6.3,4.9c-2.9,0-6.3-1.1-6.3-4.9v-8.7c0-0.8-0.1-0.9-0.6-0.9V216h3v0.4
	c-0.5,0-0.6,0.2-0.6,0.9v8.3c0,2.6,1.8,3.5,4.5,3.5c2.7,0,4.5-0.9,4.5-3.5v-8.3c0-0.8-0.1-0.9-0.6-0.9V216h3v0.4
	c-0.5,0-0.6,0.2-0.6,0.9V226.1z"/>
<path fill="#878787" d="M134.8,229h4.1c3.5,0,4.9-2.5,4.9-5.5c0-3-1.4-5.5-4.9-5.5h-4.1V229z M133.1,217.4c0-0.8-0.1-0.9-0.7-0.9
	V216h6.9c4.5,0,6.5,3.2,6.5,7.4c0,4.2-1.9,7.4-6.5,7.4h-6.9v-0.4c0.6,0,0.7-0.2,0.7-0.9V217.4z"/>
<path fill="#878787" d="M152.1,217.4c0-0.8-0.1-0.9-0.7-0.9V216h11.5c0.6,0,0.7-0.2,0.7-0.8h0.3v3.5h-0.3c0-0.6-0.1-0.8-0.7-0.8h-9
	v4.4h6.3c0.6,0,0.7-0.2,0.7-0.8h0.3v3.5H161c0-0.6-0.1-0.8-0.7-0.8h-6.3v4.8h9.3c0.6,0,0.7-0.2,0.7-0.8h0.3v3.5h-0.3
	c0-0.6-0.1-0.8-0.7-0.8h-11.8v-0.4c0.5,0,0.7-0.2,0.7-0.9V217.4z"/>
</svg>
