<svg id="Component_26_1" data-name="Component 26 – 1" xmlns="http://www.w3.org/2000/svg" xmlns:xlink="http://www.w3.org/1999/xlink" width="172" height="151.722" viewBox="0 0 172 151.722">
  <g id="Group_22" data-name="Group 22" style="mix-blend-mode: multiply;isolation: isolate">
    <g id="Group_21" data-name="Group 21">
      <path id="Path_5" data-name="Path 5" d="M111.029,53.7c1.6-.125,2.984-1.338,4.224-2.227a18.533,18.533,0,0,0,1.936-1.581,16.738,16.738,0,0,0,1.3-1.7c.038.048.42.622.509.508s-.265-.543-.287-.64c-.078-.346.163-.515.346-.784a4.165,4.165,0,0,0,.288-2.49,4.755,4.755,0,0,0-.454-2.378,24.561,24.561,0,0,1-1.19-2.155,13.263,13.263,0,0,0-3.021-4.1,26.321,26.321,0,0,0-3.973-3.39c-.613-.409-1.321-.713-1.961-1.093a18.323,18.323,0,0,0-2.4-1.105,13.183,13.183,0,0,0-2.47-.753,7.055,7.055,0,0,0-2.871-.261,5.393,5.393,0,0,0-1.235.345c-.241.117-.336.337-.544.458-.107.062-.3.03-.434.1a5.086,5.086,0,0,0-.446.361,11.391,11.391,0,0,1-1.208.637c-.215.114-.706.325-.773.583-.06.229.131.3-.02.59a2.661,2.661,0,0,1-.621.648,6.948,6.948,0,0,0-.912.99,30.528,30.528,0,0,0-3.42,5.078c-.419.847-.82,1.7-1.225,2.551-.156.327-1.447,2.046-.709,2.18-.223.554-.456,1.105-.664,1.665-.228.613-.274,1.265-.487,1.869-.163.462-.236.983-.443,1.424a3.646,3.646,0,0,0-.328.623c-.078.311-.082.6-.189.918a8.125,8.125,0,0,0-.286,1.557c-.08.625-.283,1.245-.413,1.864-.058.278-.126.555-.188.833-.056.251-.029.538-.085.773-.1.419-.674.45-1.066.575a12.45,12.45,0,0,1-1.489.2c-.714.129-1.436.2-2.139.386-1.233.321-2.487.563-3.727.855-2.609.616-5.25,1.167-7.889,1.639a112.454,112.454,0,0,1-15.4,1.99c-.632.024-1.247.1-1.874.173s-1.276.014-1.918.047c-1.282.067-2.555.118-3.83.226-.549.047-1.09.248-1.63.265-.65.019-1.307-.07-1.966-.047-1.319.047-2.637.1-3.955.156-1.334.053-2.662.212-4,.282-1.4.074-2.79.076-4.185.137-1.3.057-2.6.006-3.9.015a24.142,24.142,0,0,1-3.727-.123c-1.258-.193-2.5-.263-3.767-.387a5.691,5.691,0,0,1-1.324-.4,16.417,16.417,0,0,0-1.878-.359,14.3,14.3,0,0,1-1.845-.5,3.937,3.937,0,0,1-1.693-.851c-.285-.377-.207-1.178-.252-1.633-.067-.678-.055-1.36-.146-2.035-.188-1.383-.216-2.777-.276-4.169-.027-.629-.043-1.261-.093-1.889-.047-.6-.2-1.178-.225-1.777-.1-2.633-.64-5.245-.844-7.874-.189-2.449-.488-4.86-.559-7.312-.075-2.564-.112-5.122-.195-7.682-.088-2.707-.228-5.42-.4-8.125s-.722-5.414-1.064-8.106C8.964,7.944,8.71,6.6,8.652,5.253a8.074,8.074,0,0,0-.424-3.292C7.862,1.168,7.32.1,6.359.005,5.62-.065,4.653.64,4.032,1a4.172,4.172,0,0,0-1.082.86c-.371.435-.513.911-1.01,1.235-.33.215-.892.4-1.121.733A7.736,7.736,0,0,0,.244,5.19,1.9,1.9,0,0,0,.151,6.836c.268.583.611,1.134.916,1.7a11.586,11.586,0,0,1,1.16,3.628,18.293,18.293,0,0,1,.524,4c-.036.677-.149,1.349-.174,2.028s.019,1.356-.037,2.032a9.662,9.662,0,0,0-.1,1.89,1.343,1.343,0,0,0,.113.487c.153.247.37.2.582.365.354.273.236.77.248,1.154.019.635,0,1.247-.019,1.881-.021.666-.008,1.335,0,2,0,.3.008.594.019.892s-.079.62-.058.881a7.235,7.235,0,0,1,.112.718c0,.28-.006.559-.01.839-.008.655.04,1.3.042,1.958a15.12,15.12,0,0,0,.069,1.723c.075.644,0,1.264.028,1.909.06,1.38.182,2.751.31,4.125.127,1.358.164,2.73.406,4.073.212,1.174.371,2.365.484,3.557.244,2.576.16,5.169.361,7.743a20.272,20.272,0,0,0,.519,3.952c.314,1.1.716,2.17,1.042,3.271A10.042,10.042,0,0,1,7.105,65.4a3.2,3.2,0,0,0,.6,1.468,5.719,5.719,0,0,0,2.868,1.855,21.917,21.917,0,0,0,3.715,1.045c1.255.2,2.557.29,3.822.432,1.319.147,2.611.23,3.939.3,1.261.069,2.547.217,3.808.233.589.008,1.224-.011,1.812-.06a7.665,7.665,0,0,1,1.665.259,13.666,13.666,0,0,0,1.662.188c.264,0,.247-.082.452-.14a2.059,2.059,0,0,1,.687-.023c.431.024.8.13,1.034-.3.116-.208.043-.295.262-.371a4.231,4.231,0,0,1,.72-.034c1.291-.153,2.592-.3,3.873-.518,2.549-.437,5.095-.823,7.654-1.189a13.453,13.453,0,0,1,1.809-.116,4.5,4.5,0,0,0,1.589-.483,6.1,6.1,0,0,1,1.564-.33,1.6,1.6,0,0,0,.6-.156c.188-.126.206-.281.454-.363a5.065,5.065,0,0,1,.616-.09c.239-.049.42-.176.648-.239.483-.134,1.023-.1,1.515-.217a2.474,2.474,0,0,0,.787-.258c.169-.119.2-.266.4-.361a5.625,5.625,0,0,1,1.636-.186,28.059,28.059,0,0,0,3.826-.462c1.258-.321,2.522-.521,3.792-.783.584-.12,1.162-.269,1.749-.371a3.473,3.473,0,0,0,.609-.128c.256-.095.393-.3.622-.406a5.774,5.774,0,0,1,.646-.135c.236-.078.456-.187.7-.253.64-.175,1.3-.317,1.951-.453.3-.062.6-.1.9-.161.278-.058.388-.207.63-.3a1.885,1.885,0,0,1,.565-.019,6.2,6.2,0,0,0,.934-.214c1.173-.256,2.387-.433,3.54-.761.616-.175,1.226-.35,1.854-.481.38-.079,1.2-.075,1.5-.343.14-.125.138-.285.293-.422a1.278,1.278,0,0,1,.688-.258c.333-.023.409.05.408.335,0,.03-.206.52.066.457.134-.03.151-.825.234-.953.114-.172.59-.485.663-.1.034.176-.16.526-.181.723a5.392,5.392,0,0,0-.037.6c.006.51.255.9.163,1.439-.012.073-.323,1.4.079,1.169a3.278,3.278,0,0,0,0-.385,6.229,6.229,0,0,1,.2-.92c.145-.573.276-1.132.407-1.705a4.431,4.431,0,0,1,.556-1.4,2.988,2.988,0,0,1,.519,1.788,24.11,24.11,0,0,0-.35,2.534c-.07.875-.136,1.751-.223,2.625a5.925,5.925,0,0,1-.119,1.186,2.688,2.688,0,0,0-.273,1.027c.013.813-.027,1.627-.014,2.441.006.368-.051.728-.049,1.091a6.057,6.057,0,0,1-.031,1.469,27.616,27.616,0,0,0-.292,5.032c-.024.781-.118,1.574-.11,2.355a1.609,1.609,0,0,0,.086.474c-.046-.166.127.191.129.162,0,.074-.082.087-.087.128a3.534,3.534,0,0,0-.11.431c-.036.8-.049,1.609-.021,2.412.032.923.207,1.891.16,2.81a8.1,8.1,0,0,0-.168,1.165,4.508,4.508,0,0,1,.073.971,21.168,21.168,0,0,0,.142,3.038,48.589,48.589,0,0,0,.324,5.361c.053.312.182.591.227.9.052.357.024.733.054,1.092.027.335.166.378.273.649a2.35,2.35,0,0,1,.02.5,8.157,8.157,0,0,0,.176.846,1.805,1.805,0,0,1-.034.933c-.1.4.072.439.126.8.027.179-.1.363-.087.544.011.158.121.272.117.411s-.1.246-.118.372c-.049.318.085.407.22.663a1.753,1.753,0,0,1,.239.807c-.028.113-.317.256-.313.365,0,.061.306.336.359.462.079.184.143.176.139.4q-.069.117-.132.236a.154.154,0,0,0,.1.191.767.767,0,0,1,.084.181c0,.025-.1.277-.1.341,0,.249.06.526.065.79a4.005,4.005,0,0,0,.291,1.069c.117.417.152.887.228,1.317.645,3.6.765,7.313,1.128,10.95a18.485,18.485,0,0,0,.3,2.063c.042.2.028.4.07.6.039.18.177.337.186.524,0,.095-.12.171-.127.243a2.99,2.99,0,0,0,.123.75,21.984,21.984,0,0,1,.159,2.4c.067.955.166,1.907.239,2.862.145,1.918.316,3.835.483,5.751.086.977.226,1.967.251,2.949a3.1,3.1,0,0,0,.006.432c.03.176.165.346.179.511.034.415-.054.888-.029,1.322a7.009,7.009,0,0,0,.213,1.279,6.455,6.455,0,0,1,.059,1.365c.018.362.331.7.32,1.053-.01.332-.229.69-.238,1.054s.006.547.406.558c.473.014.387-.075.48.454.07.4.088.81.16,1.206.051.284.367,1.08.109,1.313.033-.03-.1-.18-.167-.127s-.068.328-.07.4c-.014.432.147.474.456.262.178-.122.226-.278.472-.33.142-.03.462.084.559.021.239-.156-.119-.171-.054-.408.07-.26.477-.182.655-.282.292-.165.166-.294.339-.575.184-.3.409-.273.733-.219.354.059.4.067.649-.219a.661.661,0,0,0,.16-.829c-.156-.385-.414-.729-.574-1.11a12.977,12.977,0,0,1-.457-2.828c-.024-.144-.012-1.141-.273-1.077-.187.045-.056.736-.343.463a4.517,4.517,0,0,1-.137-1.119,2.993,2.993,0,0,1,.062-1.214c.119.386.091.786.175,1.174.059.274.345.648.446.254a3.189,3.189,0,0,0-.093-1.05c-.071-.3-.311-.51-.236-.812.03-.124.173-.2.2-.315a.937.937,0,0,0-.108-.482,2.648,2.648,0,0,1-.228-1.292,4.036,4.036,0,0,0,.161-1.182,7.033,7.033,0,0,1-.17-1.458,2.3,2.3,0,0,0-.2-1.05,8.218,8.218,0,0,1,.017-1.288c-.041-.388-.242-.721-.276-1.108-.043-.476-.005-.958-.042-1.435-.036-.459.059-.9.042-1.356a7.018,7.018,0,0,1-.134-1.393,11.935,11.935,0,0,0-.136-2.511c-.068-1.012.01-2.03-.084-3.039-.093-.986-.176-1.983-.223-2.972s-.169-1.954-.23-2.934c-.026-.42-.011-.843-.036-1.263-.014-.228-.07-.437-.105-.66a5.56,5.56,0,0,0-.04-.656c-.036-.12-.162-.212-.173-.331-.014-.158.136-.317.132-.5a6.581,6.581,0,0,0-.114-.932c-.167-.9.081-1.873-.118-2.794a6.448,6.448,0,0,1-.191-1.066c-.029-.457.033-.965-.019-1.412-.036-.31-.216-.548-.241-.875-.036-.461-.064-.925-.095-1.385-.023-.352.027-.683.025-1.024,0-.191-.084-.257-.131-.417a.727.727,0,0,1-.03-.406,18.043,18.043,0,0,0-.2-2.478c-.041-.443.04-.887-.018-1.325-.023-.175-.1-.347-.121-.519-.027-.239.064-.457.052-.7-.022-.419-.012-.84-.03-1.262s.033-.8.021-1.219c-.03-1.025-.186-2.042-.168-3.07.017-.966.006-1.916-.046-2.881s-.082-1.943-.084-2.916a23.545,23.545,0,0,0,.262-2.751c-.016-.136-.141-.262-.132-.4s.164-.244.19-.386c.035-.194-.079-.4-.029-.608a4.724,4.724,0,0,0,.162-.474c.118-.81.088-1.679.147-2.5.026-.37.128-.7.13-1.089a8.313,8.313,0,0,1,.128-1.565c.077-.4.1-.809.165-1.211a9.226,9.226,0,0,0,.32-1.282c0-.26-.221-.445-.193-.663.016-.128.193-.283.236-.421.048-.157.069-.35.1-.509.112-.559.245-1.145.408-1.749.1-.367.071-.731.168-1.1a5.934,5.934,0,0,0,.071-.977,2.253,2.253,0,0,1,.051-.566c.055-.162.184-.287.235-.453.116-.378-.153-.714,0-1.086.075-.186.258-.3.336-.48a1.678,1.678,0,0,0,.066-.524,2.6,2.6,0,0,1,.162-1.056,2.592,2.592,0,0,0,.317-1.054,6.286,6.286,0,0,1,.086-1.3c.108-.332.412-.589.336-.964-.038-.188-.152-.213-.121-.426.027-.186.2-.323.243-.5.04-.149-.01-.309.016-.466.032-.195.125-.413.172-.611.1-.428.106-.87.209-1.291.045-.187.156-.343.2-.522s.021-.376.062-.561a1.362,1.362,0,0,1,.5-.923,4.9,4.9,0,0,1,1.369-.232c.528-.083,1.056-.16,1.585-.236a23.373,23.373,0,0,1,2.64-.408,10.854,10.854,0,0,0,2.537-.759,6.026,6.026,0,0,1,2.732-.547,13.384,13.384,0,0,1-3.775,1.176c-.664.175-1.319.38-1.978.57a2.219,2.219,0,0,1-.8.051c-.08,0-.476.047-.493.175a17.892,17.892,0,0,0,3.2-.488c1.155-.267,2.318-.526,3.476-.777a10.422,10.422,0,0,0,1.3-.491c.491-.171,1.03-.169,1.528-.339.479-.164.962-.34,1.432-.528a5.344,5.344,0,0,1,1.475-.549m1.551-7.727-.237.22c-.171-.274-.407-.476-.4-.827l.64.607m-4.96,3.69c-.983.4-1.87,1-2.877,1.376s-2.056.725-3.08,1.1a61.272,61.272,0,0,1-6.288,1.86c.033-.555.294-1.021.369-1.551a2.678,2.678,0,0,1,.415-1.012,8.852,8.852,0,0,0,.42-1.313c.177-.493.4-.933.542-1.436a13.478,13.478,0,0,1,.661-1.487,14.191,14.191,0,0,1,.6-1.482c.514-.919,1.083-1.8,1.623-2.723a23.933,23.933,0,0,1,1.622-2.344,8.144,8.144,0,0,1,2.088-2.1c.255-.149.226-.158.513-.143a2.693,2.693,0,0,1,.916.274c.324.2.507.587.827.832a3.707,3.707,0,0,1,.482.41c.049.053-.01.185.034.223.119.1.48-.108.48.168,0,.186-.28.077-.269.14.084.478.943.382,1.234.557a6.157,6.157,0,0,1,1.342,1.265,3.583,3.583,0,0,0,.565.4,5.545,5.545,0,0,1,.71.724c.171.189.526.463.574.733.066.38-.055.19-.278.354-.046.034.764.789.822.9a6.825,6.825,0,0,1,.276.763c.14.393-.016.5-.317.773a14.108,14.108,0,0,1-4.007,2.747m51.224,58.12c-.016-.356.113-.406-.289-.514-.127-.034-.31.019-.423-.066-.208-.156-.032-.255-.125-.428-.132-.247-.469-.125-.736-.236-.358-.149-.581-.5-.9-.7-.426-.27-.807-.144-1.271-.234a7.3,7.3,0,0,1-1.324-.588c-.289-.117-.635-.07-.936-.16a.626.626,0,0,1-.38-.206c-.069-.114.032-.28-.093-.347a4.148,4.148,0,0,0-.5.08c-.184,0-.418.021-.594.01a6.753,6.753,0,0,0-1.4.019,4.075,4.075,0,0,0-2.387,1.771,5.421,5.421,0,0,1-2.182,1.7c-.177.082-.422.08-.585.167-.14.075-.221.223-.367.3-.185.1-.413.091-.6.176s-.394.221-.6.319a7.049,7.049,0,0,1-1.326.455c-.339.092-.182.176-.415.367-.169.139-.31.109-.518.118a10.448,10.448,0,0,0-2.454.709c-.408.125-.894.2-1.32.29a7.652,7.652,0,0,1-1.164.273c-.812.047-1.433.365-2.176.428-.16.013-.247-.058-.4-.064s-.358.082-.526.1a13.561,13.561,0,0,1-1.886-.026c-.516-.032-1-.208-1.515-.262a7.025,7.025,0,0,1-1.3-.154c-.363-.108-.7-.3-1.057-.409a6.058,6.058,0,0,1-1.23-.448,5.083,5.083,0,0,1-1.9-2.378,8.261,8.261,0,0,1-.463-1.366,6.36,6.36,0,0,0-.125-.79c-.082-.234-.293-.395-.379-.624-.155-.417-.223-.889-.347-1.308-.141-.471-.46-.872-.637-1.332-.148-.387-.284-.753-.4-1.141-.13-.415-.589-.529-.837-.892-.32-.469-.265-.921-.473-1.4-.179-.413-.47-.644-.856-.432-.161.088-.291.26-.484.284-.226.028-.426-.13-.65-.148a1.57,1.57,0,0,0-1.19.59,1.351,1.351,0,0,1-1.126.46,1.862,1.862,0,0,0-.627.034c-.311.086-.3.186-.506.373-.168.151-.4.14-.6.226s-.336.243-.535.314c-.26.094-.416.048-.64.247a3.169,3.169,0,0,0-.382.531,4.064,4.064,0,0,0-1.016,2.016,8.362,8.362,0,0,0-.052,1.563,6.339,6.339,0,0,0,.036,1.335c.1.344.218.542-.043.846a9.309,9.309,0,0,1-.852.626,8.3,8.3,0,0,0-.8,1.095,2.412,2.412,0,0,0-.569,1.226c-.073.39-.079.709-.173,1.079-.114.448.167.88,0,1.306a2.344,2.344,0,0,0-.245,1.31c.027.2.215.567-.084.549-.137-.008-.125-.2-.2-.2-.31-.01.184.572.269.639.273.211.694.277.887.609.184.315-.161.877.391.857.342-.012.648-.451.852-.686a1.754,1.754,0,0,1,.3-.331c.2-.141.215.069.3-.189.07-.206-.116-.28.054-.5.13-.167.338-.154.5-.251.313-.188.512-.535.834-.713.34-.188.82-.152.995-.588.079-.2-.07-.555.1-.71.139-.124.315.009.466-.036.188-.056.224-.228.393-.3.312-.127.814.288.792-.333-.018-.515-.346-.53.019-1.022a1.329,1.329,0,0,0,.306-1.186,3.025,3.025,0,0,1,.43-1.459c.095-.241.146-.77.334-.958.265-.263.53.561.653.81.382.776.491,1.529.82,2.339.154.38.352.746.48,1.137.151.465.508.832.65,1.306.054.182,0,.419.095.578.036.059.138.084.17.143.056.1.066.214.122.333a4.362,4.362,0,0,0,.662,1.123,14.158,14.158,0,0,0,2.058,2,8.075,8.075,0,0,1,1.14.65,1.463,1.463,0,0,0,.344.3c.171.085.322.042.492.1.063.023.086.151.151.178a1.179,1.179,0,0,0,.4.044,2.039,2.039,0,0,1,.72.112c.5.2.99.218,1.487.384.179.06.387.186.557.233.3.082.533-.077.82-.132a7.989,7.989,0,0,1,1.474-.023,6.125,6.125,0,0,0,.73-.079c.276-.033.476.094.732.084.187-.008.328-.119.525-.133a2.559,2.559,0,0,0,.8-.074c.416-.144.822-.3,1.239-.447s.889-.16,1.287-.341c.35-.16.489-.332.855-.311a1.133,1.133,0,0,0,.7-.149,2.6,2.6,0,0,1,.453-.124c.777-.213,1.535-.514,2.311-.741a11.518,11.518,0,0,0,2.539-.962c.862-.5,1.894-.67,2.718-1.225.694-.467,1.531-.663,2.213-1.169a8.234,8.234,0,0,1,1.167-.538c.4-.217.812-.4,1.19-.644.394-.249.78-.483,1.174-.737.49-.314.762-.189,1.162.214.317.321.651.6.962.923a2.822,2.822,0,0,1,.537.853c.192.367.483.668.677,1.029a10.178,10.178,0,0,0,.871,1.2,5.546,5.546,0,0,1,.635,1.011,4.071,4.071,0,0,0,.565,1.211,20.093,20.093,0,0,1,1.238,1.759c.519.772.368,1.831,1.112,2.51a4.217,4.217,0,0,1,.821.912,7.536,7.536,0,0,0,.7,1.1,2.981,2.981,0,0,0,.308.244,2.376,2.376,0,0,1,.382.509c.3.428.607.794.868,1.254.214.379.549.554.785.9.107.158.15.356.255.513.156.232.3.238.55.373a1.64,1.64,0,0,1,.734.86c.164.349.491.465.794.774.332.338.759.482,1.107.777a7.233,7.233,0,0,1,1,.98c.068.086.579.576.6.156.012-.278-.611-.486-.76-.66-.6-.7.536.019.631-.069.19-.179-.167-.771-.275-.882-.334-.341-.741-.615-1.076-.958-.6-.621-1.28-1.125-1.815-1.788-.174-.216-.892-.678-.8-.986.133-.461.548.291.635.4a4.919,4.919,0,0,0,.877,1.046c.1.067.207.045.318.134.193.154.127.3.26.466.179.218.532.165.749.343.232.191.393.686.772.662.635-.039-.341-1.028-.213-1.38a.388.388,0,0,0-.3.1c.114-.521-1.236-1.5-1-1.782,0,0,.4-.086.467-.022.1.1.019.355.066.483a2,2,0,0,0,.48.574,4.38,4.38,0,0,1,.945,1.37,2.947,2.947,0,0,0,.11.413c.039.075.245.157.224.265-.007.036-.749.064-.306.416.284.225.185-.271.439-.249a1.957,1.957,0,0,1,.373.433c-.016.256-.182.016-.287.04-.162.039-.164-.067-.066.225a.775.775,0,0,0,.7.543c.062,0,.061-.158.166-.117.083.032.107.131.175.178a6.622,6.622,0,0,0,.768.505c.106.056.473.3.606.133.081-.1-.233-.378-.315-.461-.241-.245-.643-.454-.792-.725a4.408,4.408,0,0,1-.3-.744c-.011-.184.211-.278.149-.452-.027-.073-.239-.108-.3-.171-.077-.083-.071-.239-.154-.324-.106-.109-.283-.083-.361-.158a2.9,2.9,0,0,1-.308-.583c-.016-.031-.3-.719-.044-.565-.042-.025.1.277.091.258a2.173,2.173,0,0,0,.5.516,8.68,8.68,0,0,1,.71.748c.221.23.491.248.718.448.089.078.128.213.214.287.067.057.164.095.221.141a3.578,3.578,0,0,1,.54.541c.186.227.677.918,1.021.949.132-.236-.263-.352-.153-.591.169-.368-.068-.407-.3-.685-.313-.375.054-.3.086-.7.036-.445-.544-.848-.752-1.208-.24-.413-.555-.765-.819-1.162-.553-.833-1.224-1.586-1.778-2.418a26.632,26.632,0,0,1-1.705-2.92,12.824,12.824,0,0,0-.648-1.121c-.125-.2-.152-.414-.254-.616s-.258-.274-.37-.436a3.222,3.222,0,0,1-.284-.9,4.557,4.557,0,0,0-.617-1.291c-.561-.785-.849-1.722-1.359-2.568-.489-.813-.98-1.618-1.535-2.372-.284-.387-.39-.829-.715-1.209a5.681,5.681,0,0,1-.694-.932c-.179-.324-.2-.738-.53-.959s-.681-.358-.7-.817" transform="translate(0 0)" fill="#e45d50"/>
    </g>
  </g>
</svg>
