<?xml version="1.0" encoding="utf-8"?>
<!-- Generator: Adobe Illustrator 15.1.0, SVG Export Plug-In . SVG Version: 6.00 Build 0)  -->
<!DOCTYPE svg PUBLIC "-//W3C//DTD SVG 1.1//EN" "http://www.w3.org/Graphics/SVG/1.1/DTD/svg11.dtd">
<svg version="1.1" id="Layer_1" xmlns="http://www.w3.org/2000/svg" xmlns:xlink="http://www.w3.org/1999/xlink" x="0px" y="0px"
	 width="556.178px" height="231.076px" viewBox="27.818 280.462 556.178 231.076"
	 enable-background="new 27.818 280.462 556.178 231.076" xml:space="preserve">
<g>
	<g>
		<path fill="#9B945F" d="M526.907,373.653c-4.945-3.941-7.171-10.339-5.733-16.289c1.669-6.924,7.959-11.823,14.976-11.931
			c7.171-0.124,13.77,4.791,15.47,11.869c1.453,6.012-0.865,12.457-5.919,16.366c12.209-3.585,21.358-12.642,22.811-23.12
			c2.287-16.444-14.944-32.285-32.361-32.038c-16.892,0.248-33.506,15.64-31.342,31.945
			C506.198,360.856,515.007,369.913,526.907,373.653z"/>
	</g>
	<g>
		<g>
			<path fill="#9B945F" d="M582.188,371.52c-5.688,3.431-12.564,8.686-18.406,16.505c-2.164,2.905-5.116,6.908-7.218,12.827
				c-2.056,5.78-2.735,11.405-2.735,11.405c-0.448,2.565-0.401,5.271-1.391,9.443c-0.541,2.318-0.835,3.539-1.592,5.131
				c-0.773,1.669-2.38,4.93-6.043,7.171c-3.276,1.993-6.568,2.133-8.145,2.086c-1.576,0.047-4.868-0.093-8.145-2.086
				c-3.663-2.226-5.255-5.502-6.043-7.171c-0.757-1.592-1.051-2.813-1.592-5.131c-0.989-4.173-0.942-6.878-1.391-9.443
				c0,0-0.695-5.625-2.735-11.405c-2.102-5.919-5.038-9.921-7.218-12.827c-5.842-7.82-12.734-13.074-18.406-16.505
				c24.311-3.122,35.406,13.569,39.641,20.539c2.658,4.328,4.281,6.244,5.131,7.063c0.047,0.046,0.093,0.093,0.14,0.123
				c0.123,0.093,0.34,0.217,0.603,0.217c0.278,0,0.495-0.108,0.618-0.217c0.016,0,0.016,0,0.016,0
				c0.031-0.03,0.077-0.077,0.108-0.107c0.016-0.016,0.016-0.016,0.03-0.031c0.851-0.819,2.473-2.735,5.131-7.063
				C546.797,385.089,557.878,368.398,582.188,371.52z"/>
		</g>
	</g>
</g>
<g>
	<path fill="#4A3041" d="M507.852,503.038c0,2.287-0.865,4.234-2.581,5.857c-1.73,1.623-3.802,2.427-6.228,2.427
		c-2.427,0-4.513-0.804-6.229-2.427c-1.73-1.623-2.581-3.57-2.581-5.857v-4.203h4.467v4.203c0,1.175,0.417,2.148,1.236,2.921
		s1.854,1.159,3.122,1.159c1.251,0,2.302-0.387,3.168-1.159c0.865-0.772,1.298-1.746,1.298-2.921v-4.977l-12.101-19.89
		c-0.557-0.881-0.943-1.994-1.175-3.308v-4.976c0-2.288,0.865-4.235,2.581-5.857c1.715-1.623,3.802-2.427,6.229-2.427
		c2.426,0,4.497,0.804,6.228,2.427c1.716,1.622,2.581,3.569,2.581,5.857v4.095h-4.343v-4.095c0-1.175-0.433-2.164-1.298-2.983
		c-0.865-0.804-1.917-1.221-3.168-1.221c-1.252,0-2.288,0.401-3.122,1.221c-0.819,0.819-1.236,1.809-1.236,2.983v4.976
		l12.101,20.106c0.464,0.804,0.819,1.839,1.051,3.091V503.038z"/>
	<path fill="#4A3041" d="M512.55,487.691c0-3.539,1.082-6.336,3.23-8.392c2.147-2.056,4.636-3.091,7.464-3.091h2.473v4.204h-2.473
		c-1.808,0.154-3.291,0.865-4.466,2.147c-1.175,1.283-1.809,2.968-1.886,5.023v15.47c0,1.175,0.433,2.148,1.298,2.921
		c0.866,0.772,1.917,1.159,3.169,1.159c1.251,0,2.287-0.387,3.121-1.159c0.819-0.772,1.236-1.746,1.236-2.921v-33.15
		c0-1.174-0.417-2.163-1.236-2.982c-0.818-0.804-1.854-1.221-3.121-1.221c-1.252,0-2.318,0.401-3.169,1.221
		c-0.865,0.819-1.298,1.809-1.298,2.982v4.096h-4.343v-4.096c0-2.287,0.865-4.234,2.581-5.856c1.716-1.623,3.802-2.427,6.229-2.427
		c2.426,0,4.497,0.804,6.228,2.427c1.716,1.622,2.581,3.569,2.581,5.856v41.434h-4.466v-1.545c-1.021,1.035-2.474,1.545-4.343,1.545
		c-2.427,0-4.513-0.804-6.229-2.426c-1.73-1.623-2.581-3.57-2.581-5.857V487.691L512.55,487.691z"/>
	<path fill="#4A3041" d="M539.348,511.322h-4.466v-66.285h4.466V511.322z"/>
	<path fill="#4A3041" d="M561.68,503.038c0,2.287-0.865,4.234-2.581,5.857c-1.73,1.623-3.802,2.427-6.228,2.427
		c-2.427,0-4.513-0.804-6.229-2.427c-1.73-1.623-2.581-3.57-2.581-5.857v-33.135c0-2.287,0.866-4.234,2.581-5.856
		c1.716-1.623,3.802-2.427,6.229-2.427c2.426,0,4.497,0.804,6.228,2.427c1.716,1.622,2.581,3.569,2.581,5.856V503.038z
		 M557.322,503.038v-33.135c0-1.174-0.434-2.163-1.299-2.982c-0.865-0.804-1.916-1.221-3.168-1.221s-2.287,0.401-3.122,1.221
		c-0.819,0.819-1.236,1.809-1.236,2.982v33.135c0,1.175,0.417,2.148,1.236,2.921s1.854,1.159,3.122,1.159
		c1.252,0,2.303-0.387,3.168-1.159C556.889,505.202,557.322,504.213,557.322,503.038z"/>
	<path fill="#4A3041" d="M566.378,461.62h4.343v1.762c1.098-1.175,2.581-1.762,4.467-1.762c2.426,0,4.497,0.804,6.228,2.427
		c1.716,1.622,2.581,3.569,2.581,5.856v41.434h-4.466v-41.434c0-1.174-0.418-2.147-1.236-2.921
		c-0.819-0.772-1.854-1.159-3.122-1.159c-1.252,0-2.318,0.387-3.168,1.159c-0.865,0.773-1.299,1.824-1.299,3.153v41.201h-4.342
		V461.62H566.378z"/>
</g>
<g>
	<g>
		<rect x="376.396" y="321.54" fill="#4A3041" width="20.786" height="189.828"/>
	</g>
	<g>
		<g>
			<polygon fill="#4A3041" points="82.233,485.837 82.233,511.368 27.818,511.368 27.818,280.462 49.872,280.462 49.872,485.837 			
				"/>
		</g>
	</g>
	<g>
		<path fill="#4A3041" d="M152.799,484.122c-0.757,4.714-3.585,27.246-28.622,27.246c-25.036,0-27.88-22.532-28.622-27.246
			c-0.757-4.714-0.34-162.582-0.34-162.582h20.787c0,0,0,136.401,0,152.506v0.911c0,1.206,0.108,2.257,0.293,3.184c0,0,0,0,0,0.016
			c1.128,3.663,4.436,6.29,7.866,6.29c3.431,0,6.754-2.627,7.867-6.306v-0.016c0.186-0.911,0.293-1.962,0.293-3.152
			c0-10.602,0-153.417,0-153.417h20.787C153.139,321.54,153.556,479.408,152.799,484.122z"/>
	</g>
	<g>
		<path fill="#4A3041" d="M294.1,484.122c-0.757,4.714-3.585,27.246-28.622,27.246c-25.036,0-27.88-22.532-28.622-27.246
			c-0.757-4.714-0.34-162.582-0.34-162.582h20.787c0,0,0,136.401,0,152.506c-0.216,1.437-0.093,2.828,0.293,4.095c0,0,0,0,0,0.016
			c1.468,7.171,7.867,6.29,7.867,6.29s6.414,0.881,7.866-6.306v-0.016c0.186-0.911,0.293-1.962,0.293-3.152
			c0-10.602,0-153.417,0-153.417h20.787C294.424,321.54,294.842,479.408,294.1,484.122z"/>
	</g>
	<g>
		<path fill="#4A3041" d="M452.787,321.54h-22.455l-20.431,189.828h19.643l2.905-26.983h17.819l3.307,26.983h19.643L452.787,321.54z
			 M435.37,457.2l5.425-50.273l6.15,50.273H435.37z"/>
	</g>
	<g>
		<polygon fill="#4A3041" points="184.991,321.54 165.688,321.54 185.006,415.813 165.441,511.368 184.728,511.368 194.65,462.918 
			204.572,511.368 223.875,511.368 204.309,415.813 223.612,321.54 204.309,321.54 194.65,368.707 		"/>
	</g>
	<g>
		<g>
			<path fill="#4A3041" d="M364.187,486.007c0-15.717,0-49.146,0-49.146s0.294-12.271-4.637-20.322
				c1.159-2.396,2.38-5.439,3.276-9.057c1.221-4.914,1.438-9.226,1.36-12.487v-41.588c0-28.993-20.168-31.697-20.523-31.867
				s-18.005,0-18.005,0h-19.271v189.998h20.168V429.83c3.075-0.047,7.943-0.108,10.185-0.047c0.03,0.016,0.093,0.016,0.154,0.016
				c0.077,0,0.154,0,0.217,0.016c0.51,0.016,1.02,0.154,1.282,0.232c0.14,0.03,0.217,0.077,0.217,0.077
				c1.622,0.571,5.424,2.333,5.424,8.283c0,8.269-0.633,47.384,0,56.688c0.434,6.413,1.453,10.787,1.453,10.787
				c0.278,1.159,1.329,5.502,1.329,5.502h21.374C368.189,511.368,364.187,501.74,364.187,486.007z M344.019,393.914
				c-0.263,3.292-1.67,8.531-7.897,8.624c-4.575,0.077-7.65,0.063-9.582,0.047v-54.802c1.932,0.016,4.822,0.016,8.314-0.015
				c0.772-0.016,1.499,0.092,2.164,0.263c0,0,0.17,0.046,0.463,0.139c0.634,0.232,1.84,0.742,3.045,1.7
				c0.077,0.046,0.124,0.108,0.186,0.155c0.664,0.587,1.221,1.221,1.669,1.823c0.031,0.031,0.047,0.078,0.077,0.108
				c0.835,1.252,1.453,2.875,1.546,4.945c0.016,0.371,0.016,0.757,0,1.175v35.839H344.019z"/>
		</g>
	</g>
</g>
<g>
	<path fill="#4A3041" d="M568.928,435.131v-9.103h-2.117v-1.809h6.29v1.809h-2.117v9.103H568.928z M574.229,435.131V424.22h2.858
		l1.592,7.666l1.546-7.666h2.89v10.911h-1.87v-7.372l-1.7,7.372h-1.808l-1.623-7.341v7.341H574.229z"/>
</g>
</svg>
