<?xml version="1.0" encoding="utf-8"?>
<!-- Generator: Adobe Illustrator 22.1.0, SVG Export Plug-In . SVG Version: 6.00 Build 0)  -->
<svg version="1.1" id="Calque_1" xmlns="http://www.w3.org/2000/svg" xmlns:xlink="http://www.w3.org/1999/xlink" x="0px" y="0px"
	 viewBox="0 0 400.8 129" style="enable-background:new 0 0 400.8 129;" xml:space="preserve">
<style type="text/css">
	.st0{fill:#4E5255;}
</style>
<g>
	<g>
		<path class="st0" d="M286.6,123.8v-3.5h1.4c1,0,2.1,0.4,2.1,1.7c0,1.3-1.1,1.7-2.1,1.7H286.6z M285.4,128.8L285.4,128.8l1.1,0.1
			l0.1-0.1v-3.9h0.5l0.1,0.1l2.2,2.8c0.3,0.3,0.9,1.2,1.9,1.2c0.1,0,0.2,0,0.3,0l0.1-0.1l0.2-1l-0.1-0.1c-0.1,0-0.1,0-0.2,0
			c-0.5,0-0.9-0.3-1.1-0.6l-1.7-2l-0.3-0.3c0,0,2.8-0.1,2.8-2.8c0-1.1-0.5-1.9-1.2-2.3c-0.6-0.4-1.3-0.5-2.1-0.5h-2.5l-0.1,0.1
			V128.8z M270.9,128.8L270.9,128.8l4.9,0.1l0.1-0.1l0.1-1l-0.1-0.1h-3.8v-3.4h3l0.1-0.1l0.3-1l-0.1-0.1h-3.3v-2.9h3.8l0.1-0.1v-1
			l-0.1-0.1H271l-0.1,0.1V128.8z M258.3,128.8L258.3,128.8l1.1,0.1l0.1-0.1v-8.4h2.6l0.1-0.1l0.3-1l-0.1-0.1h-6.7l-0.1,0.1v1
			l0.1,0.1h2.6V128.8z M241.7,128.1c0.7,0.6,1.9,0.9,2.6,0.9c1.4,0,3.1-0.7,3.1-2.8c0-3.3-4.3-2.3-4.3-4.4c0-0.9,0.5-1.6,1.7-1.6
			c0.7,0,1.4,0.2,1.8,0.5l0.1,0l0.5-0.8l0-0.1c-0.1-0.1-1-0.7-2.5-0.7c-1.5,0-2.8,1-2.8,2.7c0,3.1,4.3,2.1,4.3,4.4
			c0,1.2-0.9,1.6-1.9,1.6c-0.6,0-1.5-0.3-2-0.6l-0.1,0l-0.6,0.8L241.7,128.1z M225.2,125.5c0,2.3,1.5,3.5,3.7,3.5
			c2.3,0,3.7-1.2,3.7-3.5v-6.3l-0.1-0.1l-1.1,0.1l-0.1,0.1v6c0,1.7-1,2.5-2.5,2.5c-1.4,0-2.5-0.8-2.5-2.5v-6.2l-0.1-0.1l-1.1,0.1
			l-0.1,0.1V125.5z M209.8,128.8L209.8,128.8l1.1,0.1l0.1-0.1v-4.5h0.6l0.1,0.1l2.5,3.4c0.1,0.2,0.8,1.2,1.9,1.2c0.1,0,0.2,0,0.3,0
			l0.1-0.1l0.2-1l-0.1-0.1c-0.1,0-0.1,0-0.2,0c-0.6,0-1-0.4-1.1-0.6l-2.2-3l-0.4-0.5l0.4-0.4l3.4-4.1l-0.1-0.1l-1.5,0.2l-0.1,0.1
			l-3,3.8l-0.1,0.1H211v-4l-0.1-0.1l-1.1,0.1l-0.1,0.1V128.8z M182.8,125.5c0,2.3,1.5,3.5,3.7,3.5c1.8,0,3-0.7,3.5-2.1l0-0.1
			l-0.9-0.4l-0.1,0c-0.4,0.9-1.2,1.3-2.4,1.3c-1.5,0-2.5-0.8-2.5-2.5v-2.7c0-1.7,1.1-2.5,2.5-2.5c1,0,1.9,0.5,2.2,1.3l0.1,0l1-0.4
			l0-0.1c-0.5-1.3-1.8-2-3.3-2c-2.2,0-3.7,1.2-3.7,3.5V125.5z M172.1,128.8L172.1,128.8l1.1,0.1l0.1-0.1v-9.6l-0.1-0.1l-1.1,0.1
			l-0.1,0.1V128.8z M157.8,123.8v-3.5h1.4c1,0,2.1,0.4,2.1,1.7c0,1.3-1.1,1.7-2.1,1.7H157.8z M156.6,128.8L156.6,128.8l1.1,0.1
			l0.1-0.1v-3.9h0.5l0.1,0.1l2.2,2.8c0.3,0.3,0.9,1.2,1.9,1.2c0.1,0,0.2,0,0.3,0l0.1-0.1l0.2-1l-0.1-0.1c-0.1,0-0.1,0-0.2,0
			c-0.5,0-0.9-0.3-1.1-0.6l-1.7-2l-0.3-0.3c0,0,2.8-0.1,2.8-2.8c0-1.1-0.5-1.9-1.2-2.3c-0.6-0.4-1.3-0.5-2.1-0.5h-2.5l-0.1,0.1
			V128.8z M141.4,127.7v-7.3h2.1c1.5,0,2.5,0.8,2.5,2.5v2.4c0,1.7-1.1,2.5-2.5,2.5H141.4z M140.2,128.8L140.2,128.8l3.3,0.1
			c2.2,0,3.7-1.2,3.7-3.5v-2.6c0-2.3-1.5-3.5-3.7-3.5h-3.2l-0.1,0.1V128.8z M125.7,128.8L125.7,128.8l4.9,0.1l0.1-0.1l0.1-1
			l-0.1-0.1h-3.8v-3.4h3l0.1-0.1l0.3-1l-0.1-0.1h-3.3v-2.9h3.8l0.1-0.1v-1l-0.1-0.1h-4.9l-0.1,0.1V128.8z M128.3,118.4L128.3,118.4
			l1.8-1.8l-0.1-0.1h-1.5l-0.1,0.1l-0.9,1.5l0,0.1L128.3,118.4z M109.3,125.5c0,2.3,1.5,3.5,3.7,3.5c1.8,0,3-0.7,3.5-2.1l0-0.1
			l-0.9-0.4l-0.1,0c-0.4,0.9-1.2,1.3-2.4,1.3c-1.5,0-2.5-0.8-2.5-2.5v-2.7c0-1.7,1.1-2.5,2.5-2.5c1,0,1.9,0.5,2.2,1.3l0.1,0l1-0.4
			l0-0.1c-0.5-1.3-1.8-2-3.3-2c-2.2,0-3.7,1.2-3.7,3.5V125.5z"/>
	</g>
	<rect y="41.4" class="st0" width="10.2" height="42.4"/>
	<polygon class="st0" points="41.4,55.1 52.9,83.8 64.2,83.8 46.7,40.4 	"/>
	<g>
		<path class="st0" d="M86.1,62.5c0-1.7,0.2-3.3,0.5-5c0.4-1.7,0.9-3.3,1.6-4.8c0.7-1.6,1.5-3,2.5-4.4c1-1.4,2.2-2.6,3.5-3.7
			c1.3-1.1,2.7-2,4.3-2.7c1.6-0.7,3.3-1.2,5.1-1.4c-2.7,0.9-4.6,3.5-5.7,7.9c-0.3,1.1-0.5,2.3-0.7,3.6c-0.2,1.2-0.3,2.5-0.3,3.7
			c-0.1,1.2-0.1,2.4-0.1,3.5c0,1.1,0,2.2,0,3.1v0.3c0,3.4,0.1,6.3,0.4,8.9c0.3,2.6,0.6,4.8,1.2,6.6c0.5,1.8,1.2,3.3,2,4.4
			c0.8,1.1,1.8,1.8,2.8,2.2c-2.4-0.3-4.7-1.1-6.8-2.3c-2.1-1.2-3.9-2.9-5.4-4.8c-1.5-2-2.7-4.2-3.6-6.8
			C86.5,68.2,86.1,65.4,86.1,62.5"/>
	</g>
	<polygon class="st0" points="130.3,55.1 141.8,83.8 153.1,83.8 135.5,40.4 	"/>
	<g>
		<path class="st0" d="M170.4,56.5c1.5,0.6,3.1,1.4,4.6,2.1c1.6,0.8,2.9,1.7,4.2,2.8c1.2,1.1,2.2,2.4,3,4c0.8,1.6,1.2,3.5,1.2,5.7
			c0,1.4-0.2,2.7-0.7,3.9c-0.5,1.3-1.1,2.4-2,3.5c-0.9,1.1-1.9,2-3,2.9c-1.2,0.8-2.5,1.5-3.8,2.1c0.9-0.5,1.6-1.1,2.1-1.8
			c0.5-0.7,0.9-1.3,1.1-2c0.2-0.6,0.4-1.2,0.4-1.8c0-0.5,0.1-0.9,0.1-1.2c0-1.5-0.3-2.9-1-4c-0.6-1.1-1.5-2.1-2.5-2.9
			c-1-0.8-2.2-1.5-3.6-2.2c-1.4-0.6-2.8-1.2-4.2-1.8c-1.6-0.6-3.1-1.3-4.6-2c-1.5-0.7-2.8-1.5-4-2.5c-1.2-1-2.1-2.1-2.8-3.5
			c-0.7-1.3-1.1-3-1.1-4.9c0-1.7,0.2-3.2,0.7-4.6c0.5-1.4,1.2-2.7,2.2-3.7c0.9-1.1,2.1-2,3.4-2.7c1.3-0.7,2.8-1.2,4.5-1.4
			c-0.8,0.3-1.5,0.7-2,1.1c-0.5,0.5-1,1-1.3,1.6c-0.3,0.6-0.6,1.2-0.7,1.9c-0.1,0.7-0.2,1.3-0.2,1.9c0,1.3,0.3,2.4,0.8,3.3
			c0.6,0.9,1.3,1.8,2.2,2.5c0.9,0.7,2,1.4,3.2,1.9C167.9,55.4,169.2,56,170.4,56.5"/>
		<path class="st0" d="M204.9,56.5c1.5,0.6,3.1,1.4,4.6,2.1c1.6,0.8,2.9,1.7,4.2,2.8c1.2,1.1,2.2,2.4,3,4c0.8,1.6,1.2,3.5,1.2,5.7
			c0,1.4-0.2,2.7-0.7,3.9c-0.5,1.3-1.1,2.4-2,3.5c-0.9,1.1-1.9,2-3,2.9c-1.2,0.8-2.5,1.5-3.8,2.1c0.9-0.5,1.6-1.1,2.1-1.8
			c0.5-0.7,0.9-1.3,1.1-2c0.2-0.6,0.4-1.2,0.4-1.8c0-0.5,0.1-0.9,0.1-1.2c0-1.5-0.3-2.9-1-4c-0.6-1.1-1.5-2.1-2.5-2.9
			c-1-0.8-2.2-1.5-3.6-2.2c-1.4-0.6-2.8-1.2-4.2-1.8c-1.6-0.6-3.1-1.3-4.6-2c-1.5-0.7-2.8-1.5-4-2.5c-1.2-1-2.1-2.1-2.8-3.5
			c-0.7-1.3-1.1-3-1.1-4.9c0-1.7,0.2-3.2,0.7-4.6c0.5-1.4,1.2-2.7,2.2-3.7c0.9-1.1,2.1-2,3.4-2.7c1.3-0.7,2.8-1.2,4.5-1.4
			c-0.8,0.3-1.4,0.7-2,1.1c-0.5,0.5-1,1-1.3,1.6c-0.3,0.6-0.6,1.2-0.7,1.9c-0.1,0.7-0.2,1.3-0.2,1.9c0,1.3,0.3,2.4,0.8,3.3
			c0.6,0.9,1.3,1.8,2.2,2.5c0.9,0.7,2,1.4,3.2,1.9C202.4,55.4,203.6,56,204.9,56.5"/>
		<path class="st0" d="M289.6,84.7c-1.3,0-2.6-0.1-4-0.4c-1.4-0.3-2.6-0.8-3.7-1.6c-1.1-0.8-2-1.9-2.7-3.3c-0.7-1.4-1-3.2-1-5.4v-4
			c0-4.9-2.3-7.7-7-8.3c0.9-0.1,1.7-0.4,2.4-0.7c0.7-0.4,1.2-0.9,1.7-1.7c0.4-0.7,0.8-1.7,1-2.9c0.2-1.2,0.3-2.7,0.3-4.6
			c0-3.2-0.4-5.6-1.3-7.2c-0.9-1.7-2.3-2.7-4.2-3.1c2.2,0.1,4.2,0.4,6,0.9c1.8,0.5,3.4,1.3,4.6,2.2c1.3,0.9,2.3,2,3,3.2
			c0.7,1.2,1,2.6,1,4.1c0,1.3-0.3,2.6-0.8,3.7c-0.6,1.2-1.3,2.2-2.3,3.1c-1,0.9-2.2,1.6-3.5,2.2c-1.4,0.5-2.8,0.8-4.4,0.9h0
			c1.6,0.1,3.2,0.4,4.8,0.9c1.6,0.5,3.1,1.2,4.4,2.1c1.3,1,2.4,2.1,3.2,3.6c0.8,1.4,1.2,3.2,1.2,5.1v5.5c0,2,0.3,3.4,0.8,4.3
			c0.5,0.9,1.4,1.3,2.5,1.3c0.1,0,0.1,0,0.2,0C291.2,84.6,290.5,84.7,289.6,84.7"/>
		<path class="st0" d="M329.2,62.8c0,1.8-0.2,3.6-0.7,5.3c-0.4,1.7-1,3.3-1.8,4.8c-0.8,1.5-1.7,2.9-2.8,4.1
			c-1.1,1.3-2.2,2.4-3.5,3.4c-1.3,1-2.6,1.8-4,2.5c-1.4,0.7-2.8,1.2-4.2,1.6c1.1-0.5,2.1-1.3,2.9-2.4c0.8-1.1,1.4-2.5,1.9-4.2
			c0.5-1.8,0.8-3.9,1-6.3c0.2-2.5,0.3-5.4,0.3-8.7c0-3.3-0.1-6.2-0.3-8.7c-0.2-2.5-0.6-4.6-1-6.4c-0.5-1.8-1.1-3.2-1.9-4.2
			c-0.8-1.1-1.8-1.9-2.9-2.4c2.1,0.5,4.2,1.4,6.3,2.7c2,1.3,3.8,2.9,5.4,4.8c1.6,1.9,2.8,4.1,3.8,6.5
			C328.7,57.5,329.2,60,329.2,62.8"/>
	</g>
	<rect x="336.5" y="41.4" class="st0" width="10.2" height="42.4"/>
	<rect x="372.4" y="41.4" class="st0" width="10.2" height="42.4"/>
	<g>
		<path class="st0" d="M119.3,50.2c-0.1-0.4-0.2-0.9-0.4-1.4c-0.2-0.6-0.4-1.2-0.7-1.9c-0.3-0.7-0.6-1.3-1-2
			c-0.4-0.7-0.9-1.3-1.5-1.9c-0.6-0.6-1.2-1.1-2-1.5c-0.7-0.4-1.6-0.7-2.5-0.9h8.1V50.2z"/>
		<path class="st0" d="M400.8,50.9c-0.1-0.4-0.2-0.9-0.4-1.4c-0.2-0.6-0.4-1.2-0.7-1.9c-0.3-0.7-0.6-1.3-1-2
			c-0.4-0.7-0.9-1.3-1.5-1.9s-1.2-1.1-2-1.5c-0.7-0.4-1.6-0.8-2.5-0.9h8.1V50.9z"/>
		<path class="st0" d="M400.8,83.8h-8.1c0.9-0.2,1.8-0.5,2.5-0.9c0.7-0.4,1.4-1,2-1.5c0.6-0.6,1.1-1.2,1.5-1.9c0.4-0.7,0.8-1.4,1-2
			c0.3-0.7,0.5-1.3,0.7-1.9c0.2-0.6,0.3-1.1,0.4-1.4V83.8z"/>
		<path class="st0" d="M365.8,83.5h-8.1c1-0.2,1.8-0.5,2.5-0.9c0.7-0.4,1.4-1,2-1.5c0.6-0.6,1.1-1.2,1.5-1.9c0.4-0.7,0.8-1.4,1-2
			c0.3-0.7,0.5-1.3,0.7-1.9c0.2-0.6,0.3-1.1,0.4-1.4V83.5z"/>
	</g>
	<rect x="224.9" y="41.5" class="st0" width="10.2" height="42.4"/>
	<path class="st0" d="M253.2,50.9c-0.1-0.4-0.2-0.9-0.4-1.4c-0.2-0.6-0.4-1.2-0.7-1.9c-0.3-0.7-0.6-1.3-1-2
		c-0.4-0.7-0.9-1.3-1.5-1.9c-0.6-0.6-1.2-1.1-2-1.5c-0.7-0.4-1.6-0.7-2.5-0.9h8.1V50.9z"/>
	<path class="st0" d="M253.2,83.8h-8.1c0.9-0.2,1.8-0.5,2.5-0.9c0.7-0.4,1.4-1,2-1.5c0.6-0.6,1.1-1.2,1.5-1.9c0.4-0.7,0.8-1.4,1-2
		c0.3-0.7,0.5-1.3,0.7-1.9c0.2-0.6,0.3-1.1,0.4-1.4V83.8z"/>
	<path class="st0" d="M28.5,84.1h-8.1c0.9-0.2,1.8-0.5,2.5-0.9c0.7-0.4,1.4-1,2-1.5c0.6-0.6,1.1-1.2,1.5-1.9c0.4-0.7,0.8-1.4,1-2
		c0.3-0.7,0.5-1.3,0.7-1.9c0.2-0.6,0.3-1.1,0.4-1.4V84.1z"/>
	<path class="st0" d="M125.7,0.2L125.7,0.2l2.4-0.1c0.7,0,1.4,0.1,2,0.5c0.6,0.4,1.1,1.1,1.1,2.2c0,2.5-2.6,2.6-2.6,2.6l0.3,0.3
		l1.6,1.9c0.2,0.3,0.6,0.6,1.1,0.6c0.1,0,0.1,0,0.1,0l0.1,0.1L131.6,9l-0.1,0.1c-0.1,0-0.2,0-0.3,0c-0.9,0-1.5-0.8-1.8-1.1l-2.1-2.6
		l-0.1-0.1h-0.5V9l-0.1,0.1h-1L125.7,9V0.2z M128.1,4.4c1,0,2-0.4,2-1.6c0-1.2-1-1.6-2-1.6h-1.3v3.2H128.1z"/>
	<polygon class="st0" points="141.9,0.1 141.8,0.2 141.8,9 141.9,9.1 146.4,9.1 146.4,9 146.6,8.1 146.5,8 142.9,8 142.9,4.9 
		145.8,4.9 145.9,4.8 146.1,3.9 146,3.9 142.9,3.9 142.9,1.2 146.5,1.2 146.6,1.1 146.6,0.2 146.5,0.1 	"/>
	<g>
		<path class="st0" d="M156.4,8.4l0.5-0.7l0.1,0c0.4,0.3,1.2,0.6,1.8,0.6c0.9,0,1.7-0.4,1.7-1.5c0-2.1-4-1.2-4-4.1
			c0-1.6,1.2-2.5,2.7-2.5c1.3,0,2.2,0.5,2.3,0.7l0,0.1l-0.5,0.8l-0.1,0c-0.4-0.3-0.9-0.5-1.6-0.5c-1.1,0-1.6,0.6-1.6,1.4
			c0,2,4,1.1,4,4.1c0,2-1.6,2.6-2.9,2.6C158.2,9.3,157.1,9,156.4,8.4L156.4,8.4z"/>
	</g>
	<polygon class="st0" points="171.2,0.1 171.1,0.2 171.1,1.1 171.2,1.2 173.6,1.2 173.6,9 173.7,9.1 174.7,9.1 174.8,9 174.8,1.2 
		177.1,1.2 177.2,1.1 177.5,0.2 177.4,0.1 	"/>
	<path class="st0" d="M189.2,1.8l0.1-0.6l0.1,0.6l1.4,4.1h-3L189.2,1.8z M188.8,0.2L188.8,0.2L185.6,9l0,0.1h1.1l0.1-0.1l0.7-2.1
		h3.7L192,9l0.1,0.1h1.1l0-0.1L190,0.1l-0.1-0.1L188.8,0.2z"/>
	<g>
		<path class="st0" d="M202.8,0.3L202.8,0.3l1-0.2l0.1,0.1v5.8c0,1.6,1,2.3,2.4,2.3c1.4,0,2.4-0.7,2.4-2.3V0.3l0.1-0.1l1-0.1
			l0.1,0.1V6c0,2.1-1.3,3.3-3.5,3.3c-2.1,0-3.5-1.1-3.5-3.3V0.3z"/>
		<path class="st0" d="M220.5,0.2L220.5,0.2l2.4-0.1c0.7,0,1.4,0.1,2,0.5c0.7,0.4,1.1,1.1,1.1,2.2c0,2.5-2.6,2.6-2.6,2.6l0.3,0.3
			l1.6,1.9c0.2,0.3,0.6,0.6,1.1,0.6c0.1,0,0.1,0,0.1,0l0.1,0.1L226.4,9l-0.1,0.1c-0.1,0-0.2,0-0.3,0c-0.9,0-1.5-0.8-1.8-1.1
			l-2.1-2.6l-0.1-0.1h-0.5V9l-0.1,0.1h-1L220.5,9V0.2z M222.9,4.4c1,0,2-0.4,2-1.6c0-1.2-1-1.6-2-1.6h-1.3v3.2H222.9z"/>
	</g>
	<path class="st0" d="M239.2,1.8l0.1-0.6l0.1,0.6l1.4,4.1h-3L239.2,1.8z M238.7,0.2L238.7,0.2L235.5,9l0,0.1h1.1l0.1-0.1l0.7-2.1
		h3.7l0.7,2.1l0.1,0.1h1.1l0-0.1l-3.1-8.9l-0.1-0.1L238.7,0.2z"/>
	<polygon class="st0" points="258.7,0.2 258.6,0.3 258.6,7.2 258.2,6.6 253.9,0.1 253.9,0.1 252.9,0.2 252.8,0.3 252.8,9 252.9,9.1 
		253.9,9.1 253.9,9 253.9,1.9 254.3,2.5 258.6,9 258.7,9.1 259.6,9.1 259.7,9 259.7,0.1 259.6,0.1 	"/>
	<polygon class="st0" points="269.6,0.1 269.5,0.2 269.5,1.1 269.6,1.2 272.1,1.2 272.1,9 272.1,9.1 273.1,9.1 273.2,9 273.2,1.2 
		275.6,1.2 275.7,1.1 275.9,0.2 275.8,0.1 	"/>
</g>
</svg>
