<svg xmlns="http://www.w3.org/2000/svg" width="706" height="143" viewBox="0 0 706 143" fill="none"><path d="M77.9626 139.769C76.4905 139.769 75.0184 139.842 73.5545 139.74C72.6836 139.683 71.8862 138.677 71.0111 140.067C70.778 140.435 69.122 139.736 68.1569 139.855C64.6117 140.288 62.1419 138.763 60.3754 135.848C58.9687 133.526 57.4312 131.262 56.2863 128.813C55.3376 126.785 54.9164 124.517 54.1845 122.379C53.7102 120.997 53.1336 119.644 52.5407 118.307C50.8274 114.44 48.4148 110.912 45.1926 108.328C43.5447 107.008 41.8682 104.931 39.0917 105.164C35.8735 105.434 34.0335 107.327 33.0398 110.438C31.535 115.147 32.6841 119.738 32.8067 124.386C32.8803 127.268 32.6718 130.158 32.6268 133.044C32.59 135.407 30.7581 136.49 29.3555 137.95C27.2374 140.153 24.514 140.39 21.7825 140.517C18.593 140.664 15.3913 140.701 12.2018 140.57C10.0877 140.484 7.93687 140.21 5.90868 139.642C5.05406 139.405 4.60426 137.978 3.74964 137.455C0.27391 135.321 0.441563 131.581 0.249376 128.445C-0.118642 122.407 0.372049 116.32 0.400672 110.254C0.41294 108.022 0.0285649 105.786 0.00403034 103.549C-0.0286824 100.802 0.147149 98.0553 0.192129 95.3123C0.22893 93.1456 0.151238 90.975 0.220752 88.8083C0.282089 86.8829 0.417029 84.9575 0.617394 83.0402C0.887274 80.4117 0.9527 77.7137 1.63967 75.1873C2.91955 70.4657 1.98315 65.7073 2.27757 60.9817C2.36344 59.5836 1.69691 58.1487 1.701 56.7302C1.71736 52.769 2.53109 48.9508 3.55745 45.1041C4.20353 42.6677 5.7124 41.1674 7.30306 39.7121C8.17404 38.9149 9.78105 38.8863 11.0773 38.6002C16.9819 37.3084 22.8212 38.4162 28.6931 39.0049C31.5636 39.2951 34.4955 38.9272 37.3865 39.0866C40.8622 39.2747 44.2521 40.1127 46.6074 42.8598C47.7278 44.1679 48.1572 46.0566 48.9791 47.6427C51.4571 52.4338 54.0659 57.1594 56.4458 61.9996C59.3122 67.829 62.0601 73.7156 64.7425 79.635C66.4722 83.4572 68.4473 87.0546 71.8126 89.7077C72.5323 90.2718 73.2519 90.8441 73.9062 91.4819C75.1084 92.651 76.6377 92.4507 77.525 91.0567C78.1997 89.9938 79.0462 89.0454 79.7577 88.003C80.9149 86.3065 82.0271 84.5855 83.1435 82.8604C84.7914 80.3136 86.427 77.7627 88.0749 75.2118C88.1485 75.1015 88.2998 75.032 88.353 74.9175C89.7678 71.7698 91.1417 68.6057 92.5933 65.4784C93.5584 63.4017 94.736 61.4232 95.6274 59.3179C96.7847 56.583 97.6843 53.7419 98.8128 50.9907C100.027 48.0351 101.009 44.8793 102.792 42.2916C104.1 40.3948 106.582 39.3769 109.121 39.1766C110.05 39.103 110.97 38.8291 111.894 38.8291C113.664 38.8291 115.439 39.0744 117.201 39.009C121.61 38.8454 126.013 38.5021 130.422 38.359C133.108 38.269 135.807 38.3058 138.489 38.4816C142.108 38.7228 145.694 43.1909 146.214 47.2666C147.154 54.6372 146.422 62.0037 146.455 69.3661C146.475 74.4883 146.148 79.6145 146.226 84.7367C146.267 87.537 146.958 90.3209 147.113 93.1252C147.493 99.997 147.817 106.877 147.992 113.757C148.115 118.52 147.968 123.286 147.906 128.053C147.874 130.653 147.714 133.257 147.706 135.857C147.698 138.636 143.077 142.422 140.26 141.535C140.068 141.473 139.831 141.355 139.667 141.412C136.588 142.467 133.656 141.069 130.659 140.86C127.69 140.652 124.734 140.202 121.785 139.781C121.013 139.671 120.056 139.487 119.565 138.972C116.993 136.273 114.903 133.371 115.014 129.304C115.165 123.773 115.19 118.233 114.973 112.706C114.875 110.213 114.339 107.646 113.46 105.32C113.051 104.236 111.448 103.321 110.197 102.92C109.023 102.544 107.559 102.225 106.529 103.913C103.679 108.59 100.731 113.222 97.6188 117.731C94.3353 122.485 91.9432 127.824 87.9686 132.132C86.7582 133.445 86.243 135.419 84.9795 136.654C83.4665 138.134 81.5283 139.209 79.6759 140.288C79.3856 140.455 78.5637 139.711 77.983 139.384L77.9748 139.756L77.9626 139.769ZM75.043 92.7818L74.8753 92.8472L75.0389 92.9208V92.7818H75.043Z" fill="#292929"></path><path d="M334.937 139.701C334.005 139.693 333.069 139.607 332.145 139.689C327.614 140.085 323.087 140.588 318.548 140.895C317.469 140.968 316.148 140.706 315.281 140.11C311.781 137.694 309.875 134.354 309.732 129.984C309.638 127.13 308.984 124.297 308.927 121.444C308.861 118.063 309.213 114.674 309.295 111.285C309.352 108.988 309.295 106.682 309.233 104.381C309.156 101.323 309.066 98.2654 308.919 95.2117C308.812 93.0124 308.497 90.8171 308.473 88.6219C308.44 85.5233 308.207 82.3551 308.743 79.3382C309.614 74.449 309.062 69.6252 308.955 64.7647C308.89 61.8459 309.09 58.9189 309.184 55.996C309.287 52.9178 309.274 49.8314 309.561 46.7695C309.835 43.8425 310.628 40.9605 312.918 38.937C313.846 38.1153 315.285 37.7965 316.549 37.4449C318.671 36.8603 320.822 36.1041 322.981 36.0223C326.273 35.8997 329.585 36.3166 332.889 36.4556C339.959 36.754 345.177 40.3269 349.658 45.5145C352.112 48.3515 355.117 50.7062 357.673 53.4656C361.112 57.1733 364.444 60.9874 367.654 64.8996C370.096 67.8715 372.471 70.9334 374.504 74.1874C376.344 77.1348 379.353 78.3898 381.958 80.2375C383.406 81.2636 384.939 82.2202 386.542 82.9724C388.01 83.6591 389.605 84.1824 391.199 84.4522C391.731 84.5422 392.455 83.6428 393.056 83.1522C393.612 82.6985 394.066 82.1016 394.663 81.7133C396.949 80.2171 397.501 78.398 397.268 75.7244C396.94 72.0249 397.055 68.2844 396.977 64.5643C396.932 62.3936 396.818 60.2229 396.846 58.0522C396.9 53.9357 396.777 49.7946 397.247 45.7189C397.452 43.957 398.883 42.3872 400.081 40.8011C403.994 35.6135 409.269 37.6738 414.131 37.498C416.936 37.3958 419.749 37.6166 422.554 37.5062C426.231 37.3631 428.422 38.6018 429.531 42.1992C430.806 46.3321 431.55 50.5631 431.17 54.9618C430.994 57.0139 431.334 59.111 431.44 61.1877L431.477 61.1754C431.477 61.339 431.477 61.4984 431.477 61.6619L431.436 61.6496C431.309 63.5383 431.097 65.4269 431.072 67.3196C431.019 71.5425 431.08 75.7612 431.06 79.9841C431.031 86.1324 430.929 92.2765 430.937 98.4248C430.941 102.893 431.076 107.361 431.154 111.829C431.272 118.783 431.587 125.74 431.428 132.69C431.354 135.899 428.614 137.657 426.059 139.173C425.094 139.746 424.014 140.208 422.927 140.461C421.213 140.854 419.455 141.095 417.705 141.279C413.657 141.704 409.604 141.753 405.556 141.258C404.178 141.091 402.731 141.16 401.426 140.764C397.443 139.554 394.111 137.281 391.203 134.28C389.666 132.694 387.842 131.39 386.149 129.955C384.019 128.144 381.839 126.382 379.778 124.494C378.719 123.525 377.922 122.274 376.912 121.244C374.749 119.049 372.439 116.992 370.341 114.74C366.509 110.619 362.788 106.4 359.026 102.218C357.472 100.493 355.955 98.7355 354.353 97.0594C353.919 96.6057 353.224 96.3931 352.651 96.0702L352.615 95.9843L352.623 96.1192C350.308 95.1831 348.072 95.551 345.798 96.3768C344.551 96.8305 343.21 97.0799 341.889 97.2393C340.932 97.3579 340.478 97.4846 340.507 98.6619C340.621 103.318 340.556 107.978 340.617 112.635C340.703 119.188 341.067 125.749 340.814 132.285C340.744 134.059 339.018 135.862 337.808 137.465C337.088 138.417 335.89 139.006 334.909 139.754L334.946 139.713L334.937 139.701Z" fill="#292929"></path><path d="M692.88 52.4806C694.262 53.9972 695.935 55.3462 696.957 57.0754C698.429 59.5609 699.39 62.3489 700.653 64.9651C701.218 66.1343 702.162 67.1399 702.632 68.3377C703.274 69.9729 703.667 71.7103 704.096 73.419C704.738 75.9781 705.532 78.5249 705.867 81.1248C706.145 83.271 705.92 85.4989 705.797 87.6819C705.622 90.7928 705.523 93.9242 705.045 96.9983C704.538 100.265 703.687 103.482 702.874 106.691C702.485 108.224 701.95 109.745 701.283 111.179C700.408 113.064 699.451 114.936 698.318 116.67C696.842 118.93 695.182 121.072 693.534 123.21C693.199 123.644 692.516 123.787 692.074 124.159C690.537 125.471 689.731 127.343 688.505 128.88C687.863 129.686 686.64 130.041 685.65 130.544C685.291 130.728 684.6 130.618 684.477 130.855C683.994 131.803 683.614 132.588 682.252 132.388C681.921 132.339 681.435 133.369 681.026 133.892C681.009 133.876 680.907 133.675 680.85 133.688C679.48 133.99 678.008 134.101 676.781 134.706C675.571 135.298 674.606 136.398 673.502 137.293C671.253 137.555 668.754 137.841 665.45 138.225C664.575 139.198 662.817 140.31 660.372 139.566C659.942 139.435 659.321 139.701 658.863 139.934C657.616 140.572 656.495 141.569 654.913 140.788C654.651 140.658 654.05 140.858 653.809 141.103C652.762 142.17 651.756 142.027 650.353 141.684C649.02 141.357 647.446 142.17 645.994 142.109C641.284 141.9 636.585 141.52 631.879 141.218C631.478 141.193 631.065 141.238 630.673 141.32C627.859 141.9 625.152 141.017 622.404 140.735C620.593 140.547 618.777 140.318 617.003 139.942C612.73 139.035 608.403 138.274 604.245 136.987C600.532 135.838 596.966 134.19 594.104 131.329C592.362 129.583 590.15 128.255 588.612 126.366C585.95 123.088 583.141 119.76 581.301 116.007C578.165 109.614 575.351 102.967 575.253 95.637C575.188 90.6497 575.343 85.6624 575.462 80.6751C575.539 77.3026 576.14 74.0772 577.666 70.9703C578.533 69.1962 578.688 67.0786 579.179 65.1164C579.273 64.7485 579.379 64.3479 579.6 64.0494C580.43 62.9334 581.35 61.8828 582.16 60.7505C583.484 58.8945 584.715 56.9732 586.048 55.1214C587.475 53.1428 588.747 50.9762 590.497 49.3287C592.301 47.6282 594.505 46.2832 596.705 45.0936C599.829 43.4053 603.096 41.9745 606.334 40.5151C606.915 40.2535 607.663 40.368 608.338 40.3107L608.354 40.3393C609.859 40.1758 611.368 40.0573 612.861 39.8243C613.642 39.7016 614.386 39.346 615.159 39.1416C618.692 38.2136 622.196 37.163 625.77 36.4354C627.851 36.0102 630.047 35.9693 632.182 36.0143C636.994 36.1165 641.811 36.2923 646.62 36.603C650.288 36.8401 653.94 37.3265 657.599 37.7026L657.558 37.6658C657.714 37.6658 657.873 37.6658 658.029 37.6658L657.988 37.7026C659.885 37.4737 661.635 37.4941 663.492 38.4385C665.189 39.301 667.258 39.4196 669.155 39.906C674.769 41.3532 680.155 43.1641 684.608 47.2316C686.558 49.0181 689.2 50.0482 691.51 51.4463C692.013 51.7488 692.451 52.1494 692.917 52.5051C692.9 52.4928 692.888 52.4887 692.876 52.4806H692.88ZM628.158 64.6872C626.997 65.2758 625.995 65.9422 624.895 66.306C621.869 67.3116 618.446 67.6223 615.833 69.2534C612.047 71.6162 609.7 75.5734 608.698 79.9434C608.019 82.9031 607.806 86.0671 607.974 89.1045C608.195 93.0616 607.524 97.2599 609.79 100.878C611.442 103.514 613.347 105.992 614.995 108.334C615.588 108.269 616.16 108.024 616.443 108.212C617.309 108.784 618.086 109.499 618.863 110.198C620.184 111.396 621.288 113.199 622.826 113.718C626.032 114.797 629.442 115.472 632.815 115.807C636.303 116.154 639.754 116.678 643.41 115.946C646.861 115.255 650.566 115.999 654.107 114.993C655.24 114.671 656.941 116.044 657.366 113.788C660.981 112.986 662.343 109.405 665.074 107.508C665.393 107.288 665.459 106.715 665.687 106.335C665.957 105.89 666.19 105.244 666.591 105.092C668.48 104.393 668.186 103.286 667.581 102.464C668.219 101.09 668.456 99.7086 669.274 99.0055C671.085 97.448 670.079 95.1465 671.163 93.4132C671.923 92.1991 671.613 90.7437 671.572 89.2843C671.51 87.1259 671.985 84.9225 671.502 82.7109C671.097 80.8509 671.061 78.8396 670.284 77.1595C669.732 75.9699 668.26 75.1727 667.127 74.2938C663.847 71.7552 660.548 69.2411 657.223 66.7598C653.473 63.9636 648.832 64.7485 644.625 63.8982C642.13 63.3954 639.37 64.1721 636.733 64.4296C635.416 64.5563 634.009 64.5604 632.832 65.0551C631.032 65.8154 628.935 65.6642 628.162 64.6708L628.158 64.6872ZM620.838 60.8731C620.638 60.9957 620.438 61.1225 620.237 61.2451C620.581 61.7888 620.924 62.3284 621.268 62.8721C621.456 62.7536 621.644 62.635 621.832 62.5165C621.501 61.9687 621.17 61.4209 620.838 60.869V60.8731ZM648.297 122.56C648.444 122.74 648.591 122.92 648.734 123.096C649.213 122.675 649.691 122.254 650.174 121.833C650.051 121.685 649.928 121.542 649.805 121.395C649.303 121.784 648.8 122.172 648.297 122.56ZM639.112 52.55C639.219 52.4478 639.329 52.3661 639.395 52.2598C639.411 52.2353 639.276 52.1167 639.211 52.0431C639.117 52.129 638.998 52.1985 638.945 52.3048C638.924 52.3497 639.051 52.4642 639.112 52.5541V52.55ZM643.398 116.302C643.345 116.285 643.292 116.269 643.238 116.253L643.214 116.461C643.271 116.449 643.332 116.449 643.377 116.42C643.398 116.408 643.39 116.342 643.398 116.302ZM666.346 129.232L666.448 129.093L666.305 129.052L666.346 129.232ZM662.298 120.725C662.253 120.762 662.208 120.794 662.159 120.831C662.195 120.876 662.228 120.954 662.269 120.958C662.31 120.962 662.359 120.896 662.404 120.86C662.367 120.815 662.33 120.77 662.298 120.725Z" fill="#292929"></path><path d="M174.653 109.773C175.446 107.84 176.289 105.922 177.021 103.968C177.749 102.023 178.57 100.081 178.996 98.0613C179.76 94.4598 181.286 91.2876 183.445 88.332C184.201 87.2977 184.41 85.8833 185.101 84.7837C186.847 82.0039 188.985 79.4407 190.474 76.5383C191.921 73.7176 192.772 70.5862 193.868 67.5857C195.144 64.0864 196.509 60.6362 198.035 57.2227C200.001 52.82 203.256 49.1286 204.557 44.3743C205.17 42.1218 206.536 39.9184 208.077 38.1402C208.834 37.2694 210.756 37.3757 212.166 37.1182C213.033 36.9629 213.933 36.9833 214.812 36.8811C218.815 36.4151 222.819 35.9204 226.826 35.4585C228.486 35.2664 230.15 35.062 231.819 35.0047C233.062 34.9638 234.309 35.2009 235.56 35.2255C238.77 35.2909 241.98 35.2418 245.186 35.389C246.155 35.434 247.12 35.9204 248.052 36.2843C251.643 37.6905 253.274 40.7687 254.836 44.0187C257.061 48.6421 259.898 53.008 261.759 57.7623C263.816 63.0235 264.883 68.6608 266.727 74.016C268.322 78.6477 270.387 83.1199 272.272 87.6493C272.963 89.3172 273.634 91.0055 274.476 92.5998C276.754 96.9249 279.174 101.172 281.419 105.514C282.364 107.337 282.875 109.389 283.816 111.212C286.052 115.545 288.653 119.703 290.669 124.13C291.847 126.714 292.264 129.665 292.861 132.486C293.253 134.334 292.096 135.691 290.91 136.942C290.133 137.763 289.348 138.577 288.555 139.382C288.379 139.562 288.121 139.836 287.937 139.812C284.85 139.386 281.914 141.839 278.725 140.245C278.099 139.93 277.126 140.363 276.316 140.343C273.511 140.273 270.645 140.466 267.921 139.942C266.187 139.611 264.372 138.483 263.1 137.207C260.213 134.305 257.588 131.133 254.971 127.977C254.202 127.049 253.744 125.835 253.266 124.702C252.477 122.826 249.426 121.771 247.414 121.874C244.732 122.013 242.037 121.935 239.347 121.91C237.151 121.89 234.959 121.841 232.767 121.763C228.993 121.628 225.219 121.379 221.445 121.346C219.245 121.326 217.041 121.714 214.837 121.771C212.792 121.825 210.686 121.964 208.707 121.559C206.319 121.068 204.745 121.534 203.571 123.746C202.021 126.657 200.284 129.469 198.636 132.326C198.505 132.551 198.345 132.813 198.345 133.058C198.374 136.484 196.477 138.54 193.52 139.791C191.345 140.711 189.19 141.206 186.691 141.291C184.774 141.357 182.721 141.553 180.734 141.52C177.839 141.475 174.935 141.377 172.057 141.095C169.476 140.842 166.512 137.093 165.96 133.913C165.318 130.205 165.739 126.652 167.428 123.317C169.223 119.772 171.182 116.314 173.071 112.819C173.61 111.821 174.146 110.82 174.682 109.818C174.698 109.835 174.714 109.851 174.731 109.871C174.706 109.839 174.682 109.806 174.661 109.777L174.653 109.773ZM228.56 106.364L228.69 106.348C228.69 106.348 228.601 106.397 228.613 106.401V106.462L228.56 106.364ZM221.453 71.5551C221.432 71.6573 221.408 71.7595 221.42 71.7063C221.416 71.7676 221.42 71.6736 221.432 71.5796C221.408 71.5346 221.383 71.4897 221.359 71.4447C221.396 71.4774 221.432 71.5101 221.457 71.551L221.453 71.5551ZM224.327 72.205C222.651 75.2383 220.77 78.6477 218.889 82.0611C218.018 83.639 216.963 85.1475 216.333 86.8154C215.217 89.7669 216.022 93.9979 218.026 95.1384C219.56 96.0133 220.794 96.8963 221.502 98.5682C221.674 98.977 222.635 99.1773 223.256 99.2468C224.041 99.3368 224.851 99.1896 225.648 99.1528C227.582 99.0547 229.566 99.1855 231.438 98.7971C233.299 98.4129 235.094 97.5994 236.836 96.7981C240.046 95.3183 242.532 92.2155 241.453 89.1741C241.158 88.3484 240.725 87.5757 240.365 86.7786C239.343 84.4975 238.402 82.1715 237.273 79.9435C236.505 78.4228 235.654 76.8653 234.505 75.6389C233.25 74.3022 231.749 72.9163 230.085 72.3195C228.519 71.7595 226.593 72.201 224.336 72.201L224.327 72.205ZM243.489 112.978C243.632 112.811 243.775 112.639 243.918 112.471C243.468 111.907 243.08 111.269 242.532 110.836C242.389 110.722 241.747 111.245 240.95 111.686C242.086 112.267 242.786 112.623 243.489 112.978ZM229.725 104.389C229.934 104.161 230.048 104.034 230.163 103.903C229.991 103.756 229.84 103.56 229.643 103.482C229.57 103.453 229.255 103.752 229.279 103.821C229.345 104.013 229.533 104.161 229.729 104.389H229.725ZM214.366 78.4555C214.219 78.48 214.072 78.5087 213.925 78.5332C214.002 78.7989 214.08 79.0687 214.158 79.3344C214.272 79.2976 214.485 79.2527 214.481 79.22C214.465 78.9624 214.407 78.709 214.366 78.4555ZM204.344 73.8729L204.275 73.971L204.389 73.9833L204.344 73.8688V73.8729Z" fill="#292929"></path><path d="M568.67 133.044C569.026 133.702 569.251 134.107 569.385 134.356C568.85 134.892 568.392 135.354 567.68 136.069C565.726 136.997 563.379 138.109 561.011 139.233C560.058 139.364 558.958 139.654 557.867 139.638C554.91 139.597 551.958 139.405 549.005 139.319C547.693 139.282 546.356 139.491 545.059 139.335C543.477 139.143 541.416 139.184 540.472 138.227C538.73 136.461 537.65 134.041 536.292 131.891C536.043 131.495 535.814 131.082 535.544 130.697C534.653 129.426 533.765 128.155 532.845 126.908C532.53 126.483 532.183 126.021 531.741 125.771C528.871 124.14 526.585 121.34 522.848 121.438C519.789 121.52 516.722 121.422 513.663 121.536C511.48 121.618 509.247 122.338 507.145 122.031C504.328 121.622 501.719 122.595 498.984 122.546C494.698 122.468 490.409 122.673 486.119 122.722C485.355 122.73 484.582 122.607 483.821 122.485C480.333 121.912 478.918 124.619 477.405 126.806C475.843 129.058 474.433 131.515 473.509 134.078C472.568 136.682 471.067 138.456 468.888 140.116C466.655 141.817 464.271 141.903 461.81 141.927C458.195 141.96 454.58 141.764 450.965 141.682C448.074 141.616 446.271 139.691 444.934 137.602C442.988 134.561 442.722 131.065 443.744 127.574C444.525 124.905 445.327 122.227 446.349 119.644C447.576 116.537 448.909 113.455 450.442 110.491C452.114 107.257 454.044 104.159 455.905 101.027C457.59 98.186 459.573 95.4962 460.996 92.5365C462.942 88.4935 464.414 84.2257 466.226 80.1132C467.175 77.9629 468.516 75.9885 469.485 73.8423C470.323 71.9905 470.871 70.0078 471.579 68.0946C472.511 65.5601 473.251 62.9888 475.075 60.8058C475.929 59.7838 475.909 58.0506 476.338 56.6525C477.336 53.3944 478.125 50.0382 479.47 46.9232C480.362 44.8669 481.936 43.0437 483.47 41.3595C484.177 40.5787 485.485 40.268 486.577 39.9328C488.585 39.3196 490.638 38.8454 492.674 38.3262C492.797 38.2935 492.973 38.3017 493.067 38.3671C496.665 40.8894 500.161 38.6941 503.694 38.1463C508.397 37.4146 513.099 36.5847 517.887 37.2347C519.809 37.4964 521.76 37.7048 523.629 38.2077C527.91 39.3645 530.515 42.2588 531.917 46.4367C532.882 49.3187 533.77 52.3233 535.327 54.8865C538.93 60.8099 539.286 67.7962 542.029 73.9445C543.559 77.3702 545.648 80.5506 547.546 83.8046C548.821 85.9917 550.306 87.8844 550.191 90.8114C550.114 92.7777 551.639 94.8339 552.559 96.7961C553.16 98.0838 553.986 99.2612 554.677 100.508C557.302 105.238 560.001 109.931 562.499 114.726C564.168 117.923 565.599 121.246 567.018 124.57C567.447 125.575 567.345 126.802 567.717 127.848C567.987 128.6 568.752 129.16 569.095 129.9C569.586 130.963 570.498 132.165 568.682 133.048L568.67 133.044ZM497.156 113.299C497.25 113.258 497.344 113.217 497.438 113.181C497.336 113.226 497.233 113.275 497.131 113.32C497.135 113.316 497.144 113.311 497.156 113.299ZM494.383 87.541L493.676 87.4184C493.553 88.1501 493.422 88.8819 493.312 89.6136C493.189 90.423 493.189 91.261 492.952 92.0337C492.322 94.094 494.195 98.7747 496.297 99.5146C501.907 101.485 507.595 101.653 513.046 99.0445C516.808 97.2417 518.084 93.91 516.599 90.5579C514.682 86.2329 512.662 81.9487 510.642 77.6686C509.628 75.5184 508.155 73.736 505.575 73.687C503.764 73.6543 502.198 73.2291 500.771 72.154C500.746 72.1376 500.582 72.3011 500.435 72.4197C500.905 72.9143 501.38 73.409 501.854 73.9036C501.642 73.8464 501.425 73.7932 501.212 73.736C500.198 75.4366 499.176 77.129 498.174 78.8337C497.25 80.4075 496.33 81.9855 495.451 83.5798C494.78 84.7939 493.095 85.7055 494.383 87.5328V87.541ZM515.471 114.149C515.757 113.7 516.043 113.418 516.101 113.091C516.129 112.931 515.724 112.698 515.516 112.498C515.246 112.805 514.939 113.095 514.739 113.442C514.706 113.504 515.127 113.822 515.471 114.145V114.149ZM484.091 68.0374C484.3 68.2418 484.504 68.4462 484.713 68.6465C484.995 68.3277 485.273 68.0129 485.555 67.694L484.921 67.0849C484.647 67.4038 484.369 67.7185 484.095 68.0374H484.091ZM512.666 116.688C512.862 116.664 513.054 116.639 513.25 116.614C513.23 116.23 513.25 115.83 513.156 115.466C513.128 115.364 512.739 115.359 512.273 115.257C512.445 115.891 512.555 116.292 512.666 116.692V116.688ZM509.619 114.055C509.812 113.966 510.004 113.871 510.196 113.782C510.004 113.422 509.812 113.066 509.623 112.706C509.488 112.768 509.349 112.829 509.215 112.89C509.349 113.279 509.488 113.667 509.623 114.055H509.619ZM493.312 80.4689C493.296 80.5792 493.275 80.6896 493.259 80.8C493.586 80.8695 493.917 80.9431 494.244 81.0126C494.269 80.8736 494.293 80.7346 494.318 80.5956L493.312 80.4729V80.4689ZM499.736 120.948C499.601 120.735 499.503 120.576 499.405 120.42C499.245 120.572 499.041 120.698 498.943 120.882C498.906 120.948 499.127 121.258 499.237 121.262C499.384 121.267 499.54 121.083 499.736 120.948ZM511.018 111.149C510.969 111.317 510.907 111.472 510.887 111.635C510.887 111.656 511.128 111.758 511.157 111.729C511.267 111.603 511.341 111.443 511.431 111.292C511.316 111.251 511.202 111.21 511.022 111.149H511.018ZM490.724 73.2291C490.613 73.1678 490.507 73.1106 490.401 73.0574C490.352 73.1637 490.233 73.3068 490.266 73.3722C490.319 73.4744 490.47 73.5193 490.585 73.5888C490.63 73.4703 490.679 73.3517 490.724 73.2291ZM483.204 89.9406L483.277 89.818L483.171 89.7976L483.204 89.9406ZM520.811 107.719L520.733 107.846L520.848 107.866L520.811 107.719ZM498.669 68.3726L498.558 68.3072L498.538 68.4053L498.665 68.3767L498.669 68.3726ZM490.601 74.5209L490.527 74.6517L490.646 74.6681L490.601 74.5209ZM497.557 115.691C497.507 115.727 497.409 115.776 497.413 115.805C497.434 115.924 497.483 116.034 497.524 116.148C497.573 116.108 497.663 116.059 497.659 116.022C497.646 115.907 497.597 115.801 497.561 115.691H497.557ZM550.453 139.066L550.441 139.16L550.563 139.127L550.453 139.066ZM518.3 108.827L518.415 108.905L518.435 108.79L518.305 108.831L518.3 108.827ZM503.567 111.284L503.682 111.361L503.698 111.243L503.563 111.284H503.567ZM515.569 111.345L515.475 111.272L515.454 111.378L515.569 111.345Z" fill="#292929"></path><path d="M479.352 7.95427C478.076 7.84798 477.365 6.29456 477.79 4.8556C478.967 0.861676 479.605 0.955699 483.69 0.268924C487.26 -0.332004 490.65 0.391562 494.113 0.510113C497.352 0.620488 500.582 1.04972 503.821 1.24186C505.334 1.33179 507.145 1.68744 508.307 1.02111C509.664 0.244396 510.682 0.89438 511.836 0.816709C513.21 0.722686 514.583 0.587784 515.953 0.432442C519.858 -0.00496849 523.207 1.43808 526.192 3.71098C527.014 4.33643 527.538 5.61187 527.787 6.68291C528.298 8.89041 528.576 11.1551 528.85 13.4076C528.92 13.9676 528.793 14.7076 528.462 15.1327C525.988 18.309 523.289 21.0684 518.742 20.9049C516.485 20.8231 514.215 21.2687 511.95 21.2973C510.879 21.3096 509.807 20.7863 508.72 20.7209C504.524 20.4634 500.325 20.1936 496.121 20.12C492.776 20.0628 489.857 18.7832 486.839 17.5936C484.291 16.5921 482.725 14.7566 481.351 12.59C480.46 11.1797 478.546 10.2517 479.344 7.95427H479.352ZM480.734 9.65076L480.812 9.52404L480.681 9.51177L480.734 9.65076Z" fill="#292929"></path><path d="M217.413 121.117C217.299 121.183 217.188 121.289 217.086 121.281C216.992 121.277 216.906 121.146 216.82 121.072C216.918 121.011 217.025 120.897 217.119 120.905C217.217 120.913 217.311 121.036 217.413 121.117Z" fill="#292929"></path><path d="M657.612 37.5497C657.702 37.3736 657.796 37.1975 657.886 37.0215C657.923 37.1975 657.964 37.3695 658.001 37.5456L658.042 37.5087C657.882 37.5087 657.726 37.5087 657.571 37.5087L657.612 37.5456V37.5497Z" fill="#292929"></path><path d="M608.35 40.1542L608.42 40.0723C608.42 40.0723 608.363 40.1788 608.367 40.1829L608.35 40.1542Z" fill="#292929"></path><path d="M431.448 57.9381C431.448 58.0937 431.444 58.2451 431.444 58.4007L431.485 58.413C431.485 58.2492 431.485 58.0896 431.485 57.9258L431.448 57.9381Z" fill="#292929"></path><path d="M334.901 136.502C334.901 136.502 334.944 136.451 334.939 136.455L334.901 136.502Z" fill="#292929"></path></svg>