<?xml version="1.0" encoding="utf-8"?>
<!-- Generator: Adobe Illustrator 24.1.0, SVG Export Plug-In . SVG Version: 6.00 Build 0)  -->
<svg version="1.1" id="Layer_2" xmlns="http://www.w3.org/2000/svg" xmlns:xlink="http://www.w3.org/1999/xlink" x="0px" y="0px"
	 viewBox="0 0 296.4 115.8" style="enable-background:new 0 0 296.4 115.8;" xml:space="preserve">
<style type="text/css">
	.st0{fill:#062F3D;}
</style>
<g>
	<path class="st0" d="M209.5,28.8v86.9l-29-24.8V-0.1H237c36.7,0,56.4,24.1,59.4,45.1l-4.2,0c-6.6-9.8-19.9-16.2-38.9-16.2H209.5z"
		/>
	<path class="st0" d="M257.1,90.9v-7.6l0-2.2c0-12.5-5.5-19.2-14.3-19.2v-4.2h5.4c22.4,0,33.7,8.7,33.7,25.6v32.3h-43.4V90.9H257.1z
		"/>
	<path class="st0" d="M10.3,58H-0.2v32.7h10.4c5.7,0,10-1.4,13.2-4.3c3.2-2.9,4.7-6.9,4.7-12.1c0-5.1-1.6-9.1-4.8-12
		C20.2,59.4,15.9,58,10.3,58 M10,84.5H6.7V64.2H10c7.3,0,11.2,3.6,11.2,10.2C21.3,80.8,17.4,84.5,10,84.5"/>
	<path class="st0" d="M91.6,68.6c0-3.3-1.1-5.8-3.4-7.8C86,58.9,83.2,58,80,58H67.1v32.7h6.8V79.2h4.5l6.9,11.5h7.9L85.6,78
		C89.3,76.4,91.6,73,91.6,68.6 M79.3,73.3h-5.4v-9.4h5.4c3.2,0,5.3,1.7,5.3,4.7C84.7,71.6,82.6,73.3,79.3,73.3"/>
	<rect x="117.8" y="7.3" class="st0" width="6.8" height="33.7"/>
	<path class="st0" d="M160.1,31.6c0-4-0.8-7.6-2.8-9.7c-2.4-2.6-5.7-3.6-10.1-3.6h-12.6V25h13.3c1.7,0,3.3,0.8,4.1,1.9
		c0.9,1.1,1.3,2.5,1.3,4.5v2.9h-22.4V41h29.2V31.6z"/>
	<path class="st0" d="M5,36.3c3.4,3.1,8.2,4.7,14.3,4.7h78V18.2h-6.8v16l-71,0c-7.9,0-12.9-3.9-12.9-11.1V7.3h-6.8v15.9
		C-0.2,28.8,1.6,33.1,5,36.3"/>
	<path class="st0" d="M48.9,58h-5.6h-0.2L30.2,90.7h7.5l1.8-5.1h13.3l1.7,5.1H62L49.2,58H48.9z M41.3,80.3l4.8-14.1l4.8,14.1H41.3z"
		/>
	<path class="st0" d="M148.7,58h-0.2h-5.6h-0.2l-12.8,32.7h7.5l1.7-5.1h13.3l1.8,5.1h7.5L148.7,58z M140.8,80.3l4.8-14.1l4.8,14.1
		H140.8z"/>
	<polygon class="st0" points="117.9,78.1 105.2,58 98.3,58 98.3,90.7 105.2,90.7 105.2,71.2 117.9,90.7 124.7,90.7 124.7,58 
		117.9,58 	"/>
	<path class="st0" d="M104.7,18.2v22c0,3.3-0.9,4.8-3.6,5.1c-0.8,0.1-1.6,0.1-2.6,0v6.7c0.8,0.2,2.1,0.2,3.3,0.1
		c6.9-0.7,9.7-4.7,9.7-13.5V18.2H104.7z"/>
	<path class="st0" d="M97.5,11.7c0,2-1.6,3.6-3.6,3.6s-3.6-1.6-3.6-3.6c0-2,1.6-3.6,3.6-3.6S97.5,9.7,97.5,11.7"/>
</g>
</svg>
