<svg xmlns="http://www.w3.org/2000/svg" xmlns:xlink="http://www.w3.org/1999/xlink" width="568" height="251.39" viewBox="0 0 568 251.39">
  <defs>
    <linearGradient id="linear-gradient" y1="0.753" x2="1" y2="0.747" gradientUnits="objectBoundingBox">
      <stop offset="0" stop-color="#247287"/>
      <stop offset="1" stop-color="#0f2e47"/>
    </linearGradient>
  </defs>
  <g id="LOGO" transform="translate(0 0)">
    <g id="Baseline" transform="translate(1.644 230.169)">
      <path id="Tracé_1" data-name="Tracé 1" d="M.992,159.637v-20.5H8.716a13,13,0,0,1,5.55,1.075,7.56,7.56,0,0,1,3.514,3.334,14.461,14.461,0,0,1,0,11.639,7.616,7.616,0,0,1-3.514,3.363,12.843,12.843,0,0,1-5.55,1.09Zm2.866-2.451h4.8a10.067,10.067,0,0,0,3.077-.434,6.044,6.044,0,0,0,2.323-1.329,5.631,5.631,0,0,0,1.463-2.316,10.255,10.255,0,0,0,.5-3.393v-.6a10.472,10.472,0,0,0-.5-3.453,5.724,5.724,0,0,0-1.446-2.316,5.959,5.959,0,0,0-2.308-1.33,10.248,10.248,0,0,0-3.108-.432h-4.8v15.6Z" transform="translate(-0.992 -138.775)" fill="#fff"/>
      <path id="Tracé_2" data-name="Tracé 2" d="M22.768,160a11.193,11.193,0,0,1-4.525-.837,6.031,6.031,0,0,1-2.911-2.646,9.447,9.447,0,0,1-1.011-4.646V139.135h2.865v13.031A5.213,5.213,0,0,0,18.65,156.2a5.86,5.86,0,0,0,4.117,1.345,6.085,6.085,0,0,0,4.194-1.345,5.127,5.127,0,0,0,1.508-4.034V139.135h2.837v12.733a9.334,9.334,0,0,1-1.026,4.646,6.112,6.112,0,0,1-2.941,2.646,11.392,11.392,0,0,1-4.571.837" transform="translate(7.763 -138.775)" fill="#fff"/>
      <path id="Tracé_3" data-name="Tracé 3" d="M40.731,160.138a11.458,11.458,0,0,1-5.37-1.152,7.639,7.639,0,0,1-3.363-3.5,13.4,13.4,0,0,1-1.161-5.963q0-5.348,2.624-7.979a9.855,9.855,0,0,1,7.3-2.629,12.188,12.188,0,0,1,4.707.852,7.034,7.034,0,0,1,3.213,2.57,7.552,7.552,0,0,1,1.161,4.319h-2.9a5.275,5.275,0,0,0-.769-2.959,4.682,4.682,0,0,0-2.157-1.748,8.363,8.363,0,0,0-3.259-.583,7.839,7.839,0,0,0-3.741.837,5.424,5.424,0,0,0-2.383,2.585,10.7,10.7,0,0,0-.815,4.5v.628a10.4,10.4,0,0,0,.815,4.439A5.3,5.3,0,0,0,37,156.881a8.078,8.078,0,0,0,3.756.807,8.844,8.844,0,0,0,3.334-.568,4.539,4.539,0,0,0,2.172-1.748,5.34,5.34,0,0,0,.77-2.974h2.805a7.454,7.454,0,0,1-1.191,4.364,7.158,7.158,0,0,1-3.244,2.54,12.313,12.313,0,0,1-4.676.837" transform="translate(18.611 -138.917)" fill="#fff"/>
      <path id="Tracé_4" data-name="Tracé 4" d="M44.729,159.639v-20.5H55.62a7.3,7.3,0,0,1,3.516.762,4.934,4.934,0,0,1,2.1,2.122,6.778,6.778,0,0,1,.694,3.123,6.669,6.669,0,0,1-.966,3.647,5.37,5.37,0,0,1-2.654,2.182l4.344,8.667H59.512l-4.043-8.16H47.6v8.16H44.729ZM47.6,149.058h7.752a3.517,3.517,0,0,0,2.7-1.045,4.026,4.026,0,0,0,.981-2.87,3.966,3.966,0,0,0-.423-1.914,2.945,2.945,0,0,0-1.238-1.21,4.268,4.268,0,0,0-2.021-.434H47.6v7.472Z" transform="translate(27.737 -138.775)" fill="#fff"/>
      <path id="Tracé_5" data-name="Tracé 5" d="M67.421,160.137a12.151,12.151,0,0,1-5.536-1.165,8.085,8.085,0,0,1-3.561-3.527,14.657,14.657,0,0,1,0-11.85,8.1,8.1,0,0,1,3.561-3.513,13.736,13.736,0,0,1,11.071,0,8.1,8.1,0,0,1,3.561,3.513,14.657,14.657,0,0,1,0,11.85,8.085,8.085,0,0,1-3.561,3.527,12.152,12.152,0,0,1-5.536,1.165m0-2.451a9.792,9.792,0,0,0,3.062-.449,5.628,5.628,0,0,0,2.323-1.418,6.453,6.453,0,0,0,1.463-2.452,10.71,10.71,0,0,0,.514-3.511v-.628a10.832,10.832,0,0,0-.514-3.542,6.459,6.459,0,0,0-1.463-2.451,5.646,5.646,0,0,0-2.323-1.418,10.715,10.715,0,0,0-6.139,0,5.778,5.778,0,0,0-2.323,1.418,6.217,6.217,0,0,0-1.463,2.451,11.13,11.13,0,0,0-.5,3.542v.628a11,11,0,0,0,.5,3.511,6.212,6.212,0,0,0,1.463,2.452,5.759,5.759,0,0,0,2.323,1.418,9.756,9.756,0,0,0,3.077.449" transform="translate(35.846 -138.918)" fill="#fff"/>
      <path id="Tracé_6" data-name="Tracé 6" d="M80.47,160a11.193,11.193,0,0,1-4.525-.837,6.031,6.031,0,0,1-2.911-2.646,9.447,9.447,0,0,1-1.011-4.646V139.135h2.865v13.031a5.213,5.213,0,0,0,1.465,4.034,5.86,5.86,0,0,0,4.117,1.345,6.085,6.085,0,0,0,4.194-1.345,5.127,5.127,0,0,0,1.508-4.034V139.135h2.837v12.733a9.334,9.334,0,0,1-1.026,4.646,6.112,6.112,0,0,1-2.941,2.646A11.392,11.392,0,0,1,80.47,160" transform="translate(45.666 -138.775)" fill="#fff"/>
      <path id="Tracé_7" data-name="Tracé 7" d="M85.37,159.637v-20.5H101.3v2.451H88.236v6.336H99.972v2.451H88.236v6.815H101.48v2.451Z" transform="translate(54.433 -138.775)" fill="#fff"/>
      <path id="Tracé_8" data-name="Tracé 8" d="M105.706,160.138a15.669,15.669,0,0,1-3.244-.328,8.805,8.805,0,0,1-2.76-1.062,5.6,5.6,0,0,1-1.915-1.9,5.431,5.431,0,0,1-.709-2.87q0-.149.015-.3a3,3,0,0,0,.017-.3H100c0,.06,0,.156-.015.285s-.015.244-.015.343a3,3,0,0,0,.724,2.033,4.282,4.282,0,0,0,2.006,1.239,9.658,9.658,0,0,0,2.911.4,13.751,13.751,0,0,0,1.524-.089,8.6,8.6,0,0,0,1.538-.315,5.337,5.337,0,0,0,1.327-.6,2.963,2.963,0,0,0,.936-.928,2.516,2.516,0,0,0,.348-1.359,2.468,2.468,0,0,0-.59-1.688,4.439,4.439,0,0,0-1.552-1.107,15.856,15.856,0,0,0-2.189-.777q-1.22-.343-2.518-.673t-2.518-.762a9.81,9.81,0,0,1-2.187-1.075,5.143,5.143,0,0,1-1.554-1.6,4.365,4.365,0,0,1-.588-2.331,4.927,4.927,0,0,1,.527-2.3,4.684,4.684,0,0,1,1.569-1.72,7.976,7.976,0,0,1,2.58-1.075,15.058,15.058,0,0,1,3.529-.373,12.761,12.761,0,0,1,3.034.343,7.948,7.948,0,0,1,2.472,1.045,5.087,5.087,0,0,1,1.675,1.78,5.235,5.235,0,0,1,.6,2.6v.36h-2.835V144.6a2.525,2.525,0,0,0-.635-1.733,4.066,4.066,0,0,0-1.735-1.107,7.465,7.465,0,0,0-2.489-.388,11.237,11.237,0,0,0-3.017.343,3.805,3.805,0,0,0-1.794.986,2.093,2.093,0,0,0-.588,1.45,2.182,2.182,0,0,0,.588,1.554,4.44,4.44,0,0,0,1.554,1.032,17.123,17.123,0,0,0,2.2.732l2.518.671q1.282.345,2.505.779a10.3,10.3,0,0,1,2.2,1.075,4.875,4.875,0,0,1,1.552,1.614,4.6,4.6,0,0,1,.573,2.376,5.5,5.5,0,0,1-1.085,3.542,6.184,6.184,0,0,1-2.987,1.987,14.03,14.03,0,0,1-4.4.628" transform="translate(62.123 -138.917)" fill="#fff"/>
      <path id="Tracé_9" data-name="Tracé 9" d="M115.821,159.637V141.615H108.73v-2.48h17.105v2.48h-7.149v18.022Z" transform="translate(69.777 -138.775)" fill="#fff"/>
      <path id="Tracé_10" data-name="Tracé 10" d="M127.382,159.637v-8.518l-8.145-11.984h3.287l6.306,9.474h.151l6.276-9.474h3.136l-8.115,11.984v8.518Z" transform="translate(76.679 -138.775)" fill="#fff"/>
      <rect id="Rectangle_1" data-name="Rectangle 1" width="7.633" height="2.689" transform="translate(221.529 9.056)" fill="#fff"/>
      <path id="Tracé_11" data-name="Tracé 11" d="M155.083,160.138q-5.008,0-7.617-2.6t-2.61-8.011a12.847,12.847,0,0,1,1.206-5.887,7.87,7.87,0,0,1,3.559-3.542,12.682,12.682,0,0,1,5.733-1.18,15.227,15.227,0,0,1,3.832.447,8.73,8.73,0,0,1,2.971,1.36,6.167,6.167,0,0,1,1.93,2.286,7.282,7.282,0,0,1,.679,3.257h-2.926a4.9,4.9,0,0,0-.484-2.257,4.058,4.058,0,0,0-1.372-1.539,5.909,5.909,0,0,0-2.066-.852,11.885,11.885,0,0,0-2.5-.254,10.673,10.673,0,0,0-3.229.449,5.8,5.8,0,0,0-2.383,1.4,6.237,6.237,0,0,0-1.48,2.451,11.017,11.017,0,0,0-.512,3.557v.628a10.191,10.191,0,0,0,.86,4.513,5.358,5.358,0,0,0,2.489,2.525,8.891,8.891,0,0,0,3.922.792,9.834,9.834,0,0,0,3.832-.643,4.509,4.509,0,0,0,2.247-1.957,6.7,6.7,0,0,0,.739-3.319v-.358h-7.3v-2.421h10.2v10.79h-2.172l-.3-2.6a6.78,6.78,0,0,1-1.93,1.7,8.4,8.4,0,0,1-2.459.958,13.135,13.135,0,0,1-2.851.3" transform="translate(93.508 -138.917)" fill="#fff"/>
      <path id="Tracé_12" data-name="Tracé 12" d="M169.607,160.137a12.152,12.152,0,0,1-5.536-1.165,8.085,8.085,0,0,1-3.561-3.527,14.639,14.639,0,0,1,0-11.85,8.1,8.1,0,0,1,3.561-3.513,13.736,13.736,0,0,1,11.071,0A8.1,8.1,0,0,1,178.7,143.6a14.639,14.639,0,0,1,0,11.85,8.085,8.085,0,0,1-3.561,3.527,12.157,12.157,0,0,1-5.536,1.165m0-2.451a9.818,9.818,0,0,0,3.064-.449,5.633,5.633,0,0,0,2.321-1.418,6.474,6.474,0,0,0,1.463-2.452,10.709,10.709,0,0,0,.514-3.511v-.628a10.832,10.832,0,0,0-.514-3.542,6.48,6.48,0,0,0-1.463-2.451,5.651,5.651,0,0,0-2.321-1.418,10.721,10.721,0,0,0-6.14,0,5.778,5.778,0,0,0-2.323,1.418,6.216,6.216,0,0,0-1.463,2.451,11.131,11.131,0,0,0-.5,3.542v.628a11,11,0,0,0,.5,3.511,6.212,6.212,0,0,0,1.463,2.452,5.759,5.759,0,0,0,2.323,1.418,9.756,9.756,0,0,0,3.077.449" transform="translate(102.967 -138.918)" fill="#fff"/>
      <path id="Tracé_13" data-name="Tracé 13" d="M174.244,159.637v-20.5h2.865v18.022H187.4v2.48Z" transform="translate(112.811 -138.775)" fill="#fff"/>
      <path id="Tracé_14" data-name="Tracé 14" d="M184,159.637v-20.5h14.662v2.451h-11.8v6.574H197.61v2.421H186.869v9.056Z" transform="translate(119.222 -138.775)" fill="#fff"/>
      <path id="Tracé_15" data-name="Tracé 15" d="M195.147,159.637v-20.5h15.929v2.451H198.012v6.336h11.737v2.451H198.012v6.815h13.245v2.451Z" transform="translate(126.542 -138.775)" fill="#fff"/>
      <path id="Tracé_16" data-name="Tracé 16" d="M211.281,159.637v-20.5H219a12.991,12.991,0,0,1,5.551,1.075,7.553,7.553,0,0,1,3.514,3.334,14.461,14.461,0,0,1,0,11.639,7.608,7.608,0,0,1-3.514,3.363,12.838,12.838,0,0,1-5.551,1.09Zm2.865-2.451h4.8a10.083,10.083,0,0,0,3.077-.434,6.069,6.069,0,0,0,2.323-1.329,5.647,5.647,0,0,0,1.463-2.316,10.3,10.3,0,0,0,.5-3.393v-.6a10.519,10.519,0,0,0-.5-3.453,5.727,5.727,0,0,0-1.448-2.316,5.959,5.959,0,0,0-2.308-1.33,10.237,10.237,0,0,0-3.107-.432h-4.8v15.6Z" transform="translate(137.14 -138.775)" fill="#fff"/>
      <path id="Tracé_17" data-name="Tracé 17" d="M233.056,160a11.193,11.193,0,0,1-4.525-.837,6.031,6.031,0,0,1-2.911-2.646,9.447,9.447,0,0,1-1.012-4.646V139.135h2.866v13.031a5.213,5.213,0,0,0,1.465,4.034,5.86,5.86,0,0,0,4.117,1.345,6.085,6.085,0,0,0,4.194-1.345,5.128,5.128,0,0,0,1.509-4.034V139.135h2.835v12.733a9.334,9.334,0,0,1-1.026,4.646,6.112,6.112,0,0,1-2.941,2.646,11.392,11.392,0,0,1-4.571.837" transform="translate(145.894 -138.775)" fill="#fff"/>
      <path id="Tracé_18" data-name="Tracé 18" d="M241.761,159.637v-20.5h4.434l4.707,13.3c.121.358.247.752.378,1.18s.25.832.361,1.211.2.707.257.986h.21c.061-.3.141-.643.242-1.031s.21-.792.333-1.211.23-.8.331-1.135l4.705-13.3h4.406v20.5h-2.866V147.623q0-.927.03-2.018t.06-2c.02-.606.031-1.041.031-1.3h-.242c-.061.258-.161.623-.3,1.09s-.287.956-.437,1.465-.287.961-.408,1.36l-4.858,13.419H250.66L245.8,146.218c-.121-.34-.247-.732-.378-1.181s-.262-.911-.391-1.39-.257-.926-.378-1.344h-.21c.02.437.033.981.045,1.629s.02,1.3.03,1.942.015,1.231.015,1.75v12.014h-2.775Z" transform="translate(157.161 -138.775)" fill="#fff"/>
      <path id="Tracé_19" data-name="Tracé 19" d="M266.895,160.137a12.164,12.164,0,0,1-5.537-1.165,8.082,8.082,0,0,1-3.559-3.527,14.639,14.639,0,0,1,0-11.85,8.1,8.1,0,0,1,3.559-3.513,13.74,13.74,0,0,1,11.073,0,8.1,8.1,0,0,1,3.561,3.513,14.657,14.657,0,0,1,0,11.85,8.085,8.085,0,0,1-3.561,3.527,12.157,12.157,0,0,1-5.536,1.165m0-2.451a9.8,9.8,0,0,0,3.062-.449,5.639,5.639,0,0,0,2.323-1.418,6.474,6.474,0,0,0,1.463-2.452,10.755,10.755,0,0,0,.514-3.511v-.628a10.878,10.878,0,0,0-.514-3.542,6.48,6.48,0,0,0-1.463-2.451,5.657,5.657,0,0,0-2.323-1.418,10.72,10.72,0,0,0-6.14,0,5.789,5.789,0,0,0-2.323,1.418,6.233,6.233,0,0,0-1.461,2.451,11.131,11.131,0,0,0-.5,3.542v.628a11.005,11.005,0,0,0,.5,3.511,6.228,6.228,0,0,0,1.461,2.452,5.77,5.77,0,0,0,2.323,1.418,9.774,9.774,0,0,0,3.078.449" transform="translate(166.872 -138.918)" fill="#fff"/>
      <path id="Tracé_20" data-name="Tracé 20" d="M271.532,159.639v-20.5h10.891a7.291,7.291,0,0,1,3.514.762,4.947,4.947,0,0,1,2.1,2.122,6.8,6.8,0,0,1,.693,3.123,6.682,6.682,0,0,1-.964,3.647,5.381,5.381,0,0,1-2.656,2.182l4.344,8.667h-3.136l-4.043-8.16H274.4v8.16h-2.865Zm2.865-10.581h7.754a3.522,3.522,0,0,0,2.7-1.045,4.032,4.032,0,0,0,.979-2.87,3.966,3.966,0,0,0-.423-1.914,2.951,2.951,0,0,0-1.236-1.21,4.277,4.277,0,0,0-2.021-.434H274.4v7.472Z" transform="translate(176.716 -138.775)" fill="#fff"/>
      <path id="Tracé_21" data-name="Tracé 21" d="M284.769,159.637v-20.5h10.679a7.141,7.141,0,0,1,3.078.613,4.7,4.7,0,0,1,2,1.718,4.771,4.771,0,0,1,.709,2.629,5.41,5.41,0,0,1-.422,2.152,4.487,4.487,0,0,1-1.176,1.644,5.057,5.057,0,0,1-1.718.986V149a5.259,5.259,0,0,1,1.96.867,4.536,4.536,0,0,1,1.4,1.659,5.483,5.483,0,0,1,.529,2.525,5.579,5.579,0,0,1-.845,3.228,4.885,4.885,0,0,1-2.263,1.793,8.692,8.692,0,0,1-3.257.568H284.769Zm2.865-11.716h7.272a3.731,3.731,0,0,0,1.779-.4,3.034,3.034,0,0,0,1.191-1.137,3.168,3.168,0,0,0,.437-1.659,2.99,2.99,0,0,0-.875-2.376,3.407,3.407,0,0,0-2.323-.762h-7.482v6.336Zm0,9.265h7.784a3.826,3.826,0,0,0,2.505-.792,3.242,3.242,0,0,0,.964-2.644,3.878,3.878,0,0,0-.423-1.9,2.623,2.623,0,0,0-1.236-1.135,4.912,4.912,0,0,0-2.051-.374h-7.544v6.844Z" transform="translate(185.411 -138.775)" fill="#fff"/>
      <rect id="Rectangle_2" data-name="Rectangle 2" width="2.865" height="20.502" transform="translate(491.239 0.36)" fill="#fff"/>
      <path id="Tracé_22" data-name="Tracé 22" d="M302.34,159.637v-20.5H305.2v8.786h11.253v-8.786h2.9v20.5h-2.9V150.4H305.2v9.235Z" transform="translate(196.953 -138.775)" fill="#fff"/>
      <path id="Tracé_23" data-name="Tracé 23" d="M314.3,159.638l8.175-20.5h3.771l8.206,20.5h-3.108l-2.021-5.082H319.25l-1.992,5.082Zm5.882-7.5h8.177l-2.505-6.425q-.089-.271-.272-.747c-.119-.318-.252-.673-.391-1.06s-.283-.789-.423-1.2-.272-.782-.393-1.12H324.2c-.141.4-.3.857-.484,1.374s-.361,1.022-.542,1.509-.333.9-.452,1.241l-2.535,6.425Z" transform="translate(204.811 -138.776)" fill="#fff"/>
      <path id="Tracé_24" data-name="Tracé 24" d="M328.159,159.637v-20.5h2.775l10.046,13.508a6.253,6.253,0,0,1,.393.538c.161.239.321.474.482.7a7.078,7.078,0,0,1,.393.611h.121V139.135h2.807v20.5h-2.626l-10.167-13.749q-.211-.328-.618-.926c-.272-.4-.5-.717-.679-.956h-.151v15.631Z" transform="translate(213.913 -138.775)" fill="#fff"/>
    </g>
    <g id="BLANC" transform="translate(10.809 5.63)" opacity="0.9">
      <g id="SABORDS" transform="translate(0 109.356)">
        <path id="Tracé_31" data-name="Tracé 31" d="M37.153,148.847c5.383,0,11.328-4.472,11.328-9.857,0-8.856-11.888-10.092-18.6-12.417-11.827-4.031-22.272-13.74-22.272-26.951a29.6,29.6,0,0,1,58.9-4.089L47.157,99.623a9.843,9.843,0,0,0-19.685.06c0,8.738,11.065,11.063,17.8,13.063,12.241,3.531,23.039,12.857,23.039,26.362,0,16.36-14.683,29.57-31.012,29.57-15.006,0-28.569-11-30.776-25.451l19.359-4.119c0,5.415,5.885,9.827,11.358,9.827l-.088-.088Z" transform="translate(-6.524 -68.951)" fill="#fff"/>
        <path id="Tracé_32" data-name="Tracé 32" d="M88.047,69.4l44.291,98.991H111.217l-6.56-14.743H71.44l-6.56,14.743H43.817L88.047,69.4Zm8.907,67.037-8.846-20.52-8.967,20.52Z" transform="translate(17.972 -69.4)" fill="#fff"/>
        <path id="Tracé_33" data-name="Tracé 33" d="M152.337,110.556a34.748,34.748,0,0,1,7.463,4.936,30.656,30.656,0,0,1,0,43.087,28.885,28.885,0,0,1-21.423,9.027H102.331V70.6h27.08a26.15,26.15,0,0,1,19.256,8.064,25.453,25.453,0,0,1,7.7,18.474c0,4.651-2.235,10.228-4.033,13.419m-22.926-21h-7.643v17.752q2.59-.119,7.282-.48c4.614-.522,8.544-3.975,8.544-8.907a8.344,8.344,0,0,0-8.183-8.364m20.219,47.479a12.108,12.108,0,0,0-11.253-11.915c-5.774-.316-10.771-.061-16.608-.061v23.529h16.608a11.365,11.365,0,0,0,11.253-11.553" transform="translate(56.408 -68.612)" fill="#fff"/>
        <path id="Tracé_34" data-name="Tracé 34" d="M229.27,84.63a47.5,47.5,0,0,1,14.5,34.842,49.209,49.209,0,0,1-49.285,49.1,49.11,49.11,0,0,1-49.225-49.1A47.669,47.669,0,0,1,159.707,84.63a48.956,48.956,0,0,1,69.563,0M173.608,98.47a29.492,29.492,0,0,0,0,41.763,29.577,29.577,0,0,0,50.428-20.881A29.531,29.531,0,0,0,173.608,98.47" transform="translate(84.608 -68.923)" fill="#fff"/>
        <path id="Tracé_35" data-name="Tracé 35" d="M209.734,70.6h31.654c10.8,0,19.534,4.078,25.395,9.87,5.905,5.905,9.388,11.292,9.388,22.025v2.527a31.4,31.4,0,0,1-6.139,18.476c-3.406,4.768-6.106,6.8-11.615,8.965L280.984,167.6H257.155L229.292,124.7V167.6H209.8L209.734,70.6Zm46.338,32.5a13.106,13.106,0,0,0-3.851-9.328c-2.532-2.459-7.335-3.851-12.037-3.851H229.232v26.778h7.522v.061h6.5c7.106,0,12.819-6.265,12.819-13.661" transform="translate(126.958 -68.613)" fill="#fff"/>
        <path id="Tracé_36" data-name="Tracé 36" d="M283.6,70.6A49.364,49.364,0,0,1,319.048,84.86q13,13.058,13,34.332t-13,34.209q-14.32,14.2-35.445,14.2H257.787V70.659H283.6V70.6Zm-.06,19.317h-6.319v58.252h6.5c17.488,0,28.886-11.61,28.886-29.126,0-17.359-11.593-29.126-29.066-29.126" transform="translate(158.522 -68.613)" fill="#fff"/>
        <path id="Tracé_37" data-name="Tracé 37" d="M336.153,148.847c5.383,0,11.328-4.472,11.328-9.857,0-8.856-11.888-10.092-18.6-12.417-11.827-4.031-22.272-13.74-22.272-26.951a29.6,29.6,0,0,1,58.9-4.089l-19.359,4.089a9.843,9.843,0,0,0-19.685.06c0,8.738,11.065,11.063,17.8,13.063,12.241,3.531,23.039,12.857,23.039,26.362,0,16.36-14.683,29.57-31.012,29.57-15.006,0-28.569-11-30.776-25.451l19.359-4.119c0,5.415,5.885,9.827,11.358,9.827l-.088-.088Z" transform="translate(189.879 -68.951)" fill="#fff"/>
      </g>
      <g id="LE_MILLE" data-name="LE MILLE" transform="translate(0.603)">
        <path id="Tracé_25" data-name="Tracé 25" d="M26.386,4.777V82.406h39v19.377H6.888V4.777Z" transform="translate(-6.888 -2.492)" fill="#fff"/>
        <path id="Tracé_26" data-name="Tracé 26" d="M110.012,4.632V24.069h-39V43.628h29.249V63.065H71.014V82.622h39V102H51.518V4.632Z" transform="translate(22.428 -2.587)" fill="#fff"/>
        <path id="Tracé_27" data-name="Tracé 27" d="M169.72,68.569,217.2,3.4v99.291H197.7v-40.2L169.72,101.125,141.678,62.492v40.2h-19.5V3.4Z" transform="translate(68.843 -3.398)" fill="#fff"/>
        <rect id="Rectangle_3" data-name="Rectangle 3" width="19.498" height="97.006" transform="translate(305.11 2.285)" fill="#fff"/>
        <path id="Tracé_28" data-name="Tracé 28" d="M233.808,4.777V82.406H272.8v19.377H214.31V4.777Z" transform="translate(129.36 -2.492)" fill="#fff"/>
        <path id="Tracé_29" data-name="Tracé 29" d="M278.437,4.777V82.406h38.994v19.377H258.939V4.777Z" transform="translate(158.676 -2.492)" fill="#fff"/>
        <path id="Tracé_30" data-name="Tracé 30" d="M362.061,4.632V24.069H323.067V43.628h29.247V63.065H323.067V82.622h38.994V102H303.569V4.632Z" transform="translate(187.991 -2.587)" fill="#fff"/>
      </g>
    </g>
    <g id="LE_MILLE_SABORDS" data-name="LE MILLE SABORDS" transform="translate(0 0)">
      <path id="Tracé_62" data-name="Tracé 62" d="M-788.592-349.993V-447h19.5v77.629H-730.1v19.378Z" transform="translate(792.967 449.285)" fill="url(#linear-gradient)"/>
      <path id="Tracé_51" data-name="Tracé 51" d="M-788.592-349.632V-447H-730.1v19.439h-38.994v19.555h29.245v19.439h-29.245v19.557H-730.1v19.378Z" transform="translate(866.913 449.045)" fill="url(#linear-gradient)"/>
      <path id="Tracé_63" data-name="Tracé 63" d="M-713.07-347.709v-40.2l-27.984,38.633L-769.1-387.906v40.2h-19.494V-447l47.539,65.172L-693.573-447v99.292Z" transform="translate(983.993 447)" fill="url(#linear-gradient)"/>
      <path id="Tracé_64" data-name="Tracé 64" d="M-788.592-349.993V-447h19.5v97.007Z" transform="translate(1098.078 449.285)" fill="url(#linear-gradient)"/>
      <path id="Tracé_61" data-name="Tracé 61" d="M-788.592-349.993V-447h19.5v77.629H-730.1v19.378Z" transform="translate(1136.639 449.285)" fill="url(#linear-gradient)"/>
      <path id="Tracé_52" data-name="Tracé 52" d="M-788.592-349.993V-447h19.5v77.629H-730.1v19.378Z" transform="translate(1210.583 449.285)" fill="url(#linear-gradient)"/>
      <path id="Tracé_55" data-name="Tracé 55" d="M-788.592-349.632V-447H-730.1v19.439H-769.1v19.555h29.248v19.439H-769.1v19.557H-730.1v19.378Z" transform="translate(1284.53 449.045)" fill="url(#linear-gradient)"/>
      <path id="Tracé_54" data-name="Tracé 54" d="M-757.4-348.407c-15.21,0-28.957-11-31.194-25.45l19.622-4.12c0,5.414,5.965,9.828,11.512,9.828l-.09-.088c5.456,0,11.482-4.472,11.482-9.857,0-8.856-12.049-10.091-18.849-12.416-11.988-4.032-22.574-13.741-22.574-26.952A29.762,29.762,0,0,1-757.458-447a29.844,29.844,0,0,1,29.673,25.45l-19.622,4.09a9.976,9.976,0,0,0-9.931-9.8,10.007,10.007,0,0,0-10.019,9.855c0,8.738,11.212,11.063,18.042,13.064,12.405,3.53,23.349,12.858,23.349,26.361C-725.967-361.617-740.848-348.407-757.4-348.407Z" transform="translate(788.592 557.488)" fill="url(#linear-gradient)"/>
      <path id="Tracé_53" data-name="Tracé 53" d="M-720.28-348.008l-6.648-14.743H-760.6l-6.649,14.743h-21.348L-743.763-447l44.893,98.992Zm-32.509-31.954h18.054l-8.965-20.519Z" transform="translate(851.219 556.357)" fill="url(#linear-gradient)"/>
      <path id="Tracé_56" data-name="Tracé 56" d="M-788.592-349.995V-447h27.448a26.691,26.691,0,0,1,19.518,8.064,25.281,25.281,0,0,1,7.8,18.474c0,4.651-2.266,10.228-4.086,13.419a35.22,35.22,0,0,1,7.563,4.934,29.32,29.32,0,0,1,8.968,21.545,29.252,29.252,0,0,1-8.968,21.543,29.472,29.472,0,0,1-21.713,9.026Zm19.7-42.546v23.529h16.834a11.439,11.439,0,0,0,11.4-11.552,12.179,12.179,0,0,0-11.4-11.915c-2.246-.122-4.376-.159-6.483-.159C-761.923-392.638-765.246-392.541-768.891-392.541Zm0-17.751q2.624-.121,7.38-.482c4.676-.52,8.661-3.974,8.661-8.907a8.4,8.4,0,0,0-8.294-8.363h-7.747Z" transform="translate(949.481 558.343)" fill="url(#linear-gradient)"/>
      <path id="Tracé_59" data-name="Tracé 59" d="M-738.7-348.548a48.783,48.783,0,0,1-35.253-14.323,47.155,47.155,0,0,1-14.64-34.782q0-20.281,14.64-34.843A48.408,48.408,0,0,1-738.7-447a48.407,48.407,0,0,1,35.253,14.5c9.8,9.667,14.7,21.243,14.7,34.843a46.872,46.872,0,0,1-14.7,34.782A48.586,48.586,0,0,1-738.7-348.548Zm-21.163-70.106a28.52,28.52,0,0,0-8.783,20.88,28.267,28.267,0,0,0,8.783,20.882,29.009,29.009,0,0,0,21.163,8.606,29.2,29.2,0,0,0,21.1-8.606,28.04,28.04,0,0,0,8.846-20.882,28.288,28.288,0,0,0-8.846-20.88,28.963,28.963,0,0,0-21.1-8.665A28.777,28.777,0,0,0-759.862-418.655Z" transform="translate(1021.577 557.56)" fill="url(#linear-gradient)"/>
      <path id="Tracé_58" data-name="Tracé 58" d="M-740.53-349.995-768.772-392.9v42.906h-19.761l-.06-97.006h32.083c10.945,0,19.8,4.078,25.738,9.869,5.986,5.906,9.515,11.293,9.515,22.025v2.527a31.124,31.124,0,0,1-6.22,18.476c-3.455,4.769-6.191,6.8-11.773,8.965l22.872,35.144Zm-28.3-50.909h7.624v.06h6.587c7.2,0,12.99-6.266,12.99-13.659a13.007,13.007,0,0,0-3.9-9.329c-2.565-2.46-7.432-3.852-12.2-3.852h-11.1Z" transform="translate(1129.844 558.343)" fill="url(#linear-gradient)"/>
      <path id="Tracé_57" data-name="Tracé 57" d="M-788.592-349.995v-96.946h26.166V-447c15.446,0,27.535,6.054,35.926,14.262q13.174,13.061,13.173,34.331T-726.5-364.2q-14.517,14.2-35.926,14.2Zm19.7-19.438h6.588c17.726,0,29.276-11.609,29.276-29.126,0-17.357-11.75-29.126-29.458-29.126h-6.406Z" transform="translate(1210.54 558.343)" fill="url(#linear-gradient)"/>
      <path id="Tracé_60" data-name="Tracé 60" d="M-757.4-348.407c-15.209,0-28.957-11-31.194-25.45l19.622-4.12c0,5.414,5.965,9.828,11.512,9.828l-.09-.088c5.458,0,11.482-4.472,11.482-9.857,0-8.856-12.049-10.091-18.847-12.416-11.989-4.032-22.575-13.741-22.575-26.952A29.762,29.762,0,0,1-757.458-447a29.844,29.844,0,0,1,29.673,25.45l-19.622,4.09a9.976,9.976,0,0,0-9.931-9.8,10.007,10.007,0,0,0-10.019,9.855c0,8.738,11.212,11.063,18.042,13.064,12.405,3.53,23.349,12.858,23.349,26.361C-725.967-361.617-740.846-348.407-757.4-348.407Z" transform="translate(1290.702 557.488)" fill="url(#linear-gradient)"/>
    </g>
  </g>
</svg>
