<svg xmlns="http://www.w3.org/2000/svg" viewBox="0 0 158.7 180.37"><g id="f0661710-9edd-470c-9147-38e90d3b4b0f" data-name="Layer 2"><g id="ad8cc342-5654-4488-8d06-e244ee568191" data-name="Ñëîé 1"><path d="M121.71,60.26,92.57,89.2,7,2.11A14.41,14.41,0,0,1,21.86,2Z" style="fill:#00f076"/><path d="M122.43,119.7,21.86,178.37a14.48,14.48,0,0,1-17.4-2.07L92.57,89.2Z" style="fill:#f73448"/><path d="M151.49,102.74l-28.83,16.82-.23.14L92.57,89.2l29.14-28.94.23.13,29.55,17.24A14.54,14.54,0,0,1,151.49,102.74Z" style="fill:#ffca00"/><path d="M4.46,176.3l-.19-.18A14.34,14.34,0,0,1,0,165.81V14.56A14.4,14.4,0,0,1,6.81,2.24L7,2.11,92.57,89.2Z" style="fill:#00d2ff"/></g></g></svg>