<?xml version="1.0" encoding="UTF-8"?>
<svg xmlns="http://www.w3.org/2000/svg" xmlns:xlink="http://www.w3.org/1999/xlink" width="481.87pt" height="602.36pt" viewBox="0 0 481.87 602.36" version="1.1">
<defs>
<clipPath id="clip1">
  <path d="M 0 0 L 481.871094 0 L 481.871094 602.359375 L 0 602.359375 Z M 0 0 "/>
</clipPath>
</defs>
<g id="surface1">
<path style=" stroke:none;fill-rule:nonzero;fill:rgb(0%,52.198792%,78.399658%);fill-opacity:1;" d="M 200.675781 566.652344 C 175.058594 566.652344 66.484375 566.652344 45.746094 566.652344 C 25.007813 566.652344 10.367188 552.015625 10.367188 532.496094 C 10.367188 512.976563 10.367188 10.371094 10.367188 10.371094 L 471.5 10.371094 C 471.5 10.371094 471.5 512.976563 471.5 532.496094 C 471.5 552.015625 456.859375 566.652344 436.121094 566.652344 C 415.382813 566.652344 306.808594 566.652344 281.191406 566.652344 C 255.574219 566.652344 240.933594 586.171875 240.933594 586.171875 C 240.933594 586.171875 226.296875 566.652344 200.675781 566.652344 "/>
<path style=" stroke:none;fill-rule:nonzero;fill:rgb(88.198853%,16.899109%,16.899109%);fill-opacity:1;" d="M 256.183594 293.390625 L 14.054688 293.390625 L 14.054688 14.03125 L 256.183594 14.03125 L 256.183594 293.390625 "/>
<path style=" stroke:none;fill-rule:nonzero;fill:rgb(100%,100%,100%);fill-opacity:1;" d="M 168.421875 186.925781 L 256.183594 186.925781 L 256.183594 120.5 L 168.4375 120.5 L 168.421875 14.003906 L 101.820313 14.003906 L 101.820313 120.5 L 14.054688 120.5 L 14.054688 186.925781 L 101.820313 186.945313 L 101.820313 293.390625 L 168.421875 293.390625 L 168.421875 186.925781 "/>
<path style=" stroke:none;fill-rule:nonzero;fill:rgb(90.19928%,62.399292%,17.999268%);fill-opacity:1;" d="M 471.5 1.222656 L 1.21875 1.222656 L 1.21875 532.496094 C 1.21875 557.183594 20.363281 575.804688 45.746094 575.804688 L 200.675781 575.804688 C 221.1875 575.804688 233.148438 591.054688 233.644531 591.707031 L 240.902344 601.140625 L 248.222656 591.707031 C 248.722656 591.054688 260.683594 575.804688 281.191406 575.804688 L 436.121094 575.804688 C 461.507813 575.804688 480.648438 557.183594 480.648438 532.496094 L 480.648438 1.222656 L 471.5 1.222656 M 173.925781 115.007813 C 173.925781 107.238281 173.914063 19.519531 173.914063 19.519531 C 173.914063 19.519531 206.953125 19.519531 250.675781 19.519531 L 250.695313 19.863281 L 250.695313 115.003906 C 250.695313 115.003906 181.261719 115.007813 173.925781 115.007813 M 173.910156 287.902344 C 173.910156 262.300781 173.910156 200.226563 173.910156 192.414063 C 181.214844 192.414063 250.695313 192.417969 250.695313 192.417969 L 250.695313 287.902344 L 173.910156 287.902344 M 19.519531 287.902344 L 19.519531 192.414063 C 41.375 192.417969 88.941406 192.429688 96.332031 192.433594 C 96.332031 197.929688 96.332031 261.828125 96.332031 287.902344 L 19.519531 287.902344 M 19.519531 298.882813 L 261.671875 298.882813 L 261.671875 19.917969 L 261.65625 19.519531 C 261.78125 19.519531 455.824219 19.519531 462.351563 19.519531 L 462.351563 532.496094 C 462.351563 547.222656 451.5625 557.503906 436.121094 557.503906 L 281.191406 557.503906 C 262.382813 557.503906 248.683594 566.324219 240.933594 573.09375 C 233.183594 566.324219 219.484375 557.503906 200.675781 557.503906 L 45.746094 557.503906 C 30.304688 557.503906 19.519531 547.222656 19.519531 532.496094 L 19.519531 298.882813 M 250.695313 181.433594 C 241.046875 181.433594 162.929688 181.433594 162.929688 181.433594 C 162.929688 181.433594 162.929688 278.027344 162.929688 287.902344 C 154.515625 287.902344 115.722656 287.902344 107.308594 287.902344 C 107.308594 278.042969 107.308594 181.453125 107.308594 181.453125 C 107.308594 181.453125 29.191406 181.4375 19.546875 181.4375 C 19.546875 173.03125 19.546875 134.394531 19.546875 125.988281 C 29.195313 125.988281 107.308594 125.988281 107.308594 125.988281 C 107.308594 125.988281 107.308594 29.371094 107.308594 19.492188 C 115.722656 19.492188 154.519531 19.492188 162.929688 19.492188 C 162.929688 19.617188 162.949219 125.988281 162.949219 125.988281 C 162.949219 125.988281 241.046875 125.988281 250.695313 125.988281 L 250.695313 181.433594 M 19.519531 115.007813 C 19.519531 61.914063 19.519531 24.167969 19.519531 19.519531 L 96.332031 19.519531 C 96.332031 45.140625 96.328125 107.199219 96.328125 115.007813 C 88.988281 115.007813 19.519531 115.007813 19.519531 115.007813 "/>
<g clip-path="url(#clip1)" clip-rule="nonzero">
<path style=" stroke:none;fill-rule:nonzero;fill:rgb(13.699341%,12.199402%,12.5%);fill-opacity:1;" d="M 471.5 0 L 1.21875 0 C 0.546875 0 0 0.546875 0 1.222656 L 0 532.496094 C 0 557.882813 19.667969 577.023438 45.746094 577.023438 L 200.675781 577.023438 C 220.589844 577.023438 232.195313 591.820313 232.679688 592.449219 L 239.933594 601.882813 C 240.164063 602.183594 240.519531 602.359375 240.898438 602.359375 C 241.277344 602.359375 241.632813 602.1875 241.863281 601.886719 L 249.183594 592.453125 C 249.671875 591.820313 261.277344 577.023438 281.191406 577.023438 L 436.121094 577.023438 C 462.199219 577.023438 481.867188 557.882813 481.867188 532.496094 L 481.867188 1.222656 C 481.867188 0.546875 481.320313 0 480.648438 0 L 471.5 0 M 471.5 2.441406 C 471.5 2.441406 477.597656 2.441406 479.429688 2.441406 C 479.429688 4.867188 479.429688 532.496094 479.429688 532.496094 C 479.429688 556.488281 460.8125 574.582031 436.121094 574.582031 L 281.191406 574.582031 C 260.089844 574.582031 247.769531 590.292969 247.253906 590.960938 C 247.253906 590.960938 242.363281 597.265625 240.90625 599.144531 C 239.457031 597.261719 234.613281 590.960938 234.613281 590.960938 C 234.101563 590.292969 221.777344 574.582031 200.675781 574.582031 L 45.746094 574.582031 C 21.058594 574.582031 2.441406 556.488281 2.441406 532.496094 C 2.441406 532.496094 2.441406 4.867188 2.441406 2.441406 C 4.867188 2.441406 471.5 2.441406 471.5 2.441406 "/>
</g>
<path style=" stroke:none;fill-rule:nonzero;fill:rgb(13.699341%,12.199402%,12.5%);fill-opacity:1;" d="M 173.914063 18.300781 C 173.589844 18.300781 173.28125 18.429688 173.050781 18.65625 C 172.824219 18.886719 172.695313 19.195313 172.695313 19.519531 L 172.707031 115.007813 C 172.707031 115.683594 173.253906 116.230469 173.925781 116.230469 L 250.695313 116.226563 C 251.367188 116.226563 251.914063 115.679688 251.914063 115.003906 L 251.914063 19.863281 L 251.894531 19.460938 C 251.863281 18.808594 251.328125 18.300781 250.675781 18.300781 L 173.914063 18.300781 M 249.476563 20.738281 C 249.476563 22.328125 249.472656 111.429688 249.472656 113.785156 C 247.148438 113.785156 177.472656 113.789063 175.148438 113.789063 C 175.144531 111.441406 175.136719 23.085938 175.136719 20.738281 C 177.460938 20.738281 247.183594 20.738281 249.476563 20.738281 "/>
<path style=" stroke:none;fill-rule:nonzero;fill:rgb(13.699341%,12.199402%,12.5%);fill-opacity:1;" d="M 173.046875 191.550781 C 172.816406 191.78125 172.691406 192.089844 172.691406 192.414063 L 172.691406 287.902344 C 172.691406 288.574219 173.234375 289.121094 173.910156 289.121094 L 250.695313 289.121094 C 251.015625 289.121094 251.328125 288.992188 251.554688 288.765625 C 251.785156 288.535156 251.914063 288.226563 251.914063 287.902344 L 251.914063 192.417969 C 251.914063 191.742188 251.367188 191.199219 250.695313 191.199219 L 173.910156 191.195313 C 173.585938 191.195313 173.273438 191.320313 173.046875 191.550781 M 175.128906 193.632813 C 177.453125 193.632813 247.148438 193.636719 249.472656 193.636719 C 249.472656 195.984375 249.472656 284.335938 249.472656 286.683594 C 247.148438 286.683594 177.453125 286.683594 175.128906 286.683594 C 175.128906 284.335938 175.128906 195.980469 175.128906 193.632813 "/>
<path style=" stroke:none;fill-rule:nonzero;fill:rgb(13.699341%,12.199402%,12.5%);fill-opacity:1;" d="M 18.65625 191.550781 C 18.425781 191.78125 18.296875 192.089844 18.296875 192.414063 L 18.296875 287.902344 C 18.296875 288.578125 18.84375 289.121094 19.519531 289.121094 L 96.332031 289.125 C 96.652344 289.125 96.964844 288.996094 97.191406 288.765625 C 97.421875 288.535156 97.550781 288.226563 97.550781 287.902344 L 97.550781 192.433594 C 97.550781 191.757813 97.003906 191.210938 96.332031 191.210938 L 19.519531 191.195313 C 19.195313 191.195313 18.886719 191.324219 18.65625 191.550781 M 20.738281 193.636719 C 22.988281 193.636719 92.796875 193.652344 95.109375 193.652344 C 95.109375 195.996094 95.109375 284.335938 95.109375 286.683594 C 92.785156 286.683594 23.0625 286.683594 20.738281 286.683594 C 20.738281 284.335938 20.738281 195.984375 20.738281 193.636719 "/>
<path style=" stroke:none;fill-rule:nonzero;fill:rgb(13.699341%,12.199402%,12.5%);fill-opacity:1;" d="M 261.65625 18.300781 C 261.328125 18.300781 261.011719 18.433594 260.78125 18.671875 C 260.5625 18.898438 260.4375 19.203125 260.4375 19.519531 C 260.4375 19.535156 260.453125 19.964844 260.453125 19.964844 C 260.453125 19.964844 260.453125 295.242188 260.453125 297.660156 C 258.039063 297.660156 19.519531 297.660156 19.519531 297.660156 C 18.84375 297.660156 18.300781 298.207031 18.300781 298.882813 L 18.296875 532.496094 C 18.296875 547.9375 29.585938 558.726563 45.746094 558.726563 L 200.675781 558.726563 C 218.816406 558.726563 232.144531 567.039063 240.132813 574.011719 C 240.59375 574.410156 241.277344 574.414063 241.734375 574.011719 C 249.722656 567.039063 263.050781 558.726563 281.191406 558.726563 L 436.121094 558.726563 C 452.28125 558.726563 463.570313 547.9375 463.570313 532.496094 L 463.570313 19.519531 C 463.570313 18.847656 463.023438 18.300781 462.351563 18.300781 L 261.65625 18.300781 M 461.128906 20.738281 C 461.128906 23.167969 461.128906 532.496094 461.128906 532.496094 C 461.128906 546.503906 450.847656 556.285156 436.121094 556.285156 L 281.191406 556.285156 C 262.855469 556.285156 249.308594 564.410156 240.933594 571.515625 C 232.558594 564.410156 219.011719 556.285156 200.675781 556.285156 L 45.746094 556.285156 C 31.023438 556.285156 20.738281 546.503906 20.738281 532.496094 C 20.738281 532.496094 20.738281 302.515625 20.738281 300.101563 C 23.15625 300.101563 261.671875 300.101563 261.671875 300.101563 C 262.347656 300.101563 262.894531 299.554688 262.894531 298.882813 C 262.894531 298.882813 262.894531 22.371094 262.894531 20.738281 C 265.316406 20.738281 458.734375 20.738281 461.128906 20.738281 "/>
<path style=" stroke:none;fill-rule:nonzero;fill:rgb(13.699341%,12.199402%,12.5%);fill-opacity:1;" d="M 107.308594 18.273438 C 106.636719 18.273438 106.089844 18.820313 106.089844 19.492188 C 106.089844 19.492188 106.089844 122.386719 106.089844 124.769531 C 103.714844 124.769531 19.546875 124.769531 19.546875 124.769531 C 18.871094 124.769531 18.328125 125.316406 18.328125 125.988281 L 18.328125 181.4375 C 18.328125 182.109375 18.871094 182.65625 19.546875 182.65625 C 19.546875 182.65625 103.71875 182.675781 106.089844 182.675781 C 106.089844 185.058594 106.089844 287.902344 106.089844 287.902344 C 106.089844 288.574219 106.636719 289.121094 107.308594 289.121094 L 162.929688 289.121094 C 163.605469 289.121094 164.148438 288.574219 164.148438 287.902344 C 164.148438 287.902344 164.148438 185.039063 164.148438 182.65625 C 166.523438 182.65625 250.695313 182.65625 250.695313 182.65625 C 251.367188 182.65625 251.914063 182.109375 251.914063 181.433594 L 251.914063 125.988281 C 251.914063 125.316406 251.367188 124.769531 250.695313 124.769531 C 250.695313 124.769531 166.542969 124.769531 164.171875 124.769531 C 164.171875 122.386719 164.152344 19.492188 164.152344 19.492188 C 164.152344 18.820313 163.605469 18.273438 162.929688 18.273438 L 107.308594 18.273438 M 161.710938 20.714844 C 161.710938 23.097656 161.730469 125.988281 161.730469 125.988281 C 161.730469 126.664063 162.277344 127.207031 162.949219 127.207031 C 162.949219 127.207031 247.101563 127.207031 249.472656 127.207031 C 249.472656 129.488281 249.472656 177.933594 249.472656 180.214844 C 247.101563 180.214844 162.929688 180.214844 162.929688 180.214844 C 162.257813 180.214844 161.710938 180.761719 161.710938 181.433594 C 161.710938 181.433594 161.710938 284.296875 161.710938 286.683594 C 159.429688 286.683594 110.8125 286.683594 108.527344 286.683594 C 108.527344 284.296875 108.527344 181.453125 108.527344 181.453125 C 108.527344 180.78125 107.984375 180.234375 107.308594 180.234375 C 107.308594 180.234375 23.136719 180.214844 20.765625 180.214844 C 20.765625 177.933594 20.765625 129.488281 20.765625 127.207031 C 23.140625 127.207031 107.308594 127.207031 107.308594 127.207031 C 107.980469 127.207031 108.527344 126.664063 108.527344 125.988281 C 108.527344 125.988281 108.527344 23.097656 108.527344 20.714844 C 110.8125 20.714844 159.429688 20.714844 161.710938 20.714844 "/>
<path style=" stroke:none;fill-rule:nonzero;fill:rgb(13.699341%,12.199402%,12.5%);fill-opacity:1;" d="M 19.519531 18.300781 C 18.84375 18.300781 18.296875 18.847656 18.296875 19.519531 L 18.296875 115.007813 C 18.296875 115.683594 18.84375 116.230469 19.519531 116.230469 L 96.328125 116.230469 C 97.003906 116.230469 97.550781 115.683594 97.550781 115.007813 L 97.550781 19.519531 C 97.550781 19.195313 97.421875 18.886719 97.191406 18.65625 C 96.964844 18.429688 96.652344 18.300781 96.332031 18.300781 L 19.519531 18.300781 M 95.109375 20.738281 C 95.109375 23.097656 95.109375 111.582031 95.109375 113.789063 C 92.785156 113.789063 23.0625 113.789063 20.738281 113.789063 C 20.738281 111.441406 20.738281 23.085938 20.738281 20.738281 C 23.0625 20.738281 92.785156 20.738281 95.109375 20.738281 "/>
<path style=" stroke:none;fill-rule:nonzero;fill:rgb(90.19928%,62.399292%,17.999268%);fill-opacity:1;" d="M 100.644531 484.289063 L 127.886719 485.171875 C 126.566406 493.585938 122.027344 500.035156 114.277344 504.527344 C 106.523438 509.019531 96.996094 511.265625 85.699219 511.265625 C 72.097656 511.265625 61.117188 508.164063 52.753906 501.953125 C 44.386719 495.746094 40.207031 487.175781 40.207031 476.238281 C 40.207031 465.410156 44.167969 456.671875 52.09375 450.023438 C 60.015625 443.375 71.070313 440.050781 85.257813 440.050781 C 98.515625 440.050781 108.699219 442.574219 115.816406 447.621094 C 122.933594 452.667969 126.957031 459.363281 127.886719 467.703125 L 101.101563 468.480469 C 100.949219 462.957031 95 455.589844 84.328125 455.433594 C 74.632813 455.296875 68.164063 462.191406 68.164063 475.695313 C 68.164063 484.902344 75.027344 492.730469 85.242188 492.730469 C 93.378906 492.730469 97.59375 489.507813 100.644531 484.289063 "/>
<path style=" stroke:none;fill-rule:nonzero;fill:rgb(13.699341%,12.199402%,12.5%);fill-opacity:1;" d="M 51.308594 449.089844 C 43.132813 455.949219 38.984375 465.085938 38.984375 476.238281 C 38.984375 487.53125 43.371094 496.511719 52.027344 502.933594 C 60.566406 509.269531 71.894531 512.484375 85.699219 512.484375 C 97.160156 512.484375 106.980469 510.164063 114.886719 505.582031 C 122.9375 500.917969 127.71875 494.113281 129.09375 485.363281 C 129.148438 485.015625 129.050781 484.664063 128.828125 484.394531 C 128.605469 484.125 128.277344 483.964844 127.925781 483.953125 L 100.683594 483.070313 C 100.234375 483.054688 99.816406 483.285156 99.589844 483.671875 C 96.335938 489.238281 92.179688 491.511719 85.242188 491.511719 C 76.203125 491.511719 69.382813 484.710938 69.382813 475.695313 C 69.382813 468.859375 71.117188 463.539063 74.398438 460.304688 C 76.914063 457.824219 80.246094 456.597656 84.308594 456.65625 C 94.261719 456.796875 99.746094 463.632813 99.882813 468.515625 C 99.890625 468.835938 100.027344 469.144531 100.261719 469.367188 C 100.496094 469.589844 100.8125 469.710938 101.136719 469.699219 L 127.921875 468.925781 C 128.261719 468.914063 128.585938 468.761719 128.808594 468.503906 C 129.03125 468.246094 129.140625 467.90625 129.101563 467.570313 C 128.132813 458.90625 123.902344 451.859375 116.523438 446.628906 C 109.226563 441.453125 98.707031 438.832031 85.257813 438.832031 C 70.84375 438.832031 59.421875 442.28125 51.308594 449.089844 M 53.480469 500.972656 C 45.367188 494.953125 41.425781 486.863281 41.425781 476.238281 C 41.425781 465.839844 45.277344 457.332031 52.875 450.957031 C 60.539063 444.53125 71.433594 441.273438 85.257813 441.273438 C 98.191406 441.273438 108.234375 443.742188 115.109375 448.617188 C 121.515625 453.15625 125.304688 459.191406 126.460938 466.527344 C 124.066406 466.59375 104.019531 467.175781 102.144531 467.230469 C 101.273438 461.671875 95.523438 454.375 84.34375 454.214844 C 79.671875 454.148438 75.640625 455.652344 72.683594 458.566406 C 68.929688 462.269531 66.945313 468.191406 66.945313 475.695313 C 66.945313 486.101563 74.808594 493.949219 85.242188 493.949219 C 92.6875 493.949219 97.660156 491.324219 101.285156 485.53125 C 102.507813 485.570313 123.863281 486.261719 126.398438 486.34375 C 124.871094 493.757813 120.71875 499.382813 113.664063 503.472656 C 106.136719 507.832031 96.726563 510.042969 85.699219 510.042969 C 72.429688 510.042969 61.589844 506.992188 53.480469 500.972656 "/>
<path style=" stroke:none;fill-rule:nonzero;fill:rgb(90.19928%,62.399292%,17.999268%);fill-opacity:1;" d="M 184.800781 511.113281 C 172.132813 511.113281 161.808594 507.90625 153.824219 501.492188 C 145.84375 495.078125 141.851563 486.496094 141.851563 475.75 C 141.851563 465.476563 145.667969 456.988281 153.300781 450.289063 C 160.929688 443.589844 171.519531 440.238281 185.066406 440.238281 C 197.597656 440.238281 207.8125 443.398438 215.710938 449.707031 C 223.605469 456.023438 227.550781 464.449219 227.550781 474.996094 C 227.550781 485.910156 223.570313 494.65625 215.609375 501.238281 C 207.648438 507.824219 197.378906 511.113281 184.800781 511.113281 M 185.269531 495.613281 C 191.152344 495.613281 195.382813 494.054688 197.964844 490.925781 C 200.542969 487.804688 201.835938 482.085938 201.835938 473.777344 C 201.835938 461.75 196.535156 455.738281 185.9375 455.738281 C 174.503906 455.738281 168.789063 462.597656 168.789063 476.308594 C 168.789063 489.179688 174.28125 495.613281 185.269531 495.613281 "/>
<path style=" stroke:none;fill-rule:nonzero;fill:rgb(13.699341%,12.199402%,12.5%);fill-opacity:1;" d="M 152.492188 449.371094 C 144.621094 456.28125 140.632813 465.15625 140.632813 475.75 C 140.632813 486.835938 144.8125 495.816406 153.0625 502.441406 C 161.226563 509.003906 171.90625 512.332031 184.800781 512.332031 C 197.613281 512.332031 208.242188 508.917969 216.386719 502.179688 C 224.605469 495.386719 228.773438 486.238281 228.773438 474.996094 C 228.773438 464.113281 224.632813 455.285156 216.472656 448.753906 C 208.390625 442.296875 197.824219 439.019531 185.066406 439.019531 C 171.277344 439.019531 160.316406 442.503906 152.492188 449.371094 M 154.589844 500.539063 C 146.945313 494.402344 143.074219 486.058594 143.074219 475.75 C 143.074219 465.890625 146.785156 457.632813 154.105469 451.207031 C 161.46875 444.738281 171.886719 441.460938 185.066406 441.460938 C 197.253906 441.460938 207.308594 444.554688 214.945313 450.660156 C 222.503906 456.703125 226.332031 464.890625 226.332031 474.996094 C 226.332031 485.476563 222.464844 493.992188 214.832031 500.300781 C 207.136719 506.664063 197.03125 509.890625 184.800781 509.890625 C 172.476563 509.890625 162.3125 506.746094 154.589844 500.539063 "/>
<path style=" stroke:none;fill-rule:nonzero;fill:rgb(13.699341%,12.199402%,12.5%);fill-opacity:1;" d="M 167.570313 476.308594 C 167.570313 489.929688 173.523438 496.832031 185.269531 496.832031 C 191.507813 496.832031 196.09375 495.109375 198.902344 491.703125 C 201.695313 488.324219 203.054688 482.460938 203.054688 473.777344 C 203.054688 460.996094 197.296875 454.519531 185.9375 454.519531 C 173.75 454.519531 167.570313 461.847656 167.570313 476.308594 M 170.007813 476.308594 C 170.007813 463.289063 175.21875 456.957031 185.9375 456.957031 C 195.8125 456.957031 200.613281 462.460938 200.613281 473.777344 C 200.613281 481.757813 199.40625 487.265625 197.023438 490.148438 C 194.695313 492.964844 190.742188 494.394531 185.269531 494.394531 C 175 494.394531 170.007813 488.476563 170.007813 476.308594 "/>
<path style=" stroke:none;fill-rule:nonzero;fill:rgb(90.19928%,62.399292%,17.999268%);fill-opacity:1;" d="M 396 511.113281 C 383.332031 511.113281 373.007813 507.902344 365.023438 501.488281 C 357.042969 495.070313 353.050781 486.484375 353.050781 475.734375 C 353.050781 465.453125 356.867188 456.960938 364.496094 450.257813 C 372.128906 443.554688 382.71875 440.203125 396.265625 440.203125 C 408.796875 440.203125 419.015625 443.363281 426.90625 449.679688 C 434.800781 455.996094 438.75 464.425781 438.75 474.976563 C 438.75 485.898438 434.769531 494.648438 426.808594 501.234375 C 418.847656 507.820313 408.578125 511.113281 396 511.113281 M 396.46875 495.605469 C 402.351563 495.605469 406.582031 494.042969 409.160156 490.914063 C 411.742188 487.792969 413.03125 482.070313 413.03125 473.757813 C 413.03125 461.726563 407.734375 455.710938 397.136719 455.710938 C 385.703125 455.710938 379.988281 462.570313 379.988281 476.292969 C 379.988281 489.167969 385.480469 495.605469 396.46875 495.605469 "/>
<path style=" stroke:none;fill-rule:nonzero;fill:rgb(13.699341%,12.199402%,12.5%);fill-opacity:1;" d="M 363.691406 449.34375 C 355.820313 456.257813 351.832031 465.136719 351.832031 475.734375 C 351.832031 486.824219 356.011719 495.808594 364.261719 502.4375 C 372.429688 509.003906 383.105469 512.332031 396 512.332031 C 408.8125 512.332031 419.4375 508.914063 427.585938 502.171875 C 435.804688 495.375 439.96875 486.226563 439.96875 474.976563 C 439.96875 464.089844 435.832031 455.257813 427.671875 448.726563 C 419.589844 442.261719 409.023438 438.984375 396.265625 438.984375 C 382.472656 438.984375 371.515625 442.46875 363.691406 449.34375 M 365.789063 500.535156 C 358.144531 494.394531 354.269531 486.046875 354.269531 475.734375 C 354.269531 465.867188 357.980469 457.605469 365.304688 451.175781 C 372.664063 444.703125 383.082031 441.425781 396.265625 441.425781 C 408.453125 441.425781 418.507813 444.523438 426.144531 450.632813 C 433.699219 456.675781 437.53125 464.867188 437.53125 474.976563 C 437.53125 485.464844 433.660156 493.980469 426.03125 500.292969 C 418.332031 506.664063 408.230469 509.890625 396 509.890625 C 383.675781 509.890625 373.511719 506.746094 365.789063 500.535156 "/>
<path style=" stroke:none;fill-rule:nonzero;fill:rgb(13.699341%,12.199402%,12.5%);fill-opacity:1;" d="M 378.769531 476.292969 C 378.769531 489.917969 384.722656 496.824219 396.46875 496.824219 C 402.703125 496.824219 407.292969 495.097656 410.101563 491.691406 C 412.894531 488.3125 414.253906 482.445313 414.253906 473.757813 C 414.253906 460.972656 408.496094 454.488281 397.136719 454.488281 C 384.949219 454.488281 378.769531 461.824219 378.769531 476.292969 M 381.210938 476.292969 C 381.210938 463.265625 386.417969 456.929688 397.136719 456.929688 C 407.011719 456.929688 411.8125 462.433594 411.8125 473.757813 C 411.8125 481.742188 410.605469 487.253906 408.222656 490.140625 C 405.894531 492.957031 401.941406 494.386719 396.46875 494.386719 C 386.199219 494.386719 381.210938 488.46875 381.210938 476.292969 "/>
<path style=" stroke:none;fill-rule:nonzero;fill:rgb(90.19928%,62.399292%,17.999268%);fill-opacity:1;" d="M 341.632813 441.425781 L 341.632813 509.890625 L 314.851563 509.890625 L 314.851563 471.910156 L 297.4375 509.890625 L 279.140625 509.890625 L 261.003906 471.910156 L 261.003906 509.890625 L 239.464844 509.890625 L 239.464844 441.425781 L 277.144531 441.425781 L 290.722656 472.714844 L 303.765625 441.425781 L 341.632813 441.425781 "/>
<path style=" stroke:none;fill-rule:nonzero;fill:rgb(13.699341%,12.199402%,12.5%);fill-opacity:1;" d="M 303.765625 440.203125 C 303.273438 440.203125 302.828125 440.5 302.640625 440.953125 C 302.640625 440.953125 292.550781 465.160156 290.699219 469.597656 C 288.78125 465.183594 278.265625 440.9375 278.265625 440.9375 C 278.070313 440.492188 277.632813 440.203125 277.144531 440.203125 L 239.464844 440.203125 C 238.789063 440.203125 238.242188 440.75 238.242188 441.425781 L 238.242188 509.890625 C 238.242188 510.566406 238.789063 511.113281 239.464844 511.113281 L 261.003906 511.113281 C 261.675781 511.113281 262.222656 510.566406 262.222656 509.890625 C 262.222656 509.890625 262.222656 485.230469 262.222656 477.296875 C 265.753906 484.6875 278.039063 510.417969 278.039063 510.417969 C 278.242188 510.84375 278.671875 511.113281 279.140625 511.113281 L 297.4375 511.113281 C 297.914063 511.113281 298.347656 510.832031 298.546875 510.402344 C 298.546875 510.402344 310.136719 485.121094 313.632813 477.496094 C 313.632813 485.628906 313.632813 509.890625 313.632813 509.890625 C 313.632813 510.566406 314.179688 511.113281 314.851563 511.113281 L 341.632813 511.113281 C 342.304688 511.113281 342.851563 510.566406 342.851563 509.890625 L 342.851563 441.425781 C 342.851563 440.75 342.304688 440.203125 341.632813 440.203125 L 303.765625 440.203125 M 340.410156 442.644531 C 340.410156 444.953125 340.410156 506.359375 340.410156 508.671875 C 338.296875 508.671875 318.1875 508.671875 316.070313 508.671875 C 316.070313 506.386719 316.070313 471.910156 316.070313 471.910156 C 316.070313 471.335938 315.671875 470.839844 315.113281 470.71875 C 314.550781 470.597656 313.980469 470.878906 313.742188 471.402344 C 313.742188 471.402344 297.285156 507.300781 296.65625 508.671875 C 295.28125 508.671875 281.257813 508.671875 279.910156 508.671875 C 279.269531 507.332031 262.101563 471.382813 262.101563 471.382813 C 261.855469 470.871094 261.289063 470.59375 260.734375 470.71875 C 260.175781 470.847656 259.78125 471.339844 259.78125 471.910156 C 259.78125 471.910156 259.78125 506.386719 259.78125 508.671875 C 257.742188 508.671875 242.722656 508.671875 240.683594 508.671875 C 240.683594 506.359375 240.683594 444.953125 240.683594 442.644531 C 242.917969 442.644531 274.863281 442.644531 276.34375 442.644531 C 276.953125 444.042969 289.601563 473.199219 289.601563 473.199219 C 289.796875 473.648438 290.238281 473.9375 290.730469 473.933594 C 291.21875 473.929688 291.65625 473.636719 291.847656 473.183594 C 291.847656 473.183594 303.984375 444.074219 304.578125 442.644531 C 306.085938 442.644531 338.175781 442.644531 340.410156 442.644531 "/>
<path style=" stroke:none;fill-rule:nonzero;fill:rgb(90.19928%,62.399292%,17.999268%);fill-opacity:1;" d="M 410.75 187.460938 L 408.070313 179.8125 L 379.664063 179.734375 L 376.769531 187.460938 L 354.828125 187.460938 L 382.074219 116.757813 L 410.660156 116.757813 L 438.316406 187.460938 L 410.75 187.460938 M 384.578125 164.449219 L 403.359375 164.449219 L 393.839844 137.628906 L 384.578125 164.449219 "/>
<path style=" stroke:none;fill-rule:nonzero;fill:rgb(13.699341%,12.199402%,12.5%);fill-opacity:1;" d="M 382.074219 115.539063 C 381.570313 115.539063 381.117188 115.847656 380.9375 116.320313 L 353.6875 187.023438 C 353.546875 187.398438 353.59375 187.820313 353.820313 188.152344 C 354.050781 188.484375 354.425781 188.683594 354.828125 188.683594 L 376.769531 188.683594 C 377.277344 188.683594 377.734375 188.367188 377.914063 187.890625 C 377.914063 187.890625 380.03125 182.234375 380.511719 180.957031 C 382.058594 180.960938 405.632813 181.023438 407.203125 181.027344 C 407.660156 182.328125 409.597656 187.867188 409.597656 187.867188 C 409.769531 188.355469 410.230469 188.683594 410.75 188.683594 L 438.316406 188.683594 C 438.71875 188.683594 439.097656 188.484375 439.324219 188.152344 C 439.550781 187.816406 439.597656 187.394531 439.453125 187.019531 L 411.796875 116.3125 C 411.613281 115.847656 411.164063 115.539063 410.660156 115.539063 L 382.074219 115.539063 M 409.828125 117.976563 C 410.40625 119.460938 435.300781 183.105469 436.527344 186.242188 C 433.507813 186.242188 413.132813 186.242188 411.617188 186.242188 C 411.160156 184.9375 409.222656 179.40625 409.222656 179.40625 C 409.050781 178.917969 408.589844 178.59375 408.074219 178.589844 C 408.074219 178.589844 379.667969 178.515625 379.664063 178.515625 C 379.15625 178.515625 378.703125 178.832031 378.523438 179.308594 C 378.523438 179.308594 376.402344 184.964844 375.925781 186.242188 C 374.492188 186.242188 359.480469 186.242188 356.605469 186.242188 C 357.808594 183.113281 382.335938 119.46875 382.910156 117.976563 C 384.441406 117.976563 408.304688 117.976563 409.828125 117.976563 "/>
<path style=" stroke:none;fill-rule:nonzero;fill:rgb(13.699341%,12.199402%,12.5%);fill-opacity:1;" d="M 393.835938 136.410156 C 393.316406 136.410156 392.855469 136.742188 392.6875 137.230469 L 383.425781 164.050781 C 383.296875 164.421875 383.355469 164.835938 383.585938 165.15625 C 383.816406 165.476563 384.1875 165.667969 384.578125 165.667969 L 403.359375 165.667969 C 403.757813 165.667969 404.128906 165.476563 404.355469 165.152344 C 404.585938 164.828125 404.644531 164.414063 404.511719 164.039063 L 394.992188 137.222656 C 394.816406 136.734375 394.355469 136.40625 393.835938 136.410156 M 393.855469 141.320313 C 395.527344 146.027344 400.746094 160.730469 401.632813 163.230469 C 399.070313 163.230469 388.832031 163.230469 386.289063 163.230469 C 387.148438 160.746094 392.226563 146.039063 393.855469 141.320313 "/>
<path style=" stroke:none;fill-rule:nonzero;fill:rgb(90.19928%,62.399292%,17.999268%);fill-opacity:1;" d="M 431.835938 249.582031 L 431.835938 266.859375 L 362.90625 266.859375 L 362.90625 196.257813 L 388.695313 196.257813 L 388.695313 249.605469 L 431.835938 249.582031 "/>
<path style=" stroke:none;fill-rule:nonzero;fill:rgb(13.699341%,12.199402%,12.5%);fill-opacity:1;" d="M 362.90625 195.035156 C 362.234375 195.035156 361.6875 195.582031 361.6875 196.257813 L 361.6875 266.859375 C 361.6875 267.53125 362.234375 268.078125 362.90625 268.078125 L 431.835938 268.078125 C 432.507813 268.078125 433.054688 267.53125 433.054688 266.859375 L 433.054688 249.582031 C 433.054688 249.257813 432.925781 248.949219 432.695313 248.71875 C 432.46875 248.492188 432.15625 248.363281 431.832031 248.363281 C 431.832031 248.363281 392.222656 248.382813 389.917969 248.382813 C 389.917969 246.054688 389.917969 196.257813 389.917969 196.257813 C 389.917969 195.582031 389.371094 195.035156 388.695313 195.035156 L 362.90625 195.035156 M 387.476563 197.476563 C 387.476563 199.804688 387.476563 249.605469 387.476563 249.605469 C 387.476563 249.925781 387.605469 250.238281 387.835938 250.46875 C 388.0625 250.695313 388.375 250.824219 388.699219 250.824219 C 388.699219 250.824219 428.308594 250.804688 430.613281 250.804688 C 430.613281 252.75 430.613281 263.691406 430.613281 265.640625 C 428.300781 265.640625 366.441406 265.640625 364.128906 265.640625 C 364.128906 263.324219 364.128906 199.789063 364.128906 197.476563 C 366.234375 197.476563 385.371094 197.476563 387.476563 197.476563 "/>
<path style=" stroke:none;fill-rule:nonzero;fill:rgb(90.19928%,62.399292%,17.999268%);fill-opacity:1;" d="M 408.878906 358.910156 L 408.878906 429.617188 L 383.5625 429.617188 L 383.5625 358.910156 L 408.878906 358.910156 "/>
<path style=" stroke:none;fill-rule:nonzero;fill:rgb(13.699341%,12.199402%,12.5%);fill-opacity:1;" d="M 383.5625 357.691406 C 382.890625 357.691406 382.34375 358.238281 382.34375 358.910156 L 382.34375 429.617188 C 382.34375 430.292969 382.890625 430.839844 383.5625 430.839844 L 408.878906 430.839844 C 409.550781 430.839844 410.097656 430.292969 410.097656 429.617188 L 410.097656 358.910156 C 410.097656 358.238281 409.550781 357.691406 408.878906 357.691406 L 383.5625 357.691406 M 407.65625 360.132813 C 407.65625 362.445313 407.65625 426.082031 407.65625 428.398438 C 405.558594 428.398438 386.882813 428.398438 384.785156 428.398438 C 384.785156 426.082031 384.785156 362.445313 384.785156 360.132813 C 386.882813 360.132813 405.558594 360.132813 407.65625 360.132813 "/>
<path style=" stroke:none;fill-rule:nonzero;fill:rgb(90.19928%,62.399292%,17.999268%);fill-opacity:1;" d="M 410.65625 321.359375 L 437.898438 322.242188 C 436.578125 330.628906 432.042969 337.058594 424.289063 341.535156 C 416.535156 346.015625 407.011719 348.253906 395.710938 348.253906 C 382.109375 348.253906 371.128906 345.160156 362.765625 338.96875 C 354.398438 332.78125 350.21875 324.238281 350.21875 313.335938 C 350.21875 302.539063 354.179688 293.828125 362.105469 287.199219 C 370.027344 280.574219 381.085938 277.257813 395.269531 277.257813 C 408.523438 277.257813 418.714844 279.773438 425.828125 284.804688 C 432.945313 289.835938 436.96875 296.511719 437.898438 304.828125 L 411.113281 305.601563 C 410.960938 300.09375 405.011719 292.75 394.339844 292.59375 C 384.644531 292.457031 378.175781 299.332031 378.175781 312.792969 C 378.175781 321.972656 385.035156 329.773438 395.253906 329.773438 C 403.390625 329.773438 407.605469 326.5625 410.65625 321.359375 "/>
<path style=" stroke:none;fill-rule:nonzero;fill:rgb(13.699341%,12.199402%,12.5%);fill-opacity:1;" d="M 361.320313 286.261719 C 353.144531 293.101563 348.996094 302.210938 348.996094 313.335938 C 348.996094 324.59375 353.386719 333.550781 362.039063 339.949219 C 370.574219 346.269531 381.902344 349.472656 395.710938 349.472656 C 407.171875 349.472656 416.992188 347.15625 424.898438 342.59375 C 432.949219 337.941406 437.730469 331.160156 439.105469 322.433594 C 439.160156 322.085938 439.0625 321.734375 438.839844 321.464844 C 438.617188 321.195313 438.289063 321.035156 437.9375 321.023438 L 410.695313 320.140625 C 410.246094 320.125 409.828125 320.355469 409.601563 320.742188 C 406.351563 326.289063 402.191406 328.554688 395.253906 328.554688 C 386.214844 328.554688 379.394531 321.777344 379.394531 312.792969 C 379.394531 305.988281 381.125 300.691406 384.394531 297.464844 C 386.910156 294.984375 390.253906 293.753906 394.320313 293.8125 C 404.273438 293.957031 409.757813 300.773438 409.894531 305.636719 C 409.902344 305.957031 410.039063 306.265625 410.273438 306.488281 C 410.511719 306.710938 410.824219 306.828125 411.148438 306.820313 L 437.933594 306.046875 C 438.277344 306.035156 438.597656 305.886719 438.820313 305.628906 C 439.046875 305.371094 439.148438 305.03125 439.113281 304.691406 C 438.144531 296.054688 433.914063 289.027344 426.535156 283.808594 C 419.238281 278.652344 408.71875 276.039063 395.269531 276.039063 C 380.855469 276.039063 369.4375 279.476563 361.320313 286.261719 M 363.488281 337.988281 C 355.378906 331.988281 351.4375 323.925781 351.4375 313.335938 C 351.4375 302.96875 355.289063 294.488281 362.886719 288.136719 C 370.550781 281.726563 381.445313 278.476563 395.269531 278.476563 C 408.203125 278.476563 418.25 280.941406 425.125 285.800781 C 431.527344 290.328125 435.316406 296.339844 436.472656 303.648438 C 434.078125 303.71875 414.03125 304.296875 412.152344 304.351563 C 411.28125 298.808594 405.53125 291.535156 394.355469 291.375 C 389.675781 291.308594 385.640625 292.8125 382.679688 295.730469 C 378.933594 299.421875 376.953125 305.320313 376.953125 312.792969 C 376.953125 323.167969 384.820313 330.996094 395.253906 330.996094 C 402.699219 330.996094 407.671875 328.375 411.296875 322.601563 C 412.515625 322.640625 433.871094 323.332031 436.40625 323.414063 C 434.882813 330.796875 430.730469 336.40625 423.679688 340.480469 C 416.148438 344.828125 406.738281 347.03125 395.710938 347.03125 C 382.4375 347.03125 371.597656 343.988281 363.488281 337.988281 "/>
<path style=" stroke:none;fill-rule:nonzero;fill:rgb(90.19928%,62.399292%,17.999268%);fill-opacity:1;" d="M 410.503906 78.230469 L 437.746094 79.109375 C 436.425781 87.464844 431.890625 93.875 424.136719 98.335938 C 416.382813 102.800781 406.855469 105.03125 395.558594 105.03125 C 381.960938 105.03125 370.976563 101.949219 362.609375 95.78125 C 354.246094 89.613281 350.066406 81.097656 350.066406 70.234375 C 350.066406 59.472656 354.027344 50.789063 361.953125 44.183594 C 369.875 37.578125 380.933594 34.277344 395.117188 34.277344 C 408.371094 34.277344 418.558594 36.78125 425.675781 41.796875 C 432.792969 46.8125 436.816406 53.464844 437.746094 61.75 L 410.960938 62.523438 C 410.808594 57.03125 404.859375 49.714844 394.1875 49.558594 C 384.492188 49.421875 378.023438 56.273438 378.023438 69.6875 C 378.023438 78.839844 384.886719 86.613281 395.101563 86.613281 C 403.238281 86.613281 407.453125 83.414063 410.503906 78.230469 "/>
<path style=" stroke:none;fill-rule:nonzero;fill:rgb(13.699341%,12.199402%,12.5%);fill-opacity:1;" d="M 361.171875 43.246094 C 352.992188 50.0625 348.84375 59.144531 348.84375 70.234375 C 348.84375 81.457031 353.234375 90.378906 361.886719 96.761719 C 370.425781 103.058594 381.753906 106.25 395.558594 106.25 C 407.019531 106.25 416.839844 103.945313 424.746094 99.394531 C 432.796875 94.757813 437.578125 87.996094 438.953125 79.296875 C 439.007813 78.953125 438.910156 78.601563 438.6875 78.328125 C 438.464844 78.0625 438.136719 77.898438 437.785156 77.886719 L 410.542969 77.007813 C 410.097656 76.996094 409.679688 77.226563 409.453125 77.609375 C 406.199219 83.140625 402.039063 85.394531 395.101563 85.394531 C 386.0625 85.394531 379.242188 78.644531 379.242188 69.6875 C 379.242188 62.921875 380.964844 57.648438 384.226563 54.4375 C 386.742188 51.953125 390.089844 50.722656 394.171875 50.78125 C 404.121094 50.921875 409.605469 57.710938 409.742188 62.554688 C 409.75 62.878906 409.886719 63.1875 410.121094 63.410156 C 410.359375 63.632813 410.671875 63.75 410.996094 63.742188 L 437.78125 62.972656 C 438.121094 62.960938 438.445313 62.808594 438.667969 62.550781 C 438.890625 62.292969 438.996094 61.953125 438.960938 61.613281 C 437.992188 53.003906 433.761719 46.003906 426.378906 40.800781 C 419.085938 35.660156 408.566406 33.054688 395.117188 33.054688 C 380.703125 33.054688 369.285156 36.484375 361.171875 43.246094 M 363.335938 94.796875 C 355.226563 88.820313 351.285156 80.785156 351.285156 70.234375 C 351.285156 59.902344 355.136719 51.453125 362.730469 45.117188 C 370.394531 38.734375 381.289063 35.496094 395.117188 35.496094 C 408.054688 35.496094 418.101563 37.949219 424.972656 42.796875 C 431.375 47.304688 435.164063 53.292969 436.320313 60.570313 C 433.925781 60.640625 413.875 61.21875 412.003906 61.273438 C 411.128906 55.746094 405.378906 48.5 394.203125 48.339844 C 389.515625 48.273438 385.472656 49.78125 382.511719 52.699219 C 378.777344 56.382813 376.800781 62.257813 376.800781 69.6875 C 376.800781 80.035156 384.671875 87.835938 395.101563 87.835938 C 402.546875 87.835938 407.515625 85.226563 411.140625 79.46875 C 412.359375 79.507813 433.71875 80.199219 436.253906 80.28125 C 434.726563 87.636719 430.578125 93.222656 423.527344 97.28125 C 415.996094 101.613281 406.585938 103.8125 395.558594 103.8125 C 382.285156 103.8125 371.445313 100.777344 363.335938 94.796875 "/>
</g>
</svg>
