<?xml version="1.0" encoding="UTF-8"?>
<svg xmlns="http://www.w3.org/2000/svg" xmlns:xlink="http://www.w3.org/1999/xlink" width="785.013" height="315.349" viewBox="0 0 785.013 315.349">
  <defs>
    <linearGradient id="linear-gradient" y1="0.5" x2="1" y2="0.5" gradientUnits="objectBoundingBox">
      <stop offset="0" stop-color="#e36925"></stop>
      <stop offset="0.268" stop-color="#e47025"></stop>
      <stop offset="0.669" stop-color="#e88524"></stop>
      <stop offset="1" stop-color="#ec9b23"></stop>
    </linearGradient>
  </defs>
  <g id="MCR" transform="translate(-1367.073 -1719.125)">
    <path id="Path_1" data-name="Path 1" d="M2349.717,2135.908a44.438,44.438,0,1,1-44.438-44.438,44.436,44.436,0,0,1,44.438,44.438m-51.267-17.9c2.829,2.027,7.755,2.085,10.994,1.31a8.3,8.3,0,0,0,4.762-3.207q3.568-4.7,7.132-9.412,1.276-1.69,1.359-1.857c1.229-2.57-4.677-4.3-6.508-4.74-8.74-2.071-19.747-1.978-27.453,2.984-1.648,1.06-1.025,2.419.027,3.671q4.3,5.131,8.477,10.13a6.446,6.446,0,0,0,1.212,1.122m-28.433,24.865a1.2,1.2,0,0,0,1.265.183q6.361-2.492,12.94-5.18c5.038-2.054,6.9-8.673,6.419-13.524a4.43,4.43,0,0,0-.788-2.138q-4.21-6.047-8.41-12.09a1.614,1.614,0,0,0-1.684-.846,3.573,3.573,0,0,0-1.987,1.114c-6.918,7.559-11.047,20.562-8.976,30.634a3.1,3.1,0,0,0,1.22,1.848m54.84-5.532a4.57,4.57,0,0,0,1.27.673q6.287,2.2,12.78,4.459a3.81,3.81,0,0,0,1.956.3c2.2-.517,1.96-5.907,1.8-7.7-.753-8.477-3.608-17.208-9.573-23.475-1.336-1.4-3.381-3.261-4.713-1.145q-3.962,6.287-7.818,12.446a4.35,4.35,0,0,0-.664,2.116c-.223,4.325,1.341,9.617,4.962,12.326m-23.676-9.626a9.489,9.489,0,0,1,8.161.013.249.249,0,0,0,.343-.116l1.1-3.007c.094-.263.027-.325-.209-.192a9.513,9.513,0,0,1-10.829-.41q-.367-.254-.227.12l1.341,3.452a.239.239,0,0,0,.321.138m13.332,9.862,3.229.1c.312.013.356-.085.129-.285a9.54,9.54,0,0,1-2.989-10.481c.049-.183.009-.218-.12-.116l-2.846,2.276a.368.368,0,0,0-.049.53,9.349,9.349,0,0,1,2.472,7.666c-.018.165.062.3.174.307m-18.522-.12a.262.262,0,0,0,.236-.3,9.112,9.112,0,0,1,2.054-7.123c.165-.2.343-.25.486-.49a.275.275,0,0,0-.062-.356l-2.526-1.938c-.147-.111-.2-.08-.169.1a9.55,9.55,0,0,1-3.809,10.179c-.156.116-.143.169.049.156l3.742-.231m12.25-1.55a2.958,2.958,0,1,0-2.958,2.958,2.956,2.956,0,0,0,2.958-2.958m-14.005,6.188a9.52,9.52,0,0,1,8.517,6.664c.085.24.165.236.232-.013l.98-3.568a.223.223,0,0,0-.2-.258,9.17,9.17,0,0,1-6.535-4.718c-.08-.151-.223-.231-.3-.178l-2.771,1.809c-.223.147-.2.232.075.263m22.054-.33-2.633-1.719c-.1-.062-.263.031-.361.209a9.04,9.04,0,0,1-6.468,4.646.245.245,0,0,0-.218.281l.846,3.194c.067.254.156.258.267.009a9.6,9.6,0,0,1,9.043-6.12.116.116,0,0,0,.084-.178.277.277,0,0,0-.191-.134,1.263,1.263,0,0,1-.37-.187m-43.507,12.776c4.526,7.893,17.6,18.4,27.257,17.546a1.459,1.459,0,0,0,1.466-1.43,12.485,12.485,0,0,0,0-2.129q-.421-5.927-.855-11.867a8.22,8.22,0,0,0-.8-3.243c-2.12-3.973-8.432-8.268-13.016-6.878l-12.918,3.925c-2.347.713-2.183,2.254-1.14,4.076m37.618,17.952a2.21,2.21,0,0,0,1.385.281c10.018-1.154,22.491-10.8,26.184-20,.677-1.688-.427-2.543-1.964-2.936q-6.248-1.583-12.508-3.14c-4.98-1.239-9.92,2.428-12.6,6.3a7.762,7.762,0,0,0-1.2,4.285q-.167,6.589-.4,13.167a2.1,2.1,0,0,0,1.1,2.04Z" transform="translate(-495.638 -206.483)"></path>
    <path id="Path_2" data-name="Path 2" d="M2185.854,1991.313l-2.971,1.563-1.038.664a92.126,92.126,0,0,0-32.193,126.936c.325.534.414.5.272-.111q-6.822-29.42,7.969-55.445a95.943,95.943,0,0,1,11.07-15.778,94.876,94.876,0,0,1,21.377-18.259c11.346-7.109,24.384-11.591,37.832-11.952a59.555,59.555,0,0,1,26.152,5.363,75.714,75.714,0,0,1,11.043,6.477,3.225,3.225,0,0,0,1.2.855l1.363,1.038c4.4,3.073,8.82,5.163,14.246,5.239,15.885.445,33.5-12,44.638-22.143.228-.209.2-.263-.1-.156-15.359,5.537-28.269-4.7-39.521-13.564a94.347,94.347,0,0,0-15.591-10.468,80.388,80.388,0,0,0-17.8-7.145,86.745,86.745,0,0,0-21.4-3.5,89.945,89.945,0,0,0-46.55,10.388" transform="translate(-426.62 -145.13)" fill="url(#linear-gradient)"></path>
    <path id="Path_3" data-name="Path 3" d="M2196.569,2098.687a76.217,76.217,0,0,0-11.653,18.473l-.561,1.016a82.6,82.6,0,0,0-5.7,50.559,39.484,39.484,0,0,0,5.679,13.493l.86,1.318.829,1.114,1.523,2.022a52.222,52.222,0,0,0,8.816,7.8,88.367,88.367,0,0,0,20.379,11.546,92.348,92.348,0,0,0,45.659,6.014,72.1,72.1,0,0,0,25.083-7.952,85.8,85.8,0,0,0,19.8-15.288,146.688,146.688,0,0,0,16.816-20.714c10.214-14.731,19.164-30.086,29.28-44.817a.2.2,0,0,0-.054-.3.333.333,0,0,0-.37.129,197.981,197.981,0,0,1-29.943,27.578,177.823,177.823,0,0,1-15.292,9.929,141.366,141.366,0,0,1-20.5,9.47,97.845,97.845,0,0,1-27.155,5.7,59.6,59.6,0,0,1-22.62-3.755,54.437,54.437,0,0,1-22.139-16.3c-25.15-31.431-8.557-76.306,29.689-85.789.143-.036.143-.045,0-.031-.6.062-.989.116-1.18.156a83.29,83.29,0,0,0-47.24,28.638" transform="translate(-449.14 -194.514)" fill="url(#linear-gradient)"></path>
    <path id="Path_4" data-name="Path 4" d="M2618.735,2112.588c2.552,7.8,3.167,15.537.223,23.35-7.813,18.179-29.511,22.852-47.2,21.912q-3.842-.207-7.706-.383c-17.377-1.849-36.371-4.018-52.875,3.934-.263.125-.316.067-.161-.178a151.465,151.465,0,0,1,50.421-49.169,85.7,85.7,0,0,1,42.264-12.187c.263,0,.316-.116.156-.325-6.388-8.5-16.513-13.181-27.039-15.635a137.6,137.6,0,0,0-31.609-3.6,3.714,3.714,0,0,0-1.791.455,167.7,167.7,0,0,0-52.772,45.4,182.63,182.63,0,0,0-12.66,18.375l-12.473,20.825q-6.728,11.266-14.384,21.921a101.877,101.877,0,0,1-12.7,14.366,88.049,88.049,0,0,1-20.268,14.255,75.6,75.6,0,0,1-21.578,7.025c-.147.022-.147.04,0,.049,2.036.112,4.129.049,6.076.24,6.566.655,11.025,1.127,16.838.593a93.509,93.509,0,0,0,19.266-3.229,102.29,102.29,0,0,0,15.813-5.234,107.164,107.164,0,0,0,10.914-5.011,103.342,103.342,0,0,0,14.384-9,76.068,76.068,0,0,0,14.143-12.918,58.051,58.051,0,0,0,10.209-15.782,1.192,1.192,0,0,1,.985-.7c7.925-.677,13.025,1.809,18.949,6.7,7.6,6.285,14.606,13.484,18.852,17.016a115.5,115.5,0,0,0,19.716,12.771,148.72,148.72,0,0,0,56.35,18.393c15.675,1.924,33.025,1.172,47.886-4.1a59.9,59.9,0,0,0,34.068-27.048c.12-.2.08-.236-.112-.1-10.067,7.02-22.451,9.5-34.086,9.907a145.252,145.252,0,0,1-47.423-5.586,174.468,174.468,0,0,1-25.257-9.662c-3.35-1.59-6.637-3.746-9.951-5.693-.129-.076-.116-.107.031-.089,11.76,1.328,25.475-4.593,35.845-9.818,10.637-5.118,19.988-10.793,27.734-19.56,15.765-17.827,17.341-43.276,2.6-62.27-7.938-10.223-18.865-17.007-31.182-20.878-21.56-7.029-44.157-4.927-64.929,3.746-.374.156-.356.218.049.178,28.286-2.6,53.891,9.163,64.372,36.754" transform="translate(-570.858 -193.297)" fill="url(#linear-gradient)"></path>
    <g id="Group_1" data-name="Group 1" transform="translate(1402.516 1884.552)">
      <path id="Path_5" data-name="Path 5" d="M1478.271,2091.642a45.147,45.147,0,0,0-20.936,10.544c-16.41,14.727-11.025,40.354-3.1,57.7l1.114,2.339a1.207,1.207,0,0,0,.2.566,246.244,246.244,0,0,0,20.544,34.429c6.824,9.782,14.54,19.1,21.9,28.482,3.256,4.187,7.671,8.967,12.455,11.377a23.413,23.413,0,0,0,5.68,2.338,22.129,22.129,0,0,0,13.159-.018c11.114-3.123,19.93-14.219,25.106-24.081.04-.076.049-.125.036-.152s-.08-.009-.134.049c-5.091,5.563-20.99-14.838-24.673-19.582l-10.731-14.7-5.751-8.9a244.4,244.4,0,0,1-14.29-26.732c-5.613-12.6-16.125-42.567-4.686-54.2.138-.138.111-.223-.085-.245a45.28,45.28,0,0,0-15.813.789" transform="translate(-1446.639 -2090.495)" fill="url(#linear-gradient)"></path>
      <path id="Path_6" data-name="Path 6" d="M1572.866,2154.017l25.836,21.493,10.419,8.753,29.337,23.988q6.595,5.3,12.633,11.19c2,3.1,6.855,10.535,4.886,13.248a.224.224,0,0,0,.1.339,47.624,47.624,0,0,0,7.435,2.25,46.541,46.541,0,0,0,12.25.891,52.913,52.913,0,0,0,25.306-7.934c3.457-2.147,6.749-5.688,6.432-9.978-1.069-14.477-4.223-29.729-6.677-44.434a166.249,166.249,0,0,1-2.446-22.384c-.37-14.3.339-37.208,15.4-44.933.227-.116.218-.2-.031-.263-12.161-2.877-25.226-.405-35.89,5.519a42.211,42.211,0,0,0-14.232,12.041,48.847,48.847,0,0,0-8.677,20.295c-2.027,10.58-1.541,19.667.236,29.618q.087.474-.267.147l-3.969-3.715-11.448-10.727q-14.48-13.5-29.765-26.113l-11.573-9.488q-12.328-10.163-25.088-19.791c-4.7-3.942-9.764-7.724-15.47-10.054a.583.583,0,0,0-.695.2c-8.811,12.232-.811,36.99,3.956,49.752a1.152,1.152,0,0,0,.347.494l11.653,9.6" transform="translate(-1505.599 -2092.401)" fill="url(#linear-gradient)"></path>
      <path id="Path_7" data-name="Path 7" d="M1902.308,2170.531a2.04,2.04,0,0,0,.713.65l8.882,8.571c12.486,12.718,21.159,21.72,32.389,31.872l1.145.966,3.532,3.042a140.169,140.169,0,0,0,35.97,22.83,184.581,184.581,0,0,0,28.38,9.782,130.4,130.4,0,0,0,13.159,2.989,215.633,215.633,0,0,0,57.69,3.368,4.157,4.157,0,0,0,.775-.116c.209-.062.2-.094-.022-.1-10-.12-19.635-2.646-29.066-5.76-9.185-3.033-18.228-8.37-26.371-13.542q-8.185-5.339-15.814-11.435c-9.974-8.178-18.09-16.646-27.489-26.522-16.468-17.484-25.186-26.771-37.084-38.531-8.882-8.588-18.157-17.359-28.193-24.593a84.41,84.41,0,0,0-14.526-8.62.728.728,0,0,0-.838.16c-8.931,9.346-15.769,22.393-13.519,35.721a.6.6,0,0,0,.2.356l10.081,8.909" transform="translate(-1693.386 -2109.805)" fill="url(#linear-gradient)"></path>
    </g>
    <path id="Path_8" data-name="Path 8" d="M1798.193,1719.564c-38.714,1.764-77.112,9.074-114.232,20.041-22.281,6.584-40.509,13.341-60.6,20.624q-2.987,1.076-15.194,4.575-18.656,4.858-37.641,8.2-17.506,2.847-35.088,5.19-27.963,3.334-55.864,7.19c-19.929,2.824-39.462,6.606-57.784,13.279-26.865,9.488-47.6,26.593-54.63,55.3-.165.664-.1.69.2.071,8.263-17.079,22.424-29.159,39.547-37.053,15.355-6.891,31.872-10.914,48.51-13.225a426.519,426.519,0,0,1,45.841-3.55q16.223-.321,32.46-.143c24.731.575,49.441,1.488,74.172,2.089,16.321.312,32.4.241,48.919-1.033,17-1.31,36.874-4.41,49.957-15.3q.361-.294-.094-.174c-10.6,2.846-22.455,3.1-33.386,3.127-19.9.04-39.823-.846-59.713-1.733-.147,0-.16-.04-.027-.1,58.114-27.373,120.37-47.414,184.929-50.866a357.613,357.613,0,0,1,47.663.824c27.132,2.316,54.078,7.715,80.725,14.58,34.585,9.239,68.773,20.317,103.79,27.818.379.08.379.156,0,.223-18.246,3.265-31.885,7.132-54.14,13.15-25.872,6.994-51.561,11.444-78.4,12.593-.25.013-.281.071-.089.178a.8.8,0,0,0,.383.084,523.023,523.023,0,0,0,64.274-1.76c26.674-2.414,53.249-6.1,79.745-9.929q21.969-3.074,44.006-5.617c12.713-1.47,26.914-1.559,39.338,1.849.374.107.4.049.071-.165-14.74-9.649-30.5-15.105-48.238-15.337a171.442,171.442,0,0,0-30.562,2.552,6.474,6.474,0,0,1-2.944-.477c-38.9-11.969-76.11-28.509-115.122-40.175-42.362-13.012-86.458-19.092-130.776-16.9" fill="url(#linear-gradient)"></path>
    <path id="Path_25" data-name="Path 25" d="M2671.617,1923.467q26.9-2.472,47.414-4.116,8.593-.688,18.6-.975,8.306-.314,16.615,0c16.121.726,32.05,4.174,43.467,16.058a.346.346,0,0,0,.3.116c.2-.04.259-.151.183-.343a57.633,57.633,0,0,0-7.956-13.938c-15.965-20.972-43.316-21.6-66.969-19.261-23.217,2.3-47.04,7.221-70.377,11.586-39.538,7.39-79.722,12.918-120.022,12.958-.886,0-.8.477.009.526a917,917,0,0,0,130-1.96q4.363-.361,8.735-.65" transform="translate(-646.142 -100.345)"></path>
  </g>
</svg>
