<?xml version="1.0" encoding="UTF-8"?>
<svg xmlns="http://www.w3.org/2000/svg" id="design" viewBox="0 0 123.95 64.01">
  <defs>
    <style>.cls-1{fill:#2d5b65;}</style>
  </defs>
  <path class="cls-1" d="m19.98,51.08c3.47-1.14,5.45-3.73,6.72-8.93l4.28-16.94,5.55-3-4.11,15.01c-1.47,5.44-4.58,10.15-8.73,13.13,2.88,1.43,5.4,1.77,8.67,1.13,3.65-.73,6.62-2.91,8.55-6.25,2.14-3.57,3.01-8.74,2.17-12.97-1.65-8.32-9.29-13.79-17.03-12.26-4.57.91-7.66,4.22-7,7.54.64,3.22,3.67,5.62,7.88,6.23l-3.72,2.89c-3.59-1.23-5.79-3.25-6.3-5.79-1.05-5.29,3.31-10.5,9.85-11.8,9.71-1.93,19.85,4.35,21.65,13.39.89,4.47-.28,9.4-3.1,13.06-2.73,3.59-7.19,6.07-13.15,7.26-4.13.82-7.52.89-12.74.23l.57-1.91Zm11.64-25.4l-4.03,16.19c-.57,2.16-1.07,3.41-2.12,5.17,1.56-1.71,2.54-3.8,3.5-7.54l3.55-14.3-.9.48Zm12.16,6.63c1.23,6.2-.86,13.01-5.17,16.72,4.67-2.93,7.2-10.02,5.92-16.47-.7-3.51-2.31-6.34-4.77-8.4,2.17,2.62,3.42,5.12,4.02,8.15Z"></path>
  <path class="cls-1" d="m69.94,35.26c-1.25,4.54-2.47,6.69-5.79,7.35-.38.08-.73.1-1.09.07-1.46,2.74-2.9,4.02-4.92,4.42-2.84.56-5.33-1.19-5.92-4.12-.98-4.95,2.35-10.56,6.77-11.44,2.55-.51,4.47.86,5,3.55.4,2.02.26,4.09-.49,6.59.56.04.81.04,1.19-.04,1.97-.39,3.46-1.69,4.84-6.56l.38.17Zm-16.97,7.37c.43,2.16,1.4,3.27,3.3,3.79-1.61-1.08-2.18-1.92-2.52-3.65-.54-2.74.2-5.79,2.15-8.77-2.37,2.17-3.53,5.6-2.93,8.63Zm6.79-2.55c-.29-1.44.46-2.94,1.62-3.17.29-.06.64-.03,1.23.16.3-1.26.41-1.98.23-2.84-.26-1.3-1.2-2.01-2.3-1.79-1.2.24-2.35,1.52-3.33,3.86-1.07,2.41-1.44,4.83-1.07,6.71.34,1.73,1.35,2.53,2.79,2.24,1.2-.24,2.02-1.15,2.65-3.02-1.1-.53-1.62-1.13-1.82-2.14Z"></path>
  <path class="cls-1" d="m67.28,44.68l8.9-31.69,5.66-2.42-8.23,24.51c1.15-2.03,2.26-3.7,3.56-5.2,1.33-1.61,2.39-2.32,3.73-2.59,1.25-.25,2.26.3,2.47,1.36.13.67-.09,1.82-.85,4.02-1.5,4.29-1.66,4.98-1.5,5.79.17.87.97,1.36,1.93,1.17.77-.15,1.44-.54,2.08-1.36.85-1.02,2.42-3.93,3.18-6.88l.43.16c-.67,2.43-1.76,5.25-3.23,7.39-1.35,2.02-3,3.25-4.83,3.61-1.92.38-3.45-.51-3.79-2.24-.24-1.2.02-2.4,1.13-5.62.79-2.31,1.09-3.31,1.02-3.65-.07-.34-.51-.55-.94-.46-.72.14-1.43.83-2.64,2.57-1.81,2.71-2.75,4.74-3.57,7.95-.63,2.37-.7,2.54-.78,2.85l-3.75.75Zm1.91-1.18l8.5-30.21-.88.33-8.53,30.06.91-.18Zm10.47-12.67c.11.53-.09,1.32-1.01,3.95-1.14,3.32-1.31,4.21-1.09,5.31.23,1.15,1,1.75,2.47,1.86-1.12-.63-1.58-1.18-1.77-2.1-.17-.87,0-1.55,1.12-4.92.93-2.88,1.13-3.62,1.01-4.2-.13-.67-.83-.93-1.84-.73.68.16,1.03.4,1.11.83Z"></path>
  <path class="cls-1" d="m100.43,34c.21,1.06,1.04,1.69,1.95,1.51,1.78-.35,2.86-2.97,4.44-7.83l.38.17c-1.78,6.4-3.98,10.13-6.96,10.73-1.73.34-3.06-.54-3.39-2.22-.15-.77-.13-1.42-.04-2.69-1.34,3.56-3.74,6.34-5.9,6.77-1.68.33-3.01-.8-3.43-2.92-1.13-5.67,3.35-12.31,9.12-13.45,2.4-.48,3.93.17,4.84,1.99l-3.43,1.83c.63-.87.91-1.73.77-2.4-.13-.67-.81-1.04-1.62-.88-1.25.25-2.51,1.45-3.61,3.47-1.37,2.42-2.01,5-1.67,6.68.22,1.11.94,1.71,1.85,1.53,1.63-.32,2.92-2.43,3.91-6.47l3.92-2.13c-1.01,2.45-1.44,4.83-1.14,6.32Zm-12.14,3.26c.32,1.59,1.33,2.43,2.58,2.18.24-.05.38-.08.75-.25-1.5,0-2.3-.79-2.64-2.47-.51-2.55.49-5.84,2.95-9.53-3.01,3.2-4.29,6.8-3.65,10.07Zm9.94-6.82c-.73,2.34-.97,4.19-.7,5.54.24,1.2.96,1.81,2.17,1.87-.96-.56-1.34-.98-1.52-1.85-.3-1.49.04-3.81.82-5.91l-.78.35Z"></path>
</svg>
