<?xml version="1.0" encoding="UTF-8"?>
<svg width="400" height="120" version="1.1" xmlns="http://www.w3.org/2000/svg">
 <path d="m390.5 109.13h-90.708v-98.268h90.708zm-96.771 0h-90.708v-98.268h90.708zm-96.764 0h-90.708v-98.268h90.708zm-96.757 0h-90.708v-98.268h90.708z" fill="#003478"/>
 <path d="m23.11 76.61c1.2307 2.844 3.0413 5.6173 5.4293 8.32 2.388 2.7013 5.508 4.9453 9.3533 6.7347 3.84 1.7867 8.5427 2.6827 14.113 2.6827 7.14 0 13.667-1.5733 19.579-4.7067 5.9107-3.1373 10.497-7.484 13.748-13.031 3.252-5.5467 4.8787-11.664 4.8787-18.357 0-9.5774-3.1533-17.385-9.4587-23.437-6.3067-6.052-14.481-9.0747-24.533-9.0747-10.643 0-19.373 3.2413-26.199 9.724-6.8253 6.4867-10.235 14.861-10.235 25.127 0 5.6853 1.1067 11.024 3.324 16.019m15.624-40.2c3.696-4.112 8.544-6.1693 14.541-6.1693 4.196 0 8.04 1.1013 11.543 3.2933 3.4973 2.1933 6.372 5.9613 8.62 11.297 2.2467 5.3413 3.372 11.683 3.372 19.024 0 8.8253-1.9013 15.364-5.696 19.615-3.796 4.252-8.496 6.372-14.092 6.372-4.3973 0-8.4827-1.3467-12.257-4.052-3.772-2.7013-6.6453-6.9867-8.62-12.855-1.972-5.8667-2.956-11.643-2.956-17.331 0-8.6827 1.8467-15.083 5.5453-19.195m87.403 35.156h4.2773c0.0453 2.628 0.192 4.708 0.43466 6.2467 0.24267 1.54 0.656 3.048 1.24 4.5213 0.58267 1.472 1.4827 2.7187 2.7053 3.7373 1.2147 1.0187 2.5413 1.812 3.9773 2.38 1.436 0.56534 2.8893 0.94 4.38 1.1227 1.4827 0.18 3.732 0.268 6.752 0.268 4.9627 0 9.036-1.224 12.225-3.68 3.1853-2.4507 4.78-5.8093 4.78-10.083 0-1.9067-0.504-3.5893-1.5093-5.0427-1.008-1.4493-2.4507-2.5853-4.34-3.4053-1.888-0.81866-5.9427-1.8853-12.167-3.2013-6.228-1.32-10.245-2.2707-12.06-2.864-2.744-0.95067-4.928-2.1093-6.5453-3.472-1.6173-1.3587-2.9027-3.0853-3.856-5.176-0.95733-2.0893-1.4347-4.3627-1.4347-6.8187 0-3.5827 1.02-6.8907 3.068-9.9107 2.0493-3.024 5.2707-5.472 9.664-7.36 4.392-1.8827 9.1773-2.8253 14.363-2.8253 3.1093 0 6.7107 0.38 10.808 1.1413 4.0973 0.76 7.4307 1.7053 9.996 2.8307-0.13333 5.1187-0.23067 10.331-0.284 15.627h-4.2773c-0.24934-3.336-0.52934-5.528-0.84934-6.5773-0.32133-1.0547-0.75333-1.9893-1.2933-2.8133-0.54133-0.81733-1.4787-1.7027-2.8067-2.6347-1.3333-0.93467-3.0427-1.7707-5.1347-2.5027-2.096-0.72933-4.6707-1.0987-7.7253-1.0987-4.3347 0-7.82 1.1867-10.459 3.5547-2.6373 2.3667-3.9507 5.148-3.9507 8.336 0 1.7787 0.37467 3.3093 1.128 4.5827 0.75333 1.276 1.76 2.3147 3.0253 3.1093 1.2653 0.79733 3.0373 1.5133 5.3227 2.1507l12.1 2.8027c6.1213 1.456 10.34 2.7107 12.648 3.7573 2.308 1.052 4.1653 2.68 5.5733 4.8907 1.4067 2.2067 2.116 4.8627 2.116 7.956 0 6.1507-2.7213 11.521-8.1667 16.099-5.4427 4.576-12.732 6.868-21.861 6.868-4.2 0-9.7907-0.60267-16.772-1.7947-3.8573-0.688-5.9347-1.1667-6.2227-1.4427-0.19734-0.13867-0.29467-0.36667-0.29467-0.688 0-0.31467 0.0493-0.70534 0.15067-1.1613 0.44666-1.96 0.744-3.8693 0.89733-5.7413 0.14933-1.8707 0.27333-5.7613 0.37733-11.688m150.91 13.023-2.9373 4.5907c-3.38 1.7067-6.7213 2.9453-10.027 3.7293-3.3067 0.776-7.0373 1.172-11.2 1.172-10.287 0-18.48-2.8907-24.573-8.6747-6.0947-5.7813-9.144-13.724-9.144-23.823 0-5.3467 0.82133-9.9947 2.46-13.953 1.64-3.9507 3.664-7.0027 6.0627-9.1507 1.6133-1.508 4.6893-3.4587 9.2173-5.86 4.5293-2.4 7.7-3.9453 9.5147-4.632 3.3267-1.3253 7.316-1.984 11.971-1.984 4.404 0 8.3693 0.424 11.896 1.276 2.2547 0.53867 4.5053 1.4373 6.76 2.6947-0.60933 3.5053-1.0413 6.1587-1.292 7.9533-0.25466 1.7973-0.58533 5.0653-0.98933 9.7973h-4.276c-0.29467-4.3387-0.58533-7.0507-0.87467-8.128-0.196-0.66933-0.63333-1.2733-1.3107-1.8133-1.744-1.2467-3.9893-2.3347-6.7307-3.2547-2.7427-0.916-5.7373-1.3773-8.988-1.3773-4.0787 0-7.6067 0.78933-10.591 2.3587-2.9853 1.576-5.3053 4.0653-6.9547 7.4827-1.6493 3.4187-2.4733 7.6533-2.4733 12.708 0 6.1973 1.168 11.803 3.512 16.809 2.3387 5.0133 5.5187 8.6667 9.5453 10.969 4.0253 2.3027 8.524 3.448 13.501 3.448 2.484 0 4.908-0.28667 7.2733-0.85734 2.3667-0.572 5.4027-1.6613 9.112-3.2653zm96.693-3.9609c-4.3827 2.4013-8.0627 4.052-11.039 4.9507-2.9827 0.904-5.9693 1.3493-8.972 1.3493-4.4293 0-8.7-0.95867-12.809-2.8853-4.1093-1.9333-7.3387-4.9227-9.6747-8.988-2.3413-4.0627-3.5547-9.3747-3.6533-15.94h23.776c5.328 0 10.661-0.16934 15.992-0.508 2.8173-0.172 6.0027-0.552 9.5573-1.1453 0.18667-1.836 0.284-3.396 0.284-4.6853 0-5.0907-1.0347-9.656-3.1013-13.692-2.0653-4.0413-5.324-7.2293-9.772-9.5707-4.452-2.3387-9.4293-3.5107-14.935-3.5107-4.5253 0-8.7267 0.75867-12.612 2.264-2.956 1.1013-5.9293 2.5987-8.9267 4.4973-3 1.8973-5.2133 3.5773-6.6387 5.044-1.968 2.0107-3.7267 5.1347-5.276 9.3667-1.5493 4.2347-2.3227 8.98-2.3227 14.24 0 6.7293 1.4587 12.596 4.38 17.604 2.92 5.008 7.0053 8.7707 12.253 11.289 5.2467 2.5147 11.112 3.7733 17.588 3.7733 3.2893 0 6.4173-0.336 9.3827-0.99466 2.9667-0.65867 5.604-1.4747 7.912-2.44 1.568-0.63867 4.044-1.9453 7.432-3.9147l2.3547-4.9347zm-40.945-44.456c3.4213-3.776 7.9293-5.6667 13.533-5.6667 5.3027 0 9.5453 1.7347 12.715 5.204 3.1733 3.468 4.76 8.9027 4.76 16.301 0 0.612-0.0267 1.4747-0.0787 2.6013-2.0827 0.22667-6.4187 0.33867-13.005 0.33867-2.7813 0-7.8613-0.112-15.247-0.33867-3.868-0.17467-6.4947-0.35333-7.88-0.528 0.0467-8.164 1.7813-14.133 5.2027-17.912" fill="#fff"/>
</svg>
