<?xml version="1.0" encoding="UTF-8"?>
<svg id="Capa_2" data-name="Capa 2" xmlns="http://www.w3.org/2000/svg" xmlns:xlink="http://www.w3.org/1999/xlink" viewBox="0 0 228.21 57.57">
  <defs>
    <style>
      .cls-1 {
        filter: url(#drop-shadow-1);
      }

      .cls-1, .cls-2 {
        stroke-width: 0px;
      }
    </style>
    <filter id="drop-shadow-1" filterUnits="userSpaceOnUse">
      <feOffset dx="1.41" dy="1.41"/>
      <feGaussianBlur result="blur" stdDeviation="4.44"/>
      <feFlood flood-color="#000" flood-opacity=".4"/>
      <feComposite in2="blur" operator="in"/>
      <feComposite in="SourceGraphic"/>
    </filter>
  </defs>
  <g id="Capa_1-2" data-name="Capa 1">
    <g>
      <g>
        <path class="cls-2" d="M6.57,25.96c.15-.91.38-1.8.67-2.66,2.35-2.51,7.7-.32,11.55,1.48,1.59.74,2.92,1.42,3.68,1.67.33.13.67.25,1,.36,3.03.97,6.14.9,8.85-.03,2.79-.96,5.16-2.84,6.58-5.43.7,1.44,1.2,3,1.47,4.63,3.72-2.74,6.57-5.89,6.57-9.1C46.95,10.8,34.89-.17,23.47,0,12.06-.17,0,10.8,0,16.85c0,3.22,2.86,6.36,6.57,9.1ZM23.47,11.65h0c4.7,0,8.95,1.89,12.05,4.95.19,3.1-1.41,6.33-4.71,7.44-1.06.4-2.09.55-3.08.54-1.47-.02-2.88-.43-4.26-1.03-.29-.13-.58-.26-.86-.4-4.16-2.04-8.09-5.46-12.66-4.89,3.14-4.02,8.02-6.61,13.52-6.61Z"/>
        <path class="cls-2" d="M40.45,31.08c-1-.67-1.98-1.12-2.94-1.4-.84-.24-1.66-.34-2.47-.33-4.01.04-7.76,2.82-11.58,5.34l-.06.04c-2.98,1.96-6,3.75-9.24,3.96-1.09.04-3.31-.08-4.85-1.5-1.03-.94-1.58-1.77-1.89-2.38-.38-1.02-.67-2.09-.86-3.19-3.72,2.74-6.57,5.89-6.57,9.1,0,6.05,12.06,17.03,23.47,16.85,11.41.17,23.47-10.8,23.47-16.85,0-1.92-1.19-4.43-2.8-6.23-1.27-1.49-2.5-2.6-3.7-3.4ZM23.47,45.92h0c-3.29,0-6.35-.93-8.96-2.53,2.94-.75,5.98-2.76,8.96-4.77,5.83-3.94,11.4-7.88,15.44-2.39-2.77,5.74-8.64,9.7-15.44,9.7Z"/>
      </g>
      <g>
        <path class="cls-2" d="M78.79,44.96c0,1.17-.25,2.13-.75,2.86-.34.47-.9,1.1-1.71,1.88-.8.79-1.47,1.33-2.01,1.63-1.07.6-2.08.9-3.01.9h-13.76v-30.03h13.76c1.17,0,2.19.28,3.06.85.5.3,1.14.85,1.91,1.66s1.34,1.47,1.71,2.01c.53.74.8,1.69.8,2.86v15.37ZM62.82,47.22h8.14c.2,0,.32-.02.35-.05.4-.23.87-.61,1.41-1.13.54-.52.8-.91.8-1.18v-15.12c0-.1-.02-.18-.05-.25-.64-1.04-1.37-1.77-2.21-2.21-.03-.03-.18-.05-.45-.05h-7.98v19.99Z"/>
        <path class="cls-2" d="M101.09,45.07v-22.85h5.27v22.9c0,1.11-.27,2.06-.8,2.86-.37.5-.95,1.16-1.73,1.98-.79.82-1.43,1.36-1.93,1.63-.97.6-1.99.9-3.06.9h-6.38c-1.1,0-2.14-.3-3.11-.9-.47-.27-1.11-.81-1.93-1.63-.82-.82-1.4-1.48-1.73-1.98-.54-.8-.8-1.76-.8-2.86v-22.9h5.27v22.8c0,.13.02.22.05.25.7,1.04,1.44,1.76,2.21,2.16l.25.05h5.98c.1,0,.18-.02.25-.05.77-.4,1.49-1.12,2.16-2.16l.05-.2Z"/>
        <path class="cls-2" d="M133.93,45.42c0,1.17-.29,2.18-.85,3.01-.23.34-.65.81-1.26,1.43s-1.07,1.05-1.41,1.28c-1.04.74-2.24,1.1-3.62,1.1h-14.11v-30.03h14.11c1.31,0,2.51.39,3.62,1.15.33.23.8.66,1.41,1.28s1.02,1.1,1.26,1.43c.57.84.85,1.88.85,3.11v3.72c0,1.61-.65,3.06-1.96,4.37,1.31,1.31,1.96,2.75,1.96,4.32v3.82ZM128.61,33.16c.03-.07.05-.18.05-.35v-3.57l-.05-.25c-.23-.4-.55-.79-.93-1.18-.39-.38-.69-.58-.93-.58h-8.79v7.58h8.84c.23,0,.55-.18.95-.55.4-.37.69-.74.85-1.11ZM128.61,45.57c.03-.1.05-.22.05-.35v-3.57l-.05-.25c-.23-.4-.55-.79-.93-1.15-.39-.37-.69-.55-.93-.55h-8.79v7.53h8.84c.23,0,.55-.18.95-.55.4-.37.69-.74.85-1.1Z"/>
        <path class="cls-2" d="M163.71,52.25h-5.62l-2.21-6.38h-11.4l-2.21,6.38h-5.63l10.5-30.03h6.13l10.45,30.03ZM154.22,40.85l-4.02-11.85-4.07,11.85h8.09Z"/>
        <path class="cls-2" d="M172.4,52.25h-5.27v-30.03h5.27v30.03Z"/>
        <path class="cls-2" d="M211.72,33.56c0,1.14-.3,2.16-.9,3.06-.23.34-.65.8-1.26,1.38-.6.59-1.09,1.01-1.46,1.28-1.04.74-2.23,1.11-3.57,1.11h-8.84v11.85h-5.27v-30.03h14.11c1.34,0,2.53.37,3.57,1.1.33.23.81.67,1.43,1.31.62.64,1.05,1.12,1.28,1.46.6.9.9,1.93.9,3.06v4.42ZM206.45,33.51v-4.32c0-.17-.02-.28-.05-.35-.57-1-1.1-1.54-1.61-1.61h-9.09v8.14h8.84c.23,0,.55-.18.95-.55.4-.37.7-.74.9-1.11.03-.07.05-.13.05-.2Z"/>
        <path class="cls-2" d="M227.34,52.25h-5.27v-24.96h-5.98v-5.07h11.25v30.03Z"/>
      </g>
      <g>
        <g>
          <path class="cls-2" d="M83.93,10.96c-.3,1.67-1.93,3.03-3.63,3.03h-5.31c-.07,0-.14.06-.15.13l-.39,2.15c-.07.36-.41.65-.77.65h-2.19c-.36,0-.6-.29-.54-.65l1.87-10.34c.06-.36.41-.65.77-.65h8.29c1.7,0,2.84,1.36,2.54,3.03l-.48,2.64ZM80.32,8.19h-4.29c-.07,0-.14.06-.15.13l-.48,2.63c-.01.07.04.13.11.13h4.29c.32,0,.63-.26.69-.57l.31-1.74c.06-.32-.16-.58-.48-.58Z"/>
          <path class="cls-2" d="M84.93,16.92c-.36,0-.6-.29-.54-.65l1.87-10.35c.06-.36.41-.65.77-.65h8.29c1.7,0,2.84,1.36,2.54,3.04l-.48,2.64c-.21,1.15-1.04,2.14-2.1,2.66-.08.04-.11.12-.08.19l1.37,2.38c.18.32-.04.71-.41.71-1.14,0-1.85.04-2.32.03-.8.01-1.06-.02-1.21-.31l-1.25-2.44c-.05-.11-.16-.17-.3-.17h-2.65c-.07,0-.14.06-.15.13l-.39,2.15c-.06.36-.41.65-.77.65h-2.19ZM88.86,10.95c-.01.07.04.13.11.13h4.29c.32,0,.63-.26.69-.57l.31-1.74c.06-.32-.16-.58-.48-.58h-4.29c-.07,0-.14.06-.15.13l-.48,2.63Z"/>
          <path class="cls-2" d="M98.13,16.27l1.87-10.35c.06-.36.41-.65.77-.65h9.79c.22,0,.36.17.32.39l-.4,2.19c-.04.21-.25.39-.46.39h-6.81c-.07,0-.14.06-.15.13l-.22,1.2c-.01.07.04.13.11.13h5.48c.22,0,.36.17.32.39l-.36,2.01c-.04.21-.25.39-.46.39h-5.48c-.07,0-.14.06-.15.13l-.2,1.12c-.01.07.04.13.11.13h6.81c.22,0,.36.17.32.39l-.41,2.28c-.04.21-.25.39-.46.39h-9.8c-.36,0-.61-.29-.54-.65Z"/>
          <path class="cls-2" d="M115.67,5.3c.26,0,.46.15.53.37l1.99,7.19c.04.14.22.17.3.05l4.83-7.24c.15-.23.41-.37.66-.37h2.54c.36,0,.61.29.54.65l-1.87,10.33c-.06.36-.41.65-.77.65h-1.98c-.36,0-.61-.29-.54-.65l.75-4.13-2.95,4.4c-.15.23-.41.38-.66.38h-2.62c-.26,0-.46-.15-.53-.38l-1.36-4.38-.74,4.11c-.06.36-.41.65-.77.65h-1.98c-.36,0-.6-.29-.54-.65l1.87-10.33c.06-.36.41-.65.77-.65h2.54Z"/>
          <path class="cls-2" d="M131.85,5.29c.36,0,.6.29.54.65l-1.87,10.34c-.06.36-.41.65-.77.65h-2.19c-.36,0-.6-.29-.54-.65l1.87-10.34c.06-.36.41-.65.77-.65h2.2Z"/>
          <path class="cls-2" d="M132.37,16.27l1.87-10.35c.06-.36.41-.65.77-.65h9.79c.22,0,.36.17.32.39l-.4,2.19c-.04.21-.25.39-.46.39h-6.81c-.07,0-.14.06-.15.13l-.22,1.2c-.01.07.04.13.11.13h5.48c.22,0,.36.17.32.39l-.36,2.01c-.04.21-.25.39-.46.39h-5.48c-.07,0-.14.06-.15.13l-.2,1.12c-.01.07.04.13.11.13h6.81c.22,0,.36.17.32.39l-.41,2.28c-.04.21-.25.39-.46.39h-9.8c-.36,0-.61-.29-.54-.65Z"/>
          <path class="cls-2" d="M145.28,16.92c-.36,0-.6-.29-.54-.65l1.87-10.35c.06-.36.41-.65.77-.65h8.29c1.7,0,2.84,1.36,2.54,3.04l-.48,2.64c-.21,1.15-1.04,2.14-2.1,2.66-.08.04-.11.12-.08.19l1.37,2.38c.18.32-.04.71-.41.71-1.14,0-1.85.04-2.32.03-.8.01-1.06-.02-1.21-.31l-1.25-2.44c-.05-.11-.16-.17-.3-.17h-2.65c-.07,0-.14.06-.15.13l-.39,2.15c-.06.36-.41.65-.77.65h-2.19ZM149.21,10.95c-.01.07.04.13.11.13h4.29c.32,0,.63-.26.69-.57l.31-1.74c.06-.32-.16-.58-.48-.58h-4.29c-.07,0-.14.06-.15.13l-.48,2.63Z"/>
          <path class="cls-2" d="M178.86,10.96c-.3,1.67-1.93,3.03-3.63,3.03h-5.31c-.07,0-.14.06-.15.13l-.39,2.15c-.07.36-.41.65-.77.65h-2.19c-.36,0-.6-.29-.54-.65l1.87-10.34c.06-.36.41-.65.77-.65h8.29c1.7,0,2.84,1.36,2.54,3.03l-.48,2.64ZM175.26,8.19h-4.29c-.07,0-.14.06-.15.13l-.48,2.63c-.01.07.04.13.11.13h4.29c.32,0,.63-.26.69-.57l.31-1.74c.06-.32-.16-.58-.48-.58Z"/>
          <path class="cls-2" d="M177.55,16.11l6.73-10.2c.34-.46.78-.58,1.37-.6h0s0,0,0,0h0c.16-.02.34-.01.53-.01h.09c.07,0,.13,0,.2,0,.24,0,.51,0,.82,0,0,0,.58-.02.79.59l3.33,10.2c.06.17.02.38-.1.54-.12.17-.29.27-.46.27h-2.65c-.18,0-.33-.11-.39-.3l-.3-.96h-5.61l-.23.35-.44.62c-.13.18-.34.29-.55.29h-2.8c-.2,0-.36-.1-.43-.27-.07-.17-.04-.37.09-.54ZM183.72,12.89h2.94l-.96-3.03-1.99,3.03Z"/>
          <path class="cls-2" d="M192.42,16.27l1.87-10.37c.06-.36.41-.65.77-.65h7.79c1.7,0,2.84,1.36,2.54,3.03l-1.01,5.6c-.3,1.67-1.93,3.03-3.63,3.03h-7.79c-.36,0-.6-.29-.54-.65ZM196.44,13.48c-.04.21.11.39.32.39h3.7c.22,0,.42-.17.46-.39l.88-4.84c.04-.21-.11-.39-.32-.39h-3.7c-.22,0-.43.17-.47.39l-.87,4.84Z"/>
          <path class="cls-2" d="M205.62,16.27l1.87-10.35c.06-.36.41-.65.77-.65h9.79c.22,0,.36.17.32.39l-.4,2.19c-.04.21-.25.39-.46.39h-6.81c-.07,0-.14.06-.15.13l-.22,1.2c-.01.07.04.13.11.13h5.48c.22,0,.36.17.32.39l-.36,2.01c-.04.21-.25.39-.46.39h-5.48c-.07,0-.14.06-.15.13l-.2,1.12c-.01.07.04.13.11.13h6.81c.22,0,.36.17.32.39l-.41,2.28c-.04.21-.25.39-.46.39h-9.8c-.36,0-.61-.29-.54-.65Z"/>
          <path class="cls-2" d="M220.63,5.29h2.19c.36,0,.6.29.54.65l-1.36,7.55c-.04.21.11.39.32.39h5.34c.36,0,.61.29.54.65l-.32,1.76c-.06.36-.41.65-.77.65h-8.59c-.36,0-.6-.29-.54-.65l1.87-10.34c.06-.36.41-.65.77-.65Z"/>
        </g>
        <path class="cls-1" d="M67.84,9.49c-.04-.13-.25-.52-.51-.75-.31-.28-.43-.32-.81-.3-.44.05-1,.16-1.19.4-.29.32-.7,1.2-1.17,1.65-.07.02-.4.13-.69.22h-1.06l-.32-.99v-.74c.29-.59,1-1.25,1.21-1.62.17-.26.1-.82.01-1.26-.1-.37-.17-.47-.54-.68-.3-.17-.74-.25-.87-.25s-.57.08-.87.25c-.36.21-.44.31-.54.68-.09.44-.15,1,.01,1.26.22.38.92,1.03,1.21,1.62v.74l-.32.99h-1.06c-.29-.09-.62-.2-.69-.22-.47-.46-.88-1.33-1.17-1.65-.2-.24-.75-.35-1.19-.4-.38-.02-.5.02-.81.3-.26.23-.47.62-.51.75s-.1.57-.03.91c.09.41.16.51.48.72.39.22.9.45,1.2.38.42-.09,1.27-.56,1.92-.65.07.02.42.14.72.23l.83.61-.33,1c-.18.25-.39.54-.43.6-.58.31-1.54.42-1.93.6-.29.11-.56.6-.75,1.01-.14.35-.13.48.03.86.14.32.44.64.55.72.11.08.51.27.85.3.42.04.54,0,.83-.24.33-.3.71-.72.73-1.02.05-.43-.14-1.38-.03-2.02.04-.06.26-.36.44-.61l.84-.61.84.61c.18.25.4.55.44.61.11.65-.07,1.59-.03,2.02.02.31.4.72.73,1.02.29.24.42.28.83.24.34-.03.74-.23.85-.3.11-.08.42-.4.55-.72.17-.38.17-.51.03-.86-.19-.41-.46-.9-.75-1.01-.4-.18-1.35-.29-1.93-.6-.04-.06-.25-.35-.43-.6l-.33-1,.83-.61c.29-.1.65-.21.72-.23.65.09,1.49.56,1.92.65.3.08.81-.16,1.2-.38.32-.21.39-.31.48-.72.07-.34.02-.78-.03-.91"/>
      </g>
    </g>
  </g>
</svg>