<svg xmlns="http://www.w3.org/2000/svg" viewBox="0 0 42 37"><g transform="translate(0 0)"><path d="M36.759,2.365A12.722,12.722,0,0,0,28.991.094c-1.126,0-4.07-.1-4.908-.07,0,0-14.379-.088-21.586.07A2.451,2.451,0,0,0,0,2.6S.026,13.994.026,17.9C.026,22.2,0,35.1,0,35.1,0,37,1.49,37,2.17,37h22.4c.691,0,2.107,0,2.107-1.36l.031-7.267C40.69,28.373,42,18.5,42,14.29c0-5.466-2.18-9.555-5.243-11.925h0ZM3.367,24.235q1.169-1.567,2.37-3.111l.014-.021q.617-.8,1.223-1.6a9.115,9.115,0,0,0,.818-1.287c.025-.12-.078-.253-.3-.5L7.483,17.7a1.04,1.04,0,0,1-.067-.08c-.358-.47-.652-.9-.93-1.313s-.583-.852-.942-1.329c-.318-.424-.81-1.005-1.284-1.569A16.183,16.183,0,0,1,2.6,11.261a.876.876,0,0,1,.156-1,.615.615,0,0,1,.42-.173.47.47,0,0,1,.3.1c.377.287,2.456,3.048,3.4,4.339.185.251.362.528.528.79s.348.545.536.806a4.426,4.426,0,0,0,.3.357,4.218,4.218,0,0,1,.29.341c.057.08.126.165.2.256a2.646,2.646,0,0,1,.46.692c.157.448-.138.833-.425,1.2l-.081.11c-1,1.322-2.71,3.682-3.842,5.243l-.01.016c-.6.826-1.076,1.48-1.122,1.537a.571.571,0,0,1-.435.186.635.635,0,0,1-.153-.017.553.553,0,0,1-.406-.38c-.13-.434.354-1.063.643-1.438l0,0Zm13.165,9.034a.7.7,0,0,1-.99-.056,25.343,25.343,0,0,1-1.666-2.148c-.416-.572-.84-1.165-1.293-1.71a.118.118,0,0,0-.09-.045.12.12,0,0,0-.092.045c-.91,1.12-3.156,3.726-3.281,3.865a1.229,1.229,0,0,1-.86.416H8.223a.637.637,0,0,1-.5-.26c-.407-.544.011-1.094.556-1.7l.147-.166c.394-.454.789-.9,1.183-1.354l.048-.053c.416-.48.84-.96,1.254-1.437l.02-.027a3.5,3.5,0,0,1,.683-.651,1.62,1.62,0,0,1,.841-.236,1.2,1.2,0,0,1,.9.36c.27.294.539.655.8,1l.03.04c.09.121.18.242.268.351.337.436.668.875,1,1.312l.115.154c.363.472.725.947,1.09,1.42a.6.6,0,0,1-.122.874Zm.006-6.586a.631.631,0,0,1-.959-.051c-.746-.937-1.464-1.941-2.158-2.915-.276-.386-.545-.763-.82-1.14a.1.1,0,0,0-.086-.047.106.106,0,0,0-.085.043c-.056.07-.353.426-.764.92-1.057,1.27-3.019,3.63-4,4.864-.72.905-2.2,2.872-3.08,4.044-.372.495-.639.848-.665.877a.994.994,0,0,1-.7.358H3.158a.688.688,0,0,1-.5-.336,1.027,1.027,0,0,1,.107-1.166c.138-.171.65-.77,1.241-1.462,1.038-1.213,2.455-2.87,3.127-3.7,1.44-1.794,4.559-5.473,4.812-5.654a1.6,1.6,0,0,1,.878-.291.9.9,0,0,1,.743.346c.153.208.892,1.252,1.6,2.266l.02.027c.56.8,1.138,1.62,1.47,2.084a.673.673,0,0,1-.119.937Zm-.117-14.97-.038.048L15.5,12.918l-.05.065c-.764,1.005-1.63,2.144-1.865,2.41a1.423,1.423,0,0,1-1.033.584.826.826,0,0,1-.377-.092c-.373-.13-.7-.59-1-.995a4.558,4.558,0,0,0-.411-.524c-.447-.572-.906-1.171-1.347-1.749l-.057-.073C8.437,11.331,7.479,10.079,6.6,9c-.337-.433-.69-.88-1.032-1.314l-.022-.028c-.7-.88-1.412-1.789-2.036-2.636-.088-.113-.186-.227-.282-.34A3.777,3.777,0,0,1,2.722,4a1,1,0,0,1-.2-.779.728.728,0,0,1,.3-.558.787.787,0,0,1,.725-.1,2.63,2.63,0,0,1,.755.8c.055.076.1.143.148.2.065.085,6.781,8.913,8.056,10.659a.106.106,0,0,0,.083.045.119.119,0,0,0,.087-.04l.333-.422c.5-.633,1.424-1.817,1.853-2.346l.175-.222c.11-.141.219-.28.392-.492l.08-.107a1.234,1.234,0,0,1,.466-.413l.01,0a.819.819,0,0,1,.73.373c.2.4.018.7-.287,1.11l-.006-.005ZM16.287,4.24l-.035.045c-.175.232-.343.471-.533.735l-.02.03c-.208.292-.424.59-.644.88-.444.587-.912,1.216-1.433,1.925a1.344,1.344,0,0,1-.85.528,1.206,1.206,0,0,1-.234.026,1.016,1.016,0,0,1-.83-.453q-.187-.254-.357-.52c-.1-.146-.193-.29-.287-.426-.311-.438-.643-.871-.96-1.29L10.1,5.7q-.374-.489-.74-.984c-.1-.141-.21-.28-.317-.419-.168-.215-.34-.44-.5-.673a.671.671,0,0,1,.074-.908.435.435,0,0,1,.414-.146.92.92,0,0,1,.375.215c.086.083.478.548.636.764s.34.49.51.743.34.515.5.739c.119.161.246.32.355.465l.012.01c.11.14.222.285.33.431.092.123.577.737.7.867a.112.112,0,0,0,.083.033.1.1,0,0,0,.077-.042c.1-.138.214-.265.322-.39l.015-.016c.113-.13.23-.266.34-.415.23-.309.477-.6.714-.875s.47-.553.695-.85c.157-.212.305-.435.438-.63s.272-.415.423-.614a1.077,1.077,0,0,1,.647-.485.461.461,0,0,1,.37.16l.01.01.012.01c.434.456.119.963-.305,1.534v0Zm11.52,15.1h-.343a.63.63,0,0,1-.584-.71c0-.908.047-2.648.047-4.333,0-2.218-.047-4.34-.047-4.34a.7.7,0,0,1,.69-.707h1.1a5.037,5.037,0,0,1,2.942.81A5.094,5.094,0,0,1,33.6,14.316c0,1.5-.494,5.025-5.8,5.025h0Z" fill="#937031" fill-rule="evenodd"/></g></svg>