<?xml version="1.0" encoding="utf-8"?>
<!-- Generator: Adobe Illustrator 22.0.1, SVG Export Plug-In . SVG Version: 6.00 Build 0)  -->
<svg version="1.1" id="Layer_1" xmlns="http://www.w3.org/2000/svg" xmlns:xlink="http://www.w3.org/1999/xlink" x="0px" y="0px"
	 viewBox="0 0 528.3 509.9" style="enable-background:new 0 0 528.3 509.9;" xml:space="preserve">
<style type="text/css">
	.st0{fill:#424242;}
</style>
<g>
	<path class="st0" d="M46.8,170.5c-19.6,55.4-18.3,117.5,6,171c23.6,53.5,70,98,127.6,118.6c0.1-0.2,0.3-0.4,0.8-0.6
		c2.5-0.5,7.8,1.2,12.3,2.6c12.9,4.5,26.1,7.8,39.6,10c25.3,2.7,51.1,0.3,75.5-6.2c-19.5,5.6-39.9,6.8-59.8,6.4
		c-6-0.3-10.6-1.7-9.9-3c0.7-1.3,6-2.2,12.1-1.8c53.7,1.6,110.1-23.5,148.2-52.7c44.9-42.6,67.6-103.8,63.1-161.2
		c-4-57.6-33.7-109.3-75.3-140.3c-1.8-1.2-3.5-2.8-4-3.8c-0.8-1.3-0.1-1.5,1.5-0.5c45.4,29.6,82.2,86.2,84.4,152.2
		c4.1,65.5-28.2,136.6-87.2,178.9c-6.7,5.7-14.8,9.5-22,14.2c23.1-10.4,44.4-25.9,63.4-45c1.2-2.6,3.7-6.2,7-10.4
		c7.2-10.3,14.3-20.6,19.9-31.8c-0.5,0.3-1,0.4-1.2,0.3c-1.1-0.7,0.6-4.9,3.1-9.9c14-27.7,21.8-58.2,23.4-89.2l0.1-2.1
		c2.1-77.2-39.9-151.3-104-190.9c-63.7-40.1-147.8-44.6-214.4-10.7c-1.7,1.2-4.6,2.5-6.1,2.6c-1.8,0.4-1.8-0.2-0.1-1.5
		c-0.3-0.4-1.1-0.8-0.5-1.1c46.8-29.4,106-42.6,167.2-26c21.2,5.4,40.9,15.1,59.5,26c-18.4-12.7-37-24.1-55.3-31.9
		c-56.1-16.6-117-10.4-169,10l2.4-0.3c-4.5,2.1-9.1,3.4-9.6,2.5c-1-0.7,2.4-3.2,7.1-5.5c47.5-23.8,104.9-32.3,159.2-19.5
		c54.2,12.2,104.8,43.6,139.1,88.8c72.2,89,67.3,230.5-12.8,317.2c-61.1,70.3-163.2,100.9-252.7,75.9c-13.4-3.3-23.1-9.7-21.9-11.7
		c1.3-2.6,12.2-0.1,25.2,2.7c85.3,22.7,180.1-6.9,238.5-71.5c25.8-28.2,44.8-62.1,55-98.2c-8.6,28.1-23.2,54.3-41.9,76.4
		c-25.8,35.8-63.5,64.7-107.1,79.8c-105,37.3-220.3-4.4-284.4-94c-30.9-44-46.6-91.1-49.3-138.8C-3.4,199.1,7,149,37,103
		c2.5-4,6-8.2,7.9-9.1c2-1,1.3,1.2-1.1,5.3c-57.1,88.5-52.2,196.3,6.4,279.6c61.7,88.1,177.2,130.8,281.7,93.5
		c7.1-2.1,13.7-5.4,20.4-8.4c-22.3,9.3-45.8,14.4-68.9,15.7c-89.9,12.9-180.3-33.3-225.5-109.4C21.8,312,12.6,238.4,38.1,173
		c3.4-8.1,8-15.2,10.3-15.8C50.7,156.5,50,162.6,46.8,170.5z M460.4,148.4c8.3,13.8,15.4,28.5,20.3,44
		C463.1,130.8,418.9,78,361.5,48.9C402.1,72.2,437.9,107.3,460.4,148.4z"/>
	<path class="st0" d="M415.5,172.2c-25.4-42.4-66.3-75-114-88c-47.3-13.4-101.2-7.3-145.4,19c0.1,0.2,0.1,0.4-0.1,0.8
		c-1,1.9-5,4.4-8.3,6.6c-9.8,5.9-19.1,12.7-27.8,20.2c-15.4,15-27.6,32.9-36.5,52.3c6.9-15.6,17.1-29.5,27.9-42.2
		c3.4-3.7,6.8-5.9,7.3-4.8c0.4,1.2-1.8,5.1-5.4,8.8c-29.8,33.9-43.9,84-45.5,124.4c3.5,52,31,99.6,70.6,127.5
		c39.5,28.4,89,36.9,131.4,26.6c1.7-0.5,3.7-0.8,4.6-0.5c1.3,0.2,1,0.7-0.5,1.2c-43.6,13.5-100.1,6.9-144-27.1
		c-44.7-32.5-73.4-91.7-69.1-152.7c-0.1-7.4,1.8-14.7,2.6-21.9c-5.7,20.6-7.1,42.7-4.9,65.3c1.1,2.2,2,5.8,3,10.1
		c2.9,10.2,5.6,20.3,9.9,30c0.1-0.5,0.3-0.8,0.5-0.9c1-0.3,2.8,3,4.7,7.3c10.4,24,26,45.4,45.3,63.1l1.3,1.2
		c48.9,42.8,119.5,55.4,179.6,35.2c60.2-19.7,108.3-71.9,122.2-133.2c0.1-1.7,0.9-4.3,1.6-5.4c0.7-1.4,1.1-1,1,0.7
		c0.4,0,1.1-0.3,1,0.3c-6.1,46.2-29.3,91.6-73,122.4c-14.9,10.8-31.8,18.4-48.8,24.6c18.1-5.1,35.5-11,50.4-18.7
		c40.9-27.4,69.6-70.2,84.3-114.9l-1.1,1.7c1.1-4,2.7-7.7,3.5-7.6c0.9-0.3,0.8,3.2-0.2,7.5c-10.1,43.6-35.4,85.4-72.9,113.7
		c-37,28.6-84.6,44.5-132.3,42.4c-96.5-1-185.6-80.2-198.7-178.7c-12.8-77.4,22.3-160,86.6-204.5c9.4-6.9,18.7-9.7,19.4-7.9
		c1,2.2-6.5,7.9-15.3,14.8c-60.6,43.1-92.3,120.4-81.8,193c4.4,31.9,16.2,62.4,34.1,88.4C69,351.5,59.9,328,55.6,304
		c-9.3-36-7.8-75.9,5.8-112.3C93.6,103.6,182.6,51.3,275.1,57.9c45.1,3.6,84,18.7,116.5,42.6c32.3,23.7,59.2,57.4,72.9,101.5
		c1.2,3.8,2,8.3,1.7,10c-0.4,1.8-1.5,0.2-2.8-3.6c-26.7-84.6-99.1-139.3-184.7-146.1C188.5,55,98.7,107,66.8,194.8
		c-2.5,5.7-3.9,11.8-5.5,17.7c5.9-19.4,15.3-37.4,26.8-53.1c39.9-65.2,118.5-99,192.1-87.4c57.1,7.9,109.7,41.5,138.4,93.1
		c3.4,6.6,5.5,13.4,4.7,15.2C422.5,182.2,418.9,178.5,415.5,172.2z M207.6,452.1c-13.4-2-26.7-5.4-39.4-10.4
		c49.4,21.6,107.4,21.4,157.1-0.2C288.3,455.2,246.3,459.6,207.6,452.1z"/>
	<path class="st0" d="M410.6,65.7c61.3,49.4,94.6,127.8,93.1,204.3c-2.4,36.7-12.1,72.9-28.9,105.6c-2.6,4.6-4.1,8.6-3.2,9.1
		c0.9,0.5,3.7-2.8,6.4-7.5c8.6-16.7,16-34,21-52.1c0.2,0.6,0.5,0.9,0.9,0.9c-16.5,64.2-59.7,121.3-117.3,155.8
		c-3.2,1.9-5.4,3.9-5.1,4.4c0.3,0.5,3.2-0.6,6.4-2.5c60.9-35.8,105-97,119.7-164.4c0.9-2.4,1.6-5.2,2.2-8.3
		c10.4-57.1,1.9-115.6-25.4-166.6C442.7,71.6,372.9,18,291.5,4.6c-32.1-5.1-64.5-2.5-96.3,4.5c-26.6,5.8-53.5,15.6-74.2,29.5
		c-28.4,19.5-48.5,42.8-63.4,67.1c-1,1.6-0.6,2,0.3,1c0.9-0.4,2.5-2.2,3.3-3.4C76.1,78.8,99.2,55.7,123.7,38
		C175.2,9.4,235-1.5,293,6C337.7,15.8,375.5,37.2,410.6,65.7z"/>
	<path class="st0" d="M25.8,349.8C12.2,316.1,6.3,278.4,4.7,244.4c-0.1-1.6-0.4-2.6-0.8-1.8c-0.4,0.8-0.6,2.8-0.5,4.7
		c1.9,32.8,7.9,69.5,20.8,102.1c0.9,1.9,1.9,3.4,2.3,3.4C26.9,352.9,26.5,351.5,25.8,349.8z"/>
	<path class="st0" d="M4.3,219.8C7.9,163,35.1,104.2,82.1,63.2c46.1-41,110.2-63.9,173.7-60C359.7,8.8,448,79.5,481.5,175.1
		c11.4,31.5,16.1,64.8,16.7,95.8c0,2.6,0.5,4.1,1,3.2c0.7-1.1,0.9-4,0.9-6.9c-0.3-65.4-23.7-130.8-67.9-180.7
		C388.6,36.3,323.6,3.9,256.4,1c-64-3.4-129,19.8-175.9,61.8c-47.6,41.8-75,102.1-77.8,159.9c-0.1,1.6,0.2,2.4,0.6,1.8
		C3.7,223.5,4.2,221.4,4.3,219.8z"/>
	<path class="st0" d="M429.4,88.8C380.5,36.5,310.8,6.6,237.8,6.7c-39.3,0.1-78.5,9.8-113,31.4C78.8,67.6,47.9,105.4,25,153
		c-0.8,1.6-1.3,3.2-1.1,3.7c0.3,0.3,1.1-0.7,1.9-2.2c24.8-51.2,61.8-93.9,113.1-120.6C236.2-17.3,357,13,428.5,89.9
		c1.5,1.6,2.8,2.4,3.1,2.3C431.9,91.8,430.9,90.2,429.4,88.8z"/>
	<path class="st0" d="M169.3,75.1c-29.6,12.1-57.3,32.7-76.7,58.6c-19.1,26.1-29.8,56.7-31.3,84.2c-0.1,1.4,0.3,1.7,0.8,0.9
		c0.5-0.9,1.1-2.7,1.2-4.1c2-26.8,13.1-56.3,32.2-80.9c19.2-24.6,45.9-44.1,74-55.9c2.6-1.4,4.9-2.4,5-3.1
		C174.4,73.9,172.1,73.9,169.3,75.1z"/>
	<path class="st0" d="M40.3,362.6c-34.4-64-34.9-143-6.6-208c14.9-30.7,36.1-58.1,61.9-80.3c3.9-3,6.6-6,6-6.7
		c-0.5-0.7-4.2,1.1-8.1,4.2C80.1,83,67.8,95.3,57.1,109c0.1-0.7-0.1-1-0.4-1c36.8-49.2,93.6-82.9,154.8-92.1c3.4-0.5,5.9-1.4,5.7-2
		c-0.1-0.6-2.8-0.7-6.3-0.2c-64.2,9.1-123.4,46.1-159.7,98.7c-1.6,1.7-3.2,4-4.8,6.3c-29,45.1-42.6,98.4-37.5,151.8
		c6.2,75.8,46.5,146.3,110.8,186.5c25.4,15.7,53.8,24.9,83.3,30.2c24.6,4.5,50.9,5.6,73.3,0.9c30.9-6.6,56.4-19.5,77.7-35.2
		c1.3-0.9,1.2-1.4,0-1c-1,0.1-3,1-4,1.8c-21.2,15.7-49.1,27.4-76.1,34c-53.8,6.4-108.4-5.5-154.9-32.4
		C84.4,431.1,60,399.5,40.3,362.6z"/>
	<path class="st0" d="M388.4,401.2c36.4-40.8,57.4-94.8,55.7-149.5c-1-54.5-24.8-109.3-66.6-147.6c-0.1,0.1-0.4,0.3-0.9,0.2
		c-2.2-0.4-6.1-3.8-9.6-6.5c-9.4-8.5-19.4-16-30.1-22.7c-20.7-11.4-43.6-18.4-66.7-21.4c18.7,2.1,36.4,8.3,53.3,15.7
		c5,2.4,8.5,5.2,7.3,6.1c-1,0.9-5.9-0.2-10.8-2.7c-45.4-20.4-102.4-18.8-145.3-7.2C121.3,86.2,80,130.9,63.5,181.9
		c-17.1,51.1-10,106.2,14.4,147.7c1.1,1.6,1.9,3.7,2,4.6c0.2,1.4-0.5,1.3-1.5-0.2C50.2,292.5,39.1,230.5,60.7,173
		c19.7-57.8,72.7-107.7,138.1-123.2c7.7-2.6,16-2.9,23.9-4.4c-23.4,0.7-47.1,6.4-70.1,16.2c-1.9,1.9-5.5,4-9.7,6.4
		c-9.8,6.4-19.5,12.6-28.3,20.4c0.6-0.1,1-0.1,1.2,0.2c0.6,1-2.4,4-6.3,7.3c-21.8,19-39.2,42.5-51.7,68.6l-0.8,1.8
		c-29.3,65.8-19.8,144.6,20.7,201.5c40.1,57.1,110.3,90.8,179.1,85.4c1.9-0.4,4.8-0.6,6.2-0.2c1.6,0.3,1.4,0.9-0.4,1.4
		c0.1,0.4,0.7,0.9,0,1c-50.5,8.8-105.6-0.9-151.9-37C94.5,406.3,81.2,391,69.1,375c11.3,17.4,23,34,36,47.2
		c41.8,34.3,96,50.5,147.7,51.5l-2.2-0.7c4.7-0.2,8.8,0.3,9.1,1.3c0.6,0.9-3.2,1.9-8,2.3c-49,3.6-101.2-9.5-142.8-39.8
		C67,407,35.1,361.9,21.8,310.9C-8,208.4,46.5,88.2,145.7,42c77.2-39,175.1-29.1,242.5,24.3c10.3,7.5,16.2,16.5,14.5,17.9
		c-2.1,1.8-10.5-4.2-20.5-11.3c-64.7-49.8-156.1-58.1-229-23.1C121.3,65,93.2,87.4,71.4,114.9c17.4-21.2,39.2-38.4,62.9-51
		c34.8-21.7,77.3-33.1,119.8-30.7c102.9,5.1,186.5,81.9,209.1,182c10.7,48.8,7.4,95-7.3,137.1c-14.5,42-41.2,81.5-83.2,110.5
		c-3.6,2.6-7.9,4.9-9.8,5.1c-2.1,0.2-0.7-1.6,2.8-4.2c80.2-56,114.4-150.7,94.1-243.2C438.4,122.7,355.1,44.9,252.7,39.9
		c-6.8-0.6-13.6-0.2-20.4,0.1c22.4-0.2,44.2,3.8,64.4,10.9C378,71.6,438.5,143.5,450,225.3c10,63-8.3,129.7-53.3,176.8
		c-5.8,5.9-12.3,10.3-14.5,10.1C380,411.8,382.8,406.9,388.4,401.2z M27.7,273.4c-2.2-14.7-3-30-1.8-45.2
		c-6.8,59.2,12.1,120.6,50.7,166C50.3,359.7,32.2,316.8,27.7,273.4z"/>
	<path class="st0" d="M103.9,313.9c-8.9-21.9-12.7-46.4-13.8-68.6c0-1-0.3-1.7-0.5-1.2c-0.2,0.5-0.4,1.8-0.3,3.1
		c1.3,21.4,5.2,45.2,13.5,66.4c0.6,1.2,1.2,2.2,1.5,2.2C104.6,315.9,104.3,314.9,103.9,313.9z"/>
	<path class="st0" d="M89.9,229.3c2.4-37,20.1-75.2,50.6-101.9c30-26.7,71.7-41.5,113-39c67.5,3.7,125,49.7,146.8,111.8
		c7.4,20.5,10.5,42.1,10.8,62.3c0,1.7,0.3,2.7,0.6,2.1c0.5-0.7,0.6-2.6,0.6-4.5c-0.2-42.5-15.4-85.1-44.2-117.6
		c-28.4-32.6-70.7-53.6-114.4-55.6c-41.6-2.2-83.9,12.9-114.4,40.2c-31,27.2-48.8,66.4-50.6,104c-0.1,1,0.1,1.6,0.4,1.2
		C89.5,231.7,89.8,230.3,89.9,229.3z"/>
	<path class="st0" d="M366.4,144c-31.8-34-77.2-53.4-124.7-53.4c-25.6,0-51,6.4-73.5,20.4c-29.9,19.2-49.9,43.8-64.9,74.7
		c-0.5,1-0.8,2.1-0.7,2.4c0.2,0.2,0.7-0.4,1.2-1.5c16.1-33.3,40.2-61.1,73.6-78.5c63.3-33.3,141.9-13.6,188.4,36.5
		c1,1.1,1.8,1.6,2,1.5C368,146,367.4,145,366.4,144z"/>
	<path class="st0" d="M197.2,135.1c-19.2,7.9-37.3,21.2-49.9,38.1c-12.4,17-19.4,36.9-20.4,54.7c-0.1,0.9,0.2,1.1,0.5,0.6
		c0.4-0.6,0.7-1.8,0.8-2.7c1.3-17.4,8.5-36.6,21-52.7c12.5-16,29.8-28.7,48.1-36.4c1.7-0.9,3.2-1.5,3.2-2
		C200.5,134.4,199,134.4,197.2,135.1z"/>
	<path class="st0" d="M113.3,322.2c-22.4-41.6-22.7-93-4.3-135.3c9.7-20,23.5-37.8,40.3-52.2c2.5-2,4.3-3.9,3.9-4.4
		c-0.3-0.4-2.7,0.7-5.3,2.7c-8.6,7.3-16.6,15.3-23.6,24.2c0.1-0.4-0.1-0.6-0.3-0.7c23.9-32,60.9-53.9,100.7-59.9
		c2.2-0.3,3.8-0.9,3.7-1.3c0-0.4-1.8-0.4-4.1-0.1c-41.8,5.9-80.3,30-103.9,64.2c-1.1,1.1-2.1,2.6-3.1,4.1
		c-18.9,29.4-27.7,64-24.4,98.7c4,49.3,30.2,95.2,72.1,121.3c16.5,10.2,35,16.2,54.2,19.6c16,2.9,33.1,3.6,47.7,0.6
		c20.1-4.3,36.7-12.7,50.5-22.9c0.8-0.6,0.8-0.9,0-0.6c-0.6,0-1.9,0.7-2.6,1.2c-13.8,10.2-31.9,17.8-49.5,22.1
		c-35,4.2-70.5-3.6-100.8-21.1C142,366.7,126.1,346.2,113.3,322.2z"/>
	<path class="st0" d="M339.7,347.3c23.7-26.5,37.3-61.7,36.3-97.2c-0.7-35.4-16.1-71.1-43.3-96c-0.1,0.1-0.3,0.2-0.6,0.1
		c-1.4-0.3-4-2.5-6.2-4.2c-6.1-5.5-12.6-10.4-19.6-14.8c-13.5-7.4-28.3-12-43.4-13.9c12.1,1.4,23.7,5.4,34.7,10.2
		c3.2,1.5,5.5,3.4,4.8,4c-0.6,0.6-3.8-0.2-7-1.7c-29.5-13.3-66.6-12.3-94.5-4.7c-34.8,13.5-61.6,42.6-72.4,75.8
		c-11.1,33.2-6.5,69.1,9.4,96.1c0.7,1,1.2,2.4,1.3,3c0.1,0.9-0.3,0.9-1-0.1c-18.3-27.1-25.5-67.4-11.5-104.8
		c12.8-37.6,47.3-70.1,89.8-80.1c5-1.7,10.4-1.9,15.5-2.9c-15.3,0.5-30.7,4.2-45.6,10.5c-1.2,1.2-3.6,2.6-6.3,4.2
		c-6.4,4.1-12.7,8.2-18.4,13.2c0.4-0.1,0.6,0,0.8,0.1c0.4,0.6-1.5,2.6-4.1,4.8c-14.2,12.3-25.5,27.7-33.7,44.6l-0.5,1.2
		c-19,42.8-12.9,94,13.5,131.1c26.1,37.2,71.8,59.1,116.5,55.5c1.2-0.3,3.1-0.4,4-0.1c1.1,0.2,0.9,0.6-0.3,1c0.1,0.2,0.4,0.6,0,0.7
		c-32.8,5.7-68.7-0.6-98.9-24.1c-10.5-7.9-19.2-17.9-27-28.3c7.3,11.3,15,22.1,23.4,30.7c27.2,22.3,62.5,32.8,96.1,33.5l-1.4-0.4
		c3-0.2,5.7,0.2,5.9,0.8c0.4,0.6-2.1,1.2-5.2,1.5c-31.9,2.3-65.8-6.2-92.9-25.9c-27.3-19.4-48-48.7-56.6-81.9
		c-19.4-66.6,16-144.8,80.6-174.9c50.2-25.4,113.9-18.9,157.8,15.8c6.7,4.9,10.5,10.7,9.4,11.6c-1.4,1.2-6.8-2.7-13.3-7.3
		c-42.1-32.4-101.5-37.8-148.9-15c-20.9,9.9-39.1,24.5-53.3,42.4c11.3-13.8,25.5-25,40.9-33.2c22.6-14.1,50.3-21.6,77.9-19.9
		c66.9,3.3,121.3,53.3,136,118.4c6.9,31.7,4.8,61.8-4.8,89.2c-9.5,27.3-26.8,53-54.1,71.9c-2.3,1.7-5.2,3.2-6.4,3.3
		c-1.3,0.1-0.5-1,1.8-2.7c52.2-36.4,74.4-98,61.2-158.2c-13.9-63.7-68.1-114.3-134.7-117.5c-4.4-0.4-8.9-0.1-13.3,0
		c14.6-0.1,28.8,2.5,41.9,7.1c52.9,13.5,92.3,60.3,99.8,113.4c6.5,41-5.4,84.4-34.7,115c-3.8,3.8-8,6.7-9.4,6.5
		C334.3,354.2,336.1,350.9,339.7,347.3z M105.1,264.1c-1.4-9.6-1.9-19.5-1.2-29.4c-4.4,38.5,7.9,78.4,33,108
		C119.8,320.3,108.1,292.4,105.1,264.1z"/>
	<path class="st0" d="M274.2,323.6c-11.5,3.2-24,3.6-35.2,2.9c-0.5,0-0.9,0.1-0.6,0.2c0.3,0.1,0.9,0.3,1.5,0.3
		c10.8,0.6,23,0.1,34.1-2.9c0.6-0.2,1.2-0.5,1.2-0.6C275.3,323.4,274.8,323.5,274.2,323.6z"/>
	<path class="st0" d="M231,325.7c-18.4-3.4-36.5-14.5-48.1-31.3c-11.6-16.6-16.6-38.4-12.9-58.9c5.8-33.6,32.2-59.7,64.7-67
		c10.7-2.5,21.7-2.8,31.8-1.8c0.9,0.1,1.4,0,1.1-0.2c-0.3-0.3-1.3-0.4-2.2-0.6c-21.3-2.4-43.6,2.8-61.5,15.2
		c-18,12.3-31,32.3-34.5,54.1c-3.6,20.7,1.5,42.8,13.4,59.7c11.8,17.1,30.4,28.3,49.1,31.5c0.5,0.1,0.8,0,0.6-0.1
		C232.2,326,231.5,325.8,231,325.7z"/>
	<path class="st0" d="M204.5,182.1c-18.9,14-31.3,35.6-34.1,59.3c-1.5,12.8,0.2,26,5.9,38.1c7.9,16.1,19,27.6,33.6,36.9
		c0.5,0.3,1,0.5,1.2,0.5c0.1-0.1-0.2-0.4-0.7-0.7c-15.7-10-28.3-23.7-35-41.5c-13-33.7,1.5-71.9,29.3-92.3c0.6-0.5,0.9-0.8,0.9-0.9
		C205.6,181.4,205,181.7,204.5,182.1z"/>
	<path class="st0" d="M190.1,266.4c2.8,10.1,8.5,19.9,16.2,27.2c7.8,7.2,17.3,11.9,26.2,13.4c0.4,0.1,0.6,0,0.3-0.2
		c-0.3-0.2-0.8-0.5-1.3-0.6c-8.7-1.7-17.8-6.4-25.2-13.6c-7.3-7.2-12.6-16.6-15.4-26.3c-0.4-0.9-0.6-1.7-0.8-1.7
		C189.9,264.7,189.9,265.4,190.1,266.4z"/>
	<path class="st0" d="M279,319.4c-22.2,8.8-48,5.9-68.1-5.8c-9.4-6-17.6-14-23.8-23.2c-0.8-1.4-1.7-2.4-2-2.2
		c-0.2,0.1,0.2,1.4,1.1,2.8c3.2,4.7,6.7,9.2,10.8,13.2c-0.2-0.1-0.3,0-0.4,0.1c-14.6-13.9-23.4-33.7-24.1-54c0-1.1-0.2-2-0.4-1.9
		c-0.2,0-0.3,0.9-0.3,2c0.5,21.3,10.3,42,26.1,55.8c0.5,0.6,1.2,1.2,1.9,1.8c13.6,11.2,30.5,17.6,48,18c24.9,0.9,49.5-9.6,65-29
		c6.1-7.7,10.2-16.6,13-26c2.4-7.9,3.8-16.4,3.1-23.9c-1-10.3-4.2-19.1-8.5-26.6c-0.3-0.5-0.4-0.4-0.3-0.1c0,0.3,0.2,1,0.4,1.4
		c4.3,7.5,7.1,17,8.2,26.1c0,17.8-5.9,35.1-16.5,49.3C303,307.6,291.7,314.4,279,319.4z"/>
	<path class="st0" d="M293,192.9c-15.4-10-34.4-14.2-52.5-10.9c-18.1,3.1-35.1,13.8-45.6,29.7c0.1,0,0.1,0.1,0.1,0.3
		c0,0.8-1,2.2-1.7,3.5c-2.3,3.6-4.3,7.3-6,11.2c-2.7,7.4-3.9,15.4-3.7,23.2c-0.2-6.3,0.9-12.5,2.5-18.5c0.5-1.8,1.3-3.1,1.6-2.8
		c0.3,0.3,0.2,2-0.3,3.7c-4.5,16.1-1.1,35,5,48.6c9.6,16.7,26.6,28.1,44.4,31c17.8,3.1,35.8-2.1,48.3-12.3c0.5-0.4,1.1-0.8,1.4-0.9
		c0.5-0.1,0.5,0.1,0,0.5c-12.4,11.5-32.4,18.3-52.6,14.1c-20.2-3.6-39.5-18.7-48-39.6c-1.3-2.4-1.8-5.1-2.7-7.7
		c1.4,7.8,4.5,15.3,9,22.5c0.7,0.6,1.6,1.6,2.6,2.9c2.6,2.9,5.2,5.8,8.2,8.4c-0.1-0.2-0.1-0.3,0-0.4c0.3-0.3,1.4,0.6,2.8,1.7
		c7.4,6.3,16.1,10.9,25.4,13.7l0.7,0.2c23.3,6.4,49-0.8,65.9-17.1c17-16.2,24.6-41.3,19.2-63.8c-0.2-0.6-0.4-1.6-0.4-2.1
		c0-0.6,0.2-0.5,0.5,0.1c0.1-0.1,0.3-0.3,0.3-0.1c5.5,16.3,5.1,35.1-4.5,52.4c-3.2,6-7.6,11.2-12.3,16c5.2-4.6,10.1-9.4,13.9-14.4
		c9.2-15.7,11.9-34.5,9.6-51.7l-0.1,0.8c-0.3-1.5-0.3-3,0-3.1c0.3-0.2,0.8,1,1.2,2.5c3.7,16.1,2,34.1-5.9,49.5
		c-7.8,15.4-21.1,28.3-37.4,35.3c-32.5,15.1-75.2,3.2-95.6-27.4c-16.9-23.7-18.6-56.7-4.3-81.8c2-3.8,4.7-6.2,5.2-5.7
		c0.7,0.6-0.9,3.7-2.7,7.4c-13.3,24.1-11.3,54.8,4,77.3c6.7,9.9,15.6,18.1,25.8,23.9c-7.9-4.7-14.8-11-20.1-18.3
		c-9-10.5-15-24-16.3-38.2c-3.6-34.4,17.7-66.1,49.8-78.7c15.7-6,31.2-7.3,45.9-4.6c14.7,2.7,29.2,9.5,41,22c1,1.1,2,2.4,2.2,3
		c0.2,0.7-0.5,0.3-1.5-0.7c-22.7-23.8-55.9-30.3-85.6-18.9c-31.4,12.1-53,43.7-49.4,78c0.1,2.3,0.7,4.5,1.1,6.8
		c-1.2-7.4-1-14.9,0.3-21.9c2.7-28.1,23.5-51.9,50.1-59.8c20.4-6.6,43.5-3.9,61.4,8.7c2.2,1.6,4.1,3.5,4.1,4.3
		C297,195.1,295.2,194.5,293,192.9z M269,319.2c-4.8,1.5-9.8,2.5-14.9,2.9c20-0.8,39.4-10.2,52.6-25.3
		C296.5,307.3,283.1,315.5,269,319.2z"/>
	<path class="st0" d="M371.6,109.4c20.3,19.7,36.2,44.6,48,68.3c0.6,1.1,1.1,1.8,1.1,1c0-0.7-0.4-2.2-1.1-3.5
		c-11.7-22.7-27.4-46.9-46.7-66c-1.2-1-2.4-1.8-2.7-1.7C369.9,107.5,370.7,108.4,371.6,109.4z"/>
	<path class="st0" d="M427.6,194.9c15.2,41.5,14.3,91.7-6.2,135.6c-19.9,43.5-58.2,79.8-104.6,96.9c-75.5,28.5-160.3,5.9-214-51.4
		c-17.9-18.8-31.7-41-41.8-62.8c-0.8-1.8-1.6-2.8-1.7-2c-0.1,1,0.6,3.1,1.5,5.2c20.6,46.3,57.8,85.4,104.7,107.1
		c46.6,21.9,102.9,24.6,151.5,5.6c46.5-17.6,85.4-54.4,105.6-98.9c20.7-44.6,21.3-96,5.2-137.8c-0.4-1.2-0.9-1.6-1-1.1
		C426.9,192.1,427.2,193.8,427.6,194.9z"/>
	<path class="st0" d="M166.8,421c51.1,21.8,109.9,21.2,161.7-1.7c27.9-12.3,52.6-31.6,70.4-57.7c23.4-35.3,33.4-71.8,34.9-112.7
		c0.1-1.4-0.1-2.7-0.4-3c-0.3-0.1-0.6,0.8-0.6,2.2c-1.6,44.1-14.5,86-42.6,121c-53.1,66.8-148.3,83.1-223.2,50.8
		c-1.6-0.7-2.7-0.8-2.9-0.6C164.1,419.6,165.3,420.4,166.8,421z"/>
	<path class="st0" d="M355.8,349.3c17.2-17.8,30.4-41.1,36.1-65.6c5.4-24.5,3.4-49.6-4.1-69.5c-0.4-1-0.8-1.1-0.8-0.4
		c-0.1,0.8,0.1,2.3,0.4,3.3c6.9,19.6,8.3,44.1,2.5,67.6c-6,23.4-18.8,45.6-35,62.8c-1.4,1.8-2.7,3.2-2.5,3.8
		C352.5,351.7,354.1,351,355.8,349.3z"/>
	<path class="st0" d="M357.4,104.8c44.5,34.7,69.6,90.6,69.8,145.6c-1,26.5-7.4,52.6-18.8,76.4c-1.8,3.4-2.8,6.3-2.1,6.7
		c0.5,0.3,2.6-2.1,4.5-5.5c5.9-12.1,10.8-24.7,14.1-37.8c0.1,0.5,0.4,0.7,0.6,0.6c-10.7,46.4-40.5,88.1-81,113.8
		c-2.3,1.4-3.7,2.9-3.5,3.2c0.3,0.4,2.2-0.4,4.5-1.8c42.7-26.6,73.2-71.3,82.5-120c0.6-1.7,1.1-3.8,1.5-6
		c6.5-41.1-0.6-83.2-20.9-119.5c-28.1-51.9-78.8-89.3-137-97.7c-22.9-3.2-46-0.9-68.6,4.6C184,71.8,165,79.2,150.6,89.6
		c-19.9,14.4-33.9,31.5-44.1,49.2c-0.6,1.1-0.4,1.4,0.3,0.7c0.7-0.3,1.8-1.6,2.3-2.5c10.1-17.8,26.3-34.8,43.4-47.9
		c36.2-21.4,78.7-30,120.1-25.4C304.6,70,331.8,84.8,357.4,104.8z"/>
	<path class="st0" d="M394.2,164.2c6.2,9.8,11.5,20.4,15.4,31.5c-13.7-44.1-46.3-81.8-87.9-102C351.2,110,377.4,134.8,394.2,164.2z"
		/>
	<path class="st0" d="M466,454.6c0-17.3,14.3-31.7,31.6-31.7c17.4,0,31.7,14.3,31.7,31.7c0,17.5-14.1,31.7-31.7,31.7
		C480.3,486.3,466,472.1,466,454.6z M497.6,481.6c14.8,0,27-12.1,27-27c0-14.8-12.1-26.9-27-26.9c-14.8,0-26.9,12.1-26.9,26.9
		C470.7,469.4,482.8,481.6,497.6,481.6z M485.7,437.1h11.2c6.3,0,13.6,1.1,13.6,10.8c0,5.9-3.7,7.1-5.8,8.2l6.2,14.4h-6.7L499,457
		h-7.3v13.5h-6V437.1z M491.7,451.6h7.3c2.8,0,5.1-1.3,5.1-4.3c0-3-2-4.5-5.7-4.5h-6.7V451.6z"/>
	<g>
		<path class="st0" d="M40,328.5c-0.3-0.9-0.7-1.8-1-2.7C39.3,326.7,39.7,327.6,40,328.5z"/>
		<path class="st0" d="M48.4,153c30-65.6,92.1-108.4,141.7-121.9c50.2-14.6,85.3-8,85-8.5c-14.2-2-89.3-9.9-163.2,48.6
			c-36.2,28-67.1,73.5-79.7,127c-9.9,40.7-7.5,86.1,6.9,127.5C21.8,275.9,21.3,209.3,48.4,153z"/>
		<path class="st0" d="M171.7,54.2c-2.7,1-6.7,2.7-12.4,5.6c6.4-3,11.1-4.7,12.5-4.8C171.8,55,181.9,50.2,171.7,54.2z"/>
		<path class="st0" d="M480,194.9c-14.7-54.5-43.4-89.2-67.5-111.4c-24.6-22.3-46.2-32.2-60.7-39.1c-5.4-2.2-9.9-3.9-13.8-5.2
			c15.9,6.4,30.7,15.1,43.8,25.6c2.9,2.4,4.9,4.7,4.1,5c-0.6,0.5-3.5-1-6.4-3.2l1.7,0.5c-20.3-13.5-43.8-23.8-68.4-29l-0.1,0.2
			l5.3,7.7c23.7,7.4,44.6,20.5,61.5,37.1c0.4,0.3-0.2,0.5-0.5,0.6c0.9,1.2,0.8,1.6-0.4,1.1c-1.1-0.4-2.9-1.8-3.9-2.9
			c-16.5-13.5-35.9-23-56.5-28.5l0,1.2c-3.4,9.6,4.7,5.7,4.8,5.8c71,21.2,124.5,83.4,138.1,151.7c14.4,68.2-8,139.6-52.2,185
			c-43.6,46.5-104.8,68.9-160.3,66.6c-55.9-1.7-104.9-25.7-138.6-57.1C41,341,36.1,257.2,46.2,210.7c9.8-48.9,28.5-69.8,27.2-70.2
			c23.3-38,48.3-57.4,65.4-68.8c8.4-5.5,15.1-9.2,20.4-11.9c-9.8,4.6-23.6,12.1-36,21.4c-7.9,5.6-15,11.9-20.9,17.5
			c3.2-3.1,6.4-6.2,9.7-9.2c15.9-14,33.8-25.8,52.8-35c-11.9,5.4-23.6,11.7-34.5,19.1c8.9-7.1,32.2-21.1,55.3-28.6
			c11.1-3.9,21.9-6.2,30-7.6c0.7-0.3,1.4-0.5,2.1-0.7c-18.2,2.5-49.4,9.8-82.3,31c-42.2,25.9-82.9,77.6-95,137
			c-13.7,59.2,1.5,119.8,23.9,157.1c22,38,45.8,56,45.3,56.1c-8.2-6.6-40.8-32.9-61.2-82.8c-21.6-48.8-24.7-120.9,4-180.5
			c27.4-60.5,82.9-100.7,127.4-116c45.2-15.5,77.3-12.4,77-12.8c-9.5-1.1-50.8-2.2-100.3,20.9C107.2,68.8,55.1,122.1,37.1,188.6
			C16.9,254.4,33.2,325,59.5,367.2c26,43.2,54.6,62.5,54.1,62.7c-6.8-4.7-41.2-30.9-65.7-82.9c-2.9-5.8-5.5-12.1-7.8-18.6
			c4.3,11.9,9.5,23.4,15.7,34.4c27.8,50.4,75.2,88.1,125.4,105.5c50.3,17.3,102.1,15.9,142.3,3.5c82.2-25.5,114.8-78.5,114.7-76.5
			c39.2-48.3,50.3-103.8,50.1-141C488,216.4,479.5,194.9,480,194.9z M102.2,98.9c-4.8,4.7-8.7,8.9-11.4,12
			C94.4,106.7,98.3,102.7,102.2,98.9z M86.7,115.7c-0.1,0.2-0.2,0.3-0.2,0.3C86.6,115.9,86.6,115.8,86.7,115.7z"/>
	</g>
</g>
</svg>
