<?xml version="1.0" encoding="utf-8"?>
<!-- Generator: Adobe Illustrator 22.0.1, SVG Export Plug-In . SVG Version: 6.00 Build 0)  -->
<svg version="1.1" id="Layer_1" xmlns="http://www.w3.org/2000/svg" xmlns:xlink="http://www.w3.org/1999/xlink" x="0px" y="0px"
	 viewBox="0 0 1816.4 509.3" style="enable-background:new 0 0 1816.4 509.3;" xml:space="preserve">
<style type="text/css">
	.st0{fill:#005CB9;}
	.st1{fill:url(#SVGID_1_);}
	.st2{fill:url(#SVGID_2_);}
	.st3{fill:url(#SVGID_3_);}
	.st4{fill:url(#SVGID_4_);}
	.st5{fill:url(#SVGID_5_);}
	.st6{fill:url(#SVGID_6_);}
	.st7{fill:url(#SVGID_7_);}
	.st8{fill:url(#SVGID_8_);}
	.st9{fill:url(#SVGID_9_);}
	.st10{fill:url(#SVGID_10_);}
	.st11{fill:url(#SVGID_11_);}
	.st12{fill:url(#SVGID_12_);}
	.st13{fill:url(#SVGID_13_);}
	.st14{fill:url(#SVGID_14_);}
	.st15{fill:url(#SVGID_15_);}
	.st16{fill:url(#SVGID_16_);}
	.st17{fill:url(#SVGID_17_);}
	.st18{fill:url(#SVGID_18_);}
	.st19{fill:url(#SVGID_19_);}
	.st20{fill:url(#SVGID_20_);}
	.st21{fill:url(#SVGID_21_);}
	.st22{fill:url(#SVGID_22_);}
	.st23{fill:url(#SVGID_23_);}
	.st24{fill:url(#SVGID_24_);}
	.st25{fill:url(#SVGID_25_);}
	.st26{fill:url(#SVGID_26_);}
	.st27{fill:url(#SVGID_27_);}
	.st28{fill:url(#SVGID_28_);}
	.st29{fill:url(#SVGID_29_);}
	.st30{fill:url(#SVGID_30_);}
	.st31{fill:url(#SVGID_31_);}
</style>
<g>
	<g>
		<path class="st0" d="M623.8,336c0-17.4,0-20.5-0.2-24.1c-0.2-3.8-1.1-5.6-4.8-6.4c-0.9-0.2-2.8-0.3-3.8-0.3
			c-0.4,0-0.9-0.2-0.9-0.7c0-0.7,0.6-0.9,1.8-0.9c5,0,12,0.3,12.6,0.3c1.3,0,8.4-0.3,15-0.3c11,0,31.4-1,44.7,12.7
			c5.6,5.8,10.8,15,10.8,28.3c0,14-5.8,24.8-12,31.4c-4.8,5-14.8,12.8-33.8,12.8c-4.8,0-10.7-0.3-15.5-0.7c-4.9-0.3-8.7-0.7-9.2-0.7
			c-0.2,0-2.1,0-4.5,0.1c-2.2,0-4.8,0.2-6.5,0.2c-1.2,0-1.8-0.2-1.8-0.9c0-0.3,0.2-0.7,0.9-0.7c1,0,2.3-0.2,3.3-0.4
			c2.2-0.4,2.8-2.9,3.2-6.1c0.6-4.7,0.6-13.5,0.6-24.2V336z M633.1,348.1c0,11.8,0.1,22.1,0.2,24.2c0.1,2.8,0.3,7.2,1.2,8.5
			c1.4,2.1,5.8,4.5,18.9,4.5c10.4,0,19.9-3.8,26.5-10.4c5.8-5.7,8.9-16.4,8.9-26.6c0-14.2-6.1-23.3-10.7-28.1
			c-10.5-11-23.2-12.6-36.4-12.6c-2.2,0-6.4,0.3-7.2,0.8c-1,0.4-1.3,1-1.3,2.2c-0.1,3.8-0.1,15.2-0.1,23.7V348.1z"/>
		<path class="st0" d="M718.3,343.7c0-14.7,0-17.4-0.2-20.4c-0.2-3-0.8-4.8-4-5.2c-0.8-0.1-2.5-0.2-3.3-0.2c-0.3,0-0.8-0.4-0.8-0.8
			c0-0.6,0.4-0.8,1.6-0.8c4.5,0,10.4,0.2,11.3,0.2c0.9,0,7-0.2,9.9-0.2c1.1,0,1.7,0.2,1.7,0.8c0,0.3-0.4,0.8-0.9,0.8
			c-0.7,0-1.2,0-2.5,0.2c-2.6,0.4-3.1,2.1-3.3,5.2c-0.2,3-0.2,5.7-0.2,20.4V357c0,13.7,3,19.4,7.2,23.2c4.8,4.3,9,5.1,14.6,5.1
			c6,0,11.8-2.7,15.2-6.7c4.6-5.5,5.6-13.3,5.6-23v-11.9c0-14.7-0.1-17.4-0.2-20.4c-0.1-3-0.7-4.8-3.9-5.2c-0.8-0.1-2.5-0.2-3.3-0.2
			c-0.4,0-0.8-0.4-0.8-0.8c0-0.6,0.4-0.8,1.6-0.8c4.3,0,10,0.2,10.6,0.2c0.7,0,5.3-0.2,8.2-0.2c1.1,0,1.6,0.2,1.6,0.8
			c0,0.3-0.3,0.8-0.8,0.8c-0.7,0-1.2,0-2.5,0.2c-2.7,0.6-3.2,2.1-3.5,5.2c-0.2,3-0.1,5.7-0.1,20.4v10.1c0,10.3-1.3,21.7-9.1,28.4
			c-7.1,6.1-14.7,6.9-20.5,6.9c-3.2,0-13.5-0.2-20.4-6.7c-4.8-4.5-8.6-11-8.6-24.9V343.7z"/>
		<path class="st0" d="M804.9,343.7c0-14.7,0-17.4-0.2-20.4c-0.2-3.2-0.8-5-4-5.5c-0.8-0.1-2.5-0.2-3.3-0.2c-0.3,0-0.8-0.2-0.8-0.6
			c0-0.6,0.4-0.8,1.6-0.8c4.5,0,10.8,0.2,11.4,0.2c2.3,0,6.9-0.2,11.5-0.2c16.4,0,20.6,9.5,20.6,14.5c0,7.5-4.9,12.1-9.9,16.6
			c7.5,2.2,17.3,9,17.3,19.7c0,10.6-7.9,21.1-24.6,21.1c-1.8,0-5.3-0.1-8.5-0.3c-3.1-0.1-5.9-0.2-6.4-0.2c-0.2,0-2,0.1-4,0.1
			c-2,0.1-4.3,0.2-5.9,0.2c-1,0-1.6-0.2-1.6-0.8c0-0.3,0.2-0.6,0.8-0.6c0.9,0,2.1-0.3,3-0.4c1.9-0.3,2.1-2.5,2.6-5.2
			c0.6-3.9,0.6-11.4,0.6-20.5V343.7z M813.4,345.7c0,0.7,0.2,0.9,0.7,1c0.6,0.1,2.3,0.4,6,0.4c5.5,0,7.6-0.2,9.6-2.5
			c2.1-2.3,3.8-5.6,3.8-10.1c0-7.2-4-15.3-13.8-15.3c-1.1,0-3.5,0.1-5,0.4c-0.9,0.2-1.2,0.4-1.2,1V345.7z M813.4,356.2
			c0,7.4,0,18.7,0.1,20.2c0.3,4.6,0.3,5.7,3.3,7.1c2.7,1.2,6.8,1.3,8.6,1.3c6.5,0,14.4-2.5,14.4-14.6c0-4.2-1.7-12.4-9.4-17.3
			c-3.3-2.1-6.5-2-8.8-2.5c-1.2-0.2-6.1-0.2-7.7-0.2c-0.3,0-0.6,0.2-0.6,0.7V356.2z"/>
		<path class="st0" d="M887.7,318.2c1.2-3.1,1.7-3.7,2.3-3.7c1,0,1.3,1.3,2.3,3.5c1.8,4,17.5,43.1,23.5,57.5
			c3.6,8.5,6.2,9.7,8.4,10.4c1.4,0.4,2.9,0.6,3.9,0.6c0.6,0,1.2,0.2,1.2,0.8c0,0.6-1.1,0.8-2.2,0.8c-1.4,0-8.7,0-15.5-0.2
			c-1.9-0.1-3.5-0.1-3.5-0.7c0-0.4,0.2-0.4,0.7-0.7c0.6-0.2,1.6-1,0.9-2.6l-8.8-21.7c-0.2-0.4-0.3-0.6-0.9-0.6h-22.6
			c-0.4,0-0.8,0.2-1,0.8l-5.6,15.2c-0.9,2.3-1.4,4.7-1.4,6.3c0,1.9,1.7,2.6,3.3,2.6h0.9c0.8,0,1,0.3,1,0.8c0,0.6-0.6,0.8-1.4,0.8
			c-2.3,0-7.7-0.3-8.8-0.3c-1,0-5.9,0.3-9.9,0.3c-1.2,0-1.9-0.2-1.9-0.8c0-0.4,0.4-0.8,0.9-0.8c0.7,0,2.1-0.1,2.9-0.2
			c4.5-0.6,6.4-3.9,8.2-8.7L887.7,318.2z M898.6,357.7c0.4,0,0.4-0.2,0.3-0.7l-9.7-26c-0.6-1.4-1.1-1.4-1.7,0l-9.1,26
			c-0.1,0.4,0,0.7,0.3,0.7H898.6z"/>
		<path class="st0" d="M951.2,360.4c0,9.1,0,16.6,0.4,20.5c0.3,2.8,0.7,4.6,3.6,5c1.4,0.2,3.6,0.4,4.5,0.4c0.6,0,0.8,0.4,0.8,0.8
			c0,0.4-0.4,0.8-1.6,0.8c-5.5,0-11.8-0.3-12.3-0.3c-0.6,0-6.7,0.3-9.7,0.3c-1,0-1.6-0.2-1.6-0.8c0-0.3,0.2-0.8,0.8-0.8
			c0.9,0,2.1-0.2,3-0.4c1.9-0.4,2.2-2.2,2.6-5c0.4-3.9,0.6-11.4,0.6-20.5v-16.7c0-14.7,0-17.4-0.2-20.4c-0.2-3.2-1-4.7-3.1-5.1
			c-1.1-0.2-2.3-0.3-3-0.3c-0.4,0-0.8-0.4-0.8-0.8c0-0.6,0.4-0.8,1.6-0.8c3.2,0,9.4,0.2,9.9,0.2c0.4,0,6.8-0.2,9.8-0.2
			c1.1,0,1.6,0.2,1.6,0.8c0,0.3-0.4,0.8-0.8,0.8c-0.7,0-1.3,0-2.5,0.2c-2.7,0.6-3.2,1.9-3.5,5.2c-0.1,3-0.1,5.7-0.1,20.4V360.4z"/>
		<path class="st0" d="M1024.4,336c0-17.4,0-20.5-0.2-24.1c-0.2-3.8-1.1-5.6-4.8-6.4c-0.9-0.2-2.8-0.3-3.8-0.3
			c-0.4,0-0.9-0.2-0.9-0.7c0-0.7,0.6-0.9,1.8-0.9c5,0,12,0.3,12.6,0.3c1.2,0,9.7-0.3,13.1-0.3c7,0,14.5,0.7,20.4,4.9
			c2.8,2,7.7,7.5,7.7,15.2c0,8.2-3.5,16.5-13.5,25.7c9.1,11.7,16.7,21.6,23.2,28.5c6,6.3,10.8,7.6,13.6,8c2.1,0.3,3.7,0.3,4.3,0.3
			c0.6,0,1,0.3,1,0.7c0,0.7-0.7,0.9-2.7,0.9h-7.9c-6.2,0-9-0.6-11.9-2.1c-4.8-2.6-8.7-8-15-16.4c-4.7-6.1-9.9-13.6-12.1-16.5
			c-0.4-0.4-0.8-0.7-1.4-0.7l-13.7-0.2c-0.6,0-0.8,0.3-0.8,0.9v2.7c0,10.7,0,19.5,0.6,24.2c0.3,3.2,1,5.7,4.3,6.1
			c1.6,0.2,4,0.4,5,0.4c0.7,0,0.9,0.3,0.9,0.7c0,0.6-0.6,0.9-1.8,0.9c-6.1,0-13.2-0.3-13.7-0.3c-0.1,0-7.1,0.3-10.5,0.3
			c-1.2,0-1.8-0.2-1.8-0.9c0-0.3,0.2-0.7,0.9-0.7c1,0,2.3-0.2,3.3-0.4c2.2-0.4,2.8-2.9,3.2-6.1c0.6-4.7,0.6-13.5,0.6-24.2V336z
			 M1033.3,345.7c0,0.6,0.2,1,0.8,1.3c1.7,1,6.8,1.8,11.7,1.8c2.7,0,5.8-0.3,8.4-2.1c3.9-2.7,6.8-8.7,6.8-17.2
			c0-13.9-7.4-22.3-19.3-22.3c-3.3,0-6.4,0.3-7.5,0.7c-0.6,0.2-0.9,0.7-0.9,1.3V345.7z"/>
		<path class="st0" d="M1105.9,343.7c0-14.7,0-17.4-0.2-20.4c-0.2-3.2-0.8-4.8-4-5.2c-0.8-0.1-2.5-0.2-3.3-0.2
			c-0.3,0-0.8-0.4-0.8-0.8c0-0.6,0.4-0.8,1.6-0.8c4.5,0,10.8,0.2,11.4,0.2c0.7,0,21.2,0.1,23.4,0c1.9-0.1,3.7-0.4,4.5-0.6
			c0.4-0.1,0.9-0.4,1.3-0.4c0.3,0,0.4,0.4,0.4,0.9c0,0.7-0.6,1.8-0.8,4.5c-0.1,0.9-0.3,5.1-0.6,6.2c-0.1,0.4-0.4,1-0.9,1
			c-0.6,0-0.8-0.4-0.8-1.2c0-0.7-0.1-2.2-0.6-3.3c-0.7-1.6-1.7-2.2-7-2.9c-1.7-0.2-13-0.3-14.2-0.3c-0.4,0-0.6,0.3-0.6,1v25.7
			c0,0.7,0,1,0.6,1c1.2,0,14.2,0,16.4-0.2c2.3-0.2,3.8-0.3,4.8-1.3c0.7-0.7,1.1-1.2,1.4-1.2c0.3,0,0.6,0.2,0.6,0.8
			c0,0.6-0.6,2.1-0.8,5.2c-0.2,1.9-0.4,5.5-0.4,6.1c0,0.8-0.2,1.8-0.9,1.8c-0.4,0-0.7-0.3-0.7-0.9c0-0.9,0-1.9-0.4-3.1
			c-0.3-1.3-1.2-2.5-5-2.9c-2.7-0.3-13.1-0.4-14.8-0.4c-0.6,0-0.7,0.3-0.7,0.7v7.9c0,3.2-0.1,14.3,0,16.2c0.2,6.3,2,7.6,11.7,7.6
			c2.6,0,7.2,0,9.8-1c2.6-1.1,3.9-2.8,4.5-6.6c0.2-1.1,0.4-1.4,1-1.4c0.6,0,0.7,0.8,0.7,1.4c0,0.7-0.8,7.1-1.3,9.1
			c-0.7,2.5-1.7,2.5-5.5,2.5c-7.4,0-13-0.2-17-0.3c-4.1-0.2-6.7-0.2-8.1-0.2c-0.2,0-2.1,0-4.2,0.1c-1.9,0.1-4.1,0.2-5.7,0.2
			c-1,0-1.6-0.2-1.6-0.8c0-0.3,0.2-0.8,0.8-0.8c0.9,0,2.1-0.3,3-0.4c1.9-0.3,2.1-2.2,2.6-5c0.6-3.9,0.6-11.4,0.6-20.5V343.7z"/>
		<path class="st0" d="M1167.3,343.7c0-14.7,0-17.4-0.2-20.4c-0.2-3.2-0.8-4.8-4-5.2c-0.8-0.1-2.5-0.2-3.3-0.2
			c-0.3,0-0.8-0.4-0.8-0.8c0-0.6,0.4-0.8,1.6-0.8c4.5,0,10.6,0.2,11.1,0.2c1.9,0,23.2,0.1,25.4,0c1.9-0.1,3.6-0.1,4.5-0.4
			c0.6-0.1,1-0.6,1.3-0.6c0.4,0,0.7,0.4,0.7,0.9c0,0.7-0.4,1.8-0.8,4.5c-0.1,0.9-0.2,5.1-0.4,6.2c-0.1,0.4-0.4,1-0.9,1
			s-0.8-0.4-0.8-1.1c0-0.8-0.3-2.3-0.9-3.6c-0.6-1.2-2.9-2.8-6.7-2.8l-16-0.2c-0.6,0-0.8,0.2-0.8,1v25.9c0,0.6,0,0.9,0.7,0.9
			l13.4-0.1c1.7,0,3.1,0,4.5-0.1c2.3-0.2,3.7-0.6,4.6-1.7c0.4-0.6,0.9-1,1.2-1c0.4,0,0.6,0.3,0.6,0.8c0,0.6-0.7,2.1-0.9,5.2
			c-0.2,1.9-0.3,5.7-0.3,6.3c0,0.9-0.2,1.9-0.9,1.9c-0.6,0-0.7-0.4-0.7-0.9c-0.1-1-0.2-2.3-0.7-3.5c-0.4-1.3-2-2.6-5-3
			c-2.5-0.3-14-0.2-15.7-0.2c-0.6,0-0.7,0.2-0.7,0.9v7.6c0,9.4,0,16.8,0.4,20.5c0.3,2.8,0.9,4.6,3.6,5c1.4,0.2,3.6,0.4,4.5,0.4
			c0.6,0,0.8,0.4,0.8,0.8c0,0.4-0.4,0.8-1.6,0.8c-5.5,0-11.8-0.3-12.3-0.3c-0.6,0-6.7,0.3-9.7,0.3c-1,0-1.6-0.2-1.6-0.8
			c0-0.3,0.2-0.8,0.8-0.8c0.9,0,2.1-0.3,3-0.4c1.9-0.3,2.1-2.2,2.6-5c0.6-3.9,0.6-11.4,0.6-20.5V343.7z"/>
		<path class="st0" d="M1226.9,343.7c0-14.7,0-17.4-0.2-20.4c-0.2-3.2-0.8-4.8-4-5.2c-0.8-0.1-2.5-0.2-3.3-0.2
			c-0.3,0-0.8-0.4-0.8-0.8c0-0.6,0.4-0.8,1.6-0.8c4.5,0,11,0.2,11.6,0.2c1,0,9.2-0.2,12.3-0.2c6.2,0,13.2,0.6,18.3,4.1
			c2.5,1.8,6.8,6.3,6.8,12.9c0,7-2.9,13.8-12,21.6c8,10,14.8,18.6,20.5,24.5c5.2,5.3,8.5,6.2,10.9,6.6c1.9,0.3,2.9,0.3,3.5,0.3
			s0.9,0.4,0.9,0.8c0,0.6-0.6,0.8-2.3,0.8h-6.1c-5.6,0-8-0.6-10.5-1.9c-4.2-2.2-7.8-6.8-13.4-13.9c-4.1-5.1-8.5-11.3-10.6-13.8
			c-0.4-0.4-0.7-0.6-1.3-0.6l-12.5-0.2c-0.4,0-0.7,0.2-0.7,0.8v2.2c0,9.1,0,16.5,0.4,20.4c0.3,2.8,0.9,4.6,3.9,5
			c1.3,0.2,3.5,0.4,4.3,0.4c0.7,0,0.8,0.4,0.8,0.8c0,0.4-0.4,0.8-1.6,0.8c-5.3,0-11.6-0.3-12-0.3c-0.1,0-6.7,0.3-9.7,0.3
			c-1,0-1.6-0.2-1.6-0.8c0-0.3,0.2-0.8,0.8-0.8c0.9,0,2.1-0.2,3-0.4c1.9-0.4,2.1-2.2,2.6-5c0.6-3.9,0.6-11.4,0.6-20.5V343.7z
			 M1235.3,351.7c0,0.6,0.2,0.9,0.7,1.2c1.4,0.8,6.5,1.4,10.8,1.4c2.3,0,5-0.1,7.4-1.7c3.3-2.2,5.9-7.2,5.9-14.5
			c0-11.8-6.5-18.6-16.9-18.6c-2.9,0-6,0.3-7,0.6c-0.4,0.2-0.8,0.6-0.8,1.1V351.7z"/>
		<path class="st0" d="M1301.7,343.7c0-14.7,0-17.4-0.2-20.4c-0.2-3.2-0.8-4.8-4-5.2c-0.8-0.1-2.5-0.2-3.3-0.2
			c-0.3,0-0.8-0.4-0.8-0.8c0-0.6,0.4-0.8,1.6-0.8c4.5,0,10.8,0.2,11.4,0.2c0.7,0,21.2,0.1,23.4,0c1.9-0.1,3.7-0.4,4.5-0.6
			c0.4-0.1,0.9-0.4,1.3-0.4c0.3,0,0.4,0.4,0.4,0.9c0,0.7-0.6,1.8-0.8,4.5c-0.1,0.9-0.3,5.1-0.6,6.2c-0.1,0.4-0.4,1-0.9,1
			c-0.6,0-0.8-0.4-0.8-1.2c0-0.7-0.1-2.2-0.6-3.3c-0.7-1.6-1.7-2.2-7-2.9c-1.7-0.2-13-0.3-14.2-0.3c-0.4,0-0.6,0.3-0.6,1v25.7
			c0,0.7,0,1,0.6,1c1.2,0,14.2,0,16.4-0.2c2.3-0.2,3.8-0.3,4.8-1.3c0.7-0.7,1.1-1.2,1.4-1.2c0.3,0,0.6,0.2,0.6,0.8
			c0,0.6-0.6,2.1-0.8,5.2c-0.2,1.9-0.4,5.5-0.4,6.1c0,0.8-0.2,1.8-0.9,1.8c-0.4,0-0.7-0.3-0.7-0.9c0-0.9,0-1.9-0.4-3.1
			c-0.3-1.3-1.2-2.5-5-2.9c-2.7-0.3-13.1-0.4-14.8-0.4c-0.6,0-0.7,0.3-0.7,0.7v7.9c0,3.2-0.1,14.3,0,16.2c0.2,6.3,2,7.6,11.7,7.6
			c2.6,0,7.2,0,9.8-1c2.6-1.1,3.9-2.8,4.5-6.6c0.2-1.1,0.4-1.4,1-1.4s0.7,0.8,0.7,1.4c0,0.7-0.8,7.1-1.3,9.1
			c-0.7,2.5-1.7,2.5-5.5,2.5c-7.4,0-13-0.2-17-0.3c-4.1-0.2-6.7-0.2-8.1-0.2c-0.2,0-2.1,0-4.2,0.1c-1.9,0.1-4.1,0.2-5.7,0.2
			c-1,0-1.6-0.2-1.6-0.8c0-0.3,0.2-0.8,0.8-0.8c0.9,0,2.1-0.3,3-0.4c1.9-0.3,2.1-2.2,2.6-5c0.6-3.9,0.6-11.4,0.6-20.5V343.7z"/>
		<path class="st0" d="M1354.9,386.6c-1.3-0.7-1.4-1-1.4-3.6c0-4.7,0.4-8.5,0.6-10c0-1,0.2-1.6,0.8-1.6s0.9,0.3,0.9,1.1
			c0,0.8,0,2.1,0.3,3.5c1.6,6.9,8.9,9.4,15.5,9.4c9.7,0,14.7-5.5,14.7-12.6c0-6.8-3.7-10-12.4-16.5l-4.5-3.3
			c-10.6-7.9-14-13.7-14-20.3c0-11.1,8.8-17.8,21.7-17.8c3.9,0,7.8,0.6,10.1,1.1c1.9,0.4,2.7,0.4,3.5,0.4c0.8,0,1,0.1,1,0.7
			c0,0.4-0.4,3.6-0.4,10c0,1.4-0.1,2.1-0.8,2.1s-0.8-0.4-0.9-1.2c-0.1-1.1-0.9-3.7-1.4-4.7c-0.7-1.1-3.9-4.7-12.7-4.7
			c-7.1,0-13,3.6-13,10.3c0,6,3,9.5,12.7,16l2.8,1.9c11.9,8.1,16,14.7,16,22.8c0,5.6-2.1,11.6-9.1,16.2c-4.1,2.7-10.3,3.3-15.6,3.3
			C1364.6,389.2,1358.9,388.5,1354.9,386.6z"/>
		<path class="st0" d="M1479.1,360.4c0,9.1,0.1,16.6,0.6,20.5c0.3,2.8,0.6,4.6,3.6,5c1.3,0.2,3.6,0.4,4.3,0.4c0.7,0,0.9,0.4,0.9,0.8
			c0,0.4-0.6,0.8-1.7,0.8c-5.3,0-11.6-0.3-12.1-0.3c-0.4,0-6.8,0.3-9.7,0.3c-1.1,0-1.6-0.2-1.6-0.8c0-0.3,0.2-0.8,0.8-0.8
			c0.9,0,2-0.2,2.9-0.4c2-0.4,2.3-2.3,2.7-5.1c0.4-3.9,0.4-11,0.4-20.2v-9.5c0-0.4-0.2-0.6-0.6-0.6h-40.9c-0.3,0-0.6,0.1-0.6,0.6
			v9.5c0,9.1,0,16.4,0.4,20.3c0.3,2.8,0.7,4.6,3.6,5c1.4,0.2,3.6,0.4,4.5,0.4c0.6,0,0.8,0.4,0.8,0.8c0,0.4-0.4,0.8-1.6,0.8
			c-5.5,0-11.7-0.3-12.1-0.3c-0.6,0-6.8,0.3-9.8,0.3c-1,0-1.6-0.2-1.6-0.8c0-0.3,0.2-0.8,0.8-0.8c0.9,0,2.1-0.2,3-0.4
			c1.9-0.4,2.1-2.2,2.6-5c0.6-3.9,0.6-11.4,0.6-20.5v-16.7c0-14.7,0-17.4-0.2-20.4c-0.2-3.2-0.8-4.8-4-5.2c-0.8-0.1-2.5-0.2-3.3-0.2
			c-0.3,0-0.8-0.4-0.8-0.8c0-0.6,0.4-0.8,1.6-0.8c4.5,0,10.7,0.2,11.3,0.2c0.4,0,6.7-0.2,9.7-0.2c1.1,0,1.6,0.2,1.6,0.8
			c0,0.3-0.4,0.8-0.8,0.8c-0.7,0-1.3,0-2.5,0.2c-2.7,0.6-3.2,1.9-3.5,5.2c-0.1,3-0.1,5.9-0.1,20.6v2c0,0.6,0.2,0.6,0.6,0.6h40.9
			c0.3,0,0.6,0,0.6-0.6v-2c0-14.7-0.1-17.6-0.2-20.6c-0.2-3.2-0.7-4.8-3.9-5.2c-0.8-0.1-2.5-0.2-3.3-0.2c-0.4,0-0.8-0.4-0.8-0.8
			c0-0.6,0.4-0.8,1.6-0.8c4.3,0,10.7,0.2,11.1,0.2c0.6,0,6.8-0.2,9.7-0.2c1.1,0,1.7,0.2,1.7,0.8c0,0.3-0.4,0.8-0.9,0.8
			c-0.7,0-1.2,0-2.5,0.2c-2.6,0.6-3.1,1.9-3.3,5.2c-0.2,3-0.2,5.7-0.2,20.4V360.4z"/>
		<path class="st0" d="M1587.1,375.7c0.3,3.3,1,8.5,5,9.8c2.8,0.9,5.3,0.9,6.4,0.9c0.4,0,0.8,0.2,0.8,0.7c0,0.6-0.9,0.9-2,0.9
			c-2.2,0-13.2-0.2-16.7-0.6c-2.3-0.2-2.8-0.6-2.8-1c0-0.3,0.2-0.7,0.7-0.8c0.6-0.1,0.7-1.6,0.4-3.3l-4.7-47.9h-0.2l-23.6,48.4
			c-2,4.1-2.6,5-3.5,5s-1.4-0.9-3.3-4.3c-2.6-4.7-9-16.8-11.5-22c-2.9-6-10.8-22-12.5-25.9h-0.4l-3.8,42.8c-0.1,1.4-0.1,3.2-0.1,4.8
			c0,1.4,0.9,2.3,2.3,2.7c1.7,0.4,3.1,0.6,3.8,0.6c0.3,0,0.8,0.3,0.8,0.7c0,0.7-0.7,0.9-1.8,0.9c-3.7,0-8.4-0.3-9.1-0.3
			c-0.9,0-5.6,0.3-8.2,0.3c-1,0-1.7-0.2-1.7-0.9c0-0.3,0.4-0.7,1-0.7c0.8,0,1.4-0.1,2.9-0.3c3.2-0.6,3.3-4,3.8-7.6l7.1-61.8
			c0.1-1,0.6-1.7,1.1-1.7c0.7,0,1.4,0.3,2,1.4l29.6,58.8l28.5-58.7c0.4-0.9,0.9-1.6,1.6-1.6c0.7,0,1.2,0.8,1.4,2.6L1587.1,375.7z"/>
		<path class="st0" d="M1616.6,343.7c0-14.7,0-17.4-0.2-20.4c-0.2-3.2-0.8-4.8-4-5.2c-0.8-0.1-2.5-0.2-3.3-0.2
			c-0.3,0-0.8-0.4-0.8-0.8c0-0.6,0.4-0.8,1.6-0.8c4.5,0,10.8,0.2,11.4,0.2c0.7,0,21.2,0.1,23.4,0c1.9-0.1,3.7-0.4,4.5-0.6
			c0.4-0.1,0.9-0.4,1.3-0.4c0.3,0,0.4,0.4,0.4,0.9c0,0.7-0.6,1.8-0.8,4.5c-0.1,0.9-0.3,5.1-0.6,6.2c-0.1,0.4-0.4,1-0.9,1
			c-0.6,0-0.8-0.4-0.8-1.2c0-0.7-0.1-2.2-0.6-3.3c-0.7-1.6-1.7-2.2-7-2.9c-1.7-0.2-13-0.3-14.2-0.3c-0.4,0-0.6,0.3-0.6,1v25.7
			c0,0.7,0,1,0.6,1c1.2,0,14.2,0,16.4-0.2c2.3-0.2,3.8-0.3,4.8-1.3c0.7-0.7,1.1-1.2,1.4-1.2c0.3,0,0.6,0.2,0.6,0.8
			c0,0.6-0.6,2.1-0.8,5.2c-0.2,1.9-0.4,5.5-0.4,6.1c0,0.8-0.2,1.8-0.9,1.8c-0.4,0-0.7-0.3-0.7-0.9c0-0.9,0-1.9-0.4-3.1
			c-0.3-1.3-1.2-2.5-5-2.9c-2.7-0.3-13.1-0.4-14.8-0.4c-0.6,0-0.7,0.3-0.7,0.7v7.9c0,3.2-0.1,14.3,0,16.2c0.2,6.3,2,7.6,11.7,7.6
			c2.6,0,7.2,0,9.8-1c2.6-1.1,3.9-2.8,4.5-6.6c0.2-1.1,0.4-1.4,1-1.4s0.7,0.8,0.7,1.4c0,0.7-0.8,7.1-1.3,9.1
			c-0.7,2.5-1.7,2.5-5.5,2.5c-7.4,0-13-0.2-17-0.3c-4.1-0.2-6.7-0.2-8.1-0.2c-0.2,0-2.1,0-4.2,0.1c-1.9,0.1-4.1,0.2-5.7,0.2
			c-1,0-1.6-0.2-1.6-0.8c0-0.3,0.2-0.8,0.8-0.8c0.9,0,2.1-0.3,3-0.4c1.9-0.3,2.1-2.2,2.6-5c0.6-3.9,0.6-11.4,0.6-20.5V343.7z"/>
		<path class="st0" d="M1682.1,375c0.2,7.8,1.1,10.1,3.8,10.8c1.8,0.4,4,0.6,4.9,0.6c0.4,0,0.8,0.3,0.8,0.8c0,0.6-0.7,0.8-1.8,0.8
			c-5.6,0-9.5-0.3-10.4-0.3c-0.9,0-5,0.3-9.5,0.3c-1,0-1.6-0.1-1.6-0.8c0-0.4,0.3-0.8,0.8-0.8c0.8,0,2.6-0.1,4-0.6
			c2.5-0.7,2.8-3.2,2.8-11.8v-54.3c0-3.8,0.6-4.8,1.3-4.8c1.1,0,2.8,1.9,3.8,2.9c1.6,1.6,15.8,16.7,31,32.3
			c9.7,10,20.2,21.3,23.2,24.4l-1-47.5c-0.1-6.1-0.7-8.2-3.7-8.8c-1.8-0.3-4-0.4-4.8-0.4c-0.7,0-0.8-0.6-0.8-0.9
			c0-0.6,0.8-0.7,1.9-0.7c4.5,0,9.1,0.2,10.2,0.2c1.1,0,4.3-0.2,8.4-0.2c1,0,1.8,0.1,1.8,0.7c0,0.3-0.4,0.9-1.1,0.9
			c-0.4,0-1.2,0-2.3,0.2c-3.2,0.7-3.5,2.6-3.5,8.2l-0.2,55.5c0,6.2-0.1,6.8-0.8,6.8c-1,0-2-0.8-7.5-5.8c-1-0.9-15.2-14.8-25.5-25.6
			c-11.4-11.9-22.4-23.5-25.4-26.9L1682.1,375z"/>
		<path class="st0" d="M1792.2,360.4c0,9.1,0,16.6,0.4,20.5c0.3,2.8,0.8,4.6,3.8,5c1.3,0.2,3.6,0.4,4.5,0.4c0.7,0,0.8,0.4,0.8,0.8
			c0,0.4-0.4,0.8-1.6,0.8c-5.3,0-11.6-0.3-12.1-0.3c-0.4,0-7.2,0.3-10.1,0.3c-1.1,0-1.6-0.2-1.6-0.8c0-0.3,0.2-0.7,0.8-0.7
			c0.9,0,2-0.2,2.9-0.4c2-0.4,2.6-2.3,2.9-5.1c0.4-3.9,0.4-11.4,0.4-20.5v-39.8l-14.2,0.2c-6.1,0.1-8.5,0.8-9.9,3
			c-1.1,1.7-1.2,2.3-1.6,3c-0.2,0.8-0.6,0.9-1,0.9c-0.2,0-0.7-0.2-0.7-0.8c0-1,2-9.5,2.1-10.3c0.2-0.6,0.7-1.8,1-1.8
			c0.7,0,1.7,0.8,4.3,1.1c2.8,0.3,6.6,0.4,7.7,0.4h37c3.2,0,5.5-0.2,7-0.4c1.4-0.2,2.3-0.4,2.8-0.4c0.4,0,0.4,0.6,0.4,1.1
			c0,2.9-0.3,9.7-0.3,10.8c0,0.8-0.4,1.2-0.9,1.2c-0.4,0-0.7-0.3-0.8-1.7l-0.1-1c-0.3-2.9-2.5-5-11.8-5.2l-12.3-0.2V360.4z"/>
	</g>
	<g>
		<path class="st0" d="M652.3,173.1c3.5,0,6.3-2.8,6.3-6.3c0-3.5-2.8-6.3-6.3-6.3c-3.3,0-6.3,2.9-6.3,6.1
			C646,170.4,648.7,173.1,652.3,173.1z"/>
		<path class="st0" d="M671.1,173.1c3.5,0,6.3-2.8,6.3-6.3c0-3.5-2.8-6.3-6.3-6.3c-3.3,0-6.3,2.9-6.3,6.1
			C664.8,170.4,667.5,173.1,671.1,173.1z"/>
		<path class="st0" d="M693.4,188.5l0.3,0.8l0.1,0.1c1.6,1.2,1.6,2.5,1.6,8.1v8.2c0,8.7-0.7,16.5-8.6,16.5h-45
			c-9.4,0-17.2-4.5-20.3-11.7c-3.3-7.6-0.9-16.5,6.7-24.6l0.1-0.1l-1.8-3.8l-0.3,0.3c-15.2,14.4-12.4,27.1-10.5,31.9
			c3.5,8.8,12.6,14.7,22.7,14.7h52.9c9.3,0,14.3-5.9,14.3-16.6v-19.4c0-5.3,0.8-7.9,1.6-9.5l0-1.5l-13.5,6.7L693.4,188.5z"/>
		<path class="st0" d="M891.8,249.7c-3.3,0-6.3,2.9-6.3,6.1c0,3.7,2.7,6.4,6.3,6.4c3.5,0,6.3-2.8,6.3-6.3
			C898.1,252.5,895.2,249.7,891.8,249.7z"/>
		<path class="st0" d="M1018.8,181.3c-25.4,0-38.1,20.2-43.6,33.2l1.7-82.4c0-4.6,0.7-7,1.2-8.6c0.3-0.8,0.4-1.4,0.4-2l0-0.4
			l-13.8,6.8l0.3,0.3c1.6,1.6,1.8,2.5,1.8,8.6v85.3h-17.7h-2.2h-28.6H916h-7c-4.3,0-10.9-4.3-11.4-10.9v-18.5c0-5.3,0.8-7.9,1.6-9.5
			l0-1.5l-13.5,6.7l-0.2,0.1l0.3,0.8l0.1,0.1c1.6,1.2,1.6,2.5,1.6,8.1l0,11.2c0,2.7,0,8.3-3,11.4c-1.4,1.4-3.2,2.1-5.6,2.1h-10.1
			h-2.2h-28.6h-2.2h-28.6h-2.2h-28.6h-2.2h-28.6h-2.2h-8.2c-7.9,0-8.6-7.8-8.6-16.5v-74.6c0-5.3,0.8-7.9,1.6-9.5l0-1.5l-13.5,6.7
			l-0.2,0.1l0.3,0.8l0.1,0.1c1.6,1.2,1.6,2.5,1.6,8.1v76.3c0,10.7,5.1,16.6,14.3,16.6h12.7h2.2h28.6h2.2h28.6h2.2h28.6h2.2h28.6h2.2
			h14.6c6.3,0,10.5-2.6,12.9-7.9c3.2,4.5,7.2,6.2,10.3,7.1c2.3,0.5,4.4,0.8,6.2,0.8h3.3h2.2h28.6h2.2h83.6c9,0,13.6-6.3,13.6-18.6
			C1046.1,196.8,1038.9,181.3,1018.8,181.3z M1035.7,211.4c0,9.7-3.9,10.8-6.8,10.8h-53.6c1.8-4,6.5-13.1,14.1-20.8
			c8.4-8.5,17.7-12.8,27.6-12.8c7.6,0,12.9,2.8,15.9,8.3C1035.4,201.6,1035.7,207.4,1035.7,211.4z"/>
		<path class="st0" d="M1383.1,126.9l0.3,0.8l0.1,0.1c1.6,1.2,1.6,2.5,1.6,8.1v69.8c0,8.7-0.7,16.5-8.6,16.5h-12.3h-2.2h-7
			c-4.3,0-10.9-4.3-11.4-10.9v-80.1c0-5.3,0.8-7.9,1.6-9.5l0-1.5l-13.7,6.8l0.3,0.8l0.1,0.1c1.6,1.2,1.6,2.5,1.6,8.1v72.8
			c0,2.7,0,8.3-3,11.4c-1.4,1.4-3.2,2.1-5.6,2.1h-10.1h-2.2h-28.6h-2.2h-28.6h-2.2h-28.6h-2.2h-28.6h-2.2h-6.5c-7.4,0-9-6.9-9-9.5
			v-5.8c0-12-7-17.8-21.3-17.8c-15.4,0-26.8,9.9-27.6,24c0,0.1-0.2,9.2-8.6,9.2h-5.6h-2.2h-7c-4.3,0-10.6-3.6-11.4-10.3v-16.4
			c0-4.5,1.4-12.4,1.9-13.1l0.3-0.4H1078l0.3,0.4c0.4,0.7,1.9,8.7,1.9,13.1V239c-0.1,3-0.9,5.8-2.2,8.4c-3.1,5.5-8.2,8.2-15.7,8.2
			c-3,0-7.4-0.5-11.5-3.1l-0.5-0.3l0.2,4.6l0.1,0.1c6.7,4.1,10.3,5.3,16.7,5.3c12.9,0,23-9.6,23-21.8v-17.7c3.1,3.4,6.6,4.7,9.4,5.4
			c1.7,0.4,3.6,0.6,5.6,0.6h3.3h2.2h7.9c3.5,0,6.4-0.9,9.1-2.8c3.6,7.3,12.3,11.7,18.7,11.7c11.1,0,19.2-4.5,23.5-13.1
			c2.8,2.8,6.1,4.2,10,4.2h9.3h2.2h28.6h2.2h28.6h2.2h28.6h2.2h28.6h2.2h14.6c6.3,0,10.5-2.6,12.9-7.9c3.2,4.5,7.2,6.2,10.3,7.1
			c2.3,0.5,4.4,0.8,6.2,0.8h3.3h2.2h16.8c9.3,0,14.3-5.9,14.3-16.6v-81c0-5.3,0.8-7.9,1.6-9.5l0-1.5l-13.5,6.7L1383.1,126.9z
			 M1152.5,192.9c10.5,0,10.7,9.7,11,20c0,1.3,0.1,2.6,0.1,3.9c0.2,5.9-0.9,10.2-3.3,12.6c-1.8,1.8-4.3,2.7-7.4,2.7
			c-9.1,0-17.1-9.8-17.1-21C1135.8,201.2,1143.4,192.9,1152.5,192.9z"/>
		<path class="st0" d="M1463.5,278.9c-3.2,0-6,2.9-6,6.3c0,3.6,2.7,6.4,6,6.4c3.4,0,6.3-3,6.3-6.4
			C1469.8,281.9,1466.8,278.9,1463.5,278.9z"/>
		<path class="st0" d="M1482.3,278.9c-3.3,0-6.3,3-6.3,6.3c0,3.7,2.7,6.4,6.3,6.4c3.3,0,6-2.9,6-6.4
			C1488.3,281.8,1485.6,278.9,1482.3,278.9z"/>
		<path class="st0" d="M1760.1,188.5l0.3,0.8l0.1,0.1c1.6,1.2,1.6,2.5,1.6,8.1v8.2c0,8.7-0.7,16.5-8.6,16.5h-12.3h-2.2h-28.6h-2.2
			h-28.6h-2.2h-28.6h-2.2H1618h-2.2h-28.6h-2.2h-28.6h-2.2h-28.6h-2.2h-10.2c-3-7.3-12.1-12.8-20.8-17.2l-0.4-0.2v6.6l0.2,0.1
			c7.5,3.9,12.2,9.6,13.2,15.9c1,6-1.5,12.3-7.1,18.1c-6.5,6.9-12.6,7.8-18.1,7.8c-13.9,0-25.3-8.9-31.3-17.2
			c-3.7-5.1-5.4-9.9-4.5-12.7c1.1-2.6,2.4-4.3,7-6.8l0.2-0.1l-1.4-2.5l-0.2,0.1c-8,3.6-13,8.1-14.1,12.8c-0.8,3.8,1.9,10.1,7,16.3
			c7.6,9.2,21.3,19.1,37.2,19.1c7.9,0,17.8-8.7,23-13.8c4.1-4.3,10.9-12.5,11.3-19.7h9.1h2.2h28.6h2.2h28.6h2.2h28.6h2.2h28.6h2.2
			h28.6h2.2h28.6h2.2h28.6h2.2h16.8c9.3,0,14.3-5.9,14.3-16.6v-19.4c0-5.3,0.8-7.9,1.6-9.5l0-1.5l-13.5,6.7L1760.1,188.5z"/>
		<path class="st0" d="M1756.8,249.7c-3.4,0-6.3,2.9-6.3,6.1c0,3.7,2.7,6.4,6.3,6.4c3.5,0,6.3-2.8,6.3-6.3
			C1763.1,252.5,1760.3,249.7,1756.8,249.7z"/>
		<path class="st0" d="M1801.1,181.9c-8.1,0-14.6,3.1-16.8,8.1l-0.1,0.2l0.2,0.1c1.6,1,2.4,1.5,3.2,1.9c0.6,0.3,1.2,0.7,2.1,1.2
			l0.4,0.2l0.1-0.4c0.9-4.7,3.7-7.1,8.7-7.1c0.3,0,0.6,0,1,0c4.4,0.1,8.4,1.5,8.4,10.3v25.6h-24.4l-2.8,6.6h37.4v-29.2
			C1818.4,188.4,1815.6,181.9,1801.1,181.9z"/>
	</g>
</g>
<linearGradient id="SVGID_1_" gradientUnits="userSpaceOnUse" x1="50.5518" y1="172.4119" x2="53.4479" y2="270.8812" gradientTransform="matrix(4.3182 -0.6311 0.6251 4.2772 -110.7715 -675.0058)">
	<stop  offset="0" style="stop-color:#005CB9"/>
	<stop  offset="9.080362e-02" style="stop-color:#1778C7"/>
	<stop  offset="0.25" style="stop-color:#47B0E4"/>
	<stop  offset="0.273" style="stop-color:#4EB3DB"/>
	<stop  offset="0.3106" style="stop-color:#62BAC3"/>
	<stop  offset="0.3581" style="stop-color:#82C59B"/>
	<stop  offset="0.4137" style="stop-color:#AFD564"/>
	<stop  offset="0.4752" style="stop-color:#E7E81E"/>
	<stop  offset="0.5" style="stop-color:#FFF100"/>
	<stop  offset="0.5239" style="stop-color:#FEEB01"/>
	<stop  offset="0.5547" style="stop-color:#FDDB04"/>
	<stop  offset="0.5894" style="stop-color:#FBC108"/>
	<stop  offset="0.6268" style="stop-color:#F79B0F"/>
	<stop  offset="0.6666" style="stop-color:#F36C17"/>
	<stop  offset="0.7075" style="stop-color:#EE3221"/>
	<stop  offset="0.7398" style="stop-color:#EA0029"/>
	<stop  offset="0.7796" style="stop-color:#E50632"/>
	<stop  offset="0.8445" style="stop-color:#D8174B"/>
	<stop  offset="0.9259" style="stop-color:#C43172"/>
	<stop  offset="1" style="stop-color:#AE4E9C"/>
</linearGradient>
<path class="st1" d="M49.5,169.5c-19.6,55.4-18.3,117.5,6,171c23.6,53.5,70,98,127.6,118.6c0.1-0.2,0.3-0.4,0.8-0.6
	c2.5-0.5,7.8,1.2,12.3,2.6c12.9,4.5,26.1,7.8,39.6,10c25.3,2.7,51.1,0.3,75.5-6.2c-19.5,5.6-39.9,6.8-59.8,6.4
	c-6-0.3-10.6-1.7-9.9-3c0.7-1.3,6-2.2,12.1-1.8c53.7,1.6,110.1-23.5,148.2-52.7c44.9-42.6,67.6-103.8,63.1-161.2
	c-4-57.6-33.7-109.3-75.3-140.3c-1.8-1.2-3.5-2.8-4-3.8c-0.8-1.3-0.1-1.5,1.5-0.5c45.4,29.6,82.2,86.2,84.4,152.2
	c4.1,65.5-28.2,136.6-87.2,178.9c-6.7,5.7-14.8,9.5-22,14.2c23.1-10.4,44.4-25.9,63.4-45c1.2-2.6,3.7-6.2,7-10.4
	c7.2-10.3,14.3-20.6,19.9-31.8c-0.5,0.3-1,0.4-1.2,0.3c-1.1-0.7,0.6-4.9,3.1-9.9c14-27.7,21.8-58.2,23.4-89.2l0.1-2.1
	c2.1-77.2-39.9-151.3-104-190.9c-63.7-40.1-147.8-44.6-214.4-10.7c-1.7,1.2-4.6,2.5-6.1,2.6c-1.8,0.4-1.8-0.2-0.1-1.5
	c-0.3-0.4-1.1-0.8-0.5-1.1c46.8-29.4,106-42.6,167.2-26c21.2,5.4,40.9,15.1,59.5,26c-18.4-12.7-37-24.1-55.3-31.9
	c-56.1-16.6-117-10.4-169,10l2.4-0.3c-4.5,2.1-9.1,3.4-9.6,2.5c-1-0.7,2.4-3.2,7.1-5.5c47.5-23.8,104.9-32.3,159.2-19.5
	c54.2,12.2,104.8,43.6,139.1,88.8c72.2,89,67.3,230.5-12.8,317.2C379.6,495.5,277.5,526.1,188,501c-13.4-3.3-23.1-9.7-21.9-11.7
	c1.3-2.6,12.2-0.1,25.2,2.7c85.3,22.7,180.1-6.9,238.5-71.5c25.8-28.2,44.8-62.1,55-98.2c-8.6,28.1-23.2,54.3-41.9,76.4
	c-25.8,35.8-63.5,64.7-107.1,79.8c-105,37.3-220.3-4.4-284.4-94c-30.9-44-46.6-91.1-49.3-138.8c-2.8-47.5,7.5-97.7,37.5-143.6
	c2.5-4,6-8.2,7.9-9.1c2-1,1.3,1.2-1.1,5.3c-57.1,88.5-52.2,196.3,6.4,279.6c61.7,88.1,177.2,130.8,281.7,93.5
	c7.1-2.1,13.7-5.4,20.4-8.4c-22.3,9.3-45.8,14.4-68.9,15.7c-89.9,12.9-180.3-33.3-225.5-109.4c-36.1-58.2-45.2-131.8-19.8-197.2
	c3.4-8.1,8-15.2,10.3-15.8C53.4,155.5,52.7,161.6,49.5,169.5z M463.1,147.3c8.3,13.8,15.4,28.5,20.3,44
	C465.8,129.8,421.6,77,364.2,47.8C404.8,71.2,440.6,106.3,463.1,147.3z"/>
<linearGradient id="SVGID_2_" gradientUnits="userSpaceOnUse" x1="190.9163" y1="31.8325" x2="201.4915" y2="391.3865" gradientTransform="matrix(-0.6382 0.7699 -0.7699 -0.6382 551.5884 249.277)">
	<stop  offset="0" style="stop-color:#005CB9"/>
	<stop  offset="9.080362e-02" style="stop-color:#1778C7"/>
	<stop  offset="0.25" style="stop-color:#47B0E4"/>
	<stop  offset="0.273" style="stop-color:#4EB3DB"/>
	<stop  offset="0.3106" style="stop-color:#62BAC3"/>
	<stop  offset="0.3581" style="stop-color:#82C59B"/>
	<stop  offset="0.4137" style="stop-color:#AFD564"/>
	<stop  offset="0.4752" style="stop-color:#E7E81E"/>
	<stop  offset="0.5" style="stop-color:#FFF100"/>
	<stop  offset="0.5239" style="stop-color:#FEEB01"/>
	<stop  offset="0.5547" style="stop-color:#FDDB04"/>
	<stop  offset="0.5894" style="stop-color:#FBC108"/>
	<stop  offset="0.6268" style="stop-color:#F79B0F"/>
	<stop  offset="0.6666" style="stop-color:#F36C17"/>
	<stop  offset="0.7075" style="stop-color:#EE3221"/>
	<stop  offset="0.7398" style="stop-color:#EA0029"/>
	<stop  offset="0.7796" style="stop-color:#E50632"/>
	<stop  offset="0.8445" style="stop-color:#D8174B"/>
	<stop  offset="0.9259" style="stop-color:#C43172"/>
	<stop  offset="1" style="stop-color:#AE4E9C"/>
</linearGradient>
<path class="st2" d="M418.2,171.1c-25.4-42.4-66.3-75-114-88c-47.3-13.4-101.2-7.3-145.4,19c0.1,0.2,0.1,0.4-0.1,0.8
	c-1,1.9-5,4.4-8.3,6.6c-9.8,5.9-19.1,12.7-27.8,20.2C107.2,144.7,95,162.7,86,182c6.9-15.6,17.1-29.5,27.9-42.2
	c3.4-3.7,6.8-5.9,7.3-4.8c0.4,1.2-1.8,5.1-5.4,8.8c-29.8,33.9-43.9,84-45.5,124.4c3.5,52,31,99.6,70.6,127.5
	c39.5,28.4,89,36.9,131.4,26.6c1.7-0.5,3.7-0.8,4.6-0.5c1.3,0.2,1,0.7-0.5,1.2c-43.6,13.5-100.1,6.9-144-27.1
	c-44.7-32.5-73.4-91.7-69.1-152.7c-0.1-7.4,1.8-14.7,2.6-21.9c-5.7,20.6-7.1,42.7-4.9,65.3c1.1,2.2,2,5.8,3,10.1
	c2.9,10.2,5.6,20.3,9.9,30c0.1-0.5,0.3-0.8,0.5-0.9c1-0.3,2.8,3,4.7,7.3c10.4,24,26,45.4,45.3,63.1l1.3,1.2
	c48.9,42.8,119.5,55.4,179.6,35.2c60.2-19.7,108.3-71.9,122.2-133.2c0.1-1.7,0.9-4.3,1.6-5.4c0.7-1.4,1.1-1,1,0.7
	c0.4,0,1.1-0.3,1,0.3c-6.1,46.2-29.3,91.6-73,122.4c-14.9,10.8-31.8,18.4-48.8,24.6c18.1-5.1,35.5-11,50.4-18.7
	c40.9-27.4,69.6-70.2,84.3-114.9l-1.1,1.7c1.1-4,2.7-7.7,3.5-7.6c0.9-0.3,0.8,3.2-0.2,7.5c-10.1,43.6-35.4,85.4-72.9,113.7
	c-37,28.6-84.6,44.5-132.3,42.4c-96.5-1-185.6-80.2-198.7-178.7c-12.8-77.4,22.3-160,86.6-204.5c9.4-6.9,18.7-9.7,19.4-7.9
	c1,2.2-6.5,7.9-15.3,14.8c-60.6,43.1-92.3,120.4-81.8,193c4.4,31.9,16.2,62.4,34.1,88.4c-13.7-20.7-22.7-44.2-27-68.2
	c-9.3-36-7.8-75.9,5.8-112.3C96.3,102.6,185.3,50.3,277.8,56.9c45.1,3.6,84,18.7,116.5,42.6c32.3,23.7,59.2,57.4,72.9,101.5
	c1.2,3.8,2,8.3,1.7,10c-0.4,1.8-1.5,0.2-2.8-3.6C439.4,122.9,367,68.2,281.4,61.4C191.2,54,101.4,106,69.5,193.8
	c-2.5,5.7-3.9,11.8-5.5,17.7c5.9-19.4,15.3-37.4,26.8-53.1c39.9-65.2,118.5-99,192.1-87.4c57.1,7.9,109.7,41.5,138.4,93.1
	c3.4,6.6,5.5,13.4,4.7,15.2C425.2,181.2,421.6,177.5,418.2,171.1z M210.3,451.1c-13.4-2-26.7-5.4-39.4-10.4
	c49.4,21.6,107.4,21.4,157.1-0.2C291,454.2,249,458.5,210.3,451.1z"/>
<linearGradient id="SVGID_3_" gradientUnits="userSpaceOnUse" x1="60.8825" y1="172.1147" x2="63.7942" y2="271.1116" gradientTransform="matrix(4.3182 -0.6311 0.6251 4.2772 -110.7715 -675.0058)">
	<stop  offset="0" style="stop-color:#005CB9"/>
	<stop  offset="9.080362e-02" style="stop-color:#1778C7"/>
	<stop  offset="0.25" style="stop-color:#47B0E4"/>
	<stop  offset="0.273" style="stop-color:#4EB3DB"/>
	<stop  offset="0.3106" style="stop-color:#62BAC3"/>
	<stop  offset="0.3581" style="stop-color:#82C59B"/>
	<stop  offset="0.4137" style="stop-color:#AFD564"/>
	<stop  offset="0.4752" style="stop-color:#E7E81E"/>
	<stop  offset="0.5" style="stop-color:#FFF100"/>
	<stop  offset="0.5239" style="stop-color:#FEEB01"/>
	<stop  offset="0.5547" style="stop-color:#FDDB04"/>
	<stop  offset="0.5894" style="stop-color:#FBC108"/>
	<stop  offset="0.6268" style="stop-color:#F79B0F"/>
	<stop  offset="0.6666" style="stop-color:#F36C17"/>
	<stop  offset="0.7075" style="stop-color:#EE3221"/>
	<stop  offset="0.7398" style="stop-color:#EA0029"/>
	<stop  offset="0.7796" style="stop-color:#E50632"/>
	<stop  offset="0.8445" style="stop-color:#D8174B"/>
	<stop  offset="0.9259" style="stop-color:#C43172"/>
	<stop  offset="1" style="stop-color:#AE4E9C"/>
</linearGradient>
<path class="st3" d="M413.3,64.7c61.3,49.4,94.6,127.8,93.1,204.3c-2.4,36.7-12.1,72.9-28.9,105.6c-2.6,4.6-4.1,8.6-3.2,9.1
	c0.9,0.5,3.7-2.8,6.4-7.5c8.6-16.7,16-34,21-52.1c0.2,0.6,0.5,0.9,0.9,0.9c-16.5,64.2-59.7,121.3-117.3,155.8
	c-3.2,1.9-5.4,3.9-5.1,4.4c0.3,0.5,3.2-0.6,6.4-2.5c60.9-35.8,105-97,119.7-164.4c0.9-2.4,1.6-5.2,2.2-8.3
	c10.4-57.1,1.9-115.6-25.4-166.6C445.4,70.5,375.6,16.9,294.2,3.6c-32.1-5.1-64.5-2.5-96.3,4.5c-26.6,5.8-53.5,15.6-74.2,29.5
	c-28.4,19.5-48.5,42.8-63.4,67.1c-1,1.6-0.6,2,0.3,1c0.9-0.4,2.5-2.2,3.3-3.4c14.8-24.5,37.9-47.6,62.5-65.3
	C177.9,8.3,237.7-2.6,295.7,5C340.4,14.8,378.2,36.1,413.3,64.7z"/>
<linearGradient id="SVGID_4_" gradientUnits="userSpaceOnUse" x1="2411.7441" y1="895.7631" x2="2464.1838" y2="895.7631" gradientTransform="matrix(-0.7771 0.6294 -0.6294 -0.7771 2476.3174 -541.8335)">
	<stop  offset="0" style="stop-color:#005CB9"/>
	<stop  offset="9.080362e-02" style="stop-color:#1778C7"/>
	<stop  offset="0.25" style="stop-color:#47B0E4"/>
	<stop  offset="0.273" style="stop-color:#4EB3DB"/>
	<stop  offset="0.3106" style="stop-color:#62BAC3"/>
	<stop  offset="0.3581" style="stop-color:#82C59B"/>
	<stop  offset="0.4137" style="stop-color:#AFD564"/>
	<stop  offset="0.4752" style="stop-color:#E7E81E"/>
	<stop  offset="0.5" style="stop-color:#FFF100"/>
	<stop  offset="0.5239" style="stop-color:#FEEB01"/>
	<stop  offset="0.5547" style="stop-color:#FDDB04"/>
	<stop  offset="0.5894" style="stop-color:#FBC108"/>
	<stop  offset="0.6268" style="stop-color:#F79B0F"/>
	<stop  offset="0.6666" style="stop-color:#F36C17"/>
	<stop  offset="0.7075" style="stop-color:#EE3221"/>
	<stop  offset="0.7398" style="stop-color:#EA0029"/>
	<stop  offset="0.7796" style="stop-color:#E50632"/>
	<stop  offset="0.8445" style="stop-color:#D8174B"/>
	<stop  offset="0.9259" style="stop-color:#C43172"/>
	<stop  offset="1" style="stop-color:#AE4E9C"/>
</linearGradient>
<path class="st4" d="M28.5,348.8C14.9,315.1,9,277.4,7.4,243.3c-0.1-1.6-0.4-2.6-0.8-1.8c-0.4,0.8-0.6,2.8-0.5,4.7
	C8,279,14,315.7,26.9,348.4c0.9,1.9,1.9,3.4,2.3,3.4C29.6,351.9,29.2,350.4,28.5,348.8z"/>
<linearGradient id="SVGID_5_" gradientUnits="userSpaceOnUse" x1="1980.8212" y1="823.4331" x2="2401.6177" y2="823.4331" gradientTransform="matrix(-0.7771 0.6294 -0.6294 -0.7771 2476.3174 -541.8335)">
	<stop  offset="0" style="stop-color:#005CB9"/>
	<stop  offset="9.080362e-02" style="stop-color:#1778C7"/>
	<stop  offset="0.25" style="stop-color:#47B0E4"/>
	<stop  offset="0.273" style="stop-color:#4EB3DB"/>
	<stop  offset="0.3106" style="stop-color:#62BAC3"/>
	<stop  offset="0.3581" style="stop-color:#82C59B"/>
	<stop  offset="0.4137" style="stop-color:#AFD564"/>
	<stop  offset="0.4752" style="stop-color:#E7E81E"/>
	<stop  offset="0.5" style="stop-color:#FFF100"/>
	<stop  offset="0.5239" style="stop-color:#FEEB01"/>
	<stop  offset="0.5547" style="stop-color:#FDDB04"/>
	<stop  offset="0.5894" style="stop-color:#FBC108"/>
	<stop  offset="0.6268" style="stop-color:#F79B0F"/>
	<stop  offset="0.6666" style="stop-color:#F36C17"/>
	<stop  offset="0.7075" style="stop-color:#EE3221"/>
	<stop  offset="0.7398" style="stop-color:#EA0029"/>
	<stop  offset="0.7796" style="stop-color:#E50632"/>
	<stop  offset="0.8445" style="stop-color:#D8174B"/>
	<stop  offset="0.9259" style="stop-color:#C43172"/>
	<stop  offset="1" style="stop-color:#AE4E9C"/>
</linearGradient>
<path class="st5" d="M7,218.8c3.7-56.8,30.9-115.6,77.8-156.7c46.1-41,110.2-63.9,173.7-60C362.4,7.8,450.7,78.5,484.2,174
	c11.4,31.5,16.1,64.8,16.7,95.8c0,2.6,0.5,4.1,1,3.2c0.7-1.1,0.9-4,0.9-6.9c-0.3-65.4-23.7-130.8-67.9-180.7
	C391.3,35.3,326.3,2.9,259.1,0c-64-3.4-129,19.8-175.9,61.8c-47.6,41.8-75,102.1-77.8,159.9c-0.1,1.6,0.2,2.4,0.6,1.8
	C6.4,222.5,6.9,220.3,7,218.8z"/>
<linearGradient id="SVGID_6_" gradientUnits="userSpaceOnUse" x1="1984.6472" y1="911.7628" x2="2342.6401" y2="911.7628" gradientTransform="matrix(-0.7771 0.6294 -0.6294 -0.7771 2476.3174 -541.8335)">
	<stop  offset="0" style="stop-color:#005CB9"/>
	<stop  offset="9.080362e-02" style="stop-color:#1778C7"/>
	<stop  offset="0.25" style="stop-color:#47B0E4"/>
	<stop  offset="0.273" style="stop-color:#4EB3DB"/>
	<stop  offset="0.3106" style="stop-color:#62BAC3"/>
	<stop  offset="0.3581" style="stop-color:#82C59B"/>
	<stop  offset="0.4137" style="stop-color:#AFD564"/>
	<stop  offset="0.4752" style="stop-color:#E7E81E"/>
	<stop  offset="0.5" style="stop-color:#FFF100"/>
	<stop  offset="0.5239" style="stop-color:#FEEB01"/>
	<stop  offset="0.5547" style="stop-color:#FDDB04"/>
	<stop  offset="0.5894" style="stop-color:#FBC108"/>
	<stop  offset="0.6268" style="stop-color:#F79B0F"/>
	<stop  offset="0.6666" style="stop-color:#F36C17"/>
	<stop  offset="0.7075" style="stop-color:#EE3221"/>
	<stop  offset="0.7398" style="stop-color:#EA0029"/>
	<stop  offset="0.7796" style="stop-color:#E50632"/>
	<stop  offset="0.8445" style="stop-color:#D8174B"/>
	<stop  offset="0.9259" style="stop-color:#C43172"/>
	<stop  offset="1" style="stop-color:#AE4E9C"/>
</linearGradient>
<path class="st6" d="M432.1,87.7C383.2,35.4,313.5,5.6,240.5,5.7c-39.3,0.1-78.5,9.8-113,31.4c-46,29.5-76.8,67.4-99.7,114.9
	c-0.8,1.6-1.3,3.2-1.1,3.7c0.3,0.3,1.1-0.7,1.9-2.2c24.8-51.2,61.8-93.9,113.1-120.6c97.3-51.2,218.1-20.9,289.7,56
	c1.5,1.6,2.8,2.4,3.1,2.3C434.6,90.8,433.6,89.2,432.1,87.7z"/>
<linearGradient id="SVGID_7_" gradientUnits="userSpaceOnUse" x1="2173.8379" y1="953.548" x2="2352.7214" y2="953.548" gradientTransform="matrix(-0.7771 0.6294 -0.6294 -0.7771 2476.3174 -541.8335)">
	<stop  offset="0" style="stop-color:#005CB9"/>
	<stop  offset="9.080362e-02" style="stop-color:#1778C7"/>
	<stop  offset="0.25" style="stop-color:#47B0E4"/>
	<stop  offset="0.273" style="stop-color:#4EB3DB"/>
	<stop  offset="0.3106" style="stop-color:#62BAC3"/>
	<stop  offset="0.3581" style="stop-color:#82C59B"/>
	<stop  offset="0.4137" style="stop-color:#AFD564"/>
	<stop  offset="0.4752" style="stop-color:#E7E81E"/>
	<stop  offset="0.5" style="stop-color:#FFF100"/>
	<stop  offset="0.5239" style="stop-color:#FEEB01"/>
	<stop  offset="0.5547" style="stop-color:#FDDB04"/>
	<stop  offset="0.5894" style="stop-color:#FBC108"/>
	<stop  offset="0.6268" style="stop-color:#F79B0F"/>
	<stop  offset="0.6666" style="stop-color:#F36C17"/>
	<stop  offset="0.7075" style="stop-color:#EE3221"/>
	<stop  offset="0.7398" style="stop-color:#EA0029"/>
	<stop  offset="0.7796" style="stop-color:#E50632"/>
	<stop  offset="0.8445" style="stop-color:#D8174B"/>
	<stop  offset="0.9259" style="stop-color:#C43172"/>
	<stop  offset="1" style="stop-color:#AE4E9C"/>
</linearGradient>
<path class="st7" d="M172,74.1c-29.6,12.1-57.3,32.7-76.7,58.6c-19.1,26.1-29.8,56.7-31.3,84.2c-0.1,1.4,0.3,1.7,0.8,0.9
	c0.5-0.9,1.1-2.7,1.2-4.1c2-26.8,13.1-56.3,32.2-80.9c19.2-24.6,45.9-44.1,74-55.9c2.6-1.4,4.9-2.4,5-3.1
	C177.1,72.9,174.8,72.8,172,74.1z"/>
<linearGradient id="SVGID_8_" gradientUnits="userSpaceOnUse" x1="2102.48" y1="794.0382" x2="2469.5332" y2="794.0382" gradientTransform="matrix(-0.7771 0.6294 -0.6294 -0.7771 2476.3174 -541.8335)">
	<stop  offset="0" style="stop-color:#005CB9"/>
	<stop  offset="9.080362e-02" style="stop-color:#1778C7"/>
	<stop  offset="0.25" style="stop-color:#47B0E4"/>
	<stop  offset="0.273" style="stop-color:#4EB3DB"/>
	<stop  offset="0.3106" style="stop-color:#62BAC3"/>
	<stop  offset="0.3581" style="stop-color:#82C59B"/>
	<stop  offset="0.4137" style="stop-color:#AFD564"/>
	<stop  offset="0.4752" style="stop-color:#E7E81E"/>
	<stop  offset="0.5" style="stop-color:#FFF100"/>
	<stop  offset="0.5239" style="stop-color:#FEEB01"/>
	<stop  offset="0.5547" style="stop-color:#FDDB04"/>
	<stop  offset="0.5894" style="stop-color:#FBC108"/>
	<stop  offset="0.6268" style="stop-color:#F79B0F"/>
	<stop  offset="0.6666" style="stop-color:#F36C17"/>
	<stop  offset="0.7075" style="stop-color:#EE3221"/>
	<stop  offset="0.7398" style="stop-color:#EA0029"/>
	<stop  offset="0.7796" style="stop-color:#E50632"/>
	<stop  offset="0.8445" style="stop-color:#D8174B"/>
	<stop  offset="0.9259" style="stop-color:#C43172"/>
	<stop  offset="1" style="stop-color:#AE4E9C"/>
</linearGradient>
<path class="st8" d="M43,361.6c-34.4-64-34.9-143-6.6-208c14.9-30.7,36.1-58.1,61.9-80.3c3.9-3,6.6-6,6-6.7
	c-0.5-0.7-4.2,1.1-8.1,4.2C82.8,81.9,70.5,94.2,59.8,108c0.1-0.7-0.1-1-0.4-1c36.8-49.2,93.6-82.9,154.8-92.1c3.4-0.5,5.9-1.4,5.7-2
	c-0.1-0.6-2.8-0.7-6.3-0.2c-64.2,9.1-123.4,46.1-159.7,98.7c-1.6,1.7-3.2,4-4.8,6.3c-29,45.1-42.6,98.4-37.5,151.8
	c6.2,75.8,46.5,146.3,110.8,186.5c25.4,15.7,53.8,24.9,83.3,30.2c24.6,4.5,50.9,5.6,73.3,0.9c30.9-6.6,56.4-19.5,77.7-35.2
	c1.3-0.9,1.2-1.4,0-1c-1,0.1-3,1-4,1.8c-21.2,15.7-49.1,27.4-76.1,34c-53.8,6.4-108.4-5.5-154.9-32.4
	C87.2,430.1,62.7,398.5,43,361.6z"/>
<linearGradient id="SVGID_9_" gradientUnits="userSpaceOnUse" x1="2000.5112" y1="780.1721" x2="2460.9978" y2="780.1721" gradientTransform="matrix(-0.7771 0.6294 -0.6294 -0.7771 2476.3174 -541.8335)">
	<stop  offset="0" style="stop-color:#005CB9"/>
	<stop  offset="9.080362e-02" style="stop-color:#1778C7"/>
	<stop  offset="0.25" style="stop-color:#47B0E4"/>
	<stop  offset="0.273" style="stop-color:#4EB3DB"/>
	<stop  offset="0.3106" style="stop-color:#62BAC3"/>
	<stop  offset="0.3581" style="stop-color:#82C59B"/>
	<stop  offset="0.4137" style="stop-color:#AFD564"/>
	<stop  offset="0.4752" style="stop-color:#E7E81E"/>
	<stop  offset="0.5" style="stop-color:#FFF100"/>
	<stop  offset="0.5239" style="stop-color:#FEEB01"/>
	<stop  offset="0.5547" style="stop-color:#FDDB04"/>
	<stop  offset="0.5894" style="stop-color:#FBC108"/>
	<stop  offset="0.6268" style="stop-color:#F79B0F"/>
	<stop  offset="0.6666" style="stop-color:#F36C17"/>
	<stop  offset="0.7075" style="stop-color:#EE3221"/>
	<stop  offset="0.7398" style="stop-color:#EA0029"/>
	<stop  offset="0.7796" style="stop-color:#E50632"/>
	<stop  offset="0.8445" style="stop-color:#D8174B"/>
	<stop  offset="0.9259" style="stop-color:#C43172"/>
	<stop  offset="1" style="stop-color:#AE4E9C"/>
</linearGradient>
<path class="st9" d="M391.1,400.2c36.4-40.8,57.4-94.8,55.7-149.5c-1-54.5-24.8-109.3-66.6-147.6c-0.1,0.1-0.4,0.3-0.9,0.2
	c-2.2-0.4-6.1-3.8-9.6-6.5c-9.4-8.5-19.4-16-30.1-22.7C319,62.6,296.1,55.5,273,52.6c18.7,2.1,36.4,8.3,53.3,15.7
	c5,2.4,8.5,5.2,7.3,6.1c-1,0.9-5.9-0.2-10.8-2.7c-45.4-20.4-102.4-18.8-145.3-7.2C124,85.2,82.7,129.9,66.2,180.8
	C49,231.9,56.1,287,80.6,328.6c1.1,1.6,1.9,3.7,2,4.6c0.2,1.4-0.5,1.3-1.5-0.2c-28.2-41.6-39.3-103.6-17.7-161.1
	C83.1,114.1,136,64.2,201.4,48.8c7.7-2.6,16-2.9,23.9-4.4c-23.4,0.7-47.1,6.4-70.1,16.2c-1.9,1.9-5.5,4-9.7,6.4
	c-9.8,6.4-19.5,12.6-28.3,20.4c0.6-0.1,1-0.1,1.2,0.2c0.6,1-2.4,4-6.3,7.3c-21.8,19-39.2,42.5-51.7,68.6l-0.8,1.8
	c-29.3,65.8-19.8,144.6,20.7,201.5c40.1,57.1,110.3,90.8,179.1,85.4c1.9-0.4,4.8-0.6,6.2-0.2c1.6,0.3,1.4,0.9-0.4,1.4
	c0.1,0.4,0.7,0.9,0,1c-50.5,8.8-105.6-0.9-151.9-37C97.2,405.3,83.9,390,71.8,374c11.3,17.4,23,34,36,47.2
	c41.8,34.3,96,50.5,147.7,51.5l-2.2-0.7c4.7-0.2,8.8,0.3,9.1,1.3c0.6,0.9-3.2,1.9-8,2.3c-49,3.6-101.2-9.5-142.8-39.8
	C69.7,406,37.8,360.9,24.6,309.8C-5.3,207.4,49.2,87.2,148.4,41c77.2-39,175.1-29.1,242.5,24.3c10.3,7.5,16.2,16.5,14.5,17.9
	c-2.1,1.8-10.5-4.2-20.5-11.3C320.3,22,228.9,13.8,156,48.7C124,64,95.9,86.4,74.1,113.9c17.4-21.2,39.2-38.4,62.9-51
	c34.8-21.7,77.3-33.1,119.8-30.7c102.9,5.1,186.5,81.9,209.1,182c10.7,48.8,7.4,95-7.3,137.1c-14.5,42-41.2,81.5-83.2,110.5
	c-3.6,2.6-7.9,4.9-9.8,5.1c-2.1,0.2-0.7-1.6,2.8-4.2c80.2-56,114.4-150.7,94.1-243.2C441.1,121.6,357.8,43.8,255.4,38.9
	c-6.8-0.6-13.6-0.2-20.4,0.1c22.4-0.2,44.2,3.8,64.4,10.9c81.3,20.7,141.9,92.6,153.3,174.4c10,63-8.3,129.7-53.3,176.8
	c-5.8,5.9-12.3,10.3-14.5,10.1C382.7,410.8,385.5,405.8,391.1,400.2z M30.4,272.4c-2.2-14.7-3-30-1.8-45.2
	c-6.8,59.2,12.1,120.6,50.7,166C53,358.7,34.9,315.8,30.4,272.4z"/>
<linearGradient id="SVGID_10_" gradientUnits="userSpaceOnUse" x1="2346.2322" y1="858.0656" x2="2380.3396" y2="858.0656" gradientTransform="matrix(-0.7771 0.6294 -0.6294 -0.7771 2476.3174 -541.8335)">
	<stop  offset="0" style="stop-color:#005CB9"/>
	<stop  offset="9.080362e-02" style="stop-color:#1778C7"/>
	<stop  offset="0.25" style="stop-color:#47B0E4"/>
	<stop  offset="0.273" style="stop-color:#4EB3DB"/>
	<stop  offset="0.3106" style="stop-color:#62BAC3"/>
	<stop  offset="0.3581" style="stop-color:#82C59B"/>
	<stop  offset="0.4137" style="stop-color:#AFD564"/>
	<stop  offset="0.4752" style="stop-color:#E7E81E"/>
	<stop  offset="0.5" style="stop-color:#FFF100"/>
	<stop  offset="0.5239" style="stop-color:#FEEB01"/>
	<stop  offset="0.5547" style="stop-color:#FDDB04"/>
	<stop  offset="0.5894" style="stop-color:#FBC108"/>
	<stop  offset="0.6268" style="stop-color:#F79B0F"/>
	<stop  offset="0.6666" style="stop-color:#F36C17"/>
	<stop  offset="0.7075" style="stop-color:#EE3221"/>
	<stop  offset="0.7398" style="stop-color:#EA0029"/>
	<stop  offset="0.7796" style="stop-color:#E50632"/>
	<stop  offset="0.8445" style="stop-color:#D8174B"/>
	<stop  offset="0.9259" style="stop-color:#C43172"/>
	<stop  offset="1" style="stop-color:#AE4E9C"/>
</linearGradient>
<path class="st10" d="M106.6,312.8c-8.9-21.9-12.7-46.4-13.8-68.6c0-1-0.3-1.7-0.5-1.2c-0.2,0.5-0.4,1.8-0.3,3.1
	c1.3,21.4,5.2,45.2,13.5,66.4c0.6,1.2,1.2,2.2,1.5,2.2C107.3,314.8,107.1,313.9,106.6,312.8z"/>
<linearGradient id="SVGID_11_" gradientUnits="userSpaceOnUse" x1="2065.9216" y1="811.0159" x2="2339.6487" y2="811.0159" gradientTransform="matrix(-0.7771 0.6294 -0.6294 -0.7771 2476.3174 -541.8335)">
	<stop  offset="0" style="stop-color:#005CB9"/>
	<stop  offset="9.080362e-02" style="stop-color:#1778C7"/>
	<stop  offset="0.25" style="stop-color:#47B0E4"/>
	<stop  offset="0.273" style="stop-color:#4EB3DB"/>
	<stop  offset="0.3106" style="stop-color:#62BAC3"/>
	<stop  offset="0.3581" style="stop-color:#82C59B"/>
	<stop  offset="0.4137" style="stop-color:#AFD564"/>
	<stop  offset="0.4752" style="stop-color:#E7E81E"/>
	<stop  offset="0.5" style="stop-color:#FFF100"/>
	<stop  offset="0.5239" style="stop-color:#FEEB01"/>
	<stop  offset="0.5547" style="stop-color:#FDDB04"/>
	<stop  offset="0.5894" style="stop-color:#FBC108"/>
	<stop  offset="0.6268" style="stop-color:#F79B0F"/>
	<stop  offset="0.6666" style="stop-color:#F36C17"/>
	<stop  offset="0.7075" style="stop-color:#EE3221"/>
	<stop  offset="0.7398" style="stop-color:#EA0029"/>
	<stop  offset="0.7796" style="stop-color:#E50632"/>
	<stop  offset="0.8445" style="stop-color:#D8174B"/>
	<stop  offset="0.9259" style="stop-color:#C43172"/>
	<stop  offset="1" style="stop-color:#AE4E9C"/>
</linearGradient>
<path class="st11" d="M92.6,228.2c2.4-37,20.1-75.2,50.6-101.9c30-26.7,71.7-41.5,113-39C323.8,91,381.2,137,403,199.1
	c7.4,20.5,10.5,42.1,10.8,62.3c0,1.7,0.3,2.7,0.6,2.1c0.5-0.7,0.6-2.6,0.6-4.5c-0.2-42.5-15.4-85.1-44.2-117.6
	c-28.4-32.6-70.7-53.6-114.4-55.6c-41.6-2.2-83.9,12.9-114.4,40.2c-31,27.2-48.8,66.4-50.6,104c-0.1,1,0.1,1.6,0.4,1.2
	C92.2,230.6,92.5,229.3,92.6,228.2z"/>
<linearGradient id="SVGID_12_" gradientUnits="userSpaceOnUse" x1="2068.4102" y1="868.4738" x2="2301.2798" y2="868.4738" gradientTransform="matrix(-0.7771 0.6294 -0.6294 -0.7771 2476.3174 -541.8335)">
	<stop  offset="0" style="stop-color:#005CB9"/>
	<stop  offset="9.080362e-02" style="stop-color:#1778C7"/>
	<stop  offset="0.25" style="stop-color:#47B0E4"/>
	<stop  offset="0.273" style="stop-color:#4EB3DB"/>
	<stop  offset="0.3106" style="stop-color:#62BAC3"/>
	<stop  offset="0.3581" style="stop-color:#82C59B"/>
	<stop  offset="0.4137" style="stop-color:#AFD564"/>
	<stop  offset="0.4752" style="stop-color:#E7E81E"/>
	<stop  offset="0.5" style="stop-color:#FFF100"/>
	<stop  offset="0.5239" style="stop-color:#FEEB01"/>
	<stop  offset="0.5547" style="stop-color:#FDDB04"/>
	<stop  offset="0.5894" style="stop-color:#FBC108"/>
	<stop  offset="0.6268" style="stop-color:#F79B0F"/>
	<stop  offset="0.6666" style="stop-color:#F36C17"/>
	<stop  offset="0.7075" style="stop-color:#EE3221"/>
	<stop  offset="0.7398" style="stop-color:#EA0029"/>
	<stop  offset="0.7796" style="stop-color:#E50632"/>
	<stop  offset="0.8445" style="stop-color:#D8174B"/>
	<stop  offset="0.9259" style="stop-color:#C43172"/>
	<stop  offset="1" style="stop-color:#AE4E9C"/>
</linearGradient>
<path class="st12" d="M369.1,143c-31.8-34-77.2-53.4-124.7-53.4c-25.6,0-51,6.4-73.5,20.4c-29.9,19.2-49.9,43.8-64.9,74.7
	c-0.5,1-0.8,2.1-0.7,2.4c0.2,0.2,0.7-0.4,1.2-1.5c16.1-33.3,40.2-61.1,73.6-78.5C243.4,74,322,93.7,368.5,143.7c1,1.1,1.8,1.6,2,1.5
	C370.7,145,370.1,143.9,369.1,143z"/>
<linearGradient id="SVGID_13_" gradientUnits="userSpaceOnUse" x1="2191.4751" y1="895.6518" x2="2307.8352" y2="895.6518" gradientTransform="matrix(-0.7771 0.6294 -0.6294 -0.7771 2476.3174 -541.8335)">
	<stop  offset="0" style="stop-color:#005CB9"/>
	<stop  offset="9.080362e-02" style="stop-color:#1778C7"/>
	<stop  offset="0.25" style="stop-color:#47B0E4"/>
	<stop  offset="0.273" style="stop-color:#4EB3DB"/>
	<stop  offset="0.3106" style="stop-color:#62BAC3"/>
	<stop  offset="0.3581" style="stop-color:#82C59B"/>
	<stop  offset="0.4137" style="stop-color:#AFD564"/>
	<stop  offset="0.4752" style="stop-color:#E7E81E"/>
	<stop  offset="0.5" style="stop-color:#FFF100"/>
	<stop  offset="0.5239" style="stop-color:#FEEB01"/>
	<stop  offset="0.5547" style="stop-color:#FDDB04"/>
	<stop  offset="0.5894" style="stop-color:#FBC108"/>
	<stop  offset="0.6268" style="stop-color:#F79B0F"/>
	<stop  offset="0.6666" style="stop-color:#F36C17"/>
	<stop  offset="0.7075" style="stop-color:#EE3221"/>
	<stop  offset="0.7398" style="stop-color:#EA0029"/>
	<stop  offset="0.7796" style="stop-color:#E50632"/>
	<stop  offset="0.8445" style="stop-color:#D8174B"/>
	<stop  offset="0.9259" style="stop-color:#C43172"/>
	<stop  offset="1" style="stop-color:#AE4E9C"/>
</linearGradient>
<path class="st13" d="M199.9,134.1c-19.2,7.9-37.3,21.2-49.9,38.1c-12.4,17-19.4,36.9-20.4,54.7c-0.1,0.9,0.2,1.1,0.5,0.6
	c0.4-0.6,0.7-1.8,0.8-2.7c1.3-17.4,8.5-36.6,21-52.7c12.5-16,29.8-28.7,48.1-36.4c1.7-0.9,3.2-1.5,3.2-2
	C203.2,133.3,201.7,133.3,199.9,134.1z"/>
<linearGradient id="SVGID_14_" gradientUnits="userSpaceOnUse" x1="2145.0657" y1="791.8947" x2="2383.8215" y2="791.8947" gradientTransform="matrix(-0.7771 0.6294 -0.6294 -0.7771 2476.3174 -541.8335)">
	<stop  offset="0" style="stop-color:#005CB9"/>
	<stop  offset="9.080362e-02" style="stop-color:#1778C7"/>
	<stop  offset="0.25" style="stop-color:#47B0E4"/>
	<stop  offset="0.273" style="stop-color:#4EB3DB"/>
	<stop  offset="0.3106" style="stop-color:#62BAC3"/>
	<stop  offset="0.3581" style="stop-color:#82C59B"/>
	<stop  offset="0.4137" style="stop-color:#AFD564"/>
	<stop  offset="0.4752" style="stop-color:#E7E81E"/>
	<stop  offset="0.5" style="stop-color:#FFF100"/>
	<stop  offset="0.5239" style="stop-color:#FEEB01"/>
	<stop  offset="0.5547" style="stop-color:#FDDB04"/>
	<stop  offset="0.5894" style="stop-color:#FBC108"/>
	<stop  offset="0.6268" style="stop-color:#F79B0F"/>
	<stop  offset="0.6666" style="stop-color:#F36C17"/>
	<stop  offset="0.7075" style="stop-color:#EE3221"/>
	<stop  offset="0.7398" style="stop-color:#EA0029"/>
	<stop  offset="0.7796" style="stop-color:#E50632"/>
	<stop  offset="0.8445" style="stop-color:#D8174B"/>
	<stop  offset="0.9259" style="stop-color:#C43172"/>
	<stop  offset="1" style="stop-color:#AE4E9C"/>
</linearGradient>
<path class="st14" d="M116,321.1c-22.4-41.6-22.7-93-4.3-135.3c9.7-20,23.5-37.8,40.3-52.2c2.5-2,4.3-3.9,3.9-4.4
	c-0.3-0.4-2.7,0.7-5.3,2.7c-8.6,7.3-16.6,15.3-23.6,24.2c0.1-0.4-0.1-0.6-0.3-0.7c23.9-32,60.9-53.9,100.7-59.9
	c2.2-0.3,3.8-0.9,3.7-1.3c0-0.4-1.8-0.4-4.1-0.1c-41.8,5.9-80.3,30-103.9,64.2c-1.1,1.1-2.1,2.6-3.1,4.1
	c-18.9,29.4-27.7,64-24.4,98.7c4,49.3,30.2,95.2,72.1,121.3c16.5,10.2,35,16.2,54.2,19.6c16,2.9,33.1,3.6,47.7,0.6
	c20.1-4.3,36.7-12.7,50.5-22.9c0.8-0.6,0.8-0.9,0-0.6c-0.6,0-1.9,0.7-2.6,1.2c-13.8,10.2-31.9,17.8-49.5,22.1
	c-35,4.2-70.5-3.6-100.8-21.1C144.7,365.7,128.8,345.1,116,321.1z"/>
<linearGradient id="SVGID_15_" gradientUnits="userSpaceOnUse" x1="2078.7336" y1="782.8755" x2="2378.2705" y2="782.8755" gradientTransform="matrix(-0.7771 0.6294 -0.6294 -0.7771 2476.3174 -541.8335)">
	<stop  offset="0" style="stop-color:#005CB9"/>
	<stop  offset="9.080362e-02" style="stop-color:#1778C7"/>
	<stop  offset="0.25" style="stop-color:#47B0E4"/>
	<stop  offset="0.273" style="stop-color:#4EB3DB"/>
	<stop  offset="0.3106" style="stop-color:#62BAC3"/>
	<stop  offset="0.3581" style="stop-color:#82C59B"/>
	<stop  offset="0.4137" style="stop-color:#AFD564"/>
	<stop  offset="0.4752" style="stop-color:#E7E81E"/>
	<stop  offset="0.5" style="stop-color:#FFF100"/>
	<stop  offset="0.5239" style="stop-color:#FEEB01"/>
	<stop  offset="0.5547" style="stop-color:#FDDB04"/>
	<stop  offset="0.5894" style="stop-color:#FBC108"/>
	<stop  offset="0.6268" style="stop-color:#F79B0F"/>
	<stop  offset="0.6666" style="stop-color:#F36C17"/>
	<stop  offset="0.7075" style="stop-color:#EE3221"/>
	<stop  offset="0.7398" style="stop-color:#EA0029"/>
	<stop  offset="0.7796" style="stop-color:#E50632"/>
	<stop  offset="0.8445" style="stop-color:#D8174B"/>
	<stop  offset="0.9259" style="stop-color:#C43172"/>
	<stop  offset="1" style="stop-color:#AE4E9C"/>
</linearGradient>
<path class="st15" d="M342.4,346.2c23.7-26.5,37.3-61.7,36.3-97.2c-0.7-35.4-16.1-71.1-43.3-96c-0.1,0.1-0.3,0.2-0.6,0.1
	c-1.4-0.3-4-2.5-6.2-4.2c-6.1-5.5-12.6-10.4-19.6-14.8c-13.5-7.4-28.3-12-43.4-13.9c12.1,1.4,23.7,5.4,34.7,10.2
	c3.2,1.5,5.5,3.4,4.8,4c-0.6,0.6-3.8-0.2-7-1.7c-29.5-13.3-66.6-12.3-94.5-4.7c-34.8,13.5-61.6,42.6-72.4,75.8
	c-11.1,33.2-6.5,69.1,9.4,96.1c0.7,1,1.2,2.4,1.3,3c0.1,0.9-0.3,0.9-1-0.1c-18.3-27.1-25.5-67.4-11.5-104.8
	c12.8-37.6,47.3-70.1,89.8-80.1c5-1.7,10.4-1.9,15.5-2.9c-15.3,0.5-30.7,4.2-45.6,10.5c-1.2,1.2-3.6,2.6-6.3,4.2
	c-6.4,4.1-12.7,8.2-18.4,13.2c0.4-0.1,0.6,0,0.8,0.1c0.4,0.6-1.5,2.6-4.1,4.8c-14.2,12.3-25.5,27.7-33.7,44.6l-0.5,1.2
	c-19,42.8-12.9,94,13.5,131.1c26.1,37.2,71.8,59.1,116.5,55.5c1.2-0.3,3.1-0.4,4-0.1c1.1,0.2,0.9,0.6-0.3,1c0.1,0.2,0.4,0.6,0,0.7
	c-32.8,5.7-68.7-0.6-98.9-24.1c-10.5-7.9-19.2-17.9-27-28.3c7.3,11.3,15,22.1,23.4,30.7c27.2,22.3,62.5,32.8,96.1,33.5l-1.4-0.4
	c3-0.2,5.7,0.2,5.9,0.8c0.4,0.6-2.1,1.2-5.2,1.5c-31.9,2.3-65.8-6.2-92.9-25.9c-27.3-19.4-48-48.7-56.6-81.9
	c-19.4-66.6,16-144.8,80.6-174.9c50.2-25.4,113.9-18.9,157.8,15.8c6.7,4.9,10.5,10.7,9.4,11.6c-1.4,1.2-6.8-2.7-13.3-7.3
	c-42.1-32.4-101.5-37.8-148.9-15c-20.9,9.9-39.1,24.5-53.3,42.4c11.3-13.8,25.5-25,40.9-33.2c22.6-14.1,50.3-21.6,77.9-19.9
	c66.9,3.3,121.3,53.3,136,118.4c6.9,31.7,4.8,61.8-4.8,89.2c-9.5,27.3-26.8,53-54.1,71.9c-2.3,1.7-5.2,3.2-6.4,3.3
	c-1.3,0.1-0.5-1,1.8-2.7c52.2-36.4,74.4-98,61.2-158.2c-13.9-63.7-68.1-114.3-134.7-117.5c-4.4-0.4-8.9-0.1-13.3,0
	c14.6-0.1,28.8,2.5,41.9,7.1c52.9,13.5,92.3,60.3,99.8,113.4c6.5,41-5.4,84.4-34.7,115c-3.8,3.8-8,6.7-9.4,6.5
	C337,353.1,338.8,349.9,342.4,346.2z M107.8,263.1c-1.4-9.6-1.9-19.5-1.2-29.4c-4.4,38.5,7.9,78.4,33,108
	C122.5,319.3,110.8,291.3,107.8,263.1z"/>
<linearGradient id="SVGID_16_" gradientUnits="userSpaceOnUse" x1="2267.1223" y1="-792.2552" x2="2284.3311" y2="-792.2552" gradientTransform="matrix(0.5348 0.845 -0.845 0.5348 -1627.022 -1175.2426)">
	<stop  offset="0" style="stop-color:#005CB9"/>
	<stop  offset="9.080362e-02" style="stop-color:#1778C7"/>
	<stop  offset="0.25" style="stop-color:#47B0E4"/>
	<stop  offset="0.273" style="stop-color:#4EB3DB"/>
	<stop  offset="0.3106" style="stop-color:#62BAC3"/>
	<stop  offset="0.3581" style="stop-color:#82C59B"/>
	<stop  offset="0.4137" style="stop-color:#AFD564"/>
	<stop  offset="0.4752" style="stop-color:#E7E81E"/>
	<stop  offset="0.5" style="stop-color:#FFF100"/>
	<stop  offset="0.5239" style="stop-color:#FEEB01"/>
	<stop  offset="0.5547" style="stop-color:#FDDB04"/>
	<stop  offset="0.5894" style="stop-color:#FBC108"/>
	<stop  offset="0.6268" style="stop-color:#F79B0F"/>
	<stop  offset="0.6666" style="stop-color:#F36C17"/>
	<stop  offset="0.7075" style="stop-color:#EE3221"/>
	<stop  offset="0.7398" style="stop-color:#EA0029"/>
	<stop  offset="0.7796" style="stop-color:#E50632"/>
	<stop  offset="0.8445" style="stop-color:#D8174B"/>
	<stop  offset="0.9259" style="stop-color:#C43172"/>
	<stop  offset="1" style="stop-color:#AE4E9C"/>
</linearGradient>
<path class="st16" d="M276.9,322.6c-11.5,3.2-24,3.6-35.2,2.9c-0.5,0-0.9,0.1-0.6,0.2c0.3,0.1,0.9,0.3,1.5,0.3
	c10.8,0.6,23,0.1,34.1-2.9c0.6-0.2,1.2-0.5,1.2-0.6C278,322.4,277.5,322.4,276.9,322.6z"/>
<linearGradient id="SVGID_17_" gradientUnits="userSpaceOnUse" x1="2125.687" y1="-815.9957" x2="2263.7988" y2="-815.9957" gradientTransform="matrix(0.5348 0.845 -0.845 0.5348 -1627.022 -1175.2426)">
	<stop  offset="0" style="stop-color:#005CB9"/>
	<stop  offset="9.080362e-02" style="stop-color:#1778C7"/>
	<stop  offset="0.25" style="stop-color:#47B0E4"/>
	<stop  offset="0.273" style="stop-color:#4EB3DB"/>
	<stop  offset="0.3106" style="stop-color:#62BAC3"/>
	<stop  offset="0.3581" style="stop-color:#82C59B"/>
	<stop  offset="0.4137" style="stop-color:#AFD564"/>
	<stop  offset="0.4752" style="stop-color:#E7E81E"/>
	<stop  offset="0.5" style="stop-color:#FFF100"/>
	<stop  offset="0.5239" style="stop-color:#FEEB01"/>
	<stop  offset="0.5547" style="stop-color:#FDDB04"/>
	<stop  offset="0.5894" style="stop-color:#FBC108"/>
	<stop  offset="0.6268" style="stop-color:#F79B0F"/>
	<stop  offset="0.6666" style="stop-color:#F36C17"/>
	<stop  offset="0.7075" style="stop-color:#EE3221"/>
	<stop  offset="0.7398" style="stop-color:#EA0029"/>
	<stop  offset="0.7796" style="stop-color:#E50632"/>
	<stop  offset="0.8445" style="stop-color:#D8174B"/>
	<stop  offset="0.9259" style="stop-color:#C43172"/>
	<stop  offset="1" style="stop-color:#AE4E9C"/>
</linearGradient>
<path class="st17" d="M233.7,324.7c-18.4-3.4-36.5-14.5-48.1-31.3C174,276.7,169,255,172.7,234.4c5.8-33.6,32.2-59.7,64.7-67
	c10.7-2.5,21.7-2.8,31.8-1.8c0.9,0.1,1.4,0,1.1-0.2c-0.3-0.3-1.3-0.4-2.2-0.6c-21.3-2.4-43.6,2.8-61.5,15.2
	c-18,12.3-31,32.3-34.5,54.1c-3.6,20.7,1.5,42.8,13.4,59.7c11.8,17.1,30.4,28.3,49.1,31.5c0.5,0.1,0.8,0,0.6-0.1
	C234.9,325,234.2,324.8,233.7,324.7z"/>
<linearGradient id="SVGID_18_" gradientUnits="userSpaceOnUse" x1="2126.9402" y1="-787.0099" x2="2244.4402" y2="-787.0099" gradientTransform="matrix(0.5348 0.845 -0.845 0.5348 -1627.022 -1175.2426)">
	<stop  offset="0" style="stop-color:#005CB9"/>
	<stop  offset="9.080362e-02" style="stop-color:#1778C7"/>
	<stop  offset="0.25" style="stop-color:#47B0E4"/>
	<stop  offset="0.273" style="stop-color:#4EB3DB"/>
	<stop  offset="0.3106" style="stop-color:#62BAC3"/>
	<stop  offset="0.3581" style="stop-color:#82C59B"/>
	<stop  offset="0.4137" style="stop-color:#AFD564"/>
	<stop  offset="0.4752" style="stop-color:#E7E81E"/>
	<stop  offset="0.5" style="stop-color:#FFF100"/>
	<stop  offset="0.5239" style="stop-color:#FEEB01"/>
	<stop  offset="0.5547" style="stop-color:#FDDB04"/>
	<stop  offset="0.5894" style="stop-color:#FBC108"/>
	<stop  offset="0.6268" style="stop-color:#F79B0F"/>
	<stop  offset="0.6666" style="stop-color:#F36C17"/>
	<stop  offset="0.7075" style="stop-color:#EE3221"/>
	<stop  offset="0.7398" style="stop-color:#EA0029"/>
	<stop  offset="0.7796" style="stop-color:#E50632"/>
	<stop  offset="0.8445" style="stop-color:#D8174B"/>
	<stop  offset="0.9259" style="stop-color:#C43172"/>
	<stop  offset="1" style="stop-color:#AE4E9C"/>
</linearGradient>
<path class="st18" d="M207.2,181.1c-18.9,14-31.3,35.6-34.1,59.3c-1.5,12.8,0.2,26,5.9,38.1c7.9,16.1,19,27.6,33.6,36.9
	c0.5,0.3,1,0.5,1.2,0.5c0.1-0.1-0.2-0.4-0.7-0.7c-15.7-10-28.3-23.7-35-41.5c-13-33.7,1.5-71.9,29.3-92.3c0.6-0.5,0.9-0.8,0.9-0.9
	C208.3,180.4,207.8,180.7,207.2,181.1z"/>
<linearGradient id="SVGID_19_" gradientUnits="userSpaceOnUse" x1="2189.0352" y1="-773.2937" x2="2247.749" y2="-773.2937" gradientTransform="matrix(0.5348 0.845 -0.845 0.5348 -1627.022 -1175.2426)">
	<stop  offset="0" style="stop-color:#005CB9"/>
	<stop  offset="9.080362e-02" style="stop-color:#1778C7"/>
	<stop  offset="0.25" style="stop-color:#47B0E4"/>
	<stop  offset="0.273" style="stop-color:#4EB3DB"/>
	<stop  offset="0.3106" style="stop-color:#62BAC3"/>
	<stop  offset="0.3581" style="stop-color:#82C59B"/>
	<stop  offset="0.4137" style="stop-color:#AFD564"/>
	<stop  offset="0.4752" style="stop-color:#E7E81E"/>
	<stop  offset="0.5" style="stop-color:#FFF100"/>
	<stop  offset="0.5239" style="stop-color:#FEEB01"/>
	<stop  offset="0.5547" style="stop-color:#FDDB04"/>
	<stop  offset="0.5894" style="stop-color:#FBC108"/>
	<stop  offset="0.6268" style="stop-color:#F79B0F"/>
	<stop  offset="0.6666" style="stop-color:#F36C17"/>
	<stop  offset="0.7075" style="stop-color:#EE3221"/>
	<stop  offset="0.7398" style="stop-color:#EA0029"/>
	<stop  offset="0.7796" style="stop-color:#E50632"/>
	<stop  offset="0.8445" style="stop-color:#D8174B"/>
	<stop  offset="0.9259" style="stop-color:#C43172"/>
	<stop  offset="1" style="stop-color:#AE4E9C"/>
</linearGradient>
<path class="st19" d="M192.9,265.4c2.8,10.1,8.5,19.9,16.2,27.2c7.8,7.2,17.3,11.9,26.2,13.4c0.4,0.1,0.6,0,0.3-0.2
	c-0.3-0.2-0.8-0.5-1.3-0.6c-8.7-1.7-17.8-6.4-25.2-13.6c-7.3-7.2-12.6-16.6-15.4-26.3c-0.4-0.9-0.6-1.7-0.8-1.7
	C192.7,263.6,192.6,264.4,192.9,265.4z"/>
<linearGradient id="SVGID_20_" gradientUnits="userSpaceOnUse" x1="2165.625" y1="-825.6511" x2="2286.0889" y2="-825.6511" gradientTransform="matrix(0.5348 0.845 -0.845 0.5348 -1627.022 -1175.2426)">
	<stop  offset="0" style="stop-color:#005CB9"/>
	<stop  offset="9.080362e-02" style="stop-color:#1778C7"/>
	<stop  offset="0.25" style="stop-color:#47B0E4"/>
	<stop  offset="0.273" style="stop-color:#4EB3DB"/>
	<stop  offset="0.3106" style="stop-color:#62BAC3"/>
	<stop  offset="0.3581" style="stop-color:#82C59B"/>
	<stop  offset="0.4137" style="stop-color:#AFD564"/>
	<stop  offset="0.4752" style="stop-color:#E7E81E"/>
	<stop  offset="0.5" style="stop-color:#FFF100"/>
	<stop  offset="0.5239" style="stop-color:#FEEB01"/>
	<stop  offset="0.5547" style="stop-color:#FDDB04"/>
	<stop  offset="0.5894" style="stop-color:#FBC108"/>
	<stop  offset="0.6268" style="stop-color:#F79B0F"/>
	<stop  offset="0.6666" style="stop-color:#F36C17"/>
	<stop  offset="0.7075" style="stop-color:#EE3221"/>
	<stop  offset="0.7398" style="stop-color:#EA0029"/>
	<stop  offset="0.7796" style="stop-color:#E50632"/>
	<stop  offset="0.8445" style="stop-color:#D8174B"/>
	<stop  offset="0.9259" style="stop-color:#C43172"/>
	<stop  offset="1" style="stop-color:#AE4E9C"/>
</linearGradient>
<path class="st20" d="M281.7,318.4c-22.2,8.8-48,5.9-68.1-5.8c-9.4-6-17.6-14-23.8-23.2c-0.8-1.4-1.7-2.4-2-2.2
	c-0.2,0.1,0.2,1.4,1.1,2.8c3.2,4.7,6.7,9.2,10.8,13.2c-0.2-0.1-0.3,0-0.4,0.1c-14.6-13.9-23.4-33.7-24.1-54c0-1.1-0.2-2-0.4-1.9
	c-0.2,0-0.3,0.9-0.3,2c0.5,21.3,10.3,42,26.1,55.8c0.5,0.6,1.2,1.2,1.9,1.8c13.6,11.2,30.5,17.6,48,18c24.9,0.9,49.5-9.6,65-29
	c6.1-7.7,10.2-16.6,13-26c2.4-7.9,3.8-16.4,3.1-23.9c-1-10.3-4.2-19.1-8.5-26.6c-0.3-0.5-0.4-0.4-0.3-0.1c0,0.3,0.2,1,0.4,1.4
	c4.3,7.5,7.1,17,8.2,26.1c0,17.8-5.9,35.1-16.5,49.3C305.7,306.6,294.4,313.3,281.7,318.4z"/>
<linearGradient id="SVGID_21_" gradientUnits="userSpaceOnUse" x1="1138.3572" y1="1424.7939" x2="1291.5322" y2="1424.7939" gradientTransform="matrix(-0.1517 -0.9884 0.9884 -0.1517 -971.8326 1665.4181)">
	<stop  offset="0" style="stop-color:#005CB9"/>
	<stop  offset="9.080362e-02" style="stop-color:#1778C7"/>
	<stop  offset="0.25" style="stop-color:#47B0E4"/>
	<stop  offset="0.273" style="stop-color:#4EB3DB"/>
	<stop  offset="0.3106" style="stop-color:#62BAC3"/>
	<stop  offset="0.3581" style="stop-color:#82C59B"/>
	<stop  offset="0.4137" style="stop-color:#AFD564"/>
	<stop  offset="0.4752" style="stop-color:#E7E81E"/>
	<stop  offset="0.5" style="stop-color:#FFF100"/>
	<stop  offset="0.5239" style="stop-color:#FEEB01"/>
	<stop  offset="0.5547" style="stop-color:#FDDB04"/>
	<stop  offset="0.5894" style="stop-color:#FBC108"/>
	<stop  offset="0.6268" style="stop-color:#F79B0F"/>
	<stop  offset="0.6666" style="stop-color:#F36C17"/>
	<stop  offset="0.7075" style="stop-color:#EE3221"/>
	<stop  offset="0.7398" style="stop-color:#EA0029"/>
	<stop  offset="0.7796" style="stop-color:#E50632"/>
	<stop  offset="0.8445" style="stop-color:#D8174B"/>
	<stop  offset="0.9259" style="stop-color:#C43172"/>
	<stop  offset="1" style="stop-color:#AE4E9C"/>
</linearGradient>
<path class="st21" d="M295.7,191.9c-15.4-10-34.4-14.2-52.5-10.9c-18.1,3.1-35.1,13.8-45.6,29.7c0.1,0,0.1,0.1,0.1,0.3
	c0,0.8-1,2.2-1.7,3.5c-2.3,3.6-4.3,7.3-6,11.2c-2.7,7.4-3.9,15.4-3.7,23.2c-0.2-6.3,0.9-12.5,2.5-18.5c0.5-1.8,1.3-3.1,1.6-2.8
	c0.3,0.3,0.2,2-0.3,3.7c-4.5,16.1-1.1,35,5,48.6c9.6,16.7,26.6,28.1,44.4,31c17.8,3.1,35.8-2.1,48.3-12.3c0.5-0.4,1.1-0.8,1.4-0.9
	c0.5-0.1,0.5,0.1,0,0.5c-12.4,11.5-32.4,18.3-52.6,14.1c-20.2-3.6-39.5-18.7-48-39.6c-1.3-2.4-1.8-5.1-2.7-7.7
	c1.4,7.8,4.5,15.3,9,22.5c0.7,0.6,1.6,1.6,2.6,2.9c2.6,2.9,5.2,5.8,8.2,8.4c-0.1-0.2-0.1-0.3,0-0.4c0.3-0.3,1.4,0.6,2.8,1.7
	c7.4,6.3,16.1,10.9,25.4,13.7l0.7,0.2c23.3,6.4,49-0.8,65.9-17.1c17-16.2,24.6-41.3,19.2-63.8c-0.2-0.6-0.4-1.6-0.4-2.1
	c0-0.6,0.2-0.5,0.5,0.1c0.1-0.1,0.3-0.3,0.3-0.1c5.5,16.3,5.1,35.1-4.5,52.4c-3.2,6-7.6,11.2-12.3,16c5.2-4.6,10.1-9.4,13.9-14.4
	c9.2-15.7,11.9-34.5,9.6-51.7l-0.1,0.8c-0.3-1.5-0.3-3,0-3.1c0.3-0.2,0.8,1,1.2,2.5c3.7,16.1,2,34.1-5.9,49.5
	c-7.8,15.4-21.1,28.3-37.4,35.3c-32.5,15.1-75.2,3.2-95.6-27.4c-16.9-23.7-18.6-56.7-4.3-81.8c2-3.8,4.7-6.2,5.2-5.7
	c0.7,0.6-0.9,3.7-2.7,7.4c-13.3,24.1-11.3,54.8,4,77.3c6.7,9.9,15.6,18.1,25.8,23.9c-7.9-4.7-14.8-11-20.1-18.3
	c-9-10.5-15-24-16.3-38.2c-3.6-34.4,17.7-66.1,49.8-78.7c15.7-6,31.2-7.3,45.9-4.6c14.7,2.7,29.2,9.5,41,22c1,1.1,2,2.4,2.2,3
	c0.2,0.7-0.5,0.3-1.5-0.7c-22.7-23.8-55.9-30.3-85.6-18.9c-31.4,12.1-53,43.7-49.4,78c0.1,2.3,0.7,4.5,1.1,6.8
	c-1.2-7.4-1-14.9,0.3-21.9c2.7-28.1,23.5-51.9,50.1-59.8c20.4-6.6,43.5-3.9,61.4,8.7c2.2,1.6,4.1,3.5,4.1,4.3
	C299.7,194.1,297.9,193.4,295.7,191.9z M271.7,318.2c-4.8,1.5-9.8,2.5-14.9,2.9c20-0.8,39.4-10.2,52.6-25.3
	C299.2,306.3,285.8,314.5,271.7,318.2z"/>
<linearGradient id="SVGID_22_" gradientUnits="userSpaceOnUse" x1="3006.3389" y1="-1392.7028" x2="3047.0251" y2="-1392.7028" gradientTransform="matrix(0.4573 -0.8893 0.8893 0.4573 252.6306 3470.6462)">
	<stop  offset="0" style="stop-color:#005CB9"/>
	<stop  offset="9.080362e-02" style="stop-color:#1778C7"/>
	<stop  offset="0.25" style="stop-color:#47B0E4"/>
	<stop  offset="0.273" style="stop-color:#4EB3DB"/>
	<stop  offset="0.3106" style="stop-color:#62BAC3"/>
	<stop  offset="0.3581" style="stop-color:#82C59B"/>
	<stop  offset="0.4137" style="stop-color:#AFD564"/>
	<stop  offset="0.4752" style="stop-color:#E7E81E"/>
	<stop  offset="0.5" style="stop-color:#FFF100"/>
	<stop  offset="0.5239" style="stop-color:#FEEB01"/>
	<stop  offset="0.5547" style="stop-color:#FDDB04"/>
	<stop  offset="0.5894" style="stop-color:#FBC108"/>
	<stop  offset="0.6268" style="stop-color:#F79B0F"/>
	<stop  offset="0.6666" style="stop-color:#F36C17"/>
	<stop  offset="0.7075" style="stop-color:#EE3221"/>
	<stop  offset="0.7398" style="stop-color:#EA0029"/>
	<stop  offset="0.7796" style="stop-color:#E50632"/>
	<stop  offset="0.8445" style="stop-color:#D8174B"/>
	<stop  offset="0.9259" style="stop-color:#C43172"/>
	<stop  offset="1" style="stop-color:#AE4E9C"/>
</linearGradient>
<path class="st22" d="M374.4,108.3c20.3,19.7,36.2,44.6,48,68.3c0.6,1.1,1.1,1.8,1.1,1c0-0.7-0.4-2.2-1.1-3.5
	c-11.7-22.7-27.4-46.9-46.7-66c-1.2-1-2.4-1.8-2.7-1.7C372.6,106.5,373.4,107.4,374.4,108.3z"/>
<linearGradient id="SVGID_23_" gradientUnits="userSpaceOnUse" x1="2672.0332" y1="-1448.8225" x2="2998.4912" y2="-1448.8225" gradientTransform="matrix(0.4573 -0.8893 0.8893 0.4573 252.6306 3470.6462)">
	<stop  offset="0" style="stop-color:#005CB9"/>
	<stop  offset="9.080362e-02" style="stop-color:#1778C7"/>
	<stop  offset="0.25" style="stop-color:#47B0E4"/>
	<stop  offset="0.273" style="stop-color:#4EB3DB"/>
	<stop  offset="0.3106" style="stop-color:#62BAC3"/>
	<stop  offset="0.3581" style="stop-color:#82C59B"/>
	<stop  offset="0.4137" style="stop-color:#AFD564"/>
	<stop  offset="0.4752" style="stop-color:#E7E81E"/>
	<stop  offset="0.5" style="stop-color:#FFF100"/>
	<stop  offset="0.5239" style="stop-color:#FEEB01"/>
	<stop  offset="0.5547" style="stop-color:#FDDB04"/>
	<stop  offset="0.5894" style="stop-color:#FBC108"/>
	<stop  offset="0.6268" style="stop-color:#F79B0F"/>
	<stop  offset="0.6666" style="stop-color:#F36C17"/>
	<stop  offset="0.7075" style="stop-color:#EE3221"/>
	<stop  offset="0.7398" style="stop-color:#EA0029"/>
	<stop  offset="0.7796" style="stop-color:#E50632"/>
	<stop  offset="0.8445" style="stop-color:#D8174B"/>
	<stop  offset="0.9259" style="stop-color:#C43172"/>
	<stop  offset="1" style="stop-color:#AE4E9C"/>
</linearGradient>
<path class="st23" d="M430.3,193.9c15.2,41.5,14.3,91.7-6.2,135.6c-19.9,43.5-58.2,79.8-104.6,96.9c-75.5,28.5-160.3,5.9-214-51.4
	c-17.9-18.8-31.7-41-41.8-62.8c-0.8-1.8-1.6-2.8-1.7-2c-0.1,1,0.6,3.1,1.5,5.2c20.6,46.3,57.8,85.4,104.7,107.1
	c46.6,21.9,102.9,24.6,151.5,5.6c46.5-17.6,85.4-54.4,105.6-98.9c20.7-44.6,21.3-96,5.2-137.8c-0.4-1.2-0.9-1.6-1-1.1
	C429.6,191.1,429.9,192.8,430.3,193.9z"/>
<linearGradient id="SVGID_24_" gradientUnits="userSpaceOnUse" x1="2674.9934" y1="-1380.2908" x2="2952.7334" y2="-1380.2908" gradientTransform="matrix(0.4573 -0.8893 0.8893 0.4573 252.6306 3470.6462)">
	<stop  offset="0" style="stop-color:#005CB9"/>
	<stop  offset="9.080362e-02" style="stop-color:#1778C7"/>
	<stop  offset="0.25" style="stop-color:#47B0E4"/>
	<stop  offset="0.273" style="stop-color:#4EB3DB"/>
	<stop  offset="0.3106" style="stop-color:#62BAC3"/>
	<stop  offset="0.3581" style="stop-color:#82C59B"/>
	<stop  offset="0.4137" style="stop-color:#AFD564"/>
	<stop  offset="0.4752" style="stop-color:#E7E81E"/>
	<stop  offset="0.5" style="stop-color:#FFF100"/>
	<stop  offset="0.5239" style="stop-color:#FEEB01"/>
	<stop  offset="0.5547" style="stop-color:#FDDB04"/>
	<stop  offset="0.5894" style="stop-color:#FBC108"/>
	<stop  offset="0.6268" style="stop-color:#F79B0F"/>
	<stop  offset="0.6666" style="stop-color:#F36C17"/>
	<stop  offset="0.7075" style="stop-color:#EE3221"/>
	<stop  offset="0.7398" style="stop-color:#EA0029"/>
	<stop  offset="0.7796" style="stop-color:#E50632"/>
	<stop  offset="0.8445" style="stop-color:#D8174B"/>
	<stop  offset="0.9259" style="stop-color:#C43172"/>
	<stop  offset="1" style="stop-color:#AE4E9C"/>
</linearGradient>
<path class="st24" d="M169.5,419.9c51.1,21.8,109.9,21.2,161.7-1.7c27.9-12.3,52.6-31.6,70.4-57.7c23.4-35.3,33.4-71.8,34.9-112.7
	c0.1-1.4-0.1-2.7-0.4-3c-0.3-0.1-0.6,0.8-0.6,2.2c-1.6,44.1-14.5,86-42.6,121c-53.1,66.8-148.3,83.1-223.2,50.8
	c-1.6-0.7-2.7-0.8-2.9-0.6C166.8,418.5,168,419.4,169.5,419.9z"/>
<linearGradient id="SVGID_25_" gradientUnits="userSpaceOnUse" x1="2821.7751" y1="-1347.8759" x2="2960.5522" y2="-1347.8759" gradientTransform="matrix(0.4573 -0.8893 0.8893 0.4573 252.6306 3470.6462)">
	<stop  offset="0" style="stop-color:#005CB9"/>
	<stop  offset="9.080362e-02" style="stop-color:#1778C7"/>
	<stop  offset="0.25" style="stop-color:#47B0E4"/>
	<stop  offset="0.273" style="stop-color:#4EB3DB"/>
	<stop  offset="0.3106" style="stop-color:#62BAC3"/>
	<stop  offset="0.3581" style="stop-color:#82C59B"/>
	<stop  offset="0.4137" style="stop-color:#AFD564"/>
	<stop  offset="0.4752" style="stop-color:#E7E81E"/>
	<stop  offset="0.5" style="stop-color:#FFF100"/>
	<stop  offset="0.5239" style="stop-color:#FEEB01"/>
	<stop  offset="0.5547" style="stop-color:#FDDB04"/>
	<stop  offset="0.5894" style="stop-color:#FBC108"/>
	<stop  offset="0.6268" style="stop-color:#F79B0F"/>
	<stop  offset="0.6666" style="stop-color:#F36C17"/>
	<stop  offset="0.7075" style="stop-color:#EE3221"/>
	<stop  offset="0.7398" style="stop-color:#EA0029"/>
	<stop  offset="0.7796" style="stop-color:#E50632"/>
	<stop  offset="0.8445" style="stop-color:#D8174B"/>
	<stop  offset="0.9259" style="stop-color:#C43172"/>
	<stop  offset="1" style="stop-color:#AE4E9C"/>
</linearGradient>
<path class="st25" d="M358.5,348.2c17.2-17.8,30.4-41.1,36.1-65.6c5.4-24.5,3.4-49.6-4.1-69.5c-0.4-1-0.8-1.1-0.8-0.4
	c-0.1,0.8,0.1,2.3,0.4,3.3c6.9,19.6,8.3,44.1,2.5,67.6c-6,23.4-18.8,45.6-35,62.8c-1.4,1.8-2.7,3.2-2.5,3.8
	C355.2,350.7,356.8,350,358.5,348.2z"/>
<linearGradient id="SVGID_26_" gradientUnits="userSpaceOnUse" x1="2766.4136" y1="-1471.6282" x2="3051.1777" y2="-1471.6282" gradientTransform="matrix(0.4573 -0.8893 0.8893 0.4573 252.6306 3470.6462)">
	<stop  offset="0" style="stop-color:#005CB9"/>
	<stop  offset="9.080362e-02" style="stop-color:#1778C7"/>
	<stop  offset="0.25" style="stop-color:#47B0E4"/>
	<stop  offset="0.273" style="stop-color:#4EB3DB"/>
	<stop  offset="0.3106" style="stop-color:#62BAC3"/>
	<stop  offset="0.3581" style="stop-color:#82C59B"/>
	<stop  offset="0.4137" style="stop-color:#AFD564"/>
	<stop  offset="0.4752" style="stop-color:#E7E81E"/>
	<stop  offset="0.5" style="stop-color:#FFF100"/>
	<stop  offset="0.5239" style="stop-color:#FEEB01"/>
	<stop  offset="0.5547" style="stop-color:#FDDB04"/>
	<stop  offset="0.5894" style="stop-color:#FBC108"/>
	<stop  offset="0.6268" style="stop-color:#F79B0F"/>
	<stop  offset="0.6666" style="stop-color:#F36C17"/>
	<stop  offset="0.7075" style="stop-color:#EE3221"/>
	<stop  offset="0.7398" style="stop-color:#EA0029"/>
	<stop  offset="0.7796" style="stop-color:#E50632"/>
	<stop  offset="0.8445" style="stop-color:#D8174B"/>
	<stop  offset="0.9259" style="stop-color:#C43172"/>
	<stop  offset="1" style="stop-color:#AE4E9C"/>
</linearGradient>
<path class="st26" d="M360.1,103.8c44.5,34.7,69.6,90.6,69.8,145.6c-1,26.5-7.4,52.6-18.8,76.4c-1.8,3.4-2.8,6.3-2.1,6.7
	c0.5,0.3,2.6-2.1,4.5-5.5c5.9-12.1,10.8-24.7,14.1-37.8c0.1,0.5,0.4,0.7,0.6,0.6c-10.7,46.4-40.5,88.1-81,113.8
	c-2.3,1.4-3.7,2.9-3.5,3.2c0.3,0.4,2.2-0.4,4.5-1.8c42.7-26.6,73.2-71.3,82.5-120c0.6-1.7,1.1-3.8,1.5-6
	c6.5-41.1-0.6-83.2-20.9-119.5c-28.1-51.9-78.8-89.3-137-97.7c-22.9-3.2-46-0.9-68.6,4.6c-18.9,4.5-37.9,11.9-52.3,22.3
	c-19.9,14.4-33.9,31.5-44.1,49.2c-0.6,1.1-0.4,1.4,0.3,0.7c0.7-0.3,1.8-1.6,2.3-2.5c10.1-17.8,26.3-34.8,43.4-47.9
	c36.2-21.4,78.7-30,120.1-25.4C307.3,69,334.5,83.7,360.1,103.8z"/>
<linearGradient id="SVGID_27_" gradientUnits="userSpaceOnUse" x1="324.3797" y1="143.6622" x2="412.3291" y2="143.6622">
	<stop  offset="0" style="stop-color:#005CB9"/>
	<stop  offset="9.080362e-02" style="stop-color:#1778C7"/>
	<stop  offset="0.25" style="stop-color:#47B0E4"/>
	<stop  offset="0.273" style="stop-color:#4EB3DB"/>
	<stop  offset="0.3106" style="stop-color:#62BAC3"/>
	<stop  offset="0.3581" style="stop-color:#82C59B"/>
	<stop  offset="0.4137" style="stop-color:#AFD564"/>
	<stop  offset="0.4752" style="stop-color:#E7E81E"/>
	<stop  offset="0.5" style="stop-color:#FFF100"/>
	<stop  offset="0.5239" style="stop-color:#FEEB01"/>
	<stop  offset="0.5547" style="stop-color:#FDDB04"/>
	<stop  offset="0.5894" style="stop-color:#FBC108"/>
	<stop  offset="0.6268" style="stop-color:#F79B0F"/>
	<stop  offset="0.6666" style="stop-color:#F36C17"/>
	<stop  offset="0.7075" style="stop-color:#EE3221"/>
	<stop  offset="0.7398" style="stop-color:#EA0029"/>
	<stop  offset="0.7796" style="stop-color:#E50632"/>
	<stop  offset="0.8445" style="stop-color:#D8174B"/>
	<stop  offset="0.9259" style="stop-color:#C43172"/>
	<stop  offset="1" style="stop-color:#AE4E9C"/>
</linearGradient>
<path class="st27" d="M396.9,163.2c6.2,9.8,11.5,20.4,15.4,31.5c-13.7-44.1-46.3-81.8-87.9-102C353.9,108.9,380.1,133.8,396.9,163.2
	z"/>
<path class="st0" d="M468.7,453.5c0-17.3,14.3-31.7,31.6-31.7c17.4,0,31.7,14.3,31.7,31.7c0,17.5-14.1,31.7-31.7,31.7
	C483,485.2,468.7,471.1,468.7,453.5z M500.3,480.5c14.8,0,27-12.1,27-27c0-14.8-12.1-26.9-27-26.9c-14.8,0-26.9,12.1-26.9,26.9
	C473.4,468.4,485.5,480.5,500.3,480.5z M488.4,436.1h11.2c6.3,0,13.6,1.1,13.6,10.8c0,5.9-3.7,7.1-5.8,8.2l6.2,14.4h-6.7l-5.1-13.5
	h-7.3v13.5h-6V436.1z M494.4,450.6h7.3c2.8,0,5.1-1.3,5.1-4.3c0-3-2-4.5-5.7-4.5h-6.7V450.6z"/>
<g>
	<linearGradient id="SVGID_28_" gradientUnits="userSpaceOnUse" x1="41.7357" y1="326.1331" x2="42.7022" y2="326.1331">
		<stop  offset="0" style="stop-color:#005CB9"/>
		<stop  offset="9.080362e-02" style="stop-color:#1778C7"/>
		<stop  offset="0.25" style="stop-color:#47B0E4"/>
		<stop  offset="0.273" style="stop-color:#4EB3DB"/>
		<stop  offset="0.3106" style="stop-color:#62BAC3"/>
		<stop  offset="0.3581" style="stop-color:#82C59B"/>
		<stop  offset="0.4137" style="stop-color:#AFD564"/>
		<stop  offset="0.4752" style="stop-color:#E7E81E"/>
		<stop  offset="0.5" style="stop-color:#FFF100"/>
		<stop  offset="0.5239" style="stop-color:#FEEB01"/>
		<stop  offset="0.5547" style="stop-color:#FDDB04"/>
		<stop  offset="0.5894" style="stop-color:#FBC108"/>
		<stop  offset="0.6268" style="stop-color:#F79B0F"/>
		<stop  offset="0.6666" style="stop-color:#F36C17"/>
		<stop  offset="0.7075" style="stop-color:#EE3221"/>
		<stop  offset="0.7398" style="stop-color:#EA0029"/>
		<stop  offset="0.7796" style="stop-color:#E50632"/>
		<stop  offset="0.8445" style="stop-color:#D8174B"/>
		<stop  offset="0.9259" style="stop-color:#C43172"/>
		<stop  offset="1" style="stop-color:#AE4E9C"/>
	</linearGradient>
	<path class="st28" d="M42.7,327.5c-0.3-0.9-0.7-1.8-1-2.7C42,325.7,42.4,326.6,42.7,327.5z"/>
	<linearGradient id="SVGID_29_" gradientUnits="userSpaceOnUse" x1="28.8672" y1="172.4731" x2="277.812" y2="172.4731">
		<stop  offset="0" style="stop-color:#005CB9"/>
		<stop  offset="9.080362e-02" style="stop-color:#1778C7"/>
		<stop  offset="0.25" style="stop-color:#47B0E4"/>
		<stop  offset="0.273" style="stop-color:#4EB3DB"/>
		<stop  offset="0.3106" style="stop-color:#62BAC3"/>
		<stop  offset="0.3581" style="stop-color:#82C59B"/>
		<stop  offset="0.4137" style="stop-color:#AFD564"/>
		<stop  offset="0.4752" style="stop-color:#E7E81E"/>
		<stop  offset="0.5" style="stop-color:#FFF100"/>
		<stop  offset="0.5239" style="stop-color:#FEEB01"/>
		<stop  offset="0.5547" style="stop-color:#FDDB04"/>
		<stop  offset="0.5894" style="stop-color:#FBC108"/>
		<stop  offset="0.6268" style="stop-color:#F79B0F"/>
		<stop  offset="0.6666" style="stop-color:#F36C17"/>
		<stop  offset="0.7075" style="stop-color:#EE3221"/>
		<stop  offset="0.7398" style="stop-color:#EA0029"/>
		<stop  offset="0.7796" style="stop-color:#E50632"/>
		<stop  offset="0.8445" style="stop-color:#D8174B"/>
		<stop  offset="0.9259" style="stop-color:#C43172"/>
		<stop  offset="1" style="stop-color:#AE4E9C"/>
	</linearGradient>
	<path class="st29" d="M51.1,152c30-65.6,92.1-108.4,141.7-121.9c50.2-14.6,85.3-8,85-8.5c-14.2-2-89.3-9.9-163.2,48.6
		c-36.2,28-67.1,73.5-79.7,127c-9.9,40.7-7.5,86.1,6.9,127.5C24.5,274.8,24,208.2,51.1,152z"/>
	<linearGradient id="SVGID_30_" gradientUnits="userSpaceOnUse" x1="161.9291" y1="55.1563" x2="178.9351" y2="55.1563">
		<stop  offset="0" style="stop-color:#005CB9"/>
		<stop  offset="9.080362e-02" style="stop-color:#1778C7"/>
		<stop  offset="0.25" style="stop-color:#47B0E4"/>
		<stop  offset="0.273" style="stop-color:#4EB3DB"/>
		<stop  offset="0.3106" style="stop-color:#62BAC3"/>
		<stop  offset="0.3581" style="stop-color:#82C59B"/>
		<stop  offset="0.4137" style="stop-color:#AFD564"/>
		<stop  offset="0.4752" style="stop-color:#E7E81E"/>
		<stop  offset="0.5" style="stop-color:#FFF100"/>
		<stop  offset="0.5239" style="stop-color:#FEEB01"/>
		<stop  offset="0.5547" style="stop-color:#FDDB04"/>
		<stop  offset="0.5894" style="stop-color:#FBC108"/>
		<stop  offset="0.6268" style="stop-color:#F79B0F"/>
		<stop  offset="0.6666" style="stop-color:#F36C17"/>
		<stop  offset="0.7075" style="stop-color:#EE3221"/>
		<stop  offset="0.7398" style="stop-color:#EA0029"/>
		<stop  offset="0.7796" style="stop-color:#E50632"/>
		<stop  offset="0.8445" style="stop-color:#D8174B"/>
		<stop  offset="0.9259" style="stop-color:#C43172"/>
		<stop  offset="1" style="stop-color:#AE4E9C"/>
	</linearGradient>
	<path class="st30" d="M174.4,53.2c-2.7,1-6.7,2.7-12.4,5.6c6.4-3,11.1-4.7,12.5-4.8C174.5,54,184.6,49.2,174.4,53.2z"/>
	<linearGradient id="SVGID_31_" gradientUnits="userSpaceOnUse" x1="30.7378" y1="252.323" x2="490.9056" y2="252.323">
		<stop  offset="0" style="stop-color:#005CB9"/>
		<stop  offset="9.080362e-02" style="stop-color:#1778C7"/>
		<stop  offset="0.25" style="stop-color:#47B0E4"/>
		<stop  offset="0.273" style="stop-color:#4EB3DB"/>
		<stop  offset="0.3106" style="stop-color:#62BAC3"/>
		<stop  offset="0.3581" style="stop-color:#82C59B"/>
		<stop  offset="0.4137" style="stop-color:#AFD564"/>
		<stop  offset="0.4752" style="stop-color:#E7E81E"/>
		<stop  offset="0.5" style="stop-color:#FFF100"/>
		<stop  offset="0.5239" style="stop-color:#FEEB01"/>
		<stop  offset="0.5547" style="stop-color:#FDDB04"/>
		<stop  offset="0.5894" style="stop-color:#FBC108"/>
		<stop  offset="0.6268" style="stop-color:#F79B0F"/>
		<stop  offset="0.6666" style="stop-color:#F36C17"/>
		<stop  offset="0.7075" style="stop-color:#EE3221"/>
		<stop  offset="0.7398" style="stop-color:#EA0029"/>
		<stop  offset="0.7796" style="stop-color:#E50632"/>
		<stop  offset="0.8445" style="stop-color:#D8174B"/>
		<stop  offset="0.9259" style="stop-color:#C43172"/>
		<stop  offset="1" style="stop-color:#AE4E9C"/>
	</linearGradient>
	<path class="st31" d="M482.7,193.8c-14.7-54.5-43.4-89.2-67.5-111.4c-24.6-22.3-46.2-32.2-60.7-39.1c-5.4-2.2-9.9-3.9-13.8-5.2
		c15.9,6.4,30.7,15.1,43.8,25.6c2.9,2.4,4.9,4.7,4.1,5c-0.6,0.5-3.5-1-6.4-3.2l1.7,0.5c-20.3-13.5-43.8-23.8-68.4-29l-0.1,0.2
		l5.3,7.7c23.7,7.4,44.6,20.5,61.5,37.1c0.4,0.3-0.2,0.5-0.5,0.6c0.9,1.2,0.8,1.6-0.4,1.1c-1.1-0.4-2.9-1.8-3.9-2.9
		c-16.5-13.5-35.9-23-56.5-28.5l0,1.2c-3.4,9.6,4.7,5.7,4.8,5.8c71,21.2,124.5,83.4,138.1,151.7c14.4,68.2-8,139.6-52.2,185
		c-43.6,46.5-104.8,68.9-160.3,66.6c-55.9-1.7-104.9-25.7-138.6-57.1c-69-65.5-73.9-149.3-63.8-195.8c9.8-48.9,28.5-69.8,27.2-70.2
		c23.3-38,48.3-57.4,65.4-68.8c8.4-5.5,15.1-9.2,20.4-11.9c-9.8,4.6-23.6,12.1-36,21.4c-7.9,5.6-15,11.9-20.9,17.5
		c3.2-3.1,6.4-6.2,9.7-9.2c15.9-14,33.8-25.8,52.8-35c-11.9,5.4-23.6,11.7-34.5,19.1c8.9-7.1,32.2-21.1,55.3-28.6
		c11.1-3.9,21.9-6.2,30-7.6c0.7-0.3,1.4-0.5,2.1-0.7c-18.2,2.5-49.4,9.8-82.3,31c-42.2,25.9-82.9,77.6-95,137
		C29.4,262.9,44.6,323.5,67,360.8c22,38,45.8,56,45.3,56.1c-8.2-6.6-40.8-32.9-61.2-82.8c-21.6-48.8-24.7-120.9,4-180.5
		c27.4-60.5,82.9-100.7,127.4-116c45.2-15.5,77.3-12.4,77-12.8c-9.5-1.1-50.8-2.2-100.3,20.9C109.9,67.8,57.8,121.1,39.8,187.5
		c-20.3,65.8-3.9,136.4,22.3,178.7c26,43.2,54.6,62.5,54.1,62.7c-6.8-4.7-41.2-30.9-65.7-82.9c-2.9-5.8-5.5-12.1-7.8-18.6
		c4.3,11.9,9.5,23.4,15.7,34.4c27.8,50.4,75.2,88.1,125.4,105.5c50.3,17.3,102.1,15.9,142.3,3.5c82.2-25.5,114.8-78.5,114.7-76.5
		c39.2-48.3,50.3-103.8,50.1-141C490.7,215.3,482.2,193.8,482.7,193.8z M104.9,97.8c-4.8,4.7-8.7,8.9-11.4,12
		C97.2,105.7,101,101.7,104.9,97.8z M89.4,114.6c-0.1,0.2-0.2,0.3-0.2,0.3C89.3,114.8,89.3,114.7,89.4,114.6z"/>
</g>
</svg>
