<?xml version="1.0" encoding="utf-8"?>
<!-- Generator: Adobe Illustrator 22.0.1, SVG Export Plug-In . SVG Version: 6.00 Build 0)  -->
<svg version="1.1" id="Layer_1" xmlns="http://www.w3.org/2000/svg" xmlns:xlink="http://www.w3.org/1999/xlink" x="0px" y="0px"
	 viewBox="0 0 2231.4 1449.8" style="enable-background:new 0 0 2231.4 1449.8;" xml:space="preserve">
<style type="text/css">
	.st0{fill:#888888;}
</style>
<g>
	<g>
		<path class="st0" d="M62.5,1312.8c0-30.1,0-35.5-0.4-41.6c-0.4-6.6-1.9-9.6-8.3-11c-1.5-0.4-4.8-0.6-6.6-0.6
			c-0.8,0-1.5-0.4-1.5-1.2c0-1.2,1-1.5,3.1-1.5c8.7,0,20.8,0.6,21.8,0.6c2.3,0,14.5-0.6,26-0.6c19.1,0,54.4-1.7,77.3,22
			c9.6,10,18.7,26,18.7,49c0,24.3-10,43-20.8,54.4c-8.3,8.7-25.6,22.2-58.4,22.2c-8.3,0-18.5-0.6-26.8-1.2c-8.5-0.6-15-1.2-16-1.2
			c-0.4,0-3.7,0-7.7,0.2c-3.9,0-8.3,0.4-11.2,0.4c-2.1,0-3.1-0.4-3.1-1.5c0-0.6,0.4-1.2,1.5-1.2c1.7,0,4-0.4,5.8-0.8
			c3.9-0.8,4.8-5,5.6-10.6c1-8.1,1-23.3,1-41.8L62.5,1312.8L62.5,1312.8z M78.7,1333.6c0,20.4,0.2,38.2,0.4,41.8
			c0.2,4.8,0.6,12.5,2.1,14.7c2.5,3.7,10,7.7,32.8,7.7c17.9,0,34.5-6.6,45.9-17.9c10-9.8,15.4-28.3,15.4-46.1
			c0-24.5-10.6-40.3-18.5-48.6c-18.1-19.1-40.1-21.8-63-21.8c-3.9,0-11,0.6-12.5,1.3c-1.7,0.8-2.3,1.7-2.3,3.9
			c-0.2,6.6-0.2,26.2-0.2,41.1v23.9H78.7z"/>
		<path class="st0" d="M226.1,1326.1c0-25.4,0-30.1-0.4-35.3c-0.4-5.2-1.3-8.3-6.9-9.1c-1.3-0.2-4.2-0.4-5.8-0.4
			c-0.6,0-1.4-0.8-1.4-1.3c0-1,0.8-1.3,2.7-1.3c7.7,0,17.9,0.4,19.5,0.4s12.1-0.4,17.2-0.4c1.9,0,2.9,0.4,2.9,1.3
			c0,0.6-0.8,1.3-1.5,1.3c-1.2,0-2.1,0-4.2,0.4c-4.4,0.8-5.4,3.7-5.8,9.1c-0.4,5.2-0.4,9.8-0.4,35.3v22.9c0,23.7,5.2,33.5,12.5,40.1
			c8.3,7.5,15.6,8.9,25.3,8.9c10.4,0,20.4-4.6,26.2-11.6c7.9-9.4,9.6-22.9,9.6-39.7v-20.6c0-25.4-0.2-30.1-0.4-35.3
			c-0.2-5.2-1.2-8.3-6.7-9.1c-1.4-0.2-4.2-0.4-5.8-0.4c-0.8,0-1.3-0.8-1.3-1.3c0-1,0.8-1.3,2.7-1.3c7.5,0,17.4,0.4,18.3,0.4
			c1.2,0,9.3-0.4,14.3-0.4c1.9,0,2.7,0.4,2.7,1.3c0,0.6-0.6,1.3-1.4,1.3c-1.2,0-2.1,0-4.2,0.4c-4.6,1-5.6,3.7-6,9.1
			c-0.4,5.2-0.2,9.8-0.2,35.3v17.5c0,17.7-2.3,37.6-15.8,49.2c-12.3,10.6-25.4,12-35.5,12c-5.6,0-23.3-0.4-35.3-11.6
			c-8.3-7.7-14.8-19.1-14.8-43v-24.1H226.1z"/>
		<path class="st0" d="M375.9,1326.1c0-25.4,0-30.1-0.4-35.3c-0.4-5.6-1.3-8.7-6.9-9.4c-1.3-0.2-4.2-0.4-5.8-0.4
			c-0.6,0-1.4-0.4-1.4-1c0-1,0.8-1.3,2.7-1.3c7.7,0,18.7,0.4,19.7,0.4c4,0,12-0.4,19.9-0.4c28.3,0,35.7,16.4,35.7,25.1
			c0,12.9-8.5,21-17.2,28.7c12.9,3.9,29.9,15.6,29.9,34.1c0,18.3-13.7,36.4-42.6,36.4c-3.1,0-9.3-0.2-14.7-0.6
			c-5.4-0.2-10.2-0.4-11-0.4c-0.4,0-3.5,0.2-6.9,0.2c-3.5,0.2-7.5,0.4-10.2,0.4c-1.7,0-2.7-0.4-2.7-1.3c0-0.6,0.4-1,1.4-1
			c1.5,0,3.7-0.6,5.2-0.8c3.3-0.6,3.7-4.2,4.4-9.1c1-6.7,1-19.7,1-35.5v-28.8H375.9z M390.6,1329.5c0,1.2,0.4,1.5,1.2,1.7
			c1,0.2,4,0.8,10.4,0.8c9.4,0,13.1-0.4,16.6-4.2c3.7-4,6.6-9.6,6.6-17.5c0-12.5-6.9-26.4-23.9-26.4c-1.9,0-6,0.2-8.7,0.8
			c-1.5,0.4-2.1,0.8-2.1,1.7v43.1H390.6z M390.6,1347.7c0,12.7,0,32.4,0.2,34.9c0.6,7.9,0.6,9.8,5.8,12.3c4.6,2.1,11.8,2.3,14.8,2.3
			c11.2,0,24.9-4.2,24.9-25.3c0-7.3-2.9-21.4-16.2-29.9c-5.8-3.7-11.2-3.5-15.2-4.2c-2.1-0.4-10.6-0.4-13.3-0.4c-0.6,0-1,0.4-1,1.2
			L390.6,1347.7L390.6,1347.7z"/>
		<path class="st0" d="M519.2,1281.9c2.1-5.4,2.9-6.4,4-6.4c1.7,0,2.3,2.3,4,6c3.1,6.9,30.3,74.6,40.7,99.5
			c6.2,14.7,10.8,16.8,14.5,17.9c2.5,0.8,5,1,6.7,1c1,0,2.1,0.4,2.1,1.3c0,1-1.9,1.3-3.9,1.3c-2.5,0-15,0-26.8-0.4
			c-3.3-0.2-6-0.2-6-1.2c0-0.8,0.4-0.8,1.2-1.2c1-0.4,2.7-1.7,1.5-4.4l-15.2-37.6c-0.4-0.8-0.6-1-1.5-1h-39.1
			c-0.8,0-1.4,0.4-1.7,1.4l-9.6,26.2c-1.5,4-2.5,8.1-2.5,11c0,3.3,2.9,4.4,5.8,4.4h1.5c1.4,0,1.7,0.6,1.7,1.3c0,1-1,1.3-2.5,1.3
			c-4,0-13.3-0.6-15.2-0.6c-1.7,0-10.2,0.6-17.2,0.6c-2.1,0-3.3-0.4-3.3-1.3c0-0.8,0.8-1.3,1.5-1.3c1.2,0,3.7-0.2,5-0.4
			c7.7-1,11-6.7,14.3-15L519.2,1281.9z M538.1,1350.2c0.8,0,0.8-0.4,0.6-1.2l-16.8-44.9c-1-2.5-1.9-2.5-2.9,0l-15.8,44.9
			c-0.2,0.8,0,1.2,0.6,1.2H538.1z"/>
		<path class="st0" d="M629.1,1355c0,15.8,0,28.7,0.8,35.5c0.6,4.8,1.2,7.9,6.2,8.7c2.5,0.4,6.2,0.8,7.7,0.8c1,0,1.4,0.8,1.4,1.3
			c0,0.8-0.8,1.3-2.7,1.3c-9.4,0-20.4-0.6-21.2-0.6c-1,0-11.6,0.6-16.8,0.6c-1.7,0-2.7-0.4-2.7-1.3c0-0.6,0.4-1.3,1.3-1.3
			c1.5,0,3.7-0.4,5.2-0.8c3.3-0.8,3.9-3.9,4.4-8.7c0.8-6.7,1-19.7,1-35.5v-28.9c0-25.4,0-30.1-0.4-35.3c-0.4-5.6-1.7-8.1-5.4-8.9
			c-1.9-0.4-4-0.6-5.2-0.6c-0.8,0-1.4-0.8-1.4-1.3c0-1,0.8-1.3,2.7-1.3c5.6,0,16.2,0.4,17.2,0.4c0.8,0,11.8-0.4,17-0.4
			c1.9,0,2.7,0.4,2.7,1.3c0,0.6-0.8,1.3-1.3,1.3c-1.2,0-2.3,0-4.2,0.4c-4.6,1-5.6,3.3-6,9.1c-0.2,5.2-0.2,9.8-0.2,35.3L629.1,1355
			L629.1,1355z"/>
		<path class="st0" d="M755.7,1312.8c0-30.1,0-35.5-0.4-41.6c-0.4-6.6-1.9-9.6-8.3-11c-1.5-0.4-4.8-0.6-6.6-0.6
			c-0.8,0-1.5-0.4-1.5-1.2c0-1.2,1-1.5,3.1-1.5c8.7,0,20.8,0.6,21.8,0.6c2.1,0,16.8-0.6,22.8-0.6c12.1,0,25.1,1.2,35.3,8.5
			c4.8,3.5,13.3,12.9,13.3,26.2c0,14.3-6,28.5-23.3,44.5c15.8,20.2,28.9,37.4,40.1,49.4c10.4,11,18.7,13.1,23.5,13.9
			c3.7,0.6,6.4,0.6,7.5,0.6c1,0,1.7,0.6,1.7,1.2c0,1.2-1.2,1.5-4.6,1.5h-13.7c-10.8,0-15.6-1-20.6-3.7c-8.3-4.4-15-13.9-26-28.3
			c-8.1-10.6-17.2-23.5-21-28.5c-0.8-0.8-1.3-1.2-2.5-1.2l-23.7-0.4c-1,0-1.3,0.6-1.3,1.5v4.6c0,18.5,0,33.7,1,41.8
			c0.6,5.6,1.7,9.8,7.5,10.6c2.7,0.4,6.9,0.8,8.7,0.8c1.2,0,1.5,0.6,1.5,1.2c0,1-1,1.5-3.1,1.5c-10.6,0-22.8-0.6-23.7-0.6
			c-0.2,0-12.3,0.6-18.1,0.6c-2.1,0-3.1-0.4-3.1-1.5c0-0.6,0.4-1.2,1.5-1.2c1.7,0,4-0.4,5.8-0.8c3.9-0.8,4.8-5,5.6-10.6
			c1-8.1,1-23.3,1-41.8v-33.9H755.7z M771.1,1329.5c0,1,0.4,1.7,1.3,2.3c2.9,1.7,11.8,3.1,20.2,3.1c4.6,0,10-0.6,14.5-3.7
			c6.7-4.6,11.8-15,11.8-29.7c0-24.1-12.7-38.6-33.4-38.6c-5.8,0-11,0.6-12.9,1.2c-1,0.4-1.5,1.2-1.5,2.3L771.1,1329.5L771.1,1329.5
			z"/>
		<path class="st0" d="M896.6,1326.1c0-25.4,0-30.1-0.4-35.3c-0.4-5.6-1.3-8.3-6.9-9.1c-1.3-0.2-4.2-0.4-5.8-0.4
			c-0.6,0-1.4-0.8-1.4-1.3c0-1,0.8-1.3,2.7-1.3c7.7,0,18.7,0.4,19.7,0.4c1.2,0,36.6,0.2,40.5,0c3.3-0.2,6.4-0.8,7.7-1
			c0.8-0.2,1.5-0.8,2.3-0.8c0.6,0,0.8,0.8,0.8,1.5c0,1.2-1,3.1-1.3,7.7c-0.2,1.5-0.6,8.9-1,10.8c-0.2,0.8-0.8,1.7-1.5,1.7
			c-1,0-1.3-0.8-1.3-2.1c0-1.2-0.2-3.9-1-5.8c-1.2-2.7-2.9-3.9-12.1-5c-2.9-0.4-22.6-0.6-24.5-0.6c-0.8,0-1,0.6-1,1.7v44.5
			c0,1.2,0,1.7,1,1.7c2.1,0,24.5,0,28.3-0.4c4-0.4,6.6-0.6,8.3-2.3c1.2-1.2,1.9-2.1,2.5-2.1s1,0.4,1,1.3s-1,3.7-1.4,9.1
			c-0.4,3.3-0.8,9.4-0.8,10.6c0,1.3-0.4,3.1-1.5,3.1c-0.8,0-1.2-0.6-1.2-1.5c0-1.5,0-3.3-0.8-5.4c-0.6-2.3-2.1-4.2-8.7-5
			c-4.6-0.6-22.8-0.8-25.6-0.8c-1,0-1.2,0.6-1.2,1.2v13.7c0,5.6-0.2,24.7,0,28c0.4,11,3.5,13.1,20.2,13.1c4.4,0,12.5,0,17-1.7
			c4.4-1.9,6.7-4.8,7.7-11.4c0.4-1.9,0.8-2.5,1.7-2.5c1,0,1.2,1.3,1.2,2.5s-1.4,12.3-2.3,15.8c-1.2,4.2-2.9,4.2-9.4,4.2
			c-12.7,0-22.6-0.4-29.5-0.6c-7.1-0.4-11.6-0.4-14.1-0.4c-0.4,0-3.7,0-7.3,0.2c-3.3,0.2-7.1,0.4-9.8,0.4c-1.7,0-2.7-0.4-2.7-1.3
			c0-0.6,0.4-1.3,1.4-1.3c1.5,0,3.7-0.6,5.2-0.8c3.3-0.6,3.7-3.9,4.4-8.7c1-6.7,1-19.7,1-35.5v-28.8H896.6z"/>
		<path class="st0" d="M1002.9,1326.1c0-25.4,0-30.1-0.4-35.3c-0.4-5.6-1.4-8.3-6.9-9.1c-1.4-0.2-4.2-0.4-5.8-0.4
			c-0.6,0-1.3-0.8-1.3-1.3c0-1,0.8-1.3,2.7-1.3c7.7,0,18.3,0.4,19.3,0.4c3.3,0,40.1,0.2,44,0c3.3-0.2,6.2-0.2,7.7-0.8
			c1-0.2,1.7-1,2.3-1c0.8,0,1.2,0.8,1.2,1.5c0,1.2-0.8,3.1-1.3,7.7c-0.2,1.5-0.4,8.9-0.8,10.8c-0.2,0.8-0.8,1.7-1.5,1.7
			s-1.4-0.8-1.4-1.9c0-1.3-0.6-4-1.5-6.2c-1-2.1-5-4.8-11.6-4.8l-27.8-0.4c-1,0-1.4,0.4-1.4,1.7v44.7c0,1,0,1.5,1.2,1.5l23.1-0.2
			c2.9,0,5.4,0,7.7-0.2c4-0.4,6.4-1,7.9-2.9c0.8-1,1.5-1.7,2.1-1.7c0.8,0,1,0.6,1,1.3c0,1-1.2,3.7-1.5,9.1c-0.4,3.3-0.6,9.8-0.6,11
			c0,1.5-0.4,3.3-1.5,3.3c-1,0-1.2-0.8-1.2-1.5c-0.2-1.7-0.4-4-1.2-6c-0.8-2.3-3.5-4.4-8.7-5.2c-4.2-0.6-24.3-0.4-27.2-0.4
			c-1,0-1.2,0.4-1.2,1.5v13.1c0,16.2,0,29.1,0.8,35.5c0.6,4.8,1.5,7.9,6.2,8.7c2.5,0.4,6.2,0.8,7.7,0.8c1,0,1.4,0.8,1.4,1.3
			c0,0.8-0.8,1.3-2.7,1.3c-9.4,0-20.4-0.6-21.2-0.6c-1,0-11.6,0.6-16.8,0.6c-1.7,0-2.7-0.4-2.7-1.3c0-0.6,0.4-1.3,1.3-1.3
			c1.5,0,3.7-0.6,5.2-0.8c3.3-0.6,3.7-3.9,4.4-8.7c1-6.7,1-19.7,1-35.5L1002.9,1326.1L1002.9,1326.1z"/>
		<path class="st0" d="M1106,1326.1c0-25.4,0-30.1-0.4-35.3c-0.4-5.6-1.3-8.3-6.9-9.1c-1.3-0.2-4.2-0.4-5.8-0.4
			c-0.6,0-1.4-0.8-1.4-1.3c0-1,0.8-1.3,2.7-1.3c7.7,0,19.1,0.4,20.1,0.4c1.7,0,16-0.4,21.2-0.4c10.8,0,22.8,1,31.6,7.1
			c4.2,3.1,11.8,11,11.8,22.4c0,12.1-5,23.9-20.8,37.4c13.9,17.4,25.6,32.2,35.5,42.4c9.1,9.3,14.7,10.8,18.9,11.4
			c3.3,0.6,5,0.6,6,0.6s1.5,0.8,1.5,1.3c0,1-1,1.3-4,1.3h-10.6c-9.6,0-13.9-1-18.1-3.3c-7.3-3.9-13.5-11.8-23.1-24.1
			c-7.1-8.9-14.7-19.5-18.3-23.9c-0.8-0.8-1.2-1-2.3-1l-21.6-0.4c-0.8,0-1.2,0.4-1.2,1.3v3.9c0,15.8,0,28.5,0.8,35.3
			c0.6,4.8,1.5,7.9,6.7,8.7c2.3,0.4,6,0.8,7.5,0.8c1.2,0,1.3,0.8,1.3,1.3c0,0.8-0.8,1.3-2.7,1.3c-9.3,0-20.1-0.6-20.8-0.6
			c-0.2,0-11.6,0.6-16.8,0.6c-1.7,0-2.7-0.4-2.7-1.3c0-0.6,0.4-1.3,1.4-1.3c1.5,0,3.7-0.4,5.2-0.8c3.3-0.8,3.7-3.9,4.4-8.7
			c1-6.7,1-19.7,1-35.5L1106,1326.1L1106,1326.1z M1120.7,1339.9c0,1,0.4,1.5,1.2,2.1c2.5,1.3,11.2,2.5,18.7,2.5
			c4,0,8.7-0.2,12.7-2.9c5.8-3.9,10.2-12.5,10.2-25.1c0-20.4-11.2-32.2-29.3-32.2c-5,0-10.4,0.6-12.1,1c-0.8,0.4-1.3,1-1.3,1.9
			L1120.7,1339.9L1120.7,1339.9z"/>
		<path class="st0" d="M1235.6,1326.1c0-25.4,0-30.1-0.4-35.3c-0.4-5.6-1.3-8.3-6.9-9.1c-1.4-0.2-4.2-0.4-5.8-0.4
			c-0.6,0-1.3-0.8-1.3-1.3c0-1,0.8-1.3,2.7-1.3c7.7,0,18.7,0.4,19.7,0.4c1.2,0,36.6,0.2,40.5,0c3.3-0.2,6.4-0.8,7.7-1
			c0.8-0.2,1.5-0.8,2.3-0.8c0.6,0,0.8,0.8,0.8,1.5c0,1.2-1,3.1-1.3,7.7c-0.2,1.5-0.6,8.9-1,10.8c-0.2,0.8-0.8,1.7-1.5,1.7
			c-1,0-1.4-0.8-1.4-2.1c0-1.2-0.2-3.9-1-5.8c-1.2-2.7-2.9-3.9-12.1-5c-2.9-0.4-22.6-0.6-24.5-0.6c-0.8,0-1,0.6-1,1.7v44.5
			c0,1.2,0,1.7,1,1.7c2.1,0,24.5,0,28.3-0.4c4-0.4,6.6-0.6,8.3-2.3c1.2-1.2,1.9-2.1,2.5-2.1s1,0.4,1,1.3s-1,3.7-1.3,9.1
			c-0.4,3.3-0.8,9.4-0.8,10.6c0,1.3-0.4,3.1-1.5,3.1c-0.8,0-1.2-0.6-1.2-1.5c0-1.5,0-3.3-0.8-5.4c-0.6-2.3-2.1-4.2-8.7-5
			c-4.6-0.6-22.7-0.8-25.6-0.8c-1,0-1.2,0.6-1.2,1.2v13.7c0,5.6-0.2,24.7,0,28c0.4,11,3.5,13.1,20.2,13.1c4.4,0,12.5,0,17-1.7
			c4.4-1.9,6.7-4.8,7.7-11.4c0.4-1.9,0.8-2.5,1.7-2.5s1.2,1.3,1.2,2.5s-1.3,12.3-2.3,15.8c-1.2,4.2-2.9,4.2-9.4,4.2
			c-12.7,0-22.6-0.4-29.5-0.6c-7.1-0.4-11.6-0.4-14.1-0.4c-0.4,0-3.7,0-7.3,0.2c-3.3,0.2-7.1,0.4-9.8,0.4c-1.7,0-2.7-0.4-2.7-1.3
			c0-0.6,0.4-1.3,1.3-1.3c1.5,0,3.7-0.6,5.2-0.8c3.3-0.6,3.7-3.9,4.4-8.7c1-6.7,1-19.7,1-35.5L1235.6,1326.1L1235.6,1326.1z"/>
		<path class="st0" d="M1327.5,1400.3c-2.3-1.2-2.5-1.7-2.5-6.2c0-8.1,0.8-14.7,1-17.4c0-1.7,0.4-2.7,1.3-2.7c1,0,1.5,0.6,1.5,1.9
			s0,3.7,0.6,6c2.7,12,15.4,16.2,26.8,16.2c16.8,0,25.4-9.4,25.4-21.8c0-11.8-6.4-17.4-21.4-28.5l-7.7-5.8
			c-18.3-13.7-24.3-23.7-24.3-35.1c0-19.3,15.2-30.8,37.6-30.8c6.7,0,13.5,1,17.5,1.9c3.3,0.8,4.6,0.8,6,0.8s1.7,0.2,1.7,1.2
			c0,0.8-0.8,6.2-0.8,17.4c0,2.5-0.2,3.7-1.3,3.7c-1.2,0-1.3-0.8-1.5-2.1c-0.2-1.9-1.5-6.4-2.5-8.1c-1.2-1.9-6.7-8.1-22-8.1
			c-12.3,0-22.6,6.2-22.6,17.7c0,10.4,5.2,16.4,22,27.8l4.8,3.3c20.6,14.1,27.8,25.4,27.8,39.5c0,9.6-3.7,20.1-15.8,28
			c-7.1,4.6-17.7,5.8-27,5.8C1344.3,1404.7,1334.5,1403.6,1327.5,1400.3z"/>
		<path class="st0" d="M1542.5,1355c0,15.8,0.2,28.7,1,35.5c0.6,4.8,1,7.9,6.2,8.7c2.3,0.4,6.2,0.8,7.5,0.8c1.2,0,1.5,0.8,1.5,1.3
			c0,0.8-1,1.3-2.9,1.3c-9.3,0-20.1-0.6-21-0.6c-0.8,0-11.8,0.6-16.8,0.6c-1.9,0-2.7-0.4-2.7-1.3c0-0.6,0.4-1.3,1.3-1.3
			c1.5,0,3.5-0.4,5-0.8c3.5-0.8,4-4,4.6-8.9c0.8-6.7,0.8-19.1,0.8-34.9V1339c0-0.8-0.4-1-1-1h-70.8c-0.6,0-1,0.2-1,1v16.4
			c0,15.8,0,28.3,0.8,35.1c0.6,4.8,1.2,7.9,6.2,8.7c2.5,0.4,6.2,0.8,7.7,0.8c1,0,1.3,0.8,1.3,1.3c0,0.8-0.8,1.3-2.7,1.3
			c-9.4,0-20.2-0.6-21-0.6c-1,0-11.8,0.6-17,0.6c-1.7,0-2.7-0.4-2.7-1.3c0-0.6,0.4-1.3,1.3-1.3c1.5,0,3.7-0.4,5.2-0.8
			c3.3-0.8,3.7-3.9,4.4-8.7c1-6.7,1-19.7,1-35.5v-28.9c0-25.4,0-30.1-0.4-35.3c-0.4-5.6-1.3-8.3-6.9-9.1c-1.4-0.2-4.2-0.4-5.8-0.4
			c-0.6,0-1.3-0.8-1.3-1.3c0-1,0.8-1.3,2.7-1.3c7.7,0,18.5,0.4,19.5,0.4c0.8,0,11.6-0.4,16.8-0.4c1.9,0,2.7,0.4,2.7,1.3
			c0,0.6-0.8,1.3-1.3,1.3c-1.2,0-2.3,0-4.2,0.4c-4.6,1-5.6,3.3-6,9.1c-0.2,5.2-0.2,10.2-0.2,35.7v3.5c0,1,0.4,1,1,1h70.8
			c0.6,0,1,0,1-1v-3.5c0-25.4-0.2-30.5-0.4-35.7c-0.4-5.6-1.2-8.3-6.8-9.1c-1.3-0.2-4.2-0.4-5.8-0.4c-0.8,0-1.3-0.8-1.3-1.3
			c0-1,0.8-1.3,2.7-1.3c7.5,0,18.5,0.4,19.3,0.4c1,0,11.8-0.4,16.8-0.4c1.9,0,2.9,0.4,2.9,1.3c0,0.6-0.8,1.3-1.5,1.3
			c-1.2,0-2.1,0-4.2,0.4c-4.4,1-5.4,3.3-5.8,9.1c-0.4,5.2-0.4,9.8-0.4,35.3L1542.5,1355L1542.5,1355z"/>
		<path class="st0" d="M1729.3,1381.4c0.6,5.8,1.7,14.7,8.7,17c4.8,1.5,9.3,1.5,11,1.5c0.8,0,1.3,0.4,1.3,1.2c0,1-1.5,1.5-3.5,1.5
			c-3.9,0-22.8-0.4-28.9-1c-4-0.4-4.8-1-4.8-1.7c0-0.6,0.4-1.2,1.2-1.4c1-0.2,1.2-2.7,0.8-5.8l-8.1-82.9h-0.4l-40.9,83.7
			c-3.5,7.1-4.4,8.7-6,8.7c-1.5,0-2.5-1.5-5.8-7.5c-4.4-8.1-15.6-29.1-19.9-38c-5-10.4-18.7-38-21.6-44.7h-0.8l-6.6,74
			c-0.2,2.5-0.2,5.6-0.2,8.3c0,2.5,1.5,4,4,4.6c2.9,0.8,5.4,1,6.6,1c0.6,0,1.3,0.6,1.3,1.2c0,1.2-1.2,1.5-3.1,1.5
			c-6.4,0-14.5-0.6-15.8-0.6c-1.5,0-9.6,0.6-14.3,0.6c-1.7,0-2.9-0.4-2.9-1.5c0-0.6,0.8-1.2,1.7-1.2c1.3,0,2.5-0.2,5-0.6
			c5.6-1,5.8-6.9,6.6-13.1l12.3-107c0.2-1.7,1-2.9,1.9-2.9c1.2,0,2.5,0.6,3.5,2.5l51.3,101.8l49.4-101.6c0.8-1.5,1.5-2.7,2.7-2.7
			s2.1,1.3,2.5,4.4L1729.3,1381.4z"/>
		<path class="st0" d="M1780.4,1326.1c0-25.4,0-30.1-0.4-35.3c-0.4-5.6-1.3-8.3-6.9-9.1c-1.4-0.2-4.2-0.4-5.8-0.4
			c-0.6,0-1.3-0.8-1.3-1.3c0-1,0.8-1.3,2.7-1.3c7.7,0,18.7,0.4,19.7,0.4c1.2,0,36.6,0.2,40.5,0c3.3-0.2,6.4-0.8,7.7-1
			c0.8-0.2,1.5-0.8,2.3-0.8c0.6,0,0.8,0.8,0.8,1.5c0,1.2-1,3.1-1.3,7.7c-0.2,1.5-0.6,8.9-1,10.8c-0.2,0.8-0.8,1.7-1.5,1.7
			c-1,0-1.4-0.8-1.4-2.1c0-1.2-0.2-3.9-1-5.8c-1.2-2.7-2.9-3.9-12.1-5c-2.9-0.4-22.6-0.6-24.5-0.6c-0.8,0-1,0.6-1,1.7v44.5
			c0,1.2,0,1.7,1,1.7c2.1,0,24.5,0,28.3-0.4c4-0.4,6.6-0.6,8.3-2.3c1.2-1.2,1.9-2.1,2.5-2.1s1,0.4,1,1.3s-1,3.7-1.3,9.1
			c-0.4,3.3-0.8,9.4-0.8,10.6c0,1.3-0.4,3.1-1.5,3.1c-0.8,0-1.2-0.6-1.2-1.5c0-1.5,0-3.3-0.8-5.4c-0.6-2.3-2.1-4.2-8.7-5
			c-4.6-0.6-22.7-0.8-25.6-0.8c-1,0-1.2,0.6-1.2,1.2v13.7c0,5.6-0.2,24.7,0,28c0.4,11,3.5,13.1,20.2,13.1c4.4,0,12.5,0,17-1.7
			c4.4-1.9,6.7-4.8,7.7-11.4c0.4-1.9,0.8-2.5,1.7-2.5c1,0,1.2,1.3,1.2,2.5s-1.3,12.3-2.3,15.8c-1.2,4.2-2.9,4.2-9.4,4.2
			c-12.7,0-22.6-0.4-29.5-0.6c-7.1-0.4-11.6-0.4-14.1-0.4c-0.4,0-3.7,0-7.3,0.2c-3.3,0.2-7.1,0.4-9.8,0.4c-1.7,0-2.7-0.4-2.7-1.3
			c0-0.6,0.4-1.3,1.3-1.3c1.5,0,3.7-0.6,5.2-0.8c3.3-0.6,3.7-3.9,4.4-8.7c1-6.7,1-19.7,1-35.5L1780.4,1326.1L1780.4,1326.1z"/>
		<path class="st0" d="M1893.7,1380.2c0.4,13.5,1.9,17.5,6.6,18.7c3.1,0.8,6.9,1,8.5,1c0.8,0,1.4,0.6,1.4,1.3c0,1-1.2,1.3-3.1,1.3
			c-9.6,0-16.4-0.6-17.9-0.6s-8.7,0.6-16.4,0.6c-1.7,0-2.7-0.2-2.7-1.3c0-0.8,0.6-1.3,1.3-1.3c1.3,0,4.4-0.2,6.9-1
			c4.2-1.2,4.8-5.6,4.8-20.4v-93.9c0-6.6,1-8.3,2.3-8.3c1.9,0,4.8,3.3,6.6,5c2.7,2.7,27.4,28.9,53.6,55.9
			c16.8,17.4,34.9,36.8,40.1,42.2l-1.7-82.1c-0.2-10.6-1.2-14.3-6.4-15.2c-3.1-0.6-6.9-0.8-8.3-0.8c-1.2,0-1.3-1-1.3-1.5
			c0-1,1.3-1.2,3.3-1.2c7.7,0,15.8,0.4,17.7,0.4c1.9,0,7.5-0.4,14.5-0.4c1.7,0,3.1,0.2,3.1,1.2c0,0.6-0.8,1.5-1.9,1.5
			c-0.8,0-2.1,0-4,0.4c-5.6,1.2-6,4.4-6,14.3l-0.4,96c0,10.8-0.2,11.8-1.3,11.8c-1.7,0-3.5-1.3-12.9-10
			c-1.7-1.5-26.2-25.6-44.1-44.3c-19.7-20.6-38.8-40.7-44-46.5L1893.7,1380.2z"/>
		<path class="st0" d="M2084.2,1355c0,15.8,0,28.7,0.8,35.5c0.6,4.8,1.4,7.9,6.6,8.7c2.3,0.4,6.2,0.8,7.7,0.8c1.2,0,1.3,0.8,1.3,1.3
			c0,0.8-0.8,1.3-2.7,1.3c-9.3,0-20.1-0.6-21-0.6c-0.8,0-12.5,0.6-17.5,0.6c-1.9,0-2.7-0.4-2.7-1.3c0-0.6,0.4-1.2,1.3-1.2
			c1.5,0,3.5-0.4,5-0.8c3.5-0.8,4.4-4,5-8.9c0.8-6.7,0.8-19.7,0.8-35.5v-68.8l-24.5,0.4c-10.6,0.2-14.7,1.3-17.2,5.2
			c-1.9,2.9-2.1,4-2.7,5.2c-0.4,1.3-1,1.5-1.7,1.5c-0.4,0-1.2-0.4-1.2-1.3c0-1.7,3.5-16.4,3.7-17.7c0.4-1,1.2-3.1,1.7-3.1
			c1.2,0,2.9,1.3,7.5,1.9c4.8,0.6,11.4,0.8,13.3,0.8h64c5.6,0,9.4-0.4,12.1-0.8c2.5-0.4,4-0.8,4.8-0.8s0.8,1,0.8,1.9
			c0,5-0.6,16.8-0.6,18.7c0,1.3-0.8,2.1-1.5,2.1s-1.2-0.6-1.3-2.9l-0.2-1.7c-0.6-5-4.2-8.7-20.4-9.1l-21.2-0.4L2084.2,1355
			L2084.2,1355z"/>
	</g>
	<g>
		<path class="st0" d="M255.3,1075.6c5.1,0,9.3-4.2,9.3-9.3c0-5.1-4.2-9.3-9.3-9.3c-4.9,0-9.3,4.2-9.3,9
			C246.1,1071.5,250.1,1075.6,255.3,1075.6z"/>
		<path class="st0" d="M283.1,1075.6c5.1,0,9.3-4.2,9.3-9.3c0-5.1-4.2-9.3-9.3-9.3c-4.9,0-9.3,4.2-9.3,9
			C273.8,1071.5,277.8,1075.6,283.1,1075.6z"/>
		<path class="st0" d="M315.9,1098.3l0.4,1.2l0.1,0.1c2.4,1.7,2.4,3.7,2.4,12v12.1c0,12.8-1,24.3-12.6,24.3h-66.4
			c-13.9,0-25.4-6.6-30-17.2c-4.9-11.2-1.3-24.4,9.8-36.3l0.2-0.2l-2.7-5.7l-0.4,0.4c-22.4,21.2-18.3,40-15.4,47.1
			c5.2,13,18.6,21.7,33.4,21.7h78.1c13.6,0,21.2-8.7,21.2-24.4v-28.7c0-7.9,1.2-11.6,2.3-14v-2.3l-20,9.9H315.9z"/>
		<path class="st0" d="M608.6,1188.5c-4.9,0-9.3,4.2-9.3,9c0,5.4,4,9.5,9.3,9.5c5.1,0,9.3-4.2,9.3-9.3
			C617.9,1192.7,613.8,1188.5,608.6,1188.5z"/>
		<path class="st0" d="M796,1087.6c-37.4,0-56.2,29.8-64.3,49l2.5-121.5c0-6.8,1.1-10.4,1.8-12.7c0.4-1.2,0.6-2.1,0.5-2.9l-0.1-0.6
			L716,1009l0.4,0.4c2.4,2.4,2.7,3.6,2.7,12.8V1148H693h-3.2h-42.3h-3.2H634c-6.4,0-16.2-6.3-16.8-16.1v-27.3c0-7.9,1.2-11.6,2.3-14
			v-2.3l-20,9.9l-0.3,0.2l0.4,1.2l0.1,0.1c2.4,1.7,2.4,3.7,2.4,12v16.5c0,4,0.1,12.3-4.4,16.8c-2,2-4.8,3.1-8.2,3.1h-15h-3.2H529h-3
			h-42.3h-3.2h-42.3H435h-42.3h-3.2h-12.2c-11.7,0-12.6-11.5-12.6-24.3v-110c0-7.9,1.2-11.6,2.3-14v-2.3l-20,9.9l-0.3,0.2l0.4,1.2
			l0.1,0.1c2.4,1.7,2.4,3.7,2.4,12v112.6c0,15.8,7.5,24.4,21.2,24.4h18.7h3.2H435h3.2h42.3h3.2H526h3.2h42.3h3.2h21.5
			c9.3,0,15.5-3.8,19-11.7c4.8,6.6,10.6,9.1,15.2,10.5c3.4,0.8,6.4,1.2,9.2,1.2h4.9h3.2H690h3.2h123.3c13.3,0,20-9.2,20-27.5
			C836.3,1110.5,825.8,1087.6,796,1087.6z M821,1132.1c0,14.2-5.7,15.9-10.1,15.9h-79.1c2.7-5.8,9.6-19.3,20.8-30.7
			c12.3-12.5,26-18.8,40.8-18.8c11.2,0,19.1,4.1,23.4,12.2C820.6,1117.7,821,1126.2,821,1132.1z"/>
		<path class="st0" d="M1333.6,1007.4l0.4,1.2l0.1,0.1c2.4,1.7,2.4,3.7,2.4,12v103c0,12.8-1,24.3-12.6,24.3h-18.2h-3.2h-10.3
			c-6.4,0-16.2-6.3-16.8-16.1v-118.2c0-7.9,1.2-11.6,2.3-14v-2.3l-20.3,10l0.4,1.2l0.1,0.1c2.4,1.7,2.4,3.7,2.4,12v107.4
			c0,4,0.1,12.3-4.4,16.8c-2,2-4.8,3.1-8.2,3.1h-15h-3.2h-42.3h-3.2h-42.3h-3.2h-42.3h-3.2h-42h-3.2h-9.6c-10.9,0-13.3-10.1-13.3-14
			v-8.6c0-17.7-10.3-26.3-31.4-26.3c-22.8,0-39.5,14.5-40.7,35.4c0,0.1-0.3,13.6-12.6,13.6H932h-3.2h-10.3
			c-6.3,0-15.7-5.3-16.8-15.2v-24.2c0-6.6,2.1-18.3,2.7-19.4l0.4-0.6h-21.3l0.4,0.6c0.6,1.1,2.7,12.8,2.7,19.4v64.3
			c-0.2,4.4-1.3,8.6-3.2,12.4c-4.5,8.2-12.1,12.1-23.2,12.1c-4.4,0-10.9-0.8-17-4.6l-0.7-0.4l0.3,6.9l0.2,0.1
			c9.9,6.1,15.2,7.8,24.7,7.8c19.1,0,34-14.1,34-32.1v-26.1c4.5,5,9.8,6.9,13.9,7.9c2.5,0.6,5.3,0.9,8.3,0.9h4.9h3.2h11.7
			c5.1,0,9.5-1.4,13.4-4.2c5.3,10.8,18.2,17.3,27.7,17.3c16.4,0,28.4-6.7,34.6-19.3c4.1,4.1,9.1,6.2,14.8,6.2h13.8h3.2h42.3h3.2
			h42.3h3.2h42.3h3.2h42.3h3.2h21.5c9.3,0,15.5-3.8,19-11.7c4.8,6.6,10.6,9.1,15.2,10.5c3.4,0.8,6.4,1.2,9.2,1.2h4.9h3.2h24.7
			c13.7,0,21.2-8.7,21.2-24.4v-119.6c0-7.9,1.2-11.6,2.3-14v-2.3l-19.9,9.9L1333.6,1007.4z M993.4,1104.7
			c15.5,0,15.8,14.3,16.2,29.5c0,1.9,0.1,3.9,0.2,5.8c0.3,8.7-1.4,15-4.9,18.6c-2.6,2.7-6.3,4-11,4c-13.4,0-25.2-14.5-25.2-31
			C968.7,1117,980,1104.7,993.4,1104.7z"/>
		<path class="st0" d="M1452.3,1231.6c-4.8,0-8.8,4.2-8.8,9.3c0,5.2,4,9.5,8.8,9.5c4.9,0,9.3-4.4,9.3-9.5
			C1461.6,1236.1,1457.2,1231.6,1452.3,1231.6z"/>
		<path class="st0" d="M1480,1231.6c-4.9,0-9.3,4.4-9.3,9.3c0,5.4,4,9.5,9.3,9.5c4.9,0,8.8-4.3,8.8-9.5
			C1488.8,1235.9,1484.8,1231.6,1480,1231.6z"/>
		<path class="st0" d="M1889.9,1098.3l0.4,1.2l0.1,0.1c2.4,1.7,2.4,3.7,2.4,12v12.1c0,12.8-1,24.3-12.6,24.3H1862h-3.2h-42.3h-3.2
			H1771h-3.2h-42.3h-3.2H1680h-3.2h-42.3h-3.2H1589h-3.2h-42.3h-3.2h-15.1c-4.4-10.8-17.9-18.9-30.6-25.4l-0.6-0.3v9.8l0.2,0.1
			c11,5.8,17.9,14.1,19.4,23.4c1.4,8.9-2.2,18.2-10.4,26.7c-9.7,10.1-18.6,11.5-26.7,11.5c-20.5,0-37.3-13.1-46.2-25.4
			c-5.4-7.5-7.9-14.7-6.6-18.8c1.6-3.8,3.5-6.3,10.3-10l0.4-0.2l-2-3.7l-0.4,0.2c-11.8,5.3-19.2,12-20.8,19
			c-1.1,5.7,2.8,14.9,10.4,24.1c11.2,13.6,31.5,28.2,54.9,28.2c11.7,0,26.2-12.8,33.9-20.4c6-6.4,16.1-18.5,16.7-29h13.4h3.2h42.3
			h3.2h42.3h3.2h42.3h3.2h42.3h3.2h42.3h3.2h42.3h3.2h42.3h3.2h24.7c13.7,0,21.2-8.7,21.2-24.4v-28.7c0-7.9,1.2-11.6,2.3-14v-2.3
			l-19.9,9.9L1889.9,1098.3z"/>
		<path class="st0" d="M1885.1,1188.5c-4.9,0-9.3,4.2-9.3,9c0,5.4,4,9.5,9.3,9.5c5.1,0,9.3-4.2,9.3-9.3
			C1894.3,1192.7,1890.2,1188.5,1885.1,1188.5z"/>
		<path class="st0" d="M1950.3,1088.5c-12,0-21.5,4.6-24.9,11.9l-0.2,0.3l0.3,0.2c2.4,1.5,3.5,2.1,4.8,2.9c0.8,0.5,1.8,1,3.2,1.8
			l0.5,0.3l0.1-0.6c1.3-7,5.5-10.4,12.8-10.4c0.5,0,0.9,0,1.4,0c6.4,0.2,12.4,2.2,12.4,15.2v37.8h-36l-4.1,9.7h55.1v-43.1
			C1975.9,1098.1,1971.7,1088.5,1950.3,1088.5z"/>
	</g>
	<path class="st0" d="M726.9,306.8c-33.4,94.5-31.2,200.6,10.2,291.9C777.3,690,856.6,766,954.9,801.2c0.2-0.4,0.6-0.7,1.3-1
		c4.3-0.9,13.3,2.1,21.1,4.4c22,7.6,44.5,13.3,67.6,17.1c43.2,4.7,87.2,0.5,128.9-10.6c-33.3,9.5-68.2,11.6-102.1,11
		c-10.2-0.6-18.1-2.9-16.8-5.2c1.2-2.2,10.3-3.7,20.7-3.1c91.6,2.7,188-40.2,253.1-90c76.6-72.8,115.4-177.2,107.7-275.2
		c-6.8-98.3-57.6-186.6-128.5-239.5c-3-2-6-4.8-6.8-6.4c-1.3-2.2-0.1-2.5,2.5-0.9c77.5,50.6,140.3,147.2,144.1,259.8
		c7.1,111.8-48.1,233.2-148.9,305.5c-11.4,9.8-25.2,16.2-37.6,24.3c39.4-17.7,75.9-44.2,108.2-76.8c2-4.5,6.4-10.6,12-17.7
		c12.2-17.6,24.5-35.1,33.9-54.3c-0.9,0.5-1.7,0.6-2.1,0.5c-1.8-1.1,1.1-8.4,5.3-16.9c23.9-47.2,37.2-99.4,40-152.3l0.2-3.6
		c3.6-131.8-68.2-258.3-177.6-325.9c-108.7-68.5-252.3-76.1-366-18.3c-2.8,2-7.8,4.2-10.5,4.5c-3.1,0.7-3.1-0.4-0.2-2.5
		c-0.6-0.7-1.8-1.4-0.9-1.9c79.9-50.3,180.9-72.7,285.5-44.3c36.2,9.3,69.8,25.8,101.6,44.3c-31.4-21.6-63.2-41.2-94.4-54.5
		c-95.7-28.4-199.7-17.8-288.6,17.1l4.2-0.5c-7.7,3.5-15.5,5.8-16.4,4.3c-1.7-1.1,4-5.4,12-9.4c81.1-40.7,179.2-55.2,271.8-33.3
		c92.6,20.8,178.9,74.5,237.5,151.7c123.3,152,114.9,393.5-21.8,541.5c-104.3,120.1-278.5,172.3-431.3,129.5
		c-22.9-5.6-39.4-16.6-37.4-20c2.2-4.5,20.8-0.2,43,4.7c145.6,38.7,307.4-11.8,407.1-122.1c44-48.2,76.4-106.1,93.8-167.7
		c-14.6,48-39.6,92.6-71.5,130.4c-44.1,61.2-108.5,110.4-182.8,136.2c-179.2,63.8-376.1-7.4-485.4-160.5
		c-52.7-75.1-79.5-155.5-84.2-237c-4.8-81.1,12.9-166.7,64.1-245.2c4.3-6.8,10.3-13.9,13.4-15.6c3.4-1.7,2.3,2.1-1.9,9
		c-97.5,151.1-89.2,335.1,10.9,477.3c105.3,150.5,302.6,223.3,480.9,159.6c12.2-3.6,23.4-9.2,34.9-14.4
		c-38,15.9-78.2,24.6-117.6,26.9c-153.5,22.1-307.8-56.9-385-186.8c-61.6-99.4-77.2-225-33.8-336.6c5.8-13.9,13.7-25.9,17.6-27.1
		C733.6,283,732.4,293.4,726.9,306.8z M1433,269.1c14.2,23.5,26.3,48.7,34.7,75.1c-30.2-105.1-105.6-195.2-203.6-245
		C1333.4,139.1,1394.5,199,1433,269.1z"/>
	<path class="st0" d="M1356.3,309.7c-43.3-72.4-113.2-128-194.7-150.3c-80.8-22.9-172.7-12.4-248.3,32.4c0.1,0.4,0.1,0.7-0.1,1.4
		c-1.7,3.3-8.5,7.5-14.2,11.3c-16.8,10.2-32.5,21.7-47.4,34.6c-26.3,25.5-47.2,56.2-62.4,89.3c11.7-26.7,29.1-50.4,47.7-72.1
		c5.8-6.3,11.6-10.1,12.4-8.1c0.7,2-3.1,8.6-9.1,15.1c-50.9,57.9-74.9,143.4-77.7,212.4c6,88.7,52.9,170,120.5,217.6
		c67.3,48.4,151.9,62.9,224.3,45.4c2.9-0.9,6.4-1.4,7.9-0.9c2.1,0.3,1.7,1.2-0.8,2.1c-74.5,23.1-170.8,11.8-245.8-46.3
		C792.3,638,743.3,537,750.6,432.8c-0.2-12.6,3-25,4.5-37.4c-9.7,35.1-12.2,72.9-8.4,111.4c1.8,3.7,3.4,9.8,5,17.2
		c4.9,17.4,9.6,34.7,16.9,51.1c0.1-0.8,0.5-1.4,0.8-1.6c1.7-0.6,4.9,5.2,8.1,12.5c17.7,40.9,44.4,77.6,77.3,107.8l2.2,2.1
		c83.5,73.1,204,94.6,306.7,60c102.8-33.7,184.9-122.7,208.5-227.4c0.2-2.9,1.5-7.3,2.7-9.2c1.2-2.4,1.9-1.8,1.7,1.2
		c0.8,0,1.9-0.4,1.7,0.4c-10.4,78.8-50.1,156.3-124.7,208.9c-25.5,18.4-54.2,31.4-83.3,42c30.8-8.7,60.7-18.8,86.1-31.9
		c69.8-46.8,118.8-119.8,144-196.2l-1.9,3c1.8-6.9,4.6-13.2,6.1-12.9c1.6-0.5,1.4,5.5-0.4,12.8c-17.2,74.4-60.5,145.8-124.5,194
		c-63.2,48.8-144.4,75.9-225.9,72.4c-164.7-1.7-316.7-136.8-339.2-305c-21.8-132.1,38-273.1,147.8-349.1
		c16-11.9,31.9-16.6,33.1-13.5c1.7,3.8-11.1,13.6-26.1,25.3C766,244.3,711.9,376.3,729.8,500.2c7.6,54.5,27.7,106.5,58.2,150.9
		c-23.3-35.3-38.8-75.4-46.1-116.4c-15.9-61.5-13.3-129.6,9.9-191.6c55-150.4,206.9-239.7,364.8-228.4c77,6.2,143.5,32,198.8,72.8
		c55.1,40.4,101.1,97.9,124.5,173.2c2.1,6.5,3.5,14.1,2.9,17.1c-0.7,3.1-2.6,0.3-4.8-6.1c-45.6-144.4-169.3-237.8-315.3-249.4
		c-154.1-12.6-307.3,76.1-361.8,226c-4.2,9.8-6.6,20.1-9.4,30.3c10.1-33.2,26.1-63.9,45.8-90.6c68.2-111.4,202.3-168.9,327.9-149.2
		c97.5,13.5,187.3,70.8,236.3,158.9c5.9,11.2,9.4,22.8,8.1,25.9C1368.2,326.9,1362.1,320.5,1356.3,309.7z M1001.4,787.7
		c-22.8-3.4-45.6-9.1-67.3-17.8c84.3,36.9,183.3,36.5,268.2-0.3C1139.2,792.9,1067.5,800.4,1001.4,787.7z"/>
	<path class="st0" d="M1348,128c104.6,84.3,161.5,218.2,159,348.8c-4.1,62.6-20.7,124.5-49.3,180.2c-4.5,7.8-7,14.7-5.4,15.6
		c1.5,0.9,6.3-4.9,10.9-12.8c14.6-28.6,27.3-58,35.8-89c0.4,1.1,0.8,1.5,1.5,1.5c-28.2,109.6-101.9,207-200.3,265.9
		c-5.5,3.3-9.2,6.6-8.6,7.6c0.5,0.9,5.4-1,11-4.2c103.9-61,179.2-165.6,204.3-280.6c1.5-4.1,2.7-9,3.7-14.2
		c17.8-97.4,3.3-197.3-43.3-284.3c-64.4-124.4-183.5-215.9-322.4-238.7c-54.8-8.7-110.2-4.2-164.4,7.7
		c-45.5,9.9-91.3,26.6-126.6,50.4c-48.5,33.2-82.8,73-108.2,114.6c-1.7,2.7-1.1,3.4,0.6,1.7c1.6-0.8,4.3-3.8,5.6-5.9
		c25.3-41.8,64.7-81.3,106.6-111.5c87.8-48.8,189.9-67.4,288.9-54.5C1223.5,42.8,1288,79.3,1348,128z"/>
	<path class="st0" d="M691.1,613c-23.4-57.6-33.4-121.9-36.1-180.1c-0.2-2.7-0.7-4.5-1.4-3.1c-0.6,1.4-1,4.8-0.9,8
		c3.3,56.1,13.5,118.7,35.5,174.4c1.6,3.2,3.2,5.8,3.9,5.7C692.9,618.3,692.2,615.8,691.1,613z"/>
	<path class="st0" d="M654.3,391.1c6.3-97,52.7-197.4,132.8-267.4c78.8-70,188.1-109.1,296.6-102.4
		c177.3,9.6,328.1,130.4,385.3,293.4c19.5,53.7,27.4,110.6,28.5,163.5c0,4.4,0.8,7,1.7,5.5c1.2-1.9,1.5-6.8,1.6-11.9
		c-0.4-111.6-40.5-223.2-115.9-308.5c-74.4-85.5-185.4-140.8-300.1-145.8c-109.2-5.9-220.2,33.7-300.3,105.4
		c-81.3,71.3-128,174.3-132.8,272.9c-0.2,2.7,0.3,4.1,1,3.1C653.4,397.3,654.1,393.7,654.3,391.1z"/>
	<path class="st0" d="M1380.1,167.3C1296.6,78,1177.5,27.1,1052.9,27.2C985.8,27.3,918.9,44,860,80.8
		c-78.5,50.4-131.1,115-170.3,196.1c-1.3,2.7-2.2,5.5-1.9,6.4c0.5,0.5,1.9-1.2,3.2-3.8c42.2-87.4,105.3-160.4,193-205.9
		c166.1-87.4,372.4-35.7,494.5,95.7c2.6,2.8,4.7,4.1,5.3,3.9C1384.2,172.5,1382.5,169.8,1380.1,167.3z"/>
	<path class="st0" d="M935.9,144c-50.4,20.6-97.8,55.8-130.9,100c-32.6,44.6-50.9,96.8-53.5,143.7c-0.2,2.4,0.5,3,1.4,1.5
		s1.9-4.6,2.1-7.1c3.5-45.7,22.4-96.1,55-138.2c32.8-41.9,78.3-75.2,126.3-95.5c4.4-2.4,8.4-4,8.5-5.4
		C944.7,142,940.8,141.9,935.9,144z"/>
	<path class="st0" d="M715.8,634.8c-58.8-109.2-59.7-244.2-11.3-355.1c25.4-52.4,61.6-99.2,105.6-137.1c6.6-5.1,11.2-10.2,10.2-11.5
		c-0.8-1.1-7.1,1.9-13.9,7.1c-22.6,19.2-43.7,40.2-61.9,63.7c0.2-1.1-0.2-1.7-0.7-1.8c62.8-84,159.9-141.5,264.2-157.2
		c5.8-0.8,10-2.5,9.8-3.4c-0.1-1-4.9-1.1-10.7-0.3c-109.6,15.6-210.6,78.7-272.7,168.5c-2.8,2.9-5.5,6.8-8.3,10.8
		c-49.6,77.1-72.7,168-64,259.1C672.7,607,741.5,727.4,851.3,796c43.4,26.8,91.9,42.6,142.2,51.5c42,7.7,86.9,9.6,125.2,1.5
		c52.8-11.3,96.2-33.2,132.6-60c2.2-1.6,2-2.4,0-1.6c-1.7,0.1-5.1,1.7-6.9,3.1c-36.2,26.9-83.7,46.7-129.9,58
		c-91.9,10.9-185-9.4-264.4-55.4C791.2,751.7,749.5,697.8,715.8,634.8z"/>
	<path class="st0" d="M1310,700.7c62.2-69.7,97.9-161.8,95.2-255.2c-1.8-93-42.4-186.6-113.7-252c-0.2,0.2-0.7,0.5-1.5,0.3
		c-3.8-0.6-10.4-6.5-16.3-11.1c-16-14.5-33.1-27.2-51.4-38.8c-35.3-19.5-74.4-31.5-113.8-36.6c31.9,3.6,62.2,14.2,90.9,26.8
		c8.5,4,14.5,8.9,12.5,10.4c-1.7,1.5-10.1-0.4-18.5-4.6c-77.4-34.9-174.8-32.1-248.1-12.4C854,163,783.6,239.3,755.3,326.3
		c-29.2,87.2-17.1,181.3,24.6,252.2c1.9,2.7,3.3,6.2,3.4,7.9c0.4,2.4-0.8,2.2-2.5-0.3c-48.1-71-67.1-176.8-30.2-275
		c33.7-98.8,124-183.9,235.7-210.3c13.2-4.4,27.3-5,40.8-7.6c-40,1.3-80.5,11-119.7,27.7c-3.3,3.2-9.3,6.8-16.6,11
		c-16.7,10.9-33.3,21.6-48.3,34.8c1-0.2,1.7-0.1,2,0.3c1.1,1.6-4,6.8-10.7,12.5c-37.3,32.4-67,72.6-88.3,117.1l-1.3,3.2
		c-50,112.3-33.8,246.8,35.3,343.9c68.5,97.6,188.3,155.1,305.8,145.8c3.2-0.8,8.2-1,10.6-0.3c2.8,0.6,2.4,1.6-0.7,2.5
		c0.2,0.6,1.1,1.6,0.1,1.7c-86.2,15-180.2-1.6-259.4-63.2c-27.5-20.8-50.3-46.9-71-74.3c19.2,29.7,39.3,58,61.4,80.6
		c71.4,58.5,163.9,86.2,252.1,87.8l-3.7-1.2c8-0.4,15.1,0.6,15.6,2.2c1,1.5-5.5,3.2-13.6,3.9C993.1,835.3,904,813,833,761.3
		c-71.5-50.8-126-127.7-148.7-214.9c-51-174.9,42-380,211.5-459c131.8-66.6,298.9-49.7,414,41.5c17.5,12.9,27.7,28.1,24.8,30.5
		c-3.6,3.1-17.9-7.1-34.9-19.3c-110.5-85-266.5-99.1-390.9-39.5c-54.8,26-102.7,64.3-139.8,111.3c29.7-36.2,66.9-65.6,107.4-87
		c59.4-37,132-56.6,204.5-52.4c175.6,8.6,318.3,139.8,356.9,310.7c18.2,83.3,12.6,162.2-12.5,234c-24.8,71.7-70.4,139.2-142.1,188.6
		c-6.1,4.4-13.6,8.3-16.8,8.7c-3.5,0.3-1.3-2.7,4.8-7.1c137-95.6,195.2-257.2,160.6-415.2c-36.4-167.1-178.6-299.9-353.5-308.4
		c-11.6-1.1-23.3-0.3-34.9,0.1c38.2-0.3,75.5,6.5,110,18.6c138.8,35.3,242.2,158.1,261.8,297.7c17.1,107.5-14.1,221.4-91,301.8
		c-10,10-20.9,17.7-24.7,17.2C1295.8,718.8,1300.5,710.3,1310,700.7z M694.3,482.6c-3.8-25.2-5.1-51.2-3.1-77.1
		c-11.5,101,20.6,205.8,86.6,283.4C732.8,629.9,702,556.6,694.3,482.6z"/>
	<path class="st0" d="M824.4,551.6c-15.2-37.4-21.7-79.3-23.5-117.1c-0.1-1.8-0.5-2.9-0.9-2s-0.7,3.1-0.6,5.2
		c2.2,36.4,8.8,77.2,23.1,113.4c1,2.1,2.1,3.7,2.6,3.7C825.6,555,825.1,553.4,824.4,551.6z"/>
	<path class="st0" d="M800.4,407.2c4.1-63.1,34.3-128.4,86.4-174c51.2-45.5,122.3-70.9,192.9-66.6c115.3,6.2,213.4,84.8,250.6,190.9
		c12.7,34.9,17.8,71.9,18.5,106.4c0,2.9,0.5,4.6,1.1,3.6c0.8-1.3,1-4.4,1-7.7c-0.3-72.6-26.3-145.2-75.4-200.7
		c-48.4-55.6-120.6-91.6-195.2-94.8c-71.1-3.8-143.2,22-195.3,68.6c-52.9,46.4-83.3,113.4-86.4,177.5c-0.2,1.7,0.2,2.6,0.6,2
		C799.8,411.3,800.3,408.9,800.4,407.2z"/>
	<path class="st0" d="M1272.5,261.7c-54.3-58-131.8-91.2-212.8-91.1c-43.7,0.1-87.1,11-125.5,34.9c-51,32.8-85.3,74.8-110.7,127.6
		c-0.8,1.8-1.4,3.6-1.3,4.1c0.3,0.3,1.2-0.8,2.1-2.5c27.5-56.8,68.6-104.3,125.6-133.9c108.1-56.8,242.2-23.2,321.7,62.2
		c1.7,1.8,3.1,2.7,3.4,2.5C1275.3,265.1,1274.1,263.3,1272.5,261.7z"/>
	<path class="st0" d="M983.7,246.5c-32.8,13.4-63.6,36.3-85.1,65.1c-21.2,29-33.1,62.9-34.8,93.4c-0.1,1.6,0.3,1.9,0.9,1
		c0.6-1,1.2-3,1.4-4.6c2.3-29.8,14.6-62.5,35.8-89.9c21.4-27.3,50.9-48.9,82.2-62.1c2.8-1.6,5.5-2.6,5.5-3.5
		C989.3,245.2,986.8,245.1,983.7,246.5z"/>
	<path class="st0" d="M840.4,565.8c-38.2-71.1-38.8-158.8-7.4-231c16.5-34.1,40.1-64.5,68.7-89.2c4.3-3.3,7.3-6.6,6.6-7.5
		c-0.5-0.7-4.7,1.3-9,4.7c-14.7,12.5-28.4,26.1-40.2,41.4c0.1-0.7-0.1-1.1-0.5-1.2c40.9-54.6,104-92,171.9-102.3
		c3.7-0.5,6.5-1.6,6.4-2.2c-0.1-0.7-3.1-0.8-6.9-0.2c-71.3,10.1-137,51.2-177.4,109.6c-1.8,1.9-3.6,4.4-5.4,7
		C815,345,799.9,404.2,805.6,463.4c6.9,84.1,51.6,162.5,123.1,207.1c28.2,17.5,59.8,27.7,92.5,33.5c27.3,5,56.5,6.2,81.4,1
		c34.4-7.3,62.6-21.6,86.2-39c1.4-1,1.3-1.6,0-1.1c-1.1,0.1-3.3,1.1-4.5,2c-23.6,17.5-54.5,30.4-84.5,37.7
		c-59.8,7.1-120.4-6.1-172-36C889.5,641.8,862.3,606.8,840.4,565.8z"/>
	<path class="st0" d="M1227,608.6c40.4-45.3,63.7-105.3,61.9-166c-1.1-60.5-27.6-121.4-74-163.9c-0.1,0.2-0.5,0.3-1,0.2
		c-2.5-0.4-6.8-4.2-10.6-7.3c-10.4-9.4-21.5-17.7-33.4-25.3c-23-12.7-48.4-20.5-74-23.8c20.7,2.3,40.5,9.2,59.2,17.4
		c5.5,2.6,9.4,5.8,8.1,6.7c-1.1,1-6.5-0.3-12-3c-50.4-22.7-113.7-20.9-161.4-8.1c-59.3,23.1-105.1,72.7-123.6,129.3
		c-19,56.7-11.1,117.9,16,164c1.2,1.7,2.1,4.1,2.2,5.2c0.3,1.5-0.5,1.5-1.6-0.2c-31.3-46.2-43.6-115-19.6-178.9
		c21.8-63.9,80.5-119.4,153.2-136.5c8.6-2.8,17.7-3.2,26.5-4.9c-26,0.8-52.4,7.2-77.9,18c-2.1,2.1-6.1,4.4-10.8,7.2
		c-10.9,7.1-21.7,14-31.4,22.6c0.6-0.2,1.1-0.1,1.3,0.2c0.7,1.1-2.6,4.4-6.9,8.2c-24.3,21-43.6,47.2-57.4,76.2l-0.9,2
		c-32.5,73.1-22,160.5,23,223.7c44.5,63.5,122.5,100.9,198.9,94.8c2.1-0.5,5.3-0.6,6.9-0.2c1.8,0.4,1.6,1-0.4,1.6
		c0.2,0.4,0.7,1,0.1,1.1c-56.1,9.7-117.3-1-168.8-41.1c-17.9-13.6-32.7-30.5-46.2-48.3c12.5,19.3,25.6,37.7,39.9,52.4
		c46.5,38,106.6,56.1,164,57.1l-2.4-0.8c5.2-0.3,9.8,0.4,10.1,1.4c0.7,1-3.6,2.1-8.8,2.5c-54.4,4-112.3-10.5-158.5-44.1
		c-46.5-33.1-82-83.1-96.7-139.8C786.8,394.4,847.3,261,957.5,209.7c85.7-43.3,194.4-32.3,269.3,27c11.4,8.4,18,18.3,16.1,19.8
		c-2.3,2-11.6-4.7-22.7-12.5c-71.9-55.3-173.3-64.5-254.3-25.7c-35.6,16.9-66.8,41.8-91,72.4c19.3-23.6,43.5-42.7,69.8-56.6
		c38.6-24.1,85.8-36.8,133-34.1c114.3,5.6,207.1,90.9,232.2,202.1c11.9,54.2,8.2,105.5-8.1,152.2c-16.1,46.7-45.8,90.5-92.4,122.7
		c-4,2.9-8.8,5.4-10.9,5.7c-2.3,0.1-0.8-1.7,3.1-4.7c89.1-62.2,127-167.3,104.5-270.1c-23.7-108.7-116.2-195.1-229.9-200.6
		c-7.6-0.7-15.2-0.2-22.7,0.1c24.9-0.2,49.1,4.2,71.5,12.1c90.3,23,157.6,102.9,170.3,193.7c11.2,69.9-9.2,144-59.2,196.3
		c-6.5,6.5-13.6,11.5-16.1,11.2C1217.7,620.4,1220.8,614.9,1227,608.6z M826.5,466.7c-2.4-16.4-3.3-33.3-2-50.1
		c-7.5,65.7,13.4,133.9,56.3,184.4C851.5,562.6,831.5,514.9,826.5,466.7z"/>
	<path class="st0" d="M1115.1,568.3c-19.7,5.4-41,6.2-60.1,4.9c-0.9,0-1.5,0.1-1.1,0.3c0.4,0.3,1.5,0.5,2.6,0.6
		c18.4,1.1,39.2,0.1,58.2-4.9c1.1-0.4,2-0.8,2-1.1C1116.9,567.9,1116.1,568,1115.1,568.3z"/>
	<path class="st0" d="M1041.4,571.8c-31.4-5.7-62.3-24.7-82.1-53.5c-19.8-28.3-28.4-65.5-22.1-100.6c9.9-57.4,55-102,110.4-114.4
		c18.2-4.3,37.1-4.7,54.4-3.1c1.5,0.2,2.3,0,1.9-0.3c-0.6-0.5-2.2-0.8-3.8-1c-36.4-4.1-74.4,4.7-105,26c-30.7,21-53,55.1-59,92.3
		c-6.1,35.4,2.6,73,22.9,101.9c20.1,29.2,51.9,48.4,83.9,53.7c0.9,0.2,1.3,0.1,1-0.2C1043.4,572.4,1042.3,572,1041.4,571.8z"/>
	<path class="st0" d="M996.2,326.7c-32.3,23.8-53.4,60.7-58.2,101.3c-2.5,21.9,0.4,44.3,10.1,65c13.4,27.5,32.5,47.1,57.4,63
		c0.8,0.5,1.7,0.9,2,0.9c0.2-0.2-0.3-0.7-1.2-1.2c-26.9-17.1-48.2-40.5-59.7-70.8c-22.1-57.5,2.6-122.8,50.1-157.6
		c1-0.8,1.5-1.4,1.5-1.6C998,325.5,997,326,996.2,326.7z"/>
	<path class="st0" d="M971.6,470.6c4.8,17.2,14.4,34,27.6,46.5c13.3,12.3,29.6,20.3,44.8,22.9c0.8,0.2,1-0.1,0.5-0.4
		c-0.5-0.4-1.4-0.8-2.2-1c-14.8-2.9-30.5-11-42.9-23.2c-12.4-12.3-21.5-28.4-26.3-44.8c-0.6-1.5-1-2.9-1.4-3
		C971.3,467.6,971.1,468.9,971.6,470.6z"/>
	<path class="st0" d="M1123.2,561c-37.9,15-81.9,10.1-116.2-9.8c-16.1-10.3-30-23.9-40.7-39.7c-1.4-2.4-2.9-4.1-3.4-3.8
		c-0.4,0.2,0.4,2.4,1.8,4.8c5.4,8.1,11.4,15.7,18.4,22.6c-0.4-0.1-0.6,0-0.6,0.2c-25-23.7-40-57.5-41.2-92.2c0-1.9-0.4-3.3-0.7-3.3
		s-0.6,1.5-0.5,3.5c0.9,36.3,17.6,71.6,44.6,95.3c0.8,1,2,2.1,3.2,3.1c23.2,19.1,52,30.1,82,30.7c42.6,1.5,84.4-16.3,111-49.5
		c10.4-13.1,17.4-28.3,22.2-44.4c4.1-13.4,6.4-28,5.2-40.8c-1.6-17.6-7.1-32.6-14.5-45.5c-0.4-0.8-0.7-0.8-0.6-0.1
		c0,0.5,0.4,1.7,0.8,2.4c7.4,12.8,12.1,29.1,14,44.6c0,30.4-10.1,60-28.1,84.1C1164.2,541,1145,552.5,1123.2,561z"/>
	<path class="st0" d="M1147.2,345.1c-26.3-17.1-58.8-24.3-89.6-18.6c-30.8,5.3-59.9,23.6-77.9,50.6c0.1,0,0.2,0.2,0.2,0.5
		c0,1.3-1.6,3.8-2.9,6c-4,6.1-7.4,12.4-10.3,19.1c-4.7,12.7-6.6,26.3-6.4,39.7c-0.4-10.7,1.5-21.4,4.3-31.5c0.9-3,2.2-5.3,2.8-4.7
		c0.6,0.5,0.4,3.4-0.6,6.4c-7.7,27.5-1.8,59.7,8.5,83c16.5,28.5,45.4,48,75.8,53c30.4,5.2,61.1-3.5,82.5-21c0.8-0.8,1.9-1.4,2.5-1.5
		c0.8-0.2,0.8,0.1,0,0.8c-21.1,19.6-55.3,31.3-89.8,24.1c-34.5-6.1-67.4-31.8-81.9-67.6c-2.1-4.2-3.1-8.8-4.6-13.2
		c2.5,13.3,7.8,26.2,15.3,38.3c1.2,0.9,2.7,2.8,4.5,5c4.5,5,8.9,10,14,14.3c-0.1-0.3-0.1-0.6,0-0.7c0.5-0.5,2.4,1,4.7,2.9
		c12.6,10.7,27.5,18.5,43.4,23.4l1.1,0.3c39.8,10.9,83.7-1.4,112.4-29.3c28.9-27.7,41.9-70.5,32.8-109c-0.4-1-0.7-2.7-0.6-3.5
		c0.1-0.9,0.4-0.9,0.9,0.1c0.2-0.1,0.5-0.5,0.6-0.1c9.4,27.9,8.7,60-7.7,89.4c-5.5,10.2-13,19.1-21.1,27.4
		c8.9-7.9,17.3-16,23.6-24.5c15.8-26.7,20.3-58.9,16.3-88.2l-0.2,1.3c-0.5-2.6-0.6-5-0.1-5.3c0.4-0.4,1.3,1.7,2,4.3
		c6.3,27.5,3.4,58.2-10.1,84.4c-13.2,26.3-36,48.4-63.8,60.3c-55.5,25.9-128.4,5.4-163.2-46.8c-28.9-40.4-31.7-96.8-7.4-139.7
		c3.4-6.5,7.9-10.6,8.9-9.8c1.2,1-1.5,6.3-4.6,12.6c-22.6,41.1-19.3,93.6,6.8,131.9c11.4,16.9,26.6,30.8,44.1,40.8
		c-13.5-8-25.2-18.8-34.4-31.2c-15.3-17.9-25.5-41-27.8-65.2c-6.1-58.8,30.2-112.9,85-134.4c26.8-10.3,53.3-12.4,78.4-7.8
		s49.8,16.3,69.9,37.6c1.8,1.8,3.4,4.1,3.7,5.2c0.3,1.1-0.8,0.5-2.6-1.2c-38.7-40.6-95.4-51.7-146.1-32.2
		C984.9,341,948,395,954.1,453.5c0.2,3.9,1.1,7.7,1.8,11.6c-2.1-12.7-1.7-25.4,0.6-37.5c4.6-47.9,40.2-88.5,85.6-102.1
		c34.8-11.2,74.2-6.6,104.9,14.8c3.8,2.8,6.9,6,7,7.3C1153.9,348.9,1150.9,347.8,1147.2,345.1z M1106.1,560.8
		c-8.2,2.5-16.8,4.3-25.5,4.9c34.2-1.3,67.3-17.3,89.7-43.2C1153.1,540.5,1130.3,554.4,1106.1,560.8z"/>
	<path class="st0" d="M1281.4,202.5c34.6,33.6,61.9,76.1,82,116.5c0.9,1.9,1.9,3,1.9,1.8s-0.7-3.7-1.9-6
		c-19.9-38.8-46.7-80-79.8-112.7c-2.1-1.8-4-3.1-4.6-2.8C1278.5,199.3,1279.7,200.9,1281.4,202.5z"/>
	<path class="st0" d="M1377,348.6c25.9,70.8,24.3,156.6-10.6,231.4c-34,74.3-99.4,136.2-178.6,165.5
		c-128.8,48.6-273.7,10.1-365.3-87.8c-30.6-32-54.1-69.9-71.4-107.2c-1.4-3.1-2.7-4.7-2.9-3.4c-0.2,1.7,1.1,5.3,2.6,8.9
		c35.2,79.1,98.6,145.8,178.8,182.8c79.6,37.4,175.7,42,258.7,9.6c79.4-30,145.7-92.8,180.2-168.8c35.4-76.1,36.3-163.8,8.9-235.3
		c-0.7-2-1.5-2.8-1.7-2C1375.7,343.8,1376.3,346.6,1377,348.6z"/>
	<path class="st0" d="M931.8,734.4c87.2,37.2,187.7,36.2,276.1-2.9c47.6-21.1,89.8-53.9,120.3-98.4c39.9-60.3,57.1-122.6,59.5-192.5
		c0.1-2.3-0.2-4.6-0.6-5.1c-0.5-0.2-1,1.4-1.1,3.7c-2.7,75.3-24.7,146.8-72.7,206.6c-90.6,114-253.2,141.8-381,86.8
		c-2.8-1.2-4.7-1.4-5-1.1C927.2,732,929.2,733.5,931.8,734.4z"/>
	<path class="st0" d="M1254.4,612c29.4-30.4,51.9-70.1,61.6-111.9c9.2-41.9,5.9-84.6-7-118.7c-0.6-1.8-1.3-1.9-1.4-0.6
		c-0.2,1.4,0.1,3.9,0.7,5.7c11.8,33.5,14.1,75.2,4.2,115.3c-10.2,40-32.1,77.9-59.8,107.3c-2.4,3.1-4.7,5.5-4.3,6.5
		C1248.8,616.2,1251.6,615,1254.4,612z"/>
	<path class="st0" d="M1257.1,194.7c75.9,59.2,118.7,154.7,119.1,248.6c-1.6,45.2-12.7,89.7-32.1,130.4c-3.1,5.7-4.8,10.8-3.6,11.4
		c0.9,0.5,4.5-3.6,7.6-9.4c10.1-20.7,18.4-42.2,24-64.5c0.2,0.9,0.6,1.1,1,1c-18.3,79.3-69.2,150.5-138.4,194.3
		c-3.8,2.4-6.4,4.9-5.9,5.5c0.4,0.7,3.8-0.7,7.7-3.1c72.9-45.4,124.9-121.8,140.9-204.9c1-3,1.8-6.5,2.5-10.2
		c11.1-70.2-0.9-142.1-35.6-204c-48-88.5-134.5-152.5-233.9-166.8c-39.2-5.5-78.6-1.5-117,7.9c-32.2,7.7-64.7,20.4-89.4,38.1
		c-34,24.5-57.9,53.7-75.3,84.1c-1,1.8-0.6,2.3,0.5,1.2c1.1-0.6,3-2.8,3.9-4.4c17.3-30.4,44.8-59.4,74.1-81.8
		c61.8-36.5,134.3-51.2,205.1-43.4C1167,135.3,1213.5,160.5,1257.1,194.7z"/>
	<path class="st0" d="M1320,296.1c10.5,16.7,19.7,34.8,26.3,53.8c-23.4-75.4-79.1-139.7-150.1-174.1
		C1246.5,203.5,1291.3,245.9,1320,296.1z"/>
	<g>
		<path class="st0" d="M715.3,576.6c-0.5-1.5-1.1-3-1.6-4.6C714.2,573.6,714.7,575.1,715.3,576.6z"/>
		<path class="st0" d="M729.6,277c51.2-111.9,157.3-185.1,242-208c85.6-25,145.7-13.7,145-14.5c-24.2-3.4-152.5-16.9-278.6,83
			c-61.9,47.7-114.6,125.4-136.1,216.8c-17,69.6-12.7,147,11.7,217.7C684.2,486.8,683.3,373.1,729.6,277z"/>
		<path class="st0" d="M940.1,108.3c-4.5,1.8-11.5,4.6-21.2,9.5c10.9-5.1,19-8,21.4-8.1C940.2,109.7,957.5,101.5,940.1,108.3z"/>
		<path class="st0" d="M1466.4,348.4c-25.1-93-74.1-152.3-115.3-190.1c-42-38-78.8-54.9-103.7-66.7c-9.1-3.7-16.9-6.6-23.6-8.9
			c27.1,10.9,52.4,25.8,74.7,43.7c4.9,4.1,8.3,8,7,8.5c-1,0.8-6-1.7-10.9-5.5l2.9,0.9c-34.7-23-74.7-40.6-116.8-49.5l-0.2,0.3
			l9,13.2c40.5,12.6,76.1,35,105,63.4c0.6,0.5-0.4,0.8-0.8,1.1c1.6,2,1.4,2.7-0.7,1.9c-1.8-0.7-4.9-3-6.7-4.9
			c-28.2-23-61.3-39.3-96.4-48.7l0.1,2.1c-5.9,16.4,8.1,9.7,8.2,9.9c121.2,36.2,212.6,142.4,235.8,259
			c24.6,116.5-13.6,238.3-89.1,315.8c-74.4,79.5-178.9,117.5-273.6,113.7c-95.5-2.8-179-43.9-236.5-97.5
			C717,598,708.6,454.9,725.9,375.5c16.7-83.4,48.7-119.1,46.5-119.9c39.7-64.9,82.4-98,111.7-117.4c14.3-9.3,25.7-15.8,34.8-20.4
			c-16.7,7.8-40.2,20.7-61.5,36.6c-13.5,9.5-25.7,20.3-35.6,29.9c5.4-5.3,11-10.6,16.6-15.7c27.2-24,57.6-44,90.1-59.8
			c-20.4,9.3-40.2,19.9-58.9,32.7c15.2-12.1,55-35.9,94.4-48.8c19-6.6,37.4-10.6,51.2-13c1.2-0.4,2.4-0.8,3.6-1.2
			c-31.1,4.3-84.3,16.7-140.5,52.9c-72,44.2-141.5,132.5-162.1,233.9c-23.3,101,2.6,204.5,40.9,268.2c37.6,64.9,78.2,95.6,77.4,95.8
			c-14-11.3-69.6-56.1-104.4-141.4c-36.9-83.2-42.2-206.4,6.8-308.1c46.8-103.3,141.5-171.9,217.5-198
			c77.1-26.4,131.9-21.1,131.4-21.9c-16.2-1.9-86.7-3.7-171.2,35.7C830,133.3,741,224.3,710.4,337.7c-34.6,112.4-6.7,232.9,38.1,305
			c44.5,73.7,93.3,106.7,92.3,107.1c-11.6-8-70.3-52.8-112.1-141.4c-4.9-10-9.4-20.6-13.4-31.7c7.3,20.3,16.2,40,26.8,58.8
			c47.4,86,128.3,150.4,214.1,180.1c85.9,29.5,174.3,27.2,243,5.9c140.4-43.5,195.9-133.9,195.8-130.6
			c66.9-82.4,85.9-177.1,85.5-240.7C1480,385.1,1465.5,348.4,1466.4,348.4z M821.5,184.5c-8.2,8-14.9,15.3-19.5,20.6
			C808.2,198,814.8,191.1,821.5,184.5z M795,213.3c-0.2,0.3-0.4,0.5-0.4,0.5C794.8,213.6,794.9,213.4,795,213.3z"/>
	</g>
	<path class="st0" d="M2163.5,1288.9c0-15.4,12.7-28.1,28.1-28.1c15.5,0,28.1,12.7,28.1,28.1c0,15.6-12.6,28.1-28.1,28.1
		C2176.2,1317,2163.5,1304.5,2163.5,1288.9z M2191.6,1312.9c13.2,0,23.9-10.8,23.9-23.9s-10.7-23.9-23.9-23.9
		c-13.1,0-23.9,10.8-23.9,23.9C2167.7,1302.1,2178.5,1312.9,2191.6,1312.9z M2181,1273.4h9.9c5.6,0,12.1,0.9,12.1,9.6
		c0,5.3-3.3,6.3-5.1,7.3l5.5,12.8h-6l-4.6-12h-6.5v12h-5.4v-29.7H2181z M2186.3,1286.3h6.5c2.5,0,4.6-1.1,4.6-3.8c0-2.6-1.8-4-5-4
		h-6v7.8H2186.3z"/>
</g>
</svg>
