<svg xmlns="http://www.w3.org/2000/svg" viewBox="0 0 50 50"><defs><style>.cls-1{fill:#fff;}.cls-2{fill:#44e100;}.cls-3{fill:#00c800;}.cls-4{fill:#080;}</style></defs><g id="Calque_2" data-name="Calque 2"><g id="Calque_1-2" data-name="Calque 1"><g id="Calque_2-2" data-name="Calque 2"><g id="Calque_1-2-2" data-name="Calque 1-2"><rect class="cls-1" width="50" height="50"/><polygon class="cls-2" points="38.98 18.78 41.93 7.77 30.91 7.77 27.96 18.78 16.93 18.78 13.99 29.79 25.01 29.79 22.06 40.8 33.08 40.8 36.02 29.79 47.06 29.79 50 18.78 38.98 18.78"/><polygon class="cls-3" points="20.79 35.32 22.07 40.81 33.08 40.81 25.39 7.77 19.09 7.77 0 40.81 11.08 40.81 14.22 35.32 20.79 35.32"/><polygon class="cls-4" points="22.07 40.78 22.07 40.8 33.08 40.8 27.94 18.78 16.93 18.78 13.99 29.79 25.01 29.79 22.07 40.78"/></g></g></g></g></svg>