<?xml version="1.0" encoding="UTF-8"?>
<!-- Generator: Adobe Illustrator 27.7.0, SVG Export Plug-In . SVG Version: 6.00 Build 0)  -->
<svg xmlns="http://www.w3.org/2000/svg" xmlns:xlink="http://www.w3.org/1999/xlink" version="1.1" id="Ebene_1" x="0px" y="0px" viewBox="0 0 431 314.4" style="enable-background:new 0 0 431 314.4;" xml:space="preserve">
<style type="text/css">
	.st0{fill:#FFFFFF;}
	.st1{fill:#BD9E57;}
</style>
<g>
	<path class="st0" d="M125.2,236.5c5.2,0,8.2-3.1,8.2-7.1v-0.1c0-4.7-3.2-7.1-8.4-7.1h-8v14.4H125.2z M106.6,212.7h19.3   c11.3,0,18.1,6.7,18.1,16.3v0.1c0,10.9-8.5,16.6-19.1,16.6h-7.9v14.2h-10.4V212.7z"></path>
</g>
<polygon class="st0" points="153,212.7 163.4,212.7 163.4,231.4 182.5,231.4 182.5,212.7 192.9,212.7 192.9,259.9 182.5,259.9   182.5,241 163.4,241 163.4,259.9 153,259.9 "></polygon>
<g>
	<path class="st0" d="M242.8,236.4v-0.1c0-8.1-5.9-14.8-14.3-14.8c-8.4,0-14.2,6.6-14.2,14.7v0.1c0,8.1,5.9,14.8,14.3,14.8   S242.8,244.5,242.8,236.4 M203.5,236.4v-0.1c0-13.4,10.6-24.4,25.1-24.4c14.6,0,25,10.9,25,24.3v0.1c0,13.4-10.6,24.4-25.1,24.4   C213.9,260.7,203.5,249.9,203.5,236.4"></path>
</g>
<polygon class="st0" points="264.3,212.7 299.9,212.7 299.9,222 274.6,222 274.6,231.5 296.9,231.5 296.9,240.8 274.6,240.8   274.6,250.7 300.2,250.7 300.2,259.9 264.3,259.9 "></polygon>
<polygon class="st0" points="310.8,212.7 320.4,212.7 342.5,241.8 342.5,212.7 352.8,212.7 352.8,259.9 343.9,259.9 321.1,229.9   321.1,259.9 310.8,259.9 "></polygon>
<rect x="365.9" y="212.7" class="st0" width="10.4" height="47.2"></rect>
<polygon class="st0" points="418.5,212.7 408.5,228 398.7,212.7 386.5,212.7 402.3,235.9 385.8,259.9 397.6,259.9 408.3,243.7   418.9,259.9 431,259.9 414.6,235.8 430.3,212.7 "></polygon>
<g>
	<path class="st1" d="M65.9,182.9c-17.3,12-34.5,39.9-22.3,91.7c0,0-20.4-31.2-14.3-63.7C8,239.5,39.6,284.7,18.6,314.4   c4-37.4-16.7-57.3-14.2-91.3C6.5,193.9,38.8,166,62,157.2c0,0-12.5,0.4-25.2,7.2c-15.9-12-27.9-29-33.4-48.8c0,0,12.8,11.6,32.2,13   c-13.8-5.5-28.6-14.8-35-26.8C0.2,98.1,0,94.4,0,90.6c0-11,1.9-21.5,5.4-31.3c0,0,4,16.5,19.5,28c0,0-14.5-20.5-14.5-39.5   c4.7-9,10.9-17.2,18.3-24.2c-0.3,11.3,4.5,24.6,4.5,24.6c-2.2-20,3-30.7,3.2-31.2c11-8.4,23.9-14.3,38-17.1   c-34.4,26.7-44.8,90.6-6.5,122.7C90.5,140.7,76.8,167.5,65.9,182.9"></path>
	<path class="st1" d="M93.4,100.9c-4.4,5.1-0.3,12.4,4.6,18.2c1.3,1.5,2.7,3.1,4.2,4.8c6.7,7.7,14.1,17.7,10.7,34.6   c0,0-0.5-12.5-6.7-19.1c0.2,0.4,6.1,12.6-2.3,28.2c-1.6,3-3.8,6.1-6.6,9.3c0.1-0.3,4.6-10.6,3.3-20.7   c-3.1,26.7-34.8,27.1-39.8,66.1c0,0-3.5-24.6,8.8-39.4c10.9-15.4,24.5-42.2,2.1-60.2c0,0-5.6-36.2,19.1-39.4c0,0-9.8-3.6-9.8-10.5   c10.2,9.9,33.9,1.7,30.9,20.8c0,0,7.2,6.4,4.5,16.6C112.1,99.9,97.8,95.5,93.4,100.9"></path>
	<path class="st1" d="M114,165.6c22.6-7.6,40.9-24.6,50.2-46.3c-10,7.5-27.3,10.3-27.9,10.4c25.7-10.6,32.3-24.7,32.7-25.6l0,0   c1.2-5.7,1.9-11.6,1.9-17.6c0-6-0.6-11.9-1.9-17.6c-4.9,9.4-18.6,17.3-19,17.6c10.1-10.1,15-21.3,16.7-26.1   c-3.6-10.8-9.3-20.7-16.6-29c-1.6,7.7-7,14.7-7.2,14.9c3.4-8.1,3.6-16.2,3.6-18.8c-10.5-10.5-23.8-18.2-38.7-22   c29.8,22.9,50.5,96.6-2.1,118.3c6.7,7.6,14.1,17.7,10.7,34.6L114,165.6z"></path>
	<path class="st1" d="M135.8,290.1c1.6,0,2.8-0.3,3.7-1c0.8-0.6,1.3-1.6,1.3-3c0-1.3-0.4-2.3-1.3-2.9c-0.9-0.6-2.1-0.8-3.7-0.8h-3.6   v7.6H135.8z M141,299.4l-4.9-8.3h-3.8v8.3H131v-18h5.2c0.9,0,1.7,0.1,2.4,0.3c0.7,0.2,1.3,0.5,1.9,0.8c0.5,0.4,0.9,0.9,1.2,1.5   c0.3,0.6,0.4,1.3,0.4,2.2c0,1.4-0.4,2.6-1.2,3.4c-0.8,0.8-2,1.3-3.4,1.5l5,8.4H141z"></path>
</g>
<polygon class="st1" points="149.3,281.4 159.1,281.4 159.1,282.5 150.5,282.5 150.5,289.3 157.7,289.3 157.7,290.4 150.5,290.4   150.5,298.3 159.4,298.3 159.4,299.4 149.3,299.4 "></polygon>
<g>
	<path class="st1" d="M165.7,296.1c0.7,0.7,1.4,1.3,2.3,1.8c0.9,0.4,1.9,0.7,2.9,0.7c1.4,0,2.5-0.3,3.3-1c0.8-0.7,1.2-1.5,1.2-2.6   c0-0.6-0.1-1-0.3-1.4c-0.2-0.4-0.4-0.7-0.7-1c-0.3-0.3-0.6-0.5-1-0.7c-0.4-0.2-0.8-0.4-1.2-0.6l-2.7-1.2c-0.4-0.2-0.8-0.4-1.2-0.6   s-0.8-0.5-1.2-0.9c-0.4-0.4-0.7-0.8-0.9-1.3c-0.2-0.5-0.4-1.1-0.4-1.7c0-0.7,0.1-1.3,0.4-1.8c0.3-0.5,0.6-1,1.1-1.4   c0.5-0.4,1-0.7,1.7-0.9c0.6-0.2,1.3-0.3,2.1-0.3c1.1,0,2.1,0.2,2.9,0.6c0.8,0.4,1.5,0.9,2.1,1.5l-0.7,0.8c-0.5-0.6-1.2-1-1.9-1.4   c-0.7-0.3-1.5-0.5-2.4-0.5c-1.2,0-2.2,0.3-2.9,0.9c-0.7,0.6-1.1,1.4-1.1,2.3c0,0.5,0.1,1,0.3,1.3c0.2,0.4,0.5,0.7,0.8,0.9   c0.3,0.3,0.6,0.5,1,0.7c0.4,0.2,0.7,0.4,1,0.5l2.7,1.2c0.5,0.2,1,0.5,1.4,0.7c0.5,0.3,0.9,0.6,1.2,1c0.3,0.4,0.6,0.8,0.8,1.3   c0.2,0.5,0.3,1.1,0.3,1.8c0,0.7-0.1,1.3-0.4,1.9c-0.3,0.6-0.7,1.1-1.2,1.5c-0.5,0.4-1.1,0.8-1.8,1c-0.7,0.2-1.5,0.4-2.4,0.4   c-1.3,0-2.5-0.2-3.5-0.8c-1-0.5-1.9-1.2-2.6-2L165.7,296.1z"></path>
</g>
<polygon class="st1" points="186.8,282.5 181,282.5 181,281.4 193.8,281.4 193.8,282.5 188,282.5 188,299.4 186.8,299.4 "></polygon>
<g>
	<path class="st1" d="M206.8,292.1l-1.1-3.4c-0.4-1.1-0.7-2.1-1-3.1c-0.3-1-0.6-2-1-3.1h-0.1c-0.3,1.1-0.6,2.2-1,3.1   c-0.3,1-0.7,2-1,3.1l-1.1,3.4H206.8z M207.2,293.2H200l-2.1,6.2h-1.3l6.3-18h1.3l6.3,18h-1.3L207.2,293.2z"></path>
	<path class="st1" d="M215.9,281.4h1.3v11c0,1.2,0.1,2.2,0.4,3c0.3,0.8,0.6,1.4,1.1,1.9c0.4,0.5,0.9,0.8,1.5,1   c0.6,0.2,1.2,0.3,1.8,0.3c0.7,0,1.3-0.1,1.9-0.3c0.6-0.2,1.1-0.5,1.6-1c0.4-0.5,0.8-1.1,1.1-1.9c0.3-0.8,0.4-1.8,0.4-3v-11h1.2   v11.1c0,1.4-0.2,2.6-0.5,3.5c-0.3,0.9-0.8,1.7-1.4,2.2c-0.6,0.6-1.2,0.9-1.9,1.2s-1.5,0.3-2.3,0.3c-0.8,0-1.5-0.1-2.2-0.3   c-0.7-0.2-1.4-0.6-1.9-1.2c-0.6-0.6-1-1.3-1.4-2.2c-0.3-0.9-0.5-2.1-0.5-3.5V281.4z"></path>
	<path class="st1" d="M241,290.1c1.6,0,2.8-0.3,3.7-1c0.8-0.6,1.3-1.6,1.3-3c0-1.3-0.4-2.3-1.3-2.9c-0.9-0.6-2.1-0.8-3.7-0.8h-3.6   v7.6H241z M246.2,299.4l-4.9-8.3h-3.8v8.3h-1.3v-18h5.2c0.9,0,1.7,0.1,2.4,0.3c0.7,0.2,1.3,0.5,1.9,0.8c0.5,0.4,0.9,0.9,1.2,1.5   c0.3,0.6,0.4,1.3,0.4,2.2c0,1.4-0.4,2.6-1.2,3.4c-0.8,0.8-2,1.3-3.4,1.5l5,8.4H246.2z"></path>
	<path class="st1" d="M261.9,292.1l-1.1-3.4c-0.4-1.1-0.7-2.1-1-3.1c-0.3-1-0.6-2-1-3.1h-0.1c-0.3,1.1-0.6,2.2-1,3.1   c-0.3,1-0.7,2-1,3.1l-1.1,3.4H261.9z M262.2,293.2h-7.1l-2.1,6.2h-1.3l6.3-18h1.3l6.3,18h-1.3L262.2,293.2z"></path>
	<path class="st1" d="M271.5,281.4h1.3l7.6,12.7l2,3.6h0.1c0-0.9-0.1-1.7-0.1-2.6c0-0.9-0.1-1.8-0.1-2.6v-11h1.2v18h-1.3l-7.6-12.7   l-2-3.6h-0.1c0,0.9,0.1,1.7,0.1,2.6c0,0.8,0.1,1.7,0.1,2.6v11.2h-1.2V281.4z"></path>
</g>
<polygon class="st1" points="295.7,282.5 289.9,282.5 289.9,281.4 302.7,281.4 302.7,282.5 296.9,282.5 296.9,299.4 295.7,299.4 "></polygon>
<g>
	<path class="st1" d="M347.5,298.3c1.8,0,3.2-0.3,4.2-1c1-0.7,1.5-1.7,1.5-3.2c0-1.3-0.5-2.3-1.5-2.9c-1-0.6-2.4-0.9-4.3-0.9h-3.6v8   H347.5z M347,289.3c1.9,0,3.2-0.3,4-0.9c0.8-0.6,1.2-1.5,1.2-2.7c0-1.2-0.4-2-1.3-2.5c-0.9-0.5-2.1-0.8-3.8-0.8h-3.3v6.9H347z    M342.6,281.4h4.9c1.8,0,3.3,0.4,4.3,1.1c1.1,0.7,1.6,1.8,1.6,3.3c0,0.9-0.3,1.8-0.8,2.5c-0.5,0.7-1.3,1.2-2.4,1.5v0.1   c1.3,0.2,2.4,0.7,3.1,1.4c0.8,0.7,1.1,1.7,1.1,3c0,0.9-0.2,1.6-0.5,2.3c-0.3,0.7-0.8,1.2-1.4,1.6c-0.6,0.4-1.3,0.8-2.1,1   c-0.8,0.2-1.7,0.3-2.8,0.3h-5.2V281.4z"></path>
	<path class="st1" d="M369.1,292.1l-1.1-3.4c-0.4-1.1-0.7-2.1-1-3.1c-0.3-1-0.6-2-1-3.1h-0.1c-0.3,1.1-0.6,2.2-1,3.1   c-0.3,1-0.7,2-1,3.1l-1.2,3.4H369.1z M369.4,293.2h-7.1l-2.1,6.2h-1.3l6.3-18h1.3l6.3,18h-1.3L369.4,293.2z"></path>
	<path class="st1" d="M383.5,290.1c1.6,0,2.8-0.3,3.7-1c0.8-0.6,1.3-1.6,1.3-3c0-1.3-0.4-2.3-1.3-2.9c-0.9-0.6-2.1-0.8-3.7-0.8h-3.6   v7.6H383.5z M388.6,299.4l-4.9-8.3h-3.8v8.3h-1.3v-18h5.2c0.9,0,1.7,0.1,2.4,0.3c0.7,0.2,1.3,0.5,1.9,0.8c0.5,0.4,0.9,0.9,1.2,1.5   c0.3,0.6,0.4,1.3,0.4,2.2c0,1.4-0.4,2.6-1.2,3.4c-0.8,0.8-2,1.3-3.4,1.5l5,8.4H388.6z"></path>
	<path class="st1" d="M327.6,287.1c0.4,0.9-0.1,1.8-0.9,2.2c-0.9,0.4-1.8,0-2.2-0.9c-0.3-0.6-0.2-1.2,0-1.8c1-2.5-0.2-5.3-2.6-6.3   c0.9,0.9,1.4,2,1.4,3.3c0,0.9-0.7,1.7-1.7,1.7c-0.9,0-1.7-0.7-1.7-1.7c0-0.7,0.3-1.2,0.7-1.7c-1.6,0.6-2.3,2.4-1.7,4   c0.2,0.4,0.2,1,0,1.4c-0.3,0.7-1.1,1-1.7,0.7c-0.7-0.3-1-1.1-0.7-1.7c-2.4,2.4-2.4,6.4,0,8.8c3.1,3.1,8,3.1,11.1,0   C329.8,292.9,329.8,289.3,327.6,287.1"></path>
</g>
</svg>
