<svg width="741" height="308" viewBox="0 0 741 308" fill="none" xmlns="http://www.w3.org/2000/svg">
	<g opacity="0.4">
		<path d="M692.063 137.721L684.747 136.492V157.558C684.747 158.565 685.488 159.412 686.488 159.55L693.751 160.557V139.706C693.751 138.729 693.04 137.889 692.063 137.721Z" fill="white"/>
		<path d="M713.697 161.015C713.697 162.236 712.613 163.175 711.391 163.007L693.743 160.557V176.173C693.743 177.15 693.033 177.99 692.055 178.157L667.336 182.302C666.099 182.508 664.977 181.569 664.977 180.317V135.554C664.977 134.31 666.099 133.364 667.336 133.57L684.732 136.493V130.417C684.732 129.41 685.473 128.563 686.473 128.425L711.376 124.96C712.59 124.792 713.682 125.731 713.682 126.952V161.015H713.689H713.697ZM733.933 103.018H643.442C639.838 103.018 636.906 105.933 636.906 109.513V198.65C636.906 202.543 640.311 205.557 644.198 205.107L734.689 194.674C737.988 194.292 740.478 191.514 740.478 188.217V109.513C740.478 105.918 737.545 103.018 733.941 103.018H733.933Z" fill="white"/>
	</g>
	<g opacity="0.4">
		<path d="M392.224 239.855L384.908 238.626V259.691C384.908 260.699 385.649 261.546 386.649 261.683L393.911 262.691V241.839C393.911 240.862 393.201 240.023 392.224 239.855Z" fill="white"/>
		<path d="M413.858 263.149C413.858 264.37 412.773 265.309 411.552 265.141L393.904 262.691V278.307C393.904 279.284 393.194 280.123 392.216 280.291L367.497 284.436C366.26 284.642 365.138 283.703 365.138 282.451V237.688C365.138 236.444 366.26 235.497 367.497 235.703L384.893 238.627V232.551C384.893 231.544 385.634 230.697 386.634 230.559L411.536 227.094C412.751 226.926 413.843 227.865 413.843 229.086V263.149H413.85H413.858ZM434.094 205.151H343.603C339.999 205.151 337.066 208.067 337.066 211.646V300.784C337.066 304.676 340.472 307.691 344.359 307.241L434.85 296.807C438.149 296.426 440.639 293.648 440.639 290.351V211.646C440.639 208.052 437.706 205.151 434.102 205.151H434.094Z" fill="white"/>
	</g>
	<rect x="0.416667" y="1.29948" width="739.644" height="305.569" rx="58.75" stroke="white" stroke-width="0.833333"/>
	<rect x="103.989" y="103.434" width="532.5" height="101.301" rx="5.41667" stroke="white" stroke-width="0.833333"/>
	<path d="M158.73 137.955L151.414 136.726V157.791C151.414 158.799 152.155 159.646 153.155 159.783L160.417 160.791V139.94C160.417 138.963 159.707 138.123 158.73 137.955Z" fill="#79E2FF"/>
	<path d="M180.364 161.249C180.364 162.47 179.279 163.409 178.058 163.241L160.41 160.791V176.407C160.41 177.384 159.7 178.223 158.722 178.391L134.003 182.535C132.766 182.741 131.644 181.803 131.644 180.551V135.788C131.644 134.544 132.766 133.597 134.003 133.803L151.399 136.726V130.651C151.399 129.644 152.14 128.796 153.14 128.659L178.042 125.194C179.256 125.026 180.348 125.965 180.348 127.186V161.249H180.356H180.364ZM200.6 103.251H110.109C106.505 103.251 103.572 106.167 103.572 109.746V198.884C103.572 202.776 106.978 205.791 110.865 205.341L201.356 194.907C204.655 194.526 207.145 191.748 207.145 188.45V109.746C207.145 106.151 204.212 103.251 200.608 103.251H200.6Z" fill="#79E2FF"/>
	<path d="M381.373 116.894C379.14 116.894 377.239 117.536 375.889 118.756C374.532 119.981 373.789 121.739 373.789 123.849C373.789 125.964 374.555 127.721 375.92 128.945C377.278 130.161 379.177 130.804 381.373 130.804C383.569 130.804 385.468 130.161 386.826 128.945C388.191 127.721 388.957 125.964 388.957 123.849C388.957 121.739 388.214 119.981 386.857 118.756C385.507 117.536 383.606 116.894 381.373 116.894Z" fill="#79E2FF"/>
	<path d="M571.577 116.894C569.344 116.894 567.443 117.536 566.092 118.756C564.736 119.981 563.993 121.739 563.993 123.849C563.993 125.964 564.759 127.721 566.124 128.945C567.482 130.161 569.381 130.804 571.577 130.804C573.773 130.804 575.672 130.161 577.03 128.945C578.395 127.721 579.161 125.964 579.161 123.849C579.161 121.739 578.418 119.981 577.061 118.756C575.711 117.536 573.81 116.894 571.577 116.894Z" fill="#79E2FF"/>
	<path d="M297.628 120.523H284.347V178.248H297.628V120.523Z" fill="#79E2FF"/>
	<path d="M557.461 120.523H544.18V178.248H557.461V120.523Z" fill="#79E2FF"/>
	<path fill-rule="evenodd" clip-rule="evenodd" d="M259.626 122.175H243.625V178.248H257.535V160.707H259.626C265.49 160.707 270.274 158.897 273.592 155.528C276.909 152.16 278.696 147.299 278.696 141.323C278.696 135.384 276.908 130.582 273.589 127.262C270.27 123.943 265.486 122.175 259.626 122.175ZM257.535 148.763V134.119H258.289C260.54 134.119 262.171 134.753 263.248 135.926C264.333 137.107 264.943 138.929 264.943 141.48C264.943 144.073 264.332 145.871 263.252 147.02C262.179 148.162 260.549 148.763 258.289 148.763H257.535Z" fill="#79E2FF"/>
	<path d="M360.395 125.951H350.875L350.579 128.514C350.271 131.245 349.587 133.149 348.453 134.556C347.32 135.96 345.686 136.934 343.346 137.701L342.945 137.832V146.233H347.114V165.315C347.114 169.916 348.173 173.319 350.378 175.566C352.586 177.816 355.835 178.799 359.969 178.799C362.7 178.799 365.195 178.397 367.371 177.752L367.789 177.629V164.649L366.966 165.019C365.455 165.699 364.042 165.99 362.958 165.99C362.092 165.99 361.48 165.791 361.082 165.406C360.687 165.025 360.395 164.36 360.395 163.191V146.233H368.182V134.447H360.395V125.951Z" fill="#79E2FF"/>
	<path d="M629.538 125.951H620.018L619.722 128.514C619.414 131.245 618.73 133.149 617.596 134.556C616.463 135.96 614.829 136.934 612.49 137.701L612.088 137.832V146.233H616.257V165.315C616.257 169.916 617.316 173.319 619.521 175.566C621.729 177.816 624.978 178.799 629.112 178.799C631.843 178.799 634.338 178.397 636.515 177.752L636.932 177.629V164.649L636.109 165.019C634.598 165.699 633.185 165.99 632.101 165.99C631.235 165.99 630.624 165.791 630.225 165.406C629.83 165.025 629.538 164.36 629.538 163.191V146.233H637.325V134.447H629.538V125.951Z" fill="#79E2FF"/>
	<path fill-rule="evenodd" clip-rule="evenodd" d="M320.24 133.817C316.076 133.817 311.836 134.618 307.915 136.138L307.542 136.282V148.048L308.405 147.577C310.947 146.191 314.311 144.974 317.801 144.974C320.232 144.974 322.046 145.563 323.244 146.585C324.428 147.595 325.084 149.091 325.084 151.077V151.401C322.932 150.202 320.403 149.55 317.565 149.55C313.499 149.55 309.998 150.915 307.513 153.441C305.028 155.967 303.609 159.604 303.609 164.056C303.609 168.506 305.007 172.162 307.47 174.708C309.935 177.255 313.418 178.642 317.487 178.642C320.73 178.642 323.693 177.808 325.949 176.217V178.248H338.365V150.998C338.365 145.494 336.735 141.173 333.598 138.233C330.468 135.298 325.921 133.817 320.24 133.817ZM316.654 163.82C316.654 162.344 317.156 161.159 317.953 160.345C318.75 159.53 319.874 159.055 321.184 159.055C322.491 159.055 323.571 159.528 324.327 160.335C325.086 161.145 325.556 162.332 325.556 163.82C325.556 165.352 325.084 166.559 324.325 167.377C323.57 168.192 322.491 168.665 321.184 168.665C318.618 168.665 316.654 166.747 316.654 163.82Z" fill="#79E2FF"/>
	<path d="M598.864 133.817C594.562 133.817 590.989 134.923 588.483 137.086C585.965 139.259 584.594 142.44 584.594 146.436C584.594 150.622 586.086 154.146 589.715 157.777L589.72 157.783L592.936 161.155L592.94 161.16L592.945 161.165C594.785 163.005 595.37 163.862 595.37 164.843C595.37 165.549 595.124 165.993 594.733 166.281C594.312 166.591 593.648 166.777 592.729 166.777C590.708 166.777 588.55 165.84 585.661 163.888L584.751 163.273V177.299L585.15 177.432C588.043 178.396 591.174 178.878 594.144 178.878C598.727 178.878 602.556 177.651 605.247 175.291C607.948 172.923 609.438 169.469 609.438 165.158C609.438 162.753 608.967 160.694 607.947 158.715C606.933 156.748 605.388 154.888 603.282 152.861L603.28 152.859L599.513 149.17L599.511 149.168C598.177 147.834 597.796 147.12 597.796 146.436C597.796 145.983 597.97 145.648 598.29 145.408C598.629 145.154 599.179 144.974 599.965 144.974C601.405 144.974 603.274 145.556 605.619 146.65L606.449 147.037V134.8L605.994 134.697C603.526 134.14 601.2 133.817 598.864 133.817Z" fill="#79E2FF"/>
	<path d="M416.684 133.975C412.96 133.975 409.793 135.092 407.277 137.284V134.447H395.412V178.248H408.693V151.47C408.693 149.848 409.153 148.625 409.897 147.813C410.636 147.007 411.709 146.547 413.065 146.547C414.464 146.547 415.535 147.009 416.261 147.811C416.994 148.62 417.438 149.842 417.438 151.47V178.248H430.719V148.481C430.719 144.072 429.341 140.434 426.865 137.897C424.389 135.358 420.867 133.975 416.684 133.975Z" fill="#79E2FF"/>
	<path d="M501.517 133.975C497.932 133.975 494.898 134.967 492.346 137.26V134.447H480.482V178.248H493.762V151.47C493.762 149.83 494.173 148.605 494.862 147.798C495.539 147.004 496.546 146.547 497.899 146.547C499.252 146.547 500.258 147.004 500.936 147.798C501.625 148.605 502.035 149.83 502.035 151.47V178.248H515.316V151.47C515.316 149.836 515.743 148.61 516.442 147.801C517.133 147.002 518.142 146.547 519.452 146.547C520.805 146.547 521.812 147.004 522.49 147.798C523.178 148.605 523.589 149.83 523.589 151.47V178.248H536.791V148.481C536.791 144.038 535.456 140.4 533.008 137.869C530.559 135.336 527.054 133.975 522.835 133.975C518.484 133.975 514.835 135.464 512.081 138.529C509.658 135.521 505.994 133.975 501.517 133.975Z" fill="#79E2FF"/>
	<path d="M388.013 134.447H374.733V178.248H388.013V134.447Z" fill="#79E2FF"/>
	<path d="M451.186 134.447H437.905V164.135C437.905 168.535 439.198 172.191 441.614 174.752C444.033 177.316 447.52 178.72 451.782 178.72C455.441 178.72 458.61 177.663 461.189 175.355V178.248H472.975V134.447H459.694V161.225C459.694 162.81 459.253 164.013 458.52 164.813C457.793 165.607 456.721 166.069 455.322 166.069C453.926 166.069 452.921 165.609 452.256 164.828C451.578 164.034 451.186 162.829 451.186 161.225V134.447Z" fill="#79E2FF"/>
	<path d="M578.217 134.447H564.937V178.248H578.217V134.447Z" fill="#79E2FF"/>
</svg>