<svg xmlns:dc="http://purl.org/dc/elements/1.1/" xmlns:cc="http://creativecommons.org/ns#" xmlns:rdf="http://www.w3.org/1999/02/22-rdf-syntax-ns#" xmlns:svg="http://www.w3.org/2000/svg" xmlns="http://www.w3.org/2000/svg" viewBox="0 0 1779.5867 457.94666" height="457.94666" width="1779.5867" xml:space="preserve" id="svg2"><metadata></metadata><defs id="defs6"></defs><g transform="matrix(1.3333333,0,0,-1.3333333,0,457.94667)" id="g10"><g transform="scale(0.1)" id="g12"><path id="path14" style="fill:#2858a5;fill-opacity:1;fill-rule:nonzero;stroke:none" d="m 4515.17,2382.74 c 0,80.78 -50.95,128 -152.85,128 h -136.69 v -254.75 h 136.69 c 101.9,0 152.85,47.22 152.85,126.75 z m 248.54,0 c 0,-197.58 -149.13,-320.6 -386.47,-320.6 h -151.61 v -227.41 h -246.05 v 869.86 h 397.66 c 237.34,0 386.47,-123.02 386.47,-321.85"></path><path id="path16" style="fill:#2858a5;fill-opacity:1;fill-rule:nonzero;stroke:none" d="m 5279.44,2519.44 v -212.5 c -21.12,2.49 -36.03,3.73 -53.42,3.73 -95.69,0 -161.55,-48.46 -161.55,-166.52 v -309.42 h -236.1 v 673.52 h 224.91 v -80.77 c 48.47,60.89 126.75,91.96 226.16,91.96"></path><path id="path18" style="fill:#2858a5;fill-opacity:1;fill-rule:nonzero;stroke:none" d="m 5326.69,2508.25 h 236.1 v -673.52 h -236.1 z m -26.11,200.07 c 0,70.83 57.16,125.51 144.15,125.51 86.99,0 144.15,-50.95 144.15,-121.79 0,-74.55 -57.16,-129.23 -144.15,-129.23 -86.99,0 -144.15,54.68 -144.15,125.51"></path><path id="path20" style="fill:#2858a5;fill-opacity:1;fill-rule:nonzero;stroke:none" d="m 6375.46,2508.25 -278.35,-673.52 h -243.56 l -277.11,673.52 h 242.31 l 161.55,-411.32 170.24,411.32 h 224.92"></path><path id="path22" style="fill:#2858a5;fill-opacity:1;fill-rule:nonzero;stroke:none" d="m 6758.22,2050.95 v 58.41 h -101.9 c -75.8,0 -103.14,-27.34 -103.14,-68.35 0,-39.76 32.32,-68.34 88.23,-68.34 52.2,0 98.16,24.85 116.81,78.28 z m 236.1,157.83 v -374.05 h -219.94 v 86.99 c -33.56,-64.62 -100.65,-98.17 -198.83,-98.17 -161.55,0 -251.01,90.71 -251.01,207.53 0,124.25 90.7,201.3 299.47,201.3 h 134.21 c -3.73,68.35 -49.7,106.87 -142.9,106.87 -64.61,0 -136.69,-22.36 -182.67,-58.4 l -79.53,160.29 c 77.04,50.96 191.36,78.3 296.99,78.3 218.71,0 344.21,-96.93 344.21,-310.66"></path><path id="path24" style="fill:#2858a5;fill-opacity:1;fill-rule:nonzero;stroke:none" d="m 7558.49,1862.07 c -41,-26.09 -101.89,-38.52 -164.02,-38.52 -172.73,0 -273.38,84.5 -273.38,257.23 v 226.16 h -98.18 v 176.46 h 98.18 v 175.21 h 236.1 V 2483.4 h 154.09 v -176.46 h -154.09 v -223.68 c 0,-49.7 28.58,-77.04 70.82,-77.04 26.12,0 52.2,7.46 72.08,21.13 l 58.4,-165.28"></path><path id="path26" style="fill:#2858a5;fill-opacity:1;fill-rule:nonzero;stroke:none" d="m 7771.01,2236.11 h 275.87 c -12.42,70.83 -64.62,115.57 -137.93,115.57 -73.32,0 -124.27,-44.74 -137.94,-115.57 z m 493.34,-124.27 h -489.6 c 19.87,-68.34 78.28,-108.11 165.26,-108.11 65.87,0 109.36,18.65 155.33,58.41 L 8219.6,1932.9 c -64.61,-72.07 -159.05,-109.35 -287.04,-109.35 -239.83,0 -395.17,147.87 -395.17,349.19 0,202.55 157.83,346.7 370.31,346.7 198.83,0 360.37,-126.75 360.37,-349.19 0,-17.4 -2.48,-39.76 -3.72,-58.41"></path><path id="path28" style="fill:#2858a5;fill-opacity:1;fill-rule:nonzero;stroke:none" d="m 9436.17,1834.73 -2.47,461.02 -223.69,-375.27 h -109.35 l -222.43,362.85 v -448.6 h -227.42 v 869.86 h 202.56 l 305.7,-502.03 298.22,502.03 h 202.56 l 2.49,-869.86 h -226.17"></path><path id="path30" style="fill:#2858a5;fill-opacity:1;fill-rule:nonzero;stroke:none" d="m 9966.82,2236.11 h 275.88 c -12.4,70.83 -64.6,115.57 -137.9,115.57 -73.4,0 -124.32,-44.74 -137.98,-115.57 z m 493.38,-124.27 h -489.65 c 19.88,-68.34 78.25,-108.11 165.25,-108.11 65.9,0 109.4,18.65 155.3,58.41 l 124.3,-129.24 c -64.6,-72.07 -159,-109.35 -287,-109.35 -239.87,0 -395.2,147.87 -395.2,349.19 0,202.55 157.83,346.7 370.3,346.7 198.8,0 360.4,-126.75 360.4,-349.19 0,-17.4 -2.5,-39.76 -3.7,-58.41"></path><path id="path32" style="fill:#2858a5;fill-opacity:1;fill-rule:nonzero;stroke:none" d="m 11007,2172.74 c 0,101.89 -60.9,159.06 -140.5,159.06 -80.7,0 -141.6,-57.17 -141.6,-159.06 0,-103.14 60.9,-161.55 141.6,-161.55 79.6,0 140.5,58.41 140.5,161.55 z m 232.3,584.05 v -922.06 h -224.9 v 67.1 c -44.7,-53.43 -110.6,-78.28 -197.6,-78.28 -183.9,0 -331.8,134.21 -331.8,349.19 0,213.73 147.9,346.7 331.8,346.7 78.3,0 141.7,-22.37 186.4,-69.59 v 306.94 h 236.1"></path><path id="path34" style="fill:#2858a5;fill-opacity:1;fill-rule:nonzero;stroke:none" d="m 11341.3,2508.25 h 236.1 v -673.52 h -236.1 z m -26.1,200.07 c 0,70.83 57.1,125.51 144.1,125.51 87,0 144.1,-50.95 144.1,-121.79 0,-74.55 -57.1,-129.23 -144.1,-129.23 -87,0 -144.1,54.68 -144.1,125.51"></path><path id="path36" style="fill:#2858a5;fill-opacity:1;fill-rule:nonzero;stroke:none" d="m 11638.2,2172.74 c 0,202.55 160.3,346.7 386.5,346.7 152.9,0 269.7,-68.35 315.6,-185.16 l -182.6,-93.19 c -32.3,63.37 -79.6,90.71 -134.2,90.71 -82.1,0 -146.7,-57.17 -146.7,-159.06 0,-104.39 64.6,-161.55 146.7,-161.55 54.6,0 101.9,27.34 134.2,90.71 l 182.6,-93.19 c -45.9,-116.81 -162.7,-185.16 -315.6,-185.16 -226.2,0 -386.5,144.15 -386.5,349.19"></path><path id="path38" style="fill:#2858a5;fill-opacity:1;fill-rule:nonzero;stroke:none" d="m 12775.3,2050.95 v 58.41 h -101.9 c -75.8,0 -103.1,-27.34 -103.1,-68.35 0,-39.76 32.3,-68.34 88.2,-68.34 52.2,0 98.1,24.85 116.8,78.28 z m 236.1,157.83 v -374.05 h -219.9 v 86.99 c -33.6,-64.62 -100.7,-98.17 -198.9,-98.17 -161.5,0 -251,90.71 -251,207.53 0,124.25 90.7,201.3 299.5,201.3 h 134.2 c -3.7,68.35 -49.7,106.87 -142.9,106.87 -64.6,0 -136.7,-22.36 -182.7,-58.4 l -79.5,160.29 c 77,50.96 191.4,78.3 297,78.3 218.7,0 344.2,-96.93 344.2,-310.66"></path><path id="path40" style="fill:#2858a5;fill-opacity:1;fill-rule:nonzero;stroke:none" d="m 13110.8,2756.79 h 236.1 v -922.06 h -236.1 v 922.06"></path><path id="path42" style="fill:#6fcfd9;fill-opacity:1;fill-rule:nonzero;stroke:none" d="m 1957.74,740.34 h -667.33 v 643.69 H 644.695 v 667.32 H 0.00390625 V 1608.37 C -0.460938,1441.27 65.582,1280.86 183.559,1162.53 L 1067.69,183.559 C 1186.02,65.582 1346.43,-0.46875 1513.53,0 H 1971 c 348.16,-0.558594 630.87,281.219 631.44,629.398 v 0 754.632 h -644.7 V 740.34"></path><path id="path44" style="fill:#2858a5;fill-opacity:1;fill-rule:nonzero;stroke:none" d="M 3062.55,2272.03 2178.42,3251 c -118.31,118.02 -278.74,184.07 -445.84,183.56 h -457.47 c -348.09,0 -630.301,-282.13 -630.415,-630.22 v -754.62 h 645.715 v 646.33 h 668.14 v -644.7 h 644.7 v -667.32 h 644.69 v 442.16 c -0.02,167.36 -66.74,327.81 -185.39,445.84"></path><path id="path46" style="fill:#6fcfd9;fill-opacity:1;fill-rule:nonzero;stroke:none" d="m 4057.37,1155.86 h 239.74 c 216.07,0 216.07,330.53 0,330.53 h -239.74 z m 0,-65.12 V 860.871 h -69.06 v 690.639 c 102.61,0 206.19,0 308.8,0 308.81,0 308.81,-459.78 0,-460.77 h -239.74"></path><path id="path48" style="fill:#6fcfd9;fill-opacity:1;fill-rule:nonzero;stroke:none" d="m 4701.57,1348.25 3.93,-79.91 c 31.57,65.12 96.69,87.81 154.91,87.81 44.39,0 74.98,-9.87 110.5,-34.54 l -30.59,-55.24 c -24.66,16.77 -52.28,25.65 -83.86,25.65 -83.87,-0.99 -150.96,-65.12 -150.96,-153.91 V 860.871 h -66.09 v 487.379 h 62.16"></path><path id="path50" style="fill:#6fcfd9;fill-opacity:1;fill-rule:nonzero;stroke:none" d="m 5068.55,1104.56 c 0,-115.431 82.89,-191.4 185.5,-191.4 251.59,0 251.59,381.82 0,381.82 -102.61,0 -185.5,-75.97 -185.5,-190.42 z m 374.94,243.69 h 62.15 c 0,-162.79 0,-324.59 0,-487.379 h -61.17 v 96.688 C 5402.04,885.531 5324.09,851 5251.09,851 c -138.13,0 -248.62,98.66 -248.62,253.56 0,153.91 111.47,250.61 249.61,250.61 74.97,0 154.9,-34.54 191.41,-103.61 v 96.69"></path><path id="path52" style="fill:#6fcfd9;fill-opacity:1;fill-rule:nonzero;stroke:none" d="M 6063.02,925.992 C 6011.7,875.66 5947.57,851.98 5881.48,851.98 c -139.12,0 -253.56,92.75 -253.56,252.58 0,158.85 111.48,251.59 253.56,251.59 65.11,0 122.34,-22.69 173.64,-72.03 l -43.42,-42.41 c -37.48,35.52 -81.88,52.29 -129.24,52.29 -103.59,0 -188.45,-70.06 -188.45,-189.44 0,-122.341 85.85,-189.431 187.47,-189.431 49.33,0 98.65,18.742 136.15,55.242 l 45.39,-44.379"></path><path id="path54" style="fill:#6fcfd9;fill-opacity:1;fill-rule:nonzero;stroke:none" d="m 6291.87,1492.31 v -145.04 h 157.86 v -56.24 h -157.86 v -275.27 c 0,-61.158 16.77,-101.619 82.88,-101.619 22.68,0 47.36,7.898 71.04,18.738 l 20.71,-55.238 c -31.57,-14.801 -62.16,-23.68 -93.73,-23.68 -104.59,-0.992 -147,60.18 -147,161.799 v 275.27 h -99.65 v 56.24 h 99.65 v 138.13 l 66.1,6.91"></path><path id="path56" style="fill:#6fcfd9;fill-opacity:1;fill-rule:nonzero;stroke:none" d="M 6555.26,1350.23 V 860.871 h 66.09 v 489.359 z m 80.9,150.94 c 0,-62.14 -93.73,-62.14 -93.73,0 0,62.16 93.73,62.16 93.73,0"></path><path id="path58" style="fill:#6fcfd9;fill-opacity:1;fill-rule:nonzero;stroke:none" d="m 7178.78,925.992 c -51.31,-50.332 -115.44,-74.012 -181.53,-74.012 -139.12,0 -253.56,92.75 -253.56,252.58 0,158.85 111.48,251.59 253.56,251.59 65.11,0 122.33,-22.69 173.63,-72.03 l -43.41,-42.41 c -37.49,35.52 -81.88,52.29 -129.23,52.29 -103.6,0 -188.46,-70.06 -188.46,-189.44 0,-122.341 85.85,-189.431 187.47,-189.431 49.33,0 98.64,18.742 136.14,55.242 l 45.39,-44.379"></path><path id="path60" style="fill:#6fcfd9;fill-opacity:1;fill-rule:nonzero;stroke:none" d="m 7671.06,1133.18 c -1.98,106.55 -81.89,164.76 -179.56,164.76 -97.69,0 -169.71,-59.2 -182.54,-164.76 z m -362.1,-56.24 c 8.88,-101.631 87.82,-161.811 184.51,-161.811 59.19,0 130.22,23.672 164.76,67.09 l 44.4,-39.457 c -48.36,-60.192 -132.22,-90.782 -209.16,-90.782 -145.05,0 -252.58,97.68 -252.58,253.57 0,146.01 104.57,251.59 249.61,251.59 145.03,0 261.45,-87.81 242.71,-280.2 h -424.25"></path><path id="path62" style="fill:#6fcfd9;fill-opacity:1;fill-rule:nonzero;stroke:none" d="m 8195.85,925 h 174.63 c 192.4,0 279.21,149.96 276.27,289.08 -2.97,134.17 -89.79,272.31 -276.27,272.31 h -174.63 z m 174.63,626.51 c 233.84,0 346.31,-167.74 346.31,-338.41 0,-174.64 -104.58,-352.229 -346.31,-352.229 -79.91,0 -163.78,0 -243.69,0 v 690.639 h 243.69"></path><path id="path64" style="fill:#6fcfd9;fill-opacity:1;fill-rule:nonzero;stroke:none" d="m 9239.64,1133.18 c -1.97,106.55 -81.88,164.76 -179.56,164.76 -97.67,0 -169.7,-59.2 -182.54,-164.76 z m -362.1,-56.24 c 8.89,-101.631 87.83,-161.811 184.52,-161.811 59.19,0 130.22,23.672 164.75,67.09 l 44.41,-39.457 c -48.35,-60.192 -132.21,-90.782 -209.16,-90.782 -145.04,0 -252.57,97.68 -252.57,253.57 0,146.01 104.57,251.59 249.61,251.59 145.03,0 261.44,-87.81 242.7,-280.2 h -424.26"></path><path id="path66" style="fill:#6fcfd9;fill-opacity:1;fill-rule:nonzero;stroke:none" d="M 9839.49,1348.25 9634.26,859.891 h -73.01 l -205.22,488.359 h 73.02 l 168.7,-415.371 168.72,415.371 h 73.02"></path><path id="path68" style="fill:#6fcfd9;fill-opacity:1;fill-rule:nonzero;stroke:none" d="m 10323.9,1133.18 c -2,106.55 -81.9,164.76 -179.6,164.76 -97.7,0 -169.71,-59.2 -182.54,-164.76 z m -362.14,-56.24 c 8.89,-101.631 87.84,-161.811 184.54,-161.811 59.2,0 130.2,23.672 164.7,67.09 l 44.4,-39.457 c -48.3,-60.192 -132.2,-90.782 -209.1,-90.782 -145.1,0 -252.6,97.68 -252.6,253.57 0,146.01 104.57,251.59 249.6,251.59 145,0 261.5,-87.81 242.7,-280.2 h -424.24"></path><path id="path70" style="fill:#6fcfd9;fill-opacity:1;fill-rule:nonzero;stroke:none" d="M 10576.4,1551.51 V 860.871 h -66.1 v 690.639 h 66.1"></path><path id="path72" style="fill:#6fcfd9;fill-opacity:1;fill-rule:nonzero;stroke:none" d="m 10771.7,1103.58 c 0,-113.459 77,-188.451 184.5,-188.451 109.5,0 184.5,74.992 184.5,188.451 0,112.47 -76,193.38 -184.5,193.38 -108.5,0 -184.5,-80.91 -184.5,-193.38 z m 435.1,0 c 0,-150.951 -106.6,-250.611 -250.6,-250.611 -142.1,0 -250.6,99.66 -250.6,250.611 0,150.94 104.6,253.56 250.6,253.56 142.1,0 250.6,-102.62 250.6,-253.56"></path><path id="path74" style="fill:#6fcfd9;fill-opacity:1;fill-rule:nonzero;stroke:none" d="m 11766.2,1104.56 c 0,121.35 -79,187.46 -183.5,187.46 -107.6,0 -182.6,-79.91 -182.6,-188.44 0,-108.541 78,-188.451 182.6,-188.451 102.6,0 183.5,67.09 183.5,189.431 z m -437.1,-476.54 v 720.23 h 64.1 l 2,-103.58 c 37.5,69.05 112.5,111.48 197.3,111.48 137.2,-3.95 239.8,-98.67 239.8,-251.59 0,-158.849 -104.6,-253.56 -246.7,-253.56 -75,0 -151.9,34.531 -191.4,108.531 V 628.02 h -65.1"></path><path id="path76" style="fill:#6fcfd9;fill-opacity:1;fill-rule:nonzero;stroke:none" d="m 12354.1,1133.18 c -1.9,106.55 -81.8,164.76 -179.5,164.76 -97.7,0 -169.7,-59.2 -182.6,-164.76 z m -362.1,-56.24 c 8.9,-101.631 87.9,-161.811 184.6,-161.811 59.1,0 130.2,23.672 164.7,67.09 l 44.4,-39.457 c -48.3,-60.192 -132.2,-90.782 -209.1,-90.782 -145.1,0 -252.6,97.68 -252.6,253.57 0,146.01 104.5,251.59 249.6,251.59 145,0 261.4,-87.81 242.7,-280.2 H 11992"></path><path id="path78" style="fill:#6fcfd9;fill-opacity:1;fill-rule:nonzero;stroke:none" d="m 12595.8,1348.25 4,-79.91 c 31.5,65.12 96.7,87.81 154.9,87.81 44.4,0 75,-9.87 110.5,-34.54 l -30.6,-55.24 c -24.7,16.77 -52.3,25.65 -83.9,25.65 -83.8,-0.99 -150.9,-65.12 -150.9,-153.91 V 860.871 h -66.1 v 487.379 h 62.1"></path><path id="path80" style="fill:#6fcfd9;fill-opacity:1;fill-rule:nonzero;stroke:none" d="m 13263.7,1248.61 c -45.3,41.43 -91.7,49.33 -144,49.33 -71.1,0.99 -134.2,-24.66 -132.2,-78.93 1,-57.23 72,-71.03 133.2,-79.92 87.8,-12.83 201.2,-27.62 201.2,-146.008 C 13320,890.469 13220.3,851 13121.7,851 c -83.9,0 -166.8,27.629 -216.1,94.711 l 41.4,45.398 c 41.5,-56.25 113.5,-77.949 175.7,-78.937 55.2,0 133.1,15.789 133.1,81.887 0,64.131 -63.1,75.971 -141,86.831 -93.8,13.8 -191.5,35.52 -192.4,136.14 0,99.65 100.6,142.08 196.3,141.1 73,0 133.2,-19.73 183.5,-66.11 l -38.5,-43.41"></path></g></g></svg>