<svg width="425" height="253" viewBox="0 0 425 253" fill="none" xmlns="http://www.w3.org/2000/svg"><g clip-path="url(#clip0_67_2455)"><path d="M387.984 184.065c-29.493 0-123.467-.11-173.101-.34-12.109-.06-52.002.751-73.243.22-13.797-.35-21.21-15.105-13.907-34.662 9.451-25.319 10.281-42.495 7.233-48.747 10.081-4.1419 22.2-8.5634 35.648-28.6306 20.021-29.8807 16.045-46.8467 6.254-56.04 14.846-8.9132 29.583-7.71277 30.392-7.54271l7.133-.04001c-.239-.06003-20.311-7.17257-42.74 3.50122-15.276-10.11359-42.371-15.10537-66.909-7.85278C71.395 13.7746 48.506 41.6446 44.3099 62.282c-1.4187 7.0025-1.2189 13.2147 1.1989 18.1164-2.2679.5702-4.5958 1.2805-6.9736 2.1408C22.6698 88.3113 8.46286 103.417 2.86801 118.052c-6.58395 17.236 1.8483 32.231 10.02079 37.693 18.6528 12.465 42.0513 3.562 48.865-.14 20.6211-11.194 37.6055-31.201 52.5122-52.448 2.497.04 5.465-.01 9.131-.13 1.948 8.793-1.928 16.075-6.164 32.721-7.813 30.751 17.624 76.177 49.494 83.62 14.377 3.361 123.896 2.181 207.819 1.931 36.876-.11 49.954-.25 49.954-.25s-12.009-36.994-36.516-36.994v.01ZM160.243 64.1726c-8.692 12.9447-20.891 27.81-29.393 30.631-.17-.2501-2.577-3.3312-6.634-6.3523 3.767-5.742 7.414-11.4541 10.96-16.9861 9.052-14.075 19.832-33.1218 26.706-42.115 3.407-4.4616 7.133-7.9929 10.93-10.7939 8.132 9.8236-.07 27.0097-12.569 45.6163Zm-56.997 31.6513c-3.8268-1.7106-8.4026-4.8417-5.7351-8.433 1.6785-2.2408 8.1721-2.0807 11.8491-.7502-1.998 3.041-4.036 6.1121-6.114 9.1832ZM55.8493 149.663c-10.1507 5.982-27.3848 11.324-39.3838 1.861-8.20246-6.462-9.95085-19.077-1.7983-33.812 8.3123-15.016 21.72-23.0485 28.7135-26.5697 2.8075-1.4105 5.7547-2.651 8.702-3.6513.1699.1.3197.22.4996.3201 8.5221 4.9017 17.0443 5.3419 25.0469 2.781 2.198 4.2215 2.3978 11.3139.6894 15.3559l.6394-.271c4.2961-5.662 5.7747-11.9738 3.1371-16.8756 14.7265-7.2526 22.2099-25.159 22.5389-25.9592 0 0-11.8987 17.3061-25.4062 22.508-6.0644-5.2419-14.9363-7.5727-25.5166-6.4523-1.5585-6.5423 1.3788-15.6556 3.0972-19.9071 7.553-18.7167 27.9343-39.054 58.7256-48.1472 24.048-7.10255 38.365-5.08182 51.703 3.2512-5.825 3.3612-11.729 8.0028-17.424 14.3551-8.093 9.0332-18.193 23.6384-27.395 37.9735-3.197 4.9718-6.634 10.3537-10.251 15.9057-8.771-2.841-16.6542-2.1708-19.2718 1.6906-4.7656 7.0425 2.138 13.0647 7.4528 16.0353-14.4464 20.988-30.3717 41.275-44.4987 49.598v.01Zm3.3369-64.0427c5.7447-1.0604 11.0498-.8103 14.8763 1.3905-4.7356 1.1504-9.6711 1.1904-14.8763-1.3905Zm58.8958 12.0143c.769-1.1304 1.529-2.2608 2.288-3.3912.739 1.1104 1.219 2.1307 1.429 2.881-1.299.2301-2.538.3901-3.717.5102Z" fill="#fff"/><path d="M203.393 90.2719c-.05.09-.2.3301-.409.6602-.22-1.8006-1.02-3.9714-3.507-4.8517-12.129-4.2916-28.474 8.403-34.449 14.2346-6.424 6.273-14.556 20.188-16.834 24.659-2.268 4.472-5.925 20.298 5.025 22.378 10.96 2.091 19.422-9.753 19.422-9.753s-3.866 10.854 7.414 11.364c5.385.24 12.628-3.651 20.381-10.434 2.927-2.571 9.651-9.613 16.864-17.366-5.425 12.444-4.625 23.378 4.996 25.099 10.011 1.781 38.794-32.132 38.794-32.132l4.975-6.902c-19.022 30.011-45.328 71.385-45.328 71.385l16.515.11 35.627-59.431c8.942-10.814 21.5-24.2384 26.086-28.0998 5.755-4.8717 6.454 1.8907 5.016 4.3216-1.449 2.4308-19.143 28.4502-23.169 34.9622-4.026 6.513-4.856 14.535 1.848 16.046 6.704 1.501 11.38-1.14 15.486-3.331 2.518-1.341 11.899-11.954 18.773-19.947-8.772 13.685-15.106 23.558-15.106 23.558l14.556-.82 2.928-4.662c2.757-3.351 6.843-8.473 11.269-14.545 7.943-10.894 26.326-30.8711 32.081-35.7429 5.764-4.8717 6.464 1.8907 5.015 4.3216-1.449 2.4409-19.142 28.4503-23.159 34.9723-4.026 6.513-4.865 14.535 1.849 16.046 6.693 1.5 11.379-1.14 15.485-3.321 1.279-.681 4.496-3.361 8.323-6.743 2.278-1.83 4.635-3.831 7.023-5.932-2.827 4.292-2.348 11.974 4.256 15.776 10.581 6.092 29.913 2.681 37.146-12.915 5.805-12.514 2.598-30.261-.539-36.7129-.65-1.3205-3.797-6.1622-3.797-6.1622s1.699-2.5509 2.678-4.8117c.959-2.2308-.34-4.6417-2.828-5.9922-3.826-2.0807-7.683 1.0704-8.332 4.7517-.49 2.771 2.807 5.2219 2.807 5.2219-5.435 7.4827-12.588 14.8954-18.942 21.7374-5.585 6.023-11.649 11.544-17.984 16.906-4.346 3.552-8.352 6.763-10.58 8.403-6.734 4.962-4.616-3.951-3.487-5.592 1.129-1.64 12.709-20.277 17.624-26.459 4.916-6.1822 11.659-20.6274-1.119-21.2176-10.98-.5002-24.078 11.274-27.565 14.6152l37.906-60.4216-1.609-2.6109s-9.591 2.2608-13.158 2.5909c0 0 .23 2.681-.699 4.4216-.49.9203-19.143 30.0507-36.656 57.3805-6.614 7.5729-29.184 33.2419-34.918 37.4629-6.734 4.952-8.612.541-3.487-5.592 1.289-1.54 12.708-20.267 17.624-26.459 4.915-6.1922 11.659-20.6273-1.119-21.2075-7.543-.3402-16.096 5.1218-21.84 9.6534l16.225-27.1097-1.609-2.6109s-9.601 2.2608-13.168 2.5909c0 0 .24 2.681-.699 4.4216-.31.5802-7.713 12.2944-17.454 27.6799-11.23 12.4543-37.695 39.9243-45.038 39.7543-3.118-.07-.91-7.923 11.289-28.07 4.046-6.683 10.72-16.8762 17.874-27.57.589-.4702 1.109-.8703 1.538-1.1704 9.452-6.7124 18.903-13.945 26.996-22.0279.279-.2801.559-.5502.829-.8503 3.736-4.1615 21.23-27.4998 12.728-32.1715-8.502-4.6816-30.242 19.457-35.797 26.4195-11.829 14.8353-21.94 30.841-31.941 46.7967-1.458 2.3209-2.917 4.6319-4.376 6.9429-15.006 15.115-34.927 34.202-39.563 33.992-1.918-.09-.23-4.052.989-5.932h.06l.719-1.121c.4-.58.999-1.51 1.669-2.571l29.023-44.6257-1.599-2.6109s-9.601 2.2608-13.168 2.5909c0 0 .24 2.681-.699 4.4216v-.04Zm207.679 3.1211c.06.06 1.059.6602 1.239 4.9017.39 9.4733-3.257 22.2583-4.716 26.2793-4.286 11.824-10.09 17.536-16.784 18.877-2.328.46-9.512-.66-10.251-7.143-.699-6.132 4.896-8.193 6.614-8.143-1.728-1.97-5.045-1.4-7.133-.37 16.145-14.745 32.28-33.1616 31.031-34.392v-.01ZM287.716 36.0225c2.647-3.4112 6.044-6.2422 7.483-5.692 5.734 2.1807-17.754 30.791-29.134 39.364-1.118.8403-2.227 1.6806-3.356 2.5109 11.989-17.7163 23.518-34.2822 24.997-36.1829h.01Zm-89.049 61.2819c-4.945 7.2326-12.778 18.5966-18.842 27.3696-.13.16-.28.29-.4.46-4.446 6.223-16.874 14.385-19.902 12.115-2.357-1.751 3.397-14.506 13.318-29.061 9.931-14.5549 22.569-20.0669 25.966-18.8264 2.618.9503 1.249 5.0918-.14 7.9428Z" fill="#fff"/><path d="M394.348 76.257c.579-.3601.12 1.7006-.41 2.781-.499 1.0204-1.778 2.0607-2.917 2.5809 0 0 3.157.7003 5.075-1.4405 2.608-2.891 2.868-6.6524 2.648-8.9532-.14-1.4505-1.609-4.6516-5.025-4.8617-1.079-.07-2.928.5902-3.747 1.5805-.819.9904-1.229 2.2108-1.229 3.6614 0 1.4505.39 2.6809 1.169 3.6613.779.9903 3.077 1.8206 4.416.9903h.02Z" fill="#fff"/><path d="M212.875 205.883c-1.329 1.351-3.807 2.951-8.023 2.951-5.815 0-8.952-3.421-8.952-6.632 0-4.512 4.187-6.943 8.123-6.943 4.276 0 6.963 1.921 8.122 2.751l.53.371 3.447-2.521-.6-.501c-4.106-3.421-8.542-4.141-11.529-4.141-7.064 0-12.598 4.822-12.598 10.984 0 6.672 6.434 10.664 12.668 10.664 6.884 0 9.731-2.101 11.859-4.082l.48-.45-3.108-2.881-.409.42-.01.01ZM237.233 191.228c-7.344 0-12.879 4.652-12.879 10.824s5.535 10.824 12.879 10.824c7.343 0 12.878-4.652 12.878-10.824s-5.535-10.824-12.878-10.824Zm0 17.616c-4.696 0-8.373-2.981-8.373-6.792s3.677-6.793 8.373-6.793c4.695 0 8.362 2.982 8.362 6.793s-3.677 6.792-8.362 6.792ZM260.771 212.456h4.505v-8.804h9.372v-4.041h-9.372v-3.931h15.446v-4.032h-19.951v20.808ZM290.474 212.456h4.505v-8.804h9.372v-4.041h-9.372v-3.931h15.446v-4.032h-19.951v20.808ZM324.062 203.652h7.793v-4.041h-7.793v-3.931h15.456v-4.032h-19.961v20.808h20.541v-4.042h-16.036v-4.762ZM354.345 208.414v-4.762h7.783v-4.041h-7.783v-3.931h15.446v-4.032h-19.952v20.808h20.531v-4.042h-16.025Z" fill="#005640"/><path d="m76.6104 252.01-4.1561-5.982h-7.7729v5.982h-4.1062v-16.916h13.8373c3.8464 0 6.3741 2.241 6.3741 5.542 0 2.661-1.3088 4.391-3.8465 5.092l4.2961 6.282h-4.6258Zm.1199-11.494c0-1.281-1.029-2.171-2.7774-2.171h-9.2615v4.441h9.2815c1.7484 0 2.7574-.86 2.7574-2.26v-.01ZM106.513 252.01l-1.938-3.642H93.7545l-1.9382 3.642h-4.1561l8.9817-16.916h5.0651l8.962 16.916h-4.156Zm-7.3734-13.825-3.7066 6.942h7.423l-3.7064-6.942h-.01ZM118.781 252.01v-16.916h4.106v13.665h12.999v3.251h-17.105ZM164.749 240.636c0 3.501-2.238 5.392-6.534 5.392h-9.561v5.982h-4.106v-16.916h13.837c3.847 0 6.374 2.241 6.374 5.542h-.01Zm-4.056-.02c0-1.451-.979-2.271-2.777-2.271h-9.262v4.441h9.282c1.728 0 2.757-.84 2.757-2.17ZM189.586 252.01v-7.263h-12.199v7.263h-4.106v-16.886h4.106v6.162h12.199v-6.162h4.106v16.886h-4.106ZM217.301 252.01v-16.916h4.106v13.665h12.998v3.251h-17.104ZM260.711 252.01l-1.938-3.642h-10.82l-1.938 3.642h-4.157l8.982-16.916h5.065l8.962 16.916h-4.156Zm-7.373-13.825-3.707 6.942h7.423l-3.706-6.942h-.01ZM282.501 252.5c-6.324 0-10.221-2.621-10.221-6.192v-11.214h4.107v10.654c0 2.08 2.217 3.481 6.114 3.481 3.896 0 6.114-1.431 6.114-3.481v-10.654h4.106v11.214c0 3.571-3.896 6.192-10.22 6.192ZM319.826 252.01l-4.156-5.982h-7.773v5.982h-4.106v-16.916h13.837c3.847 0 6.364 2.241 6.364 5.542 0 2.661-1.308 4.391-3.846 5.092l4.296 6.282h-4.616Zm.12-11.494c0-1.281-1.029-2.171-2.777-2.171h-9.262v4.441h9.282c1.748 0 2.757-.86 2.757-2.26v-.01ZM333.964 252.01v-16.916h18.313v3.251H338.07v3.461h9.871v3.251h-9.871v3.712h14.856v3.251h-18.962v-.01ZM378.153 252.01l-11.459-12.075h-.07v12.075h-4.106v-16.916h4.785l11.46 12.104h.09v-12.104h4.106v16.916h-4.806Z" fill="#fff"/></g><defs><clipPath id="clip0_67_2455"><path fill="#fff" d="M.5.5h424v252H.5z"/></clipPath></defs></svg>