<?xml version="1.0" encoding="UTF-8"?>
<svg xmlns="http://www.w3.org/2000/svg" xmlns:xlink="http://www.w3.org/1999/xlink" width="146" height="106" viewBox="-160 -160 320 280">
  <defs>
    <linearGradient id="c">
      <stop offset="0" stop-opacity=".078"/>
      <stop offset="1" stop-opacity=".275"/>
    </linearGradient>
    <linearGradient id="b">
      <stop offset="0" stop-color="#ddd"/>
      <stop offset="1" stop-color="#7f7f7f"/>
    </linearGradient>
    <linearGradient id="a">
      <stop offset="0" stop-color="#fff"/>
      <stop offset="1" stop-color="#d3d3d3"/>
    </linearGradient>
    <linearGradient id="d" x1="-148.406" x2="-109.094" y1="-146.906" y2="98.906" gradientTransform="translate(-3.669 15.406)" gradientUnits="userSpaceOnUse" xlink:href="#a"/>
    <linearGradient id="e" x1="-148.406" x2="-109.094" y1="-146.906" y2="98.906" gradientTransform="translate(-3.669 15.406)" gradientUnits="userSpaceOnUse" xlink:href="#a"/>
    <linearGradient id="f" x1="-145.906" x2="-111.594" y1="-144.406" y2="96.406" gradientTransform="translate(-3.669 15.406)" gradientUnits="userSpaceOnUse" xlink:href="#b"/>
    <linearGradient id="g" x1="109.287" x2="144.094" y1="-148.056" y2="99.594" gradientTransform="translate(59.737 15.406)" gradientUnits="userSpaceOnUse" xlink:href="#a"/>
    <linearGradient id="h" x1="112.533" x2="140.906" y1="-144.899" y2="96.406" gradientTransform="translate(59.737 15.406)" gradientUnits="userSpaceOnUse" xlink:href="#b"/>
    <linearGradient id="i" x1="-67.5" x2="67.5" gradientUnits="userSpaceOnUse" xlink:href="#c"/>
  </defs>
  <path fill-opacity=".2" d="M-171.347-148.645c-4.697 0-8.115 2.9-9.896 5.75-1.679 2.685-2.387 5.727-2.387 8.795v96.508c0 6.976 1.678 13.466 4.963 18.723a21.678 21.678 0 0 0 7.603 7.32V95.105c0 4.217 1.02 8.228 3.141 11.623 2.19 3.503 6.228 6.943 11.655 6.943s9.435-3.44 11.624-6.943c2.122-3.395 3.173-7.406 3.173-11.623V-11.581a21.681 21.681 0 0 0 7.57-7.288c3.286-5.257 4.996-11.747 4.996-18.723V-134.1c0-3.068-.74-6.11-2.42-8.796-1.78-2.849-5.167-5.749-9.864-5.749-3.14 0-5.653 1.333-7.54 3.048-1.886-1.72-4.391-3.048-7.539-3.048-3.14 0-5.654 1.333-7.54 3.048-1.886-1.72-4.392-3.048-7.54-3.048z"/>
  <path fill="#333" stroke="#2d2d2d" stroke-width="13.823" d="M-176.386-146.76c-1.729 0-3.147 1.114-4.021 2.513-.875 1.4-1.351 3.187-1.351 5.121v96.507c0 5.82 1.46 11.101 3.927 15.048 2.138 3.422 5.17 5.779 8.639 6.377V90.078c0 3.045.775 5.821 2.105 7.948 1.33 2.128 3.358 3.707 5.78 3.707s4.45-1.58 5.78-3.707 2.105-4.903 2.105-7.948V-21.194c3.469-.598 6.5-2.955 8.64-6.377 2.466-3.947 3.926-9.227 3.926-15.048v-96.507c0-1.934-.476-3.72-1.35-5.12-.876-1.4-2.294-2.514-4.022-2.514-1.728 0-3.146 1.114-4.021 2.513-.875 1.4-1.35 3.187-1.35 5.121v96.507c0 1.397-.36 2.641-.849 3.424-.49.784-.966 1.006-1.32 1.006-.353 0-.83-.222-1.319-1.006-.49-.783-.848-2.027-.848-3.424v-96.507c0-1.934-.476-3.72-1.351-5.12s-2.293-2.514-4.021-2.514c-1.728 0-3.146 1.114-4.021 2.513-.875 1.4-1.351 3.187-1.351 5.121v96.507c0 1.397-.359 2.641-.848 3.424-.49.784-.966 1.006-1.32 1.006-.353 0-.83-.222-1.32-1.006-.489-.783-.847-2.027-.847-3.424v-96.507c0-1.934-.476-3.72-1.351-5.12s-2.293-2.514-4.021-2.514z"/>
  <path fill="url(#d)" stroke="url(#e)" stroke-width="3.75" d="M-147.419-130.25c-.875 0-1.751.596-2.375 1.594-.657 1.05-1.031 2.459-1.031 4.062v96c0 5.468 1.367 10.406 3.593 13.969 2.22 3.55 5.259 5.688 8.563 5.688h.344v112.343c0 2.703.649 5.113 1.75 6.875 1.084 1.735 2.567 2.781 4.156 2.781 1.59 0 3.072-1.046 4.156-2.78 1.101-1.763 1.75-4.173 1.75-6.876V-8.938h.344c3.304 0 6.344-2.137 8.562-5.687 2.227-3.563 3.594-8.501 3.594-13.969v-96c0-1.603-.374-3.011-1.031-4.062-.624-.998-1.5-1.594-2.375-1.594s-1.751.596-2.375 1.594c-.657 1.05-1.031 2.459-1.031 4.062v96c0 1.719-.432 3.278-1.157 4.438-.706 1.13-1.755 1.906-2.937 1.906s-2.231-.776-2.938-1.906c-.724-1.16-1.156-2.719-1.156-4.438v-96c0-1.603-.374-3.011-1.031-4.062-.624-.998-1.5-1.594-2.375-1.594s-1.751.596-2.375 1.594c-.657 1.05-1.031 2.459-1.031 4.062v96c0 1.719-.432 3.278-1.157 4.438-.706 1.13-1.755 1.906-2.937 1.906s-2.231-.776-2.938-1.906c-.724-1.16-1.156-2.719-1.156-4.438v-96c0-1.603-.374-3.011-1.031-4.062-.624-.998-1.5-1.594-2.375-1.594zm0 2.5c-.17 0-.1-.154.25.406.317.508.656 1.574.656 2.75v96c0 2.13.516 4.125 1.531 5.75 1.035 1.655 2.807 3.094 5.063 3.094s4.028-1.44 5.062-3.094c1.016-1.625 1.532-3.62 1.532-5.75v-96c0-1.176.339-2.242.656-2.75.35-.56.42-.406.25-.406-.17 0-.1-.154.25.406.317.508.656 1.574.656 2.75v96c0 2.13.516 4.125 1.531 5.75 1.035 1.655 2.807 3.094 5.063 3.094s4.028-1.44 5.062-3.094c1.016-1.625 1.532-3.62 1.532-5.75v-96c0-1.176.339-2.242.656-2.75.35-.56.42-.406.25-.406-.17 0-.1-.154.25.406.317.508.656 1.574.656 2.75v96c0 5.044-1.304 9.594-3.219 12.657-1.922 3.075-4.205 4.5-6.437 4.5h-2.844v114.843c0 2.286-.597 4.318-1.375 5.563-.795 1.272-1.536 1.594-2.031 1.594-.495 0-1.236-.322-2.031-1.594-.778-1.245-1.375-3.277-1.375-5.563V-11.438h-2.845c-2.232 0-4.515-1.424-6.438-4.5-1.914-3.062-3.218-7.612-3.218-12.656v-96c0-1.176.339-2.242.656-2.75.35-.56.42-.406.25-.406z" transform="translate(-28.189 -13.874) scale(1.00528)"/>
  <path fill="url(#f)" d="M-147.419-129c.352 0 .825.22 1.312 1 .488.78.844 2.016.844 3.406v96c0 1.924.474 3.702 1.344 5.094.87 1.392 2.28 2.5 4 2.5 1.72 0 3.13-1.108 4-2.5.87-1.392 1.344-3.17 1.344-5.094v-96c0-1.39.356-2.627.843-3.406.488-.78.961-1 1.313-1s.825.22 1.312 1c.488.78.844 2.016.844 3.406v96c0 1.924.474 3.702 1.344 5.094.87 1.392 2.28 2.5 4 2.5 1.72 0 3.13-1.108 4-2.5.87-1.392 1.344-3.17 1.344-5.094v-96c0-1.39.356-2.627.843-3.406.488-.78.961-1 1.313-1s.825.22 1.312 1c.488.78.844 2.016.844 3.406v96c0 5.256-1.336 10-3.406 13.313-2.07 3.313-4.732 5.094-7.5 5.094h-1.594v113.593c0 2.495-.623 4.716-1.562 6.219-.94 1.503-2.052 2.188-3.094 2.188-1.042 0-2.154-.685-3.094-2.188-.94-1.503-1.562-3.724-1.562-6.219V-10.188h-1.594c-2.768 0-5.43-1.78-7.5-5.093-2.07-3.313-3.406-8.057-3.406-13.313v-96c0-1.39.356-2.627.843-3.406.488-.78.961-1 1.313-1z" transform="translate(-28.189 -13.874) scale(1.00528)"/>
  <path fill-opacity=".2" d="M172.93-148.852a15.099 15.099 0 0 0-3.392.251c-2.28.437-4.379 1.376-6.283 2.64-3.767 2.497-6.753 6.198-9.393 11.026-10.568 19.324-17.445 59.205-12.378 142.31v.031l.094 1.508.409 6.472h17.09v79.951c0 4.218 1.02 8.229 3.141 11.624 2.19 3.502 6.228 6.943 11.655 6.943s9.435-3.44 11.624-6.943c2.122-3.395 3.173-7.406 3.173-11.624v-225.183c0-7.827-3.94-16.164-12.347-18.503a14.709 14.709 0 0 0-3.392-.503z"/>
  <path fill="#333" stroke="#333" stroke-width="13.823" d="M165.818-146.841c-1.249.239-2.53.78-3.77 1.602-2.48 1.644-4.879 4.432-7.162 8.607-9.135 16.703-16.564 56.012-11.53 138.572l.094 1.508h17.498v86.863c0 3.044.776 5.82 2.105 7.948 1.33 2.127 3.359 3.707 5.78 3.707 2.423 0 4.452-1.58 5.781-3.707 1.33-2.127 2.105-4.904 2.105-7.948v-225.183c0-5.557-2.738-10.578-7.288-11.844a7.888 7.888 0 0 0-3.613-.125z"/>
  <path fill="url(#g)" d="M192.987-132.5c-1.242.238-2.517.776-3.75 1.594-2.466 1.635-4.853 4.408-7.125 8.562-9.086 16.616-16.476 55.718-11.469 137.844l.094 1.5h17.406v86.406c0 3.029.772 5.79 2.094 7.906 1.323 2.117 3.34 3.688 5.75 3.688s4.428-1.571 5.75-3.688c1.323-2.116 2.094-4.877 2.094-7.906v-224c0-5.527-2.724-10.522-7.25-11.781a7.847 7.847 0 0 0-3.594-.125z" transform="translate(-28.189 -13.642) scale(1.00528)"/>
  <path fill="url(#h)" d="M193.55-129.406a4.593 4.593 0 0 1 2.156.094c2.662.74 4.937 4.245 4.937 8.718v224c0 2.495-.623 4.716-1.562 6.219-.94 1.503-2.051 2.188-3.094 2.188-1.042 0-2.154-.685-3.094-2.188-.939-1.503-1.562-3.724-1.562-6.219V13.812h-17.563c-4.796-80.782 2.736-119.371 11.094-134.656 2.104-3.846 4.256-6.198 6.125-7.437.935-.62 1.778-.973 2.563-1.125z" transform="translate(-28.189 -13.642) scale(1.00528)"/>
  <path fill-opacity=".2" d="M3.994-142.886c-69.184 0-125.402 56.218-125.402 125.403 0 69.184 56.218 125.402 125.402 125.402 69.185 0 125.403-56.218 125.403-125.402 0-69.185-56.218-125.403-125.403-125.403z"/>
  <circle r="100" fill="#fff" stroke="#333" stroke-width="6.198" transform="translate(-1.032 -22.51) scale(1.21639)"/>
  <circle r="65" fill="none" stroke="url(#i)" stroke-width="3.757" transform="rotate(-105 -9.152 -10.86) scale(1.48085)"/>
</svg>
