<?xml version="1.0" encoding="utf-8"?>
<!-- Generator: Adobe Illustrator 27.2.0, SVG Export Plug-In . SVG Version: 6.00 Build 0)  -->
<svg version="1.1" id="Layer_1" xmlns="http://www.w3.org/2000/svg" xmlns:xlink="http://www.w3.org/1999/xlink" x="0px" y="0px"
	 viewBox="0 0 1000 1000" style="enable-background:new 0 0 1000 1000;" xml:space="preserve">
<style type="text/css">
	.st0{fill:#9170B1;}
	.st1{fill:none;}
	.st2{fill:url(#SVGID_1_);}
</style>
<path d="M524.3,477.5h-23V512h24c12.2,0,20-5.3,20-17.1C545.3,483.4,537.1,477.5,524.3,477.5z M486.5,464.4H525
	c22,0,35.5,10.8,35.5,29.9c0,13.8-7.2,23-18.4,27.3v1l22,27.9v2H548l-21.7-27.9h-25v27.9h-14.8V464.4z"/>
<polygon points="647.5,514.9 603.1,514.9 603.1,539.6 655.4,539.6 655.4,552.4 588.7,552.4 588.7,464.4 655.4,464.4 655.4,477.5 
	603.1,477.5 603.1,502.8 647.5,502.8 "/>
<polygon points="739.8,514.9 695.8,514.9 695.8,539.6 748,539.6 748,552.4 681,552.4 681,464.4 748,464.4 748,477.5 695.8,477.5 
	695.8,502.8 739.8,502.8 "/>
<polygon points="773.6,552.4 773.6,464.4 788.1,464.4 788.1,539.6 836.7,539.6 836.7,552.4 "/>
<g>
	<path class="st0" d="M522.3,612.2c0,0-4.9,5.6-15.4,5.6c-13.5,0-23-10.2-23-22.7c0-13.1,9.5-23,23-23c10.5,0,15.4,5.6,15.4,5.6
		l-3.3,4.6c0,0-4.6-4.6-11.8-4.6c-10.2,0-17.1,7.6-17.1,17.4c0,9.5,6.9,17.1,17.1,17.1c7.2,0,11.8-4.6,11.8-4.6L522.3,612.2z"/>
	<rect x="541.4" y="572.8" class="st0" width="6.2" height="44.3"/>
	<polygon class="st0" points="610,616.8 608.4,616.8 577.2,585.2 577.2,616.8 571.3,616.8 571.3,573.1 572.9,573.1 603.8,604 
		603.8,573.1 610,573.1 	"/>
	<polygon class="st0" points="662.6,597.7 639.3,597.7 639.3,611.5 666.2,611.5 666.2,616.8 633.4,616.8 633.4,573.1 666.2,573.1 
		666.2,578.3 639.3,578.3 639.3,592.5 662.6,592.5 	"/>
	<polygon class="st0" points="723.7,585.9 708.9,602 707.3,602 692.2,586.2 692.2,616.8 686.3,616.8 686.3,573.1 687.9,573.1 
		707.9,594.1 728,573.1 729.6,573.1 729.6,616.8 723.7,616.8 	"/>
	<path class="st0" d="M769.7,584.9H769l-8.5,18.7l-0.7,0.7h19.1l-0.7-0.7L769.7,584.9z M768.7,573.1h1.3l22,43.7h-6.9l-3.6-7.2
		h-24.3l-3.6,7.2H747L768.7,573.1z"/>
	<path class="st0" d="M808.8,607.9c0,0,4.9,4.3,13.1,4.3c7.6,0,10.5-2.6,10.5-6.9c0-3.6-2.3-5.6-11.5-8.2
		c-10.5-3-15.4-6.2-15.4-13.1c0-7.6,6.2-11.8,16.8-11.8c10.8,0,15.8,4.3,15.8,4.3l-3.3,4.9c0,0-4.6-3.6-12.5-3.6
		c-5.9,0-10.2,2.3-10.2,6.2c0,3.3,2.6,4.9,11.5,7.6c11.5,3,15.4,6.9,15.4,13.5c0,7.2-5.3,12.8-17.1,12.8c-11.2,0-16.4-5.3-16.4-5.3
		L808.8,607.9z"/>
</g>
<g>
	<g>
		<path class="st1" d="M540.7,409.8c-1,0-2,0.3-2.6,1c-0.7,1-1,2.3-1,3.9c0,1.3,0.3,2.6,1.3,3.6c0.7,1,1.6,1.3,2.6,1.3
			c2.3,0,3.6-2,3.6-4.9c0-1.6-0.3-3-1-3.9C542.7,410.2,541.7,409.8,540.7,409.8z"/>
		<path class="st0" d="M493.4,414.8c-1.6,0-2.3-1.3-2.3-3.3l-0.3-24h-5.3l0.3,26c0,2,0.7,3.6,1.6,4.6c1,1,2,1.3,3.3,1.3h4.9v-4.6
			H493.4z"/>
		<path class="st0" d="M549.9,414.8c0-2.6-0.7-4.6-2.3-6.6c-2-1.6-4.3-2.6-6.9-2.6c-5.6,0-9.2,3.3-9.2,9.2h-3.3h-32.5v4.6h32.5h4.6
			c1.6,3,4.6,4.6,8.2,4.6c3.9,0,6.6-1.6,7.9-4.6h3.9v-4.6H549.9z M541.1,419.7c-1,0-2-0.3-2.6-1.3c-1-1-1.3-2.3-1.3-3.6
			c0-1.6,0.3-3,1-3.9c0.7-0.7,1.6-1,2.6-1c1,0,2,0.3,3,1c0.7,1,1,2.3,1,3.9C544.7,417.7,543.4,419.7,541.1,419.7z"/>
		<path class="st0" d="M603.5,414.8c-1,0-1.6-0.7-2.6-1.6c-1-1-1.3-2.3-1.3-3.9c-0.3-3.3-0.3-5.9-0.3-7.6h-5.3l0.3,9.5
			c0,1.3-0.7,2-1.6,2.6c-0.7,0.7-1.6,1-2.6,1h-4.6h-32.5v4.6h32.5h6.6c2.6,0,5.3-1.6,6.2-3.9c0.3,0.7,0.7,1.3,1.3,2
			c1,1.3,2.3,2,3.6,2h3.9v-4.6H603.5z"/>
		<path class="st0" d="M657.7,414.8c-1,0-2-0.7-2.6-1.6c-1.3-1-1.6-2.3-1.6-3.9c0-3.3-0.3-5.9-0.3-7.6h-4.9v9.5c0,1.3-0.3,2-1.6,2.6
			c-0.7,0.7-1.3,1-2.3,1h-4.9h-32.2v4.6h32.2h6.9c2.6,0,5.3-1.6,5.9-3.9c0.3,0.7,0.7,1.3,1.3,2c1,1.3,2.3,2,3.6,2h3.3v-4.6H657.7z"
			/>
		<path class="st0" d="M728.6,401.6h-4.9c0,6.9,0,10.2,0,10.2c0,2.3-1,3.3-3,3.3c-1.3,0-2.6-0.7-3.3-1.3c-1-1-1.3-2.3-1.3-4.3
			c-0.3-3-0.3-5.3-0.3-6.6h-4.9c0,5.3,0,8.2,0,8.9c0,2-1,3.3-3,3.3c-1.3,0-2.6-0.7-3.3-1.3c-1-1-1.3-2-1.3-3.6v-7.2h-5.3
			c0,1.3,0,4.9,0,11.8h-5.3h-32.5v4.6h32.5h10.5v-2c1.3,2,3.3,2.6,5.6,2.6c3.3,0,5.3-1.3,6.2-3.9c1.3,2.6,3.6,3.9,6.6,3.9
			c4.6,0,6.9-2.6,7.2-7.9L728.6,401.6z"/>
	</g>
	<g>
		<rect x="815" y="422" width="4.6" height="4.9"/>
		<path d="M817,401.6c0,1,0,2.6,0,4.9c0,1.3,0,2.6,0,4.6c0,2.3-1.3,3.6-3.3,3.6l-40.4,0c-2,0-3.9-2.3-4.3-4.6v-23h-5.3l0.3,28.9
			c0,4.6-3.6,8.5-7.9,8.5c-2.3,0-3.9-0.7-5.6-2.3c-2.6-3-2.3-3.6-2.3-10.8l-0.3-5.3h-4.9v9.9c0,7.6,5.9,14.1,13.1,14.1
			c6.9,0,12.8-6.2,12.8-13.8c1.3,2,2.6,3,4.6,3h42c4.3,0,6.6-2.3,6.6-6.2c0,0,0-3.9,0-11.5H817z"/>
		<rect x="807.8" y="422" width="4.9" height="4.9"/>
	</g>
	<path d="M821.6,425.9c3,0,5.3-1,7.6-3c2-2,3-4.6,3-7.6v-13.8h5.3v13.1c0,4.3-1,7.9-3.3,10.5c-2.3,3-5.6,4.6-9.5,4.9
		C823.9,429.2,822.9,427.6,821.6,425.9z"/>
	<rect x="643.5" y="422" class="st0" width="4.9" height="4.9"/>
	<rect x="650.8" y="422" class="st0" width="4.6" height="4.9"/>
	<rect x="594.3" y="392.7" class="st0" width="4.6" height="4.9"/>
</g>
<linearGradient id="SVGID_1_" gradientUnits="userSpaceOnUse" x1="176.6692" y1="405.8313" x2="384.3324" y2="588.2492">
	<stop  offset="0" style="stop-color:#B79BC7"/>
	<stop  offset="0.1483" style="stop-color:#8858A0"/>
	<stop  offset="0.5324" style="stop-color:#2B144D"/>
	<stop  offset="1" style="stop-color:#000000"/>
</linearGradient>
<path class="st2" d="M441.2,596.1l-49.9-63.7c31.2-10.2,53.9-39.4,53.9-74.2c0-42.7-34.8-77.5-77.9-77.5c-1,0-2.3,0-3.6,0H177.1
	c-8.9,0-16.1,7.2-16.1,16.1v206.6c0,8.9,7.2,16.1,16.1,16.1h63.4v-0.3h13.1c6.9,0,13.1-3.6,16.8-9.5l21.7-35.8l21.4,35.8
	c3.6,5.9,9.9,9.5,16.8,9.5h14.5v0.3h86.7c7.6,0,13.8-5.9,13.8-13.5C445.1,602,443.8,598.7,441.2,596.1z"/>
</svg>
