<?xml version="1.0" encoding="utf-8"?>
<!-- Generator: Adobe Illustrator 28.0.0, SVG Export Plug-In . SVG Version: 6.00 Build 0)  -->
<svg version="1.1" id="Layer_1" xmlns="http://www.w3.org/2000/svg" xmlns:xlink="http://www.w3.org/1999/xlink" x="0px" y="0px"
	 viewBox="0 0 976.8 1000.1" style="enable-background:new 0 0 976.8 1000.1;" xml:space="preserve">
<style type="text/css">
	.st0{fill:#F22646;}
	.st1{fill:#11BDF9;}
</style>
<g>
	<path class="st0" d="M109.6,290.9c-0.6-17.6,0.8-41.7,0.8-65.8c0-9.2,0.1-18.4,0-27.6c-0.1-6.8,2.2-13.3,6.3-18.1
		c4.5-5.2,10.1-9.7,16.9-12.2c7.7-2.8,15.4-5.5,23.8-5.4c4.5,0.1,8.5-2.8,13.1-3.3c13.1-1.3,26-4.4,38.8-7
		c12.3-2.5,24.8-4.8,37.2-7.2c12.3-2.4,24.5-6.3,37.3-6.5c1.6,0,3.3-0.6,4.8-1.2c3.4-1.3,6.9-2.7,10.6-3.1c13.1-1.2,26.2-5,39.3-2.7
		c9.3,1.6,18.9,1.8,27.8,5.9c4.6,2.1,9.7,3.2,14.4,5.3c17.9,7.9,31.6,20.5,43.5,35.7c7.1,9.1,12.3,19.1,17.1,29.4
		c2.9,6.3,5.5,12.9,6.5,19.9c1.2,8.6,4.3,16.8,4.9,25.6c0.9,14.2-2.7,27.7-5.8,41.1c-5.7,23.8-17,45.3-31.3,65.2
		c-16.4,22.8-35.9,42.2-60,56.9c-9.5,5.8-19.2,10.9-30.1,14.3c-5.7,1.8-11.6,4.2-17.4,5.8c-12.3,3.4-24.7,7.1-37.6,7.5
		c-2.7,0.1-5.2,0.8-7.8,1.6c-10.6,3.6-26.5,4.6-34.9-5.9c-6.5-8.2-11-16.5-6.2-27.5c3.3-7.6,5.7-15.4,11.6-21.9
		c7.7-8.5,17.9-9.9,27.8-12.2c5-1.1,10.2-1.2,15.1-3.3c2-0.9,4.2-1.6,6.3-1.5c8.4,0.4,16-2.9,23.9-4.9c12.2-3.2,22.9-9.5,33.3-16.7
		c17.1-11.9,27.1-29,34.9-47.5c4.1-9.6,5-20.4,5.9-30.9c1.8-21.1-5.2-39.2-19.6-54.4c-7.3-7.8-16.4-13.2-27.4-14.5
		c-6.9-0.9-13.7-4.7-20.7-2.7c-5.9,1.7-11.9,2.1-17.8,2.5c-13.3,0.7-26,4.5-38.8,7.1c-12.3,2.5-24.9,4.5-37.2,7.2
		c-10.9,2.4-22,5.3-33.4,5.9c-4,0.2-6.3,2.2-6.4,6.2c-0.2,5.4-0.7,10.7-0.2,16.1c0.6,7.4,0.5,14.7,0.6,22.1
		c0.3,16.7-0.1,33.5,1.1,50.2c0.9,12.4-4,21.6-11.6,30.4c-7.7,8.9-17.9,14-28.7,17.4c-12.7,4-30.5-9.8-30.7-23.1
		C109.5,327.9,109.6,312.6,109.6,290.9z"/>
	<path class="st0" d="M867.1,558.2c-13.2,0.5-20.2-5.5-26.3-12.6c-9.1-10.5-18.4-20.9-26.6-32c-14.5-19.5-30.9-37.3-45.7-56.6
		c-9.2-11.9-19.4-23.1-28.8-34.8c-5.7-7.2-10.5-15.1-16.3-22.3c-10-12.4-20.3-24.4-30.6-36.5c-8.4-9.9-17.2-19.6-25.4-29.7
		c-11.1-13.7-11.5-19.9-1.6-35.9c11.2-18,23-35.6,35-53.1c13.9-20.1,27.6-40.3,40.4-61.2c12.8-20.8,26-41.3,40-61.3
		c9.9-14.1,19.4-28.4,29.4-42.4c10.1-14,18.3-29.2,28.6-43c5.3-7.1,11.8-12.7,19.5-17c11.6-6.5,28.9-3.9,38.1,5.8
		c7.5,7.9,9.1,18.8,4.4,28.9C894.6,69,885.7,82,876.9,95.1c-19.2,28.6-38.3,57.3-56.4,86.6c-10.4,16.9-22.9,32.5-34.5,48.7
		c-9.4,13.2-18.6,26.5-27,40.5c-4.7,7.7-10.1,14.9-15.2,22.4c-4.2,6.2-4.1,9.6,0.5,15.3c20.7,25.8,42.1,51.1,63.5,76.4
		c17.2,20.5,33.8,41.5,50.8,62.1c12.6,15.4,25.4,30.7,38.1,46c5,5.9,9,16.6,10,20.1c1,3.5,0.5,5.6-0.6,8.3
		c-5.9,15.8-16.9,27-31.7,34.8C871.1,558.2,870.8,558.2,867.1,558.2z"/>
	<path class="st0" d="M562.1,345.5c0-76.1,0.4-152.2-0.2-228.3c-0.2-21.1,8.9-35.3,26.3-45.4c11.4-6.6,28.4-5.7,38.1,2.9
		c6.6,5.8,10.1,13.4,10.1,22.5c0,36.2,0.2,72.4,0.2,108.6c0.1,57.2,0.1,114.3,0.1,171.5c0,59.3-0.1,118.6-0.2,177.9
		c0,5.1,0.6,10.2,0,15.5c-1.8,14.4-9.9,24.2-21.5,32.1c-4.7,3.2-9.6,6.8-15,7c-1.6,0.1-2.9-1.8-4.2-1c-1.8,1-3.7,1.9-5.7,1.5
		c-15.6-3.2-27.6-10.3-27.9-29.9c-0.5-40.7-0.2-81.5-0.2-122.2C562,420.6,562,383,562.1,345.5C562.1,345.5,562.1,345.5,562.1,345.5z
		"/>
	<path class="st0" d="M181.1,536.1c0,39.5,0.6,79.1-0.3,118.6c-0.3,13.8-7.2,25.9-19.7,33.5c-8.4,5.1-17.2,10.1-27.4,8.7
		c-12.1-1.6-25.4-9.9-25.2-25.4c0.7-42.7,1.1-85.4,0.8-128.1c-0.3-38.5-0.6-77-0.7-115.6c0-14.7,7.2-25.4,18.9-33.3
		c6.7-4.6,13.9-8.4,22.4-8.4c11.2,0,19.3,5.9,25.4,14.5c4.2,5.9,5.8,12.7,5.8,20.3c-0.4,38.4-0.2,76.7-0.2,115.1
		C181,536.1,181.1,536.1,181.1,536.1z"/>
	<path class="st1" d="M976.7,407.4c0.8,16.7-1.5,32.9-4.8,48.6c-3.4,16-3.5,32.5-8.2,48.2c-3,9.8-4.8,19.9-7.4,29.8
		c-3,11.3-5.8,22.6-9.6,33.7c-4.3,12.5-8.8,24.8-14.5,36.8c-3.2,6.8-5.7,14-8.6,21c-2.5,5.9-6.3,10.9-10.6,15.5
		c-3.4,3.6-12.1,5-16.4,2.7c-3.8-2-4.1-5.9-4.3-9.6c-0.4-8.5,3.4-15.9,6.5-23.5c11.5-27.6,22.1-55.6,28.9-84.9
		c4-17.5,6-35.2,9.2-52.8c4.4-24.3,4.5-48.6,4.5-73c0-19.5-3.4-38.6-6.1-57.8c-4.1-29-12.3-56.8-23-83.9
		c-9.8-24.6-22.7-47.7-37.2-69.9c-4.6-7-9-14.1-13-21.4c-4.3-7.9,0.3-21.1,8.4-25.1c3.6-1.8,7.3-1.1,10.6,0.9
		c6.6,4,12.4,8.9,16.9,15.4c13.9,20,26.4,40.8,36.8,62.7c10.6,22.4,19,45.6,24.9,69.8c3.9,15.8,7.3,31.5,9.8,47.6
		C973,361.2,977.2,384.2,976.7,407.4z"/>
	<path class="st1" d="M581.1,0.2c10.9-0.4,23.5-0.1,35.6,1.7c14.1,2.1,28.4,3.6,42.5,6.5c17.8,3.6,35.3,8.3,52.5,14
		c12.5,4.2,25.1,8.2,36.8,14.3c9,4.8,18.7,8,26.8,14.6c8.2,6.7,8.7,11,1.4,18.4c-4.7,4.8-10.7,7.4-16.6,10.2
		c-2.6,1.3-5.2,0.5-7.7-0.9c-10.4-6.1-21.1-11.7-32.5-15.5c-12.3-4.2-24.3-9.2-36.9-12.7c-9.6-2.7-19.4-4.8-29.1-7.5
		c-6.1-1.7-12.6-1.7-18.8-3c-28.5-5.8-57.3-4.1-86-4.1c-12.9,0-25.5,2-38.2,4.3c-7.4,1.4-15.1,1-22.4,2.7
		c-15.2,3.5-30.5,6.9-45.6,11.3c-16.6,4.8-32.9,9.9-48.9,16.3c-16.3,6.5-32.2,13.9-48,21.5c-12.9,6.2-25,14.1-38.5,19.3
		c-7.9,3.1-12.7,1.9-17.5-5.5c-4-6.3-3.3-13.1,2.5-17.9c8-6.7,17.5-11.1,26.4-16.4c18.9-11.2,38.9-20.2,58.9-29
		c14.3-6.3,28.6-13,44.2-16.2c5.5-1.1,10.8-3.5,16.2-5.3c10-3.3,20.3-5.4,30.6-7.5c3.8-0.8,7.4-2.1,11.2-2.8
		c10.5-2.1,21-3.8,31.6-5.2C534,2.8,556.7-0.2,581.1,0.2z"/>
	<path class="st0" d="M309.6,486.1c-0.5-16.1,8.2-25.3,19.6-32.7c6.7-4.4,14.4-6.6,22-7.5c11.3-1.3,19.4,5.2,25.6,13.9
		c10.4,14.6,18.7,30.5,27.5,46c13.2,23.1,26.8,45.9,41.1,68.4c4.4,6.9,8.7,13.9,11,21.9c1.3,4.7,1.3,9-0.5,13.7
		c-4.5,11.5-12.3,20.4-22.1,27.3c-4.9,3.4-11,5.7-16.8,7.2c-7,1.8-12.9-1.4-18.3-6.1c-6.5-5.7-10.6-13.1-14.8-20.2
		c-9.6-16.1-18.8-32.4-29.1-48c-12.5-19-24.3-38.4-35.5-58.2C314.5,503.2,309,495.3,309.6,486.1z"/>
	<path class="st1" d="M0.1,591.7c0.3-13.4-0.8-29.5,0.9-45.5c1.4-13.1,3.4-26.2,5-39.3c2.4-20.7,7.2-40.9,13.2-60.6
		c8.1-26.7,16.1-53.5,28-78.9c1.4-3,3.2-5.9,5-8.7c4.2-6.5,10.9-9.8,16.3-8.4c5,1.3,10.5,9.8,10.9,16.3c0.3,4.8-1.8,8.8-3.8,12.8
		c-10.3,20.9-17.4,43.1-23.8,65.5c-5.4,19-10.2,38.1-13.2,57.6c-1.7,10.9-2.3,21.9-3.9,32.8c-3.4,22.7-3.4,45.4-2.6,68.2
		c1,30.6,5.3,60.7,13.2,90.5c7.5,28.5,19,55.3,30.8,82.1c4,9.2,3.2,12.3-5.1,18.1c-0.8,0.6-1.7,1-2.5,1.7
		c-10.1,8.5-16.6,3.8-22.4-4.7c-7.7-11.3-12.7-24-17.7-36.6c-5.3-13.5-9.9-27.4-13.8-41.4c-5-17.5-7.7-35.5-11-53.4
		C-0.3,638.1,0.2,616.2,0.1,591.7z"/>
	<path class="st1" d="M142.6,927.1c0-15.7,0.1-31.5,0-47.2c-0.1-7.7-0.5-15.4-0.8-23c-0.2-4.4-1.8-5.4-5.8-3.7
		c-6.3,2.8-12.9,3-19.7,2.6c-4-0.3-6.2-2.3-7.9-5.7c-3.9-8.1-2.3-20.4,4.1-24.2c5-3,10.3-5.6,16.5-6.2c12.8-1.2,13.5-1.5,12.6-14
		c-1.4-18.8,5.6-34.8,15.3-49.9c4.7-7.3,12.2-12.1,19.5-16.9c11.6-7.6,24.5-9.6,37.9-10.6c2.5-0.2,4.9-1,7.3-1.6
		c8.3-2,16.9,1.3,20.7,8.1c2.9,5.1,0.6,13.7-4.7,19.7c-6.4,7.1-14.6,9.5-23.6,10.2c-7.6,0.5-15.2,0.6-22.5,3.9
		c-7.9,3.5-10.4,9.2-10.6,17c-0.9,24.9,0.3,49.8,0,74.7c-0.3,33.7,0,67.3-0.1,101c0,6.2-0.8,12.3-1.7,18.4
		c-1.1,7.4-5.4,12.9-10.6,17.7c-4,3.7-14.1,3.7-18.3,0.1c-5-4.3-8-9.4-7.8-16.5C142.8,962.9,142.5,945,142.6,927.1
		C142.5,927.1,142.5,927.1,142.6,927.1z"/>
	<path class="st1" d="M625.4,839.2c0,17.3,0,34.5,0,51.8c0,12.7-6.2,20-18.7,22.1c-6.3,1.1-13.5-4.9-13.6-11.7
		c-0.4-18.2-0.8-36.4-0.9-54.6c-0.2-19.3-0.6-38.5,0-57.8c0.6-17.9-18.4-39.3-40.4-32.3c-9.7,3.1-20.2,2.5-29.8,6.5
		c-2.7,1.1-6.3,0.6-9.4,0.3c-6.1-0.7-10-10.6-7.4-17.6c3.6-9.6,11.6-12.9,20.6-14.7c2.1-0.4,4.3-0.6,6.3-1.3
		c12.5-4.7,25.4-6.3,38.7-7c17.5-0.9,29.7,7.9,40.6,20.1c11.2,12.6,13.6,28.1,13.9,43.9C625.8,804.3,625.5,821.7,625.4,839.2
		C625.5,839.2,625.4,839.2,625.4,839.2z"/>
	<path class="st1" d="M730.3,815.1c0,19.8,0.1,39.5,0,59.3c-0.1,8.6-9.4,17.9-17.7,18c-9.8,0.2-14.7-4.9-15.1-14.7
		c-1.5-35.2-0.3-70.3-0.8-105.5c-0.1-5.7,0.1-11.5-2-16.8c-6.3-16.2-21.9-24-39-19.4c-6.8,1.8-13.5,3.4-20.5,4.3
		c-7.4,1-11.5-1.7-13-9c-2.5-11.8,0.2-15.7,11.5-20.1c10.8-4.3,22.2-6.4,33.5-8.1c17.8-2.6,33.5,3.8,46.6,15.5
		c7.8,6.9,12.5,16.2,14.8,26.8c1.8,8.3,1.8,16.6,1.8,24.9C730.4,785.3,730.4,800.2,730.3,815.1C730.4,815.1,730.3,815.1,730.3,815.1
		z"/>
	<path class="st1" d="M418.8,720.9c1,23.6,1.2,47.2,0.7,70.8c-1,45-0.5,90.1-0.6,135.1c0,4.1-0.4,8.1-1.3,11.9
		c-1.6,6.5-7.2,9.5-12.8,11.6c-5,1.8-10,0.6-14-3.2c-3-2.8-3-6.6-3.1-10.3c-0.1-29.3-0.2-58.7-0.2-88c0-17.1,0.4-34.2-0.1-51.3
		c-0.5-14.2-0.6-28.5-0.5-42.7c0.1-14.4,0.4-28.8,0.9-43.2c0.4-13.7,9.2-20.6,22.8-18.3c4.8,0.8,8.2,4.9,8.3,9.8
		C418.8,709.2,418.8,715.1,418.8,720.9z"/>
	<path class="st1" d="M285.4,880.7c0-24.3,0.4-48.6-0.2-72.8c-0.3-11.3,5.1-18.9,13.4-24.1c8.3-5.2,21-1,24.2,11.4
		c0.7,2.7,0.9,5.6,0.9,8.4c0.1,45.7,0.1,91.4,0.1,137.2c0,5.8,0,11.8-2.3,17.3c-3.8,9-11.9,12.7-20.5,15.4c-1,0.3-2.4,0-3.4-0.6
		c-6.8-4.1-12.4-8.5-12.3-17.8C285.6,930.3,285.3,905.5,285.4,880.7C285.3,880.7,285.4,880.7,285.4,880.7z"/>
	<path class="st1" d="M793.8,873.2c-13.3,0-17.3-4.3-16.6-16.7c0.3-6,4.3-9.1,9.1-11.5c8.6-4.3,18.3-3.5,27.2-6.3
		c9.9-3.1,20.5-2.8,30.1-7.2c1.9-0.9,4.3-0.5,6.4-0.7c14.9-1.5,27.9-11.7,28.8-27c0.6-10.1-4.2-16.5-15.6-20.3
		c-14.4-4.8-16.9-13.4-8.2-25.8c5-7,11.7-9.1,19.3-7.2c17,4.2,30,13.5,35.9,30.9c1.1,3.1,1.7,6.5,3.8,9.2c0.5,0.7,0.9,1.9,0.7,2.8
		c-3.2,17.2-9.8,32.9-21.8,45.9c-7.1,7.7-14.9,14.6-24.7,18.4c-6.3,2.5-12.9,4.8-19.6,5.8c-14.7,2.2-29.2,5.3-43.8,8.3
		C800.9,872.8,796.9,873.3,793.8,873.2z"/>
	<path class="st1" d="M808.9,785.6c-8.5-1-16.7-8.8-23.7-18.4c-16.4-22.4-7.7-52.9,8.1-70c10.8-11.8,24.1-19.5,39.4-22.6
		c11.4-2.3,22.5-6.4,34.2-7c4.4-0.2,8.7-2.2,13.1-3.1c7.2-1.6,10.6-0.1,14.7,6.4c3.4,5.3,3.3,11.8-0.6,16.4
		c-4.6,5.5-10.2,9-17.8,9.9c-10.4,1.2-20.6,3.8-30.9,6c-7.6,1.6-15.5,2.3-22.6,6.2c-6.2,3.4-10,7.9-11.6,14.8c-1.1,5-1.2,10-0.5,15
		c0.7,5.1,3.8,8.9,8.6,10.9c2.8,1.1,5.6,2.3,8.6,2.8c9.5,1.8,13.3,12.9,6.6,22.1C829.4,782.1,822.1,785.9,808.9,785.6z"/>
	<path class="st1" d="M519.8,852c0,20.1,0.1,40.2,0,60.3c-0.1,10.8-9.4,20.9-20.1,22.1c-4.6,0.5-10.3-4.1-11.8-9.8
		c-1.7-6.4-1.8-13-1.8-19.4c-0.2-33-0.1-66-0.2-99c0-5,0.9-10,1.5-14.9c1.2-9.1,11.6-14.5,19.2-14.7c6.8-0.2,13.1,6.3,13.1,13.2
		C519.7,810.4,519.7,831.2,519.8,852C519.7,852,519.8,852,519.8,852z"/>
	<path class="st1" d="M229.2,801.4c2.5,0,5-0.1,7.5,0c3.9,0.1,5.8,2.3,7.8,5.8c3.9,6.7,2.2,12.4-1.1,18.3
		c-3.6,6.3-9.6,9.2-16.2,10.3c-5.6,1-11.1,1.6-16.4,3.9c-10.8,4.5-20.9-2.5-21.1-14.2c-0.2-12.9,4.2-18.1,17.1-20
		c3.8-0.6,6.8-3.5,10.8-3.6c3.8-0.1,7.7-0.5,11.5-0.7C229.2,801.2,229.2,801.3,229.2,801.4z"/>
	<path class="st1" d="M285.4,735.3c-2.1-8.9,1.4-16.8,9.3-22.3c8.7-6.1,17.1-7.8,24.9,0.9c1.7,1.9,3.1,4.1,3,6.7
		c-0.1,8.4,0.7,16.7-1,25c-2.7,13.4-21.6,20.3-29.5,13c-3.7-3.4-6.5-7.6-6.7-12.9C285.3,742.6,285.4,739.4,285.4,735.3z"/>
</g>
</svg>
