<?xml version="1.0" encoding="UTF-8" standalone="no"?>
<!-- Created with Inkscape (http://www.inkscape.org/) -->
<svg
   xmlns:svg="http://www.w3.org/2000/svg"
   xmlns="http://www.w3.org/2000/svg"
   version="1.0"
   width="711.42859"
   height="340"
   id="svg4537">
  <defs
     id="defs4539" />
  <g
     transform="translate(267.42856,-240.93361)"
     id="layer1">
    <path
       d="M 248.52206,405.2896 C 295.92431,406.35856 345.32526,389.63303 362.26955,377.3524 C 343.94804,374.80181 305.42564,373.1561 263.49747,373.16108 C 263.49747,373.16108 254.65741,394.31658 248.52206,405.2896"
       id="path957"
       style="fill:#e2001a;fill-opacity:1;fill-rule:nonzero;stroke:none" />
    <path
       d="M 404.96339,385.63064 C 377.65266,404.11125 320.69936,424.96844 275.80296,426.75335 C 304.50086,445.95489 341.7952,458.4344 382.69915,469.46211 C 383.87749,469.78031 384.66306,470.31231 384.99618,471.34149 L 385.10556,472.00773 C 385.09064,472.94245 384.58848,474.00147 383.58912,475.15993 C 380.09884,479.16232 370.57762,484.53696 365.02896,483.45308 C 309.01536,472.64414 265.27742,449.27613 234.86918,431.52639 C 234.86918,431.52639 220.40588,456.02799 211.98843,466.8966 C 209.81073,469.70076 205.5846,474.1904 199.31502,471.15753 L 187.56638,465.06196 L 187.56638,465.05202 C 187.56638,465.05202 207.50376,431.08887 213.18666,419.38498 C 212.51048,418.9375 207.13087,416.7598 207.12589,416.74489 C 206.07185,416.02893 205.54483,414.87048 205.54483,413.29935 C 205.54483,411.22606 206.48949,408.9887 207.05629,407.82527 C 209.2141,403.38535 213.1618,399.45257 216.48304,400.51158 C 216.48304,400.51158 221.44998,401.78937 221.86762,401.90869 C 221.86762,401.90869 229.43985,387.62935 232.86053,373.64832 C 189.90815,374.50349 143.59973,378.21751 138.09085,378.51086 C 138.13062,376.70605 138.30464,374.65265 138.62284,372.49981 C 139.74649,365.00216 144.12675,356.56979 147.95015,355.38151 C 151.09241,354.41695 155.98974,353.50212 162.28916,352.65192 C 245.79745,343.25003 374.5651,347.78442 398.85788,355.26715 C 402.68128,356.45047 405.2269,364.88781 406.35055,372.39043 C 406.7135,374.79186 406.89249,377.09386 406.89249,379.02794 C 406.89249,382.58783 406.26603,384.75558 404.96339,385.63064 M 273.35181,245.76568 C 182.82317,245.79551 109.46256,319.21082 109.49736,409.72952 C 109.52719,500.24821 182.93255,573.60385 273.46119,573.56905 C 363.98486,573.54419 437.34547,500.13386 437.32062,409.61516 C 437.28084,319.09149 363.86056,245.73088 273.35181,245.76568"
       id="path959"
       style="fill:#e2001a;fill-opacity:1;fill-rule:nonzero;stroke:none" />
    <path
       d="M -192.57137,382.24477 C -193.46135,383.40819 -195.3109,384.66112 -197.82669,384.66112 C -200.34248,384.66112 -202.197,383.40819 -203.08697,382.24477 C -204.27526,380.68358 -204.99122,379.07268 -204.99122,369.85475 C -204.99122,360.5871 -204.24046,358.89665 -203.08697,357.38519 C -201.95835,355.92345 -199.99444,355.03844 -197.82669,355.03844 C -195.6639,355.03844 -193.69503,355.92345 -192.57137,357.38519 C -191.41292,358.89665 -190.66216,360.5871 -190.66216,369.85475 C -190.66216,379.07268 -191.37811,380.68358 -192.57137,382.24477 M -184.3528,350.6035 C -188.09168,346.85467 -192.2482,345.19405 -197.82669,345.19405 C -203.40021,345.19405 -207.5617,346.85467 -211.30555,350.6035 C -216.17803,355.471 -216.17803,362.05382 -216.16311,369.02444 L -216.16311,370.67512 C -216.17803,377.64077 -216.17803,384.22359 -211.30555,389.09607 C -207.55673,392.83992 -203.40021,394.51545 -197.82669,394.51545 C -192.2482,394.51545 -188.09168,392.83992 -184.3528,389.09607 C -179.47038,384.22359 -179.47535,377.64077 -179.49026,370.67512 L -179.49026,369.02444 C -179.47535,362.05382 -179.47038,355.471 -184.3528,350.6035"
       id="path961"
       style="fill:#000000;fill-opacity:1;fill-rule:nonzero;stroke:none" />
    <path
       d="M -152.11987,364.99222 L -158.10108,364.15197 C -159.67718,363.968 -160.91021,363.43601 -161.78527,362.56095 C -162.79954,361.54668 -162.90892,360.37331 -162.90892,359.91589 C -162.90892,357.38519 -160.91021,354.82962 -156.43052,354.82962 L -156.05762,354.82962 C -153.84512,354.81968 -150.15099,354.80476 -147.08829,357.57909 C -146.98885,357.47468 -140.25191,350.74768 -140.12761,350.62835 C -144.07531,346.86959 -148.99253,345.19405 -156.08248,345.19405 C -166.59311,345.19405 -173.65821,351.26973 -173.65821,360.32856 C -173.65821,364.45525 -172.55941,367.69197 -170.39166,369.91939 C -168.26368,372.12692 -165.01204,373.53894 -160.74614,374.15049 L -154.75995,374.98577 C -153.17889,375.19459 -151.98065,375.68681 -151.21001,376.44254 C -150.46422,377.27782 -150.10624,378.35176 -150.10624,379.72401 C -150.10624,382.95575 -152.7165,384.66112 -157.68344,384.66112 C -159.89097,384.66112 -165.34516,384.33794 -168.69623,381.34485 C -168.7907,381.45423 -175.6768,388.33536 -175.8011,388.45469 C -171.49045,392.7007 -166.08101,394.51048 -157.75802,394.51048 C -148.49037,394.51048 -139.13322,389.84683 -139.13322,379.44061 C -139.13322,374.69243 -140.28671,371.27175 -142.66328,368.95981 C -144.71171,366.91635 -147.8838,365.59382 -152.11987,364.99222"
       id="path963"
       style="fill:#000000;fill-opacity:1;fill-rule:nonzero;stroke:none" />
    <path
       d="M -99.392703,379.44558 C -99.392703,374.69243 -100.55116,371.27175 -102.92773,368.95981 C -104.97119,366.91635 -108.14327,365.58885 -112.3694,364.99222 L -118.34564,364.15197 C -119.91677,363.968 -121.16969,363.43601 -122.03481,362.56095 C -123.05405,361.54668 -123.16343,360.36834 -123.16343,359.92087 C -123.16343,357.38519 -121.15975,354.82962 -116.69,354.82962 L -116.30219,354.82962 C -114.08969,354.81968 -110.40052,354.80476 -107.33285,357.57909 C -107.23839,357.47468 -100.50641,350.74768 -100.38709,350.62835 C -104.32981,346.86959 -109.25201,345.18908 -116.34196,345.18908 C -126.86254,345.18908 -133.91768,351.26973 -133.91768,360.32359 C -133.91768,364.46022 -132.80895,367.69197 -130.63622,369.91939 C -128.51818,372.12692 -125.26158,373.53894 -120.99568,374.15049 L -115.02938,374.9808 C -113.43836,375.19459 -112.23516,375.68681 -111.47943,376.44254 C -110.71375,377.27782 -110.3508,378.34678 -110.3508,379.71903 C -110.3508,382.95575 -112.98095,384.66112 -117.93298,384.66112 C -120.14051,384.66112 -125.5947,384.33794 -128.94577,381.34485 C -129.04521,381.45423 -135.93628,388.33536 -136.06058,388.45469 C -131.73501,392.70568 -126.34049,394.51545 -118.01253,394.51545 C -108.7399,394.51545 -99.392703,389.84683 -99.392703,379.44558"
       id="path965"
       style="fill:#000000;fill-opacity:1;fill-rule:nonzero;stroke:none" />
    <path
       d="M -81.37448,345.61169 L -92.541403,345.61169 L -92.541403,394.08787 L -81.37448,394.08787 L -81.37448,345.61169 z"
       id="path967"
       style="fill:#000000;fill-opacity:1;fill-rule:nonzero;stroke:none" />
    <path
       d="M -37.35314,372.98209 L -37.35314,366.59318 L -55.764143,366.59318 L -55.764143,375.75144 L -48.465371,375.75144 L -48.465371,376.92979 C -48.465371,379.27156 -49.186299,381.2653 -50.478997,382.57788 C -51.786611,383.96008 -53.73063,384.66112 -56.246419,384.66112 C -58.444006,384.66112 -60.338306,383.83081 -61.437099,382.37901 C -62.590583,380.87252 -63.356258,379.17709 -63.356258,369.85475 C -63.356258,360.5871 -62.590583,358.90162 -61.437099,357.38519 C -60.313446,355.92345 -58.379371,355.03844 -56.246419,355.03844 C -52.104813,355.03844 -49.94203,356.64934 -48.808433,360.60202 L -37.532129,360.60202 C -38.188422,356.86314 -41.400279,345.18908 -56.246419,345.18908 C -61.785133,345.18908 -65.911823,346.85467 -69.655675,350.6035 C -74.533125,355.47597 -74.523181,362.05382 -74.518209,369.02444 L -74.518209,370.67512 C -74.523181,377.64077 -74.533125,384.22359 -69.655675,389.09607 C -66.026177,392.74545 -61.631004,394.51545 -56.246419,394.51545 C -50.091187,394.51545 -45.889919,392.88964 -42.225617,389.10601 C -38.675669,385.48646 -37.35314,381.12609 -37.35314,372.98209"
       id="path969"
       style="fill:#000000;fill-opacity:1;fill-rule:nonzero;stroke:none" />
    <path
       d="M 26.148166,357.38519 C 27.276791,355.92345 29.235726,355.03844 31.403481,355.03844 C 33.571236,355.03844 35.550059,355.92345 36.66874,357.38519 C 37.81228,358.89665 38.577955,360.5871 38.577955,369.85475 C 38.577955,379.08263 37.852056,380.68856 36.66874,382.24477 C 35.783739,383.40819 33.919271,384.66112 31.403481,384.66112 C 28.887692,384.66112 27.048083,383.40819 26.148166,382.24477 C 24.964851,380.68856 24.243923,379.08263 24.243923,369.85475 C 24.243923,360.5871 24.994682,358.89665 26.148166,357.38519 M 31.403481,394.51545 C 36.976999,394.51545 41.138492,392.83992 44.892288,389.09607 C 49.759794,384.22359 49.744878,377.64077 49.744878,370.67512 L 49.744878,369.02444 C 49.744878,362.05382 49.759794,355.471 44.892288,350.6035 C 41.138492,346.85467 36.991914,345.19405 31.403481,345.19405 C 25.829964,345.19405 21.66847,346.85467 17.92959,350.6035 C 13.052141,355.471 13.057113,362.05382 13.057113,369.02444 L 13.057113,370.67512 C 13.057113,377.64077 13.052141,384.22359 17.92959,389.09607 C 21.66847,392.83992 25.84488,394.51545 31.403481,394.51545"
       id="path971"
       style="fill:#000000;fill-opacity:1;fill-rule:nonzero;stroke:none" />
    <path
       d="M 74.92763,384.1689 C 72.769819,384.1689 70.795969,383.29881 69.677288,381.82713 C 68.528775,380.32063 67.7631,378.62024 67.7631,369.36253 C 67.7631,369.36253 67.778016,346.49669 67.778016,345.61169 L 56.60115,345.61169 L 56.60115,371.0679 C 56.60115,377.05409 56.60115,383.82086 61.453739,388.67843 C 65.207535,392.42725 69.364057,394.08787 74.92763,394.08787 L 88.545707,394.08787 L 88.545707,384.1689 L 74.92763,384.1689 z"
       id="path973"
       style="fill:#000000;fill-opacity:1;fill-rule:nonzero;stroke:none" />
    <path
       d="M -238.77538,366.5186 L -246.15868,366.5186 L -246.15868,366.43905 L -246.15868,355.51575 L -238.77538,355.51575 C -235.03153,355.51575 -232.99305,358.36466 -232.99305,361.02463 C -232.99305,363.68958 -235.03153,366.5186 -238.77538,366.5186 M -229.61712,373.50911 C -227.78745,372.59925 -221.8311,368.98964 -221.8311,361.02463 C -221.8311,353.35794 -227.46925,345.61169 -238.21853,345.61169 L -257.32063,345.61169 L -257.32063,394.08787 L -246.15868,394.08787 L -246.15868,375.75144 L -244.14008,375.75144 C -241.49005,375.75144 -240.58019,377.07895 -239.74491,378.82906 C -237.25895,384.06946 -232.51574,394.01826 -232.49088,394.08787 L -219.51418,394.08787 C -219.63351,393.84922 -230.06956,373.72787 -230.06956,373.72787 L -229.61712,373.50911 z"
       id="path975"
       style="fill:#000000;fill-opacity:1;fill-rule:nonzero;stroke:none" />
    <path
       d="M -19.344861,371.84352 L -19.344861,355.5058 L -12.170387,355.5058 C -10.002632,355.5058 -8.0287814,356.39081 -6.9101004,357.86249 C -5.8461105,359.2596 -5.1251827,360.82575 -5.0257444,368.46759 L -5.0257444,394.08787 L 6.1660376,394.08787 L 6.1660376,381.29513 L 6.1660376,368.62669 C 6.1660376,362.64547 6.1660376,355.8787 1.3084761,351.02611 C -2.4403483,347.28226 -6.5968697,345.61169 -12.170387,345.61169 L -30.511784,345.61169 L -30.511784,394.08787 L -19.334918,394.08787 C -19.334918,393.9586 -19.344861,371.84352 -19.344861,371.84352"
       id="path977"
       style="fill:#000000;fill-opacity:1;fill-rule:nonzero;stroke:none" />
    <path
       d="M -124.05838,406.36353 C -123.90425,408.00923 -124.09318,409.78918 -124.65003,411.70337 C -124.91355,412.59334 -125.54001,414.28379 -126.51947,416.76975 C -127.26029,418.0525 -128.01602,419.65346 -129.14465,420.65281 C -130.5517,421.91568 -131.8444,421.19973 -133.42049,420.8318 C -134.06684,420.69756 -135.85176,421.01079 -135.32971,419.65843 C -134.29555,419.40486 -133.12218,418.6193 -132.52058,417.73927 C -132.21232,417.28683 -131.81954,415.53671 -131.3472,415.38756 C -128.6922,414.55227 -127.38956,411.62382 -127.46414,406.60218 C -127.58346,406.44308 -127.78731,405.82159 -128.04585,404.74268 C -128.21987,404.01181 -128.60271,403.53451 -129.14962,403.31574 C -130.69588,403.31574 -131.80959,404.08639 -132.50069,405.62769 C -132.52058,405.68238 -133.0476,407.01982 -134.06684,409.64002 C -134.30052,411.49952 -134.89715,414.06005 -135.8617,417.2918 C -136.90083,420.8318 -137.56707,423.39234 -137.8455,424.9933 C -137.73114,425.64959 -137.65657,426.28102 -137.58199,426.89754 C -137.28864,429.97516 -137.55215,433.25662 -138.35761,436.74193 C -138.75536,438.43736 -139.68511,441.39565 -141.11702,445.61183 C -141.59929,446.17366 -142.2357,446.45706 -143.03121,446.45706 C -143.42399,446.45706 -143.77699,446.34767 -144.06536,446.13388 L -144.7316,445.04503 L -143.8466,436.86126 C -143.55326,434.07699 -142.97651,431.4021 -142.13626,428.84156 C -142.23073,427.87204 -142.02191,426.78816 -141.5098,425.59987 C -140.76401,423.83981 -140.34637,422.82554 -140.27179,422.52225 C -140.13258,422.00518 -139.59561,419.24079 -138.67084,414.22413 C -138.04935,410.81339 -137.25881,408.13353 -136.31415,406.15471 C -135.03139,403.45496 -133.21167,401.40653 -130.85996,400.00445 C -127.1708,400.81487 -125.01796,402.28656 -124.40144,404.41951 C -124.24731,404.98134 -124.12798,405.63763 -124.05838,406.36353"
       id="path979"
       style="fill:#000000;fill-opacity:1;fill-rule:nonzero;stroke:none" />
    <path
       d="M -117.63466,419.6634 C -117.78879,420.13574 -117.97772,421.17984 -118.20643,422.79571 C -118.40034,424.15304 -118.66882,425.1524 -119.0268,425.79378 C -119.00194,426.24622 -118.97708,427.0467 -118.92736,428.17532 C -118.89753,429.06032 -119.16601,429.65198 -119.72287,429.95527 C -120.1952,429.69673 -120.62775,429.56746 -121.02054,429.56746 C -121.81107,429.56746 -122.54194,430.27844 -123.22807,431.69047 C -123.76503,432.80418 -124.22245,433.60465 -124.59534,434.07699 C -124.96326,434.54932 -125.61956,435.13103 -126.57417,435.84699 C -127.10119,436.25469 -127.63318,436.46351 -128.15026,436.46351 C -128.58282,436.46351 -128.99549,436.32926 -129.41313,436.0757 C -130.3031,435.51387 -130.80029,434.61395 -130.92459,433.366 C -130.95442,433.02791 -130.80029,431.66064 -130.46718,429.27909 C -130.45226,429.21445 -130.34288,427.92175 -130.13406,425.38608 C -129.85563,423.84976 -129.06509,423.04928 -127.78731,422.96973 C -127.6481,423.24318 -127.56855,423.56138 -127.53374,423.89948 C -127.49397,424.35192 -127.56855,425.0629 -127.74754,426.03243 C -127.93647,426.99201 -128.01602,427.71791 -127.97127,428.18029 C -127.86189,428.43883 -127.79228,428.70235 -127.75748,428.98574 C -127.73759,429.2592 -127.74754,429.68678 -127.79726,430.24364 C -127.86189,430.80049 -127.87184,431.22311 -127.85195,431.50153 C -127.8072,431.86448 -127.71273,432.21252 -127.55363,432.56552 C -126.49461,432.0037 -125.56487,431.05903 -124.79919,429.72159 C -124.44619,429.10507 -123.81972,427.9317 -122.90489,426.21142 C -122.64138,425.1524 -122.15413,423.93428 -121.45309,422.5322 L -119.6632,419.01705 C -119.43947,418.89276 -119.21573,418.82315 -119.00691,418.82315 C -118.51469,418.82315 -118.05727,419.10158 -117.63466,419.6634"
       id="path981"
       style="fill:#000000;fill-opacity:1;fill-rule:nonzero;stroke:none" />
    <path
       d="M -94.952782,440.59517 C -95.012445,440.71449 -95.062164,440.80399 -95.111883,440.82885 C -95.713485,441.15202 -96.0118,440.16261 -96.215649,439.80463 C -97.463599,437.58219 -99.959501,436.22485 -102.172,435.11612 C -104.39942,433.99744 -106.55226,433.44058 -108.61063,433.44058 C -109.05811,433.44058 -109.47575,433.2964 -109.84864,433.00802 C -110.22651,432.71965 -110.47013,432.36168 -110.57951,431.92912 C -110.57951,431.20322 -110.1917,430.40274 -109.41608,429.5426 C -108.46645,428.4985 -107.91954,427.76265 -107.74055,427.35496 C -107.35771,426.41526 -106.63181,425.28664 -105.58274,423.97903 C -104.25524,422.34327 -103.44979,421.30911 -103.17136,420.86163 C -102.40568,419.6286 -102.0129,418.45026 -102.0129,417.31169 C -102.0129,416.73494 -102.10737,416.13831 -102.30127,415.54666 C -102.72886,415.1141 -103.32549,414.89534 -104.0663,414.89534 C -104.474,414.89534 -104.83198,414.97489 -105.13527,415.12404 C -107.86982,418.82315 -109.963,423.40228 -111.43965,428.88631 C -111.82746,429.11501 -112.10589,429.61221 -112.28488,430.36297 C -112.47878,431.24299 -112.63291,431.77002 -112.76218,431.93906 C -113.40853,432.95333 -114.02505,434.34547 -114.59682,436.13039 C -115.39233,438.56165 -115.89946,440.00848 -116.11823,440.47584 C -116.80435,442.06188 -117.6446,443.3695 -118.64893,444.3788 C -118.78317,444.46332 -118.91244,444.50807 -119.03674,444.50807 C -119.5389,444.50807 -119.92174,444.11031 -120.20017,443.31481 C -119.85711,442.66348 -119.45935,441.3509 -119.00691,439.35219 C -118.6191,437.64185 -118.06225,436.32429 -117.33635,435.43432 C -117.18719,434.61395 -116.46626,432.43128 -115.16859,428.89625 C -114.40292,426.74838 -113.2544,424.31214 -111.72803,421.58753 C -111.66339,421.49804 -110.26628,419.12644 -107.52178,414.46278 C -107.27816,414.40312 -106.41802,414.05011 -104.94633,413.40376 C -103.91217,412.95629 -103.04209,412.73255 -102.34105,412.73255 C -101.86872,412.73255 -101.40633,412.80713 -100.98372,412.95629 C -99.596551,413.22974 -98.716522,413.81146 -98.37346,414.69149 C -98.37346,416.10848 -98.751326,417.53045 -99.492141,418.96733 C -99.805372,419.54905 -100.61579,420.797 -101.9433,422.70622 C -103.0222,424.24751 -103.79782,425.57998 -104.26518,426.69369 C -105.24962,427.52897 -105.87608,428.11069 -106.13462,428.42889 C -106.72131,429.15976 -106.95996,429.96521 -106.87046,430.8353 C -106.55226,431.35735 -105.96558,431.62583 -105.09549,431.65069 C -104.61321,431.67058 -103.96189,431.76505 -103.17136,431.93906 C -101.29197,432.34676 -99.208742,433.99246 -97.717167,435.14595 C -96.275312,436.2696 -94.574916,437.14963 -94.664411,439.18314 C -94.684299,439.40191 -94.793681,440.19244 -94.952782,440.59517"
       id="path983"
       style="fill:#000000;fill-opacity:1;fill-rule:nonzero;stroke:none" />
    <path
       d="M -68.581742,407.20378 C -68.740843,408.02912 -69.402108,408.44676 -70.585424,408.46168 C -72.171465,408.5114 -73.180764,408.6705 -73.603376,408.94892 C -77.14338,410.16704 -79.390686,411.03216 -80.330378,411.51941 C -82.806392,412.80713 -84.56645,414.48764 -85.615524,416.5659 C -85.615524,417.4857 -86.008306,418.84304 -86.803812,420.61304 C -87.594347,422.39298 -87.9921,423.7354 -87.9921,424.63035 C -87.569487,424.80436 -87.131959,424.89386 -86.679514,424.89386 C -86.072941,424.89386 -85.232687,424.70493 -84.148809,424.34695 C -83.074876,423.984 -82.244566,423.79009 -81.682739,423.76523 C -81.130857,423.74535 -79.99726,423.67077 -78.31178,423.5415 C -76.894785,423.43212 -75.761188,423.3824 -74.930878,423.3824 C -73.956382,423.3824 -73.081325,423.43212 -72.285819,423.5415 L -71.644442,424.41158 C -72.057111,425.06788 -72.763123,425.36122 -73.76745,425.28167 C -75.094951,425.1524 -75.910345,425.1524 -76.218604,425.30156 C -78.46591,425.19715 -80.6983,425.55512 -82.90583,426.36555 C -84.044399,426.81799 -86.107744,427.62344 -89.085922,428.77692 C -92.049183,432.72463 -93.530814,437.17946 -93.530814,442.14641 C -93.530814,442.77287 -93.510926,443.39933 -93.466179,444.04568 C -92.775083,444.66717 -92.108846,444.9804 -91.44261,444.9804 C -90.696822,444.9804 -89.762102,444.50807 -88.678225,443.57335 C -87.390498,442.45466 -86.510469,441.81826 -86.028193,441.64424 C -84.770299,440.57031 -83.582011,439.59581 -82.48819,438.72076 C -81.120913,437.60705 -79.833187,436.70216 -78.629983,435.99117 C -78.475854,435.99117 -78.262061,435.95637 -77.983634,435.86688 C -77.710179,435.78235 -77.50633,435.73263 -77.372088,435.73263 C -77.113549,435.73263 -76.944504,435.89174 -76.855009,436.21491 L -82.552824,441.39565 C -84.785215,443.43413 -86.888335,444.82627 -88.862185,445.582 C -89.54831,446.52169 -90.607328,446.98905 -92.024324,446.98905 C -92.432021,446.98905 -92.904353,446.95425 -93.466179,446.89956 C -94.540113,446.44214 -95.405226,445.56708 -96.071463,444.25947 C -96.071463,442.06685 -95.638906,439.52123 -94.758877,436.63255 L -92.566263,429.4183 C -92.203313,428.15543 -91.447582,425.86338 -90.313985,422.53717 C -89.220163,419.61866 -88.524095,417.26694 -88.220808,415.46213 C -83.437825,410.97249 -78.992933,408.28766 -74.891103,407.38277 C -73.116129,406.80603 -71.758796,406.51269 -70.843963,406.51269 C -69.934103,406.51269 -69.183343,406.74637 -68.581742,407.20378"
       id="path985"
       style="fill:#000000;fill-opacity:1;fill-rule:nonzero;stroke:none" />
    <path
       d="M -13.025557,424.72979 C -13.070304,426.29594 -13.458113,427.69305 -14.184013,428.96089 C -15.034211,429.60226 -15.720335,430.71597 -16.068369,431.71533 C -16.157863,431.95895 -16.108144,432.63513 -16.247358,432.81412 C -16.441263,433.05277 -16.784325,432.9235 -16.973258,433.09752 C -17.415758,433.4903 -17.893062,433.94274 -18.370366,434.26592 C -19.528822,435.05645 -22.044612,435.12109 -23.431776,435.08131 C -24.331693,434.76311 -24.928323,434.50954 -25.211722,434.33553 C -25.892874,433.92286 -26.335375,433.38589 -26.559111,432.7296 C -26.588942,432.54066 -26.743072,432.08325 -27.016527,431.35238 C -27.23032,430.80049 -27.324786,430.33811 -27.30987,429.9503 C -27.294954,429.50282 -27.140825,429.1001 -26.832566,428.76201 C -26.872342,428.57805 -26.897201,428.40403 -26.887257,428.23001 C -26.882285,427.87701 -26.718212,427.37484 -26.385094,426.7285 C -26.042032,426.07717 -25.863043,425.58495 -25.848127,425.222 C -25.848127,424.81431 -25.987341,424.42153 -26.285656,424.04366 C -26.40001,423.86467 -26.578999,423.58127 -26.847482,423.18352 C -27.081162,422.84543 -27.190544,422.55706 -27.1806,422.30846 C -27.175628,422.12947 -27.120937,421.94054 -27.001611,421.76652 C -25.957509,420.46885 -24.684699,419.49933 -23.18318,418.84304 C -21.67669,418.18177 -20.070761,417.87351 -18.38031,417.9282 C -17.803568,417.94312 -17.231797,418.00278 -16.660027,418.09725 L -14.258592,419.70318 C -13.378563,421.18481 -12.965894,422.8504 -13.025557,424.72979 M -15.456823,423.87959 C -15.42202,422.80068 -15.610953,421.89082 -16.013678,421.16492 C -16.888735,420.22523 -17.843343,419.73798 -18.867557,419.70318 C -19.031631,419.70318 -19.195704,419.70318 -19.364749,419.71809 C -19.697867,419.89708 -20.269638,420.05121 -21.060172,420.19043 C -23.421832,420.61801 -23.799698,422.82554 -24.078125,424.8342 C -24.321749,426.48984 -25.579644,428.98077 -25.261441,430.59167 C -24.987986,431.94901 -23.217984,432.15286 -22.094331,432.17274 C -20.513262,432.1976 -18.827782,431.89432 -17.932837,430.48229 C -17.361067,429.56746 -16.888735,428.64765 -16.217526,427.74774 C -15.735251,426.17164 -15.486655,424.87894 -15.456823,423.87959"
       id="path987"
       style="fill:#000000;fill-opacity:1;fill-rule:nonzero;stroke:none" />
    <path
       d="M 22.294932,416.33222 C 22.130859,418.36573 21.504397,419.74793 20.405604,420.50366 C 19.455968,424.78945 18.128467,429.43322 16.438015,434.43994 C 16.278914,434.88741 16.025346,435.09623 15.657425,435.06143 C 15.557986,435.05645 15.150289,434.86752 14.419418,434.4648 C 13.882451,433.69415 13.524473,432.56552 13.345484,431.06898 C 13.141635,429.34372 12.863208,427.41959 12.206915,425.8783 C 11.878769,425.12257 11.316942,424.42153 10.86947,423.76523 C 10.243008,422.81063 9.7855922,421.2047 9.1044397,422.90012 C 8.2791018,424.96347 7.7769383,426.91743 7.2896905,429.15479 C 6.9565722,430.64139 6.3649142,432.02856 5.9472733,433.4903 C 5.7434248,434.20128 5.6191269,434.9073 5.5147167,435.64314 C 5.4500818,436.09061 5.4152784,437.07008 5.1219353,437.38331 C 4.6893787,437.82581 4.2916254,438.0396 3.9585071,438.00977 C 3.7447147,437.98988 3.5607538,437.87553 3.4115964,437.64682 C 3.0735061,437.33359 2.9243486,436.90601 2.9690959,436.36407 C 2.9889835,436.0757 3.0685342,435.71772 3.2027759,435.28516 C 3.376793,434.71339 3.4762313,434.38027 3.5060628,434.27586 C 4.435811,430.38783 5.7384529,424.53588 7.4090165,416.72997 C 7.7023595,416.42171 8.0603375,416.2825 8.4829503,416.31233 C 8.5973044,416.3173 8.7812652,416.35211 9.0348329,416.38194 C 9.2734849,416.42171 9.4524738,416.44657 9.5668279,416.45652 C 10.029216,416.49132 10.397138,416.31233 10.680537,415.91955 C 11.33683,416.05379 11.878769,416.60568 12.281494,417.5752 C 12.445567,417.96301 12.753826,418.75354 13.20627,419.93189 C 13.166495,421.24447 13.425034,422.48745 13.962001,423.65088 C 13.996805,423.74535 14.518856,424.8342 15.508267,426.91743 L 16.025346,426.95223 C 16.751246,425.4706 17.412511,423.20341 18.004169,420.16059 C 18.690293,416.64048 19.232232,414.25396 19.625013,413.01595 C 20.445379,411.87738 21.141447,411.32053 21.71819,411.37025 C 21.991645,411.38516 22.230297,411.57907 22.409286,411.95693 C 22.374483,412.42927 22.359567,413.16014 22.344651,414.1396 C 22.344651,415.12404 22.329735,415.84994 22.294932,416.33222"
       id="path989"
       style="fill:#000000;fill-opacity:1;fill-rule:nonzero;stroke:none" />
    <path
       d="M 43.763663,409.33673 C 43.296303,409.75935 42.76928,409.95822 42.187566,409.95822 C 41.789813,409.95822 41.153408,409.80907 40.273379,409.51572 C 39.39335,409.21741 38.727113,409.06825 38.279641,409.06825 L 35.599778,409.88862 C 34.590479,410.31123 33.81486,410.88797 33.277893,411.61387 C 33.377332,412.20056 33.108848,412.92149 32.472443,413.74682 C 31.756487,414.68154 31.358734,415.37761 31.284155,415.84 C 30.801879,417.72436 29.73789,420.54343 28.131961,424.28728 C 26.580723,427.92673 25.566452,430.76072 25.064289,432.77434 C 25.064289,434.11179 24.572069,434.78797 23.567742,434.78797 C 23.468304,434.80786 23.383781,434.82277 23.304231,434.82277 C 23.035747,434.82277 22.792123,434.47971 22.578331,433.78862 C 23.060607,431.82968 24.238951,428.08583 26.103419,422.54214 C 27.669573,417.91329 28.743506,414.1048 29.305333,411.11171 C 28.614237,410.25654 27.530359,409.82398 26.033812,409.82398 C 25.745441,409.82398 25.307913,409.84884 24.746086,409.88862 C 24.179288,409.93336 23.746731,409.95822 23.45836,409.95822 C 22.115943,409.95822 21.146419,409.56544 20.584593,408.78485 C 20.78347,408.21805 21.171279,407.92968 21.757965,407.92968 C 21.961814,407.92968 22.473921,408.04901 23.304231,408.29263 C 23.408641,408.73016 23.677124,408.93898 24.114653,408.93898 C 24.442799,408.93898 24.830609,408.83457 25.297969,408.60586 C 25.745441,408.15839 26.277436,407.92968 26.918813,407.92968 C 27.187297,407.92968 27.48064,407.98437 27.798842,408.07884 C 27.898281,408.10867 28.112073,408.20811 28.460107,408.39207 C 28.808141,408.581 29.036849,408.66055 29.166119,408.66055 C 29.280473,408.66055 29.414715,408.63569 29.558901,408.59095 C 30.175418,408.22303 30.836683,407.80538 31.552639,407.33802 C 32.263623,406.7762 32.676292,406.10996 32.805561,405.34926 C 32.944775,405.27965 33.223202,405.38903 33.60604,405.70226 C 34.003793,406.01549 34.232501,406.16465 34.312052,406.16465 C 34.500985,406.16465 34.67003,405.9608 34.784384,405.56802 L 34.784384,404.82224 C 35.177165,404.89681 35.714132,405.27468 36.405228,405.95086 C 37.091353,406.63698 37.62832,407.00988 38.026073,407.08446 C 38.423826,407.30819 39.428153,407.43249 41.078829,407.46232 C 42.863747,407.48221 43.763663,408.11364 43.763663,409.33673"
       id="path991"
       style="fill:#000000;fill-opacity:1;fill-rule:nonzero;stroke:none" />
    <path
       d="M 52.862269,423.90445 C 52.862269,424.1431 52.797634,424.37181 52.693224,424.58063 C 50.227154,425.16731 48.994119,426.93732 48.994119,429.92544 C 48.994119,430.69608 49.093557,431.82968 49.262602,433.34611 C 49.451535,434.86255 49.541029,436.00609 49.541029,436.77674 C 49.541029,437.34851 49.506226,437.87553 49.416731,438.323 C 49.536057,438.64618 49.605664,438.98924 49.605664,439.35219 C 49.605664,439.63062 49.51617,440.03831 49.357069,440.57528 C 49.197967,441.11225 49.123388,441.51994 49.123388,441.7934 C 48.864849,442.19115 48.496927,442.37511 47.999736,442.37511 C 47.766056,442.37511 47.562207,442.34031 47.393162,442.24584 C 47.02524,441.49508 46.836307,440.62997 46.81642,439.6505 C 46.846251,439.08371 46.846251,438.24842 46.81642,437.12974 C 46.796532,436.17016 46.707037,435.32991 46.528049,434.61893 C 46.528049,431.55623 46.373919,429.30395 46.080576,427.86706 C 45.657963,427.51903 45.13094,427.34004 44.514423,427.34004 C 44.06695,427.34004 43.311219,427.4892 42.267117,427.76763 C 41.307537,428.02617 40.541862,428.12063 39.989979,428.06097 C 39.577311,429.16971 38.866327,430.8353 37.842112,433.04283 C 36.812925,435.2603 36.087026,436.94081 35.664413,438.09927 C 35.470508,438.39758 35.177165,438.54674 34.794328,438.54674 C 34.496013,438.54674 34.20267,438.47216 33.924242,438.32797 C 33.844692,437.94514 33.799945,437.56727 33.799945,437.19438 C 33.799945,436.00112 34.381659,434.23609 35.535143,431.91918 C 36.698571,429.59729 37.280285,427.82729 37.280285,426.59923 C 37.280285,426.21142 37.245482,425.82858 37.180847,425.4358 C 37.931606,424.79939 38.548124,423.88456 39.020456,422.70124 C 39.278996,422.03998 39.577311,420.91633 39.915401,419.35017 C 40.258463,417.87351 40.591581,416.76975 40.919728,416.02893 L 42.202482,410.6891 C 42.699674,408.64564 43.350994,407.08446 44.166389,405.98566 C 45.280098,405.98566 46.165099,406.79609 46.811448,408.40201 C 47.318583,410.66424 47.741196,413.14025 48.06437,415.84497 L 48.964287,423.48681 C 49.108473,423.79009 49.307349,423.93925 49.550973,423.93925 C 49.670299,423.93925 49.884092,423.8597 50.167491,423.7354 C 50.460834,423.58624 50.654738,423.51167 50.729317,423.48681 C 51.102211,423.12386 51.494992,422.9399 51.917605,422.9399 C 52.205976,422.9399 52.469488,423.04928 52.693224,423.2581 C 52.797634,423.47189 52.862269,423.69065 52.862269,423.90445 M 45.941362,424.1431 C 45.697739,423.31776 45.573441,422.1593 45.553553,420.66276 C 45.533665,418.94248 45.478974,417.7691 45.394452,417.14761 C 45.225407,415.87978 44.807766,414.86053 44.166389,414.08989 C 43.972484,414.51747 43.694057,415.16382 43.331107,416.02396 C 43.032792,416.76975 42.878662,417.43598 42.878662,418.02267 C 42.108016,419.92691 41.715234,421.52787 41.715234,422.82057 C 41.715234,423.48681 41.804729,424.15304 41.978746,424.81431 C 42.814028,424.96347 43.450433,425.03804 43.873046,425.03804 C 44.842569,425.03804 45.533665,424.73973 45.941362,424.1431"
       id="path993"
       style="fill:#000000;fill-opacity:1;fill-rule:nonzero;stroke:none" />
    <path
       d="M 65.963267,406.59224 C 65.103125,409.998 63.556859,414.31362 61.304582,419.53413 C 58.495449,425.90316 56.730419,430.1442 56.029379,432.27218 C 55.74598,432.64507 55.621682,433.12238 55.621682,433.70906 C 55.621682,433.98252 55.656486,434.37033 55.72112,434.87249 C 55.785755,435.37466 55.825531,435.76247 55.825531,436.03095 C 55.825531,436.86623 55.467553,437.44297 54.751597,437.76118 C 53.697551,437.76118 52.951763,437.42806 52.514235,436.77176 C 53.090977,433.82839 54.249433,430.20386 55.964744,425.91807 L 60.230648,415.32789 L 61.667532,410.18693 C 62.219414,408.17828 63.074584,406.65687 64.238012,405.6078 C 65.16776,405.6078 65.744502,405.93594 65.963267,406.59224"
       id="path995"
       style="fill:#000000;fill-opacity:1;fill-rule:nonzero;stroke:none" />
    <path
       d="M 87.07402,409.14283 C 87.894386,407.55679 88.689893,405.9608 89.410821,404.27532 C 90.295822,402.21198 91.613379,400.969 92.950825,399.34816 C 93.537511,398.64712 95.476558,396.66332 95.516333,399.13436 C 95.551136,400.44198 94.074477,401.39659 93.472876,402.22192 C 92.563015,403.49473 91.633267,405.11061 90.996862,406.64196 C 89.977619,409.08814 88.585483,411.40008 87.765117,414.06005 C 86.377952,418.61433 84.578119,422.9399 82.837948,427.29032 C 82.151824,429.00066 79.720557,437.90039 78.383112,437.81587 C 78.243898,437.8109 77.627381,437.50761 76.543503,436.91595 C 75.738053,435.71772 75.206058,433.94274 74.922659,431.61092 C 74.524905,428.34437 74.231562,426.41029 74.052573,425.81366 C 73.734371,425.36122 73.267011,424.25248 72.625634,422.47751 C 72.332291,421.63228 71.65611,419.34023 70.482738,419.64849 C 69.741922,419.85234 69.279534,421.40855 69.065742,422.0002 C 68.394533,423.74535 67.952033,425.62473 67.708409,427.48423 C 67.494617,429.12496 66.843296,430.39777 66.062705,431.89432 C 65.32189,433.34114 64.794866,436.68724 63.586691,437.4728 C 62.10506,438.43238 62.244274,436.48837 62.393431,435.04651 C 62.706662,431.82968 63.860146,428.60788 64.392141,425.36122 C 64.640737,423.86964 64.889333,422.35321 65.217479,420.88152 C 65.669924,418.91264 66.679222,417.15756 67.161498,415.2384 C 67.429982,414.19927 67.782988,413.23472 68.205601,412.23536 C 68.667989,411.14651 68.822118,410.12727 69.766782,409.43617 C 71.248413,408.36721 72.715128,409.05334 73.381365,410.61452 C 74.375748,412.95132 74.514961,415.95933 74.629316,418.63422 C 74.763557,422.13942 76.762267,426.00757 78.064909,428.87636 C 80.421597,425.99265 81.296654,421.15001 83.121347,417.68955 C 84.254944,415.53671 84.881406,413.28444 86.005058,411.17634 C 86.363036,410.49022 86.721014,409.81404 87.07402,409.14283"
       id="path997"
       style="fill:#000000;fill-opacity:1;fill-rule:nonzero;stroke:none" />
    <path
       d="M 3.3320457,420.99588 C 3.3867368,421.30911 3.0735061,421.8411 2.9790397,422.13942 C 2.8249103,422.61672 2.6856967,423.10397 2.5265954,423.58127 C 2.2083928,424.57566 1.6763978,425.48054 1.2935603,426.4451 C 0.93061049,427.37484 0.7118462,428.32448 0.30912103,429.23434 C -0.04885689,430.0199 -0.33722799,430.84524 -0.57090803,431.67058 C -0.72503741,432.22743 -0.64051485,432.80915 -1.1178187,433.20193 C -1.5901507,433.60465 -2.3061066,433.32126 -2.7784386,433.06272 C -2.8579892,433.02294 -4.0164455,432.04347 -3.6982429,431.96889 C -4.7721767,432.22743 -6.8454655,432.40642 -7.8597363,431.82968 C -9.1375186,431.12864 -9.7739238,429.87075 -9.7739238,428.08583 C -9.7739238,427.65327 -9.7440923,427.00195 -9.6595698,426.12689 C -9.584991,425.26178 -9.5452157,424.60549 -9.5452157,424.17293 C -9.5452157,423.34262 -9.6595698,422.66147 -9.878334,422.1245 C -9.878334,422.09467 -9.9678285,421.65714 -10.146817,420.78706 C -10.236312,420.24015 -10.286031,419.80262 -10.286031,419.47944 C -10.286031,418.8679 -10.146817,418.34585 -9.878334,417.90832 C -9.7242047,417.86357 -9.5601314,417.84368 -9.4060021,417.84368 C -8.6751305,417.84368 -7.8895678,418.3011 -7.0692017,419.21593 C -7.0095387,419.47944 -6.9797072,419.7529 -6.9797072,420.0363 C -6.9797072,420.3893 -7.0443421,420.89147 -7.16864,421.5577 C -7.2979098,422.21897 -7.3625447,422.7261 -7.3625447,423.07911 C -7.3625447,423.36251 -7.3376852,423.63099 -7.2730503,423.8945 C -7.2084154,425.48054 -7.1586962,426.43018 -7.1189209,426.73347 C -7.0294264,427.36987 -6.8255779,427.83723 -6.5521225,428.40403 C -6.1543693,429.18959 -4.9611095,429.79617 -4.0810804,429.61718 C -3.0220624,429.39344 -2.4502921,428.26482 -1.9978478,427.37982 C -1.4260775,426.22136 -1.0283243,424.96347 -0.5311327,423.77021 C -0.32728416,423.27301 -0.22287394,422.73108 -0.019025396,422.23388 C 0.41353126,421.14006 0.65715513,420.50863 0.72179003,420.33461 C 1.0897118,420.24512 1.432774,420.20534 1.7509766,420.20534 C 2.2481681,420.20534 3.2226636,420.35947 3.3320457,420.99588"
       id="path999"
       style="fill:#000000;fill-opacity:1;fill-rule:nonzero;stroke:none" />
    <path
       d="M -28.160068,443.38441 C -28.189899,443.94624 -28.363916,444.4484 -28.871052,444.67214 C -30.054368,445.19916 -30.377542,443.64295 -30.596306,442.4298 C -31.128301,439.55604 -31.456448,436.41876 -31.719959,433.48036 C -32.256926,427.78254 -32.590045,422.18914 -32.923163,416.47641 C -32.948022,416.21787 -33.102152,415.88972 -33.390523,415.49694 C -34.509204,415.88972 -35.240076,416.99348 -35.578166,418.82315 C -35.652745,419.21096 -35.90134,420.64287 -36.333897,423.12386 C -36.751538,423.64591 -37.263645,425.20212 -37.840387,427.81237 C -38.317691,429.93041 -39.028675,430.98445 -39.958423,430.98445 C -40.236851,430.98445 -40.564997,430.9049 -40.927947,430.74083 C -42.066516,429.69673 -42.643258,428.70235 -42.643258,427.75768 C -42.643258,426.68375 -42.553763,425.0629 -42.374774,422.90012 C -42.195785,420.73734 -42.101319,419.11152 -42.101319,418.03759 C -42.101319,415.24337 -42.613426,412.84691 -43.60781,410.85814 C -44.492811,412.16575 -45.357924,414.82076 -46.193206,418.82315 C -47.053347,422.95978 -47.888629,425.70428 -48.704023,427.07653 C -49.101776,428.96586 -50.086216,431.17836 -51.637453,433.72398 C -51.831358,433.82342 -52.010347,433.86319 -52.17442,433.86319 C -52.532398,433.86319 -52.955011,433.57482 -53.432315,432.98317 C -54.053804,432.23738 -54.421726,431.81476 -54.53608,431.71533 C -54.590771,430.74083 -54.615631,429.78622 -54.615631,428.83659 C -54.615631,424.84414 -53.21355,422.9399 -51.831358,419.6286 C -51.359026,418.47512 -50.906582,417.70447 -50.185654,416.78964 C -48.43554,414.57216 -47.833938,410.89294 -46.421914,408.30755 C -45.487194,406.57235 -44.950227,405.31445 -44.835873,404.52889 C -44.020479,403.77813 -43.329382,403.40027 -42.75264,403.40027 C -42.041656,403.40027 -41.464914,404.00187 -41.027385,405.21999 C -40.838453,405.7669 -40.555053,406.99496 -40.167244,408.89423 C -39.66508,411.48957 -39.446316,414.88539 -39.446316,417.58514 C -39.441344,419.85234 -40.172216,422.1593 -39.933564,424.40164 C -38.347523,423.05425 -37.92491,419.21593 -37.467494,417.00343 C -36.786341,413.70705 -36.572549,409.90353 -35.085946,406.99993 C -34.365018,405.59785 -33.33086,404.90179 -31.968555,404.90179 C -30.591334,406.18454 -31.749791,408.81468 -31.570802,410.70401 C -31.376897,412.75244 -31.516111,414.76607 -31.222768,416.82444 C -30.894621,419.17616 -30.854846,421.49804 -30.750436,423.88456 C -30.626138,427.00195 -30.099115,430.16409 -29.820688,433.27154 C -29.56712,436.06078 -28.890939,438.70087 -28.408664,441.43542 C -28.319169,441.93759 -28.135208,442.69829 -28.160068,443.38441"
       id="path1001"
       style="fill:#000000;fill-opacity:1;fill-rule:nonzero;stroke:none" />
    <path
       d="M 52.568926,468.58705 C 51.813195,470.73989 50.271901,471.6945 49.033894,469.21849 C 48.099174,467.36396 47.462769,465.21112 46.92083,463.13783 C 46.632459,462.0639 47.040156,463.35163 46.7667,462.29758 C 46.577768,461.62637 46.592683,460.93527 46.42861,460.27401 C 45.931419,458.30016 45.966222,458.73272 45.712654,456.70417 C 45.508806,455.19768 44.807766,454.67563 44.171361,456.0628 C 43.529983,457.48974 42.928382,459.14041 42.505769,460.69165 C 42.32678,461.3728 42.207454,461.93463 42.073212,462.64064 C 41.819644,464.13222 41.034082,465.29067 40.472255,466.61817 C 39.900485,467.96556 39.751328,469.36267 39.467928,470.82939 C 39.035372,473.09658 38.587899,473.47942 37.489106,474.59313 C 37.399611,474.61301 37.300173,474.62793 37.205707,474.61799 C 36.763206,474.5981 36.405228,473.94181 36.146689,472.66402 C 36.186464,472.18672 36.052222,472.12706 36.390313,469.88472 C 36.64388,468.12466 36.812925,466.68281 36.862645,465.57904 C 36.927279,464.52003 36.723431,463.38146 36.862645,462.35227 C 36.967055,461.54682 37.280285,460.68668 37.439387,459.88123 C 37.504022,459.53319 37.553741,458.83215 37.881887,458.68797 C 38.3045,458.48412 38.393995,459.25974 38.816607,459.24482 C 39.050287,459.23985 39.288939,458.95148 39.453013,458.78741 C 40.039699,458.20072 40.492143,457.33561 40.909784,456.56496 C 41.735122,455.03858 42.40633,453.40779 43.147146,451.82175 C 43.873046,450.27549 44.136557,449.09714 45.508806,449.10212 C 47.418021,449.11206 47.756112,450.90195 47.999736,452.89569 C 48.133977,453.9199 48.477039,454.7701 48.661,455.76448 C 48.914568,457.24114 48.472068,456.65446 48.864849,458.1162 C 49.64544,461.00488 49.695159,461.58162 50.590104,464.4007 C 50.525469,464.18194 51.087295,461.7805 51.15193,461.25845 C 51.291144,460.0453 51.599402,458.86199 51.892745,457.69359 C 52.32033,455.88878 53.110865,453.726 53.757214,451.93114 C 54.498029,449.90757 54.950474,448.0779 56.094014,446.43717 C 56.60115,445.71624 58.669466,443.92138 59.450057,444.1302 C 60.101378,444.3241 59.579327,444.84616 59.295928,445.42787 C 58.768905,446.53164 58.286629,448.10773 57.714859,449.19658 C 56.795054,450.96658 56.233228,454.37235 54.652159,459.62766 C 53.667719,462.88924 53.588169,464.4355 52.797634,467.80646 C 52.732999,468.07992 52.65842,468.34343 52.568926,468.58705"
       id="path1003"
       style="fill:#000000;fill-opacity:1;fill-rule:nonzero;stroke:none" />
    <path
       d="M 74.604456,453.91493 C 73.52555,456.53513 72.372066,459.39895 71.114171,461.9396 C 68.155881,467.95065 66.704082,471.20228 63.601607,477.14372 C 62.602252,479.04796 62.065285,481.18589 60.827278,482.95092 C 60.613485,483.24923 58.659523,484.28836 58.221994,483.68179 C 57.013819,481.97145 58.495449,481.20577 59.50972,479.50538 C 60.543879,477.76521 61.349329,475.8908 62.298965,474.09096 C 63.566803,471.67958 63.447477,471.99281 64.33745,469.41239 C 64.760063,468.22907 65.187648,467.20983 65.809137,466.12595 C 66.365992,465.14649 67.444897,463.35163 66.95765,462.19814 C 66.535037,461.19879 65.217479,460.44305 64.377226,459.94089 C 63.253573,459.26471 62.472982,458.64322 61.523346,457.7433 C 60.648289,456.91797 59.559439,456.0976 59.052304,454.95903 C 58.684382,454.12375 59.062248,452.26425 60.330086,452.44324 C 60.996323,452.53771 61.080846,453.44757 61.518374,453.91493 C 62.12992,454.54636 62.885651,455.496 63.522056,456.15726 C 64.377226,457.08204 65.232395,457.59415 66.380908,458.15597 C 67.067032,458.48412 68.682904,458.95645 69.314338,458.35485 C 69.99549,457.68364 70.129732,456.67434 70.477766,455.82912 C 70.865575,454.89937 71.462205,454.05414 71.959397,453.17411 C 72.143358,452.841 74.514961,448.41599 74.862996,448.65464 C 76.01648,449.42529 75.564036,451.55824 74.604456,453.91493"
       id="path1005"
       style="fill:#000000;fill-opacity:1;fill-rule:nonzero;stroke:none" />
    <path
       d="M -30.218441,473.28551 C -36.115133,476.44268 -40.674379,478.84909 -43.891209,480.49976 C -44.870676,480.99198 -46.660566,481.89687 -49.236018,483.19454 C -51.185009,484.13423 -53.119084,484.61154 -55.038244,484.61154 C -56.390605,484.61154 -57.693246,484.33311 -58.956113,483.77128 C -59.776479,483.26912 -60.477519,482.4935 -61.049289,481.43945 C -61.188503,481.166 -61.616088,480.15173 -62.332044,478.38173 C -62.083448,475.59248 -61.178559,472.76843 -59.612406,469.90958 C -58.647854,468.17936 -56.962375,465.71826 -54.550996,462.5412 C -52.139617,459.36415 -50.439222,456.8583 -49.479642,455.03858 C -48.689107,454.50162 -47.654949,453.37299 -46.397054,451.63779 C -44.910451,449.58439 -43.891209,448.25689 -43.304523,447.66026 C -42.101319,446.40237 -40.903087,445.77093 -39.729715,445.77093 C -38.904377,445.77093 -38.05418,446.07919 -37.174151,446.70068 C -37.556988,447.19787 -38.05418,447.84919 -38.655782,448.66459 C -39.257383,449.47004 -39.968367,449.80316 -40.798677,449.65897 C -49.047085,457.48974 -54.819479,465.49452 -58.110887,473.65343 C -58.603107,474.5633 -58.846731,475.62729 -58.846731,476.82552 C -58.846731,478.06352 -58.603107,479.3065 -58.110887,480.54948 C -56.843049,481.31018 -55.49566,481.68805 -54.033917,481.68805 C -52.253971,481.68805 -50.04644,481.02679 -47.416297,479.68934 C -43.652557,477.79007 -41.539493,476.77083 -41.072133,476.62167 C -39.048563,475.1997 -35.79693,473.89706 -31.327178,472.70877 C -31.053723,472.79827 -30.680829,472.99217 -30.218441,473.28551"
       id="path1007"
       style="fill:#000000;fill-opacity:1;fill-rule:nonzero;stroke:none" />
    <path
       d="M -22.288235,460.25412 C -22.288235,461.86999 -22.646213,463.34665 -23.347253,464.67913 C -23.769866,465.00727 -24.560401,465.87239 -25.758632,467.28441 C -26.7381,468.44287 -27.638017,469.20357 -28.448439,469.56652 C -29.298636,470.73989 -30.730548,471.33155 -32.75909,471.33155 C -33.703754,471.01832 -34.320271,470.78464 -34.633502,470.61062 C -35.349458,470.20293 -35.831734,469.66099 -36.080329,468.98978 C -36.120105,468.7909 -36.299094,468.32851 -36.60238,467.57278 C -36.831089,467.01096 -36.950415,466.52868 -36.950415,466.12098 C -36.950415,465.65859 -36.791313,465.24593 -36.488026,464.878 C -36.537746,464.6841 -36.572549,464.50511 -36.572549,464.32612 C -36.572549,463.96317 -36.408476,463.44112 -36.080329,462.75997 C -35.747211,462.0639 -35.583138,461.54682 -35.583138,461.1789 C -35.583138,460.75131 -35.747211,460.34362 -36.080329,459.96575 C -36.189711,459.78676 -36.398532,459.50336 -36.686903,459.09567 C -36.945443,458.74266 -37.059797,458.44434 -37.059797,458.20072 C -37.059797,458.00682 -37.010078,457.81291 -36.895723,457.61403 C -35.851621,456.25173 -34.558923,455.19768 -33.012657,454.46184 C -31.471364,453.726 -29.825659,453.36305 -28.070573,453.36305 C -27.473943,453.36305 -26.872342,453.40282 -26.285656,453.48237 L -23.730091,455.07339 C -22.775483,456.5749 -22.288235,458.30016 -22.288235,460.25412 M -24.8438,459.44867 C -24.8438,458.32502 -25.062564,457.3903 -25.505065,456.64451 C -26.449729,455.69985 -27.449084,455.22254 -28.50313,455.22254 C -28.682119,455.22254 -28.846192,455.23746 -29.030153,455.25735 C -29.373215,455.44628 -29.959901,455.62527 -30.780267,455.80426 C -31.595661,455.9733 -32.187319,456.16721 -32.555241,456.381 C -33.102152,456.68926 -33.420354,457.17651 -33.534709,457.82783 L -31.252599,457.88252 C -30.407374,457.90241 -29.731193,458.20072 -29.224058,458.78244 C -29.46271,459.09069 -29.825659,459.29951 -30.322851,459.41387 C -30.984116,459.568 -31.401757,459.68732 -31.595661,459.75693 C -32.719314,461.62637 -33.470074,462.97376 -33.852911,463.77424 C -34.568867,465.31553 -34.926845,466.79716 -34.926845,468.20422 C -34.737912,468.25891 -34.519148,468.47767 -34.29044,468.86548 C -34.051788,469.25329 -33.872799,469.48697 -33.743529,469.56155 C -33.176731,469.90461 -32.694455,470.07366 -32.26687,470.07366 C -31.710015,470.07366 -31.09847,469.7654 -30.422289,469.12402 C -29.512429,468.27879 -28.920771,467.77166 -28.652287,467.6225 C -28.537933,467.40871 -28.403692,467.3043 -28.249562,467.3043 C -28.174983,467.3043 -28.070573,467.31921 -27.941303,467.35899 C -27.826949,467.39876 -27.737455,467.41865 -27.702651,467.41865 C -27.588297,467.41865 -27.508747,467.34407 -27.473943,467.2148 C -27.548522,466.66789 -27.314842,466.03149 -26.772903,465.28073 L -25.505065,463.49084 C -25.062564,461.83022 -24.8438,460.48283 -24.8438,459.44867"
       id="path1009"
       style="fill:#000000;fill-opacity:1;fill-rule:nonzero;stroke:none" />
    <path
       d="M -2.6441968,471.51054 C -3.2109952,471.6945 -3.7877374,471.74422 -3.812597,471.2868 C -3.9170072,469.67093 -3.5043382,468.12466 -3.3800403,466.52868 C -3.2159671,464.62444 -3.0220624,462.72516 -2.8579892,460.82092 C -2.8579892,460.66182 -2.9474837,460.44305 -3.1215007,460.16463 C -3.2507705,459.97072 -4.1208558,460.53752 -4.2352098,460.62204 C -4.5136371,460.85075 -4.8218959,461.08443 -5.0555759,461.36783 C -5.5875709,462.00424 -5.8659982,462.81963 -6.2190042,463.56542 C -6.6465889,464.52003 -7.2730503,465.33045 -7.7205227,466.24528 C -8.1580512,467.14023 -8.0039219,468.1545 -8.8541194,468.83068 C -9.4308616,469.29306 -10.554515,469.72065 -11.141201,469.1091 C -11.717943,468.50253 -11.613533,467.43854 -11.499179,466.66292 C -11.335105,465.47961 -11.195892,464.13222 -10.763335,463.01354 C -10.450104,462.17825 -10.146817,461.4623 -10.007604,460.54747 C -9.8136991,459.32935 -9.7739238,457.91732 -10.156761,456.74892 C -10.648981,455.22254 -11.971511,456.70915 -12.573112,457.36544 C -12.995725,457.84274 -13.259237,458.25044 -13.582411,458.79735 C -13.860838,459.29951 -14.193957,459.6923 -14.422665,460.23921 C -14.641429,460.7712 -14.870137,461.29325 -15.049126,461.83022 C -15.441908,462.99862 -15.949043,464.05764 -16.565561,465.10671 C -17.182078,466.1359 -17.142303,467.44351 -17.351123,468.61191 C -17.500281,469.40742 -17.78368,469.6411 -18.494664,469.80517 C -19.011743,469.9245 -19.573569,470.08857 -20.105564,470.10846 C -21.0552,470.14823 -21.129779,469.24335 -21.050228,468.42795 C -20.925931,467.34407 -20.493374,466.1359 -20.205003,465.08682 C -20.021042,464.42059 -19.966351,463.70463 -19.737643,463.05828 C -19.41944,462.16831 -18.882473,461.33303 -18.469804,460.50769 C -18.216237,460.0105 -17.947753,459.6028 -18.067079,459.036 C -18.161545,458.54378 -18.524495,458.06648 -18.534439,457.55437 C -18.539411,456.80361 -17.893062,455.8142 -17.52514,455.23249 C -17.072696,454.53145 -16.555617,454.2381 -15.775026,454.30274 C -14.999407,454.37235 -14.845278,454.8944 -14.537019,455.57058 C -14.33317,456.02302 -14.129322,456.31636 -13.940389,456.42575 C -13.771344,455.78934 -13.234377,455.00378 -12.344404,454.09392 C -11.459403,453.16914 -10.937352,452.47307 -10.768307,452.01566 C -10.082183,451.6726 -9.5203561,451.53835 -9.0778556,451.61293 C -8.5309449,451.7074 -8.1431355,452.13996 -7.9442589,452.93546 C -7.8547644,453.29841 -7.7503542,454.07403 -7.6459439,455.27226 C -7.5514775,456.34122 -7.4172358,457.03729 -7.2481907,457.38035 C -7.1338366,457.61403 -7.4520392,458.54876 -7.5017584,458.8421 C -7.5912529,459.3194 -7.6161124,459.99061 -7.287966,460.37842 C -6.9299881,460.79109 -6.6018417,460.66182 -6.2935829,460.30881 C -5.9256611,459.90609 -5.6770654,459.38404 -5.3638347,458.92165 C -5.0257444,458.38965 -4.6429069,457.8676 -4.284929,457.33561 C -3.9020915,456.77378 -3.4745067,456.26167 -3.1215007,455.67002 C -2.8480454,455.18277 -2.4950394,454.55133 -1.9630444,454.38229 C -1.6050665,454.26296 -1.1078749,454.41212 -0.75486891,454.48173 C -0.058800721,454.59608 0.96044198,455.11813 1.1841782,455.91364 C 1.313448,456.3462 1.074796,456.81356 0.91072282,457.20137 C 0.67704279,457.74828 0.47816616,458.30513 0.32403678,458.88187 C 0.095328663,459.68235 -0.2129301,460.46791 -0.43169439,461.27834 C -0.57587994,461.8153 -0.48141355,462.27272 -0.44163822,462.81466 C -0.31236842,464.80342 -0.59576761,467.1452 -0.93385787,469.12402 C -1.04324,469.7654 -1.2073132,470.46146 -1.6299261,470.9686 C -1.7343363,471.10781 -2.1818087,471.35144 -2.6441968,471.51054"
       id="path1011"
       style="fill:#000000;fill-opacity:1;fill-rule:nonzero;stroke:none" />
    <path
       d="M 9.8203956,451.23507 L 9.8203956,451.23507 C 8.6321078,452.97524 7.5631459,455.3717 6.6284258,458.33993 C 5.2164017,462.85941 4.4208952,465.29564 4.2269905,465.77792 C 3.8938722,466.56348 3.4115964,467.36396 2.904461,468.21416 C 2.0990107,469.5516 1.253785,470.94374 1.1394309,472.16683 L 1.0499365,474.27492 C 1.0399926,475.4831 1.0101611,476.73105 0.65218321,478.08838 C 0.44833467,478.80434 0.0058341822,479.50538 -0.43169439,480.18156 C -0.96866128,481.03176 -1.5006562,481.85212 -1.5006562,482.6526 C -1.5006562,482.68243 -1.5006562,482.71724 -1.4956843,482.74707 C -1.4658528,483.44811 -1.1178187,484.00496 -0.54604845,484.26847 C 0.1400759,484.58171 1.020105,484.40769 1.7907519,483.79614 C 3.4016525,482.53825 3.7148832,480.13681 4.0032543,478.01878 C 4.1026926,477.20835 4.2071029,476.44268 4.3562603,475.78141 L 5.1517668,472.51984 C 6.0914589,468.46275 6.9864037,464.61946 8.8011529,460.61707 C 10.103795,457.73833 10.958964,455.47114 11.341802,453.85527 L 11.351746,453.79063 L 13.46481,450.11141 C 14.434333,448.59498 15.886133,447.78456 17.775461,447.70501 L 17.840095,447.70501 L 17.90473,447.71992 C 18.685321,447.92377 19.192457,448.45079 19.371445,449.24133 C 19.654845,450.4147 19.789086,450.63347 19.808974,450.66827 L 19.898469,450.78759 L 19.923328,450.97653 C 19.664788,455.00378 18.441697,458.00682 13.270905,459.56303 L 12.455511,459.77185 C 11.903628,459.90112 11.505875,459.99061 11.137953,460.30384 C 10.173402,461.12918 10.029216,462.35227 9.9347497,463.47095 C 10.983824,463.59525 15.115486,463.1975 15.732003,463.03342 C 17.213634,462.64064 18.108579,461.45235 18.963748,460.30881 C 18.963748,460.30881 19.43608,459.69727 19.475856,459.63263 C 20.748666,457.44002 21.569032,455.92856 21.92701,455.14299 C 22.603191,453.61661 22.936309,452.18968 22.936309,450.90195 L 22.936309,450.59369 C 22.906477,449.99706 22.826927,449.46507 22.692685,448.99273 C 22.220353,447.35697 20.022766,446.26812 16.174504,445.74607 C 13.534417,447.05369 11.391521,448.90324 9.8203956,451.23507"
       id="path1013"
       style="fill:#000000;fill-opacity:1;fill-rule:nonzero;stroke:none" />
    <path
       d="M 34.525844,465.25587 C 34.491041,465.53927 34.41149,465.81272 34.297136,466.01657 C 33.924242,466.7027 32.969635,467.08056 32.432668,467.67719 C 31.652077,468.52242 31.194661,469.43228 30.936121,470.5609 C 30.757132,471.30669 30.583115,472.44526 30.409098,473.95672 C 30.249997,475.47316 30.080952,476.60675 29.906935,477.35751 C 29.767721,477.92431 29.613592,478.41156 29.419687,478.83914 C 29.469406,479.17226 29.459462,479.52527 29.369968,479.87827 C 29.305333,480.1567 29.14126,480.52959 28.852889,481.01187 C 28.579433,481.49912 28.410388,481.88196 28.345753,482.15044 C 27.977831,482.4935 27.256904,482.72221 26.804459,482.42887 C 26.933729,481.51901 26.918813,480.60417 27.028196,479.68934 C 27.137578,478.6701 27.286735,477.63594 27.37623,476.6167 C 27.48064,475.48807 27.838618,474.42905 28.042466,473.35015 C 28.236371,472.37565 28.345753,471.38127 28.425304,470.38689 C 28.460107,469.98913 28.823057,468.21416 28.564517,467.89098 C 28.226427,467.45843 27.759067,467.17503 27.147521,467.03582 C 26.714965,466.92643 25.959234,466.8966 24.875356,466.92643 C 23.880973,466.95626 23.115298,466.88666 22.588275,466.68778 C 22.752348,466.75242 17.163915,474.66771 16.756218,471.19234 C 16.50265,469.08424 20.281306,467.82635 19.908412,465.76798 C 19.769199,465.0023 18.401922,464.95755 19.386361,464.04272 C 19.724451,463.71458 20.559733,463.68972 20.982346,463.38146 C 22.637994,462.09373 23.617461,460.0453 24.507434,458.20072 C 25.178643,456.83344 25.755385,455.83906 26.227717,455.19768 C 26.923785,453.81549 28.087214,450.11141 29.767721,449.69875 C 30.980868,449.40043 31.174773,450.21085 31.691852,451.21518 C 32.656404,453.07468 33.307725,455.1778 33.13868,457.266 C 32.954719,459.59286 32.358089,461.58162 32.576853,463.94826 C 33.228174,464.14216 34.053512,464.02781 34.590479,464.2764 C 34.605395,464.53991 34.585507,464.89789 34.525844,465.25587 M 28.678871,463.29693 C 30.20525,462.35227 30.185362,458.77746 30.334519,457.29583 C 30.453845,456.02302 30.289772,454.93914 29.8423,454.03923 C 29.558901,454.41212 29.14126,454.97395 28.584405,455.73465 C 28.117045,456.39592 27.823702,457.00746 27.68946,457.57426 C 27.232044,459.56303 22.802067,464.09741 28.027551,463.5157 C 28.271174,463.49581 28.489939,463.41129 28.678871,463.29693"
       id="path1015"
       style="fill:#000000;fill-opacity:1;fill-rule:nonzero;stroke:none" />
  </g>
</svg>
