<?xml version="1.0" encoding="utf-8"?>
<!-- Generator: Adobe Illustrator 15.1.0, SVG Export Plug-In . SVG Version: 6.00 Build 0)  -->
<!DOCTYPE svg PUBLIC "-//W3C//DTD SVG 1.1//EN" "http://www.w3.org/Graphics/SVG/1.1/DTD/svg11.dtd">
<svg version="1.1" id="Layer_1" xmlns="http://www.w3.org/2000/svg" xmlns:xlink="http://www.w3.org/1999/xlink" x="0px" y="0px"
	 width="776" height="129" viewBox="0 0 1000 166" enable-background="new 0 0 1000 166" xml:space="preserve">
<path d="M125.5966797-0.1513672H19.8876953C8.9042969-0.1513672,0,8.8427734,0,19.8271484v126.4326172
	c0,10.984375,8.9042969,19.8916016,19.8876953,19.8916016h105.7089844c10.984375,0,19.8886719-8.9072266,19.8886719-19.8916016
	V19.8271484C145.4853516,8.8427734,136.5810547-0.1513672,125.5966797-0.1513672z M130.296875,140.3457031
	c0,5.8574219-4.7480469,10.6054688-10.6054688,10.6054688H25.7978516c-5.8583984,0-10.6064453-4.7480469-10.6064453-10.6054688
	V25.7382813c0-5.8574219,4.7480469-10.6044922,10.6064453-10.6044922h93.8935547
	c5.8574219,0,10.6054688,4.7470703,10.6054688,10.6044922V140.3457031z"/>
<path d="M111.6464844,48.7431641l8.5175781-6.6757813l-14.9628906-6.6757813l0.9208984-8.7480469l-15.4238281,4.1435547
	l-5.9853516-10.1289063l-10.1289063,6.2158203l-8.5175781-6.4462891L57.7792969,29.40625l-11.0498047-5.7558594
	l-0.4599609,9.8994141H31.5361328l5.9853516,9.2080078l-11.5107422,6.2158203L36.6005859,59.5625l-9.2080078,7.1367188
	l11.7402344,2.5322266l0.4599609,8.9775391l12.2011719-2.5322266l2.5322266,8.2871094l-8.0566406-0.4599609L60.5419922,117.34375
	c-10.1289063,8.0566406-13.8125,19.1064453-14.0429688,25.0917969h52.4863281
	c-0.2304688-5.9853516-3.9130859-17.0351563-14.0419922-25.0917969l15.4238281-33.8398438l-9.2089844,0.4599609l2.5322266-8.2871094
	l16.1142578,1.3808594L106.8125,64.6269531l10.8193359-3.453125L111.6464844,48.7431641z M45.578125,42.9267578
	c2.0683594,0,3.7441406,1.6767578,3.7441406,3.7441406c0,2.0683594-1.6757813,3.7441406-3.7441406,3.7441406
	c-2.0673828,0-3.7441406-1.6757813-3.7441406-3.7441406C41.8339844,44.6035156,43.5107422,42.9267578,45.578125,42.9267578z
	 M46.0390625,65.0966797c-3.0566406,0-5.5341797-2.4775391-5.5341797-5.5341797s2.4775391-5.5341797,5.5341797-5.5341797
	s5.5341797,2.4775391,5.5341797,5.5341797S49.0957031,65.0966797,46.0390625,65.0966797z M85.8642578,30.984375
	c1.7978516,0,3.2558594,1.4580078,3.2558594,3.2558594s-1.4580078,3.2548828-3.2558594,3.2548828
	c-1.7988281,0-3.2558594-1.4570313-3.2558594-3.2548828S84.0654297,30.984375,85.8642578,30.984375z M85.8642578,41.5966797
	c3.0566406,0,5.5341797,2.4785156,5.5341797,5.5351563s-2.4775391,5.5341797-5.5341797,5.5341797
	s-5.5351563-2.4775391-5.5351563-5.5341797S82.8076172,41.5966797,85.8642578,41.5966797z M83.1113281,59.7929688
	c0,3.0566406-2.4785156,5.5341797-5.5341797,5.5341797c-3.0566406,0-5.5351563-2.4775391-5.5351563-5.5341797
	s2.4785156-5.5351563,5.5351563-5.5351563C80.6328125,54.2578125,83.1113281,56.7363281,83.1113281,59.7929688z
	 M72.9726563,30.7548828c1.7978516,0,3.2558594,1.4570313,3.2558594,3.2548828s-1.4580078,3.2558594-3.2558594,3.2558594
	s-3.2558594-1.4580078-3.2558594-3.2558594S71.1748047,30.7548828,72.9726563,30.7548828z M72.7421875,42.4951172
	c1.7988281,0,3.2558594,1.4580078,3.2558594,3.2548828c0,1.7988281-1.4570313,3.2558594-3.2558594,3.2558594
	c-1.7978516,0-3.2558594-1.4570313-3.2558594-3.2558594C69.4863281,43.953125,70.9443359,42.4951172,72.7421875,42.4951172z
	 M66.0761719,50.8144531c0,3.0566406-2.4775391,5.5351563-5.5341797,5.5351563s-5.5351563-2.4785156-5.5351563-5.5351563
	s2.4785156-5.5341797,5.5351563-5.5341797S66.0761719,47.7578125,66.0761719,50.8144531z M65.3525391,61.6347656
	c0,1.2578125-1.0205078,2.2783203-2.2783203,2.2783203c-1.2587891,0-2.2792969-1.0205078-2.2792969-2.2783203
	c0-1.2587891,1.0205078-2.2792969,2.2792969-2.2792969C64.3320313,59.3554688,65.3525391,60.3759766,65.3525391,61.6347656z
	 M58.0097656,31.9287109c3.0566406,0,5.5341797,2.4775391,5.5341797,5.5341797s-2.4775391,5.5341797-5.5341797,5.5341797
	s-5.5351563-2.4775391-5.5351563-5.5341797S54.953125,31.9287109,58.0097656,31.9287109z M55.9375,72.9472656
	c-1.7978516,0-3.2548828-1.4580078-3.2548828-3.2558594s1.4570313-3.2558594,3.2548828-3.2558594
	s3.2558594,1.4580078,3.2558594,3.2558594S57.7353516,72.9472656,55.9375,72.9472656z M60.3115234,82.5830078l4.8339844,3.2226563
	l3.2226563-4.8339844l-0.5927734,20.8105469L60.3115234,82.5830078z M66.0664063,132.0761719
	c-1.3808594-1.6113281-3.6835938-6.6757813-12.6611328,1.8417969c3.453125-6.90625,9.2080078-11.9707031,14.9628906-3.453125
	C69.9794922,132.7675781,67.4472656,133.6884766,66.0664063,132.0761719z M65.5966797,72.2236328
	c0-3.0566406,2.4775391-5.5341797,5.5341797-5.5341797s5.5341797,2.4775391,5.5341797,5.5341797
	s-2.4775391,5.5341797-5.5341797,5.5341797S65.5966797,75.2802734,65.5966797,72.2236328z M77.3466797,86.9570313
	l3.6826172,0.9208984l-4.4140625,17.5058594l-1.8007813-3.0029297L77.3466797,86.9570313z M92.0791016,133.9179688
	c-8.9775391-8.5175781-11.2792969-3.453125-12.6611328-1.8417969c-1.3808594,1.6123047-3.9130859,0.6914063-2.3017578-1.6113281
	C82.8710938,121.9472656,88.6259766,127.0117188,92.0791016,133.9179688z M86.7851563,77.78125
	c-1.7988281,0-3.2558594-1.4570313-3.2558594-3.2558594c0-1.7978516,1.4570313-3.2548828,3.2558594-3.2548828
	c1.7978516,0,3.2558594,1.4570313,3.2558594,3.2548828C90.0410156,76.3242188,88.5830078,77.78125,86.7851563,77.78125z
	 M91.3886719,65.5244141c-1.2578125,0-2.2792969-1.0205078-2.2792969-2.2783203
	c0-1.2587891,1.0214844-2.2792969,2.2792969-2.2792969c1.2587891,0,2.2792969,1.0205078,2.2792969,2.2792969
	C93.6679688,64.5039063,92.6474609,65.5244141,91.3886719,65.5244141z M99.7783203,38.3515625
	c1.7978516,0,3.2558594,1.4580078,3.2558594,3.2548828c0,1.7988281-1.4580078,3.2558594-3.2558594,3.2558594
	s-3.2548828-1.4570313-3.2548828-3.2558594C96.5234375,39.8095703,97.9804688,38.3515625,99.7783203,38.3515625z
	 M99.4462891,60.4931641c-3.0566406,0-5.5351563-2.4785156-5.5351563-5.5351563s2.4785156-5.5341797,5.5351563-5.5341797
	s5.5341797,2.4775391,5.5341797,5.5341797S102.5029297,60.4931641,99.4462891,60.4931641z"/>
<path d="M776.2421875,166.1513672h44.1992188v-39.1396484V89.2587891V44.1386719
	c0-5.3388672,4.328125-9.6679688,9.6689453-9.6679688c5.3388672,0,9.6679688,4.3291016,9.6679688,9.6679688v122.0126953h44.1992188
	V24.3691406c0-8.7880859-2.3017578-24.5205078-29.7246094-24.5205078
	c-15.3955078,0.2304688-25.0634766-1.2900391-36.5742188,15.7451172
	c-0.4599609-5.9853516-2.7617188-12.2919922-5.0644531-15.7451172h-40.515625
	c1.3808594,5.5253906,4.1435547,24.0322266,4.1435547,34.1884766V166.1513672z"/>
<rect x="486.1865234" y="-0.1513672" width="44.1992188" height="166.3027344"/>
<path d="M300.2285156,166.1513672h57.5048828v-37.7578125h-41.8964844v-27.1640625h41.8964844V63.4755859h-41.8964844V37.6933594
	h41.8964844V-0.1513672h-57.5048828c-14.6464844,0-26.5185547,11.7333984-26.5185547,26.3808594v113.1699219
	C273.7099609,154.0458984,285.5820313,166.1513672,300.2285156,166.1513672z"/>
<polygon points="586.0537109,101.2841797 604.4765625,101.2841797 604.4765625,166.1513672 648.6894531,166.1513672 
	648.6894531,-0.1513672 604.4765625,-0.1513672 604.4765625,63.5185547 586.0537109,63.5185547 586.0537109,-0.1513672 
	541.8398438,-0.1513672 541.8398438,166.1513672 586.0537109,166.1513672 "/>
<path d="M446.3339844-0.1513672c-15.3955078,0.2304688-25.0644531-1.2900391-36.5742188,15.7451172
	c-0.4609375-5.9853516-2.7626953-12.2919922-5.0644531-15.7451172h-40.515625
	c1.3808594,5.5253906,4.1435547,24.0322266,4.1435547,34.1884766v132.1142578h44.1982422V44.1386719
	c0-5.3388672,4.3291016-9.6679688,9.6689453-9.6679688s9.6689453,4.3291016,9.6689453,9.6679688v122.0126953h44.1982422V24.3691406
	C476.0576172,15.5810547,473.7558594-0.1513672,446.3339844-0.1513672z"/>
<path d="M247.8017578,81.0644531c9.5175781-4.0253906,16.9296875-12.8652344,16.9296875-23.8496094V26.4589844
	c0-14.6464844-11.8730469-26.6103516-26.5195313-26.6103516h-73.8486328v166.3027344h76.1513672
	c14.6455078,0,26.5195313-11.8779297,26.5195313-26.5244141v-33.0566406
	C267.0341797,94.4511719,258.9042969,84.2304688,247.8017578,81.0644531z M225.1416016,118.9472656
	c0,5.2128906-4.2275391,9.4394531-9.4404297,9.4394531l-9.4414063,0.0068359v-27.1640625h9.4414063
	c5.2128906,0,9.4404297,4.2265625,9.4404297,9.4404297V118.9472656z M225.1416016,54.0292969
	c0,5.2138672-4.2275391,9.4404297-9.4404297,9.4404297l-9.4414063,0.0029297V37.6933594h9.4414063
	c5.2128906,0,9.4404297,4.2265625,9.4404297,9.4404297V54.0292969z"/>
<path d="M749.9404297-0.1513672h-75.9365234c-8.7910156,0-15.9169922,7.0078125-15.9169922,15.7988281v150.5039063h44.2128906
	v-39.0751953h19.34375v39.0751953h44.2138672V15.6474609C765.8574219,6.8564453,758.7314453-0.1513672,749.9404297-0.1513672z
	 M721.6435547,89.3105469h-19.34375V44.1748047c0-5.3417969,4.3300781-9.671875,9.6728516-9.671875
	c5.3408203,0,9.6708984,4.3300781,9.6708984,9.671875V89.3105469z"/>
<path d="M984.0878906-0.1513672h-75.9121094c-8.7880859,0-15.9111328,6.984375-15.9111328,15.7724609v150.5302734h44.1992188
	v-39.1396484h19.3369141v39.1396484H1000V15.6210938C1000,6.8330078,992.8759766-0.1513672,984.0878906-0.1513672z
	 M955.8007813,89.2587891h-19.3369141V44.1386719c0-5.3388672,4.3271484-9.6679688,9.6679688-9.6679688
	c5.3398438,0,9.6689453,4.3291016,9.6689453,9.6679688V89.2587891z"/>
</svg>
