<?xml version="1.0" encoding="utf-8"?>
<!-- Generator: Adobe Illustrator 26.0.1, SVG Export Plug-In . SVG Version: 6.00 Build 0)  -->
<svg version="1.1" id="Layer_1" xmlns="http://www.w3.org/2000/svg" xmlns:xlink="http://www.w3.org/1999/xlink" x="0px" y="0px"
	 viewBox="0 0 200 97.2" style="enable-background:new 0 0 200 97.2;" xml:space="preserve">
<style type="text/css">
	.st0{fill:#EEC641;}
</style>
<g>
	<g>
		<path class="st0" d="M16.8,52.8c0.3,0.2,0.5,0.5,0.8,0.7c5.2,5.8,14.4,2.7,17-3.2c2.2-4.9-0.1-10.2-5.4-12.4
			c-4.9-2-9.8-1.2-14.5,0.8c-4.2,1.7-7.5,4.5-9.3,8.7c-2.5,6-0.6,12.4,4.9,16.4c5,3.6,10.7,4.7,16.7,4.4c7.2-0.4,13.7-2.7,18.8-8
			c3.9-4.1,5.5-9,4.1-14.6c-0.9-3.7-3.5-6.3-6.6-8.3S37,33.8,34,32c-3.1-1.7-6.1-3.7-9-5.8c-6-4.9-5.8-13.2-0.8-18.6
			c3.4-3.5,7.7-5.9,12.5-6.8c3.6-0.8,7.4-1,11.1-0.5c4.9,0.6,9.5,2.2,12.6,6.3c2.8,3.5,2.9,8.5,0.3,12.1c-1.6,2.2-4.6,2.9-7,1.6
			c-1.9-1-2.7-3.2-2-5.2c0.7-2.1,3.1-2.5,5-1.1c0.5,0.4,1.4,0.7,1.9,0.5c0.6-0.4,1-1.1,1.1-1.8C60,8.4,57.4,4.5,53.4,3
			c-6.8-3-14.7-2.6-21.2,1.1c-2.8,1.4-4.9,4-5.9,7c-1.3,3.8,0,8,3.3,10.3c3.4,2.7,7.3,4.9,10.9,7.3c3.1,2,6.3,3.9,9.2,6.2
			c6.5,5.3,7,12.6,3.7,19.6c-2.5,5.3-6.9,8.8-12.2,11.2c-7.9,3.6-16.8,4.6-25.3,2.8c-3.3-0.6-6.5-1.9-9.4-3.7
			c-8.3-5.2-8.5-16-1.6-22.2c6.4-5.7,14-7.5,22.5-6.5c2.8,0.3,5.6,1.2,8,2.8c4.3,2.8,5.5,7.4,2.8,11.8c-3.4,5.4-8.6,7.2-14.7,6.9
			c-2.7-0.2-5.1-1.4-6.8-3.5c-0.3-0.3-0.3-0.8-0.4-1.3L16.8,52.8z"/>
		<path class="st0" d="M111,59.4c0,0.4,0,0.8-0.1,1.2c-0.7,2.9-2.2,5.6-4.3,7.7c-1.5,1.4-3.2,2.4-5.4,1.7s-2.8-2.8-2.9-4.7
			c0-2.2,0.1-4.4,0.4-6.6c0-0.5,0.1-1,0.1-1.5l-0.4-0.2c-0.3,0.5-0.7,0.9-1,1.4c-2.3,3.5-4.6,7-7.8,9.8c-1.4,1.2-2.8,2.1-4.8,1.9
			s-3.4-1.8-4-4.2c-0.7-3.1-0.5-6.3,0.6-9.2c2.3-7.1,7-13.2,13.3-17.3c1.4-0.8,2.9-1.4,4.5-1.7c2.3-0.5,3.5,0.4,4.2,2.7
			c0.1,0.3,0.3,0.6,0.6,0.8c0.2-0.2,0.5-0.5,0.7-0.8c0.5-0.7,0.8-1.9,1.3-2c1.4-0.2,2.9-0.2,4.3,0c0.2,0.3,0.3,0.7,0.2,1.1
			c-1.7,4.6-3.5,9.2-5.2,13.8c-1.5,4-3.1,8.1-4.7,12.2c-0.5,1.1-0.2,2.4,0.7,3.2c1,0.9,2.1,0.5,3-0.1c2.6-1.6,3.8-4.2,4.9-6.8
			c0.4-0.9,0.8-1.8,1.1-2.7L111,59.4z M102.9,42.8l-0.3-0.1c-0.1-0.6-0.2-1.2-0.3-1.8c-0.4-2.2-2.3-2.8-3.9-1.4
			c-0.8,0.7-1.5,1.5-2.1,2.5c-4.3,6.3-7.9,13.1-10.9,20.1c-0.6,1.5-1.1,3-1.4,4.6c0,0.9,0.3,1.7,1,2.3c0.4,0.3,1.5,0,2.1-0.3
			c0.8-0.5,1.6-1.1,2.2-1.8c4.9-4.9,8.7-10.7,11.2-17.1C101.5,47.5,102.1,45.1,102.9,42.8z"/>
		<path class="st0" d="M148.6,69.4c1.4-3.5,2.8-6.7,4.1-9.9c2.2-5.8,4.3-11.6,6.4-17.4c0.2-0.4,0.3-0.8,0.2-1.2
			c-0.2-0.7-0.5-1.6-1.1-1.8s-1.4,0.2-1.9,0.6c-2.1,2-3.7,4.4-4.7,7c-0.4,0.8-0.6,1.6-0.9,2.4c-0.1,0.2-0.4,0.3-0.7,0.5
			c-0.1-0.3-0.4-0.6-0.3-0.8c1.2-4,2.8-7.9,6.4-10.4c1.7-1.2,4.1-0.7,5.2,1c0.4,0.6,0.6,1.4,0.6,2.1c-0.1,2.6-0.4,5.3-0.8,7.9
			c-0.1,0.4-0.1,0.9-0.2,1.3l0.3,0.2c0.3-0.5,0.7-0.9,1-1.4c1.9-3,3.8-6.1,5.8-9c1.2-1.7,2.7-3.3,5.1-2.5s2.9,2.9,3.2,5.1
			c0.4,3.1-0.6,6-1.9,8.8c-1.4,3-3.1,5.9-4.7,8.9c-1.2,2-1.7,4.3-1.4,6.6c0.3,1.7,1.2,2.4,2.8,1.6c1.3-0.7,2.4-1.7,3.3-2.9
			c1.1-1.8,2-3.7,2.9-5.7c0.2-0.4,0.4-0.8,0.8-1.5c0.2,0.6,0.3,0.9,0.3,1.1c-1,3.9-2.6,7.3-6.1,9.6c-2.7,1.7-5.5,0.6-6.5-2.4
			c-1.4-4-1.1-8.3,0.9-12c1.6-3.3,3.5-6.4,5.1-9.7c0.6-1.4,1.1-3,1.3-4.5c0-0.7-0.3-1.4-0.8-1.9c-0.3-0.2-1.5,0.2-1.8,0.7
			c-2.4,3-4.6,6.1-6.5,9.4c-3.4,6.3-6.4,12.8-9.4,19.2c-0.3,0.8-1.1,1.4-2,1.2C151.4,69.3,150.1,69.4,148.6,69.4z"/>
		<path class="st0" d="M126.2,58.6c0,0.4,0,0.8-0.1,1.2c-1,3.1-2.6,6-4.6,8.5c-2.4,2.8-5.6,2.5-7.5-0.7c-1.7-2.9-2.2-6.3-1.5-9.6
			c2-9.5,5.9-18.2,10.5-26.6c2.7-5.2,6.4-9.7,10.9-13.4c3.2-2.5,7.2-4,11.2-4.2c2.1-0.2,4.3,0.4,6,1.6c1.6,1,2.1,3.1,1.1,4.7
			c-0.1,0.1-0.2,0.2-0.3,0.4c-1,1.2-2.6,1.4-3.9,0.6c-0.9-0.5-1.2-1.6-0.7-2.5c0.1-0.3,0.3-0.5,0.6-0.6c1.5-1.3,1.3-2.2-0.6-3
			c-2.3-0.9-4.3,0-6.2,1c-4.3,2.4-7.3,6.2-10,10.1c-4.4,6.4-7.5,13.5-10.4,20.6c-1.6,3.9-3,7.8-4.3,11.8c-0.6,1.8-0.9,3.7-1,5.6
			c0,1.1,0.2,2.2,0.7,3.2c0.8,1.8,2.6,2.1,3.8,0.6c1.5-1.8,2.8-3.8,3.9-5.8c0.7-1.3,1.3-2.5,1.8-3.9L126.2,58.6z"/>
		<path class="st0" d="M78.1,58.2c-2.2,3.8-3.7,8.3-7.8,10.8c-4.1,2.5-9.4,1.2-11.8-2.8c-0.6-1-1-2-1.2-3.1c-0.8-4.8,0.5-9.2,3-13.2
			c3.1-5.1,7-9.2,12.7-11.4c0.9-0.4,1.9-0.5,2.9-0.6c2.8-0.3,5.3,1.7,5.7,4.5c0,0.3,0,0.6,0,0.9c-0.1,1.6-0.5,3.2-1.1,4.7
			c-0.5,1.2-1.7,2.1-3,2.2c-1.3,0.2-2.6-0.6-3-1.9c-0.2-1.5,0.7-2.9,2.1-3.3c0.4-0.1,0.9-0.2,1.3-0.3c1.4-0.4,2.3-1.6,2.2-3
			c-0.1-1.4-1.2-2.5-2.6-2.5c-1.2,0-2.4,0.3-3.4,0.9c-2.8,1.7-4.5,4.4-6,7.2c-2.7,4.7-4.7,9.8-5.9,15.1c0,0.2-0.1,0.4-0.1,0.7
			c-0.3,2-0.5,4,1.4,5.3c1.9,1.2,4.3,1.1,6-0.2c1.6-1.1,2.9-2.5,4.1-4.1c1.1-1.6,2.1-3.4,3.1-5.1c0.3-0.4,0.6-0.7,0.9-1.1L78.1,58.2
			z"/>
		<path class="st0" d="M145.3,59.5c-0.2,0.7-0.3,1.5-0.6,2.1c-0.8,2.5-2.2,4.8-4,6.7c-0.7,0.7-1.5,1.2-2.3,1.6c-2,1-4.4,0.2-5.4-1.7
			c-0.1-0.2-0.2-0.4-0.3-0.7c-1.4-3.1-1.5-6.7-0.4-9.9c1.5-3.7,3.5-7.2,5.2-10.9c0.8-1.8,1.6-3.7,2.2-5.7c0.2-0.6-0.3-1.4-0.4-2.1
			c-0.8,0-1.5,0.2-2.2,0.6c-2.4,1.8-3.8,4.6-5.2,7.2c-0.1,0.3-0.3,0.6-0.4,0.8c-0.3,0.3-0.6,0.6-1,0.9c0-0.5-0.3-1-0.1-1.3
			c1.6-2.5,3.1-5.1,4.9-7.4c1.1-1.6,3.1-2.2,4.9-1.6c1.9,0.7,2.5,2.4,2.7,4.2c0.5,3.9-0.2,7.9-2,11.5c-1.2,2.4-2.6,4.7-4.1,7
			c-1.5,2-2,4.6-1.5,7c0.4,1.5,1.2,2.1,2.6,1.3c1.3-0.7,2.5-1.8,3.4-3c1.1-1.8,2.1-3.7,2.9-5.6c0.2-0.4,0.4-0.8,0.7-1.2L145.3,59.5z
			"/>
		<path class="st0" d="M197.3,59.3c0,0.3,0,0.6,0,1c-0.8,3-2.3,5.8-4.4,8.1c-0.3,0.3-0.5,0.5-0.8,0.7c-3.2,2.3-6.4,1.1-7.5-2.7
			c-1.4-5-0.2-9.5,2.1-13.8c1.6-3,3.2-6,4.6-9c0.5-1.1,0.7-2.2,0.8-3.4c0.1-0.6-0.2-1.2-0.8-1.3c-0.3-0.1-0.6,0-0.9,0.1
			c-0.9,0.4-1.7,0.9-2.3,1.7c-1.5,2.1-2.9,4.4-4.2,6.6c-0.1,0.2-0.1,0.5-0.3,0.6c-0.3,0.2-0.5,0.4-0.8,0.5c-0.1-0.3-0.3-0.7-0.2-0.9
			c0.4-1,0.9-2,1.5-3c1.1-1.6,2.2-3.1,3.4-4.7c0.3-0.3,0.6-0.6,0.9-0.8c2.8-2,5.7-1,6.6,2.4c0.9,3.5,0.5,7.1-0.9,10.3
			c-1.4,3.1-3,6.1-4.9,9c-1.2,1.8-1.8,4-1.8,6.1c0.2,2.5,1.6,3.3,3.8,1.8c2.4-1.6,3.5-4,4.6-6.5c0.4-0.9,0.8-1.9,1.2-2.8L197.3,59.3
			z"/>
		<path class="st0" d="M141.7,30.8c0.1-2.2,1.2-4.3,2.9-5.8c0.5-0.4,1.2-0.6,1.9-0.5c1,0.4,1.6,1.5,1.4,2.6c-0.1,1.9-1,3.7-2.4,5
			c-0.7,0.8-1.8,1-2.7,0.5C142.2,32.1,142,31.2,141.7,30.8z"/>
		<path class="st0" d="M200,27.2c-0.1,1.9-1,3.8-2.6,4.9c-0.7,0.5-1.6,0.7-2.4,0.5c-0.7-0.5-1.1-1.3-1.1-2.2c0.1-2.1,1.1-4,2.7-5.4
			c1.3-1.2,2.9-0.6,3.2,1.2C200,26.5,200,26.8,200,27.2z"/>
	</g>
</g>
<g>
	<path class="st0" d="M82,81.6h-8.4v4.7h7.5v1.4h-7.5v4.8h8.5V94H72V80.2h10V81.6z"/>
	<path class="st0" d="M94.3,94.4c-0.2,0.6-0.6,1.1-1,1.5c-0.5,0.4-1,0.7-1.6,0.9c-0.6,0.2-1.3,0.3-2.1,0.3c-0.9,0-1.7-0.1-2.4-0.4
		c-0.8-0.2-1.5-0.6-2.2-1.1l0.7-1.2c0.6,0.4,1.2,0.7,1.9,1s1.3,0.3,2.1,0.3c1.1,0,2-0.3,2.7-0.9c0.7-0.6,1-1.5,1-2.7v-1.2
		c-0.4,0.6-1,1.1-1.6,1.5c-0.6,0.4-1.4,0.6-2.4,0.6c-0.6,0-1.2-0.1-1.8-0.3s-1.1-0.5-1.5-0.9c-0.4-0.4-0.8-0.9-1.1-1.5
		c-0.3-0.6-0.4-1.3-0.4-2s0.1-1.4,0.4-2c0.3-0.6,0.6-1.1,1.1-1.5s1-0.7,1.5-1c0.6-0.2,1.2-0.3,1.8-0.3c0.5,0,0.9,0.1,1.3,0.2
		c0.4,0.1,0.8,0.3,1.1,0.4c0.3,0.2,0.6,0.4,0.9,0.7c0.3,0.2,0.5,0.5,0.7,0.8v-1.8h1.5v8.4C94.6,93,94.5,93.8,94.3,94.4z M92.8,87
		c-0.2-0.4-0.5-0.8-0.8-1.1c-0.3-0.3-0.7-0.5-1.2-0.7c-0.4-0.2-0.9-0.2-1.4-0.2c-0.5,0-0.9,0.1-1.4,0.2c-0.4,0.2-0.8,0.4-1.1,0.7
		c-0.3,0.3-0.6,0.7-0.8,1.1c-0.2,0.4-0.3,0.9-0.3,1.4s0.1,1,0.3,1.4c0.2,0.4,0.4,0.8,0.8,1.1c0.3,0.3,0.7,0.5,1.1,0.7
		c0.4,0.2,0.9,0.2,1.3,0.2c0.5,0,1-0.1,1.4-0.2c0.4-0.2,0.8-0.4,1.2-0.7c0.3-0.3,0.6-0.7,0.8-1.1c0.2-0.4,0.3-0.9,0.3-1.4
		S93.1,87.4,92.8,87z"/>
	<path class="st0" d="M103,94.3c-0.4,1.1-0.9,1.8-1.4,2.2c-0.5,0.4-1.2,0.7-1.9,0.7c-0.4,0-0.8,0-1.1-0.1c-0.3-0.1-0.7-0.2-1-0.4
		l0.5-1.2c0.2,0.1,0.5,0.2,0.7,0.3s0.5,0.1,0.9,0.1c0.5,0,0.8-0.1,1.2-0.4c0.3-0.3,0.6-0.8,0.9-1.5L97,83.8h1.7l3.7,8.5l3.3-8.5h1.6
		L103,94.3z"/>
	<path class="st0" d="M119.5,91.1c-0.3,0.7-0.6,1.2-1.1,1.7s-1,0.8-1.6,1c-0.6,0.2-1.2,0.4-1.8,0.4c-0.5,0-0.9-0.1-1.3-0.2
		c-0.4-0.1-0.7-0.3-1.1-0.5c-0.3-0.2-0.6-0.4-0.9-0.7s-0.5-0.5-0.7-0.8v5.1h-1.5V83.8h1.5v2c0.2-0.3,0.4-0.6,0.7-0.9
		c0.3-0.3,0.5-0.5,0.9-0.7c0.3-0.2,0.7-0.4,1.1-0.5c0.4-0.1,0.8-0.2,1.3-0.2c0.6,0,1.2,0.1,1.8,0.4c0.6,0.2,1.1,0.6,1.6,1
		s0.8,1,1.1,1.7c0.3,0.7,0.4,1.4,0.4,2.2C119.9,89.7,119.8,90.5,119.5,91.1z M118.1,87.3c-0.2-0.5-0.5-0.9-0.8-1.2
		c-0.3-0.3-0.7-0.6-1.1-0.8s-0.9-0.3-1.4-0.3c-0.5,0-0.9,0.1-1.4,0.3s-0.8,0.5-1.2,0.8c-0.3,0.3-0.6,0.8-0.8,1.2
		c-0.2,0.5-0.3,1-0.3,1.6c0,0.6,0.1,1.1,0.3,1.6c0.2,0.5,0.5,0.9,0.8,1.2c0.3,0.3,0.7,0.6,1.2,0.8c0.4,0.2,0.9,0.3,1.4,0.3
		c0.5,0,0.9-0.1,1.4-0.3c0.4-0.2,0.8-0.4,1.1-0.8s0.6-0.7,0.8-1.2s0.3-1,0.3-1.7C118.4,88.3,118.3,87.8,118.1,87.3z"/>
	<path class="st0" d="M124.8,91.1c0,0.6,0.2,1.1,0.5,1.3s0.7,0.4,1.2,0.4c0.3,0,0.5,0,0.7-0.1c0.2-0.1,0.5-0.1,0.7-0.3v1.3
		c-0.3,0.1-0.5,0.3-0.8,0.3c-0.3,0.1-0.6,0.1-1,0.1c-0.4,0-0.8-0.1-1.1-0.2c-0.4-0.1-0.7-0.3-0.9-0.5c-0.3-0.2-0.5-0.5-0.6-0.9
		c-0.1-0.4-0.2-0.8-0.2-1.3v-6.1h-1.4v-1.3h1.4v-3.1h1.5v3.1h3.2v1.3h-3.2V91.1z"/>
</g>
</svg>
