<svg xmlns="http://www.w3.org/2000/svg" xmlns:xlink="http://www.w3.org/1999/xlink" id="Ebene_1" viewBox="0 0 164.4 102"><defs><style>      .st0 {        fill: #fff;      }      .st1 {        fill: url(#Luxor_425_Simu);      }    </style><linearGradient id="Luxor_425_Simu" data-name="Luxor 425 Simu" x1="27.8" y1="28.8" x2="137.2" y2="28.8" gradientUnits="userSpaceOnUse"><stop offset="0" stop-color="#c78062"></stop><stop offset="0" stop-color="#c78062"></stop><stop offset=".2" stop-color="#965640"></stop><stop offset=".6" stop-color="#eca77e"></stop><stop offset="1" stop-color="#91513c"></stop><stop offset="1" stop-color="#91513c"></stop></linearGradient></defs><path class="st1" d="M40.7,37.1h1V.4l-2.6,1.6v5.6c0,0,1.6-.7,1.6-.7v30.2ZM77,28.4l-28.3,3.8v4.3l23.7-1.9,59.6,3.6v-3.4c0,0-54.9-6.4-54.9-6.4ZM131.8,33.4l-2.4-4.1-52.4-6.8-24.1,3.5-4.2,4.8,28.3-3.7,54.9,6.4ZM34,37.6h1V7.9l-2.6,1.6v5.6c0,0,1.6-.7,1.6-.7v23.2ZM72.3,35.9l-44.5,3.5h0v3h0s44.5-.7,44.5-.7l64.9,1.4h0v-3.3h0s-64.9-4-64.9-4ZM27.8,43.7v4.4l44.5,1.2,64.9-.6v-4.3l-64.9-1.4-44.5.7ZM27.8,49.4v4l44.5,3.8,64.9-2.8v-4.3l-64.9.6-44.5-1.2Z"></path><g><g><path class="st0" d="M3.6,82.8c-1,0-2.1-.1-3-.4l.2-2.7c.8.3,2,.5,3,.5s2.5-.6,2.5-2c0-2.8-6.1-1.5-6.1-6.4s2-4.5,5.5-4.5,1.8.1,2.6.3l-.2,2.5c-.8-.2-1.7-.4-2.6-.4-1.6,0-2.4.7-2.4,1.8,0,2.7,6.1,1.7,6.1,6.3s-2.2,4.8-5.8,4.8Z"></path><path class="st0" d="M21,82.7c-5.1,0-6.7-3.5-6.7-7.2s2.4-8,7.3-8,2.1.1,3.1.4l-.3,2.6c-.9-.3-1.9-.4-2.9-.4-2.7,0-4.1,2.1-4.1,5s1.3,5,4.2,5,2.1-.3,2.8-.6l.3,2.6c-1.1.4-2.4.7-3.8.7Z"></path><path class="st0" d="M39.5,82.5v-6.4h-6.2v6.4h-2.8v-14.9h2.8v5.9h6.2v-5.9h2.8v14.9h-2.8Z"></path><path class="st0" d="M49,82.5v-14.9h2.8v12.3h4.7v2.5h-7.5Z"></path><path class="st0" d="M66.8,82.8c-4.4,0-6.6-2.9-6.6-7.5s3.2-7.9,7.1-7.9,6.6,2.4,6.6,7.5-3.2,7.9-7.1,7.9ZM67,70c-2,0-3.9,1.6-3.9,5s1.2,5.2,3.8,5.2,3.9-1.5,3.9-5.1-1.4-5.1-3.9-5.1Z"></path><path class="st0" d="M82.1,82.8c-1,0-2.1-.1-3-.4l.2-2.7c.8.3,2,.5,3,.5s2.5-.6,2.5-2c0-2.8-6.1-1.5-6.1-6.4s2-4.5,5.5-4.5,1.8.1,2.6.3l-.2,2.5c-.8-.2-1.7-.4-2.6-.4-1.6,0-2.4.7-2.4,1.8,0,2.7,6.1,1.7,6.1,6.3s-2.2,4.8-5.8,4.8Z"></path><path class="st0" d="M96.2,82.8c-1,0-2.1-.1-3-.4l.2-2.7c.8.3,2,.5,3,.5s2.5-.6,2.5-2c0-2.8-6.1-1.5-6.1-6.4s2-4.5,5.5-4.5,1.8.1,2.6.3l-.2,2.5c-.8-.2-1.7-.4-2.6-.4-1.6,0-2.4.7-2.4,1.8,0,2.7,6.1,1.7,6.1,6.3s-2.2,4.8-5.8,4.8Z"></path><path class="st0" d="M111.8,82.6c-.9,0-2.4,0-4.2,0v-14.8c1.2,0,3.1-.1,4.9-.1,3.1,0,4.9,1.3,4.9,3.7s-.9,2.8-2.3,3.3h0c1.7.4,2.6,1.9,2.6,3.4,0,2.2-1.4,4.6-5.8,4.6ZM112,69.9c-.6,0-1.1,0-1.6,0v3.9c.3,0,.7,0,1.1,0,1.9,0,2.9-.8,2.9-2.1s-.6-1.8-2.4-1.8ZM111.6,76c-.2,0-.9,0-1.2,0v4.2c.3,0,.9,0,1.5,0,1.8,0,2.8-.9,2.8-2.2s-1.2-2-3.1-2Z"></path><path class="st0" d="M123.4,82.5v-14.9h7.9v2.4h-5.1v3.7h4.9v2.3h-4.9v4h5.1v2.4h-7.9Z"></path><path class="st0" d="M144.3,82.5l-4.1-6.1h-.1v6.1h-2.8v-14.9c1.1,0,2.5,0,4.2,0,3.2,0,5.3,1.1,5.3,4.2s-1.5,3.8-3.7,4.1c.4.5.8,1.1,1.2,1.6l3.5,5h-3.5ZM141.2,69.9c-.4,0-.8,0-1.1,0v4.3c.2,0,.6,0,1,0,1.7,0,2.7-.9,2.7-2.3s-.9-2.1-2.6-2.1Z"></path><path class="st0" d="M163.7,70.7c-1.2-.5-2.5-.7-3.9-.7-2.9,0-4.9,1.8-4.9,5.2s1.7,5,4.6,5,1.3,0,1.9-.3v-5.2h2.8v7.1c-1.4.6-3.2.9-5,.9-4.6,0-7.4-2.8-7.4-7.3s3.1-8,8.1-8,2.9.3,4.1.6l-.4,2.7Z"></path></g><g><path class="st0" d="M32.9,101.5v-3.6h-4.2v3.6h-.7v-7.6h.7v3.3h4.2v-3.3h.7v7.6h-.7Z"></path><path class="st0" d="M40.5,101.6c-2.2,0-3.3-1.5-3.3-3.8s1.6-4,3.4-4,3.3,1.4,3.3,3.8-1.6,4-3.5,4ZM40.6,94.5c-1.4,0-2.6,1.2-2.6,3.2s.8,3.3,2.6,3.3,2.6-1.1,2.6-3.2-1-3.3-2.6-3.3Z"></path><path class="st0" d="M49.7,94.5v7h-.7v-7h-2.3v-.6h5.3v.6h-2.3Z"></path><path class="st0" d="M55.3,101.5v-7.6h3.7v.6h-3v2.8h2.8v.6h-2.8v3h3v.6h-3.7Z"></path><path class="st0" d="M63,101.5v-7.6h.7v7h2.8v.6h-3.5Z"></path><path class="st0" d="M79,101.5v-3.6h-4.2v3.6h-.7v-7.6h.7v3.3h4.2v-3.3h.7v7.6h-.7Z"></path><path class="st0" d="M86.6,101.6c-2.2,0-3.3-1.5-3.3-3.8s1.6-4,3.4-4,3.3,1.4,3.3,3.8-1.6,4-3.5,4ZM86.7,94.5c-1.4,0-2.6,1.2-2.6,3.2s.8,3.3,2.6,3.3,2.6-1.1,2.6-3.2-1-3.3-2.6-3.3Z"></path><path class="st0" d="M101.1,101.5l-.7-4.9c-.1-1-.2-1.5-.2-1.9h0c0,.3-.2.7-.4,1.2l-1.9,5.6h-.8l-1.8-5.3c-.2-.5-.4-1.1-.5-1.5h0c0,.6-.1,1.2-.2,2l-.6,4.8h-.7l1-7.6h.9l1.8,5.4c.2.6.3,1.1.4,1.4h0c.1-.5.2-.8.4-1.3l1.8-5.5h1l1.1,7.6h-.7Z"></path><path class="st0" d="M107.3,101.5c-.5,0-1.1,0-1.7,0v-7.6c.5,0,1.1,0,2,0,1.6,0,2.3.7,2.3,1.8s-.6,1.6-1.5,1.8h0c1.2.2,1.6,1,1.6,1.8s-.4,2.3-2.8,2.3ZM107.4,94.5c-.4,0-.8,0-1.1,0v2.8c.2,0,.5,0,.7,0,1.4,0,2.1-.6,2.1-1.5s-.4-1.3-1.7-1.3ZM107,97.9c-.1,0-.5,0-.7,0v3c.2,0,.6,0,1.1,0,1.4,0,2-.7,2-1.6s-1-1.5-2.3-1.5Z"></path><path class="st0" d="M116.5,101.6c-2.3,0-2.7-1.3-2.7-2.6v-5.1h.7v5c0,1.1.4,2.1,2.1,2.1s2.1-.6,2.1-2.3v-4.8h.7v4.7c0,1.9-1,3-2.9,3Z"></path><path class="st0" d="M127.1,101.5l-2.8-3.6h0v3.6h-.7v-7.6c.5,0,.9,0,1.7,0,1.3,0,2.4.5,2.4,1.9s-1.1,2.1-2.5,2.1c.2.2.5.5.7.8l2.3,2.8h-.9ZM125,94.5c-.3,0-.5,0-.8,0v2.9c.1,0,.4,0,.7,0,1.2,0,1.9-.6,1.9-1.5s-.7-1.4-1.9-1.4Z"></path><path class="st0" d="M136.8,94.8c-.6-.3-1.3-.4-2-.4-1.6,0-3.1,1.1-3.1,3.3s1.2,3.3,3,3.3,1.1,0,1.6-.2v-3h.7v3.5c-.7.3-1.6.4-2.4.4-2.2,0-3.7-1.4-3.7-3.7s1.5-4,3.9-4,1.3.1,2,.3v.7Z"></path></g></g></svg>