<svg width="570" height="83" viewBox="0 0 570 83" fill="none" xmlns="http://www.w3.org/2000/svg">
<path d="M0.0273857 59.845C0.142145 57.145 0.977937 54.6476 2.85471 52.6276C5.0908 50.2211 7.69765 49.2212 10.9594 49.0739C10.9953 51.4608 10.9666 53.8516 10.9661 56.2391L12.4321 56.2369L19.6032 56.2388C21.0278 56.2381 22.4564 56.2608 23.8805 56.2356L24.2456 56.2329L28.0383 56.2398C28.6018 56.2398 29.2629 56.3044 29.8138 56.2149C29.8664 56.2261 29.9938 56.234 30.0178 56.2815C30.095 56.4335 30.0347 78.3988 30.0443 80.6489C29.4732 80.9514 27.1254 80.4194 26.4984 80.2331C26.1507 80.1297 25.4779 79.978 25.2282 79.7215L25.148 79.7129C25.0167 79.6873 24.9435 79.6382 24.8366 79.5605C24.5749 79.538 24.1716 79.2913 23.9804 79.118C23.78 79.052 23.5852 78.9071 23.4046 78.7982L23.3966 78.7656C22.6533 78.4476 21.5291 77.3439 20.9846 76.7308C19.4229 74.9727 18.3315 72.7559 18.0568 70.4213C17.9318 69.3602 17.9629 68.2964 17.966 67.2303C17.9667 66.9648 18.0437 66.2385 17.9181 66.0231L17.733 65.9842C17.2877 66.0579 16.7576 66.0086 16.3034 66.0076L2.69308 66.0077L2.48942 66.0033C1.96122 66.0081 0.457255 66.0975 0.0592279 65.9748L0.0224182 65.9347C0.060374 65.5812 0.036173 65.2028 0.0365551 64.8463L0.0299317 62.632L0.030952 62.2868C0.039698 61.4728 0.0385092 60.6589 0.0273857 59.845Z" fill="#A13DFF"/>
<path d="M17.9599 1.74315C18.1759 1.73806 18.3919 1.73912 18.6078 1.74633C18.8237 1.75355 19.0393 1.7669 19.2544 1.78638C19.4695 1.80587 19.6839 1.83146 19.8975 1.86316C20.1112 1.89485 20.3238 1.9326 20.5353 1.97639C20.7467 2.02019 20.9566 2.06997 21.1651 2.12572C21.3736 2.18147 21.5804 2.24311 21.7853 2.31064C21.9901 2.37816 22.1929 2.45146 22.3934 2.53053C22.594 2.6096 22.7921 2.69431 22.9877 2.78466L23.0217 2.78549C23.1551 2.85308 23.2878 2.92285 23.4228 2.9871C23.6366 3.09902 23.8575 3.20442 24.0589 3.33692L24.4354 3.54994C24.6133 3.66873 24.79 3.79026 24.9707 3.90496C27.639 5.87799 29.4392 8.58204 29.9188 11.8671C30.1369 13.3625 30.0454 14.9291 30.0431 16.4392C30.282 16.4685 30.5201 16.4695 30.7605 16.4726C33.2958 16.3993 35.852 16.4609 38.3895 16.461C40.8402 16.4613 43.3068 16.3984 45.7553 16.4619C46.463 16.4667 47.3053 16.555 47.996 16.4358C47.9484 16.8758 47.9713 17.3295 47.9718 17.7721L47.9754 19.9689L47.9744 20.3014C47.9735 21.0724 47.9229 21.8753 47.9777 22.6425C47.841 25.783 46.7532 28.4513 44.3836 30.5973C42.2613 32.5194 39.8638 33.2413 37.0459 33.388L37.0412 28.6699C37.0411 27.882 37.0886 27.0627 37.0288 26.2782C36.9863 26.251 36.9538 26.2271 36.9044 26.2134C36.4419 26.265 35.9437 26.2336 35.478 26.2333H24.1797L23.8843 26.232L19.9899 26.2351C19.3297 26.2355 18.6125 26.2924 17.9608 26.2027L17.9599 1.74315Z" fill="#A13DFF"/>
<path d="M10.9369 16.4606C12.3094 16.4668 13.6819 16.4653 15.0545 16.456C15.0601 19.7124 15.1049 22.9766 15.0541 26.232L10.9655 26.2311L10.9664 29.8998C10.9662 30.5709 10.9388 31.2551 10.9754 31.9245C12.517 33.4369 14.0363 34.983 15.6112 36.4616L15.8067 36.403C16.5197 36.5081 17.6813 36.4261 18.4395 36.4257L33.6533 36.4241L35.9139 36.4214C36.2892 36.4207 36.7395 36.3731 37.1064 36.445L41.7461 41.0125L41.9827 41.2325L42.1677 41.4336L42.2575 41.5098L46.0264 45.2301C46.6358 45.8317 47.3093 46.4191 47.8731 47.0586C47.9396 47.1341 47.9757 47.1862 48 47.2827C47.9269 47.8456 47.9697 48.4514 47.9703 49.0201L47.9741 52.2337C47.9752 55.5863 47.9283 58.946 47.9757 62.2978L47.973 62.6255L47.9706 64.8303C47.9706 65.2089 47.9328 65.6333 47.9959 66.0052L47.8159 66.004L45.5897 66.0088L45.4664 66.0035C42.9331 66.0476 40.3915 66.0028 37.8573 66.0035C36.3221 66.004 34.5273 66.0856 33.0123 65.9912L32.9784 65.9773C32.8859 65.7397 32.9483 57.2389 32.9436 56.2377L37.0429 56.2361C36.992 54.3839 37.0714 52.525 37.0314 50.6714C35.5668 49.1686 34.0454 47.6689 32.5084 46.2378L32.4761 46.172C31.8485 46.2744 30.4871 46.1909 29.7939 46.1905L23.608 46.1958C20.4842 46.1264 17.3386 46.1936 14.2129 46.1946C13.5658 46.1948 11.4322 46.2766 10.9233 46.1682L6.24348 41.5516L6.05561 41.3797L5.8638 41.1802L5.68191 41.0182C5.11996 40.4239 4.51356 39.86 3.93098 39.2845L0 35.3915C0.101385 34.9476 0.037192 34.3845 0.0365551 33.9247L0.0320967 31.1669L0.0299317 20.3054L0.0324796 19.876C0.0354091 18.8097 0.119728 17.4778 0.0098088 16.4372C0.306068 16.4728 0.605129 16.4695 0.903171 16.4729C1.55708 16.4586 2.21108 16.4548 2.86516 16.4614L8.21362 16.4673C9.10876 16.4674 10.0465 16.5235 10.9369 16.4606Z" fill="#A13DFF"/>
<path d="M71.896 43.968H63L78.296 3.136H89.176L104.536 43.968H95.512L91.8 33.92H75.672L71.896 43.968ZM77.912 27.52H89.56L83.736 11.648L77.912 27.52Z" fill="#121212"/>
<path d="M115.788 43.968H107.852V12.672H115.66V19.584C117.772 14.848 121.676 12.032 125.836 12.032C136.076 12.032 138.635 19.264 138.635 26.368V43.968H130.956V27.52C130.956 22.72 128.908 19.328 123.979 19.328C118.411 19.328 115.788 25.024 115.788 28.288V43.968Z" fill="#121212"/>
<path d="M140.497 12.224H142.033C145.041 12.224 147.473 10.624 148.113 7.296L149.265 1.088H156.049L153.937 12.416H165.265V19.392H155.025V37.696H166.417V44.608L155.473 44.736C150.353 44.672 146.896 41.856 146.896 36.16V19.392H140.497V12.224Z" fill="#121212"/>
<path d="M178.473 9.216L170.793 7.168V0.448002H178.473V9.216ZM170.729 12.672H175.017C177.193 12.672 178.665 14.08 178.665 16.192V43.968H170.729V12.672Z" fill="#121212"/>
<path d="M191.141 32.576C191.589 37.248 195.236 38.208 198.884 38.208C200.74 38.208 205.349 38.144 205.221 35.328C205.157 32.256 198.628 31.36 194.98 30.464C190.116 29.312 184.42 27.136 184.42 21.376C184.42 13.312 193.06 12.032 199.076 12.032C205.732 12.032 213.029 14.144 213.477 22.976L205.924 23.552C205.54 19.392 202.341 18.24 198.949 18.24C197.093 18.24 192.548 18.368 192.676 21.376C192.74 23.168 195.172 24.064 199.012 25.024C204.452 26.24 213.604 27.904 213.604 35.072C213.604 43.136 205.092 44.608 198.82 44.608C192.1 44.608 184.1 43.136 183.46 33.408L191.141 32.576Z" fill="#121212"/>
<path d="M215.032 12.224H216.568C219.576 12.224 222.008 10.624 222.648 7.296L223.799 1.088H230.584L228.472 12.416H239.799V19.392H229.56V37.696H240.952V44.608L230.008 44.736C224.888 44.672 221.432 41.856 221.432 36.16V19.392H215.032V12.224Z" fill="#121212"/>
<path d="M242.46 28.48C242.46 19.84 248.668 12.032 259.484 12.032C270.364 12.032 276.508 19.904 276.508 28.48C276.508 37.888 269.084 44.608 259.484 44.608C249.948 44.608 242.46 37.888 242.46 28.48ZM259.484 37.312C265.052 37.312 268.508 33.408 268.508 28.352C268.508 23.296 265.052 19.328 259.484 19.328C253.916 19.328 250.46 23.296 250.46 28.352C250.46 33.344 253.98 37.312 259.484 37.312Z" fill="#121212"/>
<path d="M287.25 28.288C287.25 33.6 290.706 37.504 296.338 37.504C300.434 37.504 303.506 35.392 304.85 32.256L311.058 35.392C309.266 40.768 304.082 44.8 296.338 44.8C286.802 44.8 279.186 38.208 279.186 28.352C279.186 18.624 286.866 12.032 296.338 12.032C304.082 12.032 309.266 16.064 311.058 21.44L304.85 24.576C303.506 21.44 300.434 19.328 296.338 19.328C290.834 19.328 287.25 23.04 287.25 28.288Z" fill="#121212"/>
<path d="M315.141 43.968V0H323.077V32.128L337.861 12.672H347.013L335.814 27.136L347.909 43.968H338.438L330.629 33.728L322.693 43.968H315.141Z" fill="#121212"/>
<path d="M68.52 81.2801H65.64C63.72 78.4001 63 74.5841 63 71.1761C63 67.7441 63.72 63.952 65.64 61.072H68.52C66.648 64.144 65.904 67.6 65.904 71.1761C65.904 74.7521 66.624 78.2081 68.52 81.2801Z" fill="#121212"/>
<path d="M74.6904 77.1761H71.6424V68.008H69.4104V65.368H71.6184V64.024C71.6184 61.72 72.9144 60.592 74.8584 60.352L79.2744 59.8V62.584L75.6504 63.064C75.0984 63.16 74.7144 63.52 74.7144 64.192V65.368H78.4344V68.008H74.6904V77.1761Z" fill="#121212"/>
<path d="M79.0204 71.368C79.0204 68.128 81.3484 65.2 85.4044 65.2C89.4844 65.2 91.7884 68.152 91.7884 71.368C91.7884 74.896 89.0044 77.416 85.4044 77.416C81.8284 77.416 79.0204 74.896 79.0204 71.368ZM85.4044 74.68C87.4924 74.68 88.7884 73.216 88.7884 71.32C88.7884 69.424 87.4924 67.936 85.4044 67.936C83.3164 67.936 82.0204 69.424 82.0204 71.32C82.0204 73.192 83.3404 74.68 85.4044 74.68Z" fill="#121212"/>
<path d="M92.5286 65.368H94.8566C95.8646 65.368 96.5366 66.016 96.5366 67.024V67.24C97.3046 66.16 98.4566 65.272 99.5846 65.272H102.201V68.08H99.1766C97.3526 68.08 96.5846 69.208 96.5846 71.272V77.1761H93.6086V68.08H92.5286V65.368Z" fill="#121212"/>
<path d="M106.697 77.1761H103.721V65.44H106.601V67.936C107.297 66.328 108.857 65.2 110.393 65.2C112.265 65.2 113.873 65.848 114.593 67.984C115.433 66.376 117.137 65.2 118.769 65.2C121.841 65.2 123.569 67.24 123.569 70.432V77.1761H120.593V70.984C120.593 69.328 119.945 67.96 118.001 67.96C116.057 67.96 115.145 69.112 115.145 70.984V77.1761H112.169V70.984C112.169 69.328 111.449 67.96 109.577 67.96C107.657 67.96 106.697 69.352 106.697 71.272V77.1761Z" fill="#121212"/>
<path d="M137.617 71.848H128.137C128.329 73.648 129.577 74.896 131.545 74.896C133.201 74.896 134.281 74.176 134.833 73.144L137.425 73.96C136.561 75.928 134.593 77.4401 131.497 77.4401C127.801 77.4401 125.089 74.9441 125.089 71.272C125.089 67.648 127.825 65.2 131.377 65.2C134.929 65.2 137.593 67.552 137.617 71.152C137.617 71.32 137.617 71.68 137.617 71.848ZM128.329 69.904H134.473C134.089 68.56 132.913 67.648 131.377 67.648C129.889 67.648 128.761 68.536 128.329 69.904Z" fill="#121212"/>
<path d="M138.409 65.368H140.737C141.745 65.368 142.417 66.016 142.417 67.024V67.24C143.185 66.16 144.337 65.272 145.465 65.272H148.081V68.08H145.057C143.233 68.08 142.465 69.208 142.465 71.272V77.1761H139.489V68.08H138.409V65.368Z" fill="#121212"/>
<path d="M149.458 60.712H152.434V74.632H154.522V77.344H152.722C150.754 77.32 149.458 76.3121 149.458 74.272V60.712Z" fill="#121212"/>
<path d="M158.359 77.1761L154.831 65.44H157.951L160.879 75.568L164.359 65.44H167.407L161.695 82.48H158.767L160.471 77.1761H158.359Z" fill="#121212"/>
<path d="M182.943 66.856C182.895 65.32 181.575 64.384 179.967 64.36C178.599 64.36 176.943 64.552 176.943 65.992C176.943 67.288 178.623 67.744 180.159 68.056C182.775 68.584 186.399 69.352 186.399 72.976C186.399 76.336 183.207 77.4641 179.895 77.4881C176.511 77.5361 173.367 75.952 173.175 72.568L176.439 72.184C176.631 73.744 177.975 74.8 179.919 74.776C181.215 74.776 183.015 74.488 183.015 73.048C183.015 71.44 180.471 71.152 178.767 70.744C176.319 70.192 173.559 69.256 173.559 66.016C173.559 62.68 177.135 61.6 180.015 61.648C183.135 61.672 186.135 63.232 186.135 66.616L182.943 66.856Z" fill="#121212"/>
<path d="M200.057 71.848H190.577C190.769 73.648 192.017 74.896 193.985 74.896C195.641 74.896 196.721 74.176 197.273 73.144L199.865 73.96C199.001 75.928 197.033 77.4401 193.937 77.4401C190.241 77.4401 187.529 74.9441 187.529 71.272C187.529 67.648 190.265 65.2 193.817 65.2C197.369 65.2 200.033 67.552 200.057 71.152C200.057 71.32 200.057 71.68 200.057 71.848ZM190.769 69.904H196.913C196.529 68.56 195.353 67.648 193.817 67.648C192.329 67.648 191.201 68.536 190.769 69.904Z" fill="#121212"/>
<path d="M201.737 60.712H204.713V74.632H206.801V77.344H205.001C203.033 77.32 201.737 76.3121 201.737 74.272V60.712Z" fill="#121212"/>
<path d="M208.359 60.712H211.335V74.632H213.423V77.344H211.623C209.655 77.32 208.359 76.3121 208.359 74.272V60.712Z" fill="#121212"/>
<path d="M218.1 82.3841H215.124V65.44H218.004V67.864C218.724 66.208 220.62 65.2 222.3 65.2C225.348 65.2 227.844 67.48 227.844 71.272C227.844 74.8 225.564 77.416 222.108 77.416C220.404 77.416 218.916 76.384 218.1 75.04V82.3841ZM221.412 74.848C223.452 74.848 224.748 73.264 224.748 71.368C224.748 69.448 223.452 67.888 221.436 67.888C219.396 67.888 218.076 69.496 218.076 71.368C218.076 73.264 219.372 74.848 221.412 74.848Z" fill="#121212"/>
<path d="M241.452 77.1761H239.508C238.164 77.1761 237.444 76.456 237.444 75.424V74.44C236.964 76.504 235.02 77.416 233.124 77.416C230.988 77.416 228.876 76.384 228.876 73.984C228.876 71.584 231.084 70.624 233.34 70.288L237.444 69.712V69.16C237.444 67.936 236.028 67.672 235.044 67.648C233.652 67.648 232.596 68.008 232.452 69.5201L229.548 69.256C229.572 66.424 232.188 65.2 234.948 65.2C238.476 65.2 240.42 66.544 240.42 69.136V74.632L241.452 74.656V77.1761ZM237.444 71.536L234.084 72.088C233.076 72.256 231.876 72.736 231.972 73.744C232.044 74.68 233.172 74.968 234.156 74.824C235.668 74.728 237.42 73.912 237.444 72.184V71.536Z" fill="#121212"/>
<path d="M245.244 72.904C245.412 74.656 246.78 75.016 248.148 75.016C248.844 75.016 250.572 74.992 250.524 73.936C250.5 72.784 248.052 72.448 246.684 72.112C244.86 71.68 242.724 70.864 242.724 68.704C242.724 65.68 245.964 65.2 248.22 65.2C250.716 65.2 253.452 65.992 253.62 69.304L250.788 69.5201C250.644 67.9601 249.444 67.528 248.172 67.528C247.476 67.528 245.772 67.576 245.82 68.704C245.844 69.376 246.756 69.712 248.196 70.0721C250.236 70.528 253.668 71.152 253.668 73.84C253.668 76.8641 250.476 77.416 248.124 77.416C245.604 77.416 242.604 76.864 242.364 73.216L245.244 72.904Z" fill="#121212"/>
<path d="M257.467 72.904C257.635 74.656 259.003 75.016 260.371 75.016C261.067 75.016 262.795 74.992 262.747 73.936C262.723 72.784 260.275 72.448 258.907 72.112C257.083 71.68 254.947 70.864 254.947 68.704C254.947 65.68 258.187 65.2 260.443 65.2C262.939 65.2 265.675 65.992 265.843 69.304L263.011 69.5201C262.867 67.9601 261.667 67.528 260.395 67.528C259.699 67.528 257.995 67.576 258.043 68.704C258.067 69.376 258.979 69.712 260.419 70.0721C262.459 70.528 265.891 71.152 265.891 73.84C265.891 76.8641 262.699 77.416 260.347 77.416C257.827 77.416 254.827 76.864 254.587 73.216L257.467 72.904Z" fill="#121212"/>
<path d="M270.074 81.2801H267.29C269.162 78.2081 269.93 74.7521 269.93 71.1761C269.93 67.6 269.162 64.144 267.29 61.072H270.074C272.018 63.952 272.738 67.7441 272.738 71.1761C272.738 74.608 271.994 78.4001 270.074 81.2801Z" fill="#121212"/>
<path d="M373.95 46.304H362.91V30.992H366.126V43.52H373.95V46.304Z" fill="#121212"/>
<path d="M386.955 40.976H377.475C377.667 42.776 378.915 44.024 380.883 44.024C382.539 44.024 383.619 43.304 384.171 42.272L386.763 43.088C385.899 45.056 383.931 46.568 380.835 46.568C377.139 46.568 374.427 44.072 374.427 40.4C374.427 36.776 377.163 34.328 380.715 34.328C384.267 34.328 386.931 36.68 386.955 40.28C386.955 40.448 386.955 40.808 386.955 40.976ZM377.667 39.032H383.811C383.427 37.688 382.251 36.776 380.715 36.776C379.227 36.776 378.099 37.664 377.667 39.032Z" fill="#121212"/>
<path d="M387.867 48.92L389.787 46.88C390.363 47.648 391.539 48.92 393.843 48.92C395.643 48.92 397.731 48.344 397.731 45.368V43.376C397.011 45.176 395.379 46.016 393.795 46.016C390.075 46.016 387.867 43.304 387.867 40.232C387.867 37.136 390.099 34.352 393.627 34.352C395.403 34.352 396.651 35.072 397.731 37.04V34.592H400.707V45.584C400.707 50.192 397.395 51.728 393.795 51.728C390.699 51.728 388.707 50.336 387.867 48.92ZM394.347 43.352C396.099 43.352 397.731 42.296 397.731 40.76V39.632C397.731 38.072 396.123 36.968 394.323 36.968C392.379 36.968 390.963 38.264 390.963 40.16C390.963 42.08 392.427 43.352 394.347 43.352Z" fill="#121212"/>
<path d="M414.755 46.304H412.811C411.467 46.304 410.747 45.584 410.747 44.552V43.568C410.267 45.632 408.323 46.544 406.427 46.544C404.291 46.544 402.179 45.512 402.179 43.112C402.179 40.712 404.387 39.752 406.643 39.416L410.747 38.84V38.288C410.747 37.064 409.331 36.8 408.347 36.776C406.955 36.776 405.899 37.136 405.755 38.648L402.851 38.384C402.875 35.552 405.491 34.328 408.251 34.328C411.779 34.328 413.723 35.672 413.723 38.264V43.76L414.755 43.784V46.304ZM410.747 40.664L407.387 41.216C406.379 41.384 405.179 41.864 405.275 42.872C405.347 43.808 406.475 44.096 407.459 43.952C408.971 43.856 410.723 43.04 410.747 41.312V40.664Z" fill="#121212"/>
<path d="M418.809 40.424C418.809 42.416 420.105 43.88 422.217 43.88C423.753 43.88 424.905 43.088 425.409 41.912L427.737 43.088C427.065 45.104 425.121 46.616 422.217 46.616C418.641 46.616 415.785 44.144 415.785 40.448C415.785 36.8 418.665 34.328 422.217 34.328C425.121 34.328 427.065 35.84 427.737 37.856L425.409 39.032C424.905 37.856 423.753 37.064 422.217 37.064C420.153 37.064 418.809 38.456 418.809 40.424Z" fill="#121212"/>
<path d="M431.404 46.304L427.876 34.568H430.996L433.924 44.696L437.404 34.568H440.452L434.74 51.608H431.812L433.516 46.304H431.404Z" fill="#121212"/>
<path d="M449.461 38.6C449.485 41.456 451.429 43.688 454.597 43.688C456.973 43.688 458.629 42.68 459.277 40.76L462.277 41.168C461.725 44.6 458.677 46.544 454.549 46.544C449.581 46.544 446.173 43.352 446.245 38.6C446.293 34.232 449.581 30.752 454.669 30.752C458.725 30.752 461.725 32.696 462.277 36.128L459.277 36.536C458.629 34.616 456.925 33.608 454.453 33.608C451.357 33.608 449.461 35.696 449.461 38.6Z" fill="#121212"/>
<path d="M463.246 40.496C463.246 37.256 465.574 34.328 469.63 34.328C473.71 34.328 476.014 37.28 476.014 40.496C476.014 44.024 473.23 46.544 469.63 46.544C466.054 46.544 463.246 44.024 463.246 40.496ZM469.63 43.808C471.718 43.808 473.014 42.344 473.014 40.448C473.014 38.552 471.718 37.064 469.63 37.064C467.542 37.064 466.246 38.552 466.246 40.448C466.246 42.32 467.566 43.808 469.63 43.808Z" fill="#121212"/>
<path d="M480.762 46.304H477.786V34.568H480.666V37.064C481.362 35.456 482.922 34.328 484.458 34.328C486.33 34.328 487.938 34.976 488.658 37.112C489.498 35.504 491.202 34.328 492.834 34.328C495.906 34.328 497.634 36.368 497.634 39.56V46.304H494.658V40.112C494.658 38.456 494.01 37.088 492.066 37.088C490.122 37.088 489.21 38.24 489.21 40.112V46.304H486.234V40.112C486.234 38.456 485.514 37.088 483.642 37.088C481.722 37.088 480.762 38.48 480.762 40.4V46.304Z" fill="#121212"/>
<path d="M502.899 46.304H499.923V34.568H502.803V37.064C503.499 35.456 505.059 34.328 506.595 34.328C508.467 34.328 510.075 34.976 510.795 37.112C511.635 35.504 513.339 34.328 514.971 34.328C518.043 34.328 519.771 36.368 519.771 39.56V46.304H516.795V40.112C516.795 38.456 516.147 37.088 514.203 37.088C512.259 37.088 511.347 38.24 511.347 40.112V46.304H508.371V40.112C508.371 38.456 507.651 37.088 505.779 37.088C503.859 37.088 502.899 38.48 502.899 40.4V46.304Z" fill="#121212"/>
<path d="M533.819 40.976H524.339C524.531 42.776 525.779 44.024 527.747 44.024C529.403 44.024 530.483 43.304 531.035 42.272L533.627 43.088C532.763 45.056 530.795 46.568 527.699 46.568C524.003 46.568 521.291 44.072 521.291 40.4C521.291 36.776 524.027 34.328 527.579 34.328C531.131 34.328 533.795 36.68 533.819 40.28C533.819 40.448 533.819 40.808 533.819 40.976ZM524.531 39.032H530.675C530.291 37.688 529.115 36.776 527.579 36.776C526.091 36.776 524.963 37.664 524.531 39.032Z" fill="#121212"/>
<path d="M534.611 34.496H536.939C537.947 34.496 538.619 35.144 538.619 36.152V36.368C539.387 35.288 540.539 34.4 541.667 34.4H544.283V37.208H541.259C539.435 37.208 538.667 38.336 538.667 40.4V46.304H535.691V37.208H534.611V34.496Z" fill="#121212"/>
<path d="M547.755 40.424C547.755 42.416 549.051 43.88 551.163 43.88C552.699 43.88 553.851 43.088 554.355 41.912L556.683 43.088C556.011 45.104 554.067 46.616 551.163 46.616C547.587 46.616 544.731 44.144 544.731 40.448C544.731 36.8 547.611 34.328 551.163 34.328C554.067 34.328 556.011 35.84 556.683 37.856L554.355 39.032C553.851 37.856 552.699 37.064 551.163 37.064C549.099 37.064 547.755 38.456 547.755 40.424Z" fill="#121212"/>
<path d="M569.879 40.976H560.399C560.591 42.776 561.839 44.024 563.807 44.024C565.463 44.024 566.543 43.304 567.095 42.272L569.687 43.088C568.823 45.056 566.855 46.568 563.759 46.568C560.063 46.568 557.351 44.072 557.351 40.4C557.351 36.776 560.087 34.328 563.639 34.328C567.191 34.328 569.855 36.68 569.879 40.28C569.879 40.448 569.879 40.808 569.879 40.976ZM560.591 39.032H566.735C566.351 37.688 565.175 36.776 563.639 36.776C562.151 36.776 561.023 37.664 560.591 39.032Z" fill="#121212"/>
</svg>
