<svg xmlns="http://www.w3.org/2000/svg" id="katman_2" viewBox="0 0 250 67.59"><defs><style>.cls-1{fill:#f25476;}</style></defs><g id="katman_1"><path d="M3.56,1.22c2.77.04,5.93.07,9.49.07,2.46,0,4.63.48,6.52,1.45,2.68,1.36,4.67,3.38,5.96,6.06,1.29,2.68,1.68,5.46,1.15,8.34-.53,2.88-1.89,5.3-4.09,7.28-.39.31-.85.65-1.35,1.02-.51.37-.87.64-1.09.79-.22.15-.42.39-.59.73-.18.33-.22.71-.13,1.15.09.44.26.99.53,1.65.44,1.1,1.2,2.99,2.27,5.67,1.08,2.68,1.92,4.72,2.54,6.13.04.18.19.53.43,1.05.24.53.38.87.43,1.02.04.15.14.44.3.86.15.42.22.7.2.86-.02.15-.03.37-.03.66s-.09.47-.26.56c-.18.09-.39.21-.63.36-.24.15-.56.24-.96.26s-.86.03-1.38.03c-1.71-.04-2.87-.26-3.46-.66s-1.15-1.32-1.68-2.77c-.39-1.14-.99-2.72-1.78-4.75-.79-2.02-1.32-3.36-1.58-4.02-.04-.17-.2-.65-.46-1.42-.26-.77-.49-1.38-.69-1.85s-.46-1.01-.79-1.65c-.33-.64-.69-1.13-1.09-1.48-.39-.35-.81-.55-1.25-.59-.57-.09-1.04.01-1.42.3-.37.29-.6.67-.69,1.15s-.15,1-.2,1.55c-.04.55-.04,1.02,0,1.42.04,1.19.08,2.87.1,5.04.02,2.18.03,3.7.03,4.58.04.88.07,1.65.07,2.31s-.1,1.21-.3,1.65c-.2.44-.57.76-1.12.96-.55.2-1.31.27-2.27.23-1.8,0-2.98-.22-3.53-.66-.55-.44-.8-1.45-.76-3.03.09-2.06.13-7.49.13-16.28,0-12.7-.02-19.73-.07-21.09C.02,4.98.02,4.02.07,3.27c.04-.75.32-1.28.82-1.61s1.39-.47,2.67-.43h0ZM19.11,15.13c.04-2.37-.84-4.13-2.64-5.27-.92-.53-2.29-.86-4.09-.99-1.8-.13-3.1.13-3.89.79-.22.22-.39.55-.53.99-.13.44-.21.97-.23,1.58-.02.62-.04,1.14-.07,1.58-.02.44-.02,1.02,0,1.75.02.73.05,1.13.1,1.22,0,.7,0,1.22.03,1.55.02.33.12.68.3,1.05.17.37.44.64.79.79.35.15.83.23,1.45.23,5.32.26,8.24-1.49,8.76-5.27h0Z"></path><path d="M38.09,39.32c-.18.62-.39,1.7-.66,3.26-.26,1.56-.59,2.82-.99,3.79l-.2.26c-.44.35-1.49.55-3.16.59-1.67.04-2.79-.15-3.36-.59-.22-.17-.37-.46-.46-.86-.09-.39-.1-.86-.03-1.38s.14-1,.23-1.42c.09-.42.21-.9.36-1.45.15-.55.25-.91.3-1.09.62-2.9,2.57-12.28,5.87-28.14.13-.75.36-2,.69-3.76.33-1.76.58-3.07.76-3.95.09-.44.19-.82.3-1.15.11-.33.26-.62.46-.86.2-.24.35-.45.46-.63.11-.17.33-.32.66-.43.33-.11.55-.2.66-.26.11-.07.39-.11.86-.13.46-.02.75-.03.86-.03s.45.01,1.02.03c.57.02.92.03,1.05.03.44,0,.99,0,1.65-.03.66-.02,1.14-.03,1.45-.03s.68.03,1.12.1c.44.07.76.18.96.33.2.15.42.39.66.69.24.31.44.7.59,1.19.15.48.3,1.08.43,1.78,1.19,6.11,3.1,15.64,5.73,28.6.04.26.17.89.39,1.88.22.99.44,1.99.66,3,.22,1.01.43,2.05.63,3.13.2,1.08.36,2.01.49,2.8.13.79.17,1.28.13,1.45-.09.53-.67.87-1.75,1.02-1.08.15-2.14.2-3.2.13-1.05-.07-1.76-.19-2.11-.36-.35-.13-.73-1.34-1.12-3.62-.04-.09-.1-.42-.16-.99-.07-.57-.13-1.04-.2-1.42-.07-.37-.19-.75-.36-1.12-.18-.37-.37-.6-.59-.69-.22-.09-.97-.14-2.24-.16-1.28-.02-2.67-.02-4.18,0s-2.43.03-2.73.03c-.13,0-.34,0-.63-.03-.29-.02-.48-.03-.59-.03s-.24.04-.39.13c-.15.09-.25.22-.3.39h0ZM43.76,12.16c-.13.39-.46,1.82-.99,4.28-1.98,9.31-2.94,14.08-2.9,14.3.13.44,1.67.62,4.61.53.44-.04.7-.07.79-.07s.31,0,.66-.03c.35-.02.57-.05.66-.1.09-.04.25-.11.49-.2.24-.09.39-.19.46-.3.07-.11.14-.25.23-.43.09-.17.12-.38.1-.63-.02-.24-.08-.52-.16-.82-.57-2.37-1.19-5.21-1.85-8.5-.97-4.75-1.47-7.23-1.52-7.45-.13-.48-.24-.75-.33-.79-.04-.04-.13.02-.26.2h0Z"></path><path d="M61.23,9.73v-1.78c0-.13-.04-.79-.13-1.98-.09-1.19-.1-2.15-.03-2.9s.23-1.25.49-1.52c.66-.62,2.77-.79,6.33-.53.31,0,.56.04.76.13.2.09.38.24.56.46.17.22.28.39.33.49.04.11.14.37.3.79.15.42.25.69.3.82,1.05,2.72,2.6,6.56,4.65,11.5,2.04,4.94,3.39,8.23,4.05,9.85.26.7.52,1.22.76,1.55s.44.54.59.63c.15.09.33,0,.53-.3.2-.29.36-.57.49-.86.13-.28.33-.76.59-1.42.09-.17.15-.33.2-.46.57-1.49,1.65-4.11,3.23-7.84,1.58-3.73,2.75-6.61,3.49-8.63.09-.13.3-.73.63-1.78.33-1.05.6-1.81.82-2.27.22-.46.57-.98,1.05-1.55.48-.57.99-.92,1.52-1.05.44-.13,1.54-.17,3.3-.13,1.76.04,2.77.15,3.03.33.13.13.23.44.3.92.07.48.09.97.07,1.45-.02.48-.06,1.05-.1,1.71-.04.66-.09,1.05-.13,1.19-.04,1.93-.07,3.99-.07,6.16s0,4.65.03,7.41c.02,2.77.03,4.83.03,6.19,0,8.26.04,13.97.13,17.13v1.28c0,.2-.01.36-.03.49s-.06.29-.1.46c-.04.18-.1.32-.16.43-.07.11-.14.22-.23.33-.09.11-.2.19-.33.23-.57.26-1.32.44-2.24.53s-1.83,0-2.73-.3c-.9-.28-1.51-.76-1.81-1.42-.18-.44-.29-1.13-.33-2.08-.04-.94-.03-2.13.03-3.56.07-1.43.1-2.23.1-2.41v-13.77c.04-1.67-.09-2.48-.39-2.44-.22,0-.77,1.14-1.65,3.43-.7,1.76-1.87,4.58-3.49,8.47-1.63,3.89-2.83,6.89-3.62,9-.31.79-.59,1.42-.86,1.88-.26.46-.48.84-.66,1.12-.18.29-.37.41-.59.36-.22-.04-.39-.11-.53-.2-.13-.09-.32-.37-.56-.86-.24-.48-.43-.9-.56-1.25s-.35-.92-.66-1.71c-.04-.09-.09-.17-.13-.26-.53-1.45-2-5.1-4.42-10.94s-3.73-8.87-3.95-9.09c-.39-.48-.55.7-.46,3.56.04,1.89.05,4.99.03,9.29-.02,4.31-.01,7.4.03,9.29.04,1.58-.09,2.58-.39,3-.31.42-1.23.67-2.77.76-1.19.13-2.13.1-2.83-.1-.7-.2-1.18-.52-1.42-.96-.24-.44-.39-1-.46-1.68-.07-.68-.06-1.46.03-2.34.04-.79.07-1.38.07-1.78.13-7.47.13-17.64,0-30.51h0Z"></path><path d="M126.69,1.22c2.77.04,5.93.07,9.49.07,2.46,0,4.63.48,6.52,1.45,2.68,1.36,4.67,3.38,5.96,6.06,1.29,2.68,1.68,5.46,1.15,8.34-.53,2.88-1.89,5.3-4.09,7.28-.39.31-.85.65-1.35,1.02-.51.37-.87.64-1.09.79-.22.15-.42.39-.59.73-.18.33-.22.71-.13,1.15.09.44.26.99.53,1.65.44,1.1,1.2,2.99,2.27,5.67,1.08,2.68,1.92,4.72,2.54,6.13.04.18.19.53.43,1.05s.38.87.43,1.02c.04.15.14.44.3.86.15.42.22.7.2.86-.02.15-.03.37-.03.66s-.09.47-.26.56c-.18.09-.39.21-.63.36-.24.15-.56.24-.96.26-.39.02-.86.03-1.38.03-1.71-.04-2.87-.26-3.46-.66-.59-.39-1.15-1.32-1.68-2.77-.39-1.14-.99-2.72-1.78-4.75-.79-2.02-1.32-3.36-1.58-4.02-.04-.17-.2-.65-.46-1.42-.26-.77-.49-1.38-.69-1.85-.2-.46-.46-1.01-.79-1.65-.33-.64-.69-1.13-1.09-1.48-.39-.35-.81-.55-1.25-.59-.57-.09-1.04.01-1.42.3s-.6.67-.69,1.15-.15,1-.2,1.55c-.04.55-.04,1.02,0,1.42.04,1.19.08,2.87.1,5.04.02,2.18.03,3.7.03,4.58.04.88.07,1.65.07,2.31s-.1,1.21-.3,1.65-.57.76-1.12.96c-.55.2-1.31.27-2.27.23-1.8,0-2.98-.22-3.53-.66-.55-.44-.8-1.45-.76-3.03.09-2.06.13-7.49.13-16.28,0-12.7-.02-19.73-.07-21.09-.04-1.19-.04-2.15,0-2.9.04-.75.32-1.28.82-1.61s1.39-.47,2.67-.43h0ZM142.24,15.13c.04-2.37-.84-4.13-2.64-5.27-.92-.53-2.29-.86-4.09-.99-1.8-.13-3.1.13-3.89.79-.22.22-.39.55-.53.99-.13.44-.21.97-.23,1.58-.02.62-.04,1.14-.07,1.58-.02.44-.02,1.02,0,1.75.02.73.05,1.13.1,1.22,0,.7,0,1.22.03,1.55.02.33.12.68.3,1.05.17.37.44.64.79.79.35.15.83.23,1.45.23,5.32.26,8.24-1.49,8.76-5.27h0Z"></path><path d="M179.28,14.87v18.98c0,3.69-1.31,6.84-3.92,9.46-2.61,2.61-5.77,3.92-9.46,3.92s-6.84-1.31-9.46-3.92c-2.61-2.61-3.92-5.77-3.92-9.46V14.87c0-3.69,1.31-6.84,3.92-9.46,2.61-2.61,5.77-3.92,9.46-3.92s6.84,1.31,9.46,3.92c2.61,2.61,3.92,5.77,3.92,9.46ZM171.5,33.85V14.87c0-1.58-.55-2.91-1.65-3.99-1.1-1.08-2.42-1.61-3.95-1.61s-2.86.54-3.95,1.61c-1.1,1.08-1.65,2.41-1.65,3.99v18.98c0,1.54.55,2.86,1.65,3.95,1.1,1.1,2.42,1.65,3.95,1.65s2.86-.55,3.95-1.65c1.1-1.1,1.65-2.42,1.65-3.95h0Z"></path><path d="M207.81,39.65l.26.26c.53.53.8,1.63.82,3.3.02,1.67-.23,2.77-.76,3.3-.26.26-.71.45-1.35.56-.64.11-1.23.16-1.78.16s-1.24-.02-2.08-.07c-.84-.04-1.34-.07-1.52-.07-6.55-.09-11.33-.07-14.37.07-1.36.09-2.44.09-3.23,0s-1.34-.42-1.65-.99c-.31-.57-.44-1.58-.39-3.03.09-2.64.13-6.26.13-10.87,0-15.99-.04-24.98-.13-26.95,0-.7,0-1.3.03-1.78.02-.48.11-.88.26-1.19.15-.31.43-.56.82-.76.39-.2.97-.34,1.71-.43,2.11-.22,3.5-.02,4.18.59s1,1.93.96,3.95c-.13,3.43-.16,8.45-.1,15.06.07,6.61.05,11.63-.03,15.06-.04.66-.06,1.21-.03,1.65s.11.8.26,1.09c.15.29.43.49.82.63.39.13.94.2,1.65.2.44,0,3.32-.02,8.63-.07.13,0,.81-.03,2.04-.1,1.23-.07,2.23-.07,3,0s1.37.21,1.81.43h0Z"></path><path d="M237.47,39.65l.26.26c.53.53.8,1.63.82,3.3.02,1.67-.23,2.77-.76,3.3-.26.26-.71.45-1.35.56-.64.11-1.23.16-1.78.16s-1.24-.02-2.08-.07c-.84-.04-1.34-.07-1.52-.07-6.55-.09-11.33-.07-14.37.07-1.36.09-2.44.09-3.23,0s-1.34-.42-1.65-.99c-.31-.57-.44-1.58-.39-3.03.09-2.64.13-6.26.13-10.87,0-15.99-.04-24.98-.13-26.95,0-.7,0-1.3.03-1.78.02-.48.11-.88.26-1.19.15-.31.43-.56.82-.76.39-.2.97-.34,1.71-.43,2.11-.22,3.5-.02,4.18.59s1,1.93.96,3.95c-.13,3.43-.16,8.45-.1,15.06.07,6.61.05,11.63-.03,15.06-.04.66-.06,1.21-.03,1.65s.11.8.26,1.09c.15.29.43.49.82.63.39.13.94.2,1.65.2.44,0,3.32-.02,8.63-.07.13,0,.81-.03,2.04-.1,1.23-.07,2.23-.07,3,0s1.37.21,1.81.43h0Z"></path><path d="M118.96,18.23c-.28-.23-.54-.45-.75-.64.1-.22.22-.44.33-.67.82-1.62,1.84-3.64.56-5.32l-.08-.08c-.51-.47-1.03-.71-1.54-.71-1.46,0-2.18,1.8-2.7,3.2-.57-.68-1.12-1.41-1.69-2.17-.17-.23-.34-.45-.52-.68,2.16-1.36,3.56-3.53,3.63-5.68.06-1.89-.93-3.55-2.77-4.67h-.01c-.93-.53-2.04-.81-3.2-.81-1.89,0-3.72.74-4.89,1.96-.97,1.02-1.45,2.3-1.39,3.72.03,1.83.78,3.07,1.77,4.52-1.72,1.03-2.97,2.26-3.71,3.66-.75,1.41-.94,2.95-.56,4.46.81,3.22,4.11,5.65,7.67,5.65,2.18,0,4.28-.86,6.1-2.49,1.38,1.31,2.72,2.4,3.92,2.4h0c1.34,0,1.89-1.28,2.11-2.35v-.08c.1-1.25-1.17-2.3-2.3-3.23h0ZM106.4,17.31c-.35-1.37.32-2.69,1.85-3.67.07.09.14.19.21.28,1.27,1.68,2.15,2.84,3.55,4.31-.85.88-1.79,1.34-2.74,1.34-1.33,0-2.54-.95-2.87-2.26ZM108.84,4.75c.17-.45.65-.72,1.44-.8h.01c.4,0,.77.16,1.05.44.28.29.43.67.43,1.08-.06,1.05-.57,1.43-1.59,2.17-.09.07-.2.14-.3.22-.78-.99-1.34-2.3-1.04-3.1h0Z"></path><path class="cls-1" d="M243.03,46.01c-.81-.81-1.21-1.77-1.21-2.88s.4-2.07,1.21-2.88c.81-.81,1.77-1.21,2.88-1.21s2.07.4,2.88,1.21c.81.81,1.21,1.77,1.21,2.88s-.4,2.07-1.21,2.88c-.81.81-1.77,1.21-2.88,1.21s-2.07-.4-2.88-1.21Z"></path><path d="M56.56,57.62c.59,0,1.26.01,2.01.01.52,0,.98.1,1.38.31.57.29.99.72,1.26,1.28s.36,1.16.24,1.76-.4,1.12-.87,1.54c-.08.07-.18.14-.29.22-.11.08-.18.14-.23.17s-.09.08-.13.15-.05.15-.03.24c.02.09.06.21.11.35.09.23.25.63.48,1.2s.41,1,.54,1.3c0,.04.04.11.09.22.05.11.08.18.09.22,0,.03.03.09.06.18.03.09.05.15.04.18,0,.03,0,.08,0,.14s-.02.1-.06.12-.08.04-.13.08c-.05.03-.12.05-.2.06s-.18,0-.29,0c-.36,0-.61-.06-.73-.14s-.24-.28-.36-.59c-.08-.24-.21-.58-.38-1s-.28-.71-.33-.85c0-.04-.04-.14-.1-.3-.06-.16-.1-.29-.15-.39s-.1-.21-.17-.35-.15-.24-.23-.31-.17-.12-.27-.13c-.12-.02-.22,0-.3.06-.08.06-.13.14-.15.24-.02.1-.03.21-.04.33,0,.12,0,.22,0,.3,0,.25.02.61.02,1.07s0,.78,0,.97c0,.19.01.35.01.49s-.02.26-.06.35c-.04.09-.12.16-.24.2-.12.04-.28.06-.48.05-.38,0-.63-.05-.75-.14-.12-.09-.17-.31-.16-.64.02-.44.03-1.59.03-3.45,0-2.69,0-4.18-.01-4.46,0-.25,0-.46,0-.61s.07-.27.17-.34.3-.1.57-.09h0ZM59.86,60.57c0-.5-.18-.87-.56-1.12-.2-.11-.48-.18-.87-.21s-.66.03-.82.17c-.05.05-.08.12-.11.21-.03.09-.04.21-.05.33s0,.24-.01.33c0,.09,0,.22,0,.37s.01.24.02.26c0,.15,0,.26,0,.33s.03.15.06.22c.04.08.09.14.17.17s.18.05.31.05c1.13.06,1.74-.32,1.86-1.12h0Z"></path><path d="M64.99,65.69c-.04.13-.08.36-.14.69-.06.33-.13.6-.21.8l-.04.06c-.09.07-.32.12-.67.13s-.59-.03-.71-.13c-.05-.04-.08-.1-.1-.18-.02-.08-.02-.18,0-.29.01-.11.03-.21.05-.3s.04-.19.08-.31c.03-.12.05-.19.06-.23.13-.61.54-2.6,1.24-5.96.03-.16.08-.42.15-.8s.12-.65.16-.84c.02-.09.04-.17.06-.24s.06-.13.1-.18c.04-.05.07-.09.1-.13.02-.04.07-.07.14-.09.07-.02.12-.04.14-.06s.08-.02.18-.03c.1,0,.16,0,.18,0s.09,0,.22,0,.2,0,.22,0c.09,0,.21,0,.35,0s.24,0,.31,0,.14,0,.24.02.16.04.2.07c.04.03.09.08.14.15s.09.15.13.25c.03.1.06.23.09.38.25,1.29.66,3.31,1.21,6.06,0,.06.04.19.08.4.05.21.09.42.14.63s.09.44.13.66c.04.23.08.43.1.59s.04.27.03.31c-.02.11-.14.18-.37.22-.23.03-.45.04-.68.03-.22-.01-.37-.04-.45-.08-.07-.03-.15-.28-.24-.77,0-.02-.02-.09-.03-.21s-.03-.22-.04-.3c-.01-.08-.04-.16-.08-.24s-.08-.13-.13-.15c-.05-.02-.21-.03-.47-.03s-.57,0-.89,0c-.32,0-.51,0-.58,0-.03,0-.07,0-.13,0-.06,0-.1,0-.13,0s-.05,0-.08.03-.05.05-.06.08h0ZM66.19,59.94c-.03.08-.1.39-.21.91-.42,1.97-.62,2.98-.61,3.03.03.09.35.13.98.11.09,0,.15-.01.17-.01s.07,0,.14,0,.12-.01.14-.02.05-.02.1-.04c.05-.02.08-.04.1-.06s.03-.05.05-.09c.02-.04.03-.08.02-.13,0-.05-.02-.11-.03-.17-.12-.5-.25-1.1-.39-1.8-.21-1-.31-1.53-.32-1.58-.03-.1-.05-.16-.07-.17,0,0-.03,0-.06.04h0Z"></path><path d="M71,59.42v-.38s0-.17-.03-.42-.02-.46,0-.61.05-.27.1-.32c.14-.13.59-.17,1.34-.11.07,0,.12,0,.16.03.04.02.08.05.12.1.04.05.06.08.07.1s.03.08.06.17c.03.09.05.15.06.17.22.58.55,1.39.98,2.43s.72,1.74.86,2.09c.06.15.11.26.16.33s.09.11.13.13c.03.02.07,0,.11-.06.04-.06.08-.12.1-.18s.07-.16.13-.3c.02-.04.03-.07.04-.1.12-.32.35-.87.68-1.66.33-.79.58-1.4.74-1.83.02-.03.06-.15.13-.38s.13-.38.17-.48.12-.21.22-.33.21-.2.32-.22c.09-.03.33-.04.7-.03.37,0,.59.03.64.07.03.03.05.09.06.2.01.1.02.21.01.31s-.01.22-.02.36-.02.22-.03.25c0,.41-.01.84-.01,1.3s0,.98,0,1.57c0,.59,0,1.02,0,1.31,0,1.75,0,2.96.03,3.63v.27s0,.08,0,.1c0,.03-.01.06-.02.1,0,.04-.02.07-.03.09-.01.02-.03.05-.05.07s-.04.04-.07.05c-.12.06-.28.09-.47.11-.2.02-.39,0-.58-.06-.19-.06-.32-.16-.38-.3-.04-.09-.06-.24-.07-.44,0-.2,0-.45,0-.75.01-.3.02-.47.02-.51v-2.92c0-.35-.02-.53-.08-.52-.05,0-.16.24-.35.73-.15.37-.39.97-.74,1.79s-.6,1.46-.77,1.9c-.07.17-.13.3-.18.4-.06.1-.1.18-.14.24-.04.06-.08.09-.13.08s-.08-.02-.11-.04c-.03-.02-.07-.08-.12-.18-.05-.1-.09-.19-.12-.27-.03-.07-.07-.2-.14-.36,0-.02-.02-.04-.03-.06-.11-.31-.42-1.08-.93-2.32s-.79-1.88-.84-1.93c-.08-.1-.12.15-.1.75,0,.4.01,1.06,0,1.97s0,1.57,0,1.97c0,.33-.02.55-.08.63-.07.09-.26.14-.59.16-.25.03-.45.02-.6-.02s-.25-.11-.3-.2-.08-.21-.1-.36-.01-.31,0-.5c0-.17.01-.29.01-.38.03-1.58.03-3.73,0-6.46h0Z"></path><path d="M80.76,63.18v-2.79c.05-.8.34-1.45.89-1.96.55-.51,1.22-.76,2.02-.76.97,0,1.63,0,2-.01.34,0,.56.03.65.12s.14.31.15.66c0,.16,0,.29,0,.4-.01.11-.05.19-.1.26s-.09.12-.13.15-.11.06-.21.08c-.1.01-.18.02-.24.02s-.17,0-.32-.01-.27-.01-.36-.01c-1.09-.02-1.72,0-1.88.06-.34.11-.58.34-.71.68s-.17.7-.13,1.1c.02.12.05.22.1.3s.11.14.17.17c.06.04.15.07.26.08.11.02.2.03.28.02s.19-.01.32-.02.23-.01.3-.01c.04,0,.11,0,.23-.01s.22-.01.31-.01.19,0,.29,0c.11,0,.2.02.28.05s.14.06.19.1c.08.09.14.24.17.45s.02.42-.05.63-.17.34-.32.4c-.22.07-.49.09-.81.06-.32-.04-.65-.05-.99-.04s-.56.07-.64.18c-.12.19-.16.47-.1.86s.14.68.27.87c.07.09.14.17.24.24s.18.12.25.15c.07.04.18.06.33.08.14.01.25.02.31.03.06,0,.18,0,.35,0,.17,0,.28,0,.31,0,.02,0,.18,0,.49-.01s.56-.01.77,0,.34.02.42.05c.18.08.3.25.36.54.04.21.04.42,0,.63-.04.18-.12.31-.21.37-.06.04-.16.06-.3.08-.14.01-.28.02-.41.02s-.29,0-.47,0-.3,0-.34,0h-.5c-.28,0-.45,0-.52,0-.07,0-.21-.01-.43-.03s-.38-.04-.47-.08c-.09-.04-.23-.09-.4-.15s-.32-.15-.45-.24-.26-.22-.39-.36c-.16-.16-.29-.33-.4-.52-.11-.19-.19-.35-.24-.48s-.09-.33-.12-.58c-.03-.25-.04-.42-.05-.52,0-.09,0-.3,0-.62,0-.32,0-.52,0-.59h0Z"></path><path d="M88.19,61.33c0-.17,0-.45,0-.84,0-.39,0-.73,0-1.03s0-.57-.03-.83c0-.05-.02-.12-.03-.23s-.01-.18-.01-.22v-.17c0-.08,0-.13.03-.16.02-.03.04-.06.07-.11.03-.05.07-.08.11-.1s.1-.04.17-.06.15-.03.24-.04c.12-.02.23-.03.33-.02.1,0,.19,0,.27.01.08,0,.15.02.21.04.06.02.11.05.16.07s.09.06.13.11.07.09.1.13c.02.04.05.09.09.17s.07.14.08.2.05.13.08.23c.04.1.07.19.08.27.17.45.43,1.09.79,1.92.36.83.59,1.38.69,1.64.19.47.3.72.35.73s.07-.09.08-.29c0-.07.01-.14.01-.22,0-1.79,0-2.98-.01-3.57,0-.08,0-.2-.01-.36,0-.15-.01-.26-.01-.33s0-.15.03-.25c.02-.1.05-.18.1-.23s.12-.1.22-.14.22-.07.37-.09c.41-.04.68.02.8.16s.18.42.17.83c0,.51-.01,1.97-.01,4.38v3.33c0,.21.02.38.02.53,0,.15-.04.27-.13.36s-.24.15-.47.18c-.4.05-.7,0-.91-.13s-.39-.39-.54-.77c-.19-.47-.46-1.15-.82-2.03-.36-.88-.62-1.51-.78-1.9-.18-.43-.28-.65-.32-.67-.04-.02-.07.05-.08.21v2.34c0,.94,0,1.57.01,1.88,0,.21.02.39.02.54s-.04.26-.13.36-.25.15-.47.18c-.42.05-.7.01-.86-.1-.15-.11-.23-.37-.22-.77,0-.68.01-2.39.01-5.13h0Z"></path><path d="M102.31,66.45s0,.11,0,.23c0,.12,0,.22,0,.29s0,.16-.01.25-.03.17-.05.22c-.06.08-.16.13-.3.14-.14.01-.25.01-.34,0h-.46c-.07,0-.14-.01-.21-.03-.08-.02-.13-.05-.15-.09-.03-.04-.06-.11-.06-.21,0-.09,0-.3,0-.63,0-2.87,0-5.65,0-8.36-.02-.36-.02-.6-.01-.71,0-.11.03-.19.07-.23.03-.03.08-.06.15-.09.08-.02.15-.03.21-.04.07,0,.15,0,.27,0,.11,0,.17,0,.19,0h.33c.09,0,.16.01.22.04.06.03.1.08.12.15.02.08.03.19.03.34,0,.41-.01,1.58-.01,3.49v5.22h0Z"></path><path d="M109.29,63.37v-4.51c0-.07-.02-.17-.02-.3,0-.13,0-.22,0-.27s0-.13.01-.22c0-.09.03-.15.06-.2s.07-.09.12-.14.12-.09.21-.11c.09-.02.19-.04.31-.05.38-.04.64,0,.77.1s.2.33.2.7c0,.19,0,.51,0,.97,0,.46-.01.81-.02,1.05v.39c0,.07,0,.15,0,.25,0,.1,0,.17.01.2,0,.03.02.08.05.15.03.07.05.1.06.12.01.01.05.04.1.07s.1.05.14.05.1,0,.2.02.18.02.24.01c.06,0,.17,0,.31,0h.32c.22,0,.38,0,.47,0,.09,0,.19-.03.28-.09s.15-.14.17-.27.03-.29.02-.52c0-.24-.01-.59-.01-1.05v-.98c0-.06,0-.16-.01-.29,0-.13-.01-.21-.01-.27s0-.12.01-.2c0-.08.03-.14.06-.18s.07-.08.12-.13.12-.08.21-.1.19-.03.3-.04c.41-.04.68.02.81.17s.19.42.18.82c0,.61-.01,1.64-.01,3.08v4.42c0,.07,0,.17.01.33,0,.15.01.26.01.31s-.01.14-.03.24-.06.17-.1.21-.12.08-.22.12-.22.07-.36.08c-.33.03-.58,0-.74-.09s-.24-.29-.24-.61c0-.09,0-.41.01-.95,0-.54.01-.98.01-1.31s0-.6-.03-.8c-.03-.08-.07-.15-.13-.21s-.15-.09-.26-.11c-.11-.02-.2-.03-.27-.03-.07,0-.17,0-.33,0s-.23,0-.24,0h-.27c-.08,0-.16,0-.24,0s-.14.01-.2.02-.11.02-.16.04c-.05.02-.09.05-.13.08-.04.04-.07.08-.1.14s-.05.13-.06.21-.01.18-.01.28c0,.26.02.64.02,1.13s0,.86,0,1.1c0,.22,0,.41,0,.57,0,.16-.04.28-.15.38s-.28.15-.53.15c-.37,0-.63-.04-.78-.14-.15-.1-.22-.33-.21-.67,0-.77.01-1.83.01-3.18h0Z"></path><path d="M118.47,65.69c-.04.13-.08.36-.14.69-.06.33-.13.6-.21.8l-.04.06c-.09.07-.32.12-.67.13-.35,0-.59-.03-.71-.13-.05-.04-.08-.1-.1-.18-.02-.08-.02-.18,0-.29.01-.11.03-.21.05-.3s.04-.19.08-.31c.03-.12.05-.19.06-.23.13-.61.54-2.6,1.24-5.96.03-.16.08-.42.15-.8s.12-.65.16-.84c.02-.09.04-.17.06-.24s.06-.13.1-.18.07-.09.1-.13c.02-.04.07-.07.14-.09.07-.02.12-.04.14-.06s.08-.02.18-.03.16,0,.18,0,.09,0,.22,0,.2,0,.22,0c.09,0,.21,0,.35,0s.24,0,.31,0,.14,0,.24.02.16.04.2.07.09.08.14.15.09.15.13.25c.03.1.06.23.09.38.25,1.29.66,3.31,1.21,6.06,0,.06.04.19.08.4.05.21.09.42.14.63s.09.44.13.66.08.43.1.59.04.27.03.31c-.02.11-.14.18-.37.22-.23.03-.45.04-.68.03-.22-.01-.37-.04-.45-.08-.07-.03-.15-.28-.24-.77,0-.02-.02-.09-.03-.21s-.03-.22-.04-.3-.04-.16-.08-.24c-.04-.08-.08-.13-.13-.15-.05-.02-.21-.03-.47-.03-.27,0-.57,0-.89,0s-.51,0-.58,0c-.03,0-.07,0-.13,0s-.1,0-.13,0-.05,0-.08.03-.05.05-.06.08h0ZM119.67,59.94c-.03.08-.1.39-.21.91-.42,1.97-.62,2.98-.61,3.03.03.09.35.13.98.11.09,0,.15-.01.17-.01s.07,0,.14,0,.12-.01.14-.02.05-.02.1-.04c.05-.02.08-.04.1-.06.01-.02.03-.05.05-.09.02-.04.03-.08.02-.13,0-.05-.02-.11-.03-.17-.12-.5-.25-1.1-.39-1.8-.21-1-.31-1.53-.32-1.58-.03-.1-.05-.16-.07-.17,0,0-.03,0-.06.04Z"></path><path d="M124.49,61.33c0-.17,0-.45,0-.84,0-.39,0-.73,0-1.03s0-.57-.03-.83c0-.05-.02-.12-.03-.23s-.01-.18-.01-.22v-.17c0-.08,0-.13.03-.16.02-.03.04-.06.07-.11.03-.05.06-.08.11-.1.05-.02.1-.04.17-.06s.15-.03.24-.04c.12-.02.23-.03.33-.02.1,0,.19,0,.27.01.08,0,.15.02.21.04.06.02.11.05.16.07s.09.06.13.11.07.09.1.13c.02.04.05.09.09.17s.06.14.08.2c.02.05.05.13.08.23.04.1.07.19.08.27.17.45.43,1.09.79,1.92.36.83.59,1.38.69,1.64.19.47.3.72.35.73s.07-.09.08-.29c0-.07.01-.14.01-.22,0-1.79,0-2.98-.01-3.57,0-.08,0-.2-.01-.36,0-.15-.01-.26-.01-.33s0-.15.03-.25c.02-.1.05-.18.1-.23s.12-.1.22-.14.22-.07.37-.09c.41-.04.68.02.8.16s.18.42.17.83c0,.51-.01,1.97-.01,4.38v3.33c0,.21.02.38.02.53,0,.15-.04.27-.13.36s-.24.15-.47.18c-.4.05-.7,0-.91-.13s-.39-.39-.54-.77c-.19-.47-.46-1.15-.82-2.03-.36-.88-.62-1.51-.78-1.9-.18-.43-.28-.65-.32-.67-.04-.02-.07.05-.08.21v2.34c0,.94,0,1.57.01,1.88,0,.21.02.39.02.54s-.04.26-.13.36-.25.15-.47.18c-.42.05-.7.01-.86-.1-.15-.11-.23-.37-.22-.77,0-.68.01-2.39.01-5.13h0Z"></path><path d="M132.6,57.64c.78.02,1.48.03,2.09.03.78,0,1.45.28,2,.83s.83,1.22.83,2v4.02c0,.78-.28,1.45-.83,2-.55.55-1.22.83-2,.83h-1.56c-.31,0-.56.01-.75,0s-.34-.07-.43-.21-.13-.37-.12-.72c.02-.7.03-1.66.03-2.87,0-2.79,0-4.38-.01-4.77,0-.24-.01-.45,0-.62s.06-.3.18-.39c.12-.09.31-.13.58-.13h0ZM135.88,60.5c0-.15-.02-.27-.06-.38-.17-.51-.57-.79-1.21-.82-.28-.02-.51-.02-.68,0s-.29.08-.36.21-.1.34-.09.63c.02.55.03,1.73.03,3.56,0,.02,0,.19-.01.52,0,.33,0,.6,0,.82s.03.37.06.43c.06.16.23.25.5.27s.48,0,.64-.03c.35-.02.64-.14.85-.35s.33-.49.33-.84v-4.02Z"></path><path d="M139.94,57.62c.59,0,1.26.01,2.01.01.52,0,.98.1,1.38.31.57.29.99.72,1.26,1.28.27.57.36,1.16.24,1.76s-.4,1.12-.87,1.54c-.08.07-.18.14-.29.22-.11.08-.18.14-.23.17-.05.03-.09.08-.13.15s-.05.15-.03.24.06.21.11.35c.09.23.25.63.48,1.2s.41,1,.54,1.3c0,.04.04.11.09.22.05.11.08.18.09.22,0,.03.03.09.06.18.03.09.05.15.04.18,0,.03,0,.08,0,.14s-.02.1-.06.12-.08.04-.13.08c-.05.03-.12.05-.2.06s-.18,0-.29,0c-.36,0-.61-.06-.73-.14s-.24-.28-.36-.59c-.08-.24-.21-.58-.38-1s-.28-.71-.33-.85c0-.04-.04-.14-.1-.3-.06-.16-.1-.29-.15-.39-.04-.1-.1-.21-.17-.35s-.15-.24-.23-.31c-.08-.07-.17-.12-.27-.13-.12-.02-.22,0-.3.06-.08.06-.13.14-.15.24s-.03.21-.04.33c0,.12,0,.22,0,.3,0,.25.02.61.02,1.07s0,.78,0,.97c0,.19.01.35.01.49s-.02.26-.06.35-.12.16-.24.2c-.12.04-.28.06-.48.05-.38,0-.63-.05-.75-.14-.12-.09-.17-.31-.16-.64.02-.44.03-1.59.03-3.45,0-2.69,0-4.18-.01-4.46,0-.25,0-.46,0-.61s.07-.27.17-.34.3-.1.57-.09h0ZM143.23,60.57c0-.5-.18-.87-.56-1.12-.2-.11-.48-.18-.87-.21-.38-.03-.66.03-.82.17-.05.05-.08.12-.11.21s-.04.21-.05.33c0,.13,0,.24-.01.33,0,.09,0,.22,0,.37s.01.24.02.26c0,.15,0,.26,0,.33,0,.07.03.15.06.22.04.08.09.14.17.17s.18.05.31.05c1.13.06,1.74-.32,1.86-1.12h0Z"></path><path d="M152.19,60.51v4.02c0,.78-.28,1.45-.83,2s-1.22.83-2,.83-1.45-.28-2-.83-.83-1.22-.83-2v-4.02c0-.78.28-1.45.83-2,.55-.55,1.22-.83,2-.83s1.45.28,2,.83.83,1.22.83,2ZM150.54,64.53v-4.02c0-.33-.12-.62-.35-.84-.23-.23-.51-.34-.84-.34s-.6.11-.84.34-.35.51-.35.84v4.02c0,.33.12.6.35.84s.51.35.84.35.6-.12.84-.35.35-.51.35-.84Z"></path><path d="M159.35,65.76l.06.06c.11.11.17.34.17.7,0,.35-.05.59-.16.7-.06.06-.15.09-.29.12-.14.02-.26.03-.38.03s-.26,0-.44-.01-.28-.01-.32-.01c-1.39-.02-2.4-.01-3.04.01-.29.02-.52.02-.68,0s-.28-.09-.35-.21-.09-.33-.08-.64c.02-.56.03-1.33.03-2.3,0-3.39,0-5.29-.03-5.71,0-.15,0-.27,0-.38,0-.1.02-.19.06-.25.03-.06.09-.12.17-.16s.2-.07.36-.09c.45-.05.74,0,.89.13s.21.41.2.84c-.03.73-.03,1.79-.02,3.19s.01,2.46,0,3.19c0,.14-.01.26,0,.35,0,.09.02.17.06.23s.09.1.17.13.2.04.35.04c.09,0,.7,0,1.83-.01.03,0,.17,0,.43-.02s.47-.01.63,0,.29.04.38.09h0Z"></path><path d="M166.74,65.76l.06.06c.11.11.17.34.17.7,0,.35-.05.59-.16.7-.06.06-.15.09-.29.12-.14.02-.26.03-.38.03s-.26,0-.44-.01-.28-.01-.32-.01c-1.39-.02-2.4-.01-3.04.01-.29.02-.52.02-.68,0s-.28-.09-.35-.21-.09-.33-.08-.64c.02-.56.03-1.33.03-2.3,0-3.39,0-5.29-.03-5.71,0-.15,0-.27,0-.38,0-.1.02-.19.06-.25.03-.06.09-.12.17-.16s.21-.07.36-.09c.45-.05.74,0,.89.13s.21.41.2.84c-.03.73-.03,1.79-.02,3.19s.01,2.46,0,3.19c0,.14-.01.26,0,.35,0,.09.02.17.06.23s.09.1.17.13.2.04.35.04c.09,0,.7,0,1.83-.01.03,0,.17,0,.43-.02s.47-.01.63,0,.29.04.38.09h0Z"></path><path d="M176.18,57.66c.78,0,1.45.28,2,.83s.83,1.22.83,2-.28,1.45-.84,2.01c.56.55.84,1.22.84,2.01s-.28,1.45-.83,2-1.22.83-2,.83c-.73,0-1.36,0-1.9.01-.35,0-.6-.03-.74-.13-.14-.09-.21-.24-.22-.44,0-.2,0-.45,0-.76.02-.27.03-1.54.03-3.82,0-1.59,0-2.77-.03-3.53,0-.19,0-.34,0-.47.01-.13.05-.23.1-.3s.09-.13.13-.17c.04-.04.11-.07.22-.08.11-.01.2-.02.27-.02s.19,0,.36.01.31.01.41.01h1.34ZM176.2,63.33h-.1c-.15-.02-.27-.03-.38-.03s-.2,0-.29.02-.16.03-.2.06c-.05.02-.09.05-.13.09-.04.04-.07.08-.08.14s-.03.12-.04.19c-.01.07-.02.15-.01.24s0,.2,0,.32v.31c0,.38.03.64.08.77s.17.22.35.26c.18.04.45.04.8,0,.36-.02.65-.15.87-.39.21-.24.32-.51.33-.8s-.1-.55-.31-.8-.51-.37-.89-.39h0ZM176.1,59.3c-.15,0-.27-.01-.38-.01s-.2,0-.28.02-.15.03-.2.03-.09.04-.13.1c-.04.06-.07.1-.08.13s-.03.09-.04.19c0,.09-.01.17-.01.24v.54c0,.21,0,.38,0,.49s.02.22.05.33c.03.11.06.18.1.22s.12.07.22.1.22.04.33.04.29,0,.51-.03c.37-.03.67-.16.88-.41.21-.25.32-.51.31-.8s-.11-.55-.33-.79c-.21-.24-.5-.37-.87-.39h-.1Z"></path><path d="M182.52,65.69c-.04.13-.08.36-.14.69-.06.33-.13.6-.21.8l-.04.06c-.09.07-.32.12-.67.13s-.59-.03-.71-.13c-.05-.04-.08-.1-.1-.18-.02-.08-.02-.18,0-.29.01-.11.03-.21.05-.3s.04-.19.08-.31c.03-.12.05-.19.06-.23.13-.61.54-2.6,1.24-5.96.03-.16.08-.42.15-.8s.12-.65.16-.84c.02-.09.04-.17.06-.24.02-.07.06-.13.1-.18.04-.05.07-.09.1-.13.02-.04.07-.07.14-.09.07-.02.12-.04.14-.06s.08-.02.18-.03c.1,0,.16,0,.18,0s.09,0,.22,0,.2,0,.22,0c.09,0,.21,0,.35,0s.24,0,.31,0,.14,0,.24.02c.09.01.16.04.2.07.04.03.09.08.14.15s.09.15.13.25c.03.1.06.23.09.38.25,1.29.66,3.31,1.21,6.06,0,.06.04.19.08.4s.09.42.14.63.09.44.13.66c.04.23.08.43.1.59s.04.27.03.31c-.02.11-.14.18-.37.22-.23.03-.45.04-.68.03-.22-.01-.37-.04-.45-.08-.07-.03-.15-.28-.24-.77,0-.02-.02-.09-.03-.21s-.03-.22-.04-.3c-.01-.08-.04-.16-.08-.24s-.08-.13-.13-.15c-.05-.02-.21-.03-.47-.03s-.57,0-.89,0c-.32,0-.51,0-.58,0-.03,0-.07,0-.13,0-.06,0-.1,0-.13,0s-.05,0-.08.03-.05.05-.06.08h0ZM183.72,59.94c-.03.08-.1.39-.21.91-.42,1.97-.62,2.98-.61,3.03.03.09.35.13.98.11.09,0,.15-.01.17-.01s.07,0,.14,0,.12-.01.14-.02.05-.02.1-.04c.05-.02.08-.04.1-.06s.03-.05.05-.09c.02-.04.03-.08.02-.13,0-.05-.02-.11-.03-.17-.12-.5-.25-1.1-.39-1.8-.21-1-.31-1.53-.32-1.58-.03-.1-.05-.16-.07-.17,0,0-.03,0-.06.04h0Z"></path><path d="M189.24,57.62c.59,0,1.26.01,2.01.01.52,0,.98.1,1.38.31.57.29.99.72,1.26,1.28.27.57.36,1.16.24,1.76s-.4,1.12-.87,1.54c-.08.07-.18.14-.29.22-.11.08-.18.14-.23.17-.05.03-.09.08-.13.15s-.05.15-.03.24.06.21.11.35c.09.23.25.63.48,1.2s.41,1,.54,1.3c0,.04.04.11.09.22.05.11.08.18.09.22,0,.03.03.09.06.18.03.09.05.15.04.18,0,.03,0,.08,0,.14s-.02.1-.06.12-.08.04-.13.08c-.05.03-.12.05-.2.06s-.18,0-.29,0c-.36,0-.61-.06-.73-.14s-.24-.28-.36-.59c-.08-.24-.21-.58-.38-1s-.28-.71-.33-.85c0-.04-.04-.14-.1-.3-.06-.16-.1-.29-.15-.39s-.1-.21-.17-.35-.15-.24-.23-.31-.17-.12-.27-.13c-.12-.02-.22,0-.3.06-.08.06-.13.14-.15.24s-.03.21-.04.33c0,.12,0,.22,0,.3,0,.25.02.61.02,1.07s0,.78,0,.97c0,.19.01.35.01.49s-.02.26-.06.35c-.04.09-.12.16-.24.2-.12.04-.28.06-.48.05-.38,0-.63-.05-.75-.14s-.17-.31-.16-.64c.02-.44.03-1.59.03-3.45,0-2.69,0-4.18-.01-4.46,0-.25,0-.46,0-.61s.07-.27.17-.34.3-.1.57-.09h0ZM192.54,60.57c0-.5-.18-.87-.56-1.12-.2-.11-.48-.18-.87-.21s-.66.03-.82.17c-.05.05-.08.12-.11.21-.03.09-.04.21-.05.33s0,.24-.01.33c0,.09,0,.22,0,.37s.01.24.02.26c0,.15,0,.26,0,.33s.03.15.06.22c.04.08.09.14.17.17.07.03.18.05.31.05,1.13.06,1.74-.32,1.86-1.12h0Z"></path></g></svg>