<?xml version="1.0" encoding="UTF-8"?>
<svg xmlns="http://www.w3.org/2000/svg" viewBox="0 0 319.59 158.94">
  <defs>
    <style>
      .cls-1 {
        isolation: isolate;
      }

      .cls-2 {
        mix-blend-mode: multiply;
      }

      .cls-3 {
        fill: #2c2c2a;
      }

      .cls-4 {
        fill: #fff;
      }

      .cls-5 {
        fill: none;
        stroke: #fff;
        stroke-linecap: round;
        stroke-linejoin: round;
      }

      .cls-6 {
        fill: #2d2c2a;
        stroke: #2d2c2a;
        stroke-miterlimit: 10;
        stroke-width: .56px;
      }

      .cls-7 {
        fill: #faf2e6;
      }
    </style>
  </defs>
  <g class="cls-1">
    <g id="Layer_2" data-name="Layer 2">
      <g id="Layer_1-2" data-name="Layer 1">
        <g>
          <g class="cls-2">
            <path class="cls-3" d="M65.47,21.15c-.07.06-.14.12-.21.18-3.19,2.81-6.39,5.62-9.59,8.43-.58.51-1.2,1.04-1.95,1.23-2.14.55-3.88-1.69-5.33-3.4-2.86-3.39-6.97-5.68-11.32-6.31-2.3-.33-4.72-.19-6.8.8-2.08,1-3.78,2.95-4.1,5.26-.41,2.94,1.36,5.75,3.24,8.08,6.41,7.96,14.84,13.91,22.48,20.61,7.61,6.67,14.75,14.61,17.26,24.41,2.8,10.94-.96,23.17-9.01,30.97-8.08,7.83-20.09,11.15-31.21,9.14-11.16-2.02-21.21-9.18-27.35-18.82-1.14-1.8-2.17-4.11-1.15-5.97.51-.93,1.44-1.54,2.34-2.1,2.83-1.8,5.66-3.59,8.48-5.39,1.11-.7,2.29-1.43,3.6-1.45,2.24-.03,3.93,1.95,5.4,3.66,2.84,3.31,6.16,6.31,10.12,8.07,3.96,1.76,8.64,2.16,12.57.39,3.92-1.77,6.84-5.95,6.5-10.27-.27-3.37-2.34-6.32-4.54-8.89-5.48-6.39-12.2-11.57-18.67-17.01-6.48-5.45-12.84-11.3-17.22-18.59-4.38-7.3-6.58-16.3-4.17-24.37C9.72,3.51,29.81-3.04,45.02,1.31c8.4,2.4,15.9,7.97,20.69,15.33.59.9,1.16,1.98.86,3-.18.61-.63,1.08-1.1,1.51Z"/>
            <path class="cls-3" d="M266.16,118h-16.11c-1.19-.01-2.15-1.02-2.15-2.26V9.43c0-1.24.95-2.22,2.13-2.2,3.26.04,22.92-1.03,35.97,2.27,16.46,3.2,24.19,15.24,23.19,34.16-.78,14.6-11.77,25.83-26.6,27.1-.39.03-.79.03-1.18.05q-14.46.81-14.47,16.42c-.01,9.6-.06,19.19-.13,28.79,0,.57-.36,1.13-.64,1.98ZM267.22,48.85c0,1.28,1.01,2.31,2.23,2.27,4.85-.17,9.31-.12,13.63-.87,4.8-.82,7.24-4.59,7.43-9.74.19-5.34-1.8-9.73-6.92-10.95-4.5-1.08-9.18-1.31-14.05-1.77-1.24-.12-2.31.88-2.31,2.19v18.87Z"/>
            <path class="cls-3" d="M115.38,97.82l24.33.11c1.68,0,3.05,1.41,3.05,3.14v13.56c0,1.73-1.36,3.12-3.05,3.12l-44.69-.03c-1.71,0-3.1-1.41-3.1-3.16V7.41c0-1.74,1.39-3.13,3.1-3.09l14.2.31c1.7.04,3.08,1.47,3.08,3.21v86.82c0,1.74,1.38,3.15,3.08,3.16Z"/>
            <path class="cls-3" d="M181.94,80c-.18.94-.18,1.92-.18,2.88.01,10.91.02,21.83.03,32.74,0,.48,0,.99-.26,1.39-.44.71-1.39.78-2.21.78-5.17,0-10.35,0-15.54,0-.53,0-1.1-.01-1.53-.33-.65-.48-.71-1.43-.71-2.25-.02-35.38-.04-70.77-.06-106.15,0-3.47.77-4.33,3.99-4.39,11.28-.22,35.57-3.12,50.29,8.62,4.29,3.42,6.85,9.71,8,14.94,1.64,7.48,2.38,16.33-.45,23.48-2.68,6.77-8.32,11.94-14.71,15.03-1.15.56-2.49,1.25-2.71,2.56-.14.85.26,1.69.65,2.45,7.32,14.39,14.62,28.73,21.9,43.04.46.9.89,2.07.27,2.85-.45.56-1.25.61-1.95.63-3.58.06-7.17.12-10.77.18-1.77.03-3.6.05-5.26-.61-3.12-1.24-4.95-4.56-6.52-7.63-5.19-10.16-10.38-20.33-15.59-30.53-.69-1.36-1.59-2.87-3.05-3.12-1.36-.23-2.68.82-3.26,2.11-.19.42-.32.87-.4,1.32ZM181.99,48.02c0,1,.82,1.78,1.78,1.76,7.75-.16,15.83,2.36,20.46-5.57,1.73-2.96,1.33-9.23-.63-12.24-4.86-7.46-12.58-5.23-19.93-5.41-.94-.02-1.69.77-1.69,1.75v19.72Z"/>
          </g>
          <g>
            <path class="cls-6" d="M7.51,139.28c1.98,0,3.55.45,4.7,1.34,1.15.9,1.72,2.27,1.72,4.14,0,2.48-1.21,4.15-3.63,5.03l4.48,8.4h-3.92l-4.24-8.01h-.34v8.01h-3.61v-18.91h4.85ZM6.27,146.68h1.66c1.65,0,2.48-.65,2.48-1.95s-.86-1.92-2.58-1.92h-1.55v3.87Z"/>
            <path class="cls-6" d="M25.95,139.28h3.63l7.3,18.91h-3.74l-1.45-3.9h-7.85l-1.45,3.9h-3.74l7.3-18.91ZM25.19,150.76h5.19l-2.61-6.95-2.58,6.95Z"/>
            <path class="cls-6" d="M40.7,158.19l3.27-18.91h3.53l4.37,13.22c.04-.12.07-.25.12-.37s.08-.25.12-.37l4.19-12.48h3.48l3.19,18.91h-3.48l-2.03-11.98c-.05.16-.11.31-.16.46-.05.15-.11.3-.16.46l-3.71,11.06h-3.16l-3.98-11.98c-.04.16-.06.31-.08.46-.02.15-.04.3-.08.46l-1.92,11.06h-3.5Z"/>
            <path class="cls-6" d="M68.96,158.19v-18.91h10.32v3.5h-6.72v3.45h6.72v3.42h-6.72v5h6.72v3.53h-10.32Z"/>
            <path class="cls-6" d="M85.74,158.19v-18.91h3.45l8.11,12.41v-12.41h3.61v18.91h-3.48l-8.09-12.38v12.38h-3.61Z"/>
            <path class="cls-6" d="M121.27,148.57c-.54-.75-.98-1.49-1.3-2.2-.33-.71-.49-1.43-.49-2.17,0-.51.11-1.01.32-1.5.21-.49.52-.93.92-1.33.4-.4.89-.71,1.46-.95.57-.24,1.21-.36,1.91-.36s1.37.12,1.94.37,1.05.56,1.45.95c.39.39.7.82.91,1.3.21.48.32.97.32,1.46,0,.83-.29,1.67-.87,2.53-.58.86-1.28,1.67-2.11,2.42.46.56.91,1.12,1.37,1.66.46.54.96,1.12,1.53,1.74.32-.25.64-.51.97-.79.33-.28.7-.6,1.11-.95l2.13,2.45c-.44.42-.8.76-1.08,1.01-.28.25-.56.5-.84.75l3.03,3.21h-4.37l-1.24-1.32c-.88.54-1.77.97-2.67,1.29-.91.32-1.86.47-2.86.47-.7,0-1.35-.11-1.95-.32s-1.12-.51-1.55-.91c-.44-.39-.78-.87-1.01-1.42-.24-.55-.36-1.17-.36-1.86,0-.63.07-1.2.22-1.7.15-.5.37-.97.66-1.4.29-.43.64-.84,1.05-1.24.41-.4.88-.8,1.41-1.22ZM123.11,155.42c.42,0,.89-.1,1.41-.3.52-.2,1.01-.44,1.49-.72-.3-.33-.56-.62-.79-.87-.23-.25-.44-.49-.63-.72-.19-.24-.39-.48-.61-.74-.21-.25-.46-.56-.74-.91-.58.49-1.05.95-1.42,1.38-.37.43-.55.89-.55,1.38,0,.33.16.67.47,1,.32.33.77.5,1.37.5ZM122.93,144.47c0,.25.08.55.24.91.16.36.39.77.68,1.22.4-.35.74-.71,1.01-1.08.27-.37.41-.73.41-1.08,0-.32-.11-.59-.32-.82-.21-.23-.49-.34-.84-.34s-.64.1-.86.29-.33.49-.33.9Z"/>
            <path class="cls-6" d="M154.8,139.28c1.98,0,3.55.45,4.7,1.34,1.15.9,1.72,2.27,1.72,4.14,0,2.48-1.21,4.15-3.63,5.03l4.48,8.4h-3.92l-4.24-8.01h-.34v8.01h-3.61v-18.91h4.85ZM153.56,146.68h1.66c1.65,0,2.48-.65,2.48-1.95s-.86-1.92-2.58-1.92h-1.55v3.87Z"/>
            <path class="cls-6" d="M167.18,148.71c0-1.4.26-2.71.79-3.91.53-1.2,1.24-2.25,2.13-3.13s1.94-1.58,3.13-2.09c1.19-.51,2.46-.76,3.79-.76s2.54.25,3.73.75c1.19.5,2.23,1.19,3.13,2.08.9.89,1.62,1.94,2.16,3.16.54,1.22.8,2.55.8,3.99s-.25,2.68-.76,3.89c-.51,1.2-1.2,2.24-2.08,3.12s-1.91,1.57-3.11,2.08c-1.19.51-2.47.76-3.82.76s-2.71-.26-3.91-.78c-1.2-.52-2.25-1.22-3.13-2.12s-1.58-1.95-2.09-3.16c-.51-1.21-.76-2.5-.76-3.87ZM170.81,148.78c0,.97.17,1.84.5,2.62.33.78.79,1.45,1.36,2.01.57.56,1.23,1,1.99,1.3.75.31,1.55.46,2.4.46s1.66-.17,2.41-.5c.75-.33,1.4-.79,1.95-1.37.55-.58.99-1.26,1.32-2.04s.49-1.62.49-2.52-.15-1.71-.46-2.49c-.31-.78-.74-1.47-1.29-2.07-.55-.6-1.21-1.07-1.97-1.42-.76-.35-1.59-.53-2.49-.53-.84,0-1.64.16-2.4.47s-1.41.76-1.97,1.33c-.56.57-1.01,1.26-1.33,2.05-.33.8-.49,1.69-.49,2.67Z"/>
            <path class="cls-6" d="M196.94,139.28v15.49h5.24v3.42h-8.85v-18.91h3.61Z"/>
            <path class="cls-6" d="M211.64,139.28v15.49h5.24v3.42h-8.85v-18.91h3.61Z"/>
            <path class="cls-6" d="M224.38,152.74c.44.83.91,1.44,1.42,1.86.51.41,1.08.62,1.71.62s1.13-.17,1.55-.51c.42-.34.63-.76.63-1.25,0-.26-.04-.5-.11-.7-.07-.2-.18-.4-.34-.61-.16-.2-.36-.41-.59-.63-.24-.22-.51-.46-.83-.72-.88-.74-1.66-1.41-2.36-2.01s-1.28-1.19-1.75-1.75c-.47-.56-.84-1.12-1.09-1.67-.25-.55-.38-1.15-.38-1.78,0-.67.14-1.29.41-1.87s.65-1.08,1.12-1.51c.47-.43,1.03-.77,1.66-1.01.63-.25,1.3-.37,2-.37,1.19,0,2.22.29,3.07.86.85.57,1.65,1.29,2.41,2.17l-2.61,2.21c-.49-.56-.97-1-1.45-1.32-.47-.32-.97-.47-1.47-.47-.47,0-.86.12-1.16.37-.3.25-.45.56-.45.95,0,.21.05.41.15.61.1.19.26.42.5.67.24.25.55.54.95.87.4.33.89.72,1.49,1.2.65.53,1.24,1.02,1.78,1.49.54.47,1,.94,1.38,1.44.39.49.69,1.01.9,1.57.21.55.32,1.18.32,1.88,0,.79-.14,1.51-.42,2.17-.28.66-.68,1.23-1.19,1.7-.51.47-1.12.84-1.83,1.11-.71.26-1.5.39-2.36.39-1.39,0-2.57-.34-3.56-1.01s-1.83-1.71-2.53-3.09l3.03-1.82Z"/>
            <path class="cls-6" d="M250.01,139.28h3.69c.96,0,1.87.09,2.7.26.83.18,1.55.46,2.16.84.61.39,1.08.89,1.42,1.51.34.62.51,1.38.51,2.25,0,.76-.17,1.42-.5,2-.33.58-.83,1.12-1.48,1.63,1.11.53,1.94,1.18,2.49,1.96s.83,1.75.83,2.91c0,.84-.15,1.61-.46,2.29-.31.68-.73,1.26-1.28,1.74-.54.47-1.2.84-1.96,1.11-.76.26-1.59.4-2.49.4h-5.64v-18.91ZM253.62,142.7v3.98h.79c.84,0,1.48-.18,1.91-.53.43-.35.65-.86.65-1.53,0-.61-.2-1.09-.61-1.42-.4-.33-1.01-.5-1.82-.5h-.92ZM253.62,149.89v4.87h1.21c1.14,0,2.01-.17,2.59-.51.59-.34.88-.92.88-1.73s-.32-1.49-.95-1.95c-.63-.46-1.58-.68-2.84-.68h-.9Z"/>
            <path class="cls-6" d="M273.53,139.28h3.63l7.3,18.91h-3.74l-1.45-3.9h-7.85l-1.45,3.9h-3.74l7.3-18.91ZM272.77,150.76h5.19l-2.61-6.95-2.58,6.95Z"/>
            <path class="cls-6" d="M294.58,139.28c1.98,0,3.55.45,4.7,1.34,1.15.9,1.72,2.27,1.72,4.14,0,2.48-1.21,4.15-3.63,5.03l4.48,8.4h-3.92l-4.24-8.01h-.34v8.01h-3.61v-18.91h4.85ZM293.34,146.68h1.66c1.65,0,2.48-.65,2.48-1.95s-.86-1.92-2.58-1.92h-1.55v3.87Z"/>
          </g>
          <g>
            <polygon class="cls-3" points="302.68 103.43 302.79 103.45 302.9 103.5 302.94 103.5 302.93 103.52 303.02 103.43 303.11 103.34 303.11 103.34 303.12 103.34 303.11 103.34 303.14 103.38 303.19 103.37 303.22 103.31 303.22 103.3 303.21 103.24 303.18 103.21 303.13 103.2 303.07 103.19 303 103.2 302.93 103.22 302.9 103.23 302.86 103.24 302.7 103.32 302.7 103.4 302.68 103.43"/>
            <path class="cls-3" d="M298.59,96.68h-.75v1.04h.75c.41,0,.66-.18.66-.55,0-.33-.22-.49-.66-.49Z"/>
            <path class="cls-3" d="M298.97,95.01c0-.3-.19-.43-.55-.43h-.59v.89h.58c.36,0,.55-.15.55-.46Z"/>
            <path class="cls-3" d="M300.98,81.82c-9.97.14-18.3,9.12-18.09,19.52.21,10.4,8.98,19.32,18.75,19.06,9.9-.25,18.14-9.3,17.95-19.69-.19-10.46-8.63-19.05-18.61-18.9Z"/>
            <line class="cls-5" x1="312.56" y1="103.12" x2="312.53" y2="103.11"/>
            <polygon class="cls-4" points="312.16 102.54 312.11 102.59 312.18 102.56 312.16 102.54"/>
            <line class="cls-5" x1="311.69" y1="105.74" x2="311.66" y2="105.74"/>
            <line class="cls-5" x1="308.09" y1="108.89" x2="308.11" y2="108.89"/>
            <line class="cls-5" x1="305.48" y1="108.15" x2="305.49" y2="108.11"/>
            <polygon class="cls-4" points="303.11 103.34 303.11 103.34 303.12 103.34 303.11 103.34"/>
            <line class="cls-5" x1="302.29" y1="103.46" x2="302.27" y2="103.48"/>
            <line class="cls-5" x1="301.67" y1="103.98" x2="301.67" y2="104.01"/>
            <line class="cls-5" x1="301.29" y1="104.53" x2="301.3" y2="104.53"/>
            <line class="cls-5" x1="299.72" y1="104.09" x2="299.72" y2="104.08"/>
            <line class="cls-5" x1="299.59" y1="104.99" x2="299.59" y2="105.01"/>
            <line class="cls-5" x1="297.62" y1="109.33" x2="297.59" y2="109.34"/>
            <line class="cls-5" x1="296.02" y1="106.09" x2="296.03" y2="106.05"/>
            <line class="cls-5" x1="290.9" y1="103.28" x2="290.92" y2="103.28"/>
            <line class="cls-5" x1="290.41" y1="105.46" x2="290.38" y2="105.48"/>
            <g>
              <path class="cls-7" d="M295.5,89.6h1.35v2.67c.49-.49,1.05-.73,1.69-.73.34,0,.67.07.98.21.31.14.58.33.81.58s.41.55.55.9c.13.35.2.73.2,1.15s-.07.79-.21,1.14-.33.65-.56.9c-.24.25-.51.44-.82.58-.31.14-.64.21-.98.21s-.65-.06-.91-.18-.51-.3-.75-.53v.57h-1.35v-7.46ZM298.26,95.96c.21,0,.4-.04.58-.12.18-.08.33-.19.46-.33.13-.14.23-.31.3-.51.07-.2.11-.41.11-.64s-.03-.43-.1-.62-.17-.36-.29-.5c-.13-.14-.28-.25-.46-.34-.18-.08-.38-.13-.6-.13s-.41.04-.59.12c-.18.08-.33.19-.47.32s-.24.3-.31.5-.11.41-.11.64.04.46.12.66c.08.2.18.37.31.51.13.14.29.25.47.32.18.08.37.12.58.12Z"/>
              <path class="cls-7" d="M303.51,91.67l1.45,3.42,1.5-3.42h1.39l-3.38,7.35h-1.39l1.21-2.45-2.15-4.89h1.38Z"/>
              <path class="cls-7" d="M290.48,107.75l1.28-.64c.11.3.27.55.48.73.21.18.48.27.83.27.17,0,.32-.03.45-.09.13-.06.25-.13.34-.23.09-.1.17-.21.22-.34.05-.13.08-.26.08-.41,0-.33-.14-.61-.43-.85-.28-.23-.7-.35-1.25-.35v-1.19c.84-.07,1.26-.37,1.26-.9,0-.2-.07-.36-.2-.49-.14-.13-.32-.2-.55-.2-.2,0-.38.06-.55.19s-.3.3-.42.53l-1.25-.6c.2-.44.49-.79.86-1.05.37-.26.84-.4,1.4-.4.32,0,.62.05.87.15.26.1.48.24.66.42s.32.38.42.61c.1.23.15.48.15.73,0,.33-.08.63-.25.89-.17.26-.43.47-.77.64.45.13.79.37,1.03.69.24.33.37.71.37,1.16,0,.33-.05.64-.16.92-.1.28-.26.53-.48.74-.21.21-.48.38-.79.5s-.68.18-1.1.18c-.31,0-.6-.04-.87-.12-.27-.08-.5-.19-.71-.34s-.39-.32-.55-.52c-.16-.2-.28-.42-.39-.66Z"/>
              <path class="cls-7" d="M297.25,109.21v-7.27h3.61v1.36h-2.26v1.3h2.26v1.36h-2.26v3.26h-1.35Z"/>
              <path class="cls-7" d="M302.31,102.43c0-.24.08-.43.25-.59.17-.16.37-.23.61-.23s.45.09.61.26c.17.18.25.38.25.63s-.08.44-.25.61c-.17.17-.37.25-.61.25-.25,0-.46-.09-.62-.28-.16-.19-.24-.4-.24-.65ZM302.5,109.21v-5.38h1.35v5.38h-1.35Z"/>
              <path class="cls-7" d="M306.98,101.76v7.46h-1.35v-7.46h1.35Z"/>
              <path class="cls-7" d="M308.33,108.43l.83-.91c.16.18.34.33.55.45.21.12.4.18.58.18s.31-.04.42-.13c.12-.08.17-.19.17-.31s-.05-.23-.16-.32c-.11-.09-.31-.21-.6-.36-.29-.15-.54-.29-.73-.42-.2-.13-.36-.27-.49-.41-.13-.14-.22-.29-.28-.45s-.09-.33-.09-.52c0-.21.04-.41.13-.6.08-.19.2-.35.35-.5.15-.14.34-.25.55-.33s.45-.12.71-.12c.35,0,.68.08.99.23.31.15.57.37.79.66l-.83.84c-.16-.16-.31-.28-.46-.37-.15-.09-.31-.13-.47-.13-.14,0-.25.03-.34.08-.09.05-.14.14-.14.24,0,.1.04.18.13.24.09.06.21.13.35.2.33.16.61.31.85.46s.43.29.58.44c.15.15.26.31.33.49.07.17.11.37.11.59,0,.24-.05.47-.14.67-.09.2-.22.38-.39.53-.17.15-.37.27-.61.36-.24.08-.5.13-.8.13-.78,0-1.41-.31-1.88-.92Z"/>
            </g>
          </g>
        </g>
      </g>
    </g>
  </g>
</svg>