<svg width="1558" height="654" viewBox="0 0 1558 654" fill="none" xmlns="http://www.w3.org/2000/svg">
<g filter="url(#filter0_d_2595_26)">
<path d="M87.7019 369.697C87.7019 369.697 104.334 418.56 182.112 467.046C182.112 467.046 159.478 494.91 147.868 505.322C87.7019 482.82 62.0209 461.472 24.3293 398.852C24.125 396.568 87.7019 369.697 87.7019 369.697Z" fill="#FF4700"/>
<path d="M89.9262 246.349C89.9262 246.349 61.2859 315.259 87.9934 370.15C87.9934 370.15 25.8259 400.542 24.3231 398.851C21.436 395.597 -5.99838 314.188 6.94014 250.674C23.7442 249.286 89.9262 246.349 89.9262 246.349Z" fill="#FF4700"/>
<path d="M158.11 165.602C158.11 165.602 114.141 183.298 87.8916 251.404C87.8916 251.404 15.4988 250.637 6.71948 251.404C6.71948 251.404 17.2818 183.095 70.0943 121.285L158.11 165.602Z" fill="#FF4700"/>
<path d="M268.991 138.717C268.991 138.717 216.792 132.942 155.766 166.763C155.766 166.763 99.8354 138.324 68.9202 122.446C68.9202 122.446 129.946 30.3131 268.991 4.85925V70.5711V107.078V138.717Z" fill="#FF4700"/>
<path d="M284.238 0L464.694 46.3072L284.238 143.657V0Z" fill="#FF4700"/>
</g>
<path d="M382.399 489.463C382.399 476.538 377.794 466.576 368.583 459.578C359.506 452.575 343.05 445.508 319.204 438.372C295.364 431.24 276.397 423.296 262.312 414.547C235.355 397.72 221.872 375.775 221.872 348.719C221.872 325.023 231.559 305.505 250.933 290.159C270.436 274.812 295.701 267.139 326.723 267.139C347.313 267.139 365.67 270.908 381.789 278.447C397.912 285.986 410.577 296.755 419.788 310.756C428.998 324.619 433.608 340.035 433.608 356.995H382.399C382.399 341.652 377.525 329.669 367.769 321.053C358.151 312.304 344.335 307.93 326.316 307.93C309.522 307.93 296.446 311.496 287.101 318.632C277.89 325.768 273.285 335.725 273.285 348.517C273.285 359.283 278.297 368.303 288.322 375.572C298.346 382.708 314.872 389.711 337.899 396.576C360.93 403.308 379.421 411.046 393.371 419.794C407.326 428.41 417.554 438.372 424.055 449.68C430.557 460.855 433.807 473.978 433.807 489.059C433.807 513.559 424.328 533.079 405.361 547.617C386.533 562.023 360.93 569.223 328.554 569.223C307.15 569.223 287.438 565.317 269.424 557.51C251.543 549.57 237.588 538.666 227.564 524.799C217.673 510.931 212.73 494.78 212.73 476.336H264.139C264.139 493.029 269.692 505.95 280.803 515.108C291.91 524.261 307.825 528.838 328.554 528.838C346.434 528.838 359.844 525.267 368.786 518.136C377.863 510.867 382.399 501.309 382.399 489.463ZM666.675 458.162C666.675 491.949 658.953 518.945 643.509 539.135C628.065 559.192 607.341 569.223 581.332 569.223C557.218 569.223 537.914 561.347 523.418 545.596V649.185H474.044V346.698H519.557L521.591 368.91C536.087 351.412 555.794 342.659 580.722 342.659C607.545 342.659 628.542 352.621 643.713 372.544C659.022 392.335 666.675 419.863 666.675 455.134V458.162ZM617.5 453.921C617.5 432.114 613.098 414.813 604.294 402.026C595.624 389.238 583.158 382.842 566.905 382.842C546.718 382.842 532.226 391.122 523.418 407.682V504.604C532.36 521.568 546.99 530.051 567.312 530.051C583.024 530.051 595.282 523.788 604.091 511.271C613.029 498.617 617.5 479.502 617.5 453.921ZM902.585 530.051C914.912 530.051 925.14 526.481 933.269 519.345C941.398 512.213 945.73 503.395 946.276 492.896H992.806C992.265 506.492 987.997 519.211 980.002 531.057C972.012 542.77 961.174 552.061 947.492 558.926C933.81 565.791 919.046 569.223 903.195 569.223C872.447 569.223 848.06 559.33 830.046 539.539C812.026 519.749 803.019 492.423 803.019 457.556V452.511C803.019 419.257 811.962 392.67 829.842 372.747C847.723 352.689 872.104 342.659 902.992 342.659C929.135 342.659 950.405 350.268 966.797 365.477C983.323 380.553 991.992 400.413 992.806 425.046H946.276C945.73 412.525 941.398 402.228 933.269 394.15C925.279 386.077 915.051 382.038 902.585 382.038C886.6 382.038 874.273 387.823 865.603 399.402C856.933 410.843 852.532 428.277 852.397 451.702V459.578C852.397 483.269 856.665 500.969 865.196 512.682C873.866 524.261 886.332 530.051 902.585 530.051ZM1107 494.913L1151.71 346.698H1204.33L1116.96 598.3C1103.55 635.051 1080.79 653.426 1048.69 653.426C1041.5 653.426 1033.58 652.213 1024.91 649.791V611.828L1034.26 612.434C1046.72 612.434 1056.07 610.146 1062.3 605.569C1068.67 601.126 1073.68 593.59 1077.34 582.953L1084.45 564.173L1007.23 346.698H1060.47L1107 494.913ZM1253.1 565.184V383.044H1219.57V346.698H1253.1V326.709C1253.1 302.476 1259.88 283.764 1273.42 270.572C1286.97 257.379 1305.93 250.783 1330.32 250.783C1338.99 250.783 1348.2 251.994 1357.95 254.418L1356.73 292.784C1351.31 291.707 1345.02 291.168 1337.83 291.168C1314.26 291.168 1302.48 303.217 1302.48 327.311V346.698H1347.18V383.044H1302.48V565.184H1253.1ZM1460.16 494.913L1504.86 346.698H1557.49L1470.12 598.3C1456.71 635.051 1433.95 653.426 1401.84 653.426C1394.66 653.426 1386.74 652.213 1378.07 649.791V611.828L1387.42 612.434C1399.88 612.434 1409.23 610.146 1415.46 605.569C1421.82 601.126 1426.84 593.59 1430.49 582.953L1437.6 564.173L1360.39 346.698H1413.63L1460.16 494.913Z" fill="#FF4700"/>
<path d="M791.649 297.439C796.86 311.109 787.478 334.691 755.615 356.526C756.452 356.862 757.289 357.192 758.079 357.555C777.157 366.052 769.805 383.43 761.26 403.464C751.486 426.54 738.104 458.084 747.745 499.15C753.969 525.663 763.674 543.468 775.724 550.664C783.469 555.291 790.409 554.436 793.896 553.49C797.623 552.539 801.405 554.243 803.157 557.497C803.407 557.965 803.61 558.452 803.768 558.967C805.081 563.171 802.741 567.693 798.529 568.956C768.83 578.188 747.056 566.572 726.85 529.049C722.993 521.89 719.202 513.743 715.383 504.65C692.975 450.856 709.908 374.92 713.514 360.239C714.25 357.28 716.016 354.798 718.494 353.19C722.684 350.562 730.091 348.683 742.968 352.097C781.457 328.492 783.982 306.919 781.749 301.112C781.106 299.361 780.107 298.395 778.415 297.915C773.153 296.453 763.165 300.292 757.543 304.695C755.282 306.484 751.939 306.039 750.168 303.749C748.327 301.437 748.725 298.183 751.028 296.369C757.511 291.337 770.864 284.885 781.199 287.789C786.155 289.233 789.725 292.543 791.649 297.439Z" fill="#FF4700"/>
<path d="M408.474 152.219H419.057V193.409C419.057 198.094 418.041 202.017 416.009 205.178C413.977 208.339 411.211 210.723 407.712 212.332C404.24 213.912 400.36 214.703 396.07 214.703C391.639 214.703 387.688 213.912 384.217 212.332C380.746 210.723 378.008 208.339 376.004 205.178C374.029 202.017 373.041 198.094 373.041 193.409V152.219H383.624V193.409C383.624 196.373 384.132 198.814 385.148 200.733C386.164 202.624 387.604 204.021 389.466 204.924C391.329 205.827 393.53 206.278 396.07 206.278C398.61 206.278 400.797 205.827 402.632 204.924C404.494 204.021 405.934 202.624 406.95 200.733C407.966 198.814 408.474 196.373 408.474 193.409V152.219Z" fill="#FF4700"/>
<path d="M439.715 177.831V213.856H429.513V168.052H439.123L439.715 177.831ZM437.895 189.261L434.593 189.218C434.621 185.973 435.073 182.995 435.948 180.286C436.851 177.577 438.092 175.249 439.673 173.301C441.282 171.354 443.201 169.858 445.43 168.814C447.66 167.741 450.143 167.205 452.881 167.205C455.082 167.205 457.072 167.516 458.85 168.137C460.656 168.729 462.194 169.703 463.464 171.058C464.762 172.412 465.75 174.176 466.427 176.349C467.105 178.494 467.443 181.133 467.443 184.265V213.856H457.199V184.223C457.199 182.022 456.874 180.286 456.225 179.016C455.604 177.718 454.687 176.801 453.473 176.265C452.288 175.7 450.806 175.418 449.028 175.418C447.279 175.418 445.712 175.785 444.329 176.519C442.947 177.252 441.775 178.254 440.816 179.524C439.885 180.794 439.165 182.262 438.657 183.927C438.149 185.592 437.895 187.37 437.895 189.261Z" fill="#FF4700"/>
<path d="M488.779 148.833V213.856H478.534V148.833H488.779Z" fill="#FF4700"/>
<path d="M520.148 214.703C516.761 214.703 513.699 214.152 510.961 213.052C508.252 211.923 505.938 210.357 504.019 208.353C502.128 206.349 500.674 203.993 499.658 201.283C498.643 198.574 498.135 195.653 498.135 192.52V190.827C498.135 187.243 498.657 183.997 499.701 181.09C500.745 178.184 502.198 175.7 504.061 173.64C505.924 171.551 508.125 169.957 510.665 168.856C513.205 167.756 515.957 167.205 518.92 167.205C522.194 167.205 525.058 167.756 527.513 168.856C529.969 169.957 532.001 171.509 533.609 173.513C535.246 175.488 536.46 177.845 537.25 180.582C538.068 183.32 538.478 186.34 538.478 189.642V194.002H503.087V186.678H528.402V185.874C528.346 184.04 527.979 182.318 527.302 180.709C526.653 179.101 525.651 177.803 524.296 176.815C522.942 175.827 521.135 175.333 518.878 175.333C517.184 175.333 515.674 175.7 514.348 176.434C513.05 177.139 511.963 178.169 511.088 179.524C510.213 180.879 509.536 182.516 509.056 184.435C508.605 186.326 508.379 188.456 508.379 190.827V192.52C508.379 194.524 508.647 196.387 509.183 198.108C509.748 199.802 510.566 201.283 511.639 202.553C512.711 203.823 514.009 204.825 515.533 205.559C517.057 206.264 518.793 206.617 520.74 206.617C523.196 206.617 525.383 206.123 527.302 205.135C529.221 204.148 530.886 202.751 532.297 200.945L537.673 206.151C536.686 207.591 535.402 208.974 533.821 210.3C532.241 211.598 530.307 212.657 528.021 213.475C525.764 214.293 523.139 214.703 520.148 214.703Z" fill="#FF4700"/>
<path d="M572.259 204.67V182.826C572.259 181.189 571.963 179.778 571.37 178.593C570.778 177.407 569.875 176.49 568.661 175.841C567.476 175.192 565.98 174.868 564.174 174.868C562.509 174.868 561.069 175.15 559.856 175.714C558.642 176.279 557.697 177.041 557.019 178C556.342 178.96 556.003 180.046 556.003 181.26H545.844C545.844 179.454 546.281 177.704 547.156 176.011C548.031 174.317 549.301 172.807 550.966 171.481C552.631 170.154 554.621 169.11 556.935 168.348C559.249 167.586 561.845 167.205 564.724 167.205C568.167 167.205 571.215 167.784 573.868 168.941C576.549 170.098 578.652 171.848 580.176 174.19C581.728 176.504 582.504 179.411 582.504 182.911V203.273C582.504 205.361 582.645 207.238 582.927 208.903C583.238 210.54 583.675 211.965 584.239 213.179V213.856H573.783C573.303 212.755 572.922 211.358 572.64 209.665C572.386 207.944 572.259 206.278 572.259 204.67ZM573.741 186.001L573.826 192.309H566.502C564.611 192.309 562.946 192.492 561.507 192.859C560.067 193.198 558.868 193.706 557.908 194.383C556.949 195.06 556.229 195.879 555.749 196.838C555.27 197.798 555.03 198.884 555.03 200.098C555.03 201.311 555.312 202.426 555.876 203.442C556.441 204.43 557.259 205.206 558.332 205.77C559.432 206.335 560.759 206.617 562.311 206.617C564.399 206.617 566.22 206.194 567.772 205.347C569.352 204.472 570.594 203.414 571.497 202.172C572.4 200.902 572.88 199.703 572.937 198.574L576.239 203.104C575.9 204.261 575.321 205.502 574.503 206.829C573.684 208.155 572.612 209.425 571.286 210.639C569.987 211.824 568.421 212.798 566.587 213.56C564.78 214.322 562.692 214.703 560.321 214.703C557.33 214.703 554.663 214.11 552.321 212.925C549.978 211.711 548.144 210.088 546.817 208.056C545.491 205.996 544.828 203.668 544.828 201.072C544.828 198.644 545.279 196.5 546.182 194.637C547.114 192.746 548.468 191.166 550.246 189.896C552.052 188.626 554.254 187.666 556.85 187.017C559.447 186.34 562.41 186.001 565.74 186.001H573.741Z" fill="#FF4700"/>
<path d="M618.868 201.453C618.868 200.437 618.614 199.519 618.106 198.701C617.598 197.854 616.624 197.092 615.185 196.415C613.774 195.738 611.685 195.117 608.92 194.552C606.492 194.016 604.263 193.381 602.231 192.647C600.227 191.885 598.506 190.968 597.066 189.896C595.627 188.823 594.512 187.553 593.722 186.086C592.932 184.618 592.537 182.925 592.537 181.006C592.537 179.143 592.946 177.379 593.764 175.714C594.583 174.049 595.754 172.582 597.278 171.312C598.802 170.042 600.65 169.04 602.824 168.306C605.025 167.572 607.48 167.205 610.189 167.205C614.028 167.205 617.316 167.854 620.053 169.153C622.819 170.423 624.935 172.158 626.403 174.36C627.87 176.533 628.604 178.988 628.604 181.725H618.402C618.402 180.512 618.092 179.383 617.471 178.339C616.878 177.266 615.975 176.406 614.761 175.757C613.548 175.079 612.024 174.741 610.189 174.741C608.44 174.741 606.986 175.023 605.829 175.587C604.7 176.123 603.854 176.829 603.289 177.704C602.753 178.579 602.485 179.538 602.485 180.582C602.485 181.344 602.626 182.036 602.908 182.657C603.219 183.249 603.727 183.8 604.432 184.308C605.138 184.788 606.097 185.239 607.311 185.662C608.553 186.086 610.105 186.495 611.967 186.89C615.467 187.624 618.473 188.569 620.984 189.726C623.524 190.855 625.472 192.323 626.826 194.129C628.181 195.907 628.858 198.165 628.858 200.902C628.858 202.934 628.421 204.797 627.546 206.49C626.699 208.155 625.458 209.609 623.821 210.85C622.184 212.064 620.222 213.009 617.936 213.687C615.679 214.364 613.139 214.703 610.316 214.703C606.168 214.703 602.654 213.969 599.776 212.501C596.897 211.006 594.71 209.101 593.214 206.786C591.746 204.444 591.013 202.017 591.013 199.505H600.876C600.989 201.396 601.511 202.906 602.443 204.035C603.402 205.135 604.587 205.94 605.999 206.448C607.438 206.928 608.92 207.167 610.443 207.167C612.278 207.167 613.816 206.928 615.058 206.448C616.3 205.94 617.245 205.262 617.894 204.416C618.543 203.541 618.868 202.553 618.868 201.453Z" fill="#FF4700"/>
<path d="M647.866 148.833V213.856H637.706V148.833H647.866ZM646.088 189.261L642.786 189.218C642.814 186.057 643.251 183.137 644.098 180.455C644.973 177.774 646.187 175.446 647.739 173.471C649.319 171.467 651.21 169.929 653.411 168.856C655.613 167.756 658.054 167.205 660.735 167.205C662.993 167.205 665.025 167.516 666.831 168.137C668.665 168.757 670.246 169.759 671.572 171.142C672.899 172.497 673.9 174.275 674.578 176.476C675.283 178.649 675.636 181.302 675.636 184.435V213.856H665.391V184.35C665.391 182.149 665.067 180.399 664.418 179.101C663.797 177.803 662.88 176.871 661.666 176.307C660.453 175.714 658.971 175.418 657.221 175.418C655.387 175.418 653.764 175.785 652.353 176.519C650.97 177.252 649.813 178.254 648.882 179.524C647.95 180.794 647.245 182.262 646.765 183.927C646.313 185.592 646.088 187.37 646.088 189.261Z" fill="#FF4700"/>
<path d="M728.552 168.052V175.503H702.729V168.052H728.552ZM710.18 156.834H720.382V201.199C720.382 202.61 720.579 203.696 720.974 204.458C721.398 205.192 721.976 205.686 722.71 205.94C723.444 206.194 724.305 206.321 725.292 206.321C725.998 206.321 726.675 206.278 727.324 206.194C727.974 206.109 728.496 206.024 728.891 205.94L728.933 213.729C728.086 213.983 727.099 214.209 725.97 214.406C724.869 214.604 723.599 214.703 722.16 214.703C719.817 214.703 717.743 214.293 715.937 213.475C714.131 212.628 712.72 211.26 711.704 209.369C710.688 207.478 710.18 204.966 710.18 201.834V156.834Z" fill="#FF4700"/>
<path d="M746.501 148.833V213.856H736.341V148.833H746.501ZM744.723 189.261L741.421 189.218C741.449 186.057 741.887 183.137 742.734 180.455C743.608 177.774 744.822 175.446 746.374 173.471C747.955 171.467 749.845 169.929 752.047 168.856C754.248 167.756 756.689 167.205 759.37 167.205C761.628 167.205 763.66 167.516 765.466 168.137C767.301 168.757 768.881 169.759 770.208 171.142C771.534 172.497 772.536 174.275 773.213 176.476C773.919 178.649 774.272 181.302 774.272 184.435V213.856H764.027V184.35C764.027 182.149 763.702 180.399 763.053 179.101C762.432 177.803 761.515 176.871 760.302 176.307C759.088 175.714 757.606 175.418 755.857 175.418C754.022 175.418 752.4 175.785 750.988 176.519C749.606 177.252 748.448 178.254 747.517 179.524C746.586 180.794 745.88 182.262 745.401 183.927C744.949 185.592 744.723 187.37 744.723 189.261Z" fill="#FF4700"/>
<path d="M804.793 214.703C801.407 214.703 798.345 214.152 795.607 213.052C792.898 211.923 790.584 210.357 788.665 208.353C786.774 206.349 785.32 203.993 784.304 201.283C783.288 198.574 782.78 195.653 782.78 192.52V190.827C782.78 187.243 783.303 183.997 784.347 181.09C785.391 178.184 786.844 175.7 788.707 173.64C790.57 171.551 792.771 169.957 795.311 168.856C797.851 167.756 800.603 167.205 803.566 167.205C806.84 167.205 809.704 167.756 812.159 168.856C814.615 169.957 816.647 171.509 818.255 173.513C819.892 175.488 821.106 177.845 821.896 180.582C822.714 183.32 823.124 186.34 823.124 189.642V194.002H787.733V186.678H813.048V185.874C812.992 184.04 812.625 182.318 811.948 180.709C811.299 179.101 810.297 177.803 808.942 176.815C807.587 175.827 805.781 175.333 803.523 175.333C801.83 175.333 800.32 175.7 798.994 176.434C797.696 177.139 796.609 178.169 795.734 179.524C794.859 180.879 794.182 182.516 793.702 184.435C793.251 186.326 793.025 188.456 793.025 190.827V192.52C793.025 194.524 793.293 196.387 793.829 198.108C794.394 199.802 795.212 201.283 796.285 202.553C797.357 203.823 798.655 204.825 800.179 205.559C801.703 206.264 803.439 206.617 805.386 206.617C807.841 206.617 810.029 206.123 811.948 205.135C813.867 204.148 815.532 202.751 816.943 200.945L822.319 206.151C821.331 207.591 820.047 208.974 818.467 210.3C816.887 211.598 814.953 212.657 812.667 213.475C810.41 214.293 807.785 214.703 804.793 214.703Z" fill="#FF4700"/>
<path d="M862.916 176.857V231.467H852.714V168.052H862.112L862.916 176.857ZM892.761 190.531V191.42C892.761 194.75 892.366 197.84 891.576 200.691C890.814 203.513 889.671 205.982 888.147 208.099C886.651 210.187 884.803 211.81 882.601 212.967C880.4 214.124 877.86 214.703 874.981 214.703C872.131 214.703 869.633 214.181 867.488 213.136C865.372 212.064 863.58 210.554 862.112 208.607C860.645 206.659 859.459 204.374 858.556 201.749C857.681 199.096 857.06 196.189 856.694 193.028V189.599C857.06 186.241 857.681 183.193 858.556 180.455C859.459 177.718 860.645 175.361 862.112 173.386C863.58 171.41 865.372 169.886 867.488 168.814C869.605 167.741 872.074 167.205 874.897 167.205C877.775 167.205 880.329 167.77 882.559 168.899C884.788 169.999 886.665 171.58 888.189 173.64C889.713 175.672 890.856 178.127 891.618 181.006C892.38 183.856 892.761 187.031 892.761 190.531ZM882.559 191.42V190.531C882.559 188.414 882.361 186.453 881.966 184.646C881.571 182.812 880.95 181.203 880.104 179.82C879.257 178.438 878.17 177.365 876.844 176.603C875.546 175.813 873.979 175.418 872.145 175.418C870.339 175.418 868.787 175.728 867.488 176.349C866.19 176.942 865.104 177.774 864.229 178.847C863.354 179.919 862.677 181.175 862.197 182.614C861.717 184.026 861.378 185.564 861.181 187.229V195.441C861.519 197.473 862.098 199.336 862.916 201.029C863.735 202.723 864.892 204.077 866.388 205.093C867.912 206.081 869.859 206.575 872.23 206.575C874.064 206.575 875.63 206.18 876.929 205.389C878.227 204.599 879.285 203.513 880.104 202.13C880.95 200.719 881.571 199.096 881.966 197.262C882.361 195.427 882.559 193.48 882.559 191.42Z" fill="#FF4700"/>
<path d="M899.492 191.462V190.488C899.492 187.186 899.972 184.124 900.931 181.302C901.891 178.452 903.274 175.982 905.08 173.894C906.914 171.777 909.144 170.14 911.769 168.983C914.421 167.798 917.413 167.205 920.743 167.205C924.101 167.205 927.093 167.798 929.718 168.983C932.37 170.14 934.614 171.777 936.449 173.894C938.283 175.982 939.68 178.452 940.64 181.302C941.599 184.124 942.079 187.186 942.079 190.488V191.462C942.079 194.764 941.599 197.826 940.64 200.648C939.68 203.47 938.283 205.94 936.449 208.056C934.614 210.145 932.385 211.782 929.76 212.967C927.135 214.124 924.158 214.703 920.828 214.703C917.469 214.703 914.464 214.124 911.811 212.967C909.186 211.782 906.957 210.145 905.122 208.056C903.288 205.94 901.891 203.47 900.931 200.648C899.972 197.826 899.492 194.764 899.492 191.462ZM909.694 190.488V191.462C909.694 193.522 909.906 195.469 910.329 197.304C910.753 199.138 911.416 200.747 912.319 202.13C913.222 203.513 914.379 204.599 915.79 205.389C917.201 206.18 918.88 206.575 920.828 206.575C922.719 206.575 924.355 206.18 925.738 205.389C927.149 204.599 928.307 203.513 929.21 202.13C930.113 200.747 930.776 199.138 931.199 197.304C931.651 195.469 931.877 193.522 931.877 191.462V190.488C931.877 188.456 931.651 186.537 931.199 184.731C930.776 182.897 930.099 181.274 929.167 179.863C928.264 178.452 927.107 177.351 925.696 176.561C924.313 175.742 922.662 175.333 920.743 175.333C918.824 175.333 917.159 175.742 915.748 176.561C914.365 177.351 913.222 178.452 912.319 179.863C911.416 181.274 910.753 182.897 910.329 184.731C909.906 186.537 909.694 188.456 909.694 190.488Z" fill="#FF4700"/>
<path d="M963.076 203.696L973.659 168.052H980.178L978.4 178.72L967.733 213.856H961.891L963.076 203.696ZM956.853 168.052L965.108 203.866L965.785 213.856H959.266L946.862 168.052H956.853ZM990.084 203.442L998.085 168.052H1008.03L995.672 213.856H989.153L990.084 203.442ZM981.279 168.052L991.735 203.273L993.048 213.856H987.206L976.411 178.677L974.633 168.052H981.279Z" fill="#FF4700"/>
<path d="M1035.17 214.703C1031.78 214.703 1028.72 214.152 1025.98 213.052C1023.27 211.923 1020.96 210.357 1019.04 208.353C1017.15 206.349 1015.7 203.993 1014.68 201.283C1013.66 198.574 1013.16 195.653 1013.16 192.52V190.827C1013.16 187.243 1013.68 183.997 1014.72 181.09C1015.77 178.184 1017.22 175.7 1019.08 173.64C1020.94 171.551 1023.15 169.957 1025.69 168.856C1028.23 167.756 1030.98 167.205 1033.94 167.205C1037.21 167.205 1040.08 167.756 1042.53 168.856C1044.99 169.957 1047.02 171.509 1048.63 173.513C1050.27 175.488 1051.48 177.845 1052.27 180.582C1053.09 183.32 1053.5 186.34 1053.5 189.642V194.002H1018.11V186.678H1043.42V185.874C1043.37 184.04 1043 182.318 1042.32 180.709C1041.67 179.101 1040.67 177.803 1039.32 176.815C1037.96 175.827 1036.16 175.333 1033.9 175.333C1032.21 175.333 1030.7 175.7 1029.37 176.434C1028.07 177.139 1026.98 178.169 1026.11 179.524C1025.23 180.879 1024.56 182.516 1024.08 184.435C1023.63 186.326 1023.4 188.456 1023.4 190.827V192.52C1023.4 194.524 1023.67 196.387 1024.2 198.108C1024.77 199.802 1025.59 201.283 1026.66 202.553C1027.73 203.823 1029.03 204.825 1030.55 205.559C1032.08 206.264 1033.81 206.617 1035.76 206.617C1038.22 206.617 1040.4 206.123 1042.32 205.135C1044.24 204.148 1045.91 202.751 1047.32 200.945L1052.69 206.151C1051.71 207.591 1050.42 208.974 1048.84 210.3C1047.26 211.598 1045.33 212.657 1043.04 213.475C1040.78 214.293 1038.16 214.703 1035.17 214.703Z" fill="#FF4700"/>
<path d="M1071.7 176.773V213.856H1061.5V168.052H1071.24L1071.7 176.773ZM1085.71 167.756L1085.63 177.238C1085.01 177.125 1084.33 177.041 1083.6 176.984C1082.89 176.928 1082.19 176.899 1081.48 176.899C1079.73 176.899 1078.19 177.153 1076.87 177.661C1075.54 178.141 1074.43 178.847 1073.52 179.778C1072.65 180.681 1071.97 181.782 1071.49 183.08C1071.01 184.378 1070.73 185.832 1070.64 187.44L1068.32 187.61C1068.32 184.731 1068.6 182.064 1069.16 179.609C1069.73 177.153 1070.57 174.995 1071.7 173.132C1072.86 171.269 1074.3 169.816 1076.02 168.772C1077.77 167.727 1079.79 167.205 1082.07 167.205C1082.69 167.205 1083.36 167.262 1084.06 167.375C1084.8 167.488 1085.35 167.614 1085.71 167.756Z" fill="#FF4700"/>
<path d="M1111.75 191.462V190.488C1111.75 187.186 1112.23 184.124 1113.19 181.302C1114.15 178.452 1115.53 175.982 1117.34 173.894C1119.17 171.777 1121.4 170.14 1124.03 168.983C1126.68 167.798 1129.67 167.205 1133 167.205C1136.36 167.205 1139.35 167.798 1141.97 168.983C1144.63 170.14 1146.87 171.777 1148.71 173.894C1150.54 175.982 1151.94 178.452 1152.9 181.302C1153.86 184.124 1154.34 187.186 1154.34 190.488V191.462C1154.34 194.764 1153.86 197.826 1152.9 200.648C1151.94 203.47 1150.54 205.94 1148.71 208.056C1146.87 210.145 1144.64 211.782 1142.02 212.967C1139.39 214.124 1136.41 214.703 1133.08 214.703C1129.73 214.703 1126.72 214.124 1124.07 212.967C1121.44 211.782 1119.21 210.145 1117.38 208.056C1115.54 205.94 1114.15 203.47 1113.19 200.648C1112.23 197.826 1111.75 194.764 1111.75 191.462ZM1121.95 190.488V191.462C1121.95 193.522 1122.16 195.469 1122.59 197.304C1123.01 199.138 1123.67 200.747 1124.58 202.13C1125.48 203.513 1126.64 204.599 1128.05 205.389C1129.46 206.18 1131.14 206.575 1133.08 206.575C1134.98 206.575 1136.61 206.18 1138 205.389C1139.41 204.599 1140.56 203.513 1141.47 202.13C1142.37 200.747 1143.03 199.138 1143.46 197.304C1143.91 195.469 1144.13 193.522 1144.13 191.462V190.488C1144.13 188.456 1143.91 186.537 1143.46 184.731C1143.03 182.897 1142.36 181.274 1141.42 179.863C1140.52 178.452 1139.36 177.351 1137.95 176.561C1136.57 175.742 1134.92 175.333 1133 175.333C1131.08 175.333 1129.42 175.742 1128 176.561C1126.62 177.351 1125.48 178.452 1124.58 179.863C1123.67 181.274 1123.01 182.897 1122.59 184.731C1122.16 186.537 1121.95 188.456 1121.95 190.488Z" fill="#FF4700"/>
<path d="M1176.69 213.856H1166.49V163.649C1166.49 160.234 1167.12 157.37 1168.39 155.056C1169.69 152.713 1171.54 150.949 1173.94 149.764C1176.33 148.551 1179.17 147.944 1182.44 147.944C1183.46 147.944 1184.46 148.014 1185.45 148.156C1186.44 148.268 1187.4 148.452 1188.33 148.706L1188.07 156.58C1187.51 156.439 1186.89 156.34 1186.21 156.283C1185.56 156.227 1184.86 156.199 1184.1 156.199C1182.54 156.199 1181.2 156.495 1180.07 157.088C1178.97 157.652 1178.13 158.485 1177.53 159.585C1176.97 160.686 1176.69 162.041 1176.69 163.649V213.856ZM1186.13 168.052V175.503H1159.46V168.052H1186.13Z" fill="#FF4700"/>
<path d="M1240.14 160.432L1221.73 213.856H1210.6L1233.79 152.219H1240.91L1240.14 160.432ZM1255.55 213.856L1237.1 160.432L1236.29 152.219H1243.45L1266.73 213.856H1255.55ZM1254.66 190.996V199.421H1221.14V190.996H1254.66Z" fill="#FF4700"/>
<path d="M1284.97 152.219V213.856H1274.35V152.219H1284.97Z" fill="#FF4700"/>
<defs>
<filter id="filter0_d_2595_26" x="-0.000112534" y="0" width="496.125" height="543.737" filterUnits="userSpaceOnUse" color-interpolation-filters="sRGB">
<feFlood flood-opacity="0" result="BackgroundImageFix"/>
<feColorMatrix in="SourceAlpha" type="matrix" values="0 0 0 0 0 0 0 0 0 0 0 0 0 0 0 0 0 0 127 0" result="hardAlpha"/>
<feOffset dx="13.9692" dy="20.9538"/>
<feGaussianBlur stdDeviation="8.73075"/>
<feComposite in2="hardAlpha" operator="out"/>
<feColorMatrix type="matrix" values="0 0 0 0 0.870588 0 0 0 0 0.870588 0 0 0 0 0.870588 0 0 0 1 0"/>
<feBlend mode="normal" in2="BackgroundImageFix" result="effect1_dropShadow_2595_26"/>
<feBlend mode="normal" in="SourceGraphic" in2="effect1_dropShadow_2595_26" result="shape"/>
</filter>
</defs>
</svg>
