<svg xmlns="http://www.w3.org/2000/svg" xmlns:xlink="http://www.w3.org/1999/xlink" xml:space="preserve" style="fill-rule:evenodd;clip-rule:evenodd;stroke-linejoin:round;stroke-miterlimit:2" viewBox="0 0 1200 299">  <g transform="translate(75.861 15.213)">    <path d="M0 197.051c-22.453-.186-43.925-4.694-64.147-14.658-3.573-1.76-6.949-3.863-10.27-6.067-1.51-1.002-1.869-1.88-.921-3.58a1769 1769 0 0 0 14.56-26.638c1.077-2.011 1.976-2.447 4.153-1.237 14.828 8.243 30.467 14.447 47.152 17.725 11.884 2.334 23.589 1.578 34.814-3.29 5.055-2.192 9.245-5.504 11.415-10.775 2.97-7.217.43-14.91-6.588-20.357-4.785-3.713-10.291-6.005-15.939-7.98-13.073-4.571-26.647-7.411-39.868-11.477-11.446-3.52-22.682-7.51-32.317-14.93-11.093-8.541-15.884-19.826-14.887-33.774 1.935-27.074 17.518-43.219 42.006-51.626 24.886-8.543 49.898-6.698 74.67 1.072 8.943 2.805 17.414 6.708 25.497 11.48 1.882 1.111 2.341 1.928 1.112 3.983-5.372 8.981-10.603 18.048-15.763 27.153-1.155 2.038-2.072 2.376-4.165 1.088-12.437-7.658-25.8-12.883-40.356-14.822-9.375-1.248-18.632-1.025-27.629 2.264-3.964 1.449-7.435 3.669-10.247 6.853-7.059 7.993-5.576 18.316 3.504 23.81 7.194 4.353 15.261 6.444 23.267 8.642 14.5 3.981 29.231 7.209 43.19 12.966 10.244 4.224 19.82 9.506 26.961 18.322 8.127 10.034 10.741 21.596 8.664 34.112-3.723 22.425-17.559 36.594-37.98 44.951-12.751 5.217-26.17 6.946-39.888 6.79" style="fill:#003e3c;fill-rule:nonzero"></path>  </g>  <g transform="translate(989.161 155.351)">    <path d="M0-39.018c10.983 0 21.966.018 32.949-.041.727-.003 2.739.896 1.676-1.469-4.666-10.39-12.007-17.608-23.484-20.022C5.658-61.703.17-61.64-5.362-61.016c-12.851 1.449-22.754 7.198-28.444 19.224-1.313 2.775-1.341 2.771 1.635 2.772 10.724.005 21.447.002 32.171.002M17.592-7.662c-17.389.001-34.779-.002-52.168.003-3.192.001-3.106-.015-2.104 2.97 2.994 8.911 7.578 16.659 15.58 22.029 5.67 3.806 11.987 5.87 18.696 6.421 15.018 1.235 29.505-.798 42.971-8.011 1.69-.906 2.605-.545 3.53 1.046a1995 1995 0 0 0 13.339 22.559c.874 1.457.615 2.248-.815 3.103-12.89 7.707-26.748 12.433-41.725 13.891-14.48 1.409-28.698.371-42.42-4.692-26.759-9.874-41.947-29.144-45.9-57.3-2.44-17.378-.55-34.226 7.456-49.995 11.233-22.123 29.702-34.601 53.843-38.827 13.197-2.311 26.394-1.728 39.257 2.291 20.612 6.44 33.406 20.799 40.376 40.753 4.615 13.215 6.058 26.923 5.748 40.867-.057 2.557-1.389 2.919-3.496 2.914-17.389-.041-34.779-.023-52.168-.022" style="fill:#003e3c;fill-rule:nonzero"></path>  </g>  <g transform="translate(732.022 85.128)">    <path d="M0 49.229c-.625 1.05-.343 2.105-.344 3.101-.019 22.751-.013 45.503-.017 68.254-.001 3.899-.013 3.904-3.839 3.905-10.208.003-20.416-.063-30.623.048-2.406.026-3.113-.79-3.111-3.131.046-64.621.048-129.241-.007-193.861-.002-2.54.894-3.259 3.323-3.235 10.206.098 20.415.036 30.622.043 3.55.002 3.634.08 3.634 3.631.005 38.063.003 76.126.003 114.189v3.594c1.224-.427 1.634-1.338 2.185-2.017C18.503 23.197 35.198 2.659 51.764-17.983c1.926-2.401 3.875-3.365 6.964-3.317 11.849.184 23.702.062 35.553.099.965.003 2.336-.566 2.813.534.38.878-.784 1.62-1.359 2.332C78.653 2.781 61.578 23.902 44.41 44.947c-1.495 1.831-1.584 2.978-.077 4.825 19.524 23.923 38.976 47.905 58.432 71.883.571.703 1.745 1.364 1.27 2.339-.463.949-1.721.476-2.62.478-12.371.027-24.741-.023-37.111.059-2.027.014-3.335-.657-4.6-2.218-19.38-23.928-38.815-47.811-58.243-71.702C1.05 50.105.755 49.445 0 49.229" style="fill:#003e3c;fill-rule:nonzero"></path>  </g>  <g transform="translate(559.863 188.256)">    <path d="M0-107.285c12.498-16.401 29.128-21.455 48.433-19.118 22.15 2.681 38.187 14.328 48 34.326 4.704 9.585 7.033 19.888 7.463 30.532 1.079 26.715.196 53.448.494 80.171.024 2.211-.893 2.781-2.948 2.768-10.813-.07-21.629-.114-32.44.026-2.676.035-3.355-.849-3.346-3.415.083-23.185.094-46.37.021-69.555-.027-8.486-1.677-16.622-5.693-24.238-12.029-22.813-43.171-19.081-53.858-.301C2.275-69.321.135-62.069.093-54.334-.034-30.545.019-6.754.001 17.036c-.004 4.323-.006 4.326-4.195 4.326-10.122.002-20.244-.061-30.365.045-2.357.025-3.111-.691-3.108-3.083q.089-69.814.001-139.628c-.003-2.377.726-3.118 3.098-3.094 10.466.107 20.936.119 31.402-.006 2.586-.032 3.278.93 3.205 3.331-.136 4.489-.039 8.984-.039 13.788" style="fill:#003e3c;fill-rule:nonzero"></path>  </g>  <g transform="translate(1137.8 60.172)">    <path d="M0 152.08c-18.573-.243-36.385-3.823-53.069-12.272-3.169-1.605-6.128-3.552-8.999-5.652-1.322-.967-1.455-1.87-.689-3.271 4.73-8.652 9.424-17.323 14.065-26.022.876-1.643 1.742-1.764 3.247-.78 12.689 8.291 26.65 13.085 41.676 14.697 6.032.648 12.1.586 17.981-1.32 4.197-1.36 7.54-3.682 8.176-8.415.647-4.812-1.901-8.086-5.717-10.521-5.322-3.398-11.328-5.1-17.34-6.744-11.67-3.19-23.548-5.703-34.73-10.481-7.817-3.34-15.051-7.594-19.783-14.957-6.479-10.08-6.019-20.907-2.442-31.714 4.485-13.551 14.413-22.096 27.104-27.701C-16.452.714-1.656-.202 13.465 1.073c15.444 1.303 29.451 6.43 42.345 14.92 1.965 1.294 2.234 2.306 1.052 4.307a1537 1537 0 0 0-14.92 25.842c-1.04 1.84-1.912 1.951-3.593.799-9.857-6.76-20.636-11.224-32.587-12.532-5.883-.645-11.747-.536-17.42 1.484-2.996 1.067-5.649 2.644-7.372 5.435-2.495 4.039-1.673 7.954 2.305 10.528 4.878 3.156 10.481 4.453 15.991 5.903 10.366 2.727 20.826 5.12 30.89 8.882 5.526 2.065 10.854 4.565 15.7 7.957 15.699 10.992 20.541 29.088 12.556 46.787-6.547 14.513-18.184 22.943-33.039 27.416-8.256 2.486-16.738 3.481-25.373 3.279" style="fill:#003e3c;fill-rule:nonzero"></path>  </g>  <g transform="translate(855.482 109.35)">    <path d="M0 .418q-.001-48.27.001-96.539c0-3.811.009-3.817 3.867-3.819q14.792-.004 29.584 0c4.162 0 4.171.003 4.171 4.104q.003 49.566.002 99.134l-.001 92.646c-.001 4.322-.006 4.324-4.2 4.325-10.035.001-20.07-.083-30.103.056-2.621.036-3.38-.746-3.374-3.368C.029 64.777 0 32.598 0 .418" style="fill:#003e3c;fill-rule:nonzero"></path>  </g>  <g transform="translate(385.02 188.922)">    <path d="M0-107.248c8.177-12.69 20.151-18.06 34.011-20.046 5.066-.726 10.174-.441 15.247.308 1.414.208 2.129.848 2.126 2.37-.026 11.848-.013 23.697-.004 35.545.001 1.338-.215 1.957-1.78 1.161C29.145-98.309 8.602-89.356 2.233-67.277A56.7 56.7 0 0 0-.009-51.42c.024 22.832.012 45.664.008 68.495-.001 3.606-.013 3.618-3.542 3.62-10.292.006-20.584-.065-30.874.049-2.481.028-3.277-.748-3.274-3.242q.088-69.663 0-139.326c-.003-2.494.793-3.269 3.274-3.242q15.696.172 31.393-.001c2.443-.027 3.129.84 3.064 3.152-.134 4.724-.04 9.454-.04 14.667" style="fill:#003e3c;fill-rule:nonzero"></path>  </g>  <g transform="translate(454.26 136.812)">    <path d="M0-.093c0-23.084-.003-46.168.002-69.253.001-3.54.015-3.551 3.619-3.553 10.202-.005 20.405.069 30.606-.051 2.53-.03 3.478.612 3.474 3.317-.072 46.428-.062 92.856-.02 139.284.002 2.24-.53 3.236-3.038 3.206a1368 1368 0 0 0-31.643 0c-2.482.028-3.042-.909-3.036-3.179C.023 46.421 0 23.164 0-.093" style="fill:#003e3c;fill-rule:nonzero"></path>  </g>  <g transform="translate(473.247 48.83)">    <path d="M0-48.83c9.404.123 17.334 3.278 21.359 12.294 4.255 9.534 3.832 19.097-2.563 27.749C15.211-3.938 9.901-1.72 4.063-.972c-7.733.99-15.073-.06-21.144-5.47-7.317-6.521-9.645-18.506-5.702-28.498C-19.222-43.965-11.2-48.848 0-48.83" style="fill:#003e3c;fill-rule:nonzero"></path>  </g>  <g transform="translate(199.006 184.431)">    <path d="M0-22.726c-.696 1.625-1.124 2.559-1.501 3.513C-5.257-9.726-8.45-.048-11.138 9.79c-5.229 19.137-9.128 38.479-8.546 58.467.089 3.062.376 6.113 1.169 9.279C-8.127 58.964 2.379 2.515 0-22.726m-48.656 86.32c.307-23.257 4.688-45.85 11.265-68.067 6.78-22.9 16.161-44.706 27.997-65.446 1-1.754 1.057-3.224.318-5.091-4.474-11.301-10.723-21.314-20.538-28.77-1.489-1.13-1.396-2.017-.416-3.405 4.588-6.502 9.141-13.03 13.602-19.619 1.226-1.812 2.259-1.88 3.947-.611 9.058 6.809 16.034 15.45 22.129 24.879 1.849 2.86 1.845 2.91 4.268.318 8.63-9.23 18.153-17.273 29.603-22.874 24.575-12.019 51.17-7.438 69.068 12.154 9.387 10.276 14.424 22.683 16.706 36.255 4.055 24.127.042 47.151-9.872 69.295-5.102 11.398-11.755 21.767-21.06 30.233-8.822 8.025-18.864 13.453-31.123 13.605-15.497.191-27.051-8.069-31.79-22.901-4.293-13.438-3.539-26.996.146-40.393 5.213-18.95 15.6-34.619 31.259-46.53 8.04-6.115 6.677-4.291 10.208 2.242 3.124 5.781 5.988 11.702 9.05 17.518.804 1.526.551 2.38-.845 3.422C68.252-37.501 61.047-20.33 62.345.622c.423 6.835 3.666 8.655 9.835 5.567C77.005 3.775 80.717.017 83.899-4.25 93.756-17.471 99.2-32.421 101-48.735c1.235-11.196.932-22.299-3.1-32.991-3.736-9.908-9.994-17.454-20.723-20.05-8.616-2.084-16.624.261-24.134 4.493-10.626 5.989-18.625 14.794-25.807 24.439-.723.972-1.367 2.006-2.137 2.937-1.138 1.377-1.425 2.841-1.015 4.59 4.041 17.277 5.698 34.823 4.92 52.513-1.393 31.643-5.672 62.832-16.56 92.788-3.653 10.05-8.292 19.628-16.123 27.235-4.211 4.09-9.127 6.959-15.16 7.048-7.955.118-14.08-3.777-19-9.627-6.546-7.784-8.795-17.274-10.176-27.056-.656-4.645-.552-9.315-.641-13.99" style="fill:#003e3c;fill-rule:nonzero"></path>  </g></svg>