<?xml version="1.0" encoding="UTF-8"?>
<svg xmlns="http://www.w3.org/2000/svg" version="1.1" viewBox="0 0 1548.1 444.4">
  <defs>
    <style>
      .cls-1 {
        fill: #99e1ff;
      }

      .cls-2 {
        fill: #65d1ff;
      }

      .cls-3 {
        fill: #fff;
      }

      .cls-4 {
        fill: #1f4657;
      }

      .cls-5 {
        fill: #a6ff00;
      }

      .cls-6 {
        fill: #00b2ff;
      }

      .cls-7 {
        fill: #93dfff;
      }

      .cls-8 {
        fill: #003146;
      }
    </style>
  </defs>
  <!-- Generator: Adobe Illustrator 28.7.1, SVG Export Plug-In . SVG Version: 1.2.0 Build 142)  -->
  <g>
    <g id="Layer_1">
      <path class="cls-8" d="M618.2,220.5c-31.2,0-51.7-13.8-52.3-39.7h29.2c1.3,11.8,9,16.7,23,16.7s18.8-3.4,18.8-12.3-9.5-11.3-25.6-15.2c-20.3-4.8-41.8-11-41.8-35.6s20.3-36.1,46.6-36.1,45.1,11.5,46.2,36.1h-28.4c-1.2-9-8-14.1-18.8-14.1s-16.9,4.4-16.9,11,9,10.2,26.6,14.1c21.8,5.1,41.5,11.8,41.5,36.9s-21,38.2-48,38.2h0ZM676.9,245.5v-20.8h9.2c7.9,0,11-3.1,11-8.9s-1.6-8.5-5.1-17.4l-24.8-64.6h28.2l11.3,35.7c2.6,8.2,5.2,19.3,5.2,19.3h.3s2.3-11.1,4.9-19.4l11-35.7h26.7l-29,85.1c-6.7,19.7-14.8,26.6-31.6,26.6h-17.4,0ZM760.9,217.8v-83.9h25.7v11.5h.5c6.2-9,14.3-13.9,25.9-13.9,18.4,0,29.2,13.1,29.2,31.8v54.6h-26.7v-49.2c0-8.9-4.4-14.9-13.1-14.9s-14.8,7.4-14.8,17.7v46.4h-26.7,0ZM854.4,217.8v-117.2h26.4v61.6l24.9-28.4h30.8l-29.5,31.5,33,52.5h-31l-20.2-34.3-8,8.5v25.7h-26.4ZM946.1,217.8v-83.9h25.6v13.1h.5c5.9-10,12.8-14.4,22.9-14.4s4.1.2,5.2.7v22.9h-.7c-16.4-2.3-26.9,5.7-26.9,23.9v37.7h-26.7,0ZM1048.3,201.4c11.6,0,17.9-10.2,17.9-25.4s-6.2-25.6-17.9-25.6-17.7,10.3-17.7,25.6,6.1,25.4,17.7,25.4ZM1048.5,220.4c-26.9,0-44.9-19.2-44.9-44.4s18-44.4,44.9-44.4,44.8,19.2,44.8,44.4-17.7,44.4-44.8,44.4Z"/>
      <path class="cls-8" d="M565.4,358.9v-117.2h11v117.2h-11ZM596,358.9v-84.8h10.2v13h.3c5.7-8.5,14.9-14.8,28.4-14.8s27,9.4,27,26.4v60.2h-10.2v-59.2c0-12.8-7.4-18.7-19.3-18.7s-26.2,10.2-26.2,24.1v53.8h-10.2,0ZM699.2,358.9l-30-84.8h10.8l18.2,53.8c2.8,8.2,6.9,21.5,6.9,21.5h.3s4.3-13.3,7-21.5l19-53.8h10.3l-30.7,84.8h-12ZM784.2,361.1c-25.4,0-39.5-19-39.5-44.4s15.2-44.4,38.7-44.4,36.6,22.5,36.4,46.2h-64.6c.5,19,9.7,33.9,29,33.9s21.5-7.5,24.8-19h9.8c-3.6,16.7-15.6,27.7-34.6,27.7h0ZM755.3,310.4h53.8c-.5-16.7-8.4-29.8-25.7-29.8s-26.2,13-28,29.8h0ZM832.4,358.9v-84.8h10.2v13h.3c5.7-8.5,14.9-14.8,28.4-14.8s27,9.4,27,26.4v60.2h-10.2v-59.2c0-12.8-7.4-18.7-19.3-18.7s-26.2,10.2-26.2,24.1v53.8h-10.2,0ZM936.3,359.6c-9.7,0-16.2-4.4-16.2-15.2v-61.8h-12.8v-8.4h12.8v-26.1h10.2v26.1h15.7v8.4h-15.7v60.2c0,6.1,2.8,8,8.2,8s5.2-.7,6.7-1.3h.5v8.7c-2.8,1-5.7,1.5-9.3,1.5ZM992.7,352.5c18.8,0,28.7-16.1,28.7-35.9s-9.8-35.9-28.7-35.9-28.9,16.1-28.9,35.9,9.8,35.9,28.9,35.9ZM992.7,361.1c-24.4,0-39.3-19.2-39.3-44.4s14.9-44.4,39.3-44.4,39,19.2,39,44.4-14.6,44.4-39,44.4ZM1044.5,358.9v-84.8h10.2v15.7h.3c5.2-9.8,14.1-16.4,25.9-16.4s2.1.2,2.8.3v10c-6.1-1-12.8.3-18,4.1-6.6,4.9-11,12.8-11,22.8v48.2h-10.2,0ZM1104.6,387c-3.8,0-6.1-.5-8.7-1.3v-9h.5c1.5.5,3.8,1.1,7.7,1.1,6.4,0,11-2.8,14.1-11.5l2.8-7.5-32.6-84.6h10.8l20.3,54.8c2.9,7.9,6.7,19.4,6.7,19.4h.3s3.6-11.5,6.4-19.4l19.5-54.8h10.5l-34.9,93.6c-5.7,15.2-12.5,19.2-23.4,19.2h0ZM1239.9,361.1c-30.8,0-46.1-17.4-47.4-40.2h11c1.2,19.8,14.6,31,36.6,31s30-8.7,30-24.6-11-20.5-36.1-25.6c-21.6-4.3-36.9-10.8-36.9-31.3s15.7-31,39.2-31,39.2,14.1,41.3,34.3h-10.7c-2-16.6-13.8-25.1-30.5-25.1s-28.7,8.5-28.7,21.5,10.8,18.2,31.8,22.1c22.8,4.4,41.6,10,41.6,34.6s-16.7,34.3-41.3,34.3h0ZM1302.7,387c-3.8,0-6.1-.5-8.7-1.3v-9h.5c1.5.5,3.8,1.1,7.7,1.1,6.4,0,11-2.8,14.1-11.5l2.8-7.5-32.6-84.6h10.8l20.3,54.8c2.9,7.9,6.7,19.4,6.7,19.4h.3s3.6-11.5,6.4-19.4l19.5-54.8h10.5l-34.9,93.6c-5.7,15.2-12.5,19.2-23.4,19.2h0ZM1370.7,358.9v-84.8h10.2v13h.3c5.7-8.5,14.9-14.8,28.4-14.8s27.1,9.4,27.1,26.4v60.2h-10.2v-59.2c0-12.8-7.4-18.7-19.3-18.7s-26.2,10.2-26.2,24.1v53.8h-10.2,0ZM1487.1,361.1c-24.8,0-38.5-19.2-38.5-44.4s14.1-44.4,38.7-44.4,31.3,10.2,34.1,27.5h-10.2c-2.5-12.6-10.8-19-23.9-19-19.5,0-28.2,16.2-28.2,35.9s8.8,35.7,28,35.7,23.4-9,25.1-22.6h9.7c-2,19.2-14.6,31.3-34.8,31.3h0Z"/>
      <rect class="cls-4" x="209.4" y="68" width="18.2" height="174.2" transform="translate(-45.5 109.4) rotate(-25.6)"/>
      <rect class="cls-4" x="221.2" y="155.9" width="161.4" height="18.2" transform="translate(-5.4 319.7) rotate(-55.4)"/>
      <rect class="cls-4" x="133.4" y="300.8" width="170.1" height="18.2" transform="translate(-156.1 369) rotate(-63.8)"/>
      <rect class="cls-4" x="295.2" y="218.1" width="18.2" height="164.9" transform="translate(-118.3 234.5) rotate(-35.8)"/>
      <rect class="cls-4" x="94.4" y="226.9" width="72.9" height="18.2"/>
      <rect class="cls-4" x="257.7" y="226.9" width="150.9" height="18.2"/>
      <g>
        <circle class="cls-6" cx="408.6" cy="236" r="41"/>
        <path class="cls-4" d="M408.6,286.1c-27.6,0-50.1-22.5-50.1-50.1s22.5-50.1,50.1-50.1,50.1,22.5,50.1,50.1-22.5,50.1-50.1,50.1h0ZM408.6,204.1c-17.6,0-31.9,14.3-31.9,31.9s14.3,31.9,31.9,31.9,31.9-14.3,31.9-31.9-14.3-31.9-31.9-31.9Z"/>
      </g>
      <g>
        <circle class="cls-3" cx="256.1" cy="233.7" r="43.3"/>
        <path class="cls-4" d="M256.1,286.1c-28.9,0-52.4-23.5-52.4-52.4s23.5-52.4,52.4-52.4,52.4,23.5,52.4,52.4-23.5,52.4-52.4,52.4ZM256.1,199.5c-18.8,0-34.2,15.3-34.2,34.2s15.3,34.2,34.2,34.2,34.2-15.3,34.2-34.2-15.3-34.2-34.2-34.2Z"/>
      </g>
      <g>
        <circle class="cls-1" cx="344.9" cy="99.3" r="50.1"/>
        <path class="cls-4" d="M344.9,158.5c-32.6,0-59.2-26.6-59.2-59.2s26.6-59.2,59.2-59.2,59.2,26.6,59.2,59.2-26.6,59.2-59.2,59.2ZM344.9,58.4c-22.6,0-41,18.4-41,41s18.4,41,41,41,41-18.4,41-41-18.4-41-41-41Z"/>
      </g>
      <g>
        <circle class="cls-2" cx="180.9" cy="76.6" r="59.2"/>
        <path class="cls-4" d="M180.9,144.9c-37.7,0-68.3-30.6-68.3-68.3S143.3,8.3,180.9,8.3s68.3,30.7,68.3,68.3-30.6,68.3-68.3,68.3ZM180.9,26.5c-27.6,0-50.1,22.5-50.1,50.1s22.5,50.1,50.1,50.1,50.1-22.5,50.1-50.1-22.5-50.1-50.1-50.1Z"/>
      </g>
      <g>
        <circle class="cls-7" cx="180.9" cy="386.3" r="41"/>
        <path class="cls-4" d="M180.9,436.4c-27.6,0-50.1-22.5-50.1-50.1s22.5-50.1,50.1-50.1,50.1,22.5,50.1,50.1-22.5,50.1-50.1,50.1ZM180.9,354.4c-17.6,0-31.9,14.3-31.9,31.9s14.3,31.9,31.9,31.9,31.9-14.3,31.9-31.9-14.3-31.9-31.9-31.9Z"/>
      </g>
      <g>
        <circle class="cls-5" cx="62.5" cy="236" r="50.1"/>
        <path class="cls-4" d="M62.5,295.2c-32.7,0-59.2-26.6-59.2-59.2s26.6-59.2,59.2-59.2,59.2,26.6,59.2,59.2-26.6,59.2-59.2,59.2ZM62.5,195c-22.6,0-41,18.4-41,41s18.4,41,41,41,41-18.4,41-41-18.4-41-41-41Z"/>
      </g>
      <polygon class="cls-4" points="150.9 274.3 138 261.4 163.5 236 138 210.5 150.9 197.6 189.2 236 150.9 274.3"/>
      <g>
        <circle class="cls-2" cx="352.4" cy="367.5" r="51.6"/>
        <path class="cls-4" d="M352.4,428.3c-33.5,0-60.7-27.2-60.7-60.7s27.2-60.7,60.7-60.7,60.7,27.2,60.7,60.7-27.2,60.7-60.7,60.7ZM352.4,325c-23.4,0-42.5,19.1-42.5,42.5s19.1,42.5,42.5,42.5,42.5-19.1,42.5-42.5-19.1-42.5-42.5-42.5Z"/>
      </g>
    </g>
  </g>
</svg>