<svg xmlns="http://www.w3.org/2000/svg" xmlns:xlink="http://www.w3.org/1999/xlink" width="1600" zoomAndPan="magnify" viewBox="0 0 1200 412.499988" height="550" preserveAspectRatio="xMidYMid meet" version="1.0"><defs><g/><clipPath id="a8f63e0c56"><path d="M 89.25 15.730469 L 469.789062 15.730469 L 469.789062 396.269531 L 89.25 396.269531 Z M 89.25 15.730469 " clip-rule="nonzero"/></clipPath><clipPath id="e13d82117a"><path d="M 499 39 L 513.191406 39 L 513.191406 373 L 499 373 Z M 499 39 " clip-rule="nonzero"/></clipPath></defs><path fill="#bf1a21" d="M 218.921875 232.257812 C 208.5 208.105469 213.089844 179.019531 232.796875 159.3125 C 248.511719 143.601562 270.160156 137.546875 290.5 141.03125 L 252.007812 179.519531 L 264.828125 220.609375 L 305.816406 233.535156 L 344.308594 195.042969 C 347.746094 215.433594 341.660156 237.109375 325.949219 252.824219 C 306.246094 272.53125 277.207031 277.074219 253.121094 266.585938 L 155.003906 364.703125 C 145.550781 374.160156 130.226562 374.140625 120.78125 364.660156 C 111.339844 355.183594 111.347656 339.828125 120.808594 330.375 L 218.921875 232.257812 " fill-opacity="1" fill-rule="nonzero"/><g clip-path="url(#a8f63e0c56)"><path fill="#bf1a21" d="M 133.769531 178.652344 C 137.621094 158.078125 145.648438 138.988281 157.046875 122.34375 L 131.53125 84.878906 L 158.304688 58.105469 L 195.769531 83.617188 C 212.410156 72.21875 231.5 64.191406 252.082031 60.34375 L 260.542969 15.753906 L 298.40625 15.753906 L 306.863281 60.34375 C 327.445312 64.191406 346.53125 72.21875 363.175781 83.617188 L 400.640625 58.105469 L 427.414062 84.878906 L 401.898438 122.34375 C 413.296875 138.988281 421.328125 158.078125 425.171875 178.652344 L 469.761719 187.113281 L 469.761719 224.976562 L 425.171875 233.4375 C 421.328125 254.015625 413.296875 273.105469 401.898438 289.746094 L 427.414062 327.214844 L 400.640625 353.988281 L 363.175781 328.472656 C 346.53125 339.871094 327.445312 347.898438 306.867188 351.746094 L 298.40625 396.335938 L 260.542969 396.335938 L 252.082031 351.746094 C 241.421875 349.753906 231.183594 346.589844 221.457031 342.46875 L 255.394531 308.5625 C 263.140625 310.375 271.175781 311.433594 279.472656 311.433594 C 337.675781 311.433594 384.863281 264.253906 384.863281 206.046875 C 384.863281 147.835938 337.675781 100.65625 279.472656 100.65625 C 221.269531 100.65625 174.085938 147.835938 174.085938 206.046875 C 174.085938 214.351562 175.144531 222.398438 176.960938 230.148438 L 143.039062 264.035156 C 138.921875 254.316406 135.765625 244.085938 133.769531 233.4375 L 89.183594 224.976562 L 89.183594 187.113281 L 133.769531 178.652344 " fill-opacity="1" fill-rule="nonzero"/></g><g clip-path="url(#e13d82117a)"><path fill="#222222" d="M 504.242188 47.578125 C 503.640625 85.582031 503.023438 123.59375 502.402344 161.597656 C 501.546875 214.605469 500.679688 267.609375 499.824219 320.621094 C 499.570312 336.832031 499.300781 353.035156 499.042969 369.246094 C 499.003906 372.042969 501.265625 373.171875 503.648438 372.054688 C 506.328125 370.804688 508.285156 367.261719 508.328125 364.371094 C 508.929688 326.367188 509.558594 288.355469 510.167969 250.355469 C 511.027344 197.34375 511.890625 144.339844 512.746094 91.332031 C 513.011719 75.117188 513.273438 58.914062 513.527344 42.703125 C 513.570312 39.90625 511.304688 38.777344 508.921875 39.898438 C 506.253906 41.144531 504.292969 44.695312 504.242188 47.578125 Z M 504.242188 47.578125 " fill-opacity="1" fill-rule="nonzero"/></g><g fill="#222222" fill-opacity="1"><g transform="translate(543.518729, 194.929357)"><g><path d="M 10.375 0 L 10.375 -92.890625 L 47.09375 -92.890625 C 52.625 -92.890625 57.378906 -91.675781 61.359375 -89.25 C 65.335938 -86.832031 68.382812 -83.503906 70.5 -79.265625 C 72.625 -75.023438 73.597656 -70.179688 73.421875 -64.734375 C 73.335938 -61.273438 72.625 -57.859375 71.28125 -54.484375 C 69.945312 -51.109375 67.804688 -48.425781 64.859375 -46.4375 C 67.890625 -44.363281 70.25 -41.660156 71.9375 -38.328125 C 73.625 -35.003906 74.46875 -31.523438 74.46875 -27.890625 C 74.46875 -22.703125 73.234375 -18.007812 70.765625 -13.8125 C 68.304688 -9.625 65 -6.273438 60.84375 -3.765625 C 56.695312 -1.253906 52.113281 0 47.09375 0 Z M 29.0625 -74.34375 L 29.0625 -55.65625 L 45.53125 -55.65625 C 48.21875 -55.65625 50.316406 -56.582031 51.828125 -58.4375 C 53.335938 -60.300781 54.09375 -62.488281 54.09375 -65 C 54.09375 -67.59375 53.335938 -69.796875 51.828125 -71.609375 C 50.316406 -73.429688 48.21875 -74.34375 45.53125 -74.34375 Z M 29.0625 -37.109375 L 29.0625 -18.546875 L 45.53125 -18.546875 C 48.21875 -18.546875 50.445312 -19.453125 52.21875 -21.265625 C 53.988281 -23.085938 54.875 -25.296875 54.875 -27.890625 C 54.875 -30.484375 53.988281 -32.664062 52.21875 -34.4375 C 50.445312 -36.21875 48.21875 -37.109375 45.53125 -37.109375 Z M 29.0625 -37.109375 "/></g></g></g><g fill="#222222" fill-opacity="1"><g transform="translate(624.067918, 194.929357)"><g><path d="M 55 1.296875 C 47.050781 1.296875 40.066406 -0.0390625 34.046875 -2.71875 C 28.035156 -5.40625 23.039062 -9.019531 19.0625 -13.5625 C 15.09375 -18.101562 12.113281 -23.226562 10.125 -28.9375 C 8.132812 -34.644531 7.140625 -40.503906 7.140625 -46.515625 C 7.140625 -52.523438 8.132812 -58.382812 10.125 -64.09375 C 12.113281 -69.800781 15.09375 -74.921875 19.0625 -79.453125 C 23.039062 -83.992188 28.035156 -87.601562 34.046875 -90.28125 C 40.066406 -92.96875 47.050781 -94.3125 55 -94.3125 C 62.957031 -94.3125 69.941406 -92.96875 75.953125 -90.28125 C 81.960938 -87.601562 86.957031 -83.992188 90.9375 -79.453125 C 94.914062 -74.921875 97.898438 -69.800781 99.890625 -64.09375 C 101.878906 -58.382812 102.875 -52.523438 102.875 -46.515625 C 102.875 -40.503906 101.878906 -34.644531 99.890625 -28.9375 C 97.898438 -23.226562 94.914062 -18.101562 90.9375 -13.5625 C 86.957031 -9.019531 81.960938 -5.40625 75.953125 -2.71875 C 69.941406 -0.0390625 62.957031 1.296875 55 1.296875 Z M 55 -17.90625 C 60.28125 -17.90625 64.820312 -18.941406 68.625 -21.015625 C 72.4375 -23.085938 75.460938 -25.832031 77.703125 -29.25 C 79.953125 -32.664062 81.46875 -36.40625 82.25 -40.46875 C 83.03125 -44.539062 83.03125 -48.609375 82.25 -52.671875 C 81.46875 -56.734375 79.953125 -60.472656 77.703125 -63.890625 C 75.460938 -67.304688 72.4375 -70.050781 68.625 -72.125 C 64.820312 -74.207031 60.28125 -75.25 55 -75.25 C 49.726562 -75.25 45.1875 -74.207031 41.375 -72.125 C 37.570312 -70.050781 34.546875 -67.304688 32.296875 -63.890625 C 30.054688 -60.472656 28.546875 -56.734375 27.765625 -52.671875 C 26.984375 -48.609375 26.984375 -44.539062 27.765625 -40.46875 C 28.546875 -36.40625 30.054688 -32.664062 32.296875 -29.25 C 34.546875 -25.832031 37.570312 -23.085938 41.375 -21.015625 C 45.1875 -18.941406 49.726562 -17.90625 55 -17.90625 Z M 55 -17.90625 "/></g></g></g><g fill="#222222" fill-opacity="1"><g transform="translate(733.931378, 194.929357)"><g><path d="M 10.375 -92.765625 L 28.9375 -92.765625 L 28.9375 -18.546875 L 58.375 -18.546875 L 58.375 0 L 10.375 0 Z M 10.375 -92.765625 "/></g></g></g><g fill="#222222" fill-opacity="1"><g transform="translate(797.87783, 194.929357)"><g><path d="M 44.234375 0 L 25.6875 0 L 25.6875 -74.203125 L 2.59375 -74.203125 L 2.59375 -92.625 L 67.328125 -92.625 L 67.328125 -74.203125 L 44.234375 -74.203125 Z M 44.234375 0 "/></g></g></g><g fill="#222222" fill-opacity="1"><g transform="translate(868.828583, 194.929357)"><g><path d="M 4.9375 -52.9375 L 52.15625 -52.9375 L 52.15625 -35.671875 L 4.9375 -35.671875 Z M 4.9375 -52.9375 "/></g></g></g><g fill="#222222" fill-opacity="1"><g transform="translate(927.716403, 194.929357)"><g><path d="M 56.6875 -74.203125 L 28.9375 -74.203125 L 28.9375 -55.65625 L 52.546875 -55.65625 L 52.546875 -37.109375 L 28.9375 -37.109375 L 28.9375 0 L 10.375 0 L 10.375 -92.765625 L 56.6875 -92.765625 Z M 56.6875 -74.203125 "/></g></g></g><g fill="#222222" fill-opacity="1"><g transform="translate(989.328133, 194.929357)"><g><path d="M 28.9375 0 L 10.375 0 L 10.375 -92.765625 L 28.9375 -92.765625 Z M 28.9375 0 "/></g></g></g><g fill="#222222" fill-opacity="1"><g transform="translate(1028.759667, 194.929357)"><g><path d="M 0.78125 0 L 29.96875 -49.421875 L 4.796875 -92.890625 L 27.25 -92.890625 L 41.25 -67.078125 L 55.140625 -92.890625 L 77.0625 -92.890625 L 51.765625 -49.421875 L 80.953125 0 L 59.03125 0 L 41.25 -31.78125 L 23.359375 0 Z M 0.78125 0 "/></g></g></g><g fill="#bf1a21" fill-opacity="1"><g transform="translate(550.697523, 291.508573)"><g><path d="M 13.625 0 L 7.90625 0 L 7.90625 -22.859375 L 0.796875 -22.859375 L 0.796875 -28.53125 L 20.734375 -28.53125 L 20.734375 -22.859375 L 13.625 -22.859375 Z M 13.625 0 "/></g></g></g><g fill="#bf1a21" fill-opacity="1"><g transform="translate(572.551156, 291.508573)"><g><path d="M 17.984375 0 L 3.203125 0 L 3.203125 -28.5625 L 17.5 -28.5625 L 17.5 -22.859375 L 8.90625 -22.859375 L 8.90625 -17.140625 L 16.421875 -17.140625 L 16.421875 -11.421875 L 8.90625 -11.421875 L 8.90625 -5.71875 L 17.984375 -5.71875 Z M 17.984375 0 "/></g></g></g><g fill="#bf1a21" fill-opacity="1"><g transform="translate(592.686902, 291.508573)"><g><path d="M 21.375 -21.9375 C 20.84375 -22.226562 20.195312 -22.503906 19.4375 -22.765625 C 18.675781 -23.035156 17.671875 -23.171875 16.421875 -23.171875 C 14.796875 -23.171875 13.410156 -22.859375 12.265625 -22.234375 C 11.117188 -21.609375 10.195312 -20.773438 9.5 -19.734375 C 8.8125 -18.691406 8.347656 -17.550781 8.109375 -16.3125 C 7.867188 -15.082031 7.867188 -13.847656 8.109375 -12.609375 C 8.347656 -11.367188 8.8125 -10.226562 9.5 -9.1875 C 10.195312 -8.144531 11.117188 -7.3125 12.265625 -6.6875 C 13.410156 -6.0625 14.796875 -5.75 16.421875 -5.75 C 17.671875 -5.75 18.769531 -5.894531 19.71875 -6.1875 C 20.664062 -6.476562 21.40625 -6.757812 21.9375 -7.03125 L 22.6875 -1.125 C 21.8125 -0.769531 20.800781 -0.476562 19.65625 -0.25 C 18.507812 -0.03125 17.429688 0.078125 16.421875 0.078125 C 13.992188 0.078125 11.875 -0.328125 10.0625 -1.140625 C 8.25 -1.953125 6.738281 -3.050781 5.53125 -4.4375 C 4.320312 -5.820312 3.414062 -7.375 2.8125 -9.09375 C 2.21875 -10.8125 1.921875 -12.585938 1.921875 -14.421875 C 1.921875 -16.265625 2.21875 -18.039062 2.8125 -19.75 C 3.414062 -21.46875 4.320312 -23.019531 5.53125 -24.40625 C 6.738281 -25.789062 8.25 -26.890625 10.0625 -27.703125 C 11.875 -28.515625 13.992188 -28.921875 16.421875 -28.921875 C 18.492188 -28.921875 20.367188 -28.550781 22.046875 -27.8125 Z M 21.375 -21.9375 "/></g></g></g><g fill="#bf1a21" fill-opacity="1"><g transform="translate(616.737883, 291.508573)"><g><path d="M 23.171875 0 L 17.453125 0 L 17.453125 -11.421875 L 8.90625 -11.421875 L 8.90625 0 L 3.203125 0 L 3.203125 -28.5625 L 8.90625 -28.5625 L 8.90625 -17.140625 L 17.453125 -17.140625 L 17.453125 -28.5625 L 23.171875 -28.5625 Z M 23.171875 0 "/></g></g></g><g fill="#bf1a21" fill-opacity="1"><g transform="translate(643.146031, 291.508573)"><g><path d="M 8.90625 -15.546875 L 8.90625 0 L 3.203125 0 L 3.203125 -29.171875 L 4.71875 -29.171875 L 19.140625 -12.390625 L 19.140625 -28.53125 L 24.890625 -28.53125 L 24.890625 0.59375 L 23.375 0.59375 Z M 8.90625 -15.546875 "/></g></g></g><g fill="#bf1a21" fill-opacity="1"><g transform="translate(671.272117, 291.508573)"><g><path d="M 8.90625 0 L 3.203125 0 L 3.203125 -28.5625 L 8.90625 -28.5625 Z M 8.90625 0 "/></g></g></g><g fill="#bf1a21" fill-opacity="1"><g transform="translate(683.417472, 291.508573)"><g><path d="M 21.375 -21.9375 C 20.84375 -22.226562 20.195312 -22.503906 19.4375 -22.765625 C 18.675781 -23.035156 17.671875 -23.171875 16.421875 -23.171875 C 14.796875 -23.171875 13.410156 -22.859375 12.265625 -22.234375 C 11.117188 -21.609375 10.195312 -20.773438 9.5 -19.734375 C 8.8125 -18.691406 8.347656 -17.550781 8.109375 -16.3125 C 7.867188 -15.082031 7.867188 -13.847656 8.109375 -12.609375 C 8.347656 -11.367188 8.8125 -10.226562 9.5 -9.1875 C 10.195312 -8.144531 11.117188 -7.3125 12.265625 -6.6875 C 13.410156 -6.0625 14.796875 -5.75 16.421875 -5.75 C 17.671875 -5.75 18.769531 -5.894531 19.71875 -6.1875 C 20.664062 -6.476562 21.40625 -6.757812 21.9375 -7.03125 L 22.6875 -1.125 C 21.8125 -0.769531 20.800781 -0.476562 19.65625 -0.25 C 18.507812 -0.03125 17.429688 0.078125 16.421875 0.078125 C 13.992188 0.078125 11.875 -0.328125 10.0625 -1.140625 C 8.25 -1.953125 6.738281 -3.050781 5.53125 -4.4375 C 4.320312 -5.820312 3.414062 -7.375 2.8125 -9.09375 C 2.21875 -10.8125 1.921875 -12.585938 1.921875 -14.421875 C 1.921875 -16.265625 2.21875 -18.039062 2.8125 -19.75 C 3.414062 -21.46875 4.320312 -23.019531 5.53125 -24.40625 C 6.738281 -25.789062 8.25 -26.890625 10.0625 -27.703125 C 11.875 -28.515625 13.992188 -28.921875 16.421875 -28.921875 C 18.492188 -28.921875 20.367188 -28.550781 22.046875 -27.8125 Z M 21.375 -21.9375 "/></g></g></g><g fill="#bf1a21" fill-opacity="1"><g transform="translate(707.468453, 291.508573)"><g><path d="M 0.640625 0 L 12.671875 -29.609375 L 13.265625 -29.609375 L 25.296875 0 L 18.859375 0 L 17.703125 -3.078125 L 8.234375 -3.078125 L 7.109375 0 Z M 10.3125 -8.4375 L 15.578125 -8.4375 L 12.984375 -15.859375 Z M 10.3125 -8.4375 "/></g></g></g><g fill="#bf1a21" fill-opacity="1"><g transform="translate(733.557012, 291.508573)"><g><path d="M 3.203125 -28.5625 L 8.90625 -28.5625 L 8.90625 -5.71875 L 17.984375 -5.71875 L 17.984375 0 L 3.203125 0 Z M 3.203125 -28.5625 "/></g></g></g><g fill="#bf1a21" fill-opacity="1"><g transform="translate(753.253278, 291.508573)"><g/></g></g><g fill="#bf1a21" fill-opacity="1"><g transform="translate(764.599584, 291.508573)"><g><path d="M 1.875 -1.84375 L 2.59375 -7.828125 C 3.6875 -7.054688 4.769531 -6.503906 5.84375 -6.171875 C 6.925781 -5.835938 7.90625 -5.644531 8.78125 -5.59375 C 9.664062 -5.539062 10.320312 -5.523438 10.75 -5.546875 C 11.601562 -5.609375 12.328125 -5.910156 12.921875 -6.453125 C 13.523438 -6.992188 13.785156 -7.65625 13.703125 -8.4375 C 13.648438 -9.257812 13.34375 -9.882812 12.78125 -10.3125 C 12.226562 -10.738281 11.550781 -11.082031 10.75 -11.34375 C 9.257812 -11.90625 7.867188 -12.550781 6.578125 -13.28125 C 5.285156 -14.019531 4.242188 -14.929688 3.453125 -16.015625 C 2.671875 -17.109375 2.28125 -18.457031 2.28125 -20.0625 C 2.28125 -21.65625 2.617188 -23.097656 3.296875 -24.390625 C 3.972656 -25.679688 4.921875 -26.710938 6.140625 -27.484375 C 7.367188 -28.253906 8.769531 -28.679688 10.34375 -28.765625 C 11.09375 -28.816406 12.003906 -28.789062 13.078125 -28.6875 C 14.160156 -28.582031 15.617188 -28.207031 17.453125 -27.5625 L 16.734375 -22.046875 C 15.171875 -22.691406 13.921875 -23.0625 12.984375 -23.15625 C 12.054688 -23.25 11.363281 -23.28125 10.90625 -23.25 C 9.894531 -23.195312 9.15625 -22.847656 8.6875 -22.203125 C 8.21875 -21.566406 8.015625 -20.851562 8.078125 -20.0625 C 8.148438 -19.257812 8.492188 -18.648438 9.109375 -18.234375 C 9.722656 -17.828125 10.441406 -17.476562 11.265625 -17.1875 C 12.753906 -16.644531 14.125 -15.984375 15.375 -15.203125 C 16.632812 -14.421875 17.640625 -13.472656 18.390625 -12.359375 C 19.148438 -11.253906 19.53125 -9.945312 19.53125 -8.4375 C 19.53125 -6.863281 19.179688 -5.4375 18.484375 -4.15625 C 17.796875 -2.875 16.804688 -1.847656 15.515625 -1.078125 C 14.222656 -0.304688 12.6875 0.128906 10.90625 0.234375 C 10.375 0.265625 9.644531 0.242188 8.71875 0.171875 C 7.800781 0.109375 6.753906 -0.0703125 5.578125 -0.375 C 4.410156 -0.6875 3.175781 -1.175781 1.875 -1.84375 Z M 1.875 -1.84375 "/></g></g></g><g fill="#bf1a21" fill-opacity="1"><g transform="translate(785.734078, 291.508573)"><g><path d="M 17.984375 0 L 3.203125 0 L 3.203125 -28.5625 L 17.5 -28.5625 L 17.5 -22.859375 L 8.90625 -22.859375 L 8.90625 -17.140625 L 16.421875 -17.140625 L 16.421875 -11.421875 L 8.90625 -11.421875 L 8.90625 -5.71875 L 17.984375 -5.71875 Z M 17.984375 0 "/></g></g></g><g fill="#bf1a21" fill-opacity="1"><g transform="translate(805.869824, 291.508573)"><g><path d="M 17.421875 0 L 11.671875 -10.90625 L 8.90625 -10.90625 L 8.90625 0 L 3.203125 0 L 3.203125 -28.5625 L 14.46875 -28.5625 C 16.164062 -28.5625 17.609375 -28.207031 18.796875 -27.5 C 19.984375 -26.800781 20.910156 -25.882812 21.578125 -24.75 C 22.242188 -23.613281 22.65625 -22.382812 22.8125 -21.0625 C 22.96875 -19.75 22.863281 -18.457031 22.5 -17.1875 C 22.144531 -15.925781 21.535156 -14.8125 20.671875 -13.84375 C 19.804688 -12.875 18.671875 -12.1875 17.265625 -11.78125 L 23.890625 0 Z M 8.90625 -16.453125 L 13.9375 -16.453125 C 14.71875 -16.453125 15.335938 -16.664062 15.796875 -17.09375 C 16.265625 -17.519531 16.578125 -18.050781 16.734375 -18.6875 C 16.898438 -19.332031 16.898438 -19.972656 16.734375 -20.609375 C 16.578125 -21.253906 16.265625 -21.789062 15.796875 -22.21875 C 15.335938 -22.644531 14.71875 -22.859375 13.9375 -22.859375 L 8.90625 -22.859375 Z M 8.90625 -16.453125 "/></g></g></g><g fill="#bf1a21" fill-opacity="1"><g transform="translate(830.360285, 291.508573)"><g><path d="M 12.0625 0.59375 L 0.234375 -28.5625 L 6.828125 -28.5625 L 10.625 -19.0625 L 12.703125 -13.140625 L 14.75 -18.859375 L 18.578125 -28.5625 L 25.171875 -28.5625 L 13.34375 0.59375 Z M 12.0625 0.59375 "/></g></g></g><g fill="#bf1a21" fill-opacity="1"><g transform="translate(855.809614, 291.508573)"><g><path d="M 8.90625 0 L 3.203125 0 L 3.203125 -28.5625 L 8.90625 -28.5625 Z M 8.90625 0 "/></g></g></g><g fill="#bf1a21" fill-opacity="1"><g transform="translate(867.95497, 291.508573)"><g><path d="M 21.375 -21.9375 C 20.84375 -22.226562 20.195312 -22.503906 19.4375 -22.765625 C 18.675781 -23.035156 17.671875 -23.171875 16.421875 -23.171875 C 14.796875 -23.171875 13.410156 -22.859375 12.265625 -22.234375 C 11.117188 -21.609375 10.195312 -20.773438 9.5 -19.734375 C 8.8125 -18.691406 8.347656 -17.550781 8.109375 -16.3125 C 7.867188 -15.082031 7.867188 -13.847656 8.109375 -12.609375 C 8.347656 -11.367188 8.8125 -10.226562 9.5 -9.1875 C 10.195312 -8.144531 11.117188 -7.3125 12.265625 -6.6875 C 13.410156 -6.0625 14.796875 -5.75 16.421875 -5.75 C 17.671875 -5.75 18.769531 -5.894531 19.71875 -6.1875 C 20.664062 -6.476562 21.40625 -6.757812 21.9375 -7.03125 L 22.6875 -1.125 C 21.8125 -0.769531 20.800781 -0.476562 19.65625 -0.25 C 18.507812 -0.03125 17.429688 0.078125 16.421875 0.078125 C 13.992188 0.078125 11.875 -0.328125 10.0625 -1.140625 C 8.25 -1.953125 6.738281 -3.050781 5.53125 -4.4375 C 4.320312 -5.820312 3.414062 -7.375 2.8125 -9.09375 C 2.21875 -10.8125 1.921875 -12.585938 1.921875 -14.421875 C 1.921875 -16.265625 2.21875 -18.039062 2.8125 -19.75 C 3.414062 -21.46875 4.320312 -23.019531 5.53125 -24.40625 C 6.738281 -25.789062 8.25 -26.890625 10.0625 -27.703125 C 11.875 -28.515625 13.992188 -28.921875 16.421875 -28.921875 C 18.492188 -28.921875 20.367188 -28.550781 22.046875 -27.8125 Z M 21.375 -21.9375 "/></g></g></g><g fill="#bf1a21" fill-opacity="1"><g transform="translate(892.00595, 291.508573)"><g><path d="M 17.984375 0 L 3.203125 0 L 3.203125 -28.5625 L 17.5 -28.5625 L 17.5 -22.859375 L 8.90625 -22.859375 L 8.90625 -17.140625 L 16.421875 -17.140625 L 16.421875 -11.421875 L 8.90625 -11.421875 L 8.90625 -5.71875 L 17.984375 -5.71875 Z M 17.984375 0 "/></g></g></g><g fill="#bf1a21" fill-opacity="1"><g transform="translate(912.141696, 291.508573)"><g><path d="M 1.875 -1.84375 L 2.59375 -7.828125 C 3.6875 -7.054688 4.769531 -6.503906 5.84375 -6.171875 C 6.925781 -5.835938 7.90625 -5.644531 8.78125 -5.59375 C 9.664062 -5.539062 10.320312 -5.523438 10.75 -5.546875 C 11.601562 -5.609375 12.328125 -5.910156 12.921875 -6.453125 C 13.523438 -6.992188 13.785156 -7.65625 13.703125 -8.4375 C 13.648438 -9.257812 13.34375 -9.882812 12.78125 -10.3125 C 12.226562 -10.738281 11.550781 -11.082031 10.75 -11.34375 C 9.257812 -11.90625 7.867188 -12.550781 6.578125 -13.28125 C 5.285156 -14.019531 4.242188 -14.929688 3.453125 -16.015625 C 2.671875 -17.109375 2.28125 -18.457031 2.28125 -20.0625 C 2.28125 -21.65625 2.617188 -23.097656 3.296875 -24.390625 C 3.972656 -25.679688 4.921875 -26.710938 6.140625 -27.484375 C 7.367188 -28.253906 8.769531 -28.679688 10.34375 -28.765625 C 11.09375 -28.816406 12.003906 -28.789062 13.078125 -28.6875 C 14.160156 -28.582031 15.617188 -28.207031 17.453125 -27.5625 L 16.734375 -22.046875 C 15.171875 -22.691406 13.921875 -23.0625 12.984375 -23.15625 C 12.054688 -23.25 11.363281 -23.28125 10.90625 -23.25 C 9.894531 -23.195312 9.15625 -22.847656 8.6875 -22.203125 C 8.21875 -21.566406 8.015625 -20.851562 8.078125 -20.0625 C 8.148438 -19.257812 8.492188 -18.648438 9.109375 -18.234375 C 9.722656 -17.828125 10.441406 -17.476562 11.265625 -17.1875 C 12.753906 -16.644531 14.125 -15.984375 15.375 -15.203125 C 16.632812 -14.421875 17.640625 -13.472656 18.390625 -12.359375 C 19.148438 -11.253906 19.53125 -9.945312 19.53125 -8.4375 C 19.53125 -6.863281 19.179688 -5.4375 18.484375 -4.15625 C 17.796875 -2.875 16.804688 -1.847656 15.515625 -1.078125 C 14.222656 -0.304688 12.6875 0.128906 10.90625 0.234375 C 10.375 0.265625 9.644531 0.242188 8.71875 0.171875 C 7.800781 0.109375 6.753906 -0.0703125 5.578125 -0.375 C 4.410156 -0.6875 3.175781 -1.175781 1.875 -1.84375 Z M 1.875 -1.84375 "/></g></g></g></svg>