<svg xmlns="http://www.w3.org/2000/svg" xmlns:xlink="http://www.w3.org/1999/xlink" id="Layer_1" x="0px" y="0px" viewBox="0 0 1080 1080" style="enable-background:new 0 0 1080 1080;" xml:space="preserve"><style type="text/css">	.st0{stroke:#FFFFFF;stroke-width:3.3298;stroke-miterlimit:10;}	.st1{fill:#FFFFFF;}</style><g>	<circle class="st0" cx="539.73" cy="539.66" r="459.14"></circle>	<g>		<g>			<path class="st1" d="M529.84,781.7c-21.25,0-42.83-2.8-64.29-8.67l0,0c-129.94-35.48-206.78-170.05-171.29-300    c35.5-129.93,170.08-206.77,300-171.28c129.93,35.48,206.78,170.07,171.28,300C735.92,710.22,637.23,781.7,529.84,781.7    L529.84,781.7z M466.49,769.59c128.03,34.96,260.64-40.75,295.61-168.78c34.96-128.03-40.75-260.64-168.78-295.61    c-128.03-34.96-260.64,40.75-295.61,168.78C262.75,602.01,338.46,734.62,466.49,769.59L466.49,769.59z"></path>			<path class="st1" d="M529.83,801.35c-22.95,0-46.27-3.02-69.46-9.36l11.31-41.37c117.56,32.12,239.35-37.43,271.46-155    c32.11-117.57-37.42-239.35-155-271.46l11.31-41.38c140.38,38.34,223.4,183.75,185.07,324.14    C752.49,724.13,645.87,801.35,529.83,801.35L529.83,801.35z"></path>			<polygon class="st1" points="433.5,891.37 430.04,890.42 622.74,187.94 626.18,188.89 433.5,891.37    "></polygon>		</g>	</g></g></svg>