<svg xmlns="http://www.w3.org/2000/svg" width="208" height="208" viewBox="0 0 208 208" fill="none"><g id="BBC Logo Round" clip-path="url(#clip0_13_2)"><path id="Vector" d="M208 103.996C208 83.4254 201.9 63.3172 190.472 46.2137C179.044 29.1103 162.801 15.7797 143.796 7.90789C124.792 0.0360308 103.88 -2.02361 83.7052 1.98943C63.5303 6.00247 44.9985 15.9079 30.4532 30.4532C15.9079 44.9985 6.00247 63.5303 1.98943 83.7052C-2.02361 103.88 0.0360308 124.792 7.90789 143.796C15.7797 162.801 29.1103 179.044 46.2137 190.472C63.3172 201.9 83.4254 208 103.996 208C131.576 207.988 158.023 197.027 177.525 177.525C197.027 158.023 207.988 131.576 208 103.996ZM204.837 103.996C204.839 123.94 198.926 143.438 187.846 160.022C176.767 176.607 161.018 189.533 142.592 197.167C124.166 204.801 103.89 206.799 84.3279 202.909C64.766 199.019 46.7969 189.416 32.6931 175.313C18.5893 161.211 8.98415 143.243 5.09243 123.681C1.20072 104.119 3.19719 83.8432 10.8294 65.4163C18.4615 46.9894 31.3866 31.2396 47.9701 20.1586C64.5536 9.07762 84.0506 3.16315 103.996 3.16315C130.731 3.187 156.366 13.8178 175.272 32.7221C194.178 51.6264 204.811 77.2596 204.837 103.996Z" fill="black"></path><path id="Vector_2" d="M54.8635 103.996C54.8635 94.276 57.7458 84.7747 63.1459 76.6933C68.546 68.6119 76.2213 62.3134 85.2012 58.5943C94.181 54.8752 104.062 53.9025 113.595 55.7994C123.127 57.6962 131.884 62.3774 138.756 69.2507C145.628 76.1241 150.307 84.8811 152.202 94.4141C154.098 103.947 153.123 113.828 149.402 122.807C145.682 131.786 139.382 139.461 131.299 144.859C123.217 150.258 113.715 153.138 103.996 153.137C90.9655 153.129 78.4714 147.949 69.2587 138.735C60.0459 129.521 54.8683 117.025 54.8635 103.996ZM51.7274 103.996C51.7274 114.333 54.7929 124.439 60.5362 133.034C66.2795 141.63 74.4426 148.329 83.9934 152.285C93.5441 156.241 104.053 157.276 114.193 155.259C124.332 153.243 133.645 148.264 140.955 140.955C148.264 133.645 153.243 124.332 155.259 114.193C157.276 104.053 156.241 93.5441 152.285 83.9934C148.329 74.4426 141.63 66.2795 133.034 60.5362C124.439 54.7929 114.333 51.7274 103.996 51.7274C90.1332 51.7274 76.8386 57.2342 67.0364 67.0364C57.2342 76.8386 51.7274 90.1332 51.7274 103.996Z" fill="black"></path><path id="Vector_3" d="M45.6985 147.54C45.7003 148.396 45.4481 149.233 44.9739 149.946C44.4997 150.658 43.8247 151.214 43.0345 151.543C42.2442 151.872 41.3742 151.959 40.5345 151.793C39.6948 151.627 38.9232 151.216 38.3174 150.611C37.7115 150.007 37.2987 149.236 37.131 148.396C36.9634 147.557 37.0485 146.687 37.3756 145.896C37.7028 145.105 38.2572 144.429 38.9687 143.953C39.6803 143.478 40.517 143.224 41.3729 143.224C42.5185 143.224 43.6174 143.678 44.4284 144.487C45.2393 145.297 45.6961 146.395 45.6985 147.54Z" fill="#1B1C1C"></path><path id="Vector_4" d="M162.374 147.54C162.374 148.394 162.627 149.229 163.101 149.938C163.575 150.648 164.25 151.202 165.038 151.528C165.827 151.855 166.695 151.941 167.532 151.774C168.37 151.607 169.139 151.196 169.742 150.593C170.346 149.989 170.757 149.22 170.924 148.382C171.09 147.545 171.005 146.677 170.678 145.888C170.351 145.1 169.798 144.425 169.088 143.951C168.378 143.477 167.544 143.224 166.69 143.224C165.545 143.224 164.447 143.678 163.638 144.488C162.828 145.297 162.374 146.395 162.374 147.54Z" fill="#1B1C1C"></path><path id="Vector_5" d="M42.0758 120.856C40.2735 115.071 37.0202 112.295 32.7847 113.593C28.5492 114.891 27.9364 118.495 28.8376 123.136C26.8279 118.874 23.8631 117.729 21.475 118.459C18.5281 119.36 16.9691 122.524 18.6182 127.85L21.9256 138.664L22.5384 138.474L22.3401 137.826C21.7814 136.023 22.1779 135.582 24.575 134.852L40.9944 129.769C43.3915 129.039 43.9593 129.183 44.518 130.995L44.7162 131.634L45.329 131.445L42.0758 120.82V120.856ZM20.727 132.256L19.5735 128.471C18.6723 125.434 19.8979 122.965 22.8087 122.073C25.2689 121.325 28.1076 121.83 29.4864 126.354L30.3876 129.3L20.727 132.256ZM31.1986 129.048L30.2975 126.074C28.9277 121.622 29.91 118.703 33.9022 117.477C37.2005 116.468 40.1563 117.369 41.6162 122.118L42.6616 125.543L31.2257 129.048H31.1986ZM39.8679 92.2532L33.01 91.2709V91.9197C38.417 93.2084 39.0028 95.4703 38.9758 100.274V103.752L19.0057 103.626C16.5095 103.626 16.0048 103.302 16.0139 101.274V100.67H15.374L15.3199 110.078H15.9598V109.466C15.9598 107.438 16.4825 107.141 18.9877 107.159L36.11 107.267C38.6063 107.267 39.1109 107.582 39.1019 109.61V110.223H39.7508L39.8589 92.2441L39.8679 92.2532ZM44.6442 80.4027C46.834 73.9413 44.545 70.3817 38.5342 68.336L27.3596 64.533C25.6654 63.9563 25.0076 62.8388 25.4942 61.3969L25.7015 60.7932L25.0977 60.5859L22.8177 67.2996L23.4215 67.5069L23.6828 66.7409C24.1695 65.299 25.368 64.8214 27.0713 65.3892L38.2638 69.2011C44.5721 71.3549 45.4732 75.1038 44.0404 79.3033C42.7156 83.2054 40.1473 85.5034 33.6859 83.3135L22.5293 79.5015C20.1953 78.7085 19.8258 78.2579 20.5107 76.2122L20.6369 75.8247L20.0331 75.6265L17.0322 84.458L17.636 84.6563L17.7711 84.2778C18.465 82.2321 19.0418 82.1059 21.3758 82.899L32.992 86.8461C38.2098 88.6485 42.3732 87.2787 44.7072 80.4027H44.6442ZM60.3787 55.4762L55.6114 50.4657L55.2329 50.9433C58.6754 55.26 57.8464 57.4859 54.8905 61.2618L52.4934 64.3258L43.2023 57.0803L44.2386 55.7556C46.5276 52.8178 48.1587 52.1509 50.7 54.0163L51.0515 53.5657L44.2566 48.2578L43.9052 48.7174C46.5096 50.8712 45.5814 52.9349 43.7069 55.3321L42.6706 56.6658L34.4158 50.2134L36.1371 48.0055C39.2641 44.0133 41.2017 42.5985 44.8514 43.8331L45.2209 43.3554L40.6339 41.0484L29.8198 54.8454L30.3245 55.2419L30.6579 54.8184C31.9016 53.2143 32.4603 53.2864 34.4609 54.8184L47.9785 65.3892C49.9521 66.9302 50.1684 67.4799 48.8797 69.075L48.5462 69.5075L49.0509 69.904L60.3787 55.4762ZM81.2859 43.8331C86.8642 41.49 89.2973 37.9484 87.5941 33.8661C85.8909 29.7838 82.1871 29.5495 77.6812 30.9012C81.7185 28.4771 82.5565 25.4131 81.5923 23.1061C80.4027 20.2674 77.0864 19.0508 71.9587 21.2046L61.5682 25.5753L61.8205 26.1701L62.4423 25.9087C64.1906 25.1698 64.6682 25.5212 65.6325 27.8282L72.2741 43.6618C73.2384 45.9689 73.1753 46.5546 71.373 47.2665L70.7512 47.5279L71.0035 48.1227L81.2859 43.8331ZM67.7683 23.7639L71.373 22.2319C74.3018 21.0063 76.8882 22.0066 78.0687 24.8183C79.06 27.1794 78.8347 30.0631 74.464 31.8925L71.6343 33.0821L67.8133 23.7639H67.7683ZM72.0939 33.8571L74.9597 32.6585C79.2583 30.8562 82.2592 31.5411 83.8813 35.362C85.215 38.5432 84.6202 41.5801 80.0333 43.4726L76.6899 44.9235L72.0939 33.8571ZM102.572 40.1653C109.321 39.6967 114.287 33.6588 113.8 26.6477C113.314 19.6365 107.519 14.4187 100.769 14.8423C94.0195 15.2658 89.054 21.3758 89.5497 28.3599C90.0453 35.344 95.7858 40.6339 102.527 40.1653H102.572ZM102.518 39.3542C98.3722 39.6426 94.2718 36.2001 93.7041 28.0715C93.1363 19.9429 96.723 15.9778 100.913 15.6894C105.104 15.401 109.159 18.8705 109.718 26.9631C110.277 35.0556 106.699 39.0659 102.509 39.3542H102.518ZM127.967 29.5044L133.527 24.4849C136.537 21.7813 137.934 21.7813 139.835 22.277L139.997 21.6552L133.058 19.8528L132.896 20.4746C134.338 20.8441 134.762 21.3758 134.599 21.9976C134.231 22.808 133.664 23.5118 132.95 24.0433L127.777 28.7474L125.263 21.1595C125.035 20.6101 124.963 20.008 125.056 19.4203C125.236 18.7083 126.11 18.7173 127.642 19.1229L127.805 18.5011L118.225 16.0048L118.063 16.6266C120.027 17.1403 120.523 17.5278 121.622 20.9432L124.65 30.4957L118.955 35.5693C114.99 39.1199 113.061 39.2821 111.43 38.8496L111.268 39.4714L118.766 41.454L118.928 40.8322C117.549 40.4807 116.927 39.931 117.126 39.0839C117.324 38.2368 118.099 37.3446 119.559 36.0469L124.849 31.2797L127.651 40.1112C127.924 40.7847 128.02 41.5168 127.931 42.238C127.777 42.8328 127.246 43.004 126.263 42.7517L125.939 42.6615L125.777 43.2833L135.329 45.7706L135.492 45.1488C133.13 44.536 132.581 43.9773 131.31 40.0121L127.967 29.5044ZM150.433 60.1443C152.764 62.3825 155.705 63.8812 158.886 64.4519L163.113 61.0094L162.707 60.6039C157.201 64.3258 153.173 61.6583 151.235 59.7027C147.567 56.053 148.225 50.7901 153.299 45.6895C159.328 39.6246 164.347 39.4714 167.799 42.9049C170.836 45.9328 170.781 50.5468 168.88 54.0344L169.286 54.4399L174.738 48.1317L174.332 47.7261C173.188 48.6273 172.53 48.5642 171.944 48.0145C170.917 46.9962 170.718 44.6081 168.177 42.0758C163.554 37.4798 155.687 37.4798 150.424 42.7697C149.268 43.9068 148.351 45.2626 147.724 46.7579C147.098 48.2532 146.775 49.8583 146.775 51.4795C146.775 53.1008 147.098 54.7058 147.724 56.2012C148.351 57.6965 149.268 59.0522 150.424 60.1894L150.433 60.1443ZM161.716 75.1669L162.31 74.9326C161.716 73.4186 161.635 72.3642 163.049 71.8145C163.831 71.5439 164.656 71.4187 165.483 71.445H169.718L172.881 79.5556L168.294 83.8812C168.043 84.1608 167.736 84.3849 167.393 84.5391C166.699 84.8094 165.969 84.2597 165.519 83.0972L165.374 82.7187L164.771 82.953L168.375 92.145L168.97 91.9107C168.15 89.802 168.493 89.1171 170.466 87.1886L187.102 70.8953L186.94 70.4898L165.374 70.5349C161.094 70.5349 160.157 69.3363 159.49 67.6421L158.895 67.8764L161.761 75.2119L161.716 75.1669ZM181.722 71.3009L173.53 78.8527L170.628 71.427L181.722 71.3009ZM168.33 105.545H168.97L168.925 104.428C168.835 102.436 169.331 102.112 171.827 102.004L180.739 101.607L180.812 103.293C180.983 107.014 180.172 108.564 177.036 108.808V109.384L185.642 109.042V108.465C182.262 108.465 181.623 106.339 181.487 103.302L181.415 101.616L191.878 101.157L192.004 103.95C192.229 109.015 191.689 111.376 188.102 112.782V113.395L193.086 112.16L192.311 94.6232H191.671V95.1639C191.761 97.1916 191.265 97.516 188.769 97.6332L171.647 98.3901C169.141 98.4983 168.628 98.2189 168.538 96.1913V95.6506H167.898L168.33 105.509V105.545ZM193.563 127.228C193.239 133.257 194.681 135.212 196.15 135.636C196.298 135.688 196.457 135.708 196.614 135.694C196.771 135.681 196.924 135.634 197.062 135.558C197.199 135.481 197.32 135.376 197.414 135.25C197.508 135.124 197.575 134.979 197.609 134.825C197.844 134.014 197.321 133.374 196.294 132.653C194.05 131.058 194.014 129.949 194.086 127.246L193.563 127.228ZM163.437 129.436L169.745 132.265L169.916 131.68C165.104 128.976 165.041 126.588 166.366 121.983L167.429 118.243L178.775 121.487L178.306 123.109C177.279 126.714 176.017 127.904 172.971 127.138L172.809 127.696L181.1 130.066L181.253 129.508C178.036 128.48 178.117 126.227 178.955 123.299L179.424 121.676L189.49 124.56L188.724 127.264C187.327 132.139 186.065 134.203 182.217 134.401L182.046 134.987L187.165 135.392L191.986 118.567L191.364 118.387L191.22 118.91C190.661 120.856 190.085 121.01 187.688 120.325L171.223 115.63C168.817 114.936 168.42 114.503 168.979 112.557L169.123 112.034L168.511 111.863L163.464 129.472L163.437 129.436Z" fill="#231F20"></path><path id="Vector_6" d="M73.5809 181.623C77.6812 183.191 81.3039 181.478 82.7548 177.666C84.2057 173.854 82.6467 170.169 78.5463 168.61L72.6887 166.375L72.5535 166.717L72.914 166.852C73.9233 167.24 73.9864 167.564 73.4727 168.898L69.9942 178.027C69.4805 179.361 69.2192 179.568 68.1918 179.189L67.8314 179.045L67.7052 179.388L73.5628 181.623H73.5809ZM75.96 168.105L78.1768 168.952C81.2138 170.106 82.151 172.674 80.5559 176.837C78.9609 181.001 76.5277 182.244 73.4907 181.127L71.3189 180.298L75.96 168.105ZM92.1811 186.795C96.0381 187.327 97.7774 185.669 98.273 182.082L99.1742 175.414C99.3094 174.404 99.8681 173.918 100.724 174.035H101.085L101.139 173.674L97.1285 173.125V173.485L97.5881 173.548C98.4443 173.665 98.8408 174.287 98.7056 175.296L97.8044 181.965C97.2817 185.741 95.2811 186.633 92.7759 186.282C90.4598 185.966 88.8918 184.777 89.4235 180.929L90.3247 174.26C90.5139 172.863 90.7212 172.602 91.9468 172.773H92.1721L92.2261 172.413L86.9633 171.692L86.9092 172.052H87.1435C88.3601 172.223 88.4953 172.53 88.306 173.927L87.3508 180.848C86.9182 183.948 88.1168 186.137 92.2081 186.696L92.1811 186.795ZM110.944 187.102C114.377 186.804 116.351 185.299 116.098 182.794C115.846 180.289 113.935 179.523 111.25 179.469C113.863 178.856 114.855 177.342 114.728 175.927C114.575 174.179 112.998 172.944 109.835 173.224L103.437 173.773V174.143H103.824C104.897 174.053 105.095 174.323 105.221 175.738L106.068 185.48C106.185 186.894 106.068 187.201 104.969 187.282H104.581V187.642L110.889 187.093L110.944 187.102ZM107.132 173.882L109.375 173.683C109.757 173.615 110.149 173.629 110.525 173.725C110.901 173.821 111.251 173.997 111.553 174.24C111.855 174.484 112.101 174.79 112.274 175.137C112.447 175.484 112.543 175.864 112.557 176.252C112.683 177.703 112.061 179.225 109.375 179.46L107.627 179.613L107.132 173.882ZM107.672 180.091L109.475 179.937C112.115 179.703 113.62 180.595 113.827 182.974C113.999 184.93 113.151 186.471 110.331 186.714L108.303 186.894L107.708 180.091H107.672ZM123.2 185.245L123.091 184.894C122.19 185.146 121.604 185.146 121.37 184.308C121.254 183.852 121.224 183.378 121.28 182.911L121.487 180.514L126.236 179.144L128.453 181.965C128.601 182.129 128.712 182.322 128.778 182.533C128.895 182.938 128.543 183.317 127.877 183.515L127.651 183.578L127.75 183.93L133.157 182.371L133.058 182.019C131.815 182.38 131.454 182.145 130.463 180.929L122.082 170.655L121.848 170.718L120.757 182.938C120.541 185.362 119.811 185.831 118.82 186.119L118.919 186.471L123.227 185.227L123.2 185.245ZM122.046 173.701L125.903 178.739L121.541 180L122.046 173.692V173.701ZM140.583 178.964L140.439 178.631L140.223 178.721C139.105 179.235 138.826 179.036 138.24 177.739L134.203 168.817C133.626 167.537 133.662 167.204 134.789 166.699L134.996 166.6L134.843 166.267L130.012 168.456L130.157 168.79L130.373 168.691C131.49 168.186 131.77 168.375 132.346 169.655L136.384 178.586C136.969 179.883 136.933 180.217 135.807 180.721L135.6 180.821L135.744 181.145L140.583 178.964Z" fill="#231F20"></path></g><defs><clipPath id="clip0_13_2"><rect width="208" height="208" fill="white"></rect></clipPath></defs></svg>