<?xml version="1.0" encoding="UTF-8"?>
<svg xmlns="http://www.w3.org/2000/svg" xmlns:xlink="http://www.w3.org/1999/xlink" id="Layer_1" x="0px" y="0px" viewBox="0 0 141.7 58.7" style="enable-background:new 0 0 141.7 58.7;" xml:space="preserve">
  <style type="text/css">	.st0{fill:#141414;}	.st1{fill:none;}</style>
  <path class="st0" d="M86,43.8c0.4,0,0.9-0.1,1.3-0.3C87.9,43,88,42.5,88,42c0-0.8-0.3-1.3-1.3-2.1l-0.2-0.2 c-0.7-0.5-0.9-0.8-0.9-1.2c0-0.5,0.4-0.8,1-0.8c0.5,0,0.8,0.2,0.9,0.4c0.2,0.2,0.2,0.5,0.2,0.5c0,0.1,0,0.1,0.1,0.1 c0.1,0,0.1-0.1,0.1-0.2c0-0.6,0-0.9,0-1c0-0.1,0-0.1-0.1-0.1c-0.2-0.1-0.5-0.1-1.1-0.1c-1.1,0-1.9,0.6-1.9,1.5 c0,0.7,0.3,1.2,1.2,1.9l0.4,0.3c0.7,0.5,0.8,0.9,0.8,1.3c0,0.4-0.4,0.9-1.1,0.9c-0.5,0-1-0.2-1.2-0.8c0-0.1-0.1-0.3-0.1-0.4 c0-0.1,0-0.1-0.1-0.1c-0.1,0-0.1,0.1-0.1,0.2c0,0.1,0,0.6,0,1.1c0,0.2,0,0.2,0.2,0.3C85.2,43.7,85.5,43.8,86,43.8 M81.4,39.9 c0-1.2,0-1.5,0-1.7c0-0.3,0.1-0.4,0.3-0.5c0.1,0,0.2,0,0.3,0c0.1,0,0.1,0,0.1-0.1s-0.1-0.1-0.2-0.1c-0.3,0-0.9,0-1.1,0 c-0.2,0-0.7,0-1.1,0c-0.1,0-0.2,0-0.2,0.1s0,0.1,0.1,0.1c0.1,0,0.2,0,0.3,0c0.3,0.1,0.3,0.2,0.3,0.5c0,0.3,0,0.5,0,1.7v1.4 c0,0.7,0,1.4,0,1.7c0,0.2-0.1,0.4-0.2,0.4c-0.1,0-0.2,0-0.3,0c-0.1,0-0.1,0-0.1,0.1c0,0.1,0.1,0.1,0.2,0.1c0.2,0,0.4,0,0.6,0 c0.2,0,0.4,0,0.5,0c0.3,0,0.6,0,1,0c0.4,0,0.8,0,1.4,0c0.4,0,0.5,0,0.5-0.2c0.1-0.2,0.1-0.8,0.1-0.9c0-0.1,0-0.1-0.1-0.1 c-0.1,0-0.1,0-0.1,0.1c0,0.2-0.1,0.4-0.2,0.5c-0.2,0.2-0.5,0.2-0.9,0.2c-0.6,0-0.8-0.1-1-0.2c-0.2-0.1-0.2-0.7-0.2-1.7V39.9z  M75.3,41.3c0,0.7,0,1.4,0,1.7c0,0.2-0.1,0.4-0.2,0.4c-0.1,0-0.2,0-0.3,0c-0.1,0-0.1,0-0.1,0.1c0,0.1,0.1,0.1,0.2,0.1 c0.2,0,0.4,0,0.6,0c0.2,0,0.4,0,0.5,0c0.2,0,0.5,0,0.8,0c0.3,0,0.8,0,1.4,0c0.3,0,0.4,0,0.4-0.2c0-0.2,0.1-0.7,0.1-0.9 c0-0.1,0-0.1-0.1-0.1c-0.1,0-0.1,0-0.1,0.1c-0.1,0.3-0.2,0.5-0.4,0.6c-0.2,0.1-0.5,0.1-0.8,0.1c-0.8,0-1-0.1-1-0.7c0-0.2,0-1,0-1.3 v-0.6c0,0,0-0.1,0-0.1c0.2,0,1,0,1.1,0c0.3,0,0.4,0.2,0.5,0.3c0,0.1,0,0.2,0,0.3c0,0,0,0.1,0.1,0.1c0.1,0,0.1-0.1,0.1-0.2 c0-0.1,0-0.4,0-0.5c0-0.4,0.1-0.5,0.1-0.6c0,0,0-0.1-0.1-0.1c0,0-0.1,0-0.1,0.1c-0.1,0.1-0.2,0.1-0.4,0.1c-0.2,0-1.1,0-1.3,0 c0,0-0.1,0-0.1-0.1v-2c0-0.1,0-0.1,0.1-0.1c0.2,0,1,0,1.1,0c0.4,0,0.5,0.1,0.5,0.3c0,0.1,0,0.2,0,0.3c0,0.1,0,0.1,0.1,0.1 s0.1,0,0.1-0.1c0-0.1,0-0.5,0-0.5c0-0.4,0.1-0.5,0.1-0.5c0,0,0-0.1,0-0.1s-0.1,0-0.1,0c-0.1,0-0.2,0-0.3,0c-0.2,0-1.8,0-2,0 c-0.1,0-0.3,0-0.5,0c-0.2,0-0.4,0-0.7,0c-0.1,0-0.2,0-0.2,0.1s0,0.1,0.1,0.1c0.1,0,0.2,0,0.3,0c0.3,0.1,0.3,0.2,0.3,0.5 c0,0.3,0,0.5,0,1.7V41.3z M70.6,41.3c0,0.7,0,1.4,0,1.7c0,0.2-0.1,0.4-0.2,0.4c-0.1,0-0.2,0-0.3,0c-0.1,0-0.1,0-0.1,0.1 c0,0.1,0.1,0.1,0.2,0.1c0.3,0,0.8,0,1,0c0.2,0,0.7,0,1.3,0c0.1,0,0.2,0,0.2-0.1c0,0,0-0.1-0.1-0.1c-0.1,0-0.3,0-0.4,0 c-0.2,0-0.3-0.2-0.3-0.4c0-0.3,0-1,0-1.7V38l1,0c0.7,0,0.9,0.2,1,0.5l0,0.1c0,0.1,0,0.2,0.1,0.2c0,0,0.1,0,0.1-0.1 c0-0.2,0-0.8,0-0.9c0-0.1,0-0.2-0.1-0.2c0,0-0.1,0-0.2,0c-0.1,0-0.3,0-0.6,0h-3.2c-0.3,0-0.6,0-0.8,0c-0.2,0-0.3-0.1-0.3-0.1 c0,0-0.1,0-0.1,0.2c0,0.1-0.2,0.8-0.2,0.9c0,0.1,0,0.1,0.1,0.1c0,0,0.1,0,0.1-0.1c0-0.1,0.1-0.2,0.1-0.3c0.1-0.2,0.3-0.2,0.8-0.2 l1.2,0V41.3z M64.9,43.4c-1.6,0-2.5-1.3-2.5-3c0-2,1.1-2.5,2-2.5c1.3,0,2.4,1.1,2.4,2.9C66.8,43.1,65.5,43.4,64.9,43.4 M64.6,43.8 c2.1,0,3.3-1.5,3.3-3.3c0-1.9-1.3-3-3.3-3c-2.4,0-3.3,1.8-3.3,3.2C61.3,42,62.2,43.8,64.6,43.8 M55.5,40.1 C55.5,40.1,55.4,40.1,55.5,40.1l0-0.2c0-1.2,0-1.5,0-1.7c0-0.3,0.1-0.4,0.3-0.5c0.1,0,0.2,0,0.2,0c0.1,0,0.1,0,0.1-0.1 s-0.1-0.1-0.2-0.1c-0.3,0-0.8,0-1,0c-0.2,0-0.7,0-1.2,0c-0.1,0-0.2,0-0.2,0.1s0,0.1,0.1,0.1c0.1,0,0.2,0,0.3,0 c0.3,0.1,0.3,0.2,0.3,0.5c0,0.3,0,0.5,0,1.7v1.4c0,0.7,0,1.4,0,1.7c0,0.2-0.1,0.4-0.2,0.4c-0.1,0-0.2,0-0.3,0c-0.1,0-0.1,0-0.1,0.1 c0,0.1,0.1,0.1,0.2,0.1c0.3,0,0.8,0,1,0c0.2,0,0.7,0,1.3,0c0.1,0,0.2,0,0.2-0.1c0,0,0-0.1-0.1-0.1c-0.1,0-0.3,0-0.4,0 c-0.2,0-0.3-0.2-0.3-0.4c0-0.3,0-1,0-1.7v-0.7c0,0,0,0,0,0h3.1c0,0,0,0,0,0v0.7c0,0.7,0,1.4,0,1.7c0,0.2-0.1,0.4-0.2,0.4 c-0.1,0-0.2,0-0.3,0c-0.1,0-0.1,0-0.1,0.1c0,0.1,0.1,0.1,0.2,0.1c0.3,0,0.8,0,1,0c0.2,0,0.7,0,1.3,0c0.1,0,0.2,0,0.2-0.1 c0,0,0-0.1-0.1-0.1c-0.1,0-0.3,0-0.4,0c-0.2,0-0.3-0.2-0.3-0.4c0-0.3,0-1,0-1.7v-1.4c0-1.2,0-1.5,0-1.7c0-0.3,0.1-0.4,0.3-0.5 c0.1,0,0.2,0,0.2,0c0.1,0,0.1,0,0.1-0.1s-0.1-0.1-0.2-0.1c-0.3,0-0.8,0-1,0c-0.2,0-0.7,0-1.2,0c-0.1,0-0.2,0-0.2,0.1s0,0.1,0.1,0.1 c0.1,0,0.2,0,0.3,0c0.3,0.1,0.3,0.2,0.3,0.5c0,0.3,0,0.5,0,1.7V40c0,0,0,0.1,0,0.1H55.5z"></path>
  <path class="st0" d="M12.6,5.7L8.3,5.9C6.7,5.9,6,6,5.6,6.6C5.3,7,5.2,7.3,5.1,7.6C5.1,7.8,5,7.9,4.8,7.9c-0.2,0-0.3-0.1-0.3-0.4 c0-0.4,0.5-2.8,0.6-3.1C5.2,4,5.3,3.9,5.5,3.9c0.2,0,0.5,0.3,1.2,0.3c0.8,0.1,1.9,0.1,2.8,0.1h11.2c0.9,0,1.5-0.1,2-0.1 c0.4-0.1,0.6-0.1,0.8-0.1c0.2,0,0.2,0.2,0.2,0.6c0,0.6-0.1,2.4-0.1,3.1c0,0.3-0.1,0.4-0.3,0.4C23.1,8.1,23,8,23,7.6l0-0.3 c-0.1-0.7-0.8-1.4-3.3-1.5l-3.6-0.1v10.9c0,2.4,0,4.5,0.1,5.7c0.1,0.7,0.3,1.3,1.1,1.4c0.4,0.1,1,0.1,1.4,0.1c0.3,0,0.5,0.1,0.5,0.2 c0,0.2-0.2,0.3-0.5,0.3c-1.9,0-3.6-0.1-4.4-0.1c-0.7,0-2.4,0.1-3.6,0.1c-0.4,0-0.6-0.1-0.6-0.3c0-0.1,0.1-0.2,0.5-0.2 c0.4,0,0.8-0.1,1-0.1c0.6-0.1,0.7-0.7,0.8-1.5c0.1-1.1,0.1-3.2,0.1-5.7V5.7z"></path>
  <path class="st0" d="M70.1,23.7c-0.4-0.2-0.5-0.3-0.5-0.9c0-1.4,0.1-3,0.1-3.4c0-0.4,0.1-0.7,0.3-0.7c0.2,0,0.3,0.2,0.3,0.4 c0,0.3,0.1,0.9,0.2,1.3c0.6,1.9,2.2,2.7,3.8,2.7c2.4,0,3.6-1.6,3.6-3c0-1.3-0.4-2.5-2.6-4.2L74.1,15c-2.9-2.3-3.9-4.1-3.9-6.2 c0-2.9,2.4-5,6.1-5c1.7,0,2.8,0.3,3.5,0.4c0.2,0.1,0.4,0.1,0.4,0.3c0,0.3-0.1,1.1-0.1,3.2c0,0.6-0.1,0.8-0.3,0.8 c-0.2,0-0.3-0.2-0.3-0.5c0-0.2-0.1-1.1-0.7-1.7C78.4,5.8,77.7,5,75.9,5c-2,0-3.2,1.1-3.2,2.7c0,1.2,0.6,2.1,2.8,3.8l0.7,0.6 c3.2,2.4,4.4,4.2,4.4,6.7c0,1.5-0.6,3.3-2.5,4.6c-1.3,0.8-2.8,1.1-4.2,1.1C72.4,24.4,71.2,24.2,70.1,23.7"></path>
  <path class="st0" d="M39,14.7c0.1,0,0.1,0,0.1-0.2v-0.5c0-3.4,0-4.2-0.1-4.9c-0.1-0.8-0.3-1-1-1.2c-0.2-0.1-0.6-0.1-0.9-0.1 c-0.3,0-0.4-0.1-0.4-0.2c0-0.2,0.2-0.2,0.5-0.2c1.2,0,2.9,0.1,3.5,0.1c0.6,0,2.1-0.1,3-0.1c0.3,0,0.5,0.1,0.5,0.2 c0,0.2-0.2,0.2-0.4,0.2c-0.2,0-0.4,0-0.7,0.1c-0.6,0.1-0.8,0.4-0.8,1.2c-0.1,0.7-0.1,1.3-0.1,4.7v3.9c0,2,0,3.8,0.1,4.8 c0.1,0.6,0.2,1,0.9,1.2c0.3,0.1,0.8,0.1,1.2,0.1c0.2,0,0.4,0.1,0.4,0.2c0,0.2-0.2,0.2-0.5,0.2c-1.5,0-3-0.1-3.6-0.1 c-0.5,0-2.2,0.1-3,0.1c-0.3,0-0.5-0.1-0.5-0.2c0-0.1,0.1-0.2,0.4-0.2c0.4,0,0.6,0,0.8-0.1c0.5-0.1,0.6-0.5,0.7-1.2 c0.1-0.9,0.1-2.6,0.1-4.7v-1.7c0-0.1-0.1-0.1-0.1-0.1h-8.7c-0.1,0-0.2,0-0.2,0.1v1.7c0,2,0,3.8,0.1,4.7c0.1,0.6,0.2,1,0.9,1.2 c0.3,0.1,0.8,0.1,1.2,0.1c0.3,0,0.4,0.1,0.4,0.2c0,0.2-0.2,0.2-0.5,0.2c-1.5,0-3.1-0.1-3.8-0.1c-0.5,0-2,0.1-3,0.1 c-0.3,0-0.4-0.1-0.4-0.2c0-0.1,0.1-0.2,0.4-0.2c0.3,0,0.6,0,0.8-0.1c0.5-0.1,0.6-0.5,0.7-1.2c0.1-0.9,0.1-2.7,0.1-4.7v-3.9 c0-3.4,0-4,0-4.7c-0.1-0.8-0.3-1-1-1.2c-0.2-0.1-0.6-0.1-0.9-0.1c-0.2,0-0.4-0.1-0.4-0.2c0-0.2,0.2-0.2,0.5-0.2 c1.2,0,2.8,0.1,3.4,0.1c0.6,0,2.2-0.1,3.1-0.1c0.3,0,0.5,0.1,0.5,0.2c0,0.2-0.1,0.2-0.4,0.2c-0.2,0-0.4,0-0.7,0.1 c-0.6,0.1-0.8,0.4-0.9,1.2c-0.1,0.7-0.1,1.5-0.1,4.9v0.5c0,0.1,0.1,0.2,0.2,0.2H39z"></path>
  <path class="st0" d="M48.7,14c0-3.4,0-4,0-4.7c-0.1-0.8-0.3-1-1-1.2c-0.2-0.1-0.6-0.1-0.9-0.1c-0.2,0-0.4-0.1-0.4-0.2 c0-0.2,0.2-0.2,0.5-0.2c1.2,0,2.7,0.1,3.3,0.1c0.7,0,5.8,0,6.3,0c0.4,0,0.8-0.1,1-0.1c0.1,0,0.3-0.1,0.4-0.1c0.1,0,0.2,0.1,0.2,0.2 c0,0.2-0.1,0.4-0.2,1.4c0,0.2-0.1,1.2-0.1,1.5c0,0.1-0.1,0.4-0.3,0.4c-0.2,0-0.2-0.1-0.2-0.3c0-0.2,0-0.6-0.2-0.8 c-0.2-0.4-0.4-0.7-1.5-0.8c-0.4-0.1-3.1-0.1-3.6-0.1c-0.1,0-0.2,0.1-0.2,0.2v5.5c0,0.1,0,0.2,0.2,0.2c0.5,0,3.5,0,4-0.1 c0.5-0.1,0.9-0.1,1.1-0.3c0.2-0.2,0.3-0.3,0.4-0.3c0.1,0,0.2,0.1,0.2,0.2c0,0.1-0.1,0.5-0.2,1.6c-0.1,0.4-0.1,1.3-0.1,1.5 c0,0.2,0,0.5-0.2,0.5c-0.2,0-0.2-0.1-0.2-0.2c0-0.2,0-0.5-0.1-0.8c-0.1-0.4-0.4-0.8-1.3-0.9c-0.4-0.1-3-0.1-3.6-0.1 c-0.1,0-0.1,0.1-0.1,0.2V18c0,0.8,0,2.6,0,3.3c0.1,1.5,0.8,1.9,3.1,1.9c0.6,0,1.6,0,2.2-0.3c0.6-0.3,0.8-0.7,1-1.7 c0.1-0.2,0.1-0.3,0.3-0.3c0.2,0,0.2,0.3,0.2,0.5c0,0.5-0.2,2-0.3,2.5c-0.2,0.6-0.4,0.6-1.2,0.6c-1.7,0-3.1,0-4.2-0.1 c-1.1,0-2-0.1-2.7-0.1c-0.3,0-0.8,0-1.3,0c-0.5,0-1.1,0.1-1.6,0.1c-0.3,0-0.4-0.1-0.4-0.2c0-0.1,0.1-0.2,0.4-0.2 c0.3,0,0.6,0,0.8-0.1c0.5-0.1,0.6-0.5,0.7-1.2c0.1-0.9,0.1-2.7,0.1-4.7V14z"></path>
  <path class="st0" d="M84.3,13.9c0-3.4,0-4,0-4.7c-0.1-0.8-0.3-1-1-1.2c-0.2-0.1-0.6-0.1-0.9-0.1c-0.2,0-0.4-0.1-0.4-0.2 c0-0.2,0.2-0.2,0.5-0.2c1.2,0,2.7,0.1,3.3,0.1c0.7,0,5.8,0,6.3,0c0.4,0,0.8-0.1,1-0.1c0.1,0,0.3-0.1,0.4-0.1c0.1,0,0.2,0.1,0.2,0.2 c0,0.2-0.1,0.4-0.2,1.4c0,0.2-0.1,1.2-0.1,1.5c0,0.1-0.1,0.4-0.3,0.4c-0.2,0-0.2-0.1-0.2-0.3c0-0.2,0-0.6-0.2-0.8 c-0.2-0.4-0.4-0.7-1.5-0.8c-0.4-0.1-3.1-0.1-3.6-0.1c-0.1,0-0.2,0.1-0.2,0.2v5.5c0,0.1,0,0.2,0.2,0.2c0.5,0,3.5,0,4-0.1 c0.5-0.1,0.9-0.1,1.1-0.3c0.2-0.2,0.3-0.3,0.4-0.3c0.1,0,0.2,0.1,0.2,0.2c0,0.1-0.1,0.5-0.2,1.6C93,16.3,93,17.2,93,17.3 c0,0.2,0,0.5-0.2,0.5c-0.2,0-0.2-0.1-0.2-0.2c0-0.2,0-0.5-0.1-0.8c-0.1-0.4-0.4-0.8-1.3-0.9c-0.4-0.1-3-0.1-3.6-0.1 c-0.1,0-0.1,0.1-0.1,0.2v1.8c0,0.8,0,2.7,0,3.3c0.1,1.5,0.8,1.9,3.1,1.9c0.6,0,1.6,0,2.2-0.3c0.6-0.3,0.8-0.7,1-1.7 c0.1-0.2,0.1-0.3,0.3-0.3c0.2,0,0.2,0.3,0.2,0.5c0,0.5-0.2,2-0.3,2.5c-0.2,0.6-0.4,0.6-1.2,0.6c-1.7,0-3.1,0-4.2-0.1 c-1.1,0-2-0.1-2.7-0.1c-0.3,0-0.8,0-1.3,0c-0.5,0-1.1,0.1-1.6,0.1c-0.3,0-0.4-0.1-0.4-0.2c0-0.1,0.1-0.2,0.4-0.2 c0.3,0,0.6,0,0.8-0.1c0.5-0.1,0.6-0.5,0.7-1.2c0.1-0.9,0.1-2.7,0.1-4.7V13.9z"></path>
  <path class="st0" d="M101.7,8.9L98.3,9c-1.3,0-1.9,0.2-2.2,0.7c-0.2,0.3-0.3,0.6-0.4,0.8c-0.1,0.2-0.1,0.3-0.3,0.3 c-0.2,0-0.2-0.1-0.2-0.4c0-0.4,0.4-2.5,0.5-2.7c0.1-0.3,0.1-0.4,0.3-0.4c0.2,0,0.4,0.2,1,0.3c0.7,0.1,1.5,0.1,2.3,0.1h9.4 c0.7,0,1.2-0.1,1.6-0.1c0.4-0.1,0.6-0.1,0.6-0.1c0.2,0,0.2,0.1,0.2,0.5c0,0.5-0.1,2.1-0.1,2.7c0,0.2-0.1,0.4-0.2,0.4 c-0.2,0-0.2-0.1-0.3-0.4l0-0.2c-0.1-0.6-0.7-1.3-2.7-1.3l-2.9-0.1v9c0,2,0,3.8,0.1,4.8c0.1,0.6,0.2,1,0.9,1.2 c0.3,0.1,0.8,0.1,1.2,0.1c0.3,0,0.4,0.1,0.4,0.2c0,0.2-0.2,0.2-0.4,0.2c-1.5,0-3.1-0.1-3.7-0.1c-0.5,0-2.1,0.1-3,0.1 c-0.3,0-0.4-0.1-0.4-0.2c0-0.1,0.1-0.2,0.4-0.2c0.3,0,0.6,0,0.8-0.1c0.5-0.1,0.6-0.5,0.7-1.2c0.1-0.9,0.1-2.7,0.1-4.7V8.9z"></path>
  <path class="st0" d="M120.1,17.5c0.1,0,0.1-0.1,0.1-0.1l-2.2-5.7c0-0.1-0.1-0.2-0.1-0.2c-0.1,0-0.1,0.1-0.1,0.2l-2.2,5.6 c-0.1,0.1,0,0.2,0.1,0.2H120.1z M115.2,18.7c-0.1,0-0.2,0-0.2,0.2l-1.2,3c-0.2,0.6-0.3,1.1-0.3,1.4c0,0.4,0.2,0.6,0.9,0.6h0.3 c0.3,0,0.3,0.1,0.3,0.2c0,0.2-0.1,0.2-0.4,0.2c-0.8,0-1.8-0.1-2.6-0.1c-0.2,0-1.5,0.1-2.7,0.1c-0.3,0-0.4-0.1-0.4-0.2 c0-0.1,0.1-0.2,0.3-0.2c0.2,0,0.5,0,0.7,0c1-0.2,1.4-0.8,1.9-2l6-14c0.3-0.6,0.4-0.9,0.7-0.9c0.3,0,0.4,0.2,0.7,0.7 c0.6,1.2,4.4,10.4,5.9,13.7c0.9,2,1.5,2.3,2,2.4c0.3,0.1,0.6,0.1,0.9,0.1c0.2,0,0.3,0.1,0.3,0.2c0,0.2-0.1,0.2-1,0.2 c-0.8,0-2.5,0-4.4-0.1c-0.4,0-0.7,0-0.7-0.2c0-0.1,0.1-0.2,0.3-0.2c0.2,0,0.3-0.2,0.2-0.5l-1.8-4.5c-0.1-0.1-0.1-0.2-0.2-0.2H115.2z "></path>
  <path class="st0" d="M131.5,13.9c0-3.4,0-4,0-4.7c-0.1-0.8-0.3-1-0.8-1.2c-0.3-0.1-0.6-0.1-0.8-0.1c-0.2,0-0.4-0.1-0.4-0.3 c0-0.1,0.2-0.2,0.6-0.2c0.9,0,2.4,0.1,3.1,0.1c0.6,0,2.1-0.1,3-0.1c0.3,0,0.5,0.1,0.5,0.2c0,0.2-0.1,0.3-0.4,0.3 c-0.2,0-0.4,0-0.7,0.1c-0.6,0.1-0.8,0.4-0.9,1.2c-0.1,0.7-0.1,1.3-0.1,4.7v3.9c0,2.2,0,3.9,0.1,4.9c0.1,0.6,0.2,0.9,0.9,1 c0.3,0.1,0.8,0.1,1.2,0.1c0.3,0,0.4,0.1,0.4,0.2c0,0.2-0.2,0.2-0.4,0.2c-1.5,0-3.1-0.1-3.7-0.1c-0.5,0-2.1,0.1-3,0.1 c-0.3,0-0.4-0.1-0.4-0.2c0-0.1,0.1-0.2,0.4-0.2c0.3,0,0.6,0,0.8-0.1c0.5-0.1,0.6-0.4,0.7-1.1c0.1-0.9,0.1-2.7,0.1-4.9V13.9z"></path>
  <path class="st0" d="M137.5,30.5H4.3c0,0,0,0,0,0v-0.3c0,0,0,0,0,0h133.2c0,0,0,0,0,0L137.5,30.5C137.5,30.5,137.5,30.5,137.5,30.5"></path>
  <rect y="-83" class="st1" width="141.7" height="141.7"></rect>
</svg>
