<svg xmlns="http://www.w3.org/2000/svg" xmlns:xlink="http://www.w3.org/1999/xlink" width="750" zoomAndPan="magnify" viewBox="0 0 562.5 281.25" height="375" preserveAspectRatio="xMidYMid meet" version="1.0"><path fill="#069dd8" d="M 218.996094 128.085938 L 249.53125 128.085938 L 249.53125 151.3125 L 218.996094 151.3125 L 218.996094 186.730469 L 257.417969 186.730469 L 257.417969 209.984375 L 195.75 209.984375 L 195.75 68.429688 L 257.417969 68.429688 L 257.417969 91.65625 L 218.996094 91.65625 Z M 218.996094 128.085938" fill-opacity="1" fill-rule="nonzero"></path><path fill="#069dd8" d="M 269.21875 68.429688 L 304.40625 68.429688 C 326.648438 68.429688 337.574219 80.761719 338.582031 103.414062 L 338.582031 175.003906 C 337.574219 197.65625 326.648438 209.984375 304.40625 209.984375 L 269.21875 209.984375 Z M 292.464844 88.65625 L 292.464844 189.761719 L 304.007812 189.761719 C 311.085938 189.761719 315.328125 186.121094 315.328125 176.011719 L 315.328125 102.402344 C 315.328125 92.296875 311.085938 88.65625 304.007812 88.65625 Z M 292.464844 88.65625" fill-opacity="1" fill-rule="nonzero"></path><path fill="#6bc62b" d="M 514.722656 198.949219 L 514.589844 198.699219 L 514.589844 68.8125 L 491.335938 68.8125 L 491.335938 154.742188 L 445.890625 68.835938 L 445.640625 68.96875 L 445.640625 68.8125 L 422.378906 68.8125 L 422.378906 209.984375 L 445.640625 209.984375 L 445.640625 118.09375 L 494.152344 209.792969 L 494.199219 209.984375 L 514.589844 209.984375 L 514.589844 199.019531 Z M 514.722656 198.949219" fill-opacity="1" fill-rule="nonzero"></path><path fill="#069dd8" d="M 160.820312 210.375 L 183.941406 210.375 L 183.941406 130.027344 L 160.820312 158.179688 Z M 160.820312 210.375" fill-opacity="1" fill-rule="nonzero"></path><path fill="#069dd8" d="M 160.820312 98.851562 L 113.65625 156.273438 L 113.488281 156.476562 L 104.148438 144.980469 L 79.085938 114.089844 L 79.085938 150.789062 L 89.167969 163.21875 L 98.507812 174.71875 L 113.378906 193.046875 L 113.65625 192.710938 L 113.65625 192.738281 L 160.820312 135.3125 L 160.820312 135.289062 L 183.941406 107.132812 L 183.941406 70.6875 Z M 160.820312 98.851562" fill-opacity="1" fill-rule="nonzero"></path><path fill="#069dd8" d="M 113.65625 97.0625 L 113.636719 97.078125 L 79.085938 54.503906 L 67.289062 39.957031 L 67.289062 39.941406 L 44.15625 11.457031 L 44.15625 210.339844 L 67.289062 210.339844 L 67.289062 76.640625 L 79.085938 91.1875 L 98.667969 115.320312 L 113.496094 133.597656 L 113.558594 133.667969 L 113.65625 133.542969 L 128.53125 115.433594 L 160.820312 76.121094 L 183.941406 47.957031 L 183.941406 11.457031 Z M 113.65625 97.0625" fill-opacity="1" fill-rule="nonzero"></path><path fill="#069dd8" d="M 373.636719 104.035156 C 373.636719 96.386719 375.949219 93.507812 380.433594 93.507812 L 380.574219 93.507812 C 385.492188 93.507812 387.511719 97.070312 387.511719 104.035156 L 387.511719 118.199219 L 409.207031 91.824219 C 405.785156 76.375 396.164062 68.375 380.714844 68.375 L 380.421875 68.375 C 361.199219 68.375 350.507812 80.949219 350.507812 106.078125 L 350.507812 163.191406 L 373.628906 135.074219 L 373.628906 104.042969 Z M 373.636719 104.035156" fill-opacity="1" fill-rule="nonzero"></path><path fill="#6bc62b" d="M 387.511719 140.886719 L 387.511719 174.675781 C 387.511719 181.300781 385.773438 185.03125 380.714844 185.03125 L 380.574219 185.03125 C 376.234375 185.03125 373.636719 182.3125 373.636719 174.675781 L 373.636719 157.761719 L 351.507812 184.683594 C 354.503906 201.445312 364.316406 210.164062 380.574219 210.164062 L 380.867188 210.164062 C 399.363281 210.164062 410.640625 198.609375 410.640625 172.636719 L 410.640625 112.757812 L 387.519531 140.886719 Z M 387.511719 140.886719" fill-opacity="1" fill-rule="nonzero"></path><path fill="#6bc62b" d="M 218.242188 237.554688 L 218.242188 243.625 C 218.242188 251.089844 214.566406 255.15625 207.089844 255.15625 L 203.554688 255.15625 L 203.554688 272.699219 C 203.554688 272.699219 196.078125 272.699219 196.078125 272.699219 L 196.078125 226.019531 C 196.078125 226.019531 207.097656 226.019531 207.097656 226.019531 C 214.574219 226.019531 218.253906 230.085938 218.253906 237.554688 M 203.554688 232.691406 L 203.554688 248.496094 L 207.089844 248.496094 C 209.472656 248.496094 210.765625 247.433594 210.765625 244.09375 L 210.765625 237.09375 C 210.765625 233.761719 209.472656 232.691406 207.089844 232.691406 Z M 203.554688 232.691406" fill-opacity="1" fill-rule="nonzero"></path><path fill="#6bc62b" d="M 242.800781 272.699219 L 235.316406 272.699219 L 235.316406 226.019531 L 242.800781 226.019531 L 242.800781 246.023438 L 251.296875 246.023438 L 251.296875 226.019531 L 258.914062 226.019531 L 258.914062 272.699219 L 251.296875 272.699219 L 251.296875 252.695312 L 242.800781 252.695312 Z M 242.800781 272.699219" fill-opacity="1" fill-rule="nonzero"></path><path fill="#6bc62b" d="M 302.171875 272.699219 L 294.625 272.699219 C 294.625 272.699219 293.332031 264.230469 293.332031 264.230469 L 284.144531 264.230469 C 284.144531 264.230469 282.851562 272.699219 282.851562 272.699219 L 275.976562 272.699219 C 275.976562 272.699219 283.59375 226.019531 283.59375 226.019531 L 294.546875 226.019531 C 294.546875 226.019531 302.164062 272.699219 302.164062 272.699219 Z M 285.101562 257.894531 L 292.3125 257.894531 C 292.3125 257.894531 288.777344 234.292969 288.777344 234.292969 L 288.636719 234.292969 C 288.636719 234.292969 285.101562 257.894531 285.101562 257.894531 Z M 285.101562 257.894531" fill-opacity="1" fill-rule="nonzero"></path><path fill="#6bc62b" d="M 334.886719 272.699219 C 334.480469 271.503906 334.207031 270.765625 334.207031 266.964844 L 334.207031 259.632812 C 334.207031 255.300781 332.710938 253.695312 329.308594 253.695312 L 326.71875 253.695312 L 326.71875 272.699219 C 326.71875 272.699219 319.234375 272.699219 319.234375 272.699219 L 319.234375 226.019531 C 319.234375 226.019531 330.519531 226.019531 330.519531 226.019531 C 338.273438 226.019531 341.601562 229.554688 341.601562 236.757812 L 341.601562 240.425781 C 341.601562 245.226562 340.042969 248.292969 336.714844 249.824219 L 336.714844 249.957031 C 340.453125 251.488281 341.675781 254.960938 341.675781 259.824219 L 341.675781 267.027344 C 341.675781 269.296875 341.746094 270.960938 342.488281 272.699219 L 334.871094 272.699219 Z M 326.71875 232.691406 L 326.71875 247.023438 L 329.644531 247.023438 C 332.433594 247.023438 334.136719 245.820312 334.136719 242.089844 L 334.136719 237.492188 C 334.136719 234.152344 332.976562 232.691406 330.324219 232.691406 Z M 326.71875 232.691406" fill-opacity="1" fill-rule="nonzero"></path><path fill="#6bc62b" d="M 375.957031 259.160156 L 376.101562 259.160156 L 381.132812 226.019531 L 391.53125 226.019531 L 391.53125 272.699219 L 384.460938 272.699219 L 384.460938 239.21875 L 384.328125 239.21875 L 379.289062 272.699219 L 372.21875 272.699219 L 366.78125 239.691406 L 366.640625 239.691406 L 366.640625 272.699219 L 360.109375 272.699219 L 360.109375 226.019531 L 370.519531 226.019531 Z M 375.957031 259.160156" fill-opacity="1" fill-rule="nonzero"></path><path fill="#6bc62b" d="M 434.789062 272.699219 L 427.242188 272.699219 C 427.242188 272.699219 425.949219 264.230469 425.949219 264.230469 L 416.769531 264.230469 C 416.769531 264.230469 415.476562 272.699219 415.476562 272.699219 L 408.613281 272.699219 C 408.613281 272.699219 416.230469 226.019531 416.230469 226.019531 L 427.179688 226.019531 C 427.179688 226.019531 434.800781 272.699219 434.800781 272.699219 Z M 417.71875 257.894531 L 424.929688 257.894531 C 424.929688 257.894531 421.394531 234.292969 421.394531 234.292969 L 421.261719 234.292969 C 421.261719 234.292969 417.726562 257.894531 417.726562 257.894531 Z M 417.71875 257.894531" fill-opacity="1" fill-rule="nonzero"></path><path fill="#6bc62b" d="M 473.484375 255.289062 L 473.484375 261.492188 C 473.484375 268.960938 469.675781 273.230469 462.332031 273.230469 C 454.988281 273.230469 451.179688 268.960938 451.179688 261.492188 L 451.179688 237.21875 C 451.179688 229.75 454.988281 225.480469 462.332031 225.480469 C 469.675781 225.480469 473.484375 229.75 473.484375 237.21875 L 473.484375 241.753906 C 473.484375 241.753906 466.417969 241.753906 466.417969 241.753906 L 466.417969 236.75 C 466.417969 233.417969 464.917969 232.152344 462.535156 232.152344 C 460.152344 232.152344 458.65625 233.417969 458.65625 236.75 L 458.65625 261.953125 C 458.65625 265.285156 460.152344 266.488281 462.535156 266.488281 C 464.917969 266.488281 466.417969 265.285156 466.417969 261.953125 L 466.417969 255.28125 C 466.417969 255.28125 473.484375 255.28125 473.484375 255.28125 Z M 473.484375 255.289062" fill-opacity="1" fill-rule="nonzero"></path><path fill="#6bc62b" d="M 497.902344 257.222656 L 488.449219 226.019531 L 496.269531 226.019531 L 501.914062 247.289062 L 502.054688 247.289062 L 507.699219 226.019531 L 514.839844 226.019531 L 505.386719 257.222656 L 505.386719 272.699219 L 497.902344 272.699219 Z M 497.902344 257.222656" fill-opacity="1" fill-rule="nonzero"></path></svg>