<?xml version="1.0" encoding="UTF-8"?><svg id="Calque_2" xmlns="http://www.w3.org/2000/svg" viewBox="0 0 797.19 681.55"><defs><style>#skieur {
  transform: translate(-250px, 15%);
  opacity:100%;
  -webkit-animation: 9s ease-out 0s infinite  move_skieur;
          animation: 9s ease-out 0s infinite  move_skieur;
}


@keyframes move_skieur {
  0% {transform: translate(-250px, 15%);opacity:0%;}
  7%,100% {transform: translate(0px, 0%);opacity:100%;}
}

#bras {
  transform: rotate(-30deg);
  transform-origin : 53% 56%;
    -webkit-animation: 9s ease-out 0s infinite  move_bras;
          animation: 9s ease-out 0s infinite  move_bras;
}

@keyframes move_bras {
  0% {transform: rotate(-40deg);}
  7%,100% {transform: rotate(0deg);}
} .cls-1{fill:#fff;}.cls-2{fill:#ad904e;}.cls-3{fill:none;stroke:#ad904e;stroke-miterlimit:10;stroke-width:5px;}</style></defs><g id="Cotnour"><path id="Contour" class="cls-3" d="M793.15,167.44c-1.35-.49-2.15-.73-2.91-1.06-5.46-2.36-11.58-3.84-16.24-7.29-16.33-12.07-23.26-29-23.45-49.02-.1-11.03,2.66-21.46,5.89-31.87,.46-1.49-1.3-4.15-2.72-5.55-.65-.64-3.36,.01-4.5,.89-1.4,1.09-2.07,3.09-3.19,4.59-4.21,5.61-8.29,11.32-12.76,16.72-7.97,9.63-16.6,18.62-27.43,25.13-1.14,.68-2.94,.92-4.23,.58-7.58-1.96-13.33-6.89-18.21-12.62-13.43-15.79-18.2-34.77-19.34-54.96-.82-14.6,2.12-28.72,5.36-42.82,.52-2.26,.23-5.34-1-7.13-.7-1.02-4.09-.28-6.25-.13-.72,.05-1.65,.52-2.05,1.1-2.18,3.17-4.66,6.23-6.23,9.7-3.96,8.77-6.94,18.01-11.29,26.56-9.71,19.1-24.23,33.53-43.98,42.33-13.01,5.8-26.23,6.14-39.6,1.24-1.68-.61-3.41-1.08-5.73-1.81,2.64,8.46,6.95,14.88,12.67,19.95,5.24,4.64,11.5,8.14,17.34,12.1,.79,.54,1.74,.84,2.61,1.25-.58,1-.94,2.28-1.78,2.95-2.31,1.83-4.72,3.57-7.27,5.03-13.67,7.83-28.45,9.98-43.93,8.37-3.9-.41-7.8-.82-12.2-1.28,.62,1.47,.91,2.37,1.35,3.19,6.59,12.37,15.43,22.66,27.58,29.91,2.46,1.47,2.42,2.81,.03,4.09-12.19,6.52-25.12,7.93-38.57,5.45-3.78-.7-7.49-1.77-12.18-2.89,8.72,18.33,22.35,29.14,42.43,33.67-3.49,2.83-6.09,5.37-9.09,7.29-11.64,7.47-24.6,10.72-38.28,11.61-14.08,.92-27.73-.97-40.76-6.35-4.56-1.88-8.76-2.39-13.28-.43-9.65,4.18-18.12,10.04-25.58,17.44-1.14,1.13-2.56,1.98-3.92,3.01-.57-.65-.9-.99-1.17-1.36-3.35-4.46-6.62-8.97-10.1-13.33-.55-.69-2.29-1.22-3.01-.86-6.56,3.18-13.01,6.57-19.5,9.89-.89,.45-1.8,.86-3.56,1.7,.66-2.86,1.08-4.72,1.59-6.92h-32.09c-1.55-3.1,1.32-3.93,2.82-5.17,11.52-9.57,25.23-12.84,39.79-14.41,15.56-1.67,30.91-4.78,45.67-10.25,2.53-.94,4.99-2.03,7.49-3.05-1.02-.62-1.79-.55-2.56-.43-10.37,1.65-20.48,.73-30.33-3.01-2.5-.95-5.23-2.77-7.58-2.42-8.4,1.26-16.75,2.5-25.22,1.3-1.97-.28-3.9-1.28-5.68-2.26-.63-.34-1.19-1.75-.98-2.4,.2-.6,1.48-1.13,2.31-1.16,9-.35,16.9-3.73,24.27-8.63,2.42-1.61,4.85-3.2,7.3-4.82,.46,.59,.77,.81,.82,1.09,1.01,5.53,4.88,8.62,9.61,10.62,7.77,3.29,16,3.08,24.13,1.97,12.46-1.7,23.69-6.91,34.42-13.21,14.67-8.61,26.62-19.78,33.22-35.89,2.3-5.61,1.16-7.5-4.68-7.61-.22,0-.43-.16-.92-.35,.21-.66,.31-1.36,.64-1.94,5.58-9.88,1.68-18.83-9.3-21.4-.71-.17-1.67-.9-1.79-1.51-.12-.59,.53-1.73,1.13-2.01,9.39-4.46,15.61-12,20.12-21.02,3.54-7.07,4.84-14.53-1.03-21.04-7.5-8.32-17.62-10.07-28.04-8.68-11.88,1.58-22.34,7.15-31.66,14.49-2.8,2.2-4.6,2.21-7.71,1.16-21.15-7.16-42.33-6.55-63,1.55-16.24,6.36-27.58,17.78-30.93,35.54-1.14,6.07-.85,12.52,2.75,17.85,5.71,8.44,14.11,12.44,24.24,12.71,5.52,.14,11.04,.03,16.83,.03-.6,1.01-1.15,2.02-1.77,2.99-.67,1.05-1.41,2.05-2.14,3.09-.97-.06-1.85-.1-2.72-.17-13.49-1.15-26.65-.06-39.08,5.83-10.38,4.92-12.35,8.97-13.39,19.04-.1,.97-.24,1.93-.36,2.9-1.13-.23-2.38-.21-3.37-.72-4.68-2.4-9.17-5.22-13.96-7.36-10.94-4.9-22.44-7.15-34.49-6.48-11.79,.66-22.52,5.18-33.46,8.97-.84,.29-1.92-.14-2.89-.24,.28-1.06,.21-2.5,.89-3.14,10.32-9.56,19.1-20.34,26.02-32.6,.75-1.32,1.27-2.78,1.9-4.17-7.58,4.03-14.98,7.77-23.31,8.94-8.18,1.14-16.4,1.68-25.19-.38,1.03-1.76,1.57-3.18,2.53-4.24,8.18-9.08,14-19.43,16.76-31.36,.82-3.56,.91-7.28,1.42-11.73-11.16,8.09-22.19,13.37-36.23,12.47,6.42-9.82,11.89-19,12.5-30.56-1.02,.51-1.78,.85-2.51,1.26-8.96,5-18.21,8.11-28.8,6.67-11.27-1.53-21.25-5.85-29.24-13.61-11-10.69-19.19-23.58-26.29-37.17-1.71-3.27-2.89-7.21-7.53-9.02-.26,1.36-.81,2.59-.66,3.73,1.55,12.17,3.71,24.29,4.68,36.51,.82,10.35-1.76,20.32-6.96,29.44-6.04,10.59-14.2,18.64-26.45,21.62-2.88,.7-5.81,1.19-8.72,1.78-.32,.45-.64,.9-.95,1.36,1.17,.68,2.41,1.27,3.5,2.06,3.89,2.78,7.78,5.57,11.56,8.5,.81,.63,1.17,1.83,1.74,2.77-.83,.44-1.7,1.33-2.48,1.27-6.89-.59-13.78-1.27-20.64-2.12-2.13-.26-4.2-1.1-6.88-1.83,4.43,9.46,12.12,15.48,18,23.02-13.99-1.97-25.79-8.65-37.34-16.1,.18,1.09,.56,1.85,1,2.57,9.39,15.1,16.28,31.27,19.74,48.71,2.75,13.86-.33,27.15-6.62,39.47-7.33,14.34-16.94,26.81-30.69,35.99-9.54,6.36-18.23,13.99-27.29,21.07-.54,.42-.92,1.04-1.99,2.26,1.71-.32,2.48-.38,3.2-.62,6.52-2.12,13.02-4.27,19.53-6.43,16.21-5.36,32.41-10.73,48.61-16.1,13.78-4.57,27.57-9.13,41.34-13.71,2.64-.88,3.56,.22,3.42,2.77-.11,1.98-.19,3.96-.18,5.94,.12,15.71,.25,31.41,.42,47.12,.08,7.53,.87,15.1,.25,22.56-.8,9.72-4.91,18.63-10.68,26.31-3.95,5.26-9.45,9.39-14.43,13.83-3.21,2.86-6.79,5.32-10.1,8.08-.68,.57-.89,1.7-1.32,2.57,.88,.35,1.76,1.01,2.64,1.01,5.43,0,10.86-.12,16.29-.23,9.18-.17,18.36-.34,27.54-.53,14.85-.3,29.7-.64,44.54-.89,5.65-.1,12.31,.06,17.95,.06,.59-.16,.95,.11,.88-.35-1.48-1.26-4.49-3.56-5.95-4.84-5.68-4.97-11.21-10.1-15.02-16.73-1.61-2.8-1.07-3.55,2.24-3.58,15.86-.13,31.71-.15,47.57-.39,2.39-.04,3.27,1.05,3.54,2.93,.91,6.36,1.32,12.75-.75,18.96-1.33,3.97-2.99,7.84-4.64,12.13,1.09-.21,2.1-.26,3.01-.6,9-3.35,16.93-8.51,24.36-14.5,8.77-7.06,16.53-15.03,22.34-24.78,1.22-2.05,2.86-2.86,5.23-.94,3.15,2.55,6.64,4.7,9.95,7.06,3.17,2.27,6.25,2.5,9.55,.12,2.39-1.72,5.02-3.09,7.55-4.61,1.79-1.07,3.2-1.11,4.72,.79,6.53,8.14,14.59,14.45,23.87,19.19,2.84,1.45,3.05,2.69,.88,5.09-1.5,1.65-3,3.31-4.34,5.08-13.98,18.46-19.03,39.21-15.9,62.07,.12,.85-.09,1.74-.14,2.64-8.43-1.26-16.71,8.26-16.66,18.89-.76,0-1.54-.09-2.29,.01-5.42,.78-11.18,.7-16.19,2.58-17.34,6.5-26.92,19.61-28.65,37.87-1.24,13.07,2.22,25,12,34.53,.59,.58,.57,2.19,.3,3.18-.65,2.44-1.53,4.83-2.5,7.17-.33,.8-1.11,1.86-1.83,1.99-11.19,1.94-21.16,19.07-10.47,33.44l211.84-86.29,78.16-32.07c-5.37-34.8-34.51-28.55-34.51-28.55-5.66-6.21-12.76-6.31-12.76-6.31-3.99-32.61-34.35-55.8-34.35-55.8-9.96-10.52-21.24-18.06-34.29-23.28,1.03-.62,1.9-.91,2.78-.93,7.03-.19,14.06-.39,21.09-.49,15.14-.21,30.28-.28,45.42-.62,1.61-.04,3.69-1.03,4.69-2.27,5.27-6.49,18.13-9.99,25.3-3.02,3.52,3.42,6.99,4.39,11.81,4.19,14.11-.59,28.26-.47,42.39-.7,25.79-.41,51.57-.87,77.35-1.28,.51,0,1.02,.38,1.36,.51-5.42,7.66-10.67,15.07-16.39,23.15,1.99,.09,2.92,.18,3.85,.17,19.41-.31,38.83-.62,58.24-.97,6.06-.11,12.12-.35,18.19-.45,2.59-.04,3.85-.8,3.71-3.79-.32-7.02-.28-14.06-.38-21.09-.16-10.52-.4-21.03-.41-31.55,0-3.13,.19-6.41,1.14-9.35,.74-2.29,2.92-4.07,4.23-6.21,10.06-16.49,18.06-33.79,20.37-53.23,.58-4.9,1.07-9.83,1.08-14.75,0-1.82,.25-2.25,1.87-2.28,8.81-.17,17.03-2.62,24.63-6.94,3.21-1.83,6.04-4.33,9.09-6.56-7.67-4.12-14.63-7.86-21.58-11.6,.04-.37,.07-.73,.11-1.1,12.21-2.26,22.86-7.13,30.81-17.65Z"/><path class="cls-1" d="M311.28,234.28c-5.4-2.67-9.19-6.63-11.87-11.36-2.05-3.62-4.24-3.27-7.13-1.79-8.27,4.23-16.27,8.85-22.69,15.74-1.39,1.5-2.7,3.08-4.45,5.08-1-1.75-1.78-3.23-2.67-4.65-4.4-7.02-11.41-9.2-18.98-9.18-19.71,.04-39.41,.5-59.12,.84-4.23,.07-8.45,.32-12.67,.45-.63,.02-1.77,0-1.81-.21-.64-2.78-1.36-5.58-1.51-8.41-.05-.88,1.4-2.35,2.45-2.7,17.1-5.72,34.35-11.01,51.35-17,12.74-4.49,25.73-6.78,39.13-6.03,18.63,1.04,34.71,8.05,47.17,22.25,3.72,4.24,5.36,9.39,3.7,15.14-.17,.58-.53,1.1-.89,1.83Zm-45.4,3.73c.92-.86,1.75-1.59,2.53-2.36,7.59-7.62,16.29-13.51,26.38-17.38,2.51-.96,3.71-.26,5.13,1.73,2.39,3.36,5.07,6.53,7.73,9.69,.41,.48,1.42,.69,2.1,.61,.38-.05,1.02-1.04,.92-1.46-.63-2.67-.87-5.67-2.28-7.89-6.95-10.97-17.88-16.78-29.64-20.7-14.43-4.81-29.51-4.72-43.95-.65-20.08,5.67-39.77,12.72-59.59,19.26-4.89,1.61-5.36,2.83-3.97,8.3,.7,0,1.47,.01,2.25,0,23.39-.43,46.79-.92,70.18-1.24,5.79-.08,11.28,1.42,15.75,5.33,2.24,1.96,4.15,4.31,6.47,6.76Z"/></g><g id="Calque_8"><path id="sapin1" class="cls-2" d="M134.34,39.54s9.62,51.83-29.99,68.95c0,0,8.34,7.34,27.6,6.07,0,0-10.29,10.25-41.46,13.02,0,0,8.63,15.42,37.06,16.69,0,0-17.11,12.73-45.55,1.41,0,0,28.01,50.79,80.48,40.04s76.47-39.75,88.31-51.21c0,0-20.13,9.19-53.37-2.97,0,0,23.48-8.77,32.96-36.35,0,0-18.39,12.87-41.87,4.53,0,0,13.51-9.7,17.36-23.31,0,0-43.84,15.12-71.54-36.87Z"/></g><g id="Calque_9"><path id="sapin2" class="cls-2" d="M649.75,170.19c23.18,2.86,28.08-5.45,28.08-5.45-9.73-7.43-17.83-31.75-17.83-31.75,16.17-.96,30.26-7.2,30.26-7.2-52.02-43.8-28.53-109.46-28.53-109.46-29.91,83.8-90.46,80.28-90.46,80.28,8.35,10.18,30.41,16.78,30.41,16.78-21.5,32.05-66.32,27.68-66.32,27.68,8.93,13.05,35.23,24.25,35.23,24.25-12.7,20.32-48.77,18.15-48.77,18.15,14.34,16.69,39.48,12.36,39.48,12.36-11.81,20-31.01,24.8-31.01,24.8h53.74c-5.47-5.03-8.91-12.25-8.91-20.26,0-15.2,12.32-27.52,27.52-27.52s27.52,12.32,27.52,27.52c0,8.02-3.43,15.23-8.91,20.26h2.5c49.22,0,55.83-25.18,55.83-25.18-22.81-7.54-29.82-25.25-29.82-25.25Z"/></g><g id="Calque_10"><path id="sapin3" class="cls-2" d="M748.21,86.99s-19.1,57.14,27.16,83.59c0,0-4.24,8.35-35.79,6.08,0,0,8.77,13.58,26.87,22.21,0,0-7.78,7.36-29.99,4.67,0,0,7.07,19.8-4.1,47.53,0,0-1.27-57.14-54.03-37.06,0,0,13.3-17.11,18.1-26.31,0,0-17.11-1.27-25.46-9.48,0,0,19.66-4.38,24.05-9.76,0,0-17.68-12.02-20.65-25.74,0,0,39.6-1.56,73.83-55.73Z"/></g><g id="Calque_7"><path id="nuage" class="cls-2" d="M254.76,565.96c-4.2-14.36-1.58-24.52,12.29-28.95,.38-2.57,.36-5.21,1.22-7.53,.89-2.39,2.63-4.47,4.1-6.85-.53-.51-1.07-1.08-1.67-1.58-10.1-8.54-14.85-19.26-13.64-32.58,1.94-21.47,20.84-36.11,42.01-32.4,1.81,.32,2.53-.16,2.73-2.13,.81-8.01,4.42-14.3,12.09-17.54,2.74-1.16,5.77-1.61,8.89-2.44-.06-.7-.02-1.5-.21-2.25-3.09-12.3-2.53-24.6,.43-36.76,8.29-34.06,41.38-57.68,76.49-54.89,18.23,1.44,33.94,8.31,46.99,21.19,0,0,32.96,29.01,38.63,62.68,0,0,13.28-.28,15.13,9.34,0,0,22.03-8.97,29.57,19.64l-80.06,33.54-195,79.53Z"/></g><g id="Le"><path id="Le-2" class="cls-1" d="M496.3,132.1c-1.26,2.25-2.14,4.85-3.85,6.68-6.09,6.52-12.32,12.93-18.76,19.1-7.68,7.36-16.97,12.11-26.94,15.6-8.42,2.95-16.99,5.02-26.02,3.62-6.9-1.07-10.49-5.44-11.01-12.35-.35-4.72,.54-8.98,2.79-13.06,.35-.64,.43-1.43,.66-2.24-3.45-.74-5.58,.35-7.51,3.02-7.04,9.74-16.27,16.88-27.34,21.5-6.99,2.92-14.41,4.71-21.97,3.75-4.72-.6-9.61-2.02-13.78-4.27-5.02-2.72-6.89-7.95-6.11-13.59,.76-5.5,4.43-9.26,9.3-11.36,13.19-5.67,27.09-6.87,41.28-5.87,.71,.05,1.8-.11,2.13-.58,3.3-4.71,6.48-9.5,9.67-14.28,.11-.17,.04-.45,.05-.65-3.48,0-6.92,0-10.35,0-8.63-.03-17.21-.05-25-4.77-6.3-3.82-9.29-9.6-9.81-16.52-.89-11.89,5.65-20.21,14.44-27.02,11.64-9.01,25.19-12.89,39.63-12.57,10.07-.17,14.59,.66,25.47,3.62,1.2,.2,2.25,1.31,3.06,2.59-4.03,0-8.06,.11-12.08-.02-12.71-.4-24.63,2.56-35.06,9.75-6.59,4.55-12.67,10.1-14.9,18.37-2.47,9.15,3.39,17.99,13.47,17.7,3.81-.11,7.62-.09,11.42-.08,5.3,.01,8.84-2.38,11.78-6.89,8.13-12.5,16.45-24.98,27.38-35.26,7.91-7.44,16.86-13.73,27.26-17.28,5.83-1.99,11.95-3.6,18.05-4.18,5.73-.54,11.67,.92,15.41,5.87,1.48,1.96,2.04,5.28,1.71,7.82-.96,7.51-5.38,13.51-11.07,17.9-8.12,6.27-16.76,11.95-25.62,17.12-7.49,4.38-15.6,7.69-23.45,11.44-4.46,2.13-8.96,4.19-13.42,6.31-.41,.19-.79,.55-1.06,.93-4.66,6.57-9.31,13.15-13.93,19.76-.34,.49-.45,1.14-.81,2.1,2.53,.07,4.2,.04,5.8-2.36,2.4-3.6,5.27-7.07,8.56-9.85,5.95-5.01,11.98-10.11,18.66-14.02,11.24-6.58,23.44-10.3,36.78-8.45,6.32,.88,11.15,8.34,6.79,14.65-6.18,8.93-15.08,13.75-24.62,17.4-8.07,3.08-16.72,4.64-24.95,7.36-1.82,.6-3.32,3.09-4.32,5.04-.98,1.92-1.48,4.2,.72,6.11,2.31,2.02,9.46,2.94,12.67,1.58,1.7-.72,3.59-1,5.39-1.49,13.78-3.75,25.5-10.89,35.12-21.44,1.82-1.99,3.51-4.09,5.36-6.05,.5-.52,1.35-.71,2.03-1.06,.29,.28,.57,.57,.86,.85Zm-61.92-22.53c1.53-.24,2-.23,2.4-.4,15.24-6.26,30.18-13.04,42.75-24.08,4.6-4.04,8.87-8.27,10.73-14.31,.93-3.02-.47-5-3.56-4.67-2.97,.31-6.03,.84-8.8,1.92-14.51,5.67-25.77,15.39-34.46,28.22-2.84,4.19-5.7,8.37-9.07,13.32Zm-50.86,38.9c-1.57-.13-2.58-.36-3.57-.27-3.96,.35-7.95,.53-11.85,1.26-5.8,1.07-11.46,2.67-16.09,6.68-2.22,1.92-2.96,4.05-1.32,6.73,1.49,2.43,5.89,4.1,9.62,3.07,9.76-2.71,17.19-8.66,23.2-17.47Zm94.91-25.09c.6-.98,.44-3.01-.23-3.99-.47-.68-2.39-.57-3.63-.48-1.42,.1-2.83,.49-4.2,.91-10.84,3.32-18.95,10.62-26.62,18.51-.73,.75-1.74,2.51-1.74,3.8,4.02-.95,8.6-1.87,11.43-3.03,6.37-2.62,13.02-5.26,17.4-7.99s7.59-7.73,7.59-7.73Z"/></g><g id="Calque_4"><g id="Tremplin"><path class="cls-1" d="M73.68,147.79c5.06,6.8,9.16,12.8,13.76,18.38,6.55,7.93,13.35,16.01,22.73,20.46,7.89,3.74,16.48,6.64,25.07,8.1,17.85,3.04,35.58,.65,52.6-5.15,16.13-5.5,31.99-11.84,47.83-18.13,8.19-3.25,15.85-7.92,24.18-10.68,16.41-5.45,32.82-4.18,48.51,3.07,6.92,3.2,13.4,7.35,20.08,11.07,9.99,5.57,19.66,11.85,30.09,16.43,6.11,2.69,13.39,3.36,20.2,3.68,8.01,.39,16.08-.6,24.12-.93,.95-.04,1.92,.24,3.09,1.26-1.42,.64-2.78,1.6-4.27,1.88-10.63,2-21.28,3.87-31.93,5.77-15.79,2.81-29.71,9.02-39.82,22.05-7.15,9.21-9.3,20.13-10.62,31.33-.12,1.04-.82,2.73-1.43,2.82-1.02,.14-2.32-.59-3.25-1.29-5.43-4.14-10.79-8.38-16.48-12.83-5,7.51-7.17,15.18-8.26,23.48,11.11,2.05,20.35-2.49,29.5-7.88,0,4.88-.08,9.06,.02,13.24,.09,3.82,.43,7.64,.52,11.47,.03,1.16-.4,2.32-.69,3.86-9.55-5.77-18.12-11.86-29.95-10.49,.42,5.19,.43,10.48,1.38,15.59,1.14,6.18,2.96,12.25,4.71,18.3,1.4,4.83,2.78,4.99,6.47,1.65,6.75-6.11,11.88-13.28,15.17-21.78,.14-.35,.38-.67,.64-1.1,3.25,.59,2.65,3.48,2.95,5.32,2.64,16.12,7.99,31.22,16.5,45.17,1.49,2.44,3.41,4.62,5.05,6.98,.39,.56,.95,1.3,.62,2.05-.71,.4-1.62,.12-2.09-.25-6.63-5.33-13.41-10.5-19.68-16.22-3.43-3.13-6.05-7.17-8.9-10.91-1.25-1.64-2.11-1.22-3.51-.17-4.28,3.19-8.74,6.15-13.04,9.32-2.72,2-4.74,.27-6.59-1.18-5.14-4.03-10.12-8.26-15.18-12.41-.29-.24-.67-.38-1.34-.74-7.72,16.81-20.1,29.3-35.92,40.2,1.46-28.75-6.19-52.97-25.91-72.59-.46,.12-.92,.24-1.38,.37,.67,5.64,1.15,11.31,2.05,16.91,1.47,9.15,4.77,17.7,9.12,25.86,1.15,2.16,.66,2.95-1.9,2.97-14.29,.1-28.57,.34-42.86,.51-2.49,.03-4.98,0-7.84,0,10.62-10.78,14.53-24.04,16.8-37.62,3.27-19.56,1.22-38.3-12.52-54.13-.47-.54-1-1.04-1.42-1.62-.78-1.09-1.49-2.23-2.23-3.34,1.37-.19,2.74-.54,4.12-.56,14.06-.17,28.13-.26,42.19-.45,8.43-.11,16.86-.34,25.29-.55,9.51-.24,15.26,5.45,19.71,12.81,6.93,11.48,.1,22-9.17,28.02-6.06,3.94-12.82,5.95-19.93,6.95-1.04,.15-2.05,.55-3.85,1.06,17.29,8.61,28.25,21.52,32.87,39.58,4.8-2.43,7.52-11.02,5.9-16.55-4.35-14.92-6.29-30.04-1.32-45.23,4.18-12.77,11.57-23.07,23.44-30.03,8.28-4.86,5.42-3.98,11.27,2.18,2.29,2.41,4.69,4.84,7.41,6.71,4.37,3,10.2-.22,12.11-6.17,2.26-7.07,.69-13.07-3.89-18.85-15.85-20.02-37.14-26.8-61.69-25.75-10.73,.46-21.2,2.43-31.4,5.92-19.17,6.54-38.41,12.89-57.56,19.47-.85,.29-1.67,2.06-1.67,3.15-.06,6.45,.2,12.9,.22,19.35,.03,12.04-.09,24.07-.03,36.11,.05,11.42,.2,22.83,.4,34.25,.13,7.57,.14,15.15,.72,22.69,.81,10.53,6.54,18.58,14.06,25.53,.55,.51,1.1,1.02,2.27,2.11-1.29,1.3-3.38,1.28-4.75,1.31-18.84,.39-37.67,.71-56.51,1-5.46,.08-10.92,.01-16.72,.01,2.31-1.6,4.52-3.1,6.69-4.65,13.2-9.44,19.88-22.61,20.62-38.49,.65-13.85,.3-27.75,.17-41.63-.15-15.73-.55-31.45-.85-47.18,0-.46-.12-.93-.27-1.99-10.06,3.34-19.92,6.58-29.75,9.9-9.97,3.37-19.85,7.04-29.9,10.19-9.71,3.04-19,7.58-29.02,9.59-.13-.36-.27-.72-.4-1.08,3.28-2.72,6.62-5.38,9.83-8.17,12.07-10.47,21.26-23.03,27.42-37.82,3.73-8.94,6.09-18.13,6.04-27.87-.05-8.64-2.29-16.71-6.15-24.38-.89-1.77-1.99-3.45-2.77-5.27-.3-.69,.03-1.65,.12-3.33Zm135.24,133.6c6.96-1.11,11.62-4.55,15.94-8.49,6.8-6.21,8.71-13.99,6.81-22.81-.74-3.44-5.61-7.3-8.92-7.26-3.67,.04-8.25,3.39-9.02,6.72-1.12,4.79-2.43,9.57-3.15,14.42-.83,5.62-1.11,11.33-1.66,17.42Z"/><path class="cls-1" d="M463.44,285.28c-.4,4.71-.46,9.48-1.27,14.12-1.68,9.65-4.65,18.92-9.98,27.26-.49,.76-1.64,1.54-2.51,1.56-9.57,.27-19.14,.42-28.72,.52-1.45,.02-2.91-.35-4.63-.58,1.7-4.72,3.33-9.01,4.79-13.35,5.38-16.08,8.37-32.6,9.08-49.54,.2-4.87-3.52-14.4-7-17.69-4.2,2.83-7.99,6.04-10.59,10.63-4.27,7.51-4.85,15.76-5.15,24.06-.54,14.81,1.57,29.28,5.9,43.45,.61,1.99,.41,3.53-2.25,3.53-11.58,.01-23.16,.05-34.74,.06-2.45,0-3.14-.93-2-3.31,6.67-13.96,9.63-28.92,9.26-44.17-.25-10.67-2.88-21.28-4.47-31.91-.06-.37-.3-.72-.53-1.23-5.45,2.35-9.12,6.38-11.89,11.35-6.71,12.02-7.99,24.96-5.07,38.09,2.12,9.52,5.68,18.72,8.6,28.06,.64,2.05,.84,3.48-2.22,3.5-11.02,.06-22.05,.3-33.07,.55-2.19,.05-3.03-.69-2.34-2.84,4.8-15.03,6.26-30.43,5.12-46.12-1.12-15.36-4.52-30.27-9.08-44.94-.71-2.29-.41-3.71,2.4-3.76,11.9-.18,23.8-.4,35.7-.6,.23,0,.46,.12,.91,.24-1.55,5.57-3.1,11.13-4.64,16.69,.26,.11,.52,.23,.78,.34,3.79-3.25,7.34-6.86,11.44-9.66,5.24-3.59,10.88-6.6,16.43-9.71,2.18-1.22,4.2-1.35,5.82,1.37,3.21,5.41,6.71,10.64,10.1,15.95,.24,.38,.52,.75,.96,1.38,2.75-2.75,5.11-5.74,8.05-7.94,6.69-5,13.61-9.68,20.58-14.28,.76-.5,2.81-.08,3.6,.64,10.12,9.12,15.83,20.67,18.06,33.97,1.22,7.29-.62,14.23-3.09,21.07-5.22,14.45-15.13,25.57-25.49,36.39-.84,.87-1.62,1.8-2.97,3.31,10.1-4.67,23.79-15.38,36.14-36.47Z"/><path class="cls-1" d="M656.39,224.02c-8.32,2.54-16.92,3-25.57,2.76-3.8-.11-4.58,1.24-3.15,4.83,2,5.03,4.21,10.04,5.57,15.26,6.4,24.56,5.67,49.16-.18,73.71-.96,4.02-.26,4.93,3.98,4.82,7.11-.19,14.22-.45,21.33-.44,8.69,0,7.94,.15,6.21-7.86-4.06-18.79-5.91-37.65-2.14-56.75,1.35-6.86,3.21-13.49,7.18-19.38,3.91-5.81,10.69-8.18,15.96-5.07,5.06,2.98,6.33,8.35,6.61,13.57,.88,16.09-3.17,31.37-8.98,46.17-7.26,18.5-17.35,35.38-30.3,50.51-.69,.81-1.01,1.94-1.67,3.25,1.95,0,3.28,.02,4.6,0,19-.3,38-.58,57-1.02,.98-.02,2.38-1.2,2.77-2.17,.54-1.33,.39-2.97,.37-4.47-.21-12.61-.44-25.22-.72-37.83-.04-1.91-.4-3.81-.68-6.32-10.07,17.69-41.46,45.33-50.38,45.1,.71-.62,1.23-1.06,1.73-1.52,8.76-8,17.98-15.56,26.15-24.13,8.69-9.1,14.84-20.15,20.48-31.39,6.91-13.79,11.37-28.17,8.89-43.8-1.67-10.53-5.43-19.52-16.99-23.43-8.3-2.81-15.82-1.41-23.27,1.79-4.06,1.74-7.69,4.49-12.32,7.28,1.2-1.77,1.82-2.86,2.61-3.8,2.18-2.62,4.53-4.95,7.08-6.91-1.49-.65-2.82-1.78-3.85-2.76-5.36,4.43-11.41,7.89-18.31,10Z"/><path class="cls-1" d="M445.93,221.29c.86,.22,1.74,.38,2.57,.68,6.4,2.32,12.69,5.06,19.23,6.86,3.74,1.03,7.9,.67,11.87,.7,10.83,.09,21.69-.4,32.49,.22,7.8,.44,12.84,5.62,16.15,12.56,2.54,5.33,3.74,10.72,2.72,16.66-1.35,7.8-4.84,14.38-11.96,17.86-8.2,4.01-16.9,6.99-25.38,10.41-.43,.17-.88,.28-2.01,.63,1.37,7.52,2.58,15.05,4.16,22.5,1.03,4.83,2.61,9.54,3.94,14.3,.57,2.02-.41,2.89-2.29,2.93-5.75,.13-11.5,.2-17.25,.29-6.14,.1-12.29,.11-18.43,.34-2.7,.1-3.08-1.32-2.07-3.08,11.59-20.14,10.92-41.44,6.33-63.2-2.51-11.9-8.18-22.2-15.32-31.85-1.91-2.58-3.59-5.32-5.38-7.98,.2-.28,.41-.56,.61-.84Zm46.11,57.75c5.85-1.4,9.74-4.99,12.9-9.34,4.23-5.82,3.97-12.35,2.26-18.98-1.65-6.38-4.71-11.45-11.6-13.28-2.13-.56-3.52-.29-3.6,2.21-.35,11.64-.71,23.28-.96,34.92-.03,1.37,.6,2.75,1,4.48Z"/><path class="cls-1" d="M573.8,227.4c-.41,1.03-.49,1.59-.81,1.97-7.46,8.99-11.31,19.04-10.96,31,.41,14.19-.21,28.4-.35,42.61-.05,5,0,10,0,16.17,3.22-1.49,5.92-2.44,8.32-3.89,6.57-3.99,10.57-10.26,14.26-16.76,1.37-2.42,2.81-4.82,4.25-7.2,.3-.49,.77-.88,1.69-1.9,.18,1.86,.64,3.09,.35,4.11-2.97,10.49-6.02,20.95-9.21,31.37-.2,.65-1.73,1.25-2.66,1.26-15.65,.29-31.3,.48-46.95,.71-1.83,.03-3.67,.3-5.5,.25-2.25-.06-3.26-.86-1.98-3.33,7.92-15.23,13.3-31.21,14.21-48.52,.67-12.8-.67-25.23-6.96-36.64-1.58-2.87-4.19-5.16-6.28-7.76-.35-.44-.55-1.05-.63-1.61-.02-.13,.75-.53,1.16-.54,4.69-.07,9.38-.06,14.07-.13,8.21-.13,16.43-.27,24.64-.5,2.93-.08,5.84-.42,9.33-.68Z"/><path class="cls-1" d="M580.42,227.74h41.56c.54,21.79,.74,43.57,1.81,65.32,.4,8.11,2.85,16.12,4.39,24.17,.5,2.62,1.06,5.22,1.72,8.48-3.67,0-7.11-.04-10.55,0-8.86,.14-17.71,.34-26.57,.47-5.35,.07-5.82-.59-3.99-5.59,5.47-14.99,8.37-30.43,8.04-46.4-.33-15.71-4.13-30.31-14.25-42.79-.3-.37-.54-.79-.78-1.2-.25-.41-.47-.83-1.38-2.46Z"/><path class="cls-1" d="M622.63,201.18c-.34,13.08-8.28,20.51-21.51,20.13-9.56-.28-17.84-7.8-17.27-19.66,.51-10.56,10.09-19.78,20.54-19.39,10.37,.38,18.5,8.82,18.24,18.93Z"/></g></g><g id="Calque_3"><g id="Courchevel"><path class="cls-1" d="M292.24,645.43c-3.44,2.29-4.16-1.36-4.67-2.82-1.57-4.43-2.98-9.06-3.44-13.72-.78-7.92-1.62-16-.88-23.87,.68-7.18,3.14-14.27,5.45-21.18,.64-1.91,3.39-3.34,5.45-4.5,1.98-1.11,4.33-1.58,6.51-2.33l-.05-.05c.07,.85,.37,1.75,.17,2.53-1.43,5.76-2.79,11.54-4.5,17.22-2.13,7.06-1.09,14.05,.25,20.98,.66,3.45,2.23,6.72,3.77,11.2,2.35-3.8,4.47-6.79,6.12-10.02,2.65-5.18,4.44-10.66,4.97-16.55,.4-4.38,1.26-8.72,1.91-13.08,.04,.04,.09,.08,.13,.12-.08-.01-.17-.02-.25-.04,.06-.02,.12-.04,.18-.06-.66-7.77-1.23-15.55-2.02-23.3-.23-2.27-1.11-4.47-1.86-7.39,3.1-1.41,6.36-2.89,10.3-4.68,2.03,12.21,4.04,24.36,6.06,36.52l.77,.07c1.67-6.19,3.65-12.31,4.92-18.57,1.32-6.51,4.2-11.44,10.58-14.01,4.48-1.8,8.71-4.46,13.34-5.58,5.25-1.28,10.91-3.47,16.07,.82,2.83,2.36,4.25,9.12,2.05,12.06-5.17,6.92-10.52,13.7-15.81,20.54-.63,.81-1.31,1.58-1.77,2.14,7.26,7.01,14.41,13.85,21.48,20.78,4.62,4.53,7.1,10.34,8.79,16.39,.53,1.91-.6,4.33-1.14,6.47-1.86,7.36-3.79,14.69-6.5,22.07-.32-.71-.7-1.4-.95-2.13-2.45-7.15-4.13-14.68-7.5-21.36-4.34-8.61-9.74-16.75-15.24-24.7-3.77-5.45-8.5-10.25-12.79-15.34-.48,.19-.95,.38-1.43,.57-.15,2.85-.35,5.69-.43,8.54-.09,2.83-.07,5.67-.1,8.5,0,0-.11-.03-.11-.03l.17,.05v16.74c-5.04,2.09-10.34,4.29-15.58,6.46-1.04-2.97-1.97-5.61-3.27-9.31-4.34,15.36-16.94,19.34-29.17,23.81,0,0-.11,.1-.11,.1l.15-.09Zm49.05-60.12c.29,.16,.58,.33,.87,.49,1.43-1.34,2.77-2.81,4.32-4.01,6.05-4.7,10.85-10.42,14.24-17.27,.46-.93,.06-2.29,.06-4.05-4.87,2.37-8.85,3.93-12.4,6.16-2.45,1.54-5.43,3.67-6.18,6.14-1.18,3.91-.69,8.33-.91,12.53Z"/><path class="cls-1" d="M432.26,547.74c3.08-1.79,5.7-2.79,7.6-4.57,1.72-1.61,3.32-3.91,3.82-6.16,1.35-6.09,2.03-12.33,3.13-18.48,.15-.85,1.02-1.88,1.83-2.24,2.38-1.06,4.9-1.82,8.45-3.08-2.19,21.24-4.14,41.86,.57,63.05-4.89,2.23-9.72,4.43-15.62,7.11-.45-10.05-.86-19.26-1.3-29.03-3.62,2.39-6.84,4.02-9.37,6.39-1.11,1.04-1.13,3.57-1.11,5.41,.07,5.34,.16,10.7,.71,16.01,.52,5.08,.43,5.81-4.12,8.1-1.42,.71-2.92,1.3-4.43,1.8-1.47,.49-3,.81-4.92,1.32-.71-4.61-1.39-9-2.24-14.47-2.31,5.18-4.4,9.26-5.98,13.54-1.63,4.42-4.62,7.02-8.96,8.51-6.43,2.21-12.83,4.53-19.17,6.98-3.27,1.27-4.31-.9-4.88-3.09-2.24-8.7-2.86-17.55-1.28-26.45,1.57-8.85,3.97-17.51,8.45-25.34,3.67-6.42,8.58-12.2,14.97-15.83,4.24-2.4,7.6-4.84,10.27-9,1.41-2.19,4.96-3,7.33-4.31,5.25,4.7,2.89,9.62,1.9,14.4-.53,2.56-1.36,5.09-1.64,7.67-.7,6.51-8.85,10.37-12.9,8.02,.49-3.74,.99-7.55,1.52-11.66-7.85,3.02-10.7,9.29-12.48,15.9-1.48,5.49-1.89,11.27-2.71,16.93-1.05,7.28-.04,14.44,1.55,22.74,2.03-2.68,3.68-4.51,4.95-6.59,2.96-4.85,6.32-9.52,6.7-15.55,.12-1.91,.75-3.89,1.6-5.62,.45-.92,1.82-1.46,2.86-2.02,2.08-1.14,4.16-2.3,6.34-3.22,.91-.39,2.08-.18,3.52-.26,.69-4.66,1.24-9.55,2.18-14.36,.86-4.43,2.12-8.78,3.24-13.16,.77-3.04,1.55-6.08,2.41-9.1,.66-2.31,6.95-5.58,8.99-4.48,.64,.34,.88,2.03,.77,3.04-.74,6.83-1.63,13.64-2.55,21.14Zm-16.44,30.37c-.11-.02-.22-.03-.34-.05-.04,.24-.08,.49-.12,.73,.12,.02,.24,.04,.35,.05,.03-.24,.07-.49,.1-.73Z"/><path class="cls-1" d="M237.75,597.78c-.48,7.73-.84,15.47-1.57,23.17-.12,1.3-1.64,2.87-2.93,3.58-2.89,1.6-6.03,2.74-9.27,4.16v-14.94c-13.47,14.94-17.05,31.93-13.14,51,3.64-.51,5.91-2.64,7.2-5.84,1.67-4.14,3.55-8.24,4.69-12.53,1.23-4.59,4.49-6.47,8.42-7.77,1.96-.64,4.41-.36,5.97-1.45,1.23-.86,1.83-3.14,2.04-4.87,1.15-9.38,4.65-17.8,10.43-25.17,3.85-4.9,7.83-9.85,12.5-13.92,3.06-2.66,7.46-3.77,11.61-5.75,.63,3.86-.05,6.17-2.37,8.14-9.04,7.71-14.49,17.9-18.08,28.87-2.17,6.63-3.64,13.83-.96,20.99,.67,1.8,1.38,2.33,3.11,1.51,8.05-3.82,12.74-10.31,14.05-18.94,1.15-7.63,1.57-15.37,2.33-23.07,.28-2.83,.6-5.66,.9-8.49,.5-.12,1-.24,1.5-.37,1.91,3.37,4.21,6.59,5.64,10.15,3.45,8.56,2.64,17.35-.16,25.85-2.12,6.43-4.6,12.84-7.83,18.76-1.29,2.36-4.87,3.71-7.66,4.97-5.12,2.31-10.41,4.28-15.69,6.22-1.45,.53-3.12,.46-4.95,.69-2.16-4.06-4.38-8.22-6.65-12.49-1.22,2.86-2.44,5.55-3.51,8.29-2.6,6.63-5.32,12.63-13.45,14.74-6.3,1.63-12.05,5.26-18.17,7.7-3.81,1.52-6.43-.08-6.68-4.09-.57-9.07-1.78-18.24-.97-27.22,.94-10.38,4.83-20.17,12.29-27.94,4.65-4.85,9.45-9.63,14.69-13.81,2.39-1.9,5.36-2.69,5.81-6.41,.16-1.29,8.47-4.27,10.86-3.74Z"/><path class="cls-1" d="M511.71,577.84c-1.19-2.02-2.24-3.37-2.85-4.9-3.85-9.59-7.98-19.09-11.29-28.87-4.39-12.98-7.98-26.16-7.79-40.13,.04-3.22,.98-5.02,3.37-6.16,2.36-1.12,5.02-1.61,7.55-2.38,2.03,8.9,3.83,16.83,5.64,24.76,.47,0,.94,0,1.41-.01,1.18-3.78,2.31-7.57,3.54-11.34,1.96-6.03,3.68-12.16,6.04-18.03,2.6-6.48,5.63-12.8,8.8-19.01,1.15-2.26,3.14-4.16,5.02-5.93,.59-.55,2.48-.58,3.08-.05,.89,.78,1.85,2.47,1.58,3.43-1.37,4.88-3.21,9.63-4.74,14.47-2.2,6.97-4.65,13.9-6.31,21-2.31,9.89-4.18,19.9-5.86,29.92-1.26,7.5-1.92,15.11-2.88,22.67-.74,5.87-1.48,11.74-2.36,17.59-.13,.84-1.01,1.57-1.96,2.97Z"/><path class="cls-1" d="M541.03,502.24c5.98-3.81,11.96-7.62,17.91-11.41,2.97,4.29,.69,11.95-2.97,14.23-5.61,3.5-10.8,7.65-16.13,11.59-.43,.32-.67,1.13-.68,1.72-.06,3.25-.03,6.5-.03,10.63,6.86-3.88,12.86-7.28,19.44-11.01,.54,1.81,1.37,3.51,1.48,5.26,.15,2.36-.3,4.76-.44,7.15-.33,5.58-5.12,6-8.83,7.62-5.89,2.56-11.78,5.13-17.75,7.49-2.36,.93-4.94,1.3-8.29,2.15,.37-7.41,.5-14,1.07-20.55,.71-8.09,1.61-16.16,2.76-24.2,.93-6.53,1.89-13.14,3.83-19.41,.64-2.06,4.26-3.48,6.77-4.64,6.28-2.88,12.7-5.46,19.08-8.11,1.31-.54,2.69-.9,4.04-1.35,2.29,8.07,.66,11.54-7.02,14.13-3.44,1.16-6.85,2.57-10.03,4.32-1.24,.68-2.13,2.49-2.6,3.97-1.05,3.27-1.74,6.66-2.58,10,.32,.14,.65,.29,.97,.43Z"/><path class="cls-1" d="M563.11,532.49c0-5.02-.09-9.64,.02-14.26,.2-8.99,.06-18.03,.91-26.97,.75-7.85,2.44-15.64,4.23-23.34,.34-1.45,3-2.56,4.78-3.44,2.48-1.22,5.13-2.11,7.74-3.03,1-.35,2.95-.72,3.02-.53,.51,1.33,1.12,2.92,.82,4.23-1.1,4.84-2.89,9.53-3.76,14.4-1.27,7.03-1.99,14.15-2.91,21.24-.35,2.69-.67,5.38-.9,8.08-.08,.97,.14,1.97,.26,3.44,1.91-.97,3.4-1.64,4.8-2.44,4.43-2.53,8.79-5.17,13.24-7.66,2.85-1.6,5.47-.01,5.12,3.21-.46,4.18-1.21,8.34-1.98,12.47-.14,.72-.89,1.64-1.58,1.91-10.55,4.16-21.13,8.24-31.71,12.32-.28,.11-.6,.11-2.1,.37Z"/><path class="cls-1" d="M464.85,573.24c-3.47-5.03-2.61-10.6-2.84-15.93-.44-10.51-.84-21.02-.85-31.53,0-4.07,.5-8.35,1.89-12.13,.84-2.29,3.54-4.38,5.9-5.54,5.13-2.51,10.57-4.39,15.9-6.48,.69-.27,1.5-.24,2.38-.37,.51,2.15,1.26,4.18,1.42,6.27,.19,2.5-.58,4.51-3.42,5.57-3.55,1.32-6.93,3.13-10.26,4.95-.76,.41-1.33,1.68-1.46,2.62-.54,3.76-.88,7.56-1.32,11.64,5.89-1.37,9.48-7.57,15.87-6.32v7.88c-4.64,3.43-9.07,6.85-13.67,10.04-2.46,1.71-2.22,4.04-2.08,6.41,.14,2.37,.46,4.72,.77,7.87,2.31-1.44,4.28-2.58,6.15-3.87,3.14-2.15,6.14-4.52,9.34-6.57,2.09-1.34,3.37,.43,3.61,2.02,.38,2.48,.11,5.06,.06,7.59-.09,4.7-3.42,6.47-7.15,7.98-6.12,2.48-12.19,5.09-18.29,7.61-.57,.23-1.25,.2-1.95,.3Z"/></g><g><path class="cls-1" d="M530.28,562.74c-1.3,1.05-4.99,1.9-6.21,2.07l-.16-.98c4.42-1.47,6.85-3.99,7.78-7.12l1.31-.55,7.73,30.77,4.07-1.71,.35,1.3-12.71,5.36-.35-1.3,4.66-1.96-6.46-25.86Z"/><path class="cls-1" d="M544.15,561.44c-2.04-4.83,.75-10.29,6.26-12.62,4.57-1.93,8.47-.98,10.18,3.09,1.86,4.41-.01,9.09-4.48,11.62l.03,.19c4.58-1.43,7.62-.27,9.28,3.67,2.5,5.93-.76,11.45-6.95,14.06-5.21,2.2-9.33,1.29-11.3-3.37-2.09-4.96,.1-10.07,5.39-12.9l-.05-.13c-3.76,1.03-6.93-.22-8.36-3.61Zm7.09,14.67c1.52,3.6,3.77,5.15,6.86,3.84,3.64-1.54,5.51-5.27,3.07-11.07-1.66-3.94-3.99-4.85-6.7-3.71-3.39,1.43-5.58,5.35-3.22,10.94Zm-2.9-15.74c1.32,3.13,3.48,4.12,5.77,3.15,3.01-1.27,4.74-4.49,2.51-9.79-1.39-3.3-3.31-4.54-5.77-3.5-3.77,1.59-4.35,5.78-2.51,10.14Z"/><path class="cls-1" d="M569.58,559.05l-.92-.06-2.56-15.89,.53-.62c2.22-.19,4.81-.53,7.65-1.73,2.67-1.13,4.08-2.27,3.78-5.24l.92-.19c1.29,4.84-.43,8.21-5.38,10.3-1.61,.68-3.68,1.1-5.19,1.19l1.37,10.1c.93-1.34,3.15-3.53,5.74-4.61,4.96-2.09,8.36-.18,9.91,3.51,3.23,7.67-.86,14.63-7.52,17.44-3.18,1.34-7.14,1.52-8.57-1.87-.96-2.29-.19-4.11,1.72-4.92,2.54-1.07,3.43,1.05,3.53,3.15l-1.48,.63c-.33,2.29,2.08,2.57,4.33,1.62,4.41-1.86,6.74-6.49,3.67-13.77-1.48-3.52-3.41-4.9-6.17-3.74-2.2,.93-4.02,2.64-5.35,4.7Z"/><path class="cls-1" d="M594.29,530.32c4.62-1.95,9.26-.51,12.57,7.32,3.45,8.18,5.24,21.19-4.5,25.3-5.55,2.34-10.13-1.32-12.81-7.67-3.27-7.75-4.83-20.92,4.75-24.95Zm.02,24.79c2.7,6.4,4.84,7.59,7.81,6.34,5.59-2.36,4.63-12.68,.2-23.19-2.45-5.8-4.9-7.71-7.78-6.5-5.38,2.27-4.65,12.89-.23,23.35Z"/></g></g><g id="Calque_2-2"><g id="skieur"><path class="cls-1" d="M488.9,387.23c4.2-6.64,7.35-13.95,10.76-21.06,.37-.76-.17-2.7-.87-3.12-4.56-2.7-7.37-6.69-9.49-11.4-.33-.73-1.7-1.55-2.46-1.43-2.51,.38-4.93,1.31-7.43,1.76-3.4,.62-4.31,1.85-3.03,5.48,2.52,7.11-2.5,16.66-10.74,20.89-9.66,4.96-19.51,9.53-29.16,14.49-1.85,.95-3.55,2.65-4.72,4.41-6.77,10.13-14.29,19.6-23.22,27.93-5.14,4.79-12.16,7.98-13.76,15.85-.06,.28-.35,.54-.56,.77-4.57,4.88-8.78,10.18-13.8,14.55-11.93,10.37-22.77,21.71-32.17,34.4-7.93,10.7-14.2,22.32-18.9,34.8-.93,2.45-1.87,5.56-3.81,6.84-3.89,2.56-8.42,4.17-12.77,5.98-12.24,5.07-24.52,10.04-36.78,15.06-5.01,2.05-10.02,4.12-15.23,6.27l-14.8,6.47c-3.36,1.49-6.43,2.93-9.57,4.22-12.17,5.03-24.37,9.99-36.52,15.06-.61,.26-1.26,1.31-1.22,1.95,.03,.49,1.09,1.19,1.78,1.3,3,.46,6.04,.62,9.03,1.11,5.32,.86,10.25,.6,15.35-1.91,8-3.94,16.41-7.06,24.67-10.47,13.19-5.44,26.42-10.78,39.6-16.24,13.79-5.71,27.53-11.53,41.32-17.24,17.33-7.18,34.75-14.13,51.99-21.5,21.13-9.03,42.11-18.4,63.15-27.63,20.68-9.07,41.34-18.19,62.05-27.21,10.02-4.37,19.98-8.89,30.2-12.75,9.4-3.55,17.42-8.54,22.93-17.15,2.96-4.63,4.89-9.54,4.28-15.12-.12-1.11-.37-2.43-1.58-3.2-1.24-.08-1.78,1.1-2.4,1.87-3.56,4.4-6.99,8.9-10.56,13.29-.67,.82-1.73,1.33-2.66,2.02,0-3.75,.16-7.04-.11-10.29-.07-.83-1.49-2.09-2.36-2.16-.86-.06-1.97,1-2.69,1.81,0,0-2.8,5.54-6.77,9.59-2.61,2.66-13.17,8.45-13.17,8.45-6.39,3.57-12.74,7.25-19.35,10.38-14.28,6.74-28.64,13.31-43.08,19.7-12.91,5.71-26,11.04-38.96,16.65-9.36,4.05-18.65,8.29-27.98,12.42-1.12,.5-2.31,.85-3.64,1.34-.06-.64-.19-.98-.1-1.24,3.86-10.35,8.18-20.54,15.87-28.67,4.75-5.02,10.43-9.16,15.4-14,1.93-1.88,2.92-4.68,4.51-6.95,6.46-9.22,13.26-18.2,19.37-27.64,3.74-5.78,9.56-8.51,14.81-12.12,4.75-3.27,8.62-5.62,14.75-9.37s14.62-17.23,14.62-17.23Z"/><circle class="cls-1" cx="510.62" cy="342.93" r="18.23"/><path class="cls-1" d="M446.17,362.53c-5.13,2.42-10.37,4.6-15.37,7.26-4.43,2.36-9.26,4.58-12.66,8.08-3.76,3.86-6.13,9.08-9.03,13.76-6.23,10.04-12.45,20.08-18.59,30.18-2.53,4.16-4.93,8.4-7.13,12.74-.49,.97,.14,2.5,.25,3.78,.65-.11,1.47-.02,1.92-.38,5.26-4.15,11.09-7.79,15.55-12.68,8.8-9.66,16.81-20.03,25.19-30.07,1.3-1.55,2.59-3.38,4.31-4.27,10.06-5.22,20.21-10.28,30.4-15.25,6.96-3.39,10.87-10.18,9.78-17.5-.36-2.42-1.19-3.95-4.09-2.8-1.77,.7-3.66,1.14-5.53,1.51l-15,5.65Z"/></g></g></svg>