<?xml version="1.0" encoding="UTF-8"?>
<svg xmlns="http://www.w3.org/2000/svg" xmlns:xlink="http://www.w3.org/1999/xlink" id="Calque_2" data-name="Calque 2" viewBox="0 0 372 372">
  <defs>
    <style>
      .cls-1 {
        filter: url(#drop-shadow-1);
      }

      .cls-1, .cls-2 {
        fill: #100c08;
      }

      .cls-3 {
        fill: #fff;
      }

      .cls-4 {
        fill: #9f906c;
      }

      .cls-2 {
        stroke: #9f906c;
        stroke-miterlimit: 10;
      }
    </style>
    <filter id="drop-shadow-1" x="0" y="0" width="372" height="372" filterUnits="userSpaceOnUse">
      <feOffset dx="0" dy="0"></feOffset>
      <feGaussianBlur result="blur" stdDeviation="2.89"></feGaussianBlur>
      <feFlood flood-color="#1d1d1b" flood-opacity=".2"></feFlood>
      <feComposite in2="blur" operator="in"></feComposite>
      <feComposite in="SourceGraphic"></feComposite>
    </filter>
  </defs>
  <g id="MACARON">
    <circle class="cls-1" cx="185.94" cy="185.95" r="177.17"></circle>
    <g>
      <path class="cls-4" d="M352.24,210.88c-2.35.45-4.78.86-7.16,1.24-.45,2.42-.81,4.85-1.34,7.25-.93-2.23-2.05-4.44-3.08-6.58-2.38.34-4.76.65-7.13.92,1.7-1.56,3.46-3.17,5.14-4.85-1.16-2.1-2.33-4.14-3.5-6.13,2.18.95,4.36,1.94,6.54,2.96,1.64-1.75,3.34-3.54,4.85-5.4l-.14,1.84c-.06.61-.15,1.22-.22,1.83l-.46,3.66c2.17,1.06,4.34,2.15,6.5,3.27Z"></path>
      <path class="cls-4" d="M343.43,244.92c-2.43-.06-4.85-.16-7.26-.29l-1.35,3.43c-.45,1.14-1,2.25-1.49,3.37l-.73-3.54-.89-3.53c-2.39-.16-4.77-.36-7.14-.58,1.98-1.18,3.98-2.4,6-3.68-.3-1.13-.65-2.26-1.03-3.39l-1.11-3.34c1.94,1.39,3.88,2.81,5.8,4.27,1.94-1.37,3.94-2.78,5.89-4.26-.75,2.34-1.56,4.66-2.34,6.99,1.92,1.5,3.79,3.01,5.64,4.54Z"></path>
      <path class="cls-4" d="M327.69,276.35c-2.35-.56-4.69-1.16-7.01-1.78l-1,1.55-1.07,1.5-2.13,3.01c0-2.46,0-4.85-.08-7.24-2.3-.66-4.63-1.37-6.91-2.09,2.27-.68,4.41-1.51,6.64-2.35-.17-2.37-.33-4.67-.66-7.01,1.62,1.77,3.23,3.58,4.81,5.4,2.18-.94,4.37-1.93,6.6-2.97l-1.84,3.2c-.61,1.07-1.22,2.14-1.9,3.16,1.54,1.84,3.05,3.71,4.55,5.61Z"></path>
      <path class="cls-4" d="M305.8,303.85c-2.17-1.02-4.33-2.09-6.5-3.2-1.79,1.69-3.53,3.42-5.35,5.07.54-2.37.96-4.8,1.38-7.14-2.13-1.13-4.23-2.28-6.32-3.46,2.29-.27,4.7-.5,7-.9.3-2.37.57-4.7.81-7,1.2,2.05,2.38,4.13,3.53,6.24l3.57-.68,3.52-.83c-.81.92-1.59,1.88-2.43,2.77l-2.54,2.67c1.13,2.13,2.24,4.29,3.32,6.46Z"></path>
      <path class="cls-4" d="M278.68,326.2c-1.93-1.48-3.83-2.97-5.71-4.49l-3.1,1.99-3.19,1.85,1.49-3.3c.48-1.1.92-2.25,1.36-3.36-1.84-1.54-3.66-3.09-5.44-4.66,2.29.2,4.63.38,7.02.53.85-2.17,1.52-4.5,2.22-6.7.76,2.27,1.49,4.56,2.19,6.86,2.38.03,4.82.06,7.27,0l-6,4.29c.68,2.34,1.29,4.64,1.89,6.98Z"></path>
      <path class="cls-4" d="M247.49,342.43c-1.57-1.84-3.12-3.69-4.63-5.55-1.13.47-2.3.86-3.47,1.25l-3.49,1.18c1.45-1.98,2.84-3.95,4.19-5.9-1.49-1.91-2.95-3.83-4.37-5.76,2.24.78,4.46,1.39,6.75,2,1.25-2.03,2.48-3.96,3.58-6.06.27,2.38.52,4.81.72,7.18,2.33.54,4.68,1,7.09,1.47l-3.36,1.52-1.68.76-1.71.68c.16,2.4.29,4.8.39,7.22Z"></path>
      <path class="cls-4" d="M213.6,351.8c-1.15-2.13-2.27-4.22-3.37-6.39l-7.31.94c1.83-1.66,3.6-3.31,5.32-4.95-1.06-2.17-2.08-4.35-3.07-6.52,2.01,1.15,4.09,2.38,6.19,3.39,1.64-1.73,3.23-3.45,4.77-5.16-.24,2.36-.51,4.74-.81,7.11,1.08.51,2.19,1.07,3.29,1.54l3.34,1.4-3.59.82-3.63.65c-.34,2.38-.72,4.78-1.12,7.17Z"></path>
      <path class="cls-4" d="M178.53,353.92c-.69-2.29-1.35-4.62-1.98-6.97-2.45-.19-4.9-.35-7.35-.57,2.12-1.22,4.2-2.51,6.23-3.76-.59-2.34-1.14-4.67-1.66-7.01,1.74,1.52,3.52,3.15,5.36,4.6,1.97-1.37,3.88-2.73,5.74-4.1-.72,2.27-1.48,4.54-2.27,6.81l2.9,2.19c.98.74,1.97,1.38,2.98,2.07-2.46.12-4.91-.01-7.37-.06-.83,2.27-1.68,4.53-2.57,6.8Z"></path>
      <path class="cls-4" d="M143.76,348.76c-.19-2.43-.35-4.85-.48-7.26l-3.55-1-1.77-.51-1.75-.59c2.31-.67,4.62-1.54,6.87-2.36-.09-2.4-.15-4.79-.17-7.18,1.38,1.86,2.8,3.73,4.28,5.62,2.2-.92,4.36-1.89,6.47-2.85-1.18,2.08-2.39,4.14-3.63,6.21l2.39,2.72c.81.92,1.63,1.82,2.48,2.67-1.22-.19-2.41-.49-3.61-.76l-3.59-.83c-1.28,2.05-2.6,4.11-3.93,6.12Z"></path>
      <path class="cls-4" d="M110.84,336.4c.32-2.41.66-4.8,1.04-7.17-1.09-.57-2.2-1.09-3.27-1.71l-3.2-1.83c2.44-.26,4.79-.44,7.19-.85.42-2.37.84-4.68,1.33-7.05.94,2.13,1.98,4.2,3.04,6.34,1.17-.21,2.3-.38,3.46-.63l3.44-.77c-1.59,1.79-3.21,3.57-4.86,5.33,1.16,2.07,2.37,4.17,3.63,6.29l-6.72-3.04c-1.67,1.71-3.37,3.41-5.1,5.1Z"></path>
      <path class="cls-4" d="M81.22,317.47c.8-2.28,1.63-4.53,2.48-6.77-1.88-1.58-3.72-3.21-5.59-4.81,2.45.25,4.86.46,7.23.65.91-2.24,1.84-4.46,2.79-6.66l.75,3.45c.27,1.15.58,2.26.89,3.41,2.39.06,4.69.14,7.04.08-1.95,1.44-3.88,2.82-5.85,4.18l.51,1.74.57,1.7,1.18,3.44c-2.01-1.42-4.03-2.82-5.93-4.38-2,1.34-4.02,2.66-6.07,3.96Z"></path>
      <path class="cls-4" d="M56.14,292.85c1.27-2.08,2.57-4.13,3.88-6.15-1.5-1.95-3.1-3.82-4.48-5.85,2.26.81,4.64,1.47,6.94,2.13,1.34-2,2.7-3.97,4.08-5.91.02,2.31.08,4.67.16,7.06,2.32.55,4.64,1.04,6.91,1.5-2.17.98-4.37,1.94-6.58,2.88.22,2.37.39,4.85.76,7.22l-1.27-1.34-1.21-1.39-2.42-2.78c-2.24.9-4.51,1.79-6.78,2.64Z"></path>
      <path class="cls-4" d="M36.76,263.53c1.67-1.76,3.35-3.49,5.04-5.2-1.17-2.17-2.14-4.42-3.16-6.66,2.13,1.22,4.15,2.45,6.32,3.54,1.71-1.66,3.44-3.31,5.23-4.94-.52,2.3-.86,4.56-1.27,6.92l3.17,1.53,3.25,1.39c-2.34.52-4.7,1.01-7.07,1.47-.27,2.36-.52,4.76-.74,7.21-1.22-2.14-2.48-4.25-3.65-6.4-2.36.41-4.74.79-7.13,1.14Z"></path>
      <path class="cls-4" d="M23.88,230.81c1.99-1.37,3.98-2.71,5.99-4.02-.6-2.38-1.12-4.79-1.68-7.18,1.83,1.64,3.65,3.24,5.46,4.78,2.05-1.28,4.11-2.53,6.18-3.74l-1.43,3.23c-.45,1.08-.86,2.17-1.28,3.28,1.9,1.45,3.72,2.87,5.64,4.2-2.42.03-4.78,0-7.18-.05l-.61,1.71-.54,1.71-1.06,3.47-1.18-3.49c-.4-1.16-.69-2.36-1.04-3.54-2.4-.09-4.82-.21-7.24-.36Z"></path>
      <path class="cls-4" d="M18.12,196.13c2.22-.93,4.44-1.82,6.72-2.68l-.19-7.37c1.46,1.99,2.93,3.92,4.39,5.8,2.27-.83,4.53-1.62,6.8-2.38l-2.05,2.87c-.69.97-1.36,1.95-1.98,2.94,1.56,1.81,3.11,3.58,4.66,5.29-2.33-.49-4.66-1-7-1.55l-1.89,3.11c-.6,1.05-1.16,2.1-1.74,3.17-.36-2.43-.52-4.89-.7-7.34-2.34-.59-4.68-1.21-7.02-1.86Z"></path>
      <path class="cls-4" d="M19.63,161.03c2.35-.45,4.78-.86,7.16-1.24.45-2.42.81-4.85,1.34-7.25.93,2.23,2.05,4.44,3.08,6.58,2.38-.34,4.76-.65,7.13-.92-1.7,1.56-3.46,3.17-5.14,4.85,1.16,2.1,2.33,4.14,3.5,6.13-2.18-.95-4.36-1.94-6.54-2.96-1.64,1.75-3.34,3.54-4.85,5.4l.14-1.84c.06-.61.15-1.22.22-1.83l.46-3.66c-2.17-1.06-4.34-2.15-6.5-3.27Z"></path>
      <path class="cls-4" d="M28.45,126.99c2.43.06,4.85.16,7.26.29l1.35-3.43c.45-1.14,1-2.25,1.49-3.37l.73,3.54.89,3.53c2.39.16,4.77.36,7.14.58-1.98,1.18-3.98,2.41-6,3.68.3,1.13.65,2.26,1.03,3.39l1.11,3.34c-1.94-1.39-3.88-2.81-5.8-4.27-1.94,1.37-3.94,2.78-5.89,4.26.75-2.34,1.56-4.66,2.34-6.99-1.92-1.5-3.79-3.01-5.64-4.54Z"></path>
      <path class="cls-4" d="M44.19,95.55c2.35.56,4.69,1.16,7.01,1.78l1-1.55,1.07-1.5,2.13-3.01c0,2.46,0,4.85.08,7.24,2.3.66,4.63,1.37,6.91,2.09-2.27.68-4.41,1.51-6.64,2.35.17,2.37.33,4.67.66,7.01-1.62-1.77-3.23-3.58-4.81-5.4-2.18.94-4.37,1.93-6.6,2.97l1.84-3.2c.61-1.07,1.22-2.14,1.9-3.16-1.54-1.84-3.05-3.71-4.55-5.61Z"></path>
      <path class="cls-4" d="M66.07,68.06c2.17,1.02,4.33,2.09,6.5,3.2,1.79-1.69,3.53-3.42,5.35-5.07-.54,2.37-.96,4.8-1.38,7.14,2.13,1.13,4.23,2.28,6.32,3.46-2.29.27-4.7.5-7,.9-.3,2.37-.57,4.7-.81,7-1.2-2.05-2.38-4.13-3.53-6.24l-3.57.68-3.52.83c.81-.92,1.59-1.88,2.43-2.77l2.54-2.67c-1.13-2.13-2.24-4.29-3.32-6.46Z"></path>
      <path class="cls-4" d="M93.19,45.71c1.93,1.48,3.83,2.97,5.71,4.49l3.1-1.99,3.19-1.85-1.49,3.3c-.48,1.1-.92,2.25-1.36,3.36,1.84,1.54,3.66,3.09,5.44,4.66-2.29-.2-4.63-.38-7.02-.53-.85,2.17-1.52,4.5-2.22,6.7-.76-2.27-1.49-4.56-2.19-6.86-2.38-.03-4.82-.06-7.27,0l6-4.29c-.68-2.34-1.29-4.64-1.89-6.98Z"></path>
      <path class="cls-4" d="M124.38,29.48c1.57,1.84,3.12,3.69,4.63,5.55,1.13-.47,2.3-.86,3.47-1.25l3.49-1.18c-1.45,1.98-2.84,3.95-4.19,5.9,1.49,1.91,2.95,3.83,4.37,5.76-2.24-.78-4.46-1.39-6.75-2-1.25,2.03-2.48,3.96-3.58,6.06-.27-2.38-.52-4.81-.72-7.18-2.33-.54-4.68-1-7.09-1.47l3.36-1.52,1.68-.76,1.71-.68c-.16-2.4-.29-4.8-.39-7.22Z"></path>
      <path class="cls-4" d="M158.27,20.1c1.15,2.13,2.27,4.22,3.37,6.39l7.31-.94c-1.83,1.66-3.6,3.31-5.32,4.95,1.06,2.17,2.08,4.35,3.07,6.52-2.01-1.15-4.09-2.38-6.19-3.39-1.64,1.73-3.23,3.45-4.77,5.16.24-2.37.51-4.74.81-7.11-1.08-.51-2.19-1.07-3.29-1.54l-3.34-1.4,3.59-.82,3.63-.65c.34-2.38.72-4.78,1.12-7.17Z"></path>
      <path class="cls-4" d="M193.34,17.98c.69,2.29,1.35,4.62,1.98,6.97,2.45.19,4.9.35,7.35.57-2.12,1.22-4.2,2.51-6.23,3.76.59,2.34,1.14,4.67,1.66,7.01-1.74-1.52-3.52-3.15-5.36-4.6-1.97,1.37-3.88,2.73-5.74,4.1.72-2.27,1.48-4.54,2.27-6.81l-2.9-2.19c-.98-.74-1.97-1.38-2.98-2.07,2.46-.12,4.91.01,7.37.06.83-2.27,1.68-4.53,2.57-6.8Z"></path>
      <path class="cls-4" d="M228.12,23.14c.19,2.43.35,4.85.48,7.26l3.55,1,1.77.51,1.75.59c-2.31.67-4.62,1.54-6.87,2.36.09,2.4.15,4.79.17,7.18-1.38-1.86-2.8-3.73-4.28-5.62-2.2.92-4.36,1.89-6.47,2.85,1.18-2.08,2.39-4.14,3.63-6.21l-2.39-2.72c-.81-.92-1.63-1.83-2.48-2.67,1.22.19,2.41.49,3.61.76l3.59.83c1.28-2.05,2.6-4.11,3.93-6.12Z"></path>
      <path class="cls-4" d="M261.04,35.51c-.32,2.41-.66,4.8-1.04,7.17,1.09.57,2.2,1.09,3.27,1.71l3.2,1.83c-2.44.26-4.79.44-7.19.85-.42,2.37-.84,4.68-1.33,7.05-.94-2.13-1.98-4.2-3.04-6.34-1.17.21-2.3.38-3.46.63l-3.44.77c1.59-1.79,3.21-3.57,4.86-5.33-1.16-2.07-2.37-4.17-3.63-6.29l6.72,3.04c1.67-1.71,3.37-3.41,5.1-5.1Z"></path>
      <path class="cls-4" d="M290.65,54.43c-.8,2.28-1.63,4.53-2.48,6.77,1.88,1.58,3.72,3.21,5.59,4.81-2.45-.25-4.86-.47-7.23-.65-.91,2.24-1.84,4.46-2.79,6.66l-.75-3.45c-.27-1.15-.58-2.26-.89-3.41-2.39-.06-4.69-.14-7.04-.08,1.95-1.44,3.88-2.82,5.85-4.18l-.51-1.74-.57-1.7-1.18-3.44c2.01,1.42,4.03,2.82,5.93,4.38,2-1.34,4.02-2.66,6.07-3.96Z"></path>
      <path class="cls-4" d="M315.73,79.05c-1.27,2.08-2.57,4.13-3.88,6.16,1.5,1.95,3.1,3.82,4.48,5.85-2.26-.81-4.64-1.47-6.94-2.12-1.34,2-2.7,3.97-4.08,5.91-.02-2.31-.08-4.67-.16-7.06-2.32-.55-4.64-1.04-6.91-1.5,2.17-.98,4.37-1.94,6.58-2.88-.22-2.37-.39-4.85-.76-7.22l1.27,1.34,1.21,1.39,2.42,2.78c2.24-.9,4.51-1.79,6.78-2.64Z"></path>
      <path class="cls-4" d="M335.11,108.38c-1.67,1.76-3.35,3.49-5.04,5.2,1.17,2.17,2.14,4.42,3.16,6.66-2.13-1.22-4.15-2.45-6.32-3.54-1.71,1.66-3.44,3.31-5.23,4.94.52-2.3.86-4.56,1.27-6.92l-3.17-1.52-3.25-1.39c2.34-.52,4.7-1.01,7.07-1.47.27-2.36.52-4.76.74-7.21,1.22,2.14,2.48,4.24,3.65,6.4,2.36-.41,4.74-.79,7.13-1.14Z"></path>
      <path class="cls-4" d="M347.99,141.1c-1.99,1.37-3.98,2.71-5.99,4.02.6,2.38,1.12,4.79,1.68,7.18-1.83-1.64-3.65-3.24-5.46-4.78-2.05,1.28-4.11,2.53-6.18,3.74l1.43-3.23c.45-1.08.86-2.17,1.28-3.28-1.9-1.45-3.72-2.87-5.64-4.2,2.42-.03,4.78,0,7.18.05l.61-1.71.54-1.71,1.06-3.47,1.18,3.49c.4,1.16.69,2.36,1.04,3.54,2.4.09,4.82.21,7.24.36Z"></path>
      <path class="cls-4" d="M353.76,175.77c-2.22.93-4.44,1.82-6.72,2.68l.19,7.37c-1.46-1.99-2.93-3.92-4.39-5.8-2.27.82-4.53,1.62-6.8,2.38l2.05-2.87c.69-.97,1.36-1.95,1.98-2.94-1.56-1.81-3.11-3.58-4.66-5.29,2.33.49,4.66,1,7,1.55l1.89-3.11c.6-1.05,1.16-2.1,1.74-3.17.36,2.43.52,4.89.7,7.34,2.34.59,4.68,1.21,7.02,1.86Z"></path>
    </g>
    <circle class="cls-2" cx="185.94" cy="185.95" r="136.98"></circle>
  </g>
  <g id="LOGO_66" data-name="LOGO 66">
    <g>
      <path class="cls-3" d="M167.32,157.21s6.49-7.06,1.18-25.61h6.63s1.44-.16,1.17,1.48c0,0-.1,2.4-.1,3.39,0,0,6.77-6.06,9.27-5.63,0,0,2.35,1.77,3.41,5.26,0,0,6.08-5.14,8.48-5.28,0,0,16.17,9.26-1.21,25.07,0,0-.71,1.21,1.42-.42,0,0,5.22-2.35,7.43-7.26l-.25,10.23h-12.58s7.76-19.42,2.78-22.69c0,0-5.57,1-5.6,4.14-.07,5.77-.07,12.97-.07,14.19,0,1.9,1.84,4.36.92,4.36h-8.89c-1.18,0,1.15-1.94,1.21-4.15.04-1.65.3-3.02.3-18.63,0,0-9.62,1.42-6.07,22.54,0,0,.68.24-1.36.24h-7.9s-.55-.43-.19-1.23"></path>
      <path class="cls-3" d="M212.61,143.81v-10.53c1.92.03,3.57.53,4.9,1.45,3.22,6.45-4.9,9.08-4.9,9.08M217.25,131.61h-13.29s-1.93-.25-1.65,0c0,0,1.33,1,2.7,3.32,2.03,3.42.93,23.44.93,23.44,0,0,8.34.07,9.59.07s-1.22-1.35-1.78-2.46c-.57-1.11-1.75-9.59-.66-10.66,1.09-1.07,11.18-1.33,11.19-7.16,0-2.51-.86-6.54-7.03-6.54"></path>
      <path class="cls-3" d="M222.38,131.68s1.17,1.22,2.03,2.72c1.78,3.11.7,18.08.71,19.08.02,2.71-5.19,4.96-3.01,4.96h17.18s1.88-6.92,1.38-9.89c0,0-2.75,7.64-8.95,7.29,0,0-.29-17.09-.14-19.66,0,0-.25-2.9,1.73-4.5h-10.93Z"></path>
      <path class="cls-3" d="M238.7,131.68s1.67.6,2.94,2.74c1.13,1.89,0,24.02,0,24.02h6.86s-.12-24.43,0-26.76h-9.8Z"></path>
      <path class="cls-3" d="M250.92,131.68h5.93l-.07,3.11s3.16-2.56,7.56-3.28c0,0,5.94-1.33,7.71,7.63,0,0,1.89,8.49-12.68,22.5,0,0,.89.52,3.01-.8,0,0,4.59-3.19,8.07-8.54l-.04,10.98h-14.67s.69-1.27,1.46-2.38c0,0,11.1-14.14,7.13-24.01,0,0-1.46-5.57-7.21.94v20.61h-6.19v-26.76Z"></path>
      <path class="cls-3" d="M249.3,125.93c0,2.7-2.17,4.9-4.89,4.9s-4.9-2.2-4.9-4.9,2.19-4.9,4.9-4.9,4.89,2.19,4.89,4.9"></path>
      <path class="cls-3" d="M107.56,111.37s.05.11.15.3c-.05-.1-.09-.2-.15-.3"></path>
      <path class="cls-3" d="M162.98,132.89c-1.71.92-5.22-2.44-5.22-2.44-3.26-1.06-6.42,5.26-6.42,5.26-4.38,7.28-.43,17.89-.43,17.89l-3.08,1.71-.12-.33c-1.35-6.2-7.02-9.52-7.02-9.52-1.07-.5-.43-.59-.43-.59,4.37-.52,6.22-2.41,7.33-3.91,1.11-1.49,1.07-2.7,1.21-4.21.18-1.75-.4-2.92-1.13-3.77-.74-.84-3.51-1.38-3.51-1.38h-18.27c-1.15,0-1.63.12-1.73.3v-2.36l.18-.65c1.29-.46,13.98-4.6,13.98-4.6,10.83-4.43,16.37-2.87,16.37-2.87,8.74,1.18,10.35,8.15,10.35,8.15.04,2.59-1.35,2.94-2.05,3.32M135.66,143.35v-8.16s6.77-2.73,6.73,2.01c0,.88-1.38,5.96-6.73,6.15M155.61,115.72c-8.95,1.97-20.14,6.18-20.14,6.18-16.45,6.05-29.32-11.02-27.91-9.07,11.86,16.38-8.92,30.89-8.92,30.89l18.73-10.81.09,20.97s-.2,7.24-2.24,8.81c-1.43,1.11-2.15,1.15-2.15,1.15h14.25c2.24-.03-.85-1.27-.85-1.27-2.99-2.06-2.3-9.15-2.3-9.15v-21.32c.2.41,1.57.94,1.57.94,8.62,5.38,1.05,23.72,1.05,23.72-1.15,1.69-2.38,1.69-2.38,1.69,13.3.2,11.31,0,11.31,0-.16-6.5.11-12.57.11-12.57,8.68,5.03,6.83,18.21,6.83,18.21,3.87-1.36,10.35-8.61,10.35-8.61,1.05,2.14,5,3.77,5,3.77.93-.13,3.07-4.03,3.07-4.03,4.3,9.29,11.32,11.92,11.32,11.92-9.48-13.15-7.81-20.96-7.81-20.96l-1.67.18c-3.8,5.96-4.91,6.66-4.91,6.66-2.83-5.08-.44-6.75-.44-6.75,1.35-1.82,5.96-3.5,5.96-3.5v-3.5c-5.35,2.01-6.67,4.12-6.67,4.12-.24-2.67.71-8.69.71-8.69l4.82,2.55c2.54,1.44,2.91-.03,2.91-.03,4.72-10.76,10.3-11.72,13.78-12.42,3.49-.44,9.28.56,9.28.56-7.37-8.82-23.81-11.58-32.76-9.6"></path>
      <path class="cls-3" d="M180.07,97.56c.07,3.24-.12,21.53-.12,21.53h17.23l-2.63-4.69c-.84.08-.31,2.02-3.65,1.95-2.36-.05-4.8-.03-4.8-.03,0,0,.29-16.49.25-18.34-.04-3.06,5.6-4.91,3.73-4.91h-13.16c-.84,0,3.1,2.01,3.15,4.48"></path>
      <path class="cls-3" d="M209.77,92.21c.03,2.58-.89,2.39-1.59,2.77-1.7.93-5.2-2.43-5.2-2.43-3.28-1.06-6.43,5.26-6.43,5.26-4.38,7.28-1.42,15.07-.03,17.38,3.62,6.04,6.83,6.31,6.71,6.12.92-.13,3.05-4.04,3.05-4.04,4.31,9.3,11.33,11.93,11.33,11.93-9.48-13.15-7.81-20.96-7.81-20.96l-1.67.18c-3.8,5.96-4.9,6.67-4.9,6.67-2.85-5.08-.43-6.75-.43-6.75,1.33-1.83,5.94-3.52,5.94-3.52v-3.51c-5.34,2.02-6.67,4.13-6.67,4.13-.24-2.67.72-8.69.72-8.69l4.81,2.55c2.53,1.43,2.91-.03,2.91-.03,1.26-2.88,2.59-5.4,3.93-7.06h-4.68Z"></path>
      <path class="cls-3" d="M135.83,259.13l-2.2,3.73s-5.62.08-8.07,2.8c-3.12,3.46-3.73,5.83-2.92,6.89.82,1.06,2.13,1.3,3.98,0l1.84-1.32v4.87s-.78,1.89-2.74,2.98c-1.63.91-6.01,1.29-7.59-.54-1.58-1.83-2.12-7.08,1.04-11.83,2.32-3.49,5.72-6.82,10.32-7.74,4.6-.92,6.35.15,6.35.15"></path>
      <path class="cls-3" d="M161.96,267.16l3.07-5.18s3.12-.62,3.1.61c-.03,1.24-.73,2.04-2.22,2.91-1.49.88-3.95,1.67-3.95,1.67M194.86,259.7l-2.36,6.4s-2.9-.19-3.78.45c-.87.6,4.03-6.85,4.03-6.85h-5.1s-5.1,9.74-6.79,13.49v-1.96l-1.84,1.32c-1.84,1.3-3.16,1.05-3.98,0-.81-1.06-.2-3.44,2.92-6.89,2.46-2.72,5.66-2.36,5.66-2.36l1.76-3.72s-.7-.2-3.69,0c-4.69.32-7.82,3.65-10.13,7.14-1.27,1.91-1.94,3.87-2.18,5.69-1.77-2.61-3.47-4.45-3.47-4.45,0,0,.72-.25,3.08-1.3,2.37-1.07,3.2-2.33,2.97-4.05-.37-2.9-4.21-2.9-4.21-2.9h-5.79s-2.54,4.42-4.63,8.46c.24-.64.45-1.3.65-1.98.89-2.97.87-5.94.89-6.48h-3.78c-.28,1.65-.67,6.4-2.6,9.61-1.04,1.76-3.46,3.93-4.56,3.03-1.11-.9-.78-2.81.32-5.07,1.1-2.27,4.76-6.87,4.76-6.87,0,0,.18-.3.32-.7h-3.92c-1.59,1.6-2.96,4.32-4.68,7.62-.07.13-.13.27-.2.4.15-.56.27-1.13.33-1.72.53-3.07-.44-4.73-.44-4.73l-3.42,3.07s.44.98.29,1.76c-.23,1.32-1.48,3.64-2.79,4.87-1.31,1.23-3.29,3.11-4.34,2.15-1.06-.96-.44-3.76.78-5.96,1.23-2.2,5.45-3.68,5.45-3.68l3.25-3.34s-.85-.86-3.6-.43c-2.87.43-5.81,2.59-8.61,7.33-2.34,3.96-2.55,8.95-1.56,11.01.87,1.8,5.88,1.05,8.25-.87,1.79-1.48,4.11-4.13,5.53-7.09-.97,3.36-.75,6.77.12,8.35.98,1.74,5.93.73,8.19-1.34,1.05-.96,2.05-2.24,2.95-3.75-1.34,3.71-.93,5.72-.93,5.72h4.89s1.04-9.94,1.77-9.56c5.27,2.66,6.75,12.66,6.75,12.66,0,0,3.71-1,4.85-2.61,1.98.59,4.67.2,5.86-.47.7-.39,1.25-.89,1.67-1.35,0,.81.07,1.32.07,1.32h6.06s1.32-8.45,2.19-9.4c.87-.93,2.54-.44,2.54-.44,0,0-1.23,4.55-2.11,8.21-.39,1.63-.28,1.63-.28,1.63h5.11s1.14-12.86,6.14-19.35h-4.65Z"></path>
      <path class="cls-3" d="M196.71,279.3c2.36.34,10.34-1.26,10.34-1.26l.17-4.56-6.42.34c-.26-.96,1.34-4.16,1.34-4.16l5.96-.89.6-3.23-5.33.57,1.56-2.99h6.92l.51-3.41h-9.78c-5.98,8.07-7.48,19.38-5.88,19.6"></path>
      <path class="cls-3" d="M237.84,262.97l.51-3.41h-9.56s.06-.04.1-.05l-6.5.19s-4.73,6.24-5.34,9.96c-.5,3.11-.96-9.96-.96-9.96h-3.73s-1.7,13.9,2.94,23.4c.44.91,7.29-19.22,13.1-23.3-5.81,8.05-7.29,19.14-5.7,19.36,2.38.33,10.34-1.27,10.34-1.27l.18-4.57-6.41.36c-.27-.97,1.32-4.15,1.32-4.15l5.98-.91.61-3.22-5.35.56,1.57-2.99h6.92Z"></path>
      <path class="cls-3" d="M239.99,259.7h3.99s-3.75,10.59-4.79,14.82c0,0,5.57-3.18,6.84-3.18.92,0-.99,7.74-2.18,7.74-2.23,0-9.86-.03-9.86-.03,0,0,.75-7.99,6-19.35"></path>
      <path class="cls-3" d="M186.19,172.08c-27.92-10.91-54.41-.27-72.3,18.76-17,18.08-25.64,61.63,15.72,64.35,39.2,2.57,69.69-49.86,33.18-63.05-19.39-7.01-40.37,6.57-46.64,16.15,7.44-5.94,24.32-15.71,40.87-11.18,14.82,4.05,11.29,22.25,6.02,33.36-5.68,11.98-18.56,25.64-37.19,21.56-15.82-3.47-24.32-32.39-2.84-59.1,13.72-17.05,33.02-28.66,63.19-20.85"></path>
      <path class="cls-3" d="M236.37,190.7c-17.74-3.1-35.55,8.89-41.24,17.58,6.56-5.24,20.44-13.44,34.97-12.22l6.27-5.37Z"></path>
      <path class="cls-3" d="M256.51,222.91c2.3-6.91,2.29-13.86-.79-19.64l-9.91,3.24c1.59,5.47.52,12.3-1.51,18.31l12.21-1.91Z"></path>
      <path class="cls-3" d="M185.69,245.92c4.72,5.08,12.11,8.57,22.89,9.28,18.77,1.23,35.54-10.14,43.91-23.78l-12.17,2.29c-6.33,11.04-18.53,22.05-35.5,18.33-4.4-.96-8.24-3.9-11.02-8.21l-8.1,2.1Z"></path>
      <path class="cls-3" d="M265.17,172.08c-27.92-10.91-54.41-.27-72.3,18.76-10.73,11.41-18.12,32.95-11.74,47.99l9.42-2.19c-3.46-11.61-1.17-28.03,11.43-43.7,13.72-17.05,33.02-28.66,63.19-20.85"></path>
      <g>
        <polygon class="cls-3" points="251.54 235.29 262.16 232.59 261.48 235.12 250.85 236.86 251.54 235.29"></polygon>
        <polygon class="cls-3" points="250.34 246.54 256.68 231.81 258.65 231.11 254.02 244.17 258.47 243.52 257.45 246.54 250.34 246.54"></polygon>
        <polygon class="cls-3" points="262.21 246.54 267.56 229.37 265.59 230.07 259.54 246.54 262.21 246.54"></polygon>
        <path class="cls-3" d="M264.11,239s2.92-1.72,3.58-2.05c.66-.33,2-.83,1.59,1.1-.41,1.93-1.78,8.49-1.78,8.49h-2.46s1.58-5.7,1.71-6.29c.14-.59.2-1.17-.59-.67-.8.5-2.71,1.5-2.71,1.5"></path>
        <path class="cls-3" d="M274.16,244.26c0,.91-.73,1.65-1.63,1.65s-1.63-.74-1.63-1.65.73-1.65,1.63-1.65,1.63.74,1.63,1.65"></path>
      </g>
      <g>
        <path class="cls-3" d="M178.37,241l18.6-4.2c5.31-13.48,25.18-22.56,26.64-23.24,1.46-.68,1.84-1.01,2.19-2.14.27-.84.61-1.67.97-2.65.34-.9,1.29-1.06,1.71-1.16,6.27-1.54,10.48-5.41,13.89-9.39,2.51-.13,5.55-.41,9.31-1.12,5.48-1.02,5.4-6.45,5.35-7.46,2.01-.42,3.77-.45,3.77-.45-.12,1.42.84,4.17,2.46,4.75-1.31,1.59-2.49,3.19-3.57,4.61-1.08,1.43-3.58,2.89-5.98,3.35-9.1,1.76-20.09,10.67-21.7,14.29-1.61,3.62-2.47,3.37-4.5,4.63-2.03,1.26-9.54,7.25-11.17,12.11,3.13-.64,40.59-8.02,44.29-9.15,3.69-1.13,8.68-3.13,11.04-6.24.14,1.53-.28,3.46-1.26,4.71,2.76-.49,5.49-1.69,6.94-3.36-.48,2.64-3.81,5.84-6.96,6.75-2.08.6-90.32,19.41-90.32,19.41"></path>
        <path class="cls-3" d="M255.25,189.75c.07,1.45-.16,4.88-3.88,5.58-3.12.58-6,.93-9.07,1.09l-.76.04-.5.59c-3.89,4.55-10.21,9.74-20.48,10.52,2.6-1.17,7.41-4.26,9.06-6.18,1.65-1.92,6.79-8.01,7.67-9.01.87-1,.96-.99,2.64-1.12,1.68-.13,15.33-1.5,15.33-1.5"></path>
        <path class="cls-3" d="M272.82,188.9c-.24,2.94-2.78,5.12-5.67,4.89s-5.04-2.8-4.8-5.74c.24-2.94,2.78-5.12,5.66-4.89,2.89.24,5.04,2.81,4.8,5.74"></path>
      </g>
    </g>
  </g>
</svg>
