<?xml version="1.0" encoding="UTF-8"?><svg id="Layer_1" xmlns="http://www.w3.org/2000/svg" width="339.17" height="99.73" viewBox="0 0 339.17 99.73"><polygon points="67.15 0 57.76 15.1 52.14 3.6 46.09 8.77 47.61 10.55 51.33 7.39 56.3 17.5 28.45 62.3 9.78 46.8 6.06 46.8 0 56.82 2.4 58.14 4.51 54.46 30.81 76.24 42.38 57.06 68.19 97.27 67.4 98.33 69.79 99.12 80.03 92.81 78.73 91.49 76.61 92.78 47.23 49.03 60.78 26.59 66.33 37.86 73.98 32.85 72.86 31.19 67.44 34.74 62.24 24.18 74.43 3.97 67.15 0" style="fill:#c32126;"/><path d="M116.96,99.12l-12.09-37.02h5.16l5.77,18.23c1.59,5,2.97,9.5,3.95,13.84h.11c1.04-4.29,2.58-8.95,4.23-13.79l6.26-18.29h5.11l-13.23,37.02h-5.27Z" style="fill:#414042;"/><path d="M142.34,87.48l-3.84,11.64h-4.94l12.58-37.02h5.77l12.63,37.02h-5.1l-3.95-11.64h-13.13ZM154.48,83.74l-3.63-10.66c-.83-2.41-1.38-4.61-1.92-6.75h-.11c-.55,2.2-1.15,4.44-1.87,6.7l-3.62,10.71h11.15Z" style="fill:#414042;"/><polygon points="169.97 62.1 174.74 62.1 174.74 95.11 190.56 95.11 190.56 99.12 169.97 99.12 169.97 62.1" style="fill:#414042;"/><polygon points="198.09 66.17 186.83 66.17 186.83 62.1 214.24 62.1 214.24 66.17 202.92 66.17 202.92 99.12 198.09 99.12 198.09 66.17" style="fill:#414042;"/><path d="M218.35,62.6c2.42-.5,5.88-.77,9.17-.77,5.11,0,8.4.94,10.71,3.02,1.87,1.64,2.91,4.17,2.91,7.03,0,4.89-3.08,8.13-6.97,9.45v.17c2.85.99,4.56,3.62,5.44,7.47,1.21,5.17,2.09,8.73,2.86,10.17h-4.95c-.6-1.1-1.42-4.23-2.47-8.84-1.1-5.11-3.07-7.03-7.41-7.2h-4.5v16.04h-4.78v-36.52ZM223.13,79.46h4.89c5.11,0,8.35-2.8,8.35-7.03,0-4.78-3.46-6.87-8.51-6.92-2.31,0-3.96.22-4.72.44v13.51Z" style="fill:#414042;"/><path d="M254.17,87.48l-3.84,11.64h-4.94l12.58-37.02h5.77l12.63,37.02h-5.1l-3.95-11.64h-13.13ZM266.3,83.74l-3.62-10.66c-.82-2.41-1.38-4.61-1.92-6.75h-.11c-.55,2.2-1.15,4.44-1.87,6.7l-3.62,10.71h11.15Z" style="fill:#414042;"/><path d="M281.8,99.12v-37.02h5.22l11.86,18.73c2.75,4.33,4.89,8.24,6.65,12.03l.11-.06c-.44-4.94-.55-9.45-.55-15.21v-15.49h4.5v37.02h-4.83l-11.76-18.79c-2.58-4.12-5.05-8.35-6.92-12.36l-.16.06c.28,4.67.39,9.11.39,15.27v15.82h-4.5Z" style="fill:#414042;"/><path d="M317.28,93.3c2.14,1.32,5.27,2.42,8.57,2.42,4.89,0,7.74-2.58,7.74-6.32,0-3.46-1.97-5.43-6.97-7.36-6.04-2.14-9.77-5.27-9.77-10.49,0-5.77,4.78-10.05,11.97-10.05,3.79,0,6.54.88,8.18,1.81l-1.32,3.9c-1.21-.66-3.68-1.76-7.03-1.76-5.05,0-6.97,3.02-6.97,5.55,0,3.46,2.25,5.16,7.36,7.14,6.26,2.41,9.45,5.44,9.45,10.87,0,5.71-4.23,10.71-12.96,10.71-3.57,0-7.47-1.1-9.45-2.42l1.21-4.01Z" style="fill:#414042;"/><path d="M189.58,25.34l.12.08c.4.29.42.56.42,2.54v2.86c0,3.56-.41,5.37-2.62,5.37h-28.89c-1.34,0-3.41-1.26-3.61-3.24v-6.62c0-1.79.27-2.64.51-3.17l.04-1.25-5.58,2.76.23.68.29.2q.25.17.25,1.71v4.67c0,3.18-.1,4.98-2.12,4.98-.63,0-2.9-1.33-3.71-2.95v-7.03c0-1.79.27-2.63.51-3.16l.04-1.25-5.58,2.76.23.68.29.21q.24.16.24,1.71v4.06c0,3.18-.1,4.98-2.13,4.98-.61,0-2.79-1.23-3.66-2.79v-6.47c0-1.79.27-2.63.51-3.17l.04-1.25-5.57,2.75.22.68.12.09c.39.28.41.55.41,2.54v7.35c0,.28,0,.58,0,.9,0,2.16-.02,4.85-1.95,6.87-2.24,2.29-4.23,2.61-6.05,2.61-4.7,0-8.56-3.03-10.6-5.87-1.34-1.86-1.71-3.39-1.48-4.07.27-.76.69-1.3,2.26-2.17l.4-.22-.8-1.49-.39.18c-2.89,1.29-4.75,3.01-5.09,4.72-.29,1.44.67,3.72,2.51,5.96,2.68,3.28,7.56,6.78,13.2,6.78,2.89,0,6.4-3.08,8.24-4.92,1.21-1.25,4.02-4.44,4.02-7.3v-1.36c2.2,2.08,3.72,2.37,4.82,2.37,2.41,0,4.09-1.01,4.82-2.86,2.47,2.53,4.11,2.86,5.28,2.86,2.26,0,3.86-.88,4.66-2.55,2.18,2.23,5.32,2.12,5.45,2.11h29.17c3.45,0,5.34-2.17,5.34-6.11v-6.76c0-2.01.36-2.82.51-3.17l.04-1.25-5.57,2.76.23.68Z" style="fill:#414042;"/><path d="M192.23,15.68c1.4,0,2.54-1.14,2.54-2.54s-1.14-2.55-2.54-2.55-2.55,1.16-2.55,2.49c0,1.45,1.12,2.6,2.55,2.6" style="fill:#414042;"/><path d="M206.29.15c-2.18,1.11-2.43,1.25-3.24,1.72-.43.25-1.04.6-2.22,1.25l-.37.21.79,1.7.44-.3c.18-.12.47-.25.57-.25.27,0,.36.36.36,2.45v32.26h4.27V4.74c0-2.55.18-2.87.49-3.47l.16-.3-.97-.97-.3.15Z" style="fill:#414042;"/><path d="M248.58,15.68c1.4,0,2.54-1.14,2.54-2.54s-1.14-2.55-2.54-2.55-2.54,1.16-2.54,2.49c0,1.45,1.11,2.6,2.54,2.6" style="fill:#414042;"/><path d="M242.04,15.68c1.41,0,2.55-1.14,2.55-2.54s-1.14-2.55-2.55-2.55-2.54,1.16-2.54,2.49c0,1.45,1.12,2.6,2.54,2.6" style="fill:#414042;"/><path d="M274.6,3.92l.12.09c.39.29.41.56.41,2.54v24.27c0,3.56-.4,5.37-2.62,5.37h-18.18c-1.17,0-3.5-1.22-3.61-3.44v-6.42c0-1.79.28-2.64.51-3.17l.04-1.25-5.58,2.76.22.68.12.08c.39.29.42.56.42,2.54v3.86c0,.83,0,2.78-.96,3.75-.41.41-.95.61-1.66.61h-17.41c-1.35,0-3.42-1.27-3.61-3.22v-5.71c0-1.47.48-4.11.59-4.38l.41-.69h-5.47l-.82-.02.41.69c.13.29.61,2.93.61,4.4v15.16c0,.22-.07,5.42-5.86,5.42-1.29,0-2.72-.39-3.84-1.04l-.72-.42.1,2.45.21.13c2.4,1.48,3.7,1.88,6.01,1.88,4.69,0,8.37-3.48,8.37-7.93v-5.33c2.1,1.73,4.77,1.62,4.87,1.62h17.69c2.12,0,3.67-.83,4.54-2.41,1.89,2.25,4.7,2.42,5.48,2.42.12,0,.18,0,.2,0h18.45c3.45,0,5.35-2.17,5.35-6.11V4.9c0-2.02.36-2.82.51-3.16l.04-1.25-5.58,2.75.22.68Z" style="fill:#414042;"/><path d="M330.8,15.68c1.41,0,2.55-1.14,2.55-2.54s-1.14-2.55-2.55-2.55-2.55,1.16-2.55,2.49c0,1.45,1.12,2.6,2.55,2.6" style="fill:#414042;"/><path d="M331.41,21.58c-5.68,0-9.96,3.81-9.96,8.86,0,2.2.63,4.21,1.81,5.75h-30.08c-2.21,0-2.62-1.8-2.62-5.36V4.9c0-2.02.35-2.82.51-3.16l.04-1.25-5.58,2.76.23.69.12.08c.39.28.41.55.41,2.54v26.53c0,3.94,1.9,6.11,5.35,6.11h41.08c4.39,0,6.44-3.58,6.44-6.01v-5.93c0-3.98-2.32-5.68-7.76-5.68M331.41,23.65c1.08,0,1.86.25,2.38.77,1.12,1.12,1.12,3.55,1.12,6.62v.55c0,3.82-1.36,4.59-3.39,4.59-2.7,0-5.58-2.64-5.58-6.57,0-3.23,2.5-5.97,5.47-5.97" style="fill:#414042;"/></svg>