<svg viewBox="21.7 0 4905.8 800.7" xmlns="http://www.w3.org/2000/svg" width="2500" height="410"><path d="M1370.4 1.3h-97.7V800h97.7zM1747.4 351.7h-279.9v97.8h279.9zM1942.7 1.3H1845V800h97.7zM4109.8 800h97.7V1.3h-97.7zM4435.6 1.3h-131v95.1h131c98.4 2.7 175.5 84.5 172.8 182.2-2.7 94.4-78.5 170.2-172.8 172.9h-131v95.1h131c150.2 0 272.5-122.4 272.5-272.7S4586.5 1.3 4435.6 1.3zM2535.1 1.3c-220.7 0-399.5 178.9-398.8 399.7s178.8 399.7 399.5 399c220.7 0 398.9-178.9 398.9-399.7-.7-220.1-178.8-399-399.5-399zm0 704.9c-168.2 0-305.1-137-305.1-305.2s136.9-305.2 305.1-305.2 305.1 136.3 305.1 305.2-136.3 305.2-305.1 305.2zM3504.9 1.3c-220.7 0-399.5 178.9-398.9 399.7.7 220.8 178.8 399.7 399.5 399 220.7 0 398.8-178.9 398.8-399.7-.7-220.1-178.8-399-399.5-399zm0 704.9c-168.2 0-305.1-136.3-305.1-305.2s136.3-305.2 305.1-305.2S3810 232.1 3810 401s-137 305.2-305.1 305.2zM798.2 644.4L694.5 303.2h-95.1L751 800h94.4L1088.7 1.3h-95.1zM116.1 1.3H21.7l150.9 496.8h95.1zM507.5 1.3L264.9 800h94.4L602.6 1.3zM4868.4 118.4c-32.6 0-59.2-26.6-59.2-59.2S4835.8 0 4868.4 0s59.1 26.6 59.1 59.2-26.6 59.2-59.1 59.2zm0-107.1c-25.9 0-47.2 21.3-47.2 47.2v.7c-1.3 25.9 18.6 47.9 44.6 49.2 25.9 1.3 47.8-18.6 49.2-44.6v-4.7c.7-25.9-19.9-47.2-45.9-47.9h-.6zm12.6 79.8l-13.3-25.3h-8v25.3h-12V27.3h23.9c10.6 0 20 8 20.6 19.3 0 8-5.3 14.6-12.6 17.3l14 26.6-12.6.7zm-10.7-53.9h-10.6v19.3h10.6c5.3.7 10-2.7 11.3-8 .6-5.3-2.7-10-8-11.3z"/></svg>