<?xml version="1.0" encoding="UTF-8" standalone="no"?>
<svg
   width="4925.293pt"
   height="656.43237pt"
   viewBox="0 0 4925.293 656.43237"
   version="1.1"
   id="svg21"
   sodipodi:docname="Cortefiel logo.svg"
   inkscape:version="1.1.1 (3bf5ae0d25, 2021-09-20)"
   xmlns:inkscape="http://www.inkscape.org/namespaces/inkscape"
   xmlns:sodipodi="http://sodipodi.sourceforge.net/DTD/sodipodi-0.dtd"
   xmlns="http://www.w3.org/2000/svg"
   xmlns:svg="http://www.w3.org/2000/svg">
  <defs
     id="defs25" />
  <sodipodi:namedview
     id="namedview23"
     pagecolor="#ffffff"
     bordercolor="#999999"
     borderopacity="1"
     inkscape:pageshadow="0"
     inkscape:pageopacity="0"
     inkscape:pagecheckerboard="0"
     inkscape:document-units="pt"
     showgrid="false"
     fit-margin-top="10"
     fit-margin-right="10"
     fit-margin-bottom="10"
     fit-margin-left="10"
     inkscape:zoom="0.19808437"
     inkscape:cx="3283.9542"
     inkscape:cy="441.73097"
     inkscape:window-width="1920"
     inkscape:window-height="1001"
     inkscape:window-x="-9"
     inkscape:window-y="-9"
     inkscape:window-maximized="1"
     inkscape:current-layer="svg21" />
  <g
     id="surface1"
     transform="translate(9.28125,9.476562)">
    <path
       style="fill:#211e1e;fill-opacity:1;fill-rule:nonzero;stroke:none"
       d="m 551.53516,125.20313 -33.49219,24.1914 C 496.66016,119.99219 472.19922,94.59375 444.65625,73.214844 417.11328,51.832031 383.57812,40.628906 344.05469,39.609375 270.51172,40.472656 215.22656,65.71875 178.19922,115.32031 c -37.02344,49.59375 -55.55078,118.33594 -55.59375,206.20313 0,46.07031 7.65234,89.35937 22.98437,129.84765 15.33203,40.49219 38.35938,73.42969 69.09766,98.82813 30.73828,25.39844 69.19922,38.49219 115.41016,39.28515 45.26171,-0.55468 85.46875,-12.6914 120.60546,-36.40234 35.14063,-23.71094 61.61719,-55.60937 79.4336,-95.71875 l 40.00781,19.53516 c -27.73828,56.33593 -63.90234,97.19531 -108.50781,122.59375 -44.60938,25.38672 -95.89063,37.8789 -153.8711,37.45312 C 250.36719,636.22266 198.61719,621.83984 152.48828,593.80078 106.36328,565.74609 69.691406,528.35156 42.488281,481.59766 15.285156,434.83203 1.359375,383.02734 0.71875,326.17969 1.375,261.52734 15.785156,204.85156 43.9375,156.15234 72.089844,107.44141 110.06641,69.449219 157.85547,42.148438 205.66016,14.847656 259.35156,0.976563 318.92578,0.523438 c 47.95703,0.539062 92.08203,12.023437 132.35938,34.425781 40.27734,22.40625 73.69921,52.488281 100.25,90.253911"
       id="path2" />
    <path
       style="fill:#211e1e;fill-opacity:1;fill-rule:evenodd;stroke:none"
       d="m 812.05469,318.72656 c -0.21485,29.85938 2.19922,60.87891 7.21093,93.07813 5.02735,32.19922 13.94532,62.35547 26.76172,90.45312 12.8086,28.10938 30.79688,50.92578 53.96485,68.47266 23.15625,17.54687 52.77343,26.58984 88.84765,27.1289 36.08986,-0.53906 65.74996,-9.58203 88.99996,-27.1289 23.2618,-17.54688 41.3594,-40.36328 54.2891,-68.47266 12.9414,-28.09765 21.9492,-58.2539 27.082,-90.45312 5.1094,-32.19922 7.5508,-63.21875 7.3477,-93.07813 0.2031,-29.83984 -2.2383,-60.86328 -7.3477,-93.0625 -5.1328,-32.19922 -14.1406,-62.35547 -27.082,-90.46484 -12.9297,-28.09766 -31.0273,-50.925782 -54.2891,-68.472657 -23.25,-17.550782 -52.9101,-26.59375 -88.99996,-27.117188 -36.07422,0.523438 -65.6914,9.566406 -88.84765,27.117188 -23.16797,17.546875 -41.15625,40.374997 -53.96485,68.472657 -12.8164,28.10937 -21.73437,58.26562 -26.76172,90.46484 -5.01171,32.19922 -7.42578,63.22266 -7.21093,93.0625 z m -121.88282,0 c 0.46875,-59.87109 13.38672,-113.6914 38.76954,-161.48047 C 754.32812,109.47266 789.36719,71.566406 834.07422,43.527344 878.79687,15.5 930.375,1.160156 988.83984,0.523438 1047.6211,1.160156 1099.4219,15.5 1144.2617,43.527344 c 44.8477,28.039062 79.9688,65.945316 105.3789,113.718746 25.418,47.78907 38.3477,101.60938 38.8086,161.48047 -0.4609,59.88672 -13.3906,113.70703 -38.8086,161.48047 -25.4101,47.78906 -60.5312,85.69531 -105.3789,113.72266 -44.8398,28.03906 -96.6406,42.3789 -155.42186,43.01562 C 930.375,636.30859 878.79687,621.96875 834.07422,593.92969 789.36719,565.90234 754.32812,527.99609 728.94141,480.20703 703.55859,432.43359 690.64062,378.61328 690.17187,318.72656"
       id="path4" />
    <path
       style="fill:#211e1e;fill-opacity:1;fill-rule:nonzero;stroke:none"
       d="M 1577.8203,620.19531 H 1464.2891 V 17.277344 h 260.539 c 36.6719,0.394531 67.7305,8.585937 93.1836,24.558594 25.4375,15.988281 44.7696,37.339843 58.0196,64.074222 13.25,26.71875 19.8984,56.41796 19.9882,89.07421 -0.9101,45.57422 -15.8281,79.57422 -44.7812,101.99219 -28.9297,22.4336 -66.4297,36.20313 -112.457,41.30078 l 160.039,281.91797 H 1774.1406 L 1609.4492,311.28906 h 7.4414 c 50.8711,0.25391 91.0313,-10.02344 120.4883,-30.82422 29.4727,-20.79687 44.5117,-53.63672 45.1328,-98.5 0.2891,-22.75781 -3.9023,-44.35156 -12.5508,-64.7539 -8.6406,-20.414065 -23.4414,-37.113284 -44.3828,-50.074221 -20.9375,-12.976563 -49.7265,-19.664063 -86.3593,-20.089844 h -61.3985 V 620.19531"
       id="path6" />
    <path
       style="fill:#211e1e;fill-opacity:1;fill-rule:nonzero;stroke:none"
       d="M 2256.1094,620.19531 H 2142.6016 V 56.347656 h -120.043 V 17.277344 h 353.5703 V 56.347656 H 2256.1094 V 620.19531"
       id="path8" />
    <path
       style="fill:#211e1e;fill-opacity:1;fill-rule:nonzero;stroke:none"
       d="m 2911.1406,620.19531 h -360.082 V 17.277344 h 356.3516 V 56.347656 H 2664.5781 V 288.95312 h 228.8711 v 39.08594 h -228.8711 v 253.07031 h 246.5625 v 39.08594"
       id="path10" />
    <path
       style="fill:#211e1e;fill-opacity:1;fill-rule:nonzero;stroke:none"
       d="M 3226.5586,620.19531 H 3113.0391 V 17.277344 h 346.1328 V 56.347656 H 3226.5586 V 288.95312 h 212.1406 v 39.08594 h -212.1406 v 292.15625"
       id="path12" />
    <path
       style="fill:#211e1e;fill-opacity:1;fill-rule:nonzero;stroke:none"
       d="M 3750.3984,620.19531 H 3636.8789 V 17.277344 h 113.5195 V 620.19531"
       id="path14" />
    <path
       style="fill:#211e1e;fill-opacity:1;fill-rule:nonzero;stroke:none"
       d="M 4344.9609,620.19531 H 3984.8711 V 17.277344 h 356.3594 V 56.347656 H 4098.3906 V 288.95312 h 228.8789 v 39.08594 h -228.8789 v 253.07031 h 246.5703 v 39.08594"
       id="path16" />
    <path
       style="fill:#211e1e;fill-opacity:1;fill-rule:nonzero;stroke:none"
       d="M 4906.0117,620.19531 H 4550.5781 V 17.277344 h 113.5235 V 572.74609 h 241.9101 v 47.44922"
       id="path18" />
  </g>
</svg>
