<svg width="234" height="82" viewBox="0 0 234 82" fill="none" xmlns="http://www.w3.org/2000/svg">
<path d="M15.5897 63.3414L9.00391 69.96L15.5897 76.5785L22.1755 69.96L15.5897 63.3414Z" fill="white"/>
<path d="M24.5936 54.2909L18.0078 60.9094L24.5936 67.528L31.1795 60.9094L24.5936 54.2909Z" fill="white"/>
<path d="M42.6034 18.0973L36.0176 24.7158L42.6034 31.3344L49.1892 24.7158L42.6034 18.0973Z" fill="white"/>
<path d="M60.6109 0L54.0235 6.61647L45.0195 15.6652L51.6069 22.2853L60.6109 13.2365L63.0276 15.6652L45.0195 33.7628L51.6069 40.3829L76.1986 15.6652L71.0051 10.4495L69.6149 9.04878L60.6109 0Z" fill="#F0780F"/>
<path d="M24.5918 0L20.7308 3.88012L15.5878 9.04878L9.00402 15.6652L54.0241 60.9127L51.6074 63.3414L24.5918 36.1951L0 60.9127L6.58374 67.5292L24.5918 49.4317L45.0201 69.9615L51.6074 76.578L58.1912 69.9615L60.6114 67.5292L67.1952 60.9127L22.1751 15.6652L24.5918 13.2365L33.5958 22.2853L40.1831 15.6652L24.5918 0Z" fill="#F0780F"/>
<path d="M82.0959 67.0513C84.437 67.0513 85.9713 68.1588 85.4418 71.0834L84.2425 77.9243C83.7707 80.5919 82.8847 81.761 80.3672 81.761H74.6406L77.2194 67.0513H82.0995H82.0959ZM79.5568 78.9522C80.324 78.9522 80.5617 78.536 80.7165 77.5877L81.8582 71.0834C82.0347 70.1351 81.761 69.7587 80.9939 69.7587H80.2663L78.6744 78.9522H79.5604H79.5568Z" fill="#F0780F"/>
<path d="M90.6323 77.6094L92.4835 67.0513H95.9446L94.0178 78.0437C93.6432 80.1973 92.5807 81.9998 89.8471 81.9998H89.2564C86.2671 81.9998 84.7904 80.219 85.2623 77.6709L87.1315 67.0549H90.5926L88.763 77.613C88.6262 78.4238 88.8819 78.8183 89.5518 78.8183C90.2613 78.8183 90.4954 78.384 90.6323 77.613V77.6094Z" fill="#F0780F"/>
<path d="M102.044 67.0513C104.09 67.0513 105.43 68.0611 104.958 70.6491L104.821 71.3802C104.565 73.0597 103.524 73.5157 102.912 73.675C103.542 73.932 104.526 74.6848 104.151 76.8782L103.895 78.3405C103.521 80.5158 102.754 81.761 100.413 81.761H94.3906L96.9694 67.0513H102.044ZM98.2263 79.1911H99.3068C100.016 79.1911 100.272 78.8545 100.427 77.9243L100.683 76.4801C100.819 75.7091 100.585 75.2531 99.7966 75.2531H98.9323L98.2227 79.1875L98.2263 79.1911ZM99.368 72.7665H100.333C100.982 72.7665 101.277 72.39 101.414 71.5793L101.572 70.7287C101.709 69.9179 101.515 69.5234 100.726 69.5234H99.9371L99.368 72.7665Z" fill="#F0780F"/>
<path d="M107.573 79.5458L106.903 81.761H103.812L108.574 67.0513H113.097L113.115 81.761H109.849L109.888 79.5458H107.565H107.573ZM109.953 76.8384L110.011 74.3663C110.068 72.8642 110.09 71.6987 110.148 70.7685C109.932 71.6372 109.597 72.7846 109.143 74.3482L108.394 76.8384H109.95H109.953Z" fill="#F0780F"/>
<path d="M113.828 81.761L116.407 67.0513H119.947L117.369 81.761H113.828Z" fill="#F0780F"/>
<path d="M91.1747 57.6657L90.6669 42.2973C90.5156 37.2408 90.5661 33.976 90.5661 31.1166C90.1087 34.385 89.6513 37.9575 88.686 43.0646L86.1469 57.6693H78.832L85.4878 19.679H95.9541L96.0549 32.5463C96.1053 36.1731 96.1053 38.5221 95.9541 40.5129C96.5627 38.6235 97.2759 36.2744 98.6481 32.597L103.222 19.679H113.995L107.339 57.6693H99.8186L102.408 43.0646C103.273 37.9575 104.032 34.537 104.695 31.1166C103.73 33.9253 102.509 37.2951 100.683 42.1959L94.7908 57.6693H91.1819L91.1747 57.6657Z" fill="white"/>
<path d="M118.964 37.241L116.32 19.6755H125.263L126.329 31.4208L131.206 19.6755H140.249L131.714 38.0084L134.303 57.6659H125.512L124.19 44.6972L118.449 57.6659H109.254L118.96 37.241H118.964Z" fill="white"/>
<path d="M143.607 57.6659L150.263 19.6755H164.032C168.909 19.6755 172.06 22.278 170.994 28.5614L170.486 31.2182C169.827 35.0476 167.792 36.528 165.455 37.2446C167.537 38.2653 168.959 40.2561 168.199 44.4945L166.575 53.8401C166.218 55.5268 166.424 56.6488 166.676 57.4125L166.625 57.6695H157.888C157.481 57.1085 157.279 56.0878 157.632 54.2998L159.206 45.1605C159.613 42.9128 158.95 41.9934 157.175 41.9934H155.244L152.449 57.6695H143.607V57.6659ZM158.698 35.0947C160.377 35.0947 161.136 34.226 161.493 32.1846L162.051 28.9668C162.408 26.9761 161.796 26.1074 159.97 26.1074H158.039L156.465 35.0947H158.702H158.698Z" fill="white"/>
<path d="M169.416 57.6659L176.072 19.6755H185.216L178.56 57.6659H169.416Z" fill="white"/>
<path d="M201.58 19.6755C207.627 19.6755 211.589 22.535 210.217 30.0925L207.116 47.7593C205.895 54.6509 203.611 57.6659 197.107 57.6659H182.322L188.978 19.6755H201.58ZM195.025 50.4124C197.006 50.4124 197.615 49.341 198.022 46.8906L200.968 30.0925C201.425 27.6421 200.712 26.6721 198.731 26.6721H196.851L192.735 50.416H195.022L195.025 50.4124Z" fill="white"/>
<path d="M232.674 27.3851H223.072L221.905 34.1246H230.034L228.662 41.9898H220.533L219.16 49.855H229.018L227.646 57.6659H209.051L215.707 19.6755H233.999L232.677 27.3851H232.674Z" fill="white"/>
</svg>
