<svg width="185" height="82" viewBox="0 0 185 82" fill="none" xmlns="http://www.w3.org/2000/svg">
<g clip-path="url(#clip0_16119_15610)">
<path d="M15.6682 63.3427L9.05078 69.9601L15.6682 76.5775L22.2856 69.9601L15.6682 63.3427Z" fill="white"/>
<path d="M24.717 54.2969L18.0996 60.9143L24.717 67.5317L31.3345 60.9143L24.717 54.2969Z" fill="white"/>
<path d="M42.8147 18.0959L36.1973 24.7134L42.8147 31.3308L49.4321 24.7134L42.8147 18.0959Z" fill="white"/>
<path d="M60.9131 0L54.2975 6.61563L45.248 15.665L51.8637 22.2855L60.9131 13.2361L63.3469 15.665L45.248 33.7639L51.8637 40.3843L76.5781 15.665L71.3629 10.4498L69.9625 9.04941L60.9131 0Z" fill="#E51A2F"/>
<path d="M24.7144 0L20.832 3.88246L15.665 9.04941L9.04941 15.665L54.2965 60.9121L51.8627 63.341L24.7144 36.1976L0 60.9121L6.61563 67.5277L24.7144 49.4337L45.247 69.9615L51.8627 76.5771L58.4783 69.9615L60.9121 67.5277L67.5277 60.9121L22.2855 15.665L24.7144 13.2361L33.7639 22.2855L40.3843 15.665L24.7144 0Z" fill="#E51A2F"/>
<path d="M82.5032 67.0497C84.8549 67.0497 86.4002 68.1555 85.8642 71.0818L84.6569 77.9244C84.1837 80.5948 83.2903 81.7586 80.76 81.7586H75.0039L77.5922 67.0497H82.4936H82.5032ZM79.9536 78.953C80.7262 78.953 80.9628 78.5377 81.1222 77.5864L82.2666 71.0818C82.4453 70.1305 82.17 69.7587 81.3974 69.7587H80.6634L79.0602 78.953H79.9487H79.9536Z" fill="#E51A2F"/>
<path d="M91.0841 77.6105L92.9432 67.0497H96.4249L94.4885 78.0451C94.1118 80.1988 93.0446 82 90.297 82H89.703C86.6994 82 85.2169 80.2182 85.6902 77.6685L87.5686 67.0497H91.0503L89.2105 77.6105C89.0704 78.4218 89.3312 78.8178 90.0024 78.8178C90.7123 78.8178 90.9537 78.3832 91.0889 77.6105H91.0841Z" fill="#E51A2F"/>
<path d="M102.552 67.0497C104.609 67.0497 105.951 68.0589 105.478 70.6472L105.338 71.3812C105.082 73.0617 104.034 73.5156 103.421 73.675C104.054 73.9309 105.044 74.6842 104.667 76.8765L104.411 78.3397C104.034 80.5127 103.262 81.7586 100.91 81.7586H94.8594L97.4477 67.0497H102.547H102.552ZM98.7177 79.1896H99.8042C100.514 79.1896 100.775 78.8516 100.929 77.9244L101.185 76.4806C101.325 75.7079 101.089 75.254 100.297 75.254H99.4275L98.7177 79.1896ZM99.8621 72.7671H100.833C101.485 72.7671 101.784 72.3905 101.919 71.5792L102.079 70.7293C102.219 69.9181 102.021 69.5221 101.229 69.5221H100.437L99.8621 72.7671Z" fill="#E51A2F"/>
<path d="M108.11 79.5469L107.439 81.7634H104.334L109.119 67.0544H113.668L113.688 81.7634H110.404L110.443 79.5469H108.11ZM110.501 76.8378L110.558 74.3654C110.616 72.8636 110.636 71.695 110.699 70.7679C110.481 71.6371 110.143 72.7864 109.689 74.3461L108.936 76.8378H110.496H110.501Z" fill="#E51A2F"/>
<path d="M114.398 81.7634L116.987 67.0544H120.546L117.957 81.7634H114.398Z" fill="#E51A2F"/>
<path d="M88.4082 57.667H79.2188L85.9068 19.6779H98.6745C104.088 19.6779 107.97 22.1792 106.744 28.819L105.672 34.8938C104.653 40.6644 102.301 43.3686 96.8395 43.3686H90.8661L88.413 57.667H88.4082ZM94.0774 36.5743C95.9172 36.5743 96.4242 35.7582 96.8347 33.5127L97.6025 29.2729C98.0129 26.873 97.2451 26.1583 95.4584 26.1583H93.9277L92.0878 36.5743H94.0774Z" fill="white"/>
<path d="M111.389 51.9447L109.651 57.6621H101.635L113.992 19.673H125.736L125.789 57.6621H117.314L117.416 51.9447H111.389ZM117.565 44.9524L117.72 38.5686C117.874 34.6861 117.923 31.6777 118.077 29.2729C117.517 31.5183 116.648 34.4833 115.474 38.5154L113.533 44.9476H117.565V44.9524Z" fill="white"/>
<path d="M127.624 57.667L134.312 19.6779H148.152C153.053 19.6779 156.221 22.2806 155.149 28.5631L154.637 31.219C153.975 35.0483 151.933 36.5308 149.581 37.2455C151.677 38.2644 153.106 40.2587 152.338 44.4985L150.706 53.8425C150.349 55.5278 150.552 56.6529 150.808 57.4159L150.755 57.6719H141.971C141.56 57.1117 141.357 56.088 141.715 54.3013L143.299 45.1601C143.709 42.9146 143.043 41.9923 141.256 41.9923H139.315L136.504 57.667H127.619H127.624ZM142.787 35.0966C144.472 35.0966 145.24 34.2274 145.597 32.1848L146.157 28.9687C146.515 26.9792 145.901 26.11 144.062 26.11H142.12L140.537 35.0966H142.782H142.787Z" fill="white"/>
<path d="M160.248 19.673H169.186L166.429 35.1449L175.058 19.673H184.247L174.136 37.5448L177.762 57.6621H168.573L165.511 40.4036L162.498 57.6621H153.564L160.253 19.673H160.248Z" fill="white"/>
</g>
<defs>
<clipPath id="clip0_16119_15610">
<rect width="184.248" height="82" fill="white"/>
</clipPath>
</defs>
</svg>
