<svg width="164" height="82" viewBox="0 0 164 82" fill="none" xmlns="http://www.w3.org/2000/svg">
<g clip-path="url(#clip0_15948_22501)">
<path d="M15.8543 64.1026L9.15625 70.8007L15.8543 77.4987L22.5524 70.8007L15.8543 64.1026Z" fill="white"/>
<path d="M25.0125 54.9431L18.3145 61.6412L25.0125 68.3393L31.7106 61.6412L25.0125 54.9431Z" fill="white"/>
<path d="M43.3289 18.3147L36.6309 25.0128L43.3289 31.7109L50.027 25.0128L43.3289 18.3147Z" fill="white"/>
<path d="M61.6442 0L54.9446 6.69597L45.7871 15.8535L52.4867 22.5531L61.6442 13.3956L64.1021 15.8535L45.7871 34.1685L52.4867 40.8681L77.4977 15.8535L72.2157 10.5751L70.8018 9.15751L61.6442 0Z" fill="#00ACEB"/>
<path d="M25.011 0L21.0843 3.92674L15.8535 9.15751L9.15751 15.8535L54.9451 61.6447L52.4872 64.1026L25.011 36.63L0 61.6447L6.69597 68.3407L25.011 50.0256L45.7876 70.8022L52.4872 77.4982L59.1832 70.8022L61.6447 68.3407L68.3407 61.6447L22.5531 15.8535L25.011 13.3956L34.1685 22.5531L40.8681 15.8535L25.011 0Z" fill="#00ACEB"/>
<path d="M83.4945 67.8572C85.8755 67.8572 87.4359 68.9781 86.8975 71.9378L85.6777 78.8608C85.1978 81.5605 84.2967 82.7436 81.7363 82.7436H75.9121L78.5348 67.8572H83.4982H83.4945ZM80.9121 79.9011C81.6923 79.9011 81.9341 79.4799 82.0916 78.5202L83.2528 71.9378C83.4323 70.9781 83.1539 70.5971 82.3736 70.5971H81.6337L80.0147 79.9011H80.9158H80.9121Z" fill="#00ACEB"/>
<path d="M92.1725 78.5422L94.0553 67.8572H97.5755L95.6158 78.9817C95.2348 81.1612 94.1542 82.9854 91.374 82.9854H90.7733C87.733 82.9854 86.2311 81.1832 86.711 78.6044L88.6121 67.8608H92.1322L90.2714 78.5458C90.1322 79.3663 90.3923 79.7656 91.0736 79.7656C91.7952 79.7656 92.0333 79.326 92.1725 78.5458V78.5422Z" fill="#00ACEB"/>
<path d="M103.784 67.8572C105.864 67.8572 107.227 68.8792 106.747 71.4982L106.608 72.2381C106.348 73.9378 105.289 74.3993 104.667 74.5605C105.308 74.8205 106.308 75.5825 105.927 77.8022L105.667 79.2821C105.286 81.4836 104.505 82.7436 102.125 82.7436H96L98.6227 67.8572H103.784ZM99.9011 80.1429H101C101.722 80.1429 101.982 79.8022 102.139 78.8608L102.399 77.3993C102.538 76.6191 102.3 76.1575 101.498 76.1575H100.619L99.8974 80.1392L99.9011 80.1429ZM101.062 73.6411H102.044C102.703 73.6411 103.004 73.2601 103.143 72.4396L103.304 71.5788C103.443 70.7583 103.245 70.359 102.443 70.359H101.641L101.062 73.6411Z" fill="#00ACEB"/>
<path d="M109.404 80.5019L108.723 82.7436H105.58L110.423 67.8572H115.023L115.042 82.7436H111.719L111.76 80.5019H109.397H109.404ZM111.826 77.7619L111.884 75.2601C111.943 73.74 111.965 72.5605 112.023 71.6191C111.804 72.4982 111.463 73.6594 111.001 75.2418L110.239 77.7619H111.822H111.826Z" fill="#00ACEB"/>
<path d="M115.768 82.7436L118.39 67.8572H121.991L119.368 82.7436H115.768Z" fill="#00ACEB"/>
<path d="M90.9189 50.0367H99.2888L97.7907 58.3553H80.168L86.9372 19.9084H96.1863L90.9152 50.0367H90.9189Z" fill="white"/>
<path d="M100.58 58.3591L107.349 19.9122H116.65L109.88 58.3591H100.58Z" fill="white"/>
<path d="M132.152 42.9048C132.412 40.4249 132.771 38.4616 133.445 34.1722L135.976 19.9084H143.573L136.804 58.3553H128.844L126.21 41.044C125.745 37.9451 125.54 35.8755 125.382 33.9634C125.229 35.978 124.815 38.5092 124.141 42.6447L121.401 58.3553H113.701L120.47 19.9084H129.306L131.371 35.4103C131.734 38.6667 131.991 40.8865 132.148 42.9048H132.152Z" fill="white"/>
<path d="M164.656 27.7144H154.891L153.7 34.5349H161.968L160.572 42.4946H152.305L150.909 50.4544H160.935L159.539 58.3591H140.627L147.396 19.9122H166.001L164.656 27.7144Z" fill="white"/>
</g>
<defs>
<clipPath id="clip0_15948_22501">
<rect width="164" height="82" fill="white"/>
</clipPath>
</defs>
</svg>
