<svg width="206" height="1091" viewBox="0 0 206 1091" fill="none" xmlns="http://www.w3.org/2000/svg">
<path d="M42.1386 467.891L24.3343 485.696L42.1386 503.5L59.9429 485.696L42.1386 467.891Z" fill="#005328"/>
<path d="M66.4939 443.55L48.6896 461.355L66.4939 479.159L84.2982 461.355L66.4939 443.55Z" fill="#005328"/>
<path d="M115.175 346.181L97.3704 363.985L115.175 381.789L132.979 363.985L115.175 346.181Z" fill="#005328"/>
<path d="M139.511 357.446L163.858 333.098L170.391 339.641L121.706 388.326L139.511 406.131L206 339.641L163.858 297.5L121.706 339.641L139.511 357.446Z" fill="#005328"/>
<path d="M66.4893 333.098L90.8262 357.446L108.631 339.641L66.4893 297.5L24.3369 339.641L146.054 461.358L139.511 467.89L66.4893 394.869L0 461.358L17.8046 479.152L66.4893 430.467L139.511 503.5L181.652 461.358L59.9462 339.641L66.4893 333.098Z" fill="#005328"/>
<g clip-path="url(#clip0_14566_33389)">
<path d="M65 272.078L118.454 325L154 289.7L154 275.34L118.414 310.68L65.097 257.732L65 272.078Z" fill="black"/>
<path d="M65 243.442L118.454 296.363L154 261.063L154 246.704L118.414 282.043L65.097 229.095L65 243.442Z" fill="black"/>
<path d="M65 214.805L118.454 267.727L154 232.427L154 218.067L118.414 253.407L65.097 200.458L65 214.805Z" fill="black"/>
<path d="M65 186.168L118.454 239.09L154 203.79L154 189.43L118.414 224.77L65.097 171.822L65 186.168Z" fill="black"/>
<path d="M65 157.533L118.454 210.451L154 175.155L154 160.795L118.414 196.135L65.097 143.186L65 157.533Z" fill="black"/>
<path d="M65 128.896L118.454 181.814L154 146.518L154 132.155L118.414 167.495L65.097 114.55L65 128.896Z" fill="black"/>
<path d="M65 100.256L118.454 153.178L154 117.878L154 103.518L118.414 138.858L65.097 85.9097L65 100.256Z" fill="black"/>
<path d="M65 71.6194L118.454 124.541L154 89.2411L154 74.8814L118.414 110.221L65.097 57.2729L65 71.6194Z" fill="black"/>
<path d="M65 42.9827L118.454 95.9043L154 60.6044L154 46.2446L118.414 81.5844L65.097 28.6362L65 42.9827Z" fill="black"/>
<path d="M65 14.346L118.454 67.2676L154 31.9677L154 17.6079L118.414 52.9477L65.097 -0.000473024L65 14.346Z" fill="black"/>
</g>
<g clip-path="url(#clip1_14566_33389)">
<path d="M143 530.922L89.5458 478L54 513.3L54 527.66L89.5859 492.32L142.903 545.268L143 530.922Z" fill="black"/>
<path d="M143 559.558L89.5458 506.637L54 541.937L54 556.296L89.5859 520.957L142.903 573.905L143 559.558Z" fill="black"/>
<path d="M143 588.195L89.5458 535.273L54 570.573L54 584.933L89.5859 549.593L142.903 602.542L143 588.195Z" fill="black"/>
<path d="M143 616.832L89.5458 563.91L54 599.21L54 613.57L89.5859 578.23L142.903 631.178L143 616.832Z" fill="black"/>
<path d="M143 645.467L89.5458 592.549L54 627.845L54 642.205L89.5859 606.865L142.903 659.814L143 645.467Z" fill="black"/>
<path d="M143 674.104L89.5458 621.186L54 656.482L54 670.845L89.5859 635.505L142.903 688.45L143 674.104Z" fill="black"/>
<path d="M143 702.744L89.5458 649.822L54 685.122L54 699.482L89.5859 664.142L142.903 717.09L143 702.744Z" fill="black"/>
<path d="M143 731.381L89.5458 678.459L54 713.759L54 728.119L89.5859 692.779L142.903 745.727L143 731.381Z" fill="black"/>
<path d="M143 760.017L89.5458 707.096L54 742.396L54 756.755L89.5859 721.416L142.903 774.364L143 760.017Z" fill="black"/>
<path d="M143 788.654L89.5458 735.732L54 771.032L54 785.392L89.5859 750.052L142.903 803L143 788.654Z" fill="black"/>
</g>
<g clip-path="url(#clip2_14566_33389)">
<path d="M143 818.922L89.5458 766L54 801.3L54 815.66L89.5859 780.32L142.903 833.268L143 818.922Z" fill="black"/>
<path d="M143 847.558L89.5458 794.637L54 829.937L54 844.296L89.5859 808.957L142.903 861.905L143 847.558Z" fill="black"/>
<path d="M143 876.195L89.5458 823.273L54 858.573L54 872.933L89.5859 837.593L142.903 890.542L143 876.195Z" fill="black"/>
<path d="M143 904.832L89.5458 851.91L54 887.21L54 901.57L89.5859 866.23L142.903 919.178L143 904.832Z" fill="black"/>
<path d="M143 933.467L89.5458 880.549L54 915.845L54 930.205L89.5859 894.865L142.903 947.814L143 933.467Z" fill="black"/>
<path d="M143 962.104L89.5458 909.186L54 944.482L54 958.845L89.5859 923.505L142.903 976.45L143 962.104Z" fill="black"/>
<path d="M143 990.744L89.5458 937.822L54 973.122L54 987.482L89.5859 952.142L142.903 1005.09L143 990.744Z" fill="black"/>
<path d="M143 1019.38L89.5458 966.459L54 1001.76L54 1016.12L89.5859 980.779L142.903 1033.73L143 1019.38Z" fill="black"/>
<path d="M143 1048.02L89.5458 995.096L54 1030.4L54 1044.76L89.5859 1009.42L142.903 1062.36L143 1048.02Z" fill="black"/>
<path d="M143 1076.65L89.5458 1023.73L54 1059.03L54 1073.39L89.5859 1038.05L142.903 1091L143 1076.65Z" fill="black"/>
</g>
<defs>
<clipPath id="clip0_14566_33389">
<rect width="325" height="89" fill="white" transform="translate(65 325) rotate(-90)"/>
</clipPath>
<clipPath id="clip1_14566_33389">
<rect width="325" height="89" fill="white" transform="translate(143 478) rotate(90)"/>
</clipPath>
<clipPath id="clip2_14566_33389">
<rect width="325" height="89" fill="white" transform="translate(143 766) rotate(90)"/>
</clipPath>
</defs>
</svg>
