<?xml version="1.0" encoding="UTF-8"?>
<svg xmlns="http://www.w3.org/2000/svg" width="160" height="164" viewBox="0 0 160 164" fill="none">
  <path d="M69.0343 96.68V96.7253H64.6389V84.6267L69.0343 96.68Z" fill="black"></path>
  <path d="M69.0569 96.7253V96.68L64.6616 84.6041L58.2725 67H58.0685L55.8482 73.1173L51.7927 84.2416C50.388 82.9955 48.4169 82.2252 45.9247 81.9306L45.1543 81.8626L45.902 81.772C50.0028 81.0244 52.7669 78.4415 52.7669 75.3149C52.7669 72.1883 48.7341 68.0422 42.9567 68.0422H30.9487V68.2461H34.4378V90.4041L25.9643 67.0453H25.7604L23.5401 73.1626L14.9759 96.7026H14.9306C14.772 96.7253 14.6361 96.748 14.5001 96.748C14.2736 96.748 14.0697 96.7706 13.8658 96.7706H5.21099L21.6822 68.2461L21.7955 68.0422H1.65392V76.8556H1.85783C1.90314 72.5508 4.39536 68.2461 9.92354 68.2461H16.5845L0 96.9745H22.3393V88.5237H22.1354C22.1127 92.262 19.983 95.819 15.3611 96.6347H15.2251C15.2251 96.6573 18.7369 87.0057 18.7369 87.0057H28.5925L32.1495 96.7706H28.6378V96.9745H42.3903V96.7706H38.8785V82.0439H42.934C47.0575 82.0439 49.4364 83.8791 49.4364 87.0963V89.7018C49.4364 89.9963 49.4364 90.4041 49.4817 90.7666L47.3067 96.7706H44.452V96.9745H50.3427V96.7706H47.5333L49.5271 91.3104C49.5271 91.3557 49.5271 91.401 49.5271 91.401L49.5724 91.8995L49.6177 92.2167C49.9575 94.2331 50.7278 95.7058 51.906 96.612L52.0646 96.7253C52.9708 97.3597 54.081 97.6769 55.3951 97.6769C56.7092 97.6769 58.2724 97.2464 59.2467 96.2269L59.1107 96.1136C58.2271 96.9292 57.5021 97.2464 56.5732 97.2464C54.9873 97.2464 54.1716 95.3432 54.1716 93.4628V89.7924C54.1716 88.8408 54.0357 87.9346 53.7412 87.1189L53.6958 87.0057H60.9006L64.4577 96.7706H60.9459V96.9745H72.8406V96.7706H69.1022L69.0569 96.7253ZM18.7596 86.7564L23.608 73.4344L28.4565 86.7564H18.7596ZM38.7879 81.772V68.2008H41.8918C46.038 68.2008 48.213 70.6477 48.213 75.3149C48.213 79.9822 46.9669 81.772 42.8434 81.772H38.7879ZM53.5599 86.7564V86.7111C53.2201 85.9182 52.7443 85.2158 52.1552 84.6041L51.9513 84.4002L55.9388 73.4118L60.7873 86.7338H53.5826L53.5599 86.7564Z" fill="black"></path>
  <path d="M159.773 88.569C159.773 93.0323 157.145 96.7253 150.552 96.7253H145.704V82.1119H147.448C150.779 82.1119 152.659 84.0377 152.659 86.8018H152.863V77.1048H152.659C152.659 79.9595 150.779 81.8853 147.448 81.8853H145.704V68.2008H150.688C155.831 68.2008 157.893 71.6219 157.893 75.4735H158.097V67.9742H132.472L124.792 90.6534L116.341 67.9742H107.686V68.1781H111.47V80.7298C110.722 73.1852 105.171 67.3398 98.2158 67.3398C91.2603 67.3398 86.5024 72.3922 85.1883 79.1892V68.2008H88.9493V67.9969H77.0547V68.2008H80.8156V81.772H68.989V68.2008H72.7499V67.9969H60.8553V68.2008H64.6163V84.6041L68.989 96.68V81.9986H80.8156V96.7253H77.0547V96.9292H88.9493V96.7253H85.1883V85.7822C86.5024 92.5792 91.7587 97.6315 98.2158 97.6315C104.673 97.6315 110.722 91.7862 111.47 84.2189V96.7253H107.437V96.9292H115.729V96.7253H111.696V68.2234L122.526 97.7901H122.662L132.45 68.7899V96.7479H128.598V96.9519H160V88.5916H159.796L159.773 88.569ZM103.472 95.7511C102.067 96.9745 100.391 97.4276 98.2611 97.4276C96.1314 97.4276 94.4548 96.9972 93.0501 95.7511C90.8071 93.8253 89.629 89.7018 89.629 82.497C89.629 75.2923 90.8071 71.1688 93.0501 69.243C94.4548 68.0195 96.1087 67.5664 98.2611 67.5664C100.413 67.5664 102.09 67.9969 103.472 69.243C105.67 71.1688 106.893 75.3149 106.893 82.497C106.893 89.6791 105.67 93.8253 103.472 95.7511ZM141.286 96.7253H136.845V68.2008H141.286V96.7253Z" fill="black"></path>
</svg>
